<?xml version="1.0" standalone="no"?>
<!DOCTYPE svg PUBLIC "-//W3C//DTD SVG 1.1//EN" "http://www.w3.org/Graphics/SVG/1.1/DTD/svg11.dtd" >
<svg xmlns="http://www.w3.org/2000/svg" xmlns:xlink="http://www.w3.org/1999/xlink" version="1.1">
<metadata>
Created by FontForge 20170731 at Fri Dec 10 02:39:05 2021
 By Aleksey,,,
Copyright (c) 2018 by S-Core Co., Ltd.. All rights reserved.
</metadata>
<defs>
<font id="S-CoreDream-8Heavy" horiz-adv-x="1966" >
  <font-face 
    font-family="S-Core Dream 8 Heavy"
    font-weight="800"
    font-stretch="normal"
    units-per-em="2048"
    panose-1="2 11 9 3 3 3 2 2 2 4"
    ascent="1638"
    descent="-410"
    x-height="1155"
    cap-height="1622"
    bbox="-78 -569 2632 2120"
    underline-thickness="102"
    underline-position="-307"
    unicode-range="U+0020-FFE6"
  />
<missing-glyph horiz-adv-x="606" 
 />
    <glyph glyph-name=".notdef" horiz-adv-x="606" 
 />
    <glyph glyph-name=".null" horiz-adv-x="0" 
 />
    <glyph glyph-name="nonmarkingreturn" horiz-adv-x="682" 
 />
    <glyph glyph-name="_1" unicode=" " horiz-adv-x="606" 
 />
    <glyph glyph-name="_2" unicode="!" horiz-adv-x="671" 
d="M154 -12v327h362v-327h-362zM182 496l-28 893v233h362v-233l-27 -893h-307z" />
    <glyph glyph-name="_3" unicode="&#x22;" horiz-adv-x="962" 
d="M539 1112v510h297v-510h-297zM127 1112v510h299v-510h-299z" />
    <glyph glyph-name="_4" unicode="#" horiz-adv-x="1607" 
d="M741 -12l86 389h-231l-84 -389h-328l86 389h-217v276h277l65 303h-262v277h322l86 389h325l-86 -389h232l84 389h327l-86 -389h217v-277h-276l-66 -303h263v-276h-324l-82 -389h-328zM723 956l-66 -303h228l67 303h-229z" />
    <glyph glyph-name="_5" unicode="$" horiz-adv-x="1345" 
d="M819 1829v-197q190 -40 298 -163.5t108 -284.5v-27h-389v27q0 71 -50 116.5t-137 45.5q-89 0 -137.5 -43.5t-48.5 -118.5q0 -35 8 -60.5t30 -46.5t45.5 -34.5t72 -28t91 -24.5t119.5 -25q228 -46 342.5 -169.5t114.5 -332.5q0 -187 -110.5 -316.5t-313.5 -171.5v-194
h-340v194q-208 36 -323 163.5t-115 314.5v30h387v-34q0 -85 57 -135t158 -50q100 0 155.5 50t55.5 135q0 80 -51.5 130t-165.5 70q-119 19 -207 44t-166.5 65.5t-127.5 95.5t-77 134t-28 181q0 171 106 297t297 166v197h342z" />
    <glyph glyph-name="_6" unicode="%" horiz-adv-x="1908" 
d="M1157 1622h264l-669 -1634h-265zM360 1208q0 -127 20.5 -174t70.5 -47q51 0 70.5 46.5t19.5 174.5q0 130 -19.5 177t-70.5 47q-50 0 -70.5 -48t-20.5 -176zM88 1208q0 443 361 443q364 0 364 -443q0 -440 -360 -440q-365 0 -365 440zM1550 401q0 127 -20 174.5t-72 47.5
q-50 0 -70 -47.5t-20 -174.5q0 -128 20 -175.5t70 -47.5q52 0 72 47t20 176zM1821 401q0 -442 -359 -442q-366 0 -366 442q0 441 362 441q363 0 363 -441z" />
    <glyph glyph-name="_7" unicode="&#x26;" horiz-adv-x="1562" 
d="M1065 825h358q-15 -288 -143 -503l291 -334h-432l-90 104q-157 -133 -406 -133q-259 0 -412 131t-153 350q0 144 71.5 256.5t208.5 184.5l-12 18q-81 98 -117 181.5t-36 174.5q0 182 129.5 289t341.5 107q213 0 342 -106.5t129 -289.5v-59h-363v59q0 119 -108 119
q-54 0 -81.5 -31t-27.5 -88q0 -54 21 -100t77 -111l381 -446q28 91 31 227zM444 449q0 -100 60.5 -151.5t159.5 -51.5q115 0 192 65l-305 348q-107 -81 -107 -210z" />
    <glyph glyph-name="_8" unicode="'" horiz-adv-x="552" 
d="M127 1112v510h299v-510h-299z" />
    <glyph glyph-name="_9" unicode="(" horiz-adv-x="792" 
d="M127 795q0 166 8.5 299t27.5 239t45 185t66 137t86.5 96t109.5 61t131.5 32t156.5 9v-282q-38 0 -63 -3.5t-53.5 -15t-47 -34.5t-37.5 -61.5t-30 -96t-20.5 -137t-13.5 -186t-4 -242.5q0 -155 6 -272t16 -200t28.5 -139t37.5 -89t50.5 -50t59.5 -22t71 -5v-280
q-88 0 -156.5 9t-131.5 32t-109.5 61t-86.5 96t-66 137t-45 185t-27.5 238.5t-8.5 298.5z" />
    <glyph glyph-name="_10" unicode=")" horiz-adv-x="792" 
d="M668 795q0 -190 -12 -336.5t-34.5 -258.5t-61.5 -191t-87 -132t-116.5 -83.5t-144.5 -43t-177 -12.5v280q38 0 63 3.5t53.5 15.5t47 35t37 61.5t30 96t20.5 137.5t13 186t4 242q0 121 -3.5 218.5t-9.5 173.5t-17 133.5t-23 98.5t-30.5 68.5t-35.5 44t-43.5 25.5
t-49.5 11.5t-56 2.5v282q101 0 177 -12.5t144.5 -43t116.5 -83t87 -132t61.5 -191.5t34.5 -259t12 -337z" />
    <glyph glyph-name="_11" unicode="*" horiz-adv-x="1212" 
d="M61 893l146 252l297 -225l-45 370h293l-50 -370l299 225l148 -252l-346 -143l346 -146l-148 -254l-299 225l50 -368h-293l45 368l-297 -225l-146 254l345 146z" />
    <glyph glyph-name="_12" unicode="+" horiz-adv-x="1241" 
d="M78 610v277h377v401h331v-401h377v-277h-377v-403h-331v403h-377z" />
    <glyph glyph-name="_13" unicode="," horiz-adv-x="655" 
d="M512 356v-368q0 -138 -98 -225t-273 -91v162q185 6 185 154h-185v368h371z" />
    <glyph glyph-name="_14" unicode="-" horiz-adv-x="942" 
d="M78 598v299h786v-299h-786z" />
    <glyph glyph-name="_15" unicode="." horiz-adv-x="655" 
d="M512 356v-368h-371v368h371z" />
    <glyph glyph-name="_16" unicode="/" horiz-adv-x="1138" 
d="M1139 1817l-766 -2046h-373l766 2046h373z" />
    <glyph glyph-name="_17" unicode="0" horiz-adv-x="1310" 
d="M1231 805q0 -255 -40.5 -419.5t-129.5 -268.5q-137 -158 -406 -158q-270 0 -407 158q-89 104 -129.5 268.5t-40.5 419.5t40.5 419.5t129.5 268.5q137 158 407 158q269 0 406 -158q89 -104 129.5 -268.5t40.5 -419.5zM854 805q0 198 -13 310t-44 165q-50 76 -142 76
q-96 0 -143 -76q-31 -53 -44 -165t-13 -310t13 -309.5t44 -165.5q47 -76 143 -76q92 0 142 76q31 54 44 165.5t13 309.5z" />
    <glyph glyph-name="_18" unicode="1" horiz-adv-x="1310" 
d="M965 -12h-379v1290l-334 -150v314l389 180h324v-1634z" />
    <glyph glyph-name="_19" unicode="2" horiz-adv-x="1310" 
d="M1186 1157q0 -126 -37 -214t-133 -198l-404 -462h598v-295h-1073v272l565 651q59 68 83 123.5t24 124.5q0 197 -160 197q-79 0 -119.5 -50.5t-40.5 -146.5v-72h-376v70q0 101 35.5 190t102 157t169.5 107.5t229 39.5q128 0 231 -39.5t169 -107.5t101.5 -157t35.5 -190z
" />
    <glyph glyph-name="_20" unicode="3" horiz-adv-x="1310" 
d="M649 254q89 0 138 55.5t49 157.5q0 127 -54 181t-176 54h-125v291h125q191 0 191 193q0 81 -39 125.5t-109 44.5q-69 0 -108 -44.5t-39 -125.5v-29h-365v45q0 203 136.5 326t375.5 123q238 0 376 -123t138 -320q0 -142 -66 -229.5t-184 -122.5q145 -35 222 -140.5
t77 -264.5q0 -222 -154.5 -357t-408.5 -135t-407.5 134.5t-153.5 357.5v51h375v-35q0 -103 48.5 -158t137.5 -55z" />
    <glyph glyph-name="_21" unicode="4" horiz-adv-x="1310" 
d="M391 588h309v520zM1243 588v-295h-170v-305h-373v305h-634v295l616 1034h391v-1034h170z" />
    <glyph glyph-name="_22" unicode="5" horiz-adv-x="1310" 
d="M659 770q-95 0 -139 -86h-350l41 938h915v-295h-565l-20 -373q37 43 97.5 69t137.5 26q197 0 314.5 -138t117.5 -409q0 -254 -142.5 -398.5t-406.5 -144.5q-251 0 -391.5 131.5t-154.5 362.5h379q15 -199 167 -199q86 0 129 62.5t43 195.5q0 128 -40.5 193t-131.5 65z
" />
    <glyph glyph-name="_23" unicode="6" horiz-adv-x="1310" 
d="M1186 1210h-373q-12 156 -147 156q-99 0 -144 -104t-49 -349q38 63 111.5 99.5t165.5 36.5q202 0 335.5 -145.5t133.5 -395.5q0 -252 -149 -400.5t-400 -148.5q-321 0 -461 231q-109 179 -109 572q0 322 63 518.5t187 283.5t322 87q227 0 363 -117t151 -324zM481 510
q0 -126 46 -191t135 -65q88 0 134 65t46 191q0 127 -46 192.5t-134 65.5q-181 0 -181 -258z" />
    <glyph glyph-name="_24" unicode="7" horiz-adv-x="1310" 
d="M123 1327v295h1065v-270l-508 -1364h-387l514 1339h-684z" />
    <glyph glyph-name="_25" unicode="8" horiz-adv-x="1310" 
d="M655 1651q246 0 391.5 -122t145.5 -319q0 -124 -66 -219.5t-174 -134.5q136 -49 211.5 -151t75.5 -254q0 -226 -158.5 -359t-425.5 -133q-268 0 -426.5 132.5t-158.5 359.5q0 153 75 254.5t211 150.5q-107 39 -172 134t-65 220q0 198 144.5 319.5t391.5 121.5zM655 254
q96 0 152.5 60.5t56.5 170.5t-56.5 170t-152.5 60q-97 0 -154 -60t-57 -170q0 -111 57 -171t154 -60zM655 997q78 0 122 47t44 132t-44 132.5t-122 47.5q-80 0 -125 -47.5t-45 -132.5q0 -84 45 -131.5t125 -47.5z" />
    <glyph glyph-name="_26" unicode="9" horiz-adv-x="1310" 
d="M121 397h373q12 -155 145 -155q101 0 146.5 104t48.5 348q-38 -63 -110.5 -98t-166.5 -35q-202 0 -335.5 144.5t-133.5 394.5q0 254 149 402.5t402 148.5q319 0 459 -234q60 -99 84 -240t24 -331q0 -322 -62 -518t-186 -282.5t-323 -86.5q-227 0 -363 116t-151 322z
M827 1098q0 125 -46.5 190.5t-133.5 65.5q-89 0 -135.5 -65t-46.5 -191t46.5 -191t135.5 -65q87 0 133.5 65.5t46.5 190.5z" />
    <glyph glyph-name="_27" unicode=":" horiz-adv-x="655" 
d="M512 1155v-369h-371v369h371zM512 356v-368h-371v368h371z" />
    <glyph glyph-name="_28" unicode=";" horiz-adv-x="655" 
d="M512 1155v-369h-371v369h371zM512 356v-368q0 -138 -98 -225t-273 -91v162q185 6 185 154h-185v368h371z" />
    <glyph glyph-name="_29" unicode="&#x3c;" horiz-adv-x="1232" 
d="M94 606v287l1047 412v-324l-649 -231l649 -234v-321z" />
    <glyph glyph-name="_30" unicode="=" horiz-adv-x="1241" 
d="M78 844v278h1085v-278h-1085zM78 375v278h1085v-278h-1085z" />
    <glyph glyph-name="_31" unicode="&#x3e;" horiz-adv-x="1232" 
d="M1141 893v-287l-1047 -411v321l647 234l-647 231v324z" />
    <glyph glyph-name="_32" unicode="?" horiz-adv-x="1210" 
d="M752 1186q0 80 -39 125t-111 45q-71 0 -110 -45t-39 -125v-31h-365v31q0 210 133 337.5t381 127.5t381 -127.5t133 -337.5q0 -131 -43.5 -219.5t-148.5 -182.5q-94 -83 -123 -134t-29 -126v-71h-362v104q0 126 38 204t144 169q93 80 126.5 133t33.5 123zM410 -12v327h362
v-327h-362z" />
    <glyph glyph-name="_33" unicode="@" horiz-adv-x="1718" 
d="M860 1409q-131 0 -215 -37t-139 -131.5t-77.5 -248t-22.5 -394.5q0 -199 17 -338.5t50 -232t90 -144.5t127 -73t170 -21q153 0 248 57l84 -223q-146 -76 -342 -76q-144 0 -252.5 27.5t-203 98.5t-154 188.5t-93.5 302t-34 434.5q0 288 40.5 485t131 325t231 185.5
t344.5 57.5q402 0 574 -242t172 -799q0 -293 -132 -448.5t-380 -155.5q-235 0 -360.5 144t-125.5 401q0 261 113 397.5t307 136.5q103 0 172 -39.5t98 -107.5q-31 256 -129 363.5t-309 107.5zM915 545q0 -151 47.5 -221t151.5 -70t151.5 70t47.5 221t-47.5 222t-151.5 71
t-151.5 -71t-47.5 -222z" />
    <glyph glyph-name="_34" unicode="A" horiz-adv-x="1480" 
d="M410 -12h-396l521 1634h407l522 -1634h-395l-78 286h-504zM567 578h342l-170 632z" />
    <glyph glyph-name="_35" unicode="B" horiz-adv-x="1392" 
d="M907 1145q0 99 -50.5 141.5t-154.5 42.5h-202v-366h202q104 0 154.5 42.5t50.5 139.5zM778 -12h-667v1634h641q266 0 401 -113t135 -333q0 -127 -60 -212t-169 -124q127 -37 200.5 -136.5t73.5 -236.5q0 -237 -140.5 -358t-414.5 -121zM944 485q0 108 -51.5 156.5
t-161.5 48.5h-231v-409h231q110 0 161.5 49t51.5 155z" />
    <glyph glyph-name="_36" unicode="C" horiz-adv-x="1476" 
d="M78 805q0 425 168 635q168 211 504 211q303 0 474.5 -160t180.5 -438h-387q-8 134 -76 207t-192 73q-141 0 -207 -100q-40 -60 -57 -158t-17 -270t17 -270t57 -158q67 -101 207 -101q125 0 193.5 73.5t74.5 207.5h387q-9 -278 -180.5 -438t-474.5 -160q-336 0 -504 211
q-168 210 -168 635z" />
    <glyph glyph-name="_37" unicode="D" horiz-adv-x="1468" 
d="M735 -12h-624v1634h624q155 0 270.5 -40t188 -109t117 -175t61.5 -224t17 -269t-17 -269t-61.5 -224t-117 -175t-188 -109t-270.5 -40zM999 805q0 125 -10.5 213t-31 146t-56 91t-79.5 46.5t-107 13.5h-215v-1020h215q63 0 107 13.5t79.5 46.5t56 91t31 146t10.5 213z
" />
    <glyph glyph-name="_38" unicode="E" horiz-adv-x="1230" 
d="M111 -12v1634h1038v-315h-649v-324h565v-315h-565v-365h659v-315h-1048z" />
    <glyph glyph-name="_39" unicode="F" horiz-adv-x="1185" 
d="M111 -12v1634h1026v-315h-637v-346h565v-316h-565v-657h-389z" />
    <glyph glyph-name="_40" unicode="G" horiz-adv-x="1503" 
d="M78 805q0 846 672 846q301 0 472.5 -160.5t182.5 -437.5h-387q-8 134 -76 207t-192 73q-59 0 -101.5 -13.5t-78 -48t-57 -94t-33 -151.5t-11.5 -221q0 -208 32 -325t92 -161.5t163 -44.5q130 0 199.5 83t78.5 229h-278v274h647v-872h-279l-39 184q-42 -98 -142 -155.5
t-243 -57.5q-131 0 -235.5 41t-176.5 114.5t-119.5 179.5t-69 233t-21.5 278z" />
    <glyph glyph-name="_41" unicode="H" horiz-adv-x="1425" 
d="M926 -12v680h-426v-680h-389v1634h389v-639h426v639h391v-1634h-391z" />
    <glyph glyph-name="_42" unicode="I" horiz-adv-x="608" 
d="M500 1622v-1634h-389v1634h389z" />
    <glyph glyph-name="_43" unicode="J" horiz-adv-x="1249" 
d="M588 -41q-273 0 -415 140.5t-142 394.5v34h389q0 -136 41 -195t127 -59q87 0 126.5 58t39.5 188v1102h389v-1128q0 -255 -141 -395t-414 -140z" />
    <glyph glyph-name="_44" unicode="K" horiz-adv-x="1415" 
d="M1368 1622l-424 -797l483 -837h-426l-372 680h-129v-680h-389v1634h389v-639h129l317 639h422z" />
    <glyph glyph-name="_45" unicode="L" horiz-adv-x="1185" 
d="M111 -12v1634h389v-1319h659v-315h-1048z" />
    <glyph glyph-name="_46" unicode="M" horiz-adv-x="1914" 
d="M1106 -12h-297l-322 848v-848h-376v1634h374l473 -1241l469 1241h377v-1634h-377v848z" />
    <glyph glyph-name="_47" unicode="N" horiz-adv-x="1447" 
d="M954 -12l-458 973v-973h-385v1634h385l458 -973v973h385v-1634h-385z" />
    <glyph glyph-name="_48" unicode="O" horiz-adv-x="1501" 
d="M1421 805q0 -428 -166 -635q-172 -211 -505 -211q-336 0 -504 211q-168 210 -168 635t168 635q168 211 504 211q333 0 505 -211q166 -207 166 -635zM469 805q0 -171 17 -269.5t57 -158.5q67 -101 207 -101q139 0 206 101q41 60 58.5 158t17.5 270t-17.5 270t-58.5 158
q-66 100 -206 100q-141 0 -207 -100q-40 -60 -57 -158.5t-17 -269.5z" />
    <glyph glyph-name="_49" unicode="P" horiz-adv-x="1380" 
d="M784 551h-284v-563h-389v1634h673q263 0 406 -139.5t143 -395.5q0 -257 -142.5 -396.5t-406.5 -139.5zM500 866h227q217 0 217 221q0 220 -217 220h-227v-441z" />
    <glyph glyph-name="_50" unicode="Q" horiz-adv-x="1519" 
d="M1495 98l-203 -229l-198 172q-139 -82 -344 -82q-672 0 -672 846t672 846q669 0 669 -846q0 -361 -110 -553zM469 805q0 -130 11.5 -222t32.5 -152t56.5 -95t78 -48.5t102.5 -13.5q27 0 55 7l-103 84l175 180l110 -92q43 103 43 352q0 207 -32 324t-90.5 160.5
t-157.5 43.5q-60 0 -102.5 -13.5t-78 -48.5t-56.5 -94.5t-32.5 -151.5t-11.5 -220z" />
    <glyph glyph-name="_51" unicode="R" horiz-adv-x="1423" 
d="M932 137l-12 205q-7 118 -54 163.5t-161 45.5h-205v-563h-389v1634h688q260 0 397 -133t137 -367q0 -163 -73 -267.5t-211 -143.5q129 -21 187 -102.5t69 -243.5l14 -226q5 -90 35 -151h-393q-22 56 -29 149zM500 866h225q107 0 163 52.5t56 168.5q0 220 -219 220h-225
v-441z" />
    <glyph glyph-name="_52" unicode="S" horiz-adv-x="1345" 
d="M1286 465q0 -226 -158 -366t-442 -140q-279 0 -440.5 137t-161.5 357v30h389v-34q0 -85 56 -135t157 -50q100 0 155.5 50t55.5 135q0 80 -51 128.5t-166 71.5l-145 29q-459 91 -459 493q0 101 38 188t109.5 152.5t181.5 102.5t246 37q134 0 244 -37.5t181.5 -101.5
t110 -148t38.5 -178v-27h-387v27q0 73 -49.5 116.5t-137.5 43.5q-90 0 -139 -43t-49 -117q0 -78 52 -122t171 -69l143 -28q229 -46 343 -170t114 -332z" />
    <glyph glyph-name="_53" unicode="T" horiz-adv-x="1280" 
d="M25 1307v315h1230v-315h-419v-1319h-392v1319h-419z" />
    <glyph glyph-name="_54" unicode="U" horiz-adv-x="1482" 
d="M741 -41q-318 0 -478.5 168.5t-160.5 468.5v1026h392v-1030q0 -162 61 -239t186 -77t186.5 77t61.5 239v1030h389v-1026q0 -300 -160.5 -468.5t-476.5 -168.5z" />
    <glyph glyph-name="_55" unicode="V" horiz-adv-x="1480" 
d="M410 1622l329 -1225l332 1225h393l-520 -1634h-409l-519 1634h394z" />
    <glyph glyph-name="_56" unicode="W" horiz-adv-x="2242" 
d="M952 1622h340l295 -1155l242 1155h389l-420 -1634h-371l-307 1179l-303 -1179h-373l-419 1634h389l239 -1155z" />
    <glyph glyph-name="_57" unicode="X" horiz-adv-x="1454" 
d="M1024 -12l-297 608l-297 -608h-405l446 846l-412 788h406l262 -557l262 557h406l-412 -788l447 -846h-406z" />
    <glyph glyph-name="_58" unicode="Y" horiz-adv-x="1452" 
d="M727 958l301 664h399l-505 -989v-645h-390v645l-507 989h399z" />
    <glyph glyph-name="_59" unicode="Z" horiz-adv-x="1263" 
d="M63 281l654 1026h-629v315h1100v-293l-653 -1026h665v-315h-1137v293z" />
    <glyph glyph-name="_60" unicode="[" horiz-adv-x="806" 
d="M127 -229v2046h614v-281h-252v-1489h252v-276h-614z" />
    <glyph glyph-name="_61" unicode="\" 
d="M815 1622l-147 -733h-146l-110 733h-389l157 -733h-166v-152h199l162 -749h373l151 749h170l154 -749h370l162 749h182v152h-149l158 733h-390l-110 -733h-146l-145 733h-340zM1331 737h90l-39 -260zM1038 889h-108l53 268zM545 737h92l-53 -260z" />
    <glyph glyph-name="_62" unicode="]" horiz-adv-x="808" 
d="M680 1817v-2046h-614v276h251v1489h-251v281h614z" />
    <glyph glyph-name="_63" unicode="^" horiz-adv-x="1062" 
d="M387 1622h289l356 -569h-342l-160 276l-159 -276h-340z" />
    <glyph glyph-name="_64" unicode="_" horiz-adv-x="1167" 
d="M0 -414v168h1167v-168h-1167z" />
    <glyph glyph-name="_65" unicode="`" horiz-adv-x="870" 
d="M422 1317l-289 375h387l217 -375h-315z" />
    <glyph glyph-name="_66" unicode="a" horiz-adv-x="1243" 
d="M772 125q-32 -74 -115 -120t-202 -46q-176 0 -285 100t-109 269q0 171 107 270.5t287 99.5q114 0 199 -43t118 -120v229q0 70 -37.5 113t-107.5 43q-67 0 -104.5 -35t-43.5 -97h-362q8 180 138.5 288t371.5 108q244 0 377 -115.5t133 -304.5v-600q0 -114 32 -176h-370
q-24 53 -27 137zM600 193q172 0 172 135q0 137 -172 137q-174 0 -174 -137q0 -135 174 -135z" />
    <glyph glyph-name="_67" unicode="b" horiz-adv-x="1275" 
d="M459 166v-178h-365v1634h365v-645q30 94 114 150.5t203 56.5q208 0 321 -155.5t113 -457.5t-113 -457t-321 -155q-119 0 -203 56.5t-114 150.5zM459 571q0 -184 45.5 -261t148.5 -77q102 0 148.5 77.5t46.5 260.5t-46.5 260.5t-148.5 77.5q-103 0 -148.5 -77t-45.5 -261z
" />
    <glyph glyph-name="_68" unicode="c" horiz-adv-x="1226" 
d="M66 571q0 288 139.5 450.5t421.5 162.5q248 0 390.5 -121t153.5 -330h-362q-9 91 -54 133.5t-128 42.5q-103 0 -150 -77.5t-47 -260.5t47 -260.5t150 -77.5q164 0 182 177h362q-11 -209 -153.5 -330t-390.5 -121q-282 0 -421.5 162t-139.5 450z" />
    <glyph glyph-name="_69" unicode="d" horiz-adv-x="1277" 
d="M821 -12v178q-33 -94 -117 -150.5t-202 -56.5q-209 0 -322.5 155t-113.5 457t113.5 457.5t322.5 155.5q118 0 202 -56.5t117 -150.5v645h363v-1634h-363zM821 571q0 183 -46 260.5t-148 77.5q-103 0 -150 -77.5t-47 -260.5t47 -260.5t150 -77.5q102 0 148 77.5t46 260.5z
" />
    <glyph glyph-name="_70" unicode="e" horiz-adv-x="1249" 
d="M1180 483h-748v-20q0 -123 51.5 -186.5t143.5 -63.5q70 0 113 34.5t55 98.5h364q-29 -184 -167 -285.5t-365 -101.5q-143 0 -251 43.5t-175.5 124.5t-101 192.5t-33.5 251.5t33.5 251.5t101 193t175.5 125t251 43.5q142 0 249.5 -43.5t174.5 -125t100 -192.5t33 -252
q0 -48 -4 -88zM432 690h383q-6 240 -192 240q-185 0 -191 -240z" />
    <glyph glyph-name="_71" unicode="f" horiz-adv-x="897" 
d="M866 1366h-145q-80 0 -111.5 -29t-31.5 -96v-86h288v-272h-288v-895h-363v895h-174v272h174v117q0 192 102 279t334 87q147 0 215 -12v-260z" />
    <glyph glyph-name="_72" unicode="g" horiz-adv-x="1277" 
d="M819 -102v268q-32 -93 -116 -150t-201 -57q-210 0 -323 155t-113 457t113 457.5t323 155.5q118 0 202 -56.5t115 -150.5v178h365v-1233q0 -105 -32 -191t-95.5 -151t-167 -101t-238.5 -36q-235 0 -366.5 102t-155.5 283h367q12 -133 157 -133q166 0 166 203zM819 571
q0 182 -46 260t-148 78q-103 0 -150 -78t-47 -260q0 -183 47 -261.5t150 -78.5t148.5 78t45.5 262z" />
    <glyph glyph-name="_73" unicode="h" horiz-adv-x="1247" 
d="M1157 733v-745h-364v735q0 96 -35.5 141t-108.5 45q-88 0 -139 -68t-51 -190v-663h-365v1634h365v-653q31 99 115 157t206 58q183 0 280 -113.5t97 -337.5z" />
    <glyph glyph-name="_74" unicode="i" horiz-adv-x="569" 
d="M102 1323v299h363v-299h-363zM102 -12v1167h363v-1167h-363z" />
    <glyph glyph-name="_75" unicode="j" horiz-adv-x="630" 
d="M164 -86v1241h362v-1268q0 -409 -438 -409q-84 0 -166 8v264h94q76 0 112 39.5t36 124.5zM164 1323v299h362v-299h-362z" />
    <glyph glyph-name="_76" unicode="k" horiz-adv-x="1193" 
d="M94 -12v1634h365v-897h82l215 430h379l-301 -561l350 -606h-385l-260 479h-80v-479h-365z" />
    <glyph glyph-name="_77" unicode="l" horiz-adv-x="569" 
d="M465 -12h-363v1634h363v-1634z" />
    <glyph glyph-name="_78" unicode="m" horiz-adv-x="1929" 
d="M784 -12v743q0 178 -139 178q-87 0 -136.5 -68t-49.5 -192v-661h-365v1167h365v-186q32 99 114.5 157t202.5 58q121 0 207.5 -56t126.5 -161q48 104 138 160.5t214 56.5q183 0 280 -115t97 -338v-743h-364v743q0 178 -140 178q-87 0 -136.5 -68t-49.5 -192v-661h-365z
" />
    <glyph glyph-name="_79" unicode="n" horiz-adv-x="1247" 
d="M1157 733v-745h-364v735q0 96 -35.5 141t-108.5 45q-88 0 -139 -68t-51 -190v-663h-365v1167h365v-186q31 99 115 157t206 58q183 0 280 -113.5t97 -337.5z" />
    <glyph glyph-name="_80" unicode="o" horiz-adv-x="1249" 
d="M430 571q0 -183 47 -260.5t150 -77.5q102 0 148 77.5t46 260.5t-46 260.5t-148 77.5q-103 0 -150 -77.5t-47 -260.5zM66 571q0 288 139.5 450.5t421.5 162.5q280 0 418.5 -162.5t138.5 -450.5t-138.5 -450t-418.5 -162q-282 0 -421.5 162t-139.5 450z" />
    <glyph glyph-name="_81" unicode="p" horiz-adv-x="1275" 
d="M459 1155v-178q30 94 114 150.5t203 56.5q208 0 321 -155.5t113 -457.5t-113 -457t-321 -155q-119 0 -203 56.5t-114 150.5v-688h-365v1677h365zM459 571q0 -184 45.5 -261t148.5 -77q102 0 148.5 77.5t46.5 260.5t-46.5 260.5t-148.5 77.5q-103 0 -148.5 -77t-45.5 -261
z" />
    <glyph glyph-name="_82" unicode="q" horiz-adv-x="1277" 
d="M821 977v178h363v-1677h-363v688q-33 -94 -117 -150.5t-202 -56.5q-209 0 -322.5 155t-113.5 457t113.5 457.5t322.5 155.5q118 0 202 -56.5t117 -150.5zM821 571q0 183 -46 260.5t-148 77.5q-103 0 -150 -77.5t-47 -260.5t47 -260.5t150 -77.5q102 0 148 77.5t46 260.5z
" />
    <glyph glyph-name="_83" unicode="r" horiz-adv-x="864" 
d="M750 881q-138 0 -214.5 -86t-76.5 -248v-559h-365v1167h365v-227q25 130 97.5 193t199.5 63q62 0 84 -10l-4 -295q-20 2 -86 2z" />
    <glyph glyph-name="_84" unicode="s" horiz-adv-x="1120" 
d="M70 330v14h364v-27q0 -50 35 -80t98 -30q61 0 96 30.5t35 77.5q0 51 -32.5 79.5t-108.5 43.5l-121 23q-368 72 -368 360q0 162 125.5 262.5t347.5 100.5q225 0 348 -97.5t123 -250.5v-19h-365v23q0 42 -27.5 68t-80.5 26q-51 0 -80 -25.5t-29 -68.5q0 -45 34 -72.5
t109 -42.5l121 -25q191 -37 280 -123t89 -241q0 -168 -134 -272.5t-364 -104.5q-236 0 -365.5 104t-129.5 267z" />
    <glyph glyph-name="_85" unicode="t" horiz-adv-x="929" 
d="M573 883v-475q0 -98 38.5 -131t146.5 -33h119v-267q-73 -6 -222 -6q-246 0 -346 87t-100 300v525h-172v272h172v332h364v-332h304v-272h-304z" />
    <glyph glyph-name="_86" unicode="u" horiz-adv-x="1249" 
d="M90 410v745h365v-735q0 -187 143 -187q90 0 141.5 68.5t51.5 190.5v663h364v-1167h-364v186q-33 -99 -117.5 -157t-206.5 -58q-182 0 -279.5 114t-97.5 337z" />
    <glyph glyph-name="_87" unicode="v" horiz-adv-x="1243" 
d="M811 -12h-381l-405 1167h370l228 -774l225 774h371z" />
    <glyph glyph-name="_88" unicode="w" horiz-adv-x="1921" 
d="M819 1155h281l225 -772l203 772h368l-372 -1167h-355l-208 727l-211 -727h-355l-370 1167h368l203 -772z" />
    <glyph glyph-name="_89" unicode="x" horiz-adv-x="1171" 
d="M780 -12l-194 401l-195 -401h-375l332 600l-307 567h373l172 -371l172 371h375l-310 -567l332 -600h-375z" />
    <glyph glyph-name="_90" unicode="y" horiz-adv-x="1243" 
d="M410 -123l39 109l-424 1169h372l228 -756l221 756h373l-451 -1284q-43 -122 -80.5 -194t-89 -119t-113.5 -63.5t-157 -16.5q-119 0 -162 6v268h88q57 0 93 26.5t63 98.5z" />
    <glyph glyph-name="_91" unicode="z" horiz-adv-x="1071" 
d="M510 260h504v-272h-957v250l488 645h-469v272h921v-250z" />
    <glyph glyph-name="_92" unicode="{" horiz-adv-x="866" 
d="M63 653v279h48q71 0 105 43.5t34 120.5v321q0 208 100 304t320 96h133v-281h-47q-70 0 -106 -42.5t-36 -119.5v-334q0 -199 -170 -247q170 -48 170 -248v-332q0 -78 36.5 -121t105.5 -43h47v-278h-133q-220 0 -320 95.5t-100 301.5v321q0 77 -34 120.5t-105 43.5h-48z
" />
    <glyph glyph-name="_93" unicode="|" horiz-adv-x="679" 
d="M158 -229v2046h364v-2046h-364z" />
    <glyph glyph-name="_94" unicode="}" horiz-adv-x="866" 
d="M803 932v-279h-47q-71 0 -106.5 -44t-35.5 -120v-321q0 -207 -98.5 -302t-316.5 -95h-136v278h48q69 0 104 43t35 121v332q0 199 172 248q-172 49 -172 247v334q0 78 -35 120t-104 42h-48v281h136q218 0 316.5 -96t98.5 -304v-321q0 -76 35.5 -120t106.5 -44h47z" />
    <glyph glyph-name="_95" unicode="~" horiz-adv-x="1228" 
d="M854 537q-67 0 -125 18.5t-91.5 41.5t-72.5 41.5t-71 18.5q-76 0 -76 -100v-6h-322q0 200 65.5 306t213.5 106q66 0 124 -18.5t91 -41t72 -41t71 -18.5q37 0 56.5 25.5t19.5 72.5v6h324q0 -199 -65.5 -305t-213.5 -106z" />
    <glyph glyph-name="_208" unicode="&#xa1;" horiz-adv-x="681" 
d="M186 657l-28 -890v-248h364v248l-28 890h-308zM522 1155h-364v-328h364v328z" />
    <glyph glyph-name="_214" unicode="&#xa4;" horiz-adv-x="1482" 
d="M1276 748q0 144 -68 256l201 202l-227 230l-213 -213q-108 51 -228 51q-121 0 -229 -51l-211 213l-229 -230l200 -202q-65 -112 -65 -256t65 -256l-200 -203l229 -230l211 213q108 -51 229 -51q120 0 228 51l213 -213l227 230l-201 203q68 112 68 256zM938 748
q0 -98 -55 -155.5t-142 -57.5t-142.5 57.5t-55.5 155.5t56 156.5t142 58.5t141.5 -58.5t55.5 -156.5z" />
    <glyph glyph-name="_155" unicode="&#xa7;" 
d="M940 854q102 -23 147.5 -68t45.5 -122q0 -110 -78 -164q-65 16 -104.5 31.5t-69.5 38.5t-42 54t-12 76q0 61 28.5 104t84.5 50zM1001 -322q216 0 344 107t128 287q0 203 -156 317q79 51 123.5 134t44.5 177q0 85 -21.5 151t-58 112.5t-98.5 83.5t-129 61t-162 49
q-90 23 -131 62.5t-41 101.5q0 55 31.5 87t85.5 32q50 0 83 -33.5t33 -85.5v-39h357v37q0 166 -129 269.5t-344 103.5q-216 0 -345 -108.5t-129 -287.5q0 -209 158 -319q-80 -52 -123 -134.5t-43 -178.5q0 -73 13 -130.5t42 -101.5t64.5 -76.5t91 -59t110.5 -45.5t134 -40
q97 -25 140.5 -63t43.5 -101q0 -57 -31 -88t-86 -31q-52 0 -84 32t-32 87v39h-357v-39q0 -164 129 -266.5t344 -102.5z" />
    <glyph glyph-name="_107" unicode="&#xa8;" horiz-adv-x="1228" 
d="M1049 1624h-355v-371h355v371zM532 1624h-354v-371h354v371z" />
    <glyph glyph-name="_668" unicode="&#xaa;" horiz-adv-x="1052" 
d="M608 852q0 -50 19 -88h299q-23 56 -23 121v454q0 138 -97 219.5t-278 81.5q-175 0 -270 -76.5t-104 -213.5h297q6 80 77 80q80 0 80 -89v-165q-22 51 -77.5 79.5t-137.5 28.5q-129 0 -206.5 -73t-77.5 -197q0 -125 77 -198t207 -73q81 0 137 29t78 80zM393 1014
q0 38 28.5 58t78.5 20q51 0 79.5 -20t28.5 -58q0 -76 -108 -76q-107 0 -107 76zM78 432h893v215h-893v-215z" />
    <glyph glyph-name="_18155" unicode="&#xad;" horiz-adv-x="946" 
d="M80 598h786v299h-786v-299z" />
    <glyph glyph-name="_18156" unicode="&#xae;" horiz-adv-x="1024" 
d="M569 1012q5 -45 15 -64h125q-79 -67 -197 -67t-197 67h152v174h53q42 0 45 -51zM303 961q-94 91 -94 249q0 159 94 250v-499zM336 1487q71 53 176 53q135 0 219 -90.5t84 -239.5q0 -139 -76 -231q-6 15 -6 33l-4 67q-3 87 -57 113q30 18 47.5 50t17.5 73
q0 83 -47.5 127.5t-140.5 44.5h-213zM467 1253v101h55q49 0 49 -51q0 -50 -49 -50h-55zM512 737q198 0 330.5 134.5t132.5 338.5q0 203 -133 338t-330 135t-330 -135t-133 -338q0 -204 132.5 -338.5t330.5 -134.5z" />
    <glyph glyph-name="_138" unicode="&#xb0;" horiz-adv-x="837" 
d="M768 1305q0 149 -96 243t-252 94q-157 0 -253.5 -94t-96.5 -243q0 -146 96.5 -240t253.5 -94q155 0 251.5 94t96.5 240zM309 1305q0 56 30.5 89t80.5 33q48 0 78 -33t30 -89q0 -55 -30 -87t-78 -32q-50 0 -80.5 32t-30.5 87z" />
    <glyph glyph-name="_130" unicode="&#xb1;" horiz-adv-x="1241" 
d="M78 791h377v-373h331v373h377v276h-377v375h-331v-375h-377v-276zM78 63h1085v277h-1085v-277z" />
    <glyph glyph-name="_843" unicode="&#xb2;" horiz-adv-x="894" 
d="M74 1255h286v50q0 42 22 66t64 24q39 0 61.5 -24t22.5 -66q0 -60 -69 -136l-365 -419v-211h723v241h-340l219 248q67 73 94 135t27 144q0 155 -103.5 245t-269.5 90q-170 0 -271 -90.5t-101 -244.5v-52z" />
    <glyph glyph-name="_844" unicode="&#xb3;" horiz-adv-x="894" 
d="M446 1413q80 0 80 -92q0 -48 -26 -74t-76 -26h-98v-228h100q59 0 87 -29t28 -90q0 -120 -95 -120q-96 0 -96 114v27h-289v-39q0 -147 102 -241.5t283 -94.5q182 0 283.5 93.5t101.5 246.5q0 98 -47 164.5t-133 91.5q73 26 112.5 84.5t39.5 138.5q0 138 -95.5 220.5
t-261.5 82.5t-262 -81t-96 -211v-35h277v12q0 86 81 86z" />
    <glyph glyph-name="_199" unicode="&#xb4;" horiz-adv-x="872" 
d="M739 1694h-389l-217 -377h316z" />
    <glyph glyph-name="_244" unicode="&#xb6;" 
d="M844 1624q-223 0 -350 -132t-127 -366v-14q0 -233 141.5 -367.5t363.5 -134.5h62v-932h262v1713h104v-1713h259v1946h-715z" />
    <glyph glyph-name="_18157" unicode="&#xb7;" horiz-adv-x="831" 
d="M602 1053h-375v-369h375v369z" />
    <glyph glyph-name="_206" unicode="&#xb8;" horiz-adv-x="866" 
d="M135 -485q117 -84 281 -84q149 0 231 66.5t82 176.5q0 86 -56.5 143.5t-158.5 69.5l51 99h-237l-97 -199l41 -49q30 12 86 12q103 0 103 -67q0 -64 -86 -64q-82 0 -156 53z" />
    <glyph glyph-name="_842" unicode="&#xb9;" horiz-adv-x="894" 
d="M653 539v1085h-256l-260 -117v-254l221 97v-811h295z" />
    <glyph glyph-name="_675" unicode="&#xba;" horiz-adv-x="1052" 
d="M410 1192q0 97 12.5 148.5t36 69t67.5 17.5q62 0 88.5 -49t26.5 -186v-2q0 -133 -25 -183.5t-90 -50.5q-67 0 -91.5 48.5t-24.5 187.5zM115 1190q0 -447 411 -447q410 0 410 447q0 450 -410 450q-411 0 -411 -450zM78 420h893v227h-893v-227z" />
    <glyph glyph-name="_751" unicode="&#xbc;" 
d="M557 539v1085h-256l-260 -117v-254l221 97v-811h295zM1454 1624h-293l-801 -1638h293zM1331 406l172 296v-296h-172zM1909 406h-105v665h-325l-404 -682v-223h428v-180h301v180h105v240z" />
    <glyph glyph-name="_748" unicode="&#xbd;" 
d="M1139 702h288v52q0 41 22 64.5t64 23.5q38 0 60 -24t22 -64q0 -62 -67 -136l-367 -421v-211h723v241h-340l221 248q66 75 92.5 137t26.5 144q0 155 -102.5 244.5t-268.5 89.5q-170 0 -272 -90t-102 -244v-54zM557 539v1085h-256l-260 -117v-254l221 97v-811h295z
M1434 1624h-293l-801 -1638h293z" />
    <glyph glyph-name="_752" unicode="&#xbe;" 
d="M1362 403l151 275v-275h-151zM1905 403h-101v668h-313l-381 -686v-219h403v-178h291v178h101v237zM403 1413q31 0 50.5 -25t19.5 -69q0 -98 -90 -98h-98v-228h100q52 0 76 -29.5t24 -91.5q0 -120 -82 -120q-36 0 -61 29.5t-25 86.5v27h-280v-39q0 -148 96.5 -243
t269.5 -95q175 0 272 93.5t97 246.5q0 98 -45.5 164.5t-128.5 91.5q70 28 108.5 86.5t38.5 138.5q0 137 -91.5 219t-250.5 82q-157 0 -249.5 -81t-92.5 -211v-35h271v14q0 86 71 86zM1241 1622l-747 -1634h284l750 1634h-287z" />
    <glyph glyph-name="_209" unicode="&#xbf;" horiz-adv-x="1214" 
d="M760 -14q0 -95 -39 -148t-113 -53q-67 0 -108 46.5t-41 125.5q0 70 33 122.5t124 131.5q109 94 148 171.5t39 201.5v104h-365v-72q0 -77 -29 -127.5t-122 -132.5q-105 -93 -149 -181t-44 -218q0 -210 133.5 -337.5t380.5 -127.5q248 0 381 127t133 338v29h-362zM803 1155
h-365v-328h365v328z" />
    <glyph glyph-name="_666" unicode="&#xc6;" horiz-adv-x="2146" 
d="M1020 -12h1053v311h-664v367h567v315h-567v326h651v315h-1290l-793 -1634h437l135 286h471v-286zM686 578l334 714v-714h-334z" />
    <glyph glyph-name="_667" unicode="&#xd0;" horiz-adv-x="1507" 
d="M6 920v-234h139v-698h625q155 0 270.5 40t188.5 109t117.5 174.5t61.5 223.5t17 270q0 149 -17 266t-61.5 223.5t-117 176t-188.5 110.5t-271 41h-625v-702h-139zM1038 805q0 -155 -16 -255t-52 -157.5t-87 -79.5t-129 -22h-217v395h215v234h-215v395h217q62 0 105.5 -13
t79 -46.5t56.5 -91.5t32 -146t11 -213z" />
    <glyph glyph-name="_131" unicode="&#xd7;" horiz-adv-x="1241" 
d="M1155 434l-309 311l309 312l-227 225l-307 -309l-306 309l-229 -225l307 -312l-307 -311l229 -223l306 309l307 -309z" />
    <glyph glyph-name="_673" unicode="&#xd8;" horiz-adv-x="1503" 
d="M1151 1698l-66 -119q-147 72 -333 72q-672 0 -672 -846q0 -214 41.5 -372t136.5 -281l-139 -240h231l68 117q143 -70 334 -70q148 0 263 41t191.5 114t125.5 180.5t70 232.5t21 278q0 213 -40.5 375.5t-139.5 275.5l139 242h-231zM1034 805q0 -161 -17 -266t-54.5 -163.5
t-87 -81t-123.5 -22.5q-99 0 -164 50l428 739q18 -85 18 -256zM752 1333q98 0 159 -49l-424 -739q-11 62 -18 203q0 236 29.5 363.5t88 174.5t165.5 47z" />
    <glyph glyph-name="_676" unicode="&#xde;" horiz-adv-x="1384" 
d="M502 268h284q264 0 406.5 139.5t142.5 397.5q0 255 -142.5 394.5t-406.5 139.5h-284v283h-391v-1634h391v280zM502 584v440h227q217 0 217 -219q0 -221 -217 -221h-227z" />
    <glyph glyph-name="_768" unicode="&#xdf;" horiz-adv-x="1361" 
d="M1309 399q0 173 -92 276.5t-256 135.5q124 32 196 129t72 234q0 96 -37 181.5t-106.5 152t-179 105t-244.5 38.5q-136 0 -245 -38t-179 -105t-107 -156t-37 -193v-1171h389v1153q0 96 45 144t131 48q84 0 131.5 -50t47.5 -132q0 -190 -170 -190h-52v-308h41
q114 0 184 -59.5t70 -155.5q0 -81 -50.5 -123.5t-133.5 -42.5q-94 0 -147 19v-307q105 -25 213 -25q236 0 376 114t140 326z" />
    <glyph glyph-name="_757" unicode="&#xe6;" horiz-adv-x="2015" 
d="M1001 147q47 -91 144 -139.5t229 -48.5q209 0 347 101t171 284h-356q-10 -66 -56 -100.5t-120 -34.5q-95 0 -140.5 66.5t-54.5 205.5h748q4 50 4 90q0 287 -137.5 450t-403.5 163q-126 0 -219.5 -47.5t-146.5 -137.5q-51 90 -148 137.5t-231 47.5q-227 0 -354 -109
t-132 -287h365q2 52 40 85.5t101 33.5q73 0 113.5 -40.5t40.5 -102.5v-232q-32 77 -116 121.5t-195 44.5q-183 0 -291.5 -99.5t-108.5 -272.5q0 -178 121.5 -272.5t355.5 -94.5q153 0 263.5 48.5t166.5 139.5zM1165 690q3 116 54 178t141 62q167 0 192 -240h-387zM631 193
q-174 0 -174 133q0 135 174 135t174 -135q0 -133 -174 -133z" />
    <glyph glyph-name="_759" unicode="&#xf0;" horiz-adv-x="1243" 
d="M612 1317q153 -112 179 -275q-37 66 -110 104t-165 38q-217 0 -333.5 -154.5t-116.5 -458.5q0 -142 33 -253.5t100 -193t174 -124.5t250 -43t249.5 43.5t173.5 125.5t99.5 195t32.5 257q0 349 -74.5 563.5t-251.5 351.5l104 72l-86 110l-143 -102q-98 54 -248 106
l-178 -221q91 -22 178 -63l-106 -74l84 -113zM817 571q0 -189 -44.5 -267.5t-149.5 -78.5t-151 80t-46 266q0 184 46 263t151 79t149.5 -77.5t44.5 -264.5z" />
    <glyph glyph-name="_132" unicode="&#xf7;" horiz-adv-x="1241" 
d="M78 608h1085v279h-1085v-279zM791 1346h-340v-334h340v334zM451 150h340v333h-340v-333z" />
    <glyph glyph-name="_766" unicode="&#xf8;" horiz-adv-x="1245" 
d="M621 1184q-275 0 -416.5 -161t-141.5 -452q0 -335 177 -487l-109 -186h197l57 98q109 -37 236 -37q278 0 417.5 158.5t139.5 453.5q0 331 -174 486l108 186h-197l-59 -100q-103 41 -235 41zM426 571q0 180 46 259t149 79q51 0 88 -18l-271 -469q-12 49 -12 149zM621 229
q-54 0 -89 17l271 469q14 -55 14 -144q0 -184 -45.5 -263t-150.5 -79z" />
    <glyph glyph-name="_769" unicode="&#xfe;" horiz-adv-x="1280" 
d="M459 571q0 185 44.5 263.5t149.5 78.5t151 -78t46 -264q0 -190 -45.5 -268t-151.5 -78q-105 0 -149.5 78.5t-44.5 267.5zM459 166q30 -93 114.5 -150t204.5 -57q209 0 321.5 154t112.5 458q0 302 -113 457.5t-321 155.5q-120 0 -204.5 -57.5t-114.5 -149.5v645h-365
v-2144h365v688z" />
    <glyph glyph-name="_758" unicode="&#x111;" horiz-adv-x="1312" 
d="M551 1290h268v-313q-28 90 -115.5 148.5t-203.5 58.5q-208 0 -322.5 -156t-114.5 -457q0 -302 114 -457t323 -155q120 0 204.5 57t114.5 150v-178h365v1302h127v201h-127v131h-365v-131h-268v-201zM625 225q-106 0 -151.5 79t-45.5 267q0 185 45.5 263.5t151.5 78.5
q104 0 149 -78t45 -264q0 -189 -44.5 -267.5t-149.5 -78.5z" />
    <glyph glyph-name="_669" unicode="&#x126;" horiz-adv-x="1501" 
d="M965 -12h389v1188h141v233h-141v213h-389v-213h-428v213h-392v-213h-139v-233h139v-1188h392v678h428v-678zM537 981v195h428v-195h-428z" />
    <glyph glyph-name="_760" unicode="&#x127;" horiz-adv-x="1286" 
d="M760 1491h-268v131h-365v-131h-127v-201h127v-1302h365v665q0 121 54 187.5t142 66.5q139 0 139 -180v-739h365v743q0 224 -98 338.5t-281 114.5q-121 0 -205.5 -58t-115.5 -157v321h268v201z" />
    <glyph glyph-name="_761" unicode="&#x131;" horiz-adv-x="571" 
d="M102 -14h365v1169h-365v-1169z" />
    <glyph glyph-name="_670" unicode="&#x132;" horiz-adv-x="1910" 
d="M502 1622h-391v-1634h391v1634zM1247 -41q268 0 412.5 137.5t144.5 382.5v1143h-389v-1026q0 -66 -3.5 -113t-14.5 -89t-29.5 -67.5t-48.5 -40t-72 -14.5q-89 0 -128.5 63t-39.5 191h-391v-47q0 -245 145.5 -382.5t413.5 -137.5z" />
    <glyph glyph-name="_762" unicode="&#x133;" horiz-adv-x="1210" 
d="M102 1323h365v301h-365v-301zM102 -14h365v1169h-365v-1169zM741 -88q0 -86 -34.5 -125t-110.5 -39h-94v-262q52 -8 166 -8q438 0 438 405v1272h-365v-1243zM741 1323h365v301h-365v-301z" />
    <glyph glyph-name="_763" unicode="&#x138;" horiz-adv-x="1196" 
d="M96 -14h363v485h80l262 -485h385l-350 608l301 561h-379l-217 -436h-82v436h-363v-1169z" />
    <glyph glyph-name="_671" unicode="&#x13f;" horiz-adv-x="1189" 
d="M113 -14h1050v315h-661v1323h-389v-1638zM1010 1026h-326v-319h326v319z" />
    <glyph glyph-name="_764" unicode="&#x140;" horiz-adv-x="921" 
d="M467 -14v1638h-365v-1638h365zM907 1026h-325v-319h325v319z" />
    <glyph glyph-name="_672" unicode="&#x141;" horiz-adv-x="1228" 
d="M147 -12h1053v311h-661v420l348 188v275l-348 -187v627h-392v-831l-147 -80v-277l147 82v-528z" />
    <glyph glyph-name="_765" unicode="&#x142;" horiz-adv-x="776" 
d="M16 477l189 101v-592h364v782l191 102v260l-191 -100v594h-364v-784l-189 -101v-262z" />
    <glyph glyph-name="_772" unicode="&#x149;" horiz-adv-x="1460" 
d="M1370 731q0 224 -98 338.5t-281 114.5q-121 0 -205.5 -58t-117.5 -157v186h-363v-1169h363v669q0 123 51.5 190.5t140.5 67.5q146 0 146 -186v-741h364v745zM334 1624h-326v-317h162q0 -68 -39 -102t-123 -40v-137q158 7 242 82.5t84 196.5v317z" />
    <glyph glyph-name="_678" unicode="&#x14a;" horiz-adv-x="1454" 
d="M956 37v-123q0 -82 -34.5 -118t-110.5 -36h-72v-274q49 -8 164 -8q440 0 440 407v1739h-385v-971l-483 971h-362v-1638h381v968z" />
    <glyph glyph-name="_771" unicode="&#x14b;" horiz-adv-x="1253" 
d="M797 -92q0 -84 -35.5 -122t-112.5 -38h-94v-262q55 -8 166 -8q440 0 440 405v848q0 223 -98.5 338t-282.5 115q-119 0 -203.5 -58t-117.5 -157v186h-363v-1169h363v669q0 123 51.5 190.5t140.5 67.5q146 0 146 -186v-819z" />
    <glyph glyph-name="_674" unicode="&#x152;" horiz-adv-x="2103" 
d="M86 805q0 -152 17 -270t61.5 -223.5t117.5 -174.5t188.5 -109t270.5 -40h1284v311h-663v367h567v315h-567v326h651v315h-1272q-155 0 -270.5 -40.5t-188.5 -110t-117.5 -175.5t-61.5 -223.5t-17 -267.5zM475 805q0 206 31 318t90 152t164 40h213v-1024h-213
q-106 0 -165.5 42t-89.5 154t-30 318z" />
    <glyph glyph-name="_767" unicode="&#x153;" horiz-adv-x="2035" 
d="M641 913q105 0 151 -78.5t46 -263.5q0 -189 -46 -267.5t-151 -78.5t-150 79t-45 267q0 184 45.5 263t149.5 79zM1393 930q85 0 138.5 -63t53.5 -177h-385q3 117 52.5 178.5t140.5 61.5zM1411 -41q208 0 346 99t168 286h-356q-11 -64 -56 -99.5t-118 -35.5
q-94 0 -141 65.5t-56 206.5h748q2 18 2 90q0 285 -137 449t-400 164q-135 0 -237.5 -52t-157.5 -143q-54 91 -155 143t-236 52q-266 0 -403.5 -164.5t-137.5 -448.5q0 -287 137 -449.5t404 -162.5q136 0 237 51t154 142q55 -91 156.5 -142t238.5 -51z" />
    <glyph glyph-name="_677" unicode="&#x166;" horiz-adv-x="1284" 
d="M446 705v-717h392v717h206v235h-206v367h422v315h-1235v-315h421v-367h-206v-235h206z" />
    <glyph glyph-name="_770" unicode="&#x167;" horiz-adv-x="933" 
d="M70 698v-200h139v-142q0 -212 101 -299.5t347 -87.5q145 0 222 6v267h-119q-109 0 -147 32t-38 129v95h238v200h-238v185h304v272h-304v332h-366v-332h-170v-272h170v-185h-139z" />
    <glyph glyph-name="_8275" unicode="&#x2bc;" horiz-adv-x="983" 
d="M184 1634q0 60 28.5 87.5t88.5 27.5q61 0 88 -27.5t27 -87.5q0 -298 -287 -356l-27 61q157 47 197 179q-59 0 -87 27.5t-28 88.5z" />
    <glyph glyph-name="_201" unicode="&#x2c7;" horiz-adv-x="931" 
d="M588 1694l-123 -164l-123 164h-299l279 -379h286l277 379h-297z" />
    <glyph glyph-name="_18158" unicode="&#x2d0;" horiz-adv-x="1024" 
d="M516 883l307 467h-622zM201 76h622l-307 465z" />
    <glyph glyph-name="_202" unicode="&#x2d8;" horiz-adv-x="915" 
d="M457 1315q173 0 279.5 94t109.5 264h-277q0 -133 -112 -133q-110 0 -113 133h-276q3 -170 109 -264t280 -94z" />
    <glyph glyph-name="_205" unicode="&#x2d9;" horiz-adv-x="800" 
d="M563 1659h-325v-322h325v322z" />
    <glyph glyph-name="_204" unicode="&#x2da;" horiz-adv-x="849" 
d="M690 1503q0 116 -74.5 183t-191.5 67q-118 0 -192 -67t-74 -183q0 -115 74 -182.5t192 -67.5q117 0 191.5 67.5t74.5 182.5zM352 1503q0 35 20 57.5t52 22.5q33 0 52.5 -22t19.5 -58q0 -35 -19 -55.5t-53 -20.5q-33 0 -52.5 20.5t-19.5 55.5z" />
    <glyph glyph-name="_207" unicode="&#x2db;" horiz-adv-x="864" 
d="M328 -14q-87 -44 -136 -115t-49 -150v-14q0 -109 85.5 -170t236.5 -61q173 0 256 86l-94 143q-48 -39 -119 -39q-48 0 -73 23t-25 63v12q0 52 44.5 111t129.5 111h-256z" />
    <glyph glyph-name="_203" unicode="&#x2dd;" horiz-adv-x="980" 
d="M1004 1694h-373l-240 -391h305zM522 1694h-370l-172 -391h301z" />
    <glyph glyph-name="_471" unicode="&#x391;" horiz-adv-x="1482" 
d="M406 -12l77 286h506l80 -286h393l-520 1634h-407l-523 -1634h394zM563 578l174 634l172 -634h-346z" />
    <glyph glyph-name="_472" unicode="&#x392;" horiz-adv-x="1396" 
d="M909 1145q0 -99 -50 -140.5t-154 -41.5h-203v364h203q104 0 154 -41.5t50 -140.5zM780 -14q275 0 416 120.5t141 358.5q0 139 -74 237.5t-204 137.5q111 39 172 124t61 212q0 220 -136 334t-402 114h-641v-1638h667zM948 483q0 -106 -52 -154t-161 -48h-233v407h233
q109 0 161 -49t52 -156z" />
    <glyph glyph-name="_473" unicode="&#x393;" horiz-adv-x="1171" 
d="M113 1624v-1638h389v1323h653v315h-1042z" />
    <glyph glyph-name="_474" unicode="&#x394;" horiz-adv-x="1482" 
d="M1466 -12l-522 1634h-407l-523 -1634h1452zM489 287l252 903l248 -903h-500z" />
    <glyph glyph-name="_475" unicode="&#x395;" horiz-adv-x="1236" 
d="M113 -14h1050v315h-661v365h567v317h-567v326h651v315h-1040v-1638z" />
    <glyph glyph-name="_476" unicode="&#x396;" horiz-adv-x="1265" 
d="M63 276v-290h1137v315h-668l658 1030v293h-1102v-315h633z" />
    <glyph glyph-name="_477" unicode="&#x397;" horiz-adv-x="1431" 
d="M930 -14h391v1638h-391v-641h-428v641h-389v-1638h389v680h428v-680z" />
    <glyph glyph-name="_478" unicode="&#x398;" horiz-adv-x="1503" 
d="M1034 805q0 -175 -16.5 -272.5t-56.5 -157.5q-71 -103 -209 -103q-136 0 -207 103q-41 60 -58.5 158t-17.5 272q0 173 17.5 270.5t58.5 157.5q71 102 207 102q139 0 209 -102q40 -60 56.5 -157.5t16.5 -270.5zM1423 805q0 210 -37.5 367.5t-128.5 269.5
q-171 211 -505 211q-333 0 -504 -211q-92 -112 -130 -270.5t-38 -366.5q0 -210 38 -368.5t130 -270.5q169 -209 504 -209q336 0 505 209q91 112 128.5 270t37.5 369zM563 680h377v248h-377v-248z" />
    <glyph glyph-name="_479" unicode="&#x399;" horiz-adv-x="612" 
d="M502 1624h-389v-1638h389v1638z" />
    <glyph glyph-name="_480" unicode="&#x39a;" horiz-adv-x="1419" 
d="M1366 1624h-416l-319 -641h-129v641h-389v-1638h389v680h129l377 -680h422l-484 839z" />
    <glyph glyph-name="_481" unicode="&#x39b;" horiz-adv-x="1482" 
d="M1466 -12l-522 1634h-407l-523 -1634h394l333 1202l330 -1202h395z" />
    <glyph glyph-name="_482" unicode="&#x39c;" horiz-adv-x="1921" 
d="M1110 -14l324 852v-852h374v1638h-374l-471 -1245l-474 1245h-376v-1638h374v852l324 -852h299z" />
    <glyph glyph-name="_483" unicode="&#x39d;" horiz-adv-x="1454" 
d="M1341 -12v1634h-378v-979l-469 979h-383v-1634h378v973l472 -973h380z" />
    <glyph glyph-name="_484" unicode="&#x39e;" horiz-adv-x="1343" 
d="M82 1309h1178v315h-1178v-315zM72 -14h1198v315h-1198v-315zM168 666h1008v317h-1008v-317z" />
    <glyph glyph-name="_485" unicode="&#x39f;" horiz-adv-x="1503" 
d="M1034 805q0 -175 -16.5 -272.5t-56.5 -157.5q-71 -103 -209 -103q-136 0 -207 103q-41 60 -58.5 158t-17.5 272q0 173 17.5 270.5t58.5 157.5q71 102 207 102q139 0 209 -102q40 -60 56.5 -157.5t16.5 -270.5zM1423 805q0 210 -37.5 367.5t-128.5 269.5
q-171 211 -505 211q-333 0 -504 -211q-92 -112 -130 -270.5t-38 -366.5q0 -210 38 -368.5t130 -270.5q169 -209 504 -209q336 0 505 209q91 112 128.5 270t37.5 369z" />
    <glyph glyph-name="_486" unicode="&#x3a0;" horiz-adv-x="1431" 
d="M930 -14h391v1638h-1208v-1638h389v1323h428v-1323z" />
    <glyph glyph-name="_487" unicode="&#x3a1;" horiz-adv-x="1384" 
d="M786 551q264 0 407.5 139.5t143.5 396.5q0 256 -144 396.5t-407 140.5h-673v-1638h389v565h284zM502 868v441h227q219 0 219 -222q0 -219 -219 -219h-227z" />
    <glyph glyph-name="_488" unicode="&#x3a3;" horiz-adv-x="1234" 
d="M80 305v-319h1096v315h-646l312 477v101l-310 430h644v315h-1096v-319l346 -476z" />
    <glyph glyph-name="_489" unicode="&#x3a4;" horiz-adv-x="1284" 
d="M25 1309h424v-1323h389v1323h422v315h-1235v-315z" />
    <glyph glyph-name="_490" unicode="&#x3a5;" horiz-adv-x="1454" 
d="M727 956l-303 668h-399l507 -993v-645h390v645l508 993h-402z" />
    <glyph glyph-name="_491" unicode="&#x3a6;" horiz-adv-x="1814" 
d="M1102 1622h-389v-233q-149 -10 -266 -48t-206.5 -107t-137.5 -177.5t-48 -251.5q0 -145 48 -254.5t137.5 -178t206.5 -106t266 -47.5v-231h389v231q148 10 264.5 47.5t205.5 106t137 178t48 254.5q0 143 -48 251.5t-137 177.5t-205.5 107t-264.5 48v233zM434 805
q0 270 279 276v-559q-279 12 -279 283zM1380 805q0 -271 -278 -283v559q278 -6 278 -276z" />
    <glyph glyph-name="_492" unicode="&#x3a7;" horiz-adv-x="1458" 
d="M430 -12l299 604l297 -604h406l-449 843l414 791h-408l-260 -555l-264 555h-406l412 -791l-446 -843h405z" />
    <glyph glyph-name="_493" unicode="&#x3a8;" horiz-adv-x="1693" 
d="M1034 342q276 37 420.5 188.5t144.5 419.5v672h-380v-672q0 -139 -46.5 -208t-138.5 -83v963h-375v-963q-92 14 -140 82t-48 209v672h-379v-672q0 -532 567 -608v-354h375v354z" />
    <glyph glyph-name="_494" unicode="&#x3a9;" horiz-adv-x="1509" 
d="M754 1653q-335 0 -506 -211q-166 -208 -166 -565q0 -217 70 -362.5t204 -213.5h-245v-315h581v315q-113 51 -167 168.5t-54 335.5q0 172 17 269t57 159q71 102 209 102t209 -102q41 -61 57 -157t16 -271q0 -218 -53 -335.5t-166 -168.5v-315h582v315h-246
q133 69 203.5 214t70.5 362q0 358 -165 565q-171 211 -508 211z" />
    <glyph glyph-name="_495" unicode="&#x3b1;" horiz-adv-x="1339" 
d="M821 571q0 -189 -45 -267.5t-149 -78.5q-107 0 -152 79t-45 267q0 186 45 264t152 78q104 0 149 -78t45 -264zM821 164q18 -103 86.5 -152t220.5 -49q69 0 179 8v269h-35q-47 0 -67.5 20.5t-20.5 71.5v823h-363v-178q-30 93 -115 150t-204 57q-211 0 -323.5 -155.5
t-112.5 -457.5q0 -304 112 -459t324 -155q118 0 203.5 57.5t115.5 149.5z" />
    <glyph glyph-name="_496" unicode="&#x3b2;" horiz-adv-x="1308" 
d="M1182 1188q0 207 -141.5 336t-401.5 129q-267 0 -405 -133.5t-138 -378.5v-1663h363v684q32 -100 118.5 -152.5t215.5 -52.5q95 0 178 33t145.5 94t98.5 157t36 214q0 165 -99 271t-247 120q130 26 203.5 119t73.5 223zM817 1176q0 -193 -178 -193h-57v-274h57
q248 0 248 -240q0 -118 -54.5 -178t-158.5 -60q-118 0 -166.5 71.5t-48.5 232.5v575q0 139 41.5 203.5t138.5 64.5q85 0 131.5 -52t46.5 -150z" />
    <glyph glyph-name="_497" unicode="&#x3b3;" horiz-adv-x="1247" 
d="M805 -522v508l416 1169h-375l-223 -784l-228 784h-370l413 -1169v-508h367z" />
    <glyph glyph-name="_498" unicode="&#x3b4;" horiz-adv-x="1243" 
d="M602 1350h483v272h-907v-272l268 -191q-192 -45 -287.5 -197t-95.5 -391q0 -292 139.5 -452t418.5 -160q280 0 417.5 159.5t137.5 452.5q0 365 -220 523zM426 571q0 184 45.5 263t149.5 79q105 0 150.5 -78.5t45.5 -263.5q0 -189 -45.5 -267.5t-150.5 -78.5t-150 79
t-45 267z" />
    <glyph glyph-name="_499" unicode="&#x3b5;" horiz-adv-x="1146" 
d="M582 702q-63 0 -102.5 30.5t-39.5 82.5t35 82.5t100 30.5q69 0 103.5 -31t34.5 -86h354v20q0 156 -127 254.5t-365 98.5q-233 0 -361 -95.5t-128 -246.5q0 -97 60.5 -166.5t154.5 -93.5q-110 -22 -176 -93t-66 -178q0 -157 142 -254.5t383 -97.5t381.5 97t140.5 255v17
l-365 -2q-2 -52 -42.5 -84.5t-114.5 -32.5q-75 0 -117.5 34.5t-42.5 94.5q0 58 43 90.5t121 32.5h168v241h-174z" />
    <glyph glyph-name="_500" unicode="&#x3b6;" horiz-adv-x="1060" 
d="M858 217q-164 8 -260 39t-136 86.5t-40 144.5q0 253 146.5 462t437.5 397v278h-826v-270h459q-276 -177 -428 -405.5t-152 -493.5q0 -238 142 -361t436 -135q-37 -152 -125 -317l291 -72q84 115 143.5 264.5t59.5 245.5q0 68 -33.5 100.5t-114.5 36.5z" />
    <glyph glyph-name="_501" unicode="&#x3b7;" horiz-adv-x="1253" 
d="M1161 731q0 223 -98.5 338t-282.5 115q-119 0 -203.5 -58t-117.5 -157v186h-363v-1169h363v669q0 123 51.5 190.5t140.5 67.5q146 0 146 -186v-1249h364v1253z" />
    <glyph glyph-name="_502" unicode="&#x3b8;" horiz-adv-x="1337" 
d="M1260 817q0 453 -141.5 656.5t-450.5 203.5t-450.5 -204.5t-141.5 -655.5q0 -454 141 -657t451 -203t451 202t141 658zM668 1403q79 0 126 -39t73.5 -138.5t31.5 -277.5h-463q5 177 31.5 277t74 139t126.5 39zM668 227q-79 0 -126.5 39t-74 139t-31.5 277h463
q-5 -178 -31.5 -277.5t-73.5 -138.5t-126 -39z" />
    <glyph glyph-name="_503" unicode="&#x3b9;" horiz-adv-x="628" 
d="M96 244q0 -158 71.5 -219.5t235.5 -61.5q69 0 179 8v269h-37q-46 0 -66 20.5t-20 71.5v823h-363v-911z" />
    <glyph glyph-name="_504" unicode="&#x3ba;" horiz-adv-x="1196" 
d="M96 -14h363v485h80l262 -485h385l-350 608l301 561h-379l-217 -436h-82v436h-363v-1169z" />
    <glyph glyph-name="_505" unicode="&#x3bb;" horiz-adv-x="1198" 
d="M0 -12h373l227 745l223 -745h373l-465 1315q-51 143 -105.5 216.5t-128.5 102.5t-196 29q-117 0 -160 -4v-269h60q78 0 123 -37t79 -141l19 -57z" />
    <glyph glyph-name="_506" unicode="&#x3bc;" horiz-adv-x="1257" 
d="M459 1155h-365v-1677h365v553q14 -33 46.5 -52.5t74.5 -19.5q76 0 133.5 58.5t81.5 154.5v-184h364v1167h-364v-672q0 -123 -51.5 -191.5t-139.5 -68.5q-73 0 -109 45t-36 142v745z" />
    <glyph glyph-name="_507" unicode="&#x3bd;" horiz-adv-x="1247" 
d="M813 -12l408 1167h-375l-223 -790l-228 790h-370l407 -1167h381z" />
    <glyph glyph-name="_508" unicode="&#x3be;" horiz-adv-x="1120" 
d="M700 -37q-36 -149 -125 -321l289 -72q85 115 145 265t60 245q0 68 -34 101t-115 36q-496 20 -496 301q0 135 85.5 215t213.5 80h102v274h-157q-179 0 -179 160q0 137 119 137q109 0 119 -110h356q-3 170 -123 274.5t-352 104.5t-352.5 -106.5t-120.5 -276.5
q0 -132 80 -219t217 -111q-172 -51 -272 -171.5t-99 -297.5q1 -154 80.5 -266t221.5 -172.5t337 -69.5z" />
    <glyph glyph-name="_509" unicode="&#x3bf;" horiz-adv-x="1243" 
d="M426 571q0 180 46.5 259t150.5 79t149 -78t45 -260q0 -186 -45 -263t-149 -77t-150.5 78t-46.5 262zM66 571q0 -294 140 -454t417 -160t417 160t140 454q0 293 -140.5 453t-416.5 160t-416.5 -160t-140.5 -453z" />
    <glyph glyph-name="_510" unicode="&#x3c0;" horiz-adv-x="1378" 
d="M584 883h209v-897h362v897h174v272h-1280v-272h172v-897h363v897z" />
    <glyph glyph-name="_511" unicode="&#x3c1;" horiz-adv-x="1265" 
d="M1198 571q0 142 -33.5 253.5t-100.5 192.5t-174.5 124t-250.5 43q-142 0 -249.5 -44t-175 -125.5t-101 -192.5t-33.5 -251v-1093h364v688q30 -93 114.5 -150t203.5 -57q210 0 323 153.5t113 458.5zM639 225q-106 0 -150.5 78.5t-44.5 267.5q0 186 44.5 264t150.5 78
q104 0 149.5 -78t45.5 -264q0 -190 -45.5 -268t-149.5 -78z" />
    <glyph glyph-name="_512" unicode="&#x3c3;" horiz-adv-x="1284" 
d="M1178 557q0 116 -41 202t-107 122h225v274h-634q-277 0 -417.5 -158t-140.5 -440q0 -284 140.5 -441t417.5 -157q278 0 417.5 156.5t139.5 441.5zM817 557q0 -182 -46 -257t-150 -75q-102 0 -148.5 76.5t-46.5 255.5q0 174 46.5 252t148.5 78q104 0 150 -76.5t46 -253.5z
" />
    <glyph glyph-name="_513" unicode="&#x3c4;" horiz-adv-x="1097" 
d="M713 883h354v272h-1049v-272h330v-598q0 -188 75.5 -255t285.5 -67q96 0 182 8v265h-62q-68 0 -92 22.5t-24 89.5v535z" />
    <glyph glyph-name="_514" unicode="&#x3c5;" horiz-adv-x="1236" 
d="M618 -43q248 0 389.5 118.5t141.5 344.5v735h-365v-735q0 -97 -41 -143t-125 -46t-124.5 45.5t-40.5 143.5v735h-363v-735q0 -226 140.5 -344.5t387.5 -118.5z" />
    <glyph glyph-name="_515" unicode="&#x3c6;" horiz-adv-x="1656" 
d="M68 557q0 -301 137.5 -449t445.5 -151v-479h355v479q307 3 445 152t138 448t-138.5 448.5t-449.5 149.5h-350v-924q-63 0 -102 11t-72.5 44.5t-48 99.5t-14.5 171q0 146 36 212t113 87q-1 12 -26.5 144.5t-28.5 144.5q-123 -18 -210 -66.5t-136.5 -126t-71.5 -173.5
t-22 -222zM1241 557q0 -105 -14 -171t-46.5 -99.5t-72 -44.5t-102.5 -11v650q51 0 84.5 -6.5t64.5 -25.5t48.5 -54.5t27.5 -94.5t10 -143z" />
    <glyph glyph-name="_516" unicode="&#x3c7;" horiz-adv-x="1224" 
d="M842 -522h383l-351 862l326 815h-381l-207 -588l-211 588h-376l321 -815l-346 -862h381l231 631z" />
    <glyph glyph-name="_517" unicode="&#x3c8;" horiz-adv-x="1597" 
d="M975 -522v489q247 17 389.5 147t142.5 347v694h-352v-700q0 -99 -46.5 -155t-133.5 -62v917h-354v-917q-82 5 -130.5 61.5t-48.5 155.5v700h-354v-694q0 -217 143 -347t390 -147v-489h354z" />
    <glyph glyph-name="_518" unicode="&#x3c9;" horiz-adv-x="1775" 
d="M707 926v-396q0 -170 -29.5 -235.5t-110.5 -65.5q-70 0 -100.5 68t-30.5 233q0 300 121 625h-371q-114 -306 -114 -623q0 -575 452 -575q290 0 363 246q77 -246 362 -246q455 0 455 575q0 316 -117 623h-368q120 -322 120 -625q0 -165 -31 -233t-102 -68q-79 0 -108 66
t-29 235v396h-362z" />
    <glyph glyph-name="_1026" unicode="&#x401;" horiz-adv-x="1230" 
d="M111 -12h1048v315h-659v365h565v315h-565v324h649v315h-1038v-1634zM563 2111h-323v-321h323v321zM1022 2111h-326v-321h326v321z" />
    <glyph glyph-name="_1020" unicode="&#x410;" horiz-adv-x="1480" 
d="M410 -12l77 286h504l78 -286h395l-522 1634h-407l-521 -1634h396zM567 578l172 632l170 -632h-342z" />
    <glyph glyph-name="_1021" unicode="&#x411;" horiz-adv-x="1345" 
d="M1288 485q0 248 -140.5 373t-404.5 125h-243v324h690v315h-1079v-1634h632q264 0 404.5 125t140.5 372zM500 668h194q104 0 154.5 -44t50.5 -139q0 -96 -50 -139t-155 -43h-194v365z" />
    <glyph glyph-name="_1022" unicode="&#x412;" horiz-adv-x="1392" 
d="M907 1145q0 -97 -50.5 -139.5t-154.5 -42.5h-202v366h202q104 0 154.5 -42.5t50.5 -141.5zM778 -12q274 0 414.5 121t140.5 358q0 137 -73.5 236.5t-200.5 136.5q109 39 169 124t60 212q0 220 -135 333t-401 113h-641v-1634h667zM944 485q0 -106 -51.5 -155t-161.5 -49
h-231v409h231q110 0 161.5 -48.5t51.5 -156.5z" />
    <glyph glyph-name="_1023" unicode="&#x413;" horiz-adv-x="1169" 
d="M111 1622v-1634h389v1319h651v315h-1040z" />
    <glyph glyph-name="_1024" unicode="&#x414;" horiz-adv-x="1544" 
d="M1513 303h-184v1319h-1081v-672q0 -377 -64 -647h-159v-596h389v281h708v-281h391v596zM580 303q59 250 59 625v379h301v-1004h-360z" />
    <glyph glyph-name="_1025" unicode="&#x415;" horiz-adv-x="1230" 
d="M111 -12h1048v315h-659v365h565v315h-565v324h649v315h-1038v-1634z" />
    <glyph glyph-name="_1027" unicode="&#x416;" horiz-adv-x="2140" 
d="M874 1622v-641h-116l-281 641h-397l375 -797l-437 -837h402l338 678h116v-678h392v678h116l338 -678h402l-439 837l377 797h-397l-281 -641h-116v641h-392z" />
    <glyph glyph-name="_1028" unicode="&#x417;" horiz-adv-x="1331" 
d="M662 -41q270 0 434 136.5t164 373.5q0 151 -83.5 254t-222.5 133q122 37 189 125.5t67 222.5q0 91 -34 170.5t-99.5 142t-172 98.5t-242.5 36q-135 0 -241.5 -36t-172.5 -99.5t-100.5 -144.5t-34.5 -175v-22h389q0 75 40 118t120 43q79 0 120 -42.5t41 -114.5
q0 -90 -46.5 -132t-149.5 -42h-197v-316h197q123 0 182 -48t59 -161q0 -96 -51 -149.5t-155 -53.5q-103 0 -156 53t-53 150v6h-390v-16q0 -238 165.5 -374t433.5 -136z" />
    <glyph glyph-name="_1029" unicode="&#x418;" horiz-adv-x="1447" 
d="M494 1622h-385v-1634h385l458 973v-973h385v1634h-385l-458 -975v975z" />
    <glyph glyph-name="_1030" unicode="&#x419;" horiz-adv-x="1447" 
d="M494 1622h-385v-1634h385l458 973v-973h385v1634h-385l-458 -975v975zM723 1761q174 0 280 94.5t109 264.5h-276q-2 -65 -30.5 -99t-82.5 -34q-110 0 -113 133h-276q3 -170 109 -264.5t280 -94.5z" />
    <glyph glyph-name="_1031" unicode="&#x41a;" horiz-adv-x="1415" 
d="M1368 1622h-422l-317 -639h-129v639h-389v-1634h389v680h129l372 -680h426l-483 837z" />
    <glyph glyph-name="_1032" unicode="&#x41b;" horiz-adv-x="1533" 
d="M242 428q0 -82 -33.5 -112.5t-114.5 -30.5h-78v-308q67 -6 168 -6q247 0 347 97.5t100 345.5v893h403v-1319h389v1634h-1181v-1194z" />
    <glyph glyph-name="_1033" unicode="&#x41c;" horiz-adv-x="1914" 
d="M1106 -12l321 848v-848h377v1634h-377l-469 -1241l-473 1241h-374v-1634h376v848l322 -848h297z" />
    <glyph glyph-name="_1034" unicode="&#x41d;" horiz-adv-x="1425" 
d="M926 -12h391v1634h-391v-639h-426v639h-389v-1634h389v680h426v-680z" />
    <glyph glyph-name="_1035" unicode="&#x41e;" horiz-adv-x="1501" 
d="M1421 805q0 428 -166 635q-172 211 -505 211q-336 0 -504 -211q-168 -210 -168 -635t168 -635q168 -211 504 -211q333 0 505 211q166 207 166 635zM469 805q0 171 17 269.5t57 158.5q66 100 207 100q140 0 206 -100q41 -60 58.5 -158t17.5 -270t-17.5 -270t-58.5 -158
q-67 -101 -206 -101q-140 0 -207 101q-40 60 -57 158.5t-17 269.5z" />
    <glyph glyph-name="_1036" unicode="&#x41f;" horiz-adv-x="1425" 
d="M926 -12h391v1634h-1206v-1634h389v1319h426v-1319z" />
    <glyph glyph-name="_1037" unicode="&#x420;" horiz-adv-x="1380" 
d="M784 551q264 0 406.5 139.5t142.5 396.5q0 256 -143 395.5t-406 139.5h-673v-1634h389v563h284zM500 866v441h227q217 0 217 -220q0 -221 -217 -221h-227z" />
    <glyph glyph-name="_1038" unicode="&#x421;" horiz-adv-x="1476" 
d="M78 805q0 -425 168 -635q168 -211 504 -211q303 0 474.5 160t180.5 438h-387q-6 -134 -74.5 -207.5t-193.5 -73.5q-140 0 -207 101q-40 60 -57 158t-17 270t17 270t57 158q66 100 207 100q124 0 192 -73t76 -207h387q-9 278 -180.5 438t-474.5 160q-336 0 -504 -211
q-168 -210 -168 -635z" />
    <glyph glyph-name="_1039" unicode="&#x422;" horiz-adv-x="1280" 
d="M25 1307h419v-1319h392v1319h419v315h-1230v-315z" />
    <glyph glyph-name="_1040" unicode="&#x423;" horiz-adv-x="1429" 
d="M541 418q-26 -66 -61.5 -90.5t-100.5 -24.5h-86v-311q37 -4 129 -4q175 0 271.5 65t168.5 240l551 1329h-397l-289 -752l-297 752h-399l524 -1171z" />
    <glyph glyph-name="_1041" unicode="&#x424;" horiz-adv-x="1810" 
d="M711 530q-135 6 -203 72t-68 203q0 136 68 201.5t203 70.5v-547zM1100 1622h-389v-236q-147 -10 -264 -47t-207 -105.5t-138.5 -177t-48.5 -251.5q0 -144 48.5 -253t138.5 -177.5t207 -106t264 -47.5v-233h389v233q146 10 262.5 47.5t206 106t138 177.5t48.5 253
q0 143 -48.5 251.5t-138 177t-205.5 105.5t-263 47v236zM1100 1077q135 -5 202.5 -70.5t67.5 -201.5q0 -137 -67.5 -203t-202.5 -72v547z" />
    <glyph glyph-name="_1042" unicode="&#x425;" horiz-adv-x="1454" 
d="M1024 -12h406l-447 846l412 788h-406l-262 -557l-262 557h-406l412 -788l-446 -846h405l297 608z" />
    <glyph glyph-name="_1043" unicode="&#x426;" horiz-adv-x="1531" 
d="M1110 -293h389v596h-182v1319h-391v-1319h-426v1319h-389v-1634h999v-281z" />
    <glyph glyph-name="_1044" unicode="&#x427;" horiz-adv-x="1380" 
d="M881 -12h391v1634h-391v-676q-34 -42 -94.5 -64t-131.5 -22q-91 0 -131.5 44.5t-40.5 144.5v573h-391v-596q0 -244 115.5 -363.5t349.5 -119.5q92 0 181 28t143 72v-655z" />
    <glyph glyph-name="_1045" unicode="&#x428;" horiz-adv-x="2183" 
d="M1683 303h-397v1319h-391v-1319h-395v1319h-389v-1634h1962v1634h-390v-1319z" />
    <glyph glyph-name="_1046" unicode="&#x429;" horiz-adv-x="2289" 
d="M1868 -12v-281h389v596h-184v1319h-390v-1319h-397v1319h-391v-1319h-395v1319h-389v-1634h1757z" />
    <glyph glyph-name="_1047" unicode="&#x42a;" horiz-adv-x="1660" 
d="M1606 485q0 247 -141 372.5t-404 125.5h-246v639h-790v-315h401v-1319h635q263 0 404 125t141 372zM815 668h197q102 0 152 -44t50 -139q0 -96 -50 -139t-152 -43h-197v365z" />
    <glyph glyph-name="_1048" unicode="&#x42b;" horiz-adv-x="1947" 
d="M500 668h194q104 0 154.5 -44t50.5 -139q0 -96 -50 -139t-155 -43h-194v365zM1288 485q0 248 -140.5 373t-404.5 125h-243v639h-389v-1634h632q264 0 404.5 125t140.5 372zM1839 1622h-389v-1634h389v1634z" />
    <glyph glyph-name="_1049" unicode="&#x42c;" horiz-adv-x="1345" 
d="M500 668h194q104 0 154.5 -44t50.5 -139q0 -96 -50 -139t-155 -43h-194v365zM1288 485q0 248 -140.5 373t-404.5 125h-243v639h-389v-1634h632q264 0 404.5 125t140.5 372z" />
    <glyph glyph-name="_1050" unicode="&#x42d;" horiz-adv-x="1476" 
d="M1399 805q0 424 -166 635q-172 211 -506 211q-302 0 -473 -159.5t-182 -438.5h387q8 134 76 207t192 73q141 0 207 -100q61 -93 72 -270h-431v-316h431q-11 -184 -72 -270q-67 -101 -207 -101q-124 0 -192 73.5t-76 207.5h-387q11 -279 182 -438.5t473 -159.5
q334 0 506 211q166 211 166 635z" />
    <glyph glyph-name="_1051" unicode="&#x42e;" horiz-adv-x="2074" 
d="M1997 805q0 424 -166 635q-172 211 -506 211t-506 -211q-134 -172 -160 -477h-159v659h-389v-1634h389v659h159q26 -305 160 -477q172 -211 506 -211t506 211q166 211 166 635zM1044 805q0 173 17.5 270.5t58.5 157.5q63 100 205 100q140 0 209 -100q40 -60 56 -157
t16 -271t-16 -271t-56 -157q-70 -101 -209 -101q-141 0 -205 101q-41 60 -58.5 157.5t-17.5 270.5z" />
    <glyph glyph-name="_1052" unicode="&#x42f;" horiz-adv-x="1423" 
d="M504 342q6 118 53 163.5t162 45.5h205v-563h391v1634h-690q-258 0 -395.5 -133t-137.5 -367q0 -163 73.5 -267.5t209.5 -143.5q-129 -21 -187 -102.5t-69 -243.5l-13 -226q-9 -100 -34 -151h391q26 65 29 149zM700 866q-109 0 -164 52t-55 169q0 115 55 167.5t164 52.5
h224v-441h-224z" />
    <glyph glyph-name="_1053" unicode="&#x430;" horiz-adv-x="1243" 
d="M772 125q3 -84 27 -137h370q-32 62 -32 176v600q0 189 -133 304.5t-377 115.5q-241 0 -371.5 -108t-138.5 -288h362q6 62 43.5 97t104.5 35q70 0 107.5 -43t37.5 -113v-229q-33 77 -118 120t-199 43q-180 0 -287 -99.5t-107 -270.5q0 -169 109 -269t285 -100
q119 0 202 46t115 120zM600 193q-174 0 -174 135q0 137 174 137q172 0 172 -137q0 -135 -172 -135z" />
    <glyph glyph-name="_1054" unicode="&#x431;" horiz-adv-x="1259" 
d="M440 977q0 99 10 157t41 99.5t80 62.5t134 37l342 64l-93 270q-345 -68 -376 -75q-211 -48 -305 -117q-110 -80 -153 -245q-44 -169 -44 -544q0 -178 29.5 -309.5t94.5 -227t173.5 -143t261.5 -47.5q282 0 420.5 162t138.5 450q0 302 -113 457.5t-323 155.5
q-118 0 -202.5 -56.5t-115.5 -150.5zM440 571q0 182 46.5 260t148.5 78q103 0 149.5 -78t46.5 -260q0 -183 -46.5 -261.5t-149.5 -78.5q-102 0 -148.5 78.5t-46.5 261.5z" />
    <glyph glyph-name="_1055" unicode="&#x432;" horiz-adv-x="1173" 
d="M684 -12q227 0 331.5 91t104.5 253q0 103 -55 170.5t-150 89.5q79 25 125.5 89.5t46.5 152.5q0 155 -103.5 238t-317.5 83h-572v-1167h590zM758 352q0 -64 -35 -91.5t-109 -27.5h-155v238h155q74 0 109 -27.5t35 -91.5zM459 696v213h151q62 0 90.5 -25t28.5 -81
q0 -57 -28.5 -82t-90.5 -25h-151z" />
    <glyph glyph-name="_1056" unicode="&#x433;" horiz-adv-x="952" 
d="M922 883v272h-828v-1167h365v895h463z" />
    <glyph glyph-name="_1057" unicode="&#x434;" horiz-adv-x="1294" 
d="M1266 260h-150v895h-921v-424q0 -276 -45 -471h-132v-528h365v256h520v-256h363v528zM506 260q41 184 41 447v176h217v-623h-258z" />
    <glyph glyph-name="_1058" unicode="&#x435;" horiz-adv-x="1249" 
d="M1180 483q4 40 4 88q0 141 -33 252t-100 192.5t-174.5 125t-249.5 43.5q-143 0 -251 -43.5t-175.5 -125t-101 -193t-33.5 -251.5t33.5 -251.5t101 -192.5t175.5 -124.5t251 -43.5q227 0 365 101.5t167 285.5h-364q-12 -64 -55 -98.5t-113 -34.5q-92 0 -143.5 63.5
t-51.5 186.5v20h748zM432 690q6 240 191 240q186 0 192 -240h-383z" />
    <glyph glyph-name="_1060" unicode="&#x436;" horiz-adv-x="1787" 
d="M713 1155v-424h-88l-183 424h-374l268 -561l-320 -606h379l232 473h86v-473h362v473h86l232 -473h379l-320 606l268 561h-372l-185 -424h-88v424h-362z" />
    <glyph glyph-name="_1061" unicode="&#x437;" horiz-adv-x="1153" 
d="M565 453q164 0 164 -115q0 -56 -43.5 -86.5t-116.5 -30.5q-74 0 -114.5 29t-42.5 82h-365v-17q0 -160 141 -258t381 -98q242 0 383.5 98t141.5 258q0 106 -66 176.5t-176 92.5q94 24 154.5 93t60.5 165q0 151 -128 246.5t-361 95.5q-239 0 -365.5 -97t-126.5 -253v-23
h358v4q0 50 34.5 77.5t99.5 27.5q63 0 98 -27t35 -78q0 -49 -38 -77.5t-100 -28.5h-176v-256h168z" />
    <glyph glyph-name="_1062" unicode="&#x438;" horiz-adv-x="1204" 
d="M459 1155h-365v-1167h342l309 628v-628h365v1167h-344l-307 -629v629z" />
    <glyph glyph-name="_1063" unicode="&#x439;" horiz-adv-x="1204" 
d="M459 1155h-365v-1167h342l309 628v-628h365v1167h-344l-307 -629v629zM602 1303q173 0 279.5 94t109.5 262h-276q-3 -131 -113 -131t-113 131h-276q3 -169 109 -262.5t280 -93.5z" />
    <glyph glyph-name="_1064" unicode="&#x43a;" horiz-adv-x="1193" 
d="M94 -12h365v479h80l260 -479h385l-350 606l301 561h-379l-215 -430h-82v430h-365v-1167z" />
    <glyph glyph-name="_1065" unicode="&#x43b;" horiz-adv-x="1288" 
d="M1194 1155h-989v-768q0 -84 -28.5 -113.5t-98.5 -29.5h-53v-267q43 -6 125 -6q232 0 325.5 83.5t93.5 297.5v531h260v-895h365v1167z" />
    <glyph glyph-name="_1066" unicode="&#x43c;" horiz-adv-x="1507" 
d="M858 -12l207 512v-512h346v1167h-330l-327 -819l-328 819h-332v-1167h348v512l207 -512h209z" />
    <glyph glyph-name="_1067" unicode="&#x43d;" horiz-adv-x="1187" 
d="M1094 1155h-365v-432h-270v432h-365v-1167h365v463h270v-463h365v1167z" />
    <glyph glyph-name="_1068" unicode="&#x43e;" horiz-adv-x="1249" 
d="M430 571q0 183 47 260.5t150 77.5q102 0 148 -77.5t46 -260.5t-46 -260.5t-148 -77.5q-103 0 -150 77.5t-47 260.5zM66 571q0 -288 139.5 -450t421.5 -162q280 0 418.5 162t138.5 450t-138.5 450.5t-418.5 162.5q-282 0 -421.5 -162.5t-139.5 -450.5z" />
    <glyph glyph-name="_1069" unicode="&#x43f;" horiz-adv-x="1187" 
d="M1094 1155h-1000v-1167h365v895h270v-895h365v1167z" />
    <glyph glyph-name="_1070" unicode="&#x440;" horiz-adv-x="1275" 
d="M459 1155h-365v-1675h365v686q30 -94 114 -150.5t203 -56.5q208 0 321 155t113 457t-113 457.5t-321 155.5q-119 0 -203 -56.5t-114 -150.5v178zM459 571q0 184 45.5 261t148.5 77q102 0 148.5 -77.5t46.5 -260.5t-46.5 -260.5t-148.5 -77.5q-103 0 -148.5 77t-45.5 261z
" />
    <glyph glyph-name="_1071" unicode="&#x441;" horiz-adv-x="1226" 
d="M66 571q0 -288 139.5 -450t421.5 -162q248 0 390.5 121t153.5 330h-362q-18 -177 -182 -177q-103 0 -150 77.5t-47 260.5t47 260.5t150 77.5q83 0 128 -42.5t54 -133.5h362q-11 209 -153.5 330t-390.5 121q-282 0 -421.5 -162.5t-139.5 -450.5z" />
    <glyph glyph-name="_1072" unicode="&#x442;" horiz-adv-x="1091" 
d="M365 883v-895h364v895h332v272h-1030v-272h334z" />
    <glyph glyph-name="_1073" unicode="&#x443;" horiz-adv-x="1243" 
d="M410 -123q-25 -71 -61.5 -98t-94.5 -27h-88v-266q43 -6 162 -6q95 0 157.5 16.5t114 62.5t89 118t79.5 194l451 1284h-373l-221 -756l-228 756h-372l424 -1169z" />
    <glyph glyph-name="_1074" unicode="&#x444;" horiz-adv-x="2002" 
d="M66 571q0 -302 113.5 -457t322.5 -155q118 0 202 56.5t117 150.5v-678h363v678q31 -94 115.5 -150.5t203.5 -56.5q208 0 321 155t113 457t-113 457.5t-321 155.5q-119 0 -203.5 -56.5t-115.5 -150.5v645h-363v-645q-33 94 -117 150.5t-202 56.5q-209 0 -322.5 -155.5
t-113.5 -457.5zM1184 571q0 184 46 261t150 77q103 0 149 -77.5t46 -260.5t-46 -260.5t-149 -77.5q-104 0 -150 77t-46 261zM821 571q0 -183 -46 -260.5t-148 -77.5q-103 0 -150 77.5t-47 260.5t47 260.5t150 77.5q102 0 148 -77.5t46 -260.5z" />
    <glyph glyph-name="_1075" unicode="&#x445;" horiz-adv-x="1171" 
d="M780 -12h375l-332 600l310 567h-375l-172 -371l-172 371h-373l307 -567l-332 -600h375l195 401z" />
    <glyph glyph-name="_1076" unicode="&#x446;" horiz-adv-x="1269" 
d="M1243 260h-149v895h-365v-895h-270v895h-365v-1167h785v-256h364v528z" />
    <glyph glyph-name="_1077" unicode="&#x447;" horiz-adv-x="1153" 
d="M694 -12h365v1167h-365v-498q-44 -47 -139 -47q-61 0 -88 29.5t-27 97.5v418h-362v-422q0 -205 95.5 -300t285.5 -95q69 0 134.5 16.5t100.5 42.5v-409z" />
    <glyph glyph-name="_1078" unicode="&#x448;" horiz-adv-x="1783" 
d="M1690 1155h-365v-895h-252v895h-362v-895h-252v895h-365v-1167h1596v1167z" />
    <glyph glyph-name="_1079" unicode="&#x449;" horiz-adv-x="1865" 
d="M1477 -12v-256h362v528h-149v895h-365v-895h-252v895h-362v-895h-252v895h-365v-1167h1383z" />
    <glyph glyph-name="_1080" unicode="&#x44a;" horiz-adv-x="1394" 
d="M711 1155h-680v-274h315v-893h551q216 0 332.5 98t116.5 283t-116.5 283t-332.5 98h-186v405zM852 492q135 0 135 -123q0 -125 -135 -125h-141v248h141z" />
    <glyph glyph-name="_1081" unicode="&#x44b;" horiz-adv-x="1679" 
d="M1221 -12h364v1167h-364v-1167zM459 1155h-365v-1167h551q217 0 333 98t116 283t-116 283t-333 98h-186v405zM602 492q63 0 98 -30.5t35 -92.5q0 -125 -133 -125h-143v248h143z" />
    <glyph glyph-name="_1082" unicode="&#x44c;" horiz-adv-x="1144" 
d="M459 1155h-365v-1167h551q217 0 333 98t116 283t-116 283t-333 98h-186v405zM602 492q63 0 98 -30.5t35 -92.5q0 -125 -133 -125h-143v248h143z" />
    <glyph glyph-name="_1083" unicode="&#x44d;" horiz-adv-x="1226" 
d="M600 -41q282 0 421.5 162t139.5 450t-139.5 450.5t-421.5 162.5q-241 0 -381.5 -113.5t-161.5 -308.5h365q27 147 178 147q171 0 191 -204h-281v-267h281q-20 -205 -191 -205q-151 0 -178 148h-365q21 -195 161.5 -308.5t381.5 -113.5z" />
    <glyph glyph-name="_1084" unicode="&#x44e;" horiz-adv-x="1738" 
d="M1673 571q0 287 -139 450t-420 163q-247 0 -384 -125t-167 -352h-104v448h-365v-1167h365v444h104q30 -224 168 -348.5t383 -124.5q282 0 420.5 162t138.5 450zM1309 571q0 -183 -46.5 -261.5t-148.5 -78.5q-103 0 -148.5 78t-45.5 262q0 182 46 260t148 78t148.5 -78
t46.5 -260z" />
    <glyph glyph-name="_1085" unicode="&#x44f;" horiz-adv-x="1181" 
d="M463 242q5 67 35 97t96 30h129v-381h362v1167h-553q-222 0 -337 -88.5t-115 -257.5q0 -119 58 -195.5t157 -105.5q-95 -19 -141 -79.5t-52 -170.5l-10 -164q-2 -37 -16 -106h362q14 49 17 102zM444 760q0 67 36 100t100 33h143v-266h-143q-64 0 -100 33t-36 100z" />
    <glyph glyph-name="_1059" unicode="&#x451;" horiz-adv-x="1249" 
d="M1180 483q4 40 4 88q0 141 -33 252t-100 192.5t-174.5 125t-249.5 43.5q-143 0 -251 -43.5t-175.5 -125t-101 -193t-33.5 -251.5t33.5 -251.5t101 -192.5t175.5 -124.5t251 -43.5q227 0 365 101.5t167 285.5h-364q-12 -64 -55 -98.5t-113 -34.5q-92 0 -143.5 63.5
t-51.5 186.5v20h748zM432 690q6 240 191 240q186 0 192 -240h-383zM557 1647h-324v-322h324v322zM1016 1647h-324v-322h324v322z" />
    <glyph glyph-name="_18159" unicode="&#x2015;" 
d="M80 897v-299h1806v299h-1806z" />
    <glyph glyph-name="_114" unicode="&#x2018;" horiz-adv-x="608" 
d="M119 1116h375v369h-189q0 152 189 155v160q-179 -4 -277 -90t-98 -225v-369z" />
    <glyph glyph-name="_115" unicode="&#x2019;" horiz-adv-x="608" 
d="M492 1800h-377v-368h186q0 -151 -186 -154v-162q179 4 278 91t99 225v368z" />
    <glyph glyph-name="_8238" unicode="&#x201b;" horiz-adv-x="983" 
d="M463 1634q0 -61 -28 -88.5t-87 -27.5q40 -132 197 -179l-27 -61q-287 58 -287 356q0 60 27 87.5t88 27.5q60 0 88.5 -27.5t28.5 -87.5z" />
    <glyph glyph-name="_116" unicode="&#x201c;" horiz-adv-x="1105" 
d="M115 1116h377v369h-191q0 149 191 155v160q-180 -4 -278.5 -90t-98.5 -225v-369zM614 1116h375v369h-186q0 149 186 155v160q-179 -4 -277 -90t-98 -225v-369z" />
    <glyph glyph-name="_117" unicode="&#x201d;" horiz-adv-x="1105" 
d="M492 1800h-377v-368h186q0 -76 -45 -114.5t-141 -39.5v-162q179 4 278 91t99 225v368zM989 1800h-375v-368h189q0 -151 -189 -154v-162q179 4 277 90.5t98 225.5v368z" />
    <glyph glyph-name="_8237" unicode="&#x201f;" horiz-adv-x="983" 
d="M469 1634q0 -61 -28 -88.5t-87 -27.5q40 -132 197 -179l-27 -61q-286 58 -286 356q0 61 26.5 88t87.5 27q60 0 88.5 -27.5t28.5 -87.5zM776 1634q0 -61 -27.5 -88.5t-86.5 -27.5q40 -132 196 -179l-27 -61q-286 58 -286 356q0 61 26.5 88t87.5 27q60 0 88.5 -27.5
t28.5 -87.5z" />
    <glyph glyph-name="_245" unicode="&#x2020;" 
d="M1520 1341h-369v394h-340v-394h-367v-274h367v-1386h340v1386h369v274z" />
    <glyph glyph-name="_246" unicode="&#x2021;" 
d="M444 74h367v-393h340v393h369v270h-369v723h369v274h-369v394h-340v-394h-367v-274h367v-723h-367v-270z" />
    <glyph glyph-name="_8607" unicode="&#x2022;" 
d="M1227 801q0 -99 -70.5 -169.5t-171.5 -70.5q-102 0 -174 70.5t-72 169.5q0 97 72 167t174 70q101 0 171.5 -70t70.5 -167z" />
    <glyph glyph-name="_8058" unicode="&#x2025;" 
d="M1614 1053h-363v-369h363v369zM713 1053h-363v-369h363v369z" />
    <glyph glyph-name="_106" unicode="&#x2026;" 
d="M1159 1053h-354v-369h354v369zM537 1053h-355v-369h355v369zM1782 1053h-355v-369h355v369z" />
    <glyph glyph-name="_216" unicode="&#x2030;" horiz-adv-x="2719" 
d="M1157 1622l-670 -1634h265l669 1634h-264zM360 1208q0 128 20.5 176t70.5 48q51 0 70.5 -47t19.5 -177q0 -128 -19.5 -174.5t-70.5 -46.5q-50 0 -70.5 47t-20.5 174zM88 1208q0 -440 365 -440q360 0 360 440q0 443 -364 443q-361 0 -361 -443zM1550 401q0 -129 -20 -176
t-72 -47q-50 0 -70 47.5t-20 175.5q0 127 20 174.5t70 47.5q52 0 72 -47.5t20 -174.5zM1821 401q0 441 -363 441q-362 0 -362 -441q0 -442 366 -442q359 0 359 442zM2361 401q0 -128 -20 -175.5t-70 -47.5q-52 0 -72 47t-20 176q0 127 20 174.5t72 47.5q50 0 70 -47.5
t20 -174.5zM2632 401q0 441 -363 441q-362 0 -362 -441q0 -442 366 -442q359 0 359 442z" />
    <glyph glyph-name="_139" unicode="&#x2032;" horiz-adv-x="559" 
d="M43 1075h299l174 549h-358z" />
    <glyph glyph-name="_140" unicode="&#x2033;" horiz-adv-x="1013" 
d="M43 1075h299l174 549h-358zM498 1075h299l176 549h-359z" />
    <glyph glyph-name="_8612" unicode="&#x2039;" 
d="M238 801l1491 907v-74l-1346 -833l1346 -830v-80z" />
    <glyph glyph-name="_8613" unicode="&#x203a;" 
d="M238 1708l1491 -907l-1491 -910v80l1347 830l-1347 833v74z" />
    <glyph glyph-name="_156" unicode="&#x203b;" 
d="M1774 1389l-197 198l-592 -594l-594 594l-196 -198l593 -592l-593 -592l196 -197l594 592l592 -592l197 197l-594 592zM1196 1448q0 92 -61 152.5t-152 60.5q-92 0 -153.5 -60.5t-61.5 -152.5q0 -91 61.5 -152t153.5 -61q91 0 152 61t61 152zM1196 164q0 91 -61 152
t-152 61q-92 0 -153.5 -61t-61.5 -152q0 -92 61.5 -153.5t153.5 -61.5q91 0 152 61.5t61 153.5zM559 797q0 92 -61 152.5t-152 60.5q-92 0 -152.5 -60.5t-60.5 -152.5t60.5 -152.5t152.5 -60.5q91 0 152 60.5t61 152.5zM1831 797q0 92 -61 152.5t-152 60.5t-152 -60.5
t-61 -152.5t61 -152.5t152 -60.5t152 60.5t61 152.5z" />
    <glyph glyph-name="_8763" unicode="&#x203c;" 
d="M715 395h-103l-53 830v426h211v-426zM532 100q0 67 32 99t98 32q69 0 100 -31.5t31 -99.5q0 -69 -31 -99t-100 -30q-67 0 -98.5 30.5t-31.5 98.5zM1354 395h-103l-53 830v426h211v-426zM1171 100q0 67 31.5 99t97.5 32q69 0 100.5 -31.5t31.5 -99.5q0 -69 -31.5 -99
t-100.5 -30q-67 0 -98 30.5t-31 98.5z" />
    <glyph glyph-name="_8599" unicode="&#x2042;" 
d="M737 635l-149 -203l243 21v-131l-243 22l143 -205l-117 -71l-102 231l-102 -229l-119 67l147 207l-252 -22v131l252 -21l-149 205l114 72l109 -232l104 228zM1686 635l-148 -203l242 21v-131l-242 22l143 -205l-118 -71l-103 231l-102 -229l-119 67l145 207l-249 -22v131
l249 -21l-147 205l115 72l108 -232l109 228zM1233 1042l-203 150l17 -244h-127l20 244l-203 -143l-73 116l233 103l-229 102l63 119l209 -146l-20 250h127l-17 -250l205 148l74 -115l-234 -108l228 -105z" />
    <glyph glyph-name="_845" unicode="&#x2074;" horiz-adv-x="894" 
d="M287 958l174 297v-297h-174zM864 958h-106v666h-326l-403 -682v-225h432v-178h297v178h106v241z" />
    <glyph glyph-name="_8239" unicode="&#x207a;" horiz-adv-x="983" 
d="M791 1364v-127h-234v-268h-129v268h-235v127h235v268h129v-268h234z" />
    <glyph glyph-name="_8240" unicode="&#x207b;" horiz-adv-x="983" 
d="M193 1237v127h598v-127h-598z" />
    <glyph glyph-name="_8248" unicode="&#x207c;" horiz-adv-x="983" 
d="M223 1352v123h535v-123h-535zM223 1106v123h535v-123h-535z" />
    <glyph glyph-name="_8250" unicode="&#x207d;" horiz-adv-x="983" 
d="M885 823h-105q-66 85 -116 208t-50 263q0 138 50.5 262.5t115.5 208.5h103q-140 -225 -140 -471q0 -111 35 -235t107 -236z" />
    <glyph glyph-name="_8251" unicode="&#x207e;" horiz-adv-x="983" 
d="M205 823h-105q72 112 107 236t35 235q0 246 -140 471h103q65 -84 115.5 -208.5t50.5 -262.5q0 -140 -50 -263t-116 -208z" />
    <glyph glyph-name="_846" unicode="&#x207f;" horiz-adv-x="894" 
d="M72 541h288v485q0 57 26.5 88t72.5 31q73 0 73 -84v-520h289v575q0 132 -63 199t-170 67q-89 0 -149 -42t-79 -111v131h-288v-819z" />
    <glyph glyph-name="_847" unicode="&#x2081;" horiz-adv-x="894" 
d="M653 -14v1085h-256l-260 -117v-254l221 97v-811h295z" />
    <glyph glyph-name="_848" unicode="&#x2082;" horiz-adv-x="894" 
d="M74 702h286v52q0 41 22 64.5t64 23.5q39 0 61.5 -24t22.5 -64q0 -36 -17.5 -67.5t-51.5 -70.5l-365 -419v-211h723v241h-340l219 248q67 75 94 137t27 144q0 155 -103.5 244.5t-269.5 89.5q-170 0 -271 -90t-101 -244v-54z" />
    <glyph glyph-name="_849" unicode="&#x2083;" horiz-adv-x="894" 
d="M446 862q80 0 80 -94q0 -48 -26 -74t-76 -26h-98v-226h100q115 0 115 -120q0 -121 -95 -121q-96 0 -96 114v29h-289v-41q0 -147 102 -241.5t283 -94.5q182 0 283.5 94t101.5 248q0 97 -47 163t-133 91q73 26 112.5 84.5t39.5 138.5q0 139 -95.5 221.5t-261.5 82.5
t-262 -81t-96 -212v-35h277v12q0 40 20 64t61 24z" />
    <glyph glyph-name="_850" unicode="&#x2084;" horiz-adv-x="894" 
d="M287 406l174 296v-296h-174zM864 406h-106v665h-326l-403 -682v-225h432v-178h297v178h106v242z" />
    <glyph glyph-name="_18160" unicode="&#x20ac;" horiz-adv-x="1505" 
d="M102 854v-104h-96v-166h109q15 -144 61.5 -257t126.5 -196.5t199.5 -127.5t273.5 -44q302 0 473.5 158t182.5 436h-388q-5 -133 -73 -207t-195 -74q-240 0 -274 312h299l28 166h-337v104h354l26 166h-370q17 159 85 236t189 77q127 0 195 -73t73 -207h388
q-11 278 -183 438t-473 160q-154 0 -274.5 -45.5t-199.5 -130t-125.5 -198.5t-61.5 -257h-109v-166h96z" />
    <glyph glyph-name="_141" unicode="&#x2103;" 
d="M700 1339q0 137 -92 226.5t-239 89.5q-148 0 -241 -90t-93 -226t93 -225.5t241 -89.5t239.5 89t91.5 226zM270 1339q0 45 28 74t71 29q42 0 69 -29t27 -74q0 -46 -27 -74t-69 -28q-43 0 -71 27.5t-28 74.5zM682 805q0 -547 233 -731q148 -117 394 -117q287 0 444 159.5
t168 436.5h-381q-10 -281 -231 -281q-99 0 -154 58q-50 53 -69 164.5t-19 310.5q0 188 19.5 300t68.5 167q54 63 154 63q218 0 231 -280h381q-11 277 -168 437.5t-444 160.5q-257 0 -410 -137q-217 -196 -217 -711z" />
    <glyph glyph-name="_215" unicode="&#x2109;" 
d="M803 -14h389v657h567v315h-567v351h639v315h-1028v-1638zM700 1339q0 137 -92 226.5t-239 89.5q-148 0 -241 -90t-93 -226t93 -225.5t241 -89.5t239.5 89t91.5 226zM270 1339q0 45 28 74t71 29q42 0 69 -29t27 -74q0 -46 -27 -74t-69 -28q-43 0 -71 27.5t-28 74.5z" />
    <glyph glyph-name="_590" unicode="&#x2113;" horiz-adv-x="1269" 
d="M735 -41q196 0 316 91t161 255l-338 68q-28 -137 -126 -137q-127 0 -127 184q561 280 561 778v19q0 198 -120 316t-341 118t-340 -118.5t-119 -328.5v-594q-122 -39 -237 -63l106 -277q70 15 141 37q28 -164 146.5 -256t316.5 -92zM621 1217q0 141 100 141t100 -137v-23
q0 -278 -200 -426v445z" />
    <glyph glyph-name="_258" unicode="&#x2116;" horiz-adv-x="2162" 
d="M831 -12h330v1634h-366v-913l-357 913h-327v-1634h366v913zM1278 -12h803v235h-803v-235zM2091 776q0 241 -99 359t-313 118q-212 0 -310.5 -118t-98.5 -359q0 -242 98 -359.5t311 -117.5q214 0 313 117.5t99 359.5zM1782 776q0 -141 -21.5 -191t-81.5 -50
q-59 0 -80.5 50.5t-21.5 190.5t21.5 191t80.5 51q60 0 81.5 -50.5t21.5 -191.5z" />
    <glyph glyph-name="_263" unicode="&#x2121;" 
d="M1534 481q2 27 2 90q0 322 -108 467.5t-316 145.5q-209 0 -317.5 -145.5t-108.5 -467.5q0 -166 28.5 -284.5t84.5 -190t133 -104.5t180 -33q175 0 282 97t130 300h-318q-6 -80 -29 -114.5t-67 -34.5q-54 0 -74 57t-28 217h526zM10 1307h260v-1319h348v1319h263v315h-871
v-315zM1913 -12v1634h-322v-1634h322zM1112 932q52 0 76 -58t24 -184h-202q0 119 23.5 180.5t78.5 61.5z" />
    <glyph glyph-name="_260" unicode="&#x2122;" horiz-adv-x="1568" 
d="M16 1432h183v-590h239v590h183v192h-605v-192zM1143 842l121 297v-297h231v782h-213l-201 -500l-198 500h-215v-782h233v297l119 -297h123z" />
    <glyph glyph-name="_643" unicode="&#x2126;" horiz-adv-x="1505" 
d="M754 1651q-339 0 -508 -209q-164 -205 -164 -565q0 -418 272 -574h-245v-315h581v315q-111 51 -165 169.5t-54 332.5q0 172 17 269t57 157q68 102 209 102t207 -102q40 -60 56.5 -156.5t16.5 -269.5q0 -214 -54 -332.5t-165 -169.5v-315h580v315h-244q272 156 272 574
q0 361 -163 565q-169 209 -506 209z" />
    <glyph glyph-name="_142" unicode="&#x212b;" 
d="M258 -14h393l78 290h506l80 -290h393l-487 1530q94 88 94 227q0 138 -92 226.5t-240 88.5t-241 -88.5t-93 -226.5q0 -136 94 -227zM1155 578h-346l174 636zM1079 1743q0 -45 -27 -74t-69 -29q-43 0 -69.5 28.5t-26.5 74.5t26.5 74t69.5 28q42 0 69 -28.5t27 -73.5z" />
    <glyph glyph-name="_749" unicode="&#x2153;" 
d="M557 539v1085h-256l-260 -117v-254l221 97v-811h295zM1434 1624h-293l-801 -1638h293zM1516 862q81 0 81 -94q0 -47 -26.5 -72.5t-77.5 -25.5h-96v-228h100q115 0 115 -120q0 -121 -96 -121q-45 0 -70 29t-25 85v29h-291v-41q0 -146 103 -241t283 -95q184 0 285.5 94
t101.5 248q0 97 -47.5 163t-135.5 91q74 26 114 85t40 138q0 139 -96 221.5t-262 82.5t-262.5 -81t-96.5 -212v-35h279v14q0 40 20 63t60 23z" />
    <glyph glyph-name="_750" unicode="&#x2154;" 
d="M1499 1624h-285l-460 -1008v164h-322l205 248q117 137 117 279q0 155 -99 245t-258 90q-161 0 -257.5 -90.5t-96.5 -244.5v-52h281v50q0 42 18.5 66t54.5 24q35 0 54.5 -24t19.5 -66q0 -26 -10 -51.5t-21 -42.5t-32 -42l-345 -421v-209h656l-254 -553h285zM1554 862
q72 0 72 -94q0 -47 -24 -72.5t-68 -25.5h-96v-228h100q100 0 100 -120q0 -121 -84 -121t-84 114v29h-284v-41q0 -146 98 -241t270 -95q175 0 272 94t97 248q0 95 -45.5 161.5t-128.5 92.5q70 28 108.5 87t38.5 136q0 139 -91.5 221.5t-250.5 82.5q-158 0 -250 -81t-92 -212
v-35h271v14q0 39 18.5 62.5t52.5 23.5z" />
    <glyph glyph-name="_753" unicode="&#x215b;" 
d="M557 539v1085h-256l-260 -117v-254l221 97v-811h295zM1434 1624h-293l-801 -1638h293zM1518 860q45 0 69.5 -26t24.5 -72q0 -45 -24.5 -71.5t-69.5 -26.5q-44 0 -69.5 26.5t-25.5 71.5q0 46 25.5 72t69.5 26zM1518 451q104 0 104 -129q0 -132 -104 -132q-49 0 -77 32.5
t-28 99.5q0 65 28 97t77 32zM1518 -35q181 0 290 91t109 245q0 190 -178 264q71 29 111 91t40 141q0 129 -98.5 209.5t-273.5 80.5q-173 0 -272 -80.5t-99 -209.5q0 -80 39.5 -141.5t111.5 -90.5q-180 -74 -180 -264q0 -154 110 -245t290 -91z" />
    <glyph glyph-name="_754" unicode="&#x215c;" 
d="M1546 -33q170 0 274.5 90.5t104.5 243.5q0 187 -170 262q66 31 104.5 93.5t38.5 140.5q0 128 -94.5 209t-257.5 81q-165 0 -259.5 -81t-94.5 -209q0 -78 39 -140.5t106 -93.5q-172 -74 -172 -262q0 -153 105 -243.5t276 -90.5zM1546 664q-40 0 -62 25.5t-22 70.5
q0 46 22.5 73t61.5 27t60.5 -27t21.5 -73q0 -45 -21.5 -70.5t-60.5 -25.5zM1638 319q0 -65 -24.5 -97t-67.5 -32q-94 0 -94 129q0 130 94 130q43 0 67.5 -32.5t24.5 -97.5zM397 1413q31 0 50.5 -25t19.5 -69q0 -98 -90 -98h-98v-228h100q52 0 76 -29.5t24 -91.5
q0 -120 -82 -120q-36 0 -61 29.5t-25 86.5v27h-282v-39q0 -148 97.5 -243t270.5 -95q175 0 272 93.5t97 246.5q0 98 -46 164.5t-128 91.5q70 28 107.5 86.5t37.5 138.5q0 138 -91 219.5t-249 81.5q-157 0 -249.5 -81t-92.5 -211v-35h271v14q0 86 71 86zM1200 1622
l-747 -1634h284l748 1634h-285z" />
    <glyph glyph-name="_755" unicode="&#x215d;" 
d="M37 852q11 -155 103.5 -242.5t260.5 -87.5q176 0 268.5 99t92.5 282q0 171 -75 265t-206 94q-86 0 -133 -50l10 170h357v242h-619l-26 -627h266q7 28 25.5 43t41.5 15q78 0 78 -150q0 -149 -80 -149q-35 0 -55.5 25t-23.5 71h-285zM1546 860q40 0 62 -26t22 -72
q0 -45 -22.5 -71.5t-61.5 -26.5t-60.5 26.5t-21.5 71.5q0 46 21.5 72t60.5 26zM1546 451q43 0 67.5 -32t24.5 -97q0 -67 -24.5 -99.5t-67.5 -32.5q-92 0 -92 132q0 129 92 129zM1546 -35q171 0 275 91t104 245q0 189 -170 264q66 29 106 92.5t40 139.5q0 129 -95 209.5
t-260 80.5t-259.5 -80.5t-94.5 -209.5q0 -76 39.5 -139.5t105.5 -92.5q-172 -76 -172 -264q0 -154 104.5 -245t276.5 -91zM1487 1624h-285l-749 -1638h284z" />
    <glyph glyph-name="_756" unicode="&#x215e;" 
d="M1446 1624h-293l-799 -1638h293zM1526 860q45 0 69.5 -26t24.5 -72q0 -45 -24.5 -71.5t-69.5 -26.5q-44 0 -69 26.5t-25 71.5q0 46 25 72t69 26zM1526 451q104 0 104 -129q0 -132 -104 -132q-49 0 -77 32.5t-28 99.5q0 65 28 97t77 32zM1526 -35q180 0 288.5 91
t108.5 245q0 191 -176 264q70 29 109.5 90.5t39.5 141.5q0 129 -98.5 209.5t-271.5 80.5t-272 -80.5t-99 -209.5q0 -80 40 -141.5t112 -90.5q-181 -74 -181 -264q0 -154 110 -245t290 -91zM47 1380h440l-325 -841h309l328 878v207h-752v-244z" />
    <glyph glyph-name="_461" unicode="&#x2160;" 
d="M1300 -14v311h-124v1014h124v313h-636v-313h124v-1014h-124v-311h636z" />
    <glyph glyph-name="_462" unicode="&#x2161;" 
d="M938 -14v305h-107v1028h107v305h-576v-305h107v-1028h-107v-305h576zM1602 -14v305h-105v1028h105v305h-574v-305h107v-1028h-107v-305h574z" />
    <glyph glyph-name="_463" unicode="&#x2162;" 
d="M682 -14v303h-86v1032h86v303h-508v-303h84v-1032h-84v-303h508zM1235 -14v303h-86v1032h86v303h-508v-303h86v-1032h-86v-303h508zM1790 -14v303h-84v1032h84v303h-508v-303h86v-1032h-86v-303h508z" />
    <glyph glyph-name="_464" unicode="&#x2163;" 
d="M1288 373l-215 1251h-358l342 -1638h467l340 1638h-359zM690 -14v303h-86v1032h86v303h-508v-303h86v-1032h-86v-303h508z" />
    <glyph glyph-name="_465" unicode="&#x2164;" 
d="M649 1622h-393l522 -1634h408l522 1634h-395l-330 -1196z" />
    <glyph glyph-name="_466" unicode="&#x2165;" 
d="M455 1622h-359l340 -1634h467l342 1634h-358l-215 -1249zM1778 -12v299h-86v1032h86v303h-508v-303h86v-1032h-86v-299h508z" />
    <glyph glyph-name="_467" unicode="&#x2166;" 
d="M1898 -14v295h-65v1048h65v295h-440v-295h66v-1048h-66v-295h440zM1417 -14v295h-65v1048h65v295h-440v-295h65v-1048h-65v-295h440zM500 387l-133 1237h-324l244 -1638h426l243 1638h-325z" />
    <glyph glyph-name="_468" unicode="&#x2167;" 
d="M1919 -14v290h-41v1057h41v291h-363v-291h41v-1057h-41v-290h363zM1518 -14v290h-48v1057h48v291h-371v-291h45v-1057h-45v-290h371zM1108 -14v290h-43v1057h43v291h-365v-291h41v-1057h-41v-290h365zM373 362l-60 1262h-297l150 -1638h414l149 1638h-297z" />
    <glyph glyph-name="_469" unicode="&#x2168;" 
d="M670 -14v303h-86v1032h86v303h-508v-303h86v-1032h-86v-303h508zM1866 1624h-353l-235 -453l-231 453h-355l410 -801l-430 -837h354l252 491l256 -491h352l-432 837z" />
    <glyph glyph-name="_470" unicode="&#x2169;" 
d="M684 -12l299 604l297 -604h406l-449 843l414 791h-408l-260 -555l-264 555h-408l414 -791l-449 -843h408z" />
    <glyph glyph-name="_451" unicode="&#x2170;" 
d="M799 1323h364v301h-364v-301zM799 -14h364v1169h-364v-1169z" />
    <glyph glyph-name="_452" unicode="&#x2171;" 
d="M520 1323h348v301h-348v-301zM520 -14h348v1169h-348v-1169zM1094 1323h348v301h-348v-301zM1094 -14h348v1169h-348v-1169z" />
    <glyph glyph-name="_453" unicode="&#x2172;" 
d="M336 1323h340v301h-340v-301zM336 -14h340v1169h-340v-1169zM811 1323h340v301h-340v-301zM811 -14h340v1169h-340v-1169zM1288 1323h340v301h-340v-301zM1288 -14h340v1169h-340v-1169z" />
    <glyph glyph-name="_454" unicode="&#x2173;" 
d="M328 1323h340v299h-340v-299zM328 -12h340v1167h-340v-1167zM1452 -12l360 1167h-358l-199 -786l-200 786h-357l361 -1167h393z" />
    <glyph glyph-name="_455" unicode="&#x2174;" 
d="M1171 -12l408 1167h-373l-223 -790l-227 790h-373l410 -1167h378z" />
    <glyph glyph-name="_456" unicode="&#x2175;" 
d="M926 -12l360 1167h-358l-197 -786l-201 786h-358l363 -1167h391zM1325 1323h340v299h-340v-299zM1325 -12h340v1167h-340v-1167z" />
    <glyph glyph-name="_457" unicode="&#x2176;" 
d="M752 -14l266 1169h-346l-123 -784l-125 784h-344l266 -1169h406zM1460 1323h326v301h-326v-301zM1460 -14h326v1169h-326v-1169zM1044 1323h326v301h-326v-301zM1044 -14h326v1169h-326v-1169z" />
    <glyph glyph-name="_458" unicode="&#x2177;" 
d="M643 -14l178 1169h-319l-78 -799l-80 799h-319l180 -1169h438zM1214 1323h304v301h-304v-301zM1214 -14h304v1169h-304v-1169zM842 1323h303v301h-303v-301zM842 -14h303v1169h-303v-1169zM1585 1323h303v301h-303v-301zM1585 -14h303v1169h-303v-1169z" />
    <glyph glyph-name="_459" unicode="&#x2178;" 
d="M1798 -12l-375 608l344 559h-352l-168 -272l-168 272h-354l344 -559l-375 -608h357l196 319l197 -319h354zM328 1323h340v299h-340v-299zM328 -12h340v1167h-340v-1167z" />
    <glyph glyph-name="_460" unicode="&#x2179;" 
d="M1176 -12h376l-331 598l309 569h-377l-170 -373l-170 373h-377l309 -569l-333 -598h376l195 399z" />
    <glyph glyph-name="_171" unicode="&#x2190;" 
d="M1903 954h-1254v271l-590 -463l590 -465v270h1254v387z" />
    <glyph glyph-name="_172" unicode="&#x2191;" 
d="M1176 -102v1249h270l-463 594l-467 -594h272v-1249h388z" />
    <glyph glyph-name="_170" unicode="&#x2192;" 
d="M59 567h1252v-270l592 465l-592 463v-271h-1252v-387z" />
    <glyph glyph-name="_173" unicode="&#x2193;" 
d="M788 1741v-1254h-272l467 -589l463 589h-270v1254h-388z" />
    <glyph glyph-name="_174" unicode="&#x2194;" 
d="M649 1225l-590 -463l590 -465v270h664v-270l590 465l-590 463v-271h-664v271z" />
    <glyph glyph-name="_247" unicode="&#x2195;" 
d="M516 487l467 -589l463 589h-270v660h270l-463 594l-467 -594h272v-660h-272z" />
    <glyph glyph-name="_250" unicode="&#x2196;" 
d="M1702 272l-883 885l191 191l-748 92l90 -748l193 191l885 -885z" />
    <glyph glyph-name="_248" unicode="&#x2197;" 
d="M537 -2l884 885l193 -191l88 748l-746 -92l191 -191l-885 -885z" />
    <glyph glyph-name="_251" unicode="&#x2198;" 
d="M262 1167l885 -884l-191 -193l746 -92l-88 750l-193 -193l-884 885z" />
    <glyph glyph-name="_249" unicode="&#x2199;" 
d="M1430 1440l-885 -885l-193 193l-90 -750l748 92l-191 193l883 884z" />
    <glyph glyph-name="_8868" unicode="&#x21b0;" 
d="M455 1257h1325v-1411h-51v1362h-1274v-266l-271 289l271 285v-259z" />
    <glyph glyph-name="_8865" unicode="&#x21b1;" 
d="M195 1247h1304v256l273 -284l-273 -287v264h-1255v-1350h-49v1401z" />
    <glyph glyph-name="_8864" unicode="&#x21b2;" 
d="M1788 297h-1342v-258l-270 283l270 288v-258h1289v1391h53v-1446z" />
    <glyph glyph-name="_8869" unicode="&#x21b3;" 
d="M1495 313h-1298v1430h51v-1381h1247v263l272 -287l-272 -287v262z" />
    <glyph glyph-name="_8867" unicode="&#x21b4;" 
d="M1565 1454v-1335h258l-281 -273l-291 273h260v1284h-1370v51h1424z" />
    <glyph glyph-name="_8884" unicode="&#x21bc;" 
d="M481 1061q48 33 98 58t86 37.5t68.5 20.5t46 9.5t17.5 1.5q-13 -7 -42 -24t-89.5 -63t-104.5 -95q-38 -42 -72 -89t-50 -72.5t-17 -25.5h1501v-47h-1880q38 31 183 122.5t255 166.5z" />
    <glyph glyph-name="_8885" unicode="&#x21c0;" 
d="M1483 1061q115 -79 259 -169.5t181 -119.5h-1882v47h1501l-16 25q-15 26 -49 73t-72 89q-45 49 -104 94t-93 65.5t-41 22.5q12 0 45.5 -6t114.5 -37.5t156 -83.5z" />
    <glyph glyph-name="_8896" unicode="&#x21c4;" 
d="M1272 1358l641 -248l-641 -252l213 191h-1397v120h1401zM1878 551v-123h-1399l215 -186l-641 247l641 248l-217 -186h1401z" />
    <glyph glyph-name="_8897" unicode="&#x21c5;" 
d="M420 1087l250 639l248 -639l-191 211v-1390h-121v1395zM1235 1688h121v-1391l188 215l-252 -637l-248 637l191 -217v1393z" />
    <glyph glyph-name="_8816" unicode="&#x21cd;" 
d="M1096 952h-828l-162 -157l164 -160h740zM322 1004h788l107 399l49 -14l-103 -385h760v-52h-774l-86 -317h860v-53h-872l-111 -408l-49 12l104 396h-673l280 -287l-35 -31l-524 531l522 526l35 -35z" />
    <glyph glyph-name="_8815" unicode="&#x21cf;" 
d="M1640 592h-819l-108 -418l-54 12l109 406h-725v55h741l86 316h-827v51h840l104 389l49 -14l-98 -375h702l-280 284l37 37l526 -534l-528 -527l-37 35zM924 963l-88 -316h854l165 156l-161 160h-770z" />
    <glyph glyph-name="_8814" unicode="&#x21d0;" 
d="M1923 582h-1601l280 -287l-35 -31l-524 531l522 526l35 -35l-278 -282h1601v-52h-1655l-162 -157l162 -160h1655v-53z" />
    <glyph glyph-name="_8854" unicode="&#x21d1;" 
d="M801 1741v-1895h-51v1737l-617 -739l-49 45zM1159 1741v-1895h55v1737l617 -739l49 45z" />
    <glyph glyph-name="_195" unicode="&#x21d2;" 
d="M1214 1075h-1146v-221h1394l107 -96l-115 -107h-1386v-219h1151l-189 -178l154 -162l712 666l-714 645l-152 -160z" />
    <glyph glyph-name="_8855" unicode="&#x21d3;" 
d="M801 1733v-1891l-717 852l49 45l617 -741v1735h51zM1159 -158v1891h55v-1735l617 741l49 -45z" />
    <glyph glyph-name="_196" unicode="&#x21d4;" 
d="M1282 1075h-598l174 174l-158 152l-659 -643l657 -664l160 154l-178 184h604l-176 -184l160 -154l657 664l-659 643l-158 -152zM461 854h1044l97 -96l-105 -107h-1030l-102 107z" />
    <glyph glyph-name="_9190" unicode="&#x21e0;" 
d="M459 1214v-841l-389 420zM926 780q0 56 -40 95.5t-95 39.5q-56 0 -96 -40t-40 -95t40 -95t96 -40q55 0 95 39.5t40 95.5zM1413 780q0 56 -39.5 95.5t-95.5 39.5t-95.5 -39.5t-39.5 -95.5t39.5 -95.5t95.5 -39.5t95.5 39.5t39.5 95.5zM1896 780q0 56 -40 95.5t-95 39.5
t-95 -39.5t-40 -95.5t40 -95.5t95 -39.5t95 39.5t40 95.5z" />
    <glyph glyph-name="_9192" unicode="&#x21e1;" 
d="M559 1315h846l-418 391zM995 158q-55 0 -95 -40t-40 -95q0 -56 40 -96t95 -40t95 40t40 96q0 55 -40 95t-95 40zM995 645q-55 0 -95 -39.5t-40 -95.5t40 -95.5t95 -39.5t95 39.5t40 95.5t-40 95.5t-95 39.5zM995 1128q-55 0 -95 -40t-40 -95t40 -95t95 -40t95 40t40 95
t-40 95t-95 40z" />
    <glyph glyph-name="_9191" unicode="&#x21e2;" 
d="M1509 1217v-842l389 420zM336 780q0 56 -40 95.5t-95 39.5t-95 -39.5t-40 -95.5t40 -95.5t95 -39.5t95 39.5t40 95.5zM823 780q0 56 -39.5 95.5t-95.5 39.5t-95.5 -39.5t-39.5 -95.5t39.5 -95.5t95.5 -39.5t95.5 39.5t39.5 95.5zM1307 780q0 55 -40 95t-96 40
q-55 0 -95 -39.5t-40 -95.5t40 -95.5t95 -39.5q56 0 96 40t40 95z" />
    <glyph glyph-name="_9193" unicode="&#x21e3;" 
d="M559 274h846l-418 -391zM995 731q-55 0 -95 -39.5t-40 -95.5t40 -95.5t95 -39.5t95 39.5t40 95.5t-40 95.5t-95 39.5zM995 1219q-55 0 -95 -40t-40 -96q0 -55 40 -95t95 -40t95 40t40 95q0 56 -40 96t-95 40zM995 1702q-55 0 -95 -40t-40 -95t40 -95t95 -40t95 40t40 95
t-40 95t-95 40z" />
    <glyph glyph-name="_9198" unicode="&#x21e6;" 
d="M1837 506v571h-1051v344l-632 -628l632 -633v346h1051zM1894 1135v-684h-1054v-428l-770 772l770 768v-428h1054z" />
    <glyph glyph-name="_9200" unicode="&#x21e7;" 
d="M1272 -57h-576v1044h-346l635 635l635 -633h-348v-1046zM639 -115h688v1051h428l-770 770l-774 -772h428v-1049z" />
    <glyph glyph-name="_9199" unicode="&#x21e8;" 
d="M127 506v571h1051v344l632 -628l-632 -633v346h-1051zM70 1135v-684h1054v-428l770 772l-770 768v-428h-1054z" />
    <glyph glyph-name="_9201" unicode="&#x21e9;" 
d="M1272 1647h-576v-1045h-346l635 -635l635 633h-348v1047zM639 1704h688v-1051h428l-770 -770l-774 772h428v1049z" />
    <glyph glyph-name="_197" unicode="&#x2200;" 
d="M1315 1622l-78 -289h-508l-78 289h-395l522 -1634h408l522 1634h-393zM1155 1030l-172 -635l-172 635h344z" />
    <glyph glyph-name="_151" unicode="&#x2202;" 
d="M874 1212q15 71 56.5 110.5t105.5 39.5q79 0 116.5 -75t37.5 -238q0 -57 -6 -125q-29 59 -97.5 92t-160.5 33q-108 0 -202 -38.5t-165 -110.5t-112 -183.5t-41 -249.5q0 -241 131.5 -375.5t363.5 -134.5q146 0 257 44.5t187 129t124 215.5t69 294t21 374
q0 318 -117.5 478.5t-378.5 160.5q-222 0 -364.5 -116.5t-198.5 -324.5h374zM942 252q-160 0 -160 201q0 143 52 222t153 79q160 0 160 -205q0 -141 -53 -219t-152 -78z" />
    <glyph glyph-name="_198" unicode="&#x2203;" 
d="M1489 1624h-1053v-315h662v-367h-566v-315h566v-326h-649v-315h1040v1638z" />
    <glyph glyph-name="_8715" unicode="&#x2206;" 
d="M313 102l631 1334q19 45 47 45q22 0 43 -43l611 -1307q21 -46 24 -76q0 -32 -67 -32h-1248q-32 0 -44.5 5.5t-12.5 22.5q0 14 16 51zM1442 166l-506 1077l-510 -1077h1016z" />
    <glyph glyph-name="_152" unicode="&#x2207;" 
d="M256 1622l522 -1634h408l522 1634h-1452zM731 1321h500l-248 -903z" />
    <glyph glyph-name="_184" unicode="&#x2208;" 
d="M567 952q79 209 453 209h719v318h-725q-189 0 -340.5 -42t-262 -125t-170 -214.5t-59.5 -302.5t59.5 -302.5t170 -214.5t262 -125t340.5 -42h725v315h-719q-376 0 -453 211h1172v315h-1172z" />
    <glyph glyph-name="_8749" unicode="&#x2209;" 
d="M924 303l-56 -199l-67 23l49 180q-210 26 -352 167.5t-142 326.5q0 100 45.5 191.5t122 158.5t183 107t223.5 40h194l68 242l72 -24l-62 -218h406v-75h-426l-107 -379h533v-76h-555l-109 -389h664v-76h-678h-6zM442 844h557l105 379h-174q-183 0 -325.5 -109.5
t-162.5 -269.5zM870 381l107 387h-535q13 -151 136.5 -259.5t291.5 -127.5z" />
    <glyph glyph-name="_185" unicode="&#x220b;" 
d="M223 952v-315h1174q-40 -106 -150.5 -158.5t-302.5 -52.5h-721v-315h727q189 0 340 42t261 125t169.5 214.5t59.5 302.5t-59.5 302.5t-169.5 214.5t-261 125t-340 42h-727v-318h721q374 0 453 -209h-1174z" />
    <glyph glyph-name="_8750" unicode="&#x220c;" 
d="M838 303l-56 -199l-67 23l49 176h-408v76h428l107 389h-535v76h557l105 379h-662v75h678h4l68 242l72 -24l-64 -224q210 -26 352 -166.5t142 -324.5q0 -133 -76.5 -247.5t-209.5 -182.5t-288 -68h-196zM858 379h176q185 0 329 112.5t159 276.5h-555zM1094 1219l-105 -375
h531q-19 146 -140 251t-286 124z" />
    <glyph glyph-name="_213" unicode="&#x220f;" 
d="M1198 -172h389v1796h-1208v-1796h391v1481h428v-1481z" />
    <glyph glyph-name="_212" unicode="&#x2211;" 
d="M410 141v-313h1144v315h-702l311 525v90l-311 551h702v315h-1144v-317l344 -590z" />
    <glyph glyph-name="_8726" unicode="&#x2213;" 
d="M317 1444v72h1332v-72h-1332zM317 686v74h625v524h76v-524h631v-74h-631v-504h-76v504h-625z" />
    <glyph glyph-name="_178" unicode="&#x221a;" 
d="M1313 1450h585v291h-884l-418 -1548l-172 411h-399l409 -876h397z" />
    <glyph glyph-name="_180" unicode="&#x221d;" 
d="M803 760q-84 -109 -180 -109q-52 0 -84.5 29t-32.5 80t32.5 79.5t84.5 28.5q97 0 180 -108zM1448 688q-50 -37 -105 -37q-98 0 -182 109q83 108 182 108q53 0 101 -32l158 241q-91 51 -220 51q-239 0 -399 -198q-159 196 -401 196q-181 0 -288.5 -99t-107.5 -267
q0 -169 107.5 -268t288.5 -99q244 0 401 197q157 -197 399 -197q153 0 256 74z" />
    <glyph glyph-name="_136" unicode="&#x221e;" 
d="M803 760q-84 -109 -180 -109q-52 0 -84.5 29t-32.5 80t32.5 79.5t84.5 28.5q97 0 180 -108zM983 590q157 -197 399 -197q181 0 289.5 99t108.5 268q0 168 -108.5 267t-289.5 99q-240 0 -399 -196q-159 196 -401 196q-181 0 -288.5 -99t-107.5 -267q0 -169 107.5 -268
t288.5 -99q244 0 401 197zM1161 760q83 108 182 108q52 0 83.5 -28.5t31.5 -79.5q0 -52 -31.5 -80.5t-83.5 -28.5q-98 0 -182 109z" />
    <glyph glyph-name="_8717" unicode="&#x221f;" 
d="M383 252v1173h74v-1097h1124v-76h-1198z" />
    <glyph glyph-name="_148" unicode="&#x2220;" 
d="M1665 1321l-223 205l-1247 -1211v-225h1574v275h-1110z" />
    <glyph glyph-name="_8738" unicode="&#x2222;" 
d="M393 836l854 333q-75 131 -219 193v82q198 -80 291 -246l268 105l25 -70l-262 -103q55 -135 55 -329q0 -181 -47 -312l254 -88l-27 -71l-258 90q-92 -180 -299 -262v82q150 63 225 204l-858 304q-41 15 -42 43t40 45zM1329 801q0 178 -51 303l-793 -307l799 -281
q45 119 45 285z" />
    <glyph glyph-name="_8719" unicode="&#x2225;" 
d="M616 -317h302v2054h-302v-2054zM1049 -317h299v2054h-299v-2054z" />
    <glyph glyph-name="_8720" unicode="&#x2226;" 
d="M842 1006l-297 487l65 39l277 -455l260 451l63 -43l-282 -475l180 -301l481 813l66 -43l-504 -842l301 -504l-55 -43l-287 477l-297 -479l-61 41l313 508l-180 301l-516 -844l-60 43z" />
    <glyph glyph-name="_192" unicode="&#x2227;" 
d="M184 96l303 -119l494 1115l500 -1115l301 119l-699 1499h-200z" />
    <glyph glyph-name="_193" unicode="&#x2228;" 
d="M883 -25h200l699 1500l-301 118l-500 -1116l-494 1116l-303 -118z" />
    <glyph glyph-name="_191" unicode="&#x2229;" 
d="M983 1294q334 0 334 -530v-746h350v752q0 186 -42.5 333.5t-126.5 253t-214.5 162t-300.5 56.5q-338 0 -512 -213.5t-174 -591.5v-752h352v746q0 530 334 530z" />
    <glyph glyph-name="_190" unicode="&#x222a;" 
d="M983 258q-334 0 -334 530v746h-352v-752q0 -378 174 -591.5t512 -213.5q170 0 300.5 56.5t214.5 162t126.5 253t42.5 333.5v752h-350v-746q0 -530 -334 -530z" />
    <glyph glyph-name="_182" unicode="&#x222b;" 
d="M1452 1534v262q-86 12 -213 12q-233 0 -335.5 -87.5t-102.5 -280.5v-1309q0 -69 -32 -98t-114 -29h-143v-260q71 -10 211 -10q234 0 337 86.5t103 279.5v1311q0 67 31.5 95t112.5 28h145z" />
    <glyph glyph-name="_183" unicode="&#x222c;" 
d="M1075 1534v262q-83 12 -198 12q-233 0 -336 -87.5t-103 -280.5v-1309q0 -69 -32 -98t-113 -29h-131v-260q69 -10 198 -10q234 0 336.5 86.5t102.5 279.5v1311q0 67 31.5 95t111.5 28h133zM1802 1534v262q-83 12 -198 12q-229 0 -335 -88t-106 -280v-1309q0 -69 -31.5 -98
t-113.5 -29h-129v-260q69 -10 198 -10q229 0 334 87t105 279v1311q0 67 31.5 95t111.5 28h133z" />
    <glyph glyph-name="_211" unicode="&#x222e;" 
d="M483 762q0 -158 89 -277.5t235 -167.5v-186q0 -69 -34 -98t-118 -29h-143v-262q71 -10 213 -10q231 0 332.5 87t101.5 279v219q146 48 235 167.5t89 277.5t-89 277t-235 167v205q0 67 33 96t115 29h145v262q-86 12 -211 12q-233 0 -333.5 -87t-100.5 -281v-236
q-146 -48 -235 -167t-89 -277zM719 762q0 120 88 192v-383q-88 69 -88 191zM1247 762q0 -122 -88 -191v383q88 -72 88 -192z" />
    <glyph glyph-name="_137" unicode="&#x2234;" 
d="M1163 1483h-362v-369h362v369zM643 520h-354v-368h354v368zM1675 520h-354v-368h354v368z" />
    <glyph glyph-name="_181" unicode="&#x2235;" 
d="M1163 520h-362v-368h362v368zM643 1483h-354v-369h354v369zM1675 1483h-354v-369h354v369z" />
    <glyph glyph-name="_18161" unicode="&#x223c;" horiz-adv-x="1232" 
d="M375 961q-148 0 -213.5 -105.5t-65.5 -304.5h322v4q3 100 78 100q32 0 70.5 -18.5t72 -40.5t92 -40.5t125.5 -18.5q149 0 214 104.5t67 304.5h-326v-4q0 -100 -76 -100q-32 0 -71 18.5t-72.5 41t-91.5 41t-125 18.5z" />
    <glyph glyph-name="_179" unicode="&#x223d;" 
d="M1081 662q75 106 137.5 156t124.5 50q52 0 83.5 -28.5t31.5 -79.5q0 -52 -31.5 -80.5t-83.5 -28.5t-104 37l-125 -219q119 -76 268 -76q181 0 289.5 99t108.5 268q0 168 -108.5 267t-289.5 99q-305 0 -493 -268q-143 -207 -266 -207q-52 0 -84.5 29t-32.5 80t32.5 79.5
t84.5 28.5q44 0 96 -30l119 219q-120 69 -256 69q-181 0 -288.5 -99t-107.5 -267q0 -169 107.5 -268t288.5 -99q313 0 499 269z" />
    <glyph glyph-name="_8500" unicode="&#x2243;" 
d="M952 963q-52 28 -73.5 38t-72.5 21.5t-112 11.5q-91 0 -183.5 -44t-164.5 -107l-22 84q62 83 167.5 143.5t221.5 60.5q40 0 74 -5t66 -17.5t51 -21.5t54.5 -28.5t51.5 -27.5q54 -29 74 -38.5t71.5 -21.5t112.5 -12q91 0 183.5 44.5t164.5 107.5l22 -84
q-62 -83 -167.5 -144t-221.5 -61q-49 0 -95.5 11t-67 19.5t-72.5 37t-62 33.5zM348 324v104h1292v-104h-1292z" />
    <glyph glyph-name="_8499" unicode="&#x2245;" 
d="M952 963q-52 28 -73.5 38t-72.5 21.5t-112 11.5q-91 0 -183.5 -44t-164.5 -107l-22 84q62 83 167.5 143.5t221.5 60.5q40 0 74 -5t66 -17.5t51 -21.5t54.5 -28.5t51.5 -27.5q54 -29 74 -38.5t71.5 -21.5t112.5 -12q91 0 183.5 44.5t164.5 107.5l22 -84
q-62 -83 -167.5 -144t-221.5 -61q-49 0 -95.5 11t-67 19.5t-72.5 37t-62 33.5zM348 78v104h1292v-104h-1292zM348 406v104h1292v-104h-1292z" />
    <glyph glyph-name="_8501" unicode="&#x2248;" 
d="M954 963q-52 28 -73.5 38t-72.5 21.5t-112 11.5q-91 0 -183.5 -44t-164.5 -107l-22 84q62 83 167.5 143.5t221.5 60.5q40 0 74 -5t66 -17.5t51 -21.5t54.5 -28.5t51.5 -27.5q54 -29 74 -38.5t71.5 -21.5t112.5 -12q91 0 183.5 44.5t164.5 107.5l22 -84
q-62 -83 -167.5 -144t-221.5 -61q-49 0 -95.5 11t-67 19.5t-72.5 37t-62 33.5zM954 348q-54 29 -74 38.5t-71.5 21.5t-112.5 12q-91 0 -183.5 -44.5t-164.5 -107.5l-22 84q62 83 167.5 144t221.5 61q40 0 74 -5t66 -17.5t51 -21.5t54.5 -28.5t51.5 -27.5q54 -29 74 -38.5
t71.5 -21.5t112.5 -12q91 0 183.5 44.5t164.5 107.5l22 -84q-62 -83 -167.5 -144t-221.5 -61q-40 0 -74 5t-66 17.5t-51 21.5t-54.5 28.5t-51.5 27.5z" />
    <glyph glyph-name="_8739" unicode="&#x2250;" 
d="M268 776v-74h1430v74h-1430zM268 412v-76h1430v76h-1430zM985 1251q58 0 91.5 -37t33.5 -86t-32 -84.5t-89 -35.5q-60 0 -92.5 35.5t-32.5 84.5q0 50 31.5 86t89.5 37z" />
    <glyph glyph-name="_8723" unicode="&#x2251;" 
d="M1681 1008v-78h-1396v78h1396zM1681 643v-76h-1396v76h1396zM979 1395q57 0 89 -36t32 -85q0 -51 -33.5 -87t-91.5 -36t-89.5 36t-31.5 85q0 51 32.5 87t92.5 36zM979 414q57 0 89 -36t32 -85q0 -51 -33.5 -87t-91.5 -36q-57 0 -89 37t-32 84q0 51 32.5 87t92.5 36z" />
    <glyph glyph-name="_154" unicode="&#x2252;" horiz-adv-x="1241" 
d="M78 811h1085v279h-1085v-279zM78 406h1085v278h-1085v-278zM1034 309h-362v-370h362v370zM565 1554h-362v-368h362v368z" />
    <glyph glyph-name="_8722" unicode="&#x2253;" 
d="M1681 1008v-78h-1396v78h1396zM1681 643v-76h-1396v76h1396zM1397 1395q57 0 89 -36.5t32 -84.5q0 -51 -33.5 -87t-91.5 -36q-56 0 -87.5 36.5t-31.5 84.5q0 51 32.5 87t90.5 36zM586 414q57 0 88 -35.5t31 -85.5q0 -51 -32.5 -87t-90.5 -36q-56 0 -87.5 37t-31.5 84
q0 51 32.5 87t90.5 36z" />
    <glyph glyph-name="_8753" unicode="&#x225a;" 
d="M315 416h1334v-72h-1334v72zM1493 1397l-502 -903l-510 917l70 25l440 -774l432 763zM315 176h1334v-72h-1334v72z" />
    <glyph glyph-name="_133" unicode="&#x2260;" horiz-adv-x="1241" 
d="M1163 371v278h-495l112 195h383v278h-219l137 234h-223l-137 -234h-643v-278h479l-113 -195h-366v-278h203l-138 -232h224l137 232h659z" />
    <glyph glyph-name="_153" unicode="&#x2261;" horiz-adv-x="1241" 
d="M78 1012h1085v278h-1085v-278zM78 608h1085v279h-1085v-279zM78 205h1085v278h-1085v-278z" />
    <glyph glyph-name="_8734" unicode="&#x2262;" 
d="M270 1090v71h875l143 252l64 -35l-125 -217h467v-71h-510l-148 -256h658v-68h-699l-145 -252h844v-70h-887l-164 -284l-61 33l145 251h-457v72h500l143 250h-643v68h684l148 256h-832z" />
    <glyph glyph-name="_134" unicode="&#x2264;" horiz-adv-x="1241" 
d="M1145 731l-625 205l625 205v323l-1047 -370v-316l1047 -370v323zM78 63h1085v277h-1085v-277z" />
    <glyph glyph-name="_135" unicode="&#x2265;" horiz-adv-x="1241" 
d="M1145 1094l-1047 370v-323l627 -205l-627 -205v-323l1047 370v316zM1163 340h-1085v-277h1085v277z" />
    <glyph glyph-name="_8724" unicode="&#x2266;" 
d="M383 1073l1194 467l25 -70l-1127 -436l1127 -395l-27 -72l-1190 418q-41 15 -42 43t40 45zM330 426v72h1304v-72h-1304zM330 154v69h1304v-69h-1304z" />
    <glyph glyph-name="_8725" unicode="&#x2267;" 
d="M387 1540l1194 -467q42 -18 42.5 -44t-44.5 -44l-1190 -418l-27 72l1127 395l-1127 436zM1634 498v-72h-1304v72h1304zM1634 223v-69h-1304v69h1304z" />
    <glyph glyph-name="_18162" unicode="&#x226a;" 
d="M725 739l999 -735l160 197l-792 598l790 594l-160 196l-997 -731v-119zM82 739l999 -735l160 197l-792 598l790 594l-160 196l-997 -731v-119z" />
    <glyph glyph-name="_18163" unicode="&#x226b;" 
d="M1241 858l-997 731l-160 -196l790 -594l-792 -598l160 -197l999 735v119zM1884 858l-997 731l-160 -196l791 -594l-793 -598l160 -197l999 735v119z" />
    <glyph glyph-name="_8745" unicode="&#x226e;" 
d="M1276 1516l-80 -283l391 192l25 -69l-443 -219l-161 -580l604 -278l-27 -72l-600 272l-104 -375l-68 23l107 383l-525 240q-41 15 -42 43t40 45l713 350l98 352zM485 797l455 -209l139 504z" />
    <glyph glyph-name="_8746" unicode="&#x226f;" 
d="M1151 1516l-117 -414l537 -264q41 -17 40 -45t-42 -43l-725 -332l-88 -314l-68 23l70 252l-379 -172l-27 72l432 198l162 584l-594 295l25 69l590 -290l112 405zM1479 797l-465 229l-144 -510z" />
    <glyph glyph-name="_8481" unicode="&#x2270;" 
d="M305 1036l1278 574l33 -113l-1020 -453l1026 -407l-43 -117zM1659 492v-123h-1292v123h1292zM1659 195v-121h-1292v121h1292zM823 -168l-112 29l460 1900l115 -28z" />
    <glyph glyph-name="_8482" unicode="&#x2271;" 
d="M381 1610l1278 -574l-1274 -516l-43 117l1026 407l-1020 453zM305 369v123h1292v-123h-1292zM305 74v121h1292v-121h-1292zM1253 -139l-112 -29l-463 1901l115 28z" />
    <glyph glyph-name="_8483" unicode="&#x2272;" 
d="M305 1036l1278 574l33 -113l-1020 -453l1026 -407l-43 -117zM973 123q-54 29 -74 38.5t-71.5 21.5t-112.5 12q-91 0 -183.5 -44.5t-164.5 -107.5l-23 84q62 83 167.5 144t221.5 61q49 0 95.5 -11t67 -19.5t72.5 -37t62 -33.5q52 -28 73.5 -38t72.5 -21.5t112 -11.5
q91 0 183.5 44t164.5 107l23 -84q-62 -83 -167.5 -143.5t-221.5 -60.5q-40 0 -74 5t-66 17.5t-51 21.5t-54.5 28.5t-51.5 27.5z" />
    <glyph glyph-name="_8484" unicode="&#x2273;" 
d="M334 1497l35 113l1276 -574l-1272 -516l-45 117l1028 407zM948 123q-54 29 -74 38.5t-71.5 21.5t-112.5 12q-91 0 -183.5 -44.5t-164.5 -107.5l-23 84q62 83 168 144t222 61q49 0 95.5 -11t67 -19.5t72.5 -37t62 -33.5q52 -28 73.5 -38t72.5 -21.5t112 -11.5
q91 0 183.5 44t164.5 107l22 -84q-62 -83 -167.5 -143.5t-221.5 -60.5q-40 0 -74 5t-66 17.5t-51 21.5t-54.5 28.5t-51.5 27.5z" />
    <glyph glyph-name="_8489" unicode="&#x2276;" 
d="M1651 1425l-1016 -321l1016 -322l-33 -114l-1303 436l1303 436zM315 147l1016 322l-1016 322l33 114l1303 -436l-1303 -436z" />
    <glyph glyph-name="_8490" unicode="&#x2277;" 
d="M338 1544l1292 -440l-1294 -438v125l987 313l-985 315v125zM1630 31l-1294 440l1292 438v-123l-985 -315l987 -315v-125z" />
    <glyph glyph-name="_8491" unicode="&#x2279;" 
d="M338 1544l1292 -440l-1294 -438v125l987 313l-985 315v125zM1630 31l-1294 440l1292 438v-123l-985 -315l987 -315v-125zM805 -168l-113 29l461 1900l115 -28z" />
    <glyph glyph-name="_8475" unicode="&#x227a;" 
d="M342 795q744 220 1225 610l57 -113q-474 -363 -950 -497q473 -136 950 -498l-57 -113q-483 392 -1225 611z" />
    <glyph glyph-name="_8476" unicode="&#x227b;" 
d="M1624 795q-742 -219 -1225 -611l-57 113q477 362 950 498q-476 134 -950 497l57 113q481 -390 1225 -610z" />
    <glyph glyph-name="_8479" unicode="&#x2280;" 
d="M1063 1569v-1549h-117v1549h117zM342 795q744 220 1225 610l57 -113q-474 -363 -950 -497q473 -136 950 -498l-57 -113q-483 392 -1225 611z" />
    <glyph glyph-name="_8480" unicode="&#x2281;" 
d="M903 20v1549h117v-1549h-117zM1624 795q-742 -219 -1225 -611l-57 113q477 362 950 498q-476 134 -950 497l57 113q481 -390 1225 -610z" />
    <glyph glyph-name="_188" unicode="&#x2282;" 
d="M551 797q0 181 111.5 273.5t357.5 92.5h721v316h-727q-189 0 -340 -41.5t-261 -124.5t-169.5 -214t-59.5 -302t59.5 -302.5t169 -215t261 -126t340.5 -42.5h727v317h-721q-247 0 -358 93t-111 276z" />
    <glyph glyph-name="_189" unicode="&#x2283;" 
d="M1415 797q0 -183 -111 -276t-358 -93h-721v-317h727q189 0 340.5 42.5t261 126t169 215t59.5 302.5t-59.5 302t-169.5 214t-261 124.5t-340 41.5h-727v-316h721q246 0 357.5 -92.5t111.5 -273.5z" />
    <glyph glyph-name="_8748" unicode="&#x2284;" 
d="M924 303l-56 -199l-67 23l49 180q-210 26 -352 167.5t-142 326.5q0 100 45.5 191.5t122 158.5t183 107t223.5 40h194l68 242l72 -24l-62 -218h406v-75h-426l-238 -844h664v-76h-678h-6zM440 801q0 -161 126.5 -280t303.5 -140l234 842h-174q-127 0 -239.5 -55
t-181.5 -153t-69 -214z" />
    <glyph glyph-name="_8747" unicode="&#x2285;" 
d="M840 303l-56 -199l-67 23l49 176h-410v76h430l234 844h-664v75h678h6l68 242l72 -24l-64 -224q210 -26 351 -166.5t141 -324.5q0 -133 -76.5 -247.5t-209.5 -182.5t-288 -68h-194zM860 379h174q127 0 239.5 55t181.5 153t69 214q0 160 -125.5 278.5t-302.5 139.5z" />
    <glyph glyph-name="_186" unicode="&#x2286;" 
d="M236 287v-303h1511v303h-1511zM543 1055q0 254 372 254h820v311h-826q-348 0 -540.5 -144t-192.5 -421q0 -279 192.5 -424.5t540.5 -145.5h826v312h-820q-372 0 -372 258z" />
    <glyph glyph-name="_187" unicode="&#x2287;" 
d="M217 287v-303h1512v303h-1512zM1421 1055q0 -258 -372 -258h-820v-312h826q348 0 540.5 145.5t192.5 424.5q0 277 -192.5 421t-540.5 144h-826v-311h820q372 0 372 -254z" />
    <glyph glyph-name="_8486" unicode="&#x228a;" 
d="M434 1087q0 -87 44.5 -166t127 -130.5t182.5 -51.5h875v-123h-858q-109 0 -204.5 40t-160 105.5t-102 150.5t-37.5 175t37.5 175t102 151t160 106t204.5 40h858v-123h-875q-100 0 -182.5 -51.5t-127 -131t-44.5 -166.5zM1665 195v-121h-1292v121h1292zM1665 492v-123
h-1292v123h1292zM1063 721l117 -33l-236 -825l-119 33z" />
    <glyph glyph-name="_8488" unicode="&#x228b;" 
d="M1532 1087q0 87 -44.5 166.5t-127 131t-182.5 51.5h-875v123h858q109 0 204.5 -40t160 -106t102 -151t37.5 -175t-37.5 -175t-102 -150.5t-160 -105.5t-204.5 -40h-858v123h875q100 0 182.5 51.5t127 130.5t44.5 166zM301 74v121h1292v-121h-1292zM301 369v123h1292v-123
h-1292zM1022 721l117 -33l-236 -825l-119 33z" />
    <glyph glyph-name="_8727" unicode="&#x2295;" 
d="M291 754v75h655v650h78v-650h651v-75h-651v-643h-78v643h-655zM985 1618q134 0 259 -41t225.5 -116t175.5 -175.5t116 -225.5t41 -259t-41 -259t-116 -225.5t-175.5 -175.5t-225.5 -116t-259 -41q-169 0 -321.5 64t-262 173.5t-173.5 260.5t-64 319t64 319t173.5 260.5
t262 173.5t321.5 64zM985 1546q-123 0 -238 -37.5t-206.5 -106t-160.5 -160t-106.5 -205.5t-37.5 -236q0 -204 99.5 -375.5t271.5 -271t378 -99.5q153 0 291 59t237.5 158.5t158.5 237.5t59 291t-59 291t-158.5 237.5t-237.5 158t-291 58.5z" />
    <glyph glyph-name="_8728" unicode="&#x2296;" 
d="M295 758v73h1384v-73h-1384zM985 1618q134 0 259 -41t225.5 -116t175.5 -175.5t116 -225.5t41 -259t-41 -259t-116 -225.5t-175.5 -175.5t-225.5 -116t-259 -41q-169 0 -321.5 64t-262 173.5t-173.5 260.5t-64 319t64 319t173.5 260.5t262 173.5t321.5 64zM985 1546
q-123 0 -238 -37.5t-206.5 -106t-160.5 -160t-106.5 -205.5t-37.5 -236q0 -204 99.5 -375.5t271.5 -271t378 -99.5q153 0 291 59t237.5 158.5t158.5 237.5t59 291t-59 291t-158.5 237.5t-237.5 158t-291 58.5z" />
    <glyph glyph-name="_8729" unicode="&#x2297;" 
d="M522 283l-55 57l461 461l-457 454l55 56l459 -457l459 459l55 -56l-461 -456l467 -461l-57 -53l-463 461zM985 1618q134 0 259 -41t225.5 -116t175.5 -175.5t116 -225.5t41 -259t-41 -259t-116 -225.5t-175.5 -175.5t-225.5 -116t-259 -41q-169 0 -321.5 64t-262 173.5
t-173.5 260.5t-64 319t64 319t173.5 260.5t262 173.5t321.5 64zM985 1546q-123 0 -238 -37.5t-206.5 -106t-160.5 -160t-106.5 -205.5t-37.5 -236q0 -204 99.5 -375.5t271.5 -271t378 -99.5q153 0 291 59t237.5 158.5t158.5 237.5t59 291t-59 291t-158.5 237.5t-237.5 158
t-291 58.5z" />
    <glyph glyph-name="_18164" unicode="&#x2299;" 
d="M1903 799q0 191 -70.5 361.5t-192.5 293t-293 193.5t-364 71q-194 0 -365 -71t-292.5 -193t-192 -292.5t-70.5 -362.5t70 -362.5t191.5 -293t292.5 -193.5t366 -71q259 0 470 121t330.5 331.5t119.5 467.5zM1683 799q0 -203 -88.5 -367t-249 -258t-362.5 -94
q-201 0 -361 94t-248.5 258t-88.5 367q0 202 88.5 365.5t248.5 257.5t361 94q202 0 362.5 -94t249 -257.5t88.5 -365.5zM1417 799q0 192 -122.5 319t-311.5 127q-188 0 -310 -127t-122 -319q0 -193 122 -320t310 -127q190 0 312 127t122 320z" />
    <glyph glyph-name="_8742" unicode="&#x22a3;" 
d="M1526 141h-74v623h-1014v72h1014v608h74v-1303z" />
    <glyph glyph-name="_8503" unicode="&#x22a4;" 
d="M920 1245h-584v121h1292v-121h-567v-1069h-141v1069z" />
    <glyph glyph-name="_149" unicode="&#x22a5;" 
d="M1145 369v1194h-324v-1194h-628v-281h1581v281h-629z" />
    <glyph glyph-name="_8751" unicode="&#x22bb;" 
d="M315 248h1334v-72h-1334v72zM1534 1434l-543 -1108l-551 1122l70 25l481 -979l473 968z" />
    <glyph glyph-name="_8752" unicode="&#x22bc;" 
d="M1651 1321h-1336v72h1336v-72zM983 1235l543 -1108l-70 -29l-473 969l-481 -979l-70 25z" />
    <glyph glyph-name="_8477" unicode="&#x22ce;" 
d="M983 1458q220 -744 610 -1225l-112 -57q-362 477 -498 950q-134 -474 -498 -950l-112 57q390 481 610 1225z" />
    <glyph glyph-name="_8478" unicode="&#x22cf;" 
d="M983 156q-219 742 -610 1224l112 58q364 -475 498 -951q137 475 498 951l112 -58q-391 -482 -610 -1224z" />
    <glyph glyph-name="_8492" unicode="&#x22da;" 
d="M1610 1487l-934 -240l934 -239l-33 -115l-1303 354l1303 355zM356 86l934 240l-934 239l33 115l1303 -354l-1303 -355zM1628 838v-105h-1292v105h1292z" />
    <glyph glyph-name="_8493" unicode="&#x22db;" 
d="M1290 1247l-934 240l33 115l1303 -355l-1303 -354l-33 115zM676 326l934 -240l-33 -115l-1303 355l1303 354l33 -115zM338 733v105h1292v-105h-1292z" />
    <glyph glyph-name="_8754" unicode="&#x2306;" 
d="M1649 1139h-1334v71h1334v-71zM991 1061l502 -903l-70 -29l-432 764l-440 -774l-70 24zM1649 1378h-1334v72h1334v-72z" />
    <glyph glyph-name="_150" unicode="&#x2312;" 
d="M37 1372l166 -211q333 336 780 336q445 0 784 -332l162 207q-177 189 -420.5 299.5t-525.5 110.5q-284 0 -529 -110.5t-417 -299.5z" />
    <glyph glyph-name="_8731" unicode="&#x2314;" 
d="M1614 1198l-631 -1120l-631 1120q145 86 309 139.5t322 53.5t322 -53.5t309 -139.5zM983 1325q-131 0 -278.5 -43.5t-255.5 -110.5l534 -956l535 956q-107 66 -255.5 110t-279.5 44z" />
    <glyph glyph-name="_733" unicode="&#x2460;" 
d="M45 805q0 -156 46.5 -300t132.5 -258t201 -199t258.5 -131t299.5 -46t299.5 46t258.5 131t201 199t132.5 258t46.5 300t-46.5 300t-132.5 258t-201 199t-258.5 131t-299.5 46t-299.5 -46t-258.5 -131t-201 -199t-132.5 -258t-46.5 -300zM250 805q0 158 55.5 297
t152 237.5t232.5 155.5t293 57t293 -57t232.5 -155.5t152 -237.5t55.5 -297t-55.5 -296.5t-152 -237.5t-232.5 -155.5t-293 -56.5t-293 56.5t-232.5 155.5t-152 237.5t-55.5 296.5zM1188 229v1166h-256l-289 -133v-267l231 103v-869h314z" />
    <glyph glyph-name="_734" unicode="&#x2461;" 
d="M45 805q0 -156 46.5 -300t132.5 -257.5t201 -198.5t258.5 -130.5t299.5 -45.5t299.5 45.5t258.5 130.5t201 198.5t132.5 257.5t46.5 300t-46.5 300t-132.5 258t-201 199t-258.5 131t-299.5 46t-299.5 -46t-258.5 -131t-201 -199t-132.5 -258t-46.5 -300zM250 805
q0 158 55.5 297t152 237.5t232.5 155.5t293 57q208 0 375.5 -97t261.5 -268t94 -382q0 -158 -55.5 -296.5t-151.5 -237t-232 -155.5t-292 -57q-157 0 -293 56.5t-232.5 155.5t-152 237.5t-55.5 296.5zM1382 1069q0 155 -104.5 258t-290.5 103q-185 0 -290 -103t-105 -258
v-70h313v72q0 111 82 111q35 0 58.5 -29.5t23.5 -81.5q0 -46 -15 -81t-50 -75l-396 -456v-215h791v248h-385l243 278q68 78 96.5 144.5t28.5 154.5z" />
    <glyph glyph-name="_735" unicode="&#x2462;" 
d="M45 805q0 -156 46.5 -300t132.5 -258t201 -199t258.5 -131t299.5 -46t299.5 46t258.5 131t201 199t132.5 258t46.5 300t-46.5 300t-132.5 258t-201 199t-258.5 131t-299.5 46t-299.5 -46t-258.5 -131t-201 -199t-132.5 -258t-46.5 -300zM250 805q0 158 55.5 297
t152 237.5t232.5 155.5t293 57t293 -57t232.5 -155.5t152 -237.5t55.5 -297t-55.5 -296.5t-152 -237.5t-232.5 -155.5t-293 -56.5t-293 56.5t-232.5 155.5t-152 237.5t-55.5 296.5zM995 465q-47 0 -73.5 32.5t-26.5 92.5v45h-315v-57q0 -163 113.5 -261t301.5 -98
q186 0 299 98t113 261q0 97 -42.5 169t-121.5 111q131 77 131 240q0 144 -102.5 234.5t-276.5 90.5q-178 0 -279.5 -91t-101.5 -242v-43h306v34q0 45 19.5 69t55.5 24q32 0 52 -24.5t20 -68.5q0 -108 -102 -108h-115v-244h115q66 0 96.5 -32.5t30.5 -106.5
q0 -60 -25.5 -92.5t-71.5 -32.5z" />
    <glyph glyph-name="_736" unicode="&#x2463;" 
d="M45 805q0 -156 46.5 -300t132.5 -258t201 -199t258.5 -131t299.5 -46t299.5 46t258.5 131t201 199t132.5 258t46.5 300t-46.5 300t-132.5 258t-201 199t-258.5 131t-299.5 46t-299.5 -46t-258.5 -131t-201 -199t-132.5 -258t-46.5 -300zM250 805q0 158 55.5 297
t152 237.5t232.5 155.5t293 57t293 -57t232.5 -155.5t152 -237.5t55.5 -297t-55.5 -296.5t-152 -237.5t-232.5 -155.5t-293 -56.5t-293 56.5t-232.5 155.5t-152 237.5t-55.5 296.5zM821 696l142 254v-254h-142zM1407 696h-139v709h-314l-432 -727v-229h441v-209h305v209h139
v247z" />
    <glyph glyph-name="_737" unicode="&#x2464;" 
d="M45 805q0 -156 46.5 -300t132.5 -258t201 -199t258.5 -131t299.5 -46t299.5 46t258.5 131t201 199t132.5 258t46.5 300t-46.5 300t-132.5 258t-201 199t-258.5 131t-299.5 46t-299.5 -46t-258.5 -131t-201 -199t-132.5 -258t-46.5 -300zM250 805q0 158 55.5 297
t152 237.5t232.5 155.5t293 57t293 -57t232.5 -155.5t152 -237.5t55.5 -297t-55.5 -296.5t-152 -237.5t-232.5 -155.5t-293 -56.5t-293 56.5t-232.5 155.5t-152 237.5t-55.5 296.5zM987 762q92 0 92 -156q0 -155 -92 -155q-79 0 -88 137h-315q9 -181 112.5 -282t290.5 -101
q194 0 300 104.5t106 288.5q0 197 -87.5 297t-238.5 100q-74 0 -129 -30l10 176h389v250h-682l-30 -691h288q28 62 74 62z" />
    <glyph glyph-name="_738" unicode="&#x2465;" 
d="M45 805q0 -156 46.5 -300t132.5 -257.5t201 -198.5t258.5 -130.5t299.5 -45.5t299.5 45.5t258.5 130.5t201 198.5t132.5 257.5t46.5 300t-46.5 300t-132.5 258t-201 199t-258.5 131t-299.5 46t-299.5 -46t-258.5 -131t-201 -199t-132.5 -258t-46.5 -300zM250 805
q0 158 55.5 297t152 237.5t232.5 155.5t293 57q208 0 375.5 -97t261.5 -268t94 -382q0 -158 -55.5 -296.5t-151.5 -237t-232 -155.5t-292 -57q-157 0 -293 56.5t-232.5 155.5t-152 237.5t-55.5 296.5zM1372 1071q-17 165 -117 255.5t-268 90.5q-224 0 -321 -155t-97 -494
q0 -272 97.5 -413.5t320.5 -141.5q185 0 295.5 108t110.5 291q0 182 -101 287t-254 105q-96 0 -155 -41q6 115 31 164t73 49q65 0 74 -105h311zM1077 612q0 -153 -94 -153q-47 0 -72.5 39t-25.5 114q0 154 98 154q94 0 94 -154z" />
    <glyph glyph-name="_739" unicode="&#x2466;" 
d="M45 805q0 -156 46.5 -300t132.5 -258t201 -199t258.5 -131t299.5 -46t299.5 46t258.5 131t201 199t132.5 258t46.5 300t-46.5 300t-132.5 258t-201 199t-258.5 131t-299.5 46t-299.5 -46t-258.5 -131t-201 -199t-132.5 -258t-46.5 -300zM250 805q0 158 55.5 297
t152 237.5t232.5 155.5t293 57t293 -57t232.5 -155.5t152 -237.5t55.5 -297t-55.5 -296.5t-152 -237.5t-232.5 -155.5t-293 -56.5t-293 56.5t-232.5 155.5t-152 237.5t-55.5 296.5zM600 1106h461l-352 -918h321l356 957v209h-786v-248z" />
    <glyph glyph-name="_740" unicode="&#x2467;" 
d="M45 805q0 -156 46.5 -300t132.5 -258t201 -199t258.5 -131t299.5 -46t299.5 46t258.5 131t201 199t132.5 258t46.5 300t-46.5 300t-132.5 258t-201 199t-258.5 131t-299.5 46t-299.5 -46t-258.5 -131t-201 -199t-132.5 -258t-46.5 -300zM250 805q0 158 55.5 297
t152 237.5t232.5 155.5t293 57t293 -57t232.5 -155.5t152 -237.5t55.5 -297t-55.5 -296.5t-152 -237.5t-232.5 -155.5t-293 -56.5t-293 56.5t-232.5 155.5t-152 237.5t-55.5 296.5zM987 1415q-182 0 -288.5 -89.5t-106.5 -235.5q0 -77 36.5 -141t98.5 -101
q-78 -42 -124 -113t-46 -166q0 -163 118 -260.5t312 -97.5t312 97.5t118 260.5q0 195 -168 279q60 38 96.5 102.5t36.5 139.5q0 146 -106.5 235.5t-288.5 89.5zM1075 1069q0 -47 -23.5 -73.5t-64.5 -26.5t-64.5 26.5t-23.5 73.5q0 46 23.5 72t64.5 26t64.5 -26t23.5 -72z
M1102 592q0 -64 -31 -98.5t-84 -34.5q-54 0 -84.5 34.5t-30.5 98.5q0 65 30 100t85 35q53 0 84 -35t31 -100z" />
    <glyph glyph-name="_741" unicode="&#x2468;" 
d="M45 805q0 -156 46.5 -300t132.5 -257.5t201 -198.5t258.5 -130.5t299.5 -45.5t299.5 45.5t258.5 130.5t201 198.5t132.5 257.5t46.5 300t-46.5 300t-132.5 258t-201 199t-258.5 131t-299.5 46t-299.5 -46t-258.5 -131t-201 -199t-132.5 -258t-46.5 -300zM250 805
q0 158 55.5 297t152 237.5t232.5 155.5t293 57q208 0 375.5 -97t261.5 -268t94 -382q0 -158 -55.5 -296.5t-151.5 -237t-232 -155.5t-292 -57q-157 0 -293 56.5t-232.5 155.5t-152 237.5t-55.5 296.5zM594 545q19 -167 119 -257.5t268 -90.5q223 0 320.5 154.5t97.5 494.5
q0 277 -99 416t-319 139q-185 0 -295.5 -108t-110.5 -292q0 -182 100 -286.5t253 -104.5q96 0 155 41q-6 -113 -30 -163t-72 -50q-65 0 -74 107h-313zM889 999q0 154 98 154q94 0 94 -154q0 -151 -94 -151q-47 0 -72.5 39t-25.5 112z" />
    <glyph glyph-name="_742" unicode="&#x2469;" 
d="M45 805q0 -156 46.5 -300t132.5 -258t201 -199t258.5 -131t299.5 -46t299.5 46t258.5 131t201 199t132.5 258t46.5 300t-46.5 300t-132.5 258t-201 199t-258.5 131t-299.5 46t-299.5 -46t-258.5 -131t-201 -199t-132.5 -258t-46.5 -300zM250 805q0 236 119 422v-254
l178 96v-813h272v1102h-223l-223 -125q97 150 256 234.5t354 84.5q157 0 293 -57t232.5 -155.5t152 -237.5t55.5 -297t-55.5 -296.5t-152 -237.5t-232.5 -155.5t-293 -56.5t-293 56.5t-232.5 155.5t-152 237.5t-55.5 296.5zM1593 813q0 346 -118 473q-85 94 -236 94
q-153 0 -238 -94q-118 -126 -118 -473q0 -178 28 -293.5t90 -181.5q85 -94 238 -94q148 0 236 94q118 127 118 475zM1321 813q0 -251 -37 -307q-18 -27 -45 -27q-29 0 -47 27q-37 56 -37 307q0 250 37 303q18 27 47 27t45 -27q37 -53 37 -303z" />
    <glyph glyph-name="_743" unicode="&#x246a;" 
d="M45 805q0 -156 46.5 -300t132.5 -258t201 -199t258.5 -131t299.5 -46t299.5 46t258.5 131t201 199t132.5 258t46.5 300t-46.5 300t-132.5 258t-201 199t-258.5 131t-299.5 46t-299.5 -46t-258.5 -131t-201 -199t-132.5 -258t-46.5 -300zM250 805q0 158 55.5 297
t152 237.5t232.5 155.5t293 57t293 -57t232.5 -155.5t152 -237.5t55.5 -297t-55.5 -296.5t-152 -237.5t-232.5 -155.5t-293 -56.5t-293 56.5t-232.5 155.5t-152 237.5t-55.5 296.5zM872 256v1102h-221l-227 -127v-258l178 96v-813h270zM1450 256v1102h-223l-226 -127v-258
l177 96v-813h272z" />
    <glyph glyph-name="_744" unicode="&#x246b;" 
d="M45 805q0 -156 46.5 -300t132.5 -258t201 -199t258.5 -131t299.5 -46t299.5 46t258.5 131t201 199t132.5 258t46.5 300t-46.5 300t-132.5 258t-201 199t-258.5 131t-299.5 46t-299.5 -46t-258.5 -131t-201 -199t-132.5 -258t-46.5 -300zM250 805q0 236 119 422v-254
l178 96v-813h272v1102h-223l-223 -125q97 150 256 234.5t354 84.5q157 0 293 -57t232.5 -155.5t152 -237.5t55.5 -297q0 -264 -145 -461v154h-316l201 262q56 74 78 134t22 144q0 148 -87 245t-244 97q-156 0 -244 -97.5t-88 -244.5v-65h272v69q0 103 60 103q61 0 61 -103
q0 -77 -53 -147l-326 -430v-203h592q-98 -97 -230.5 -150t-285.5 -53q-157 0 -293 56.5t-232.5 155.5t-152 237.5t-55.5 296.5z" />
    <glyph glyph-name="_745" unicode="&#x246c;" 
d="M45 805q0 -156 46.5 -300t132.5 -258t201 -199t258.5 -131t299.5 -46t299.5 46t258.5 131t201 199t132.5 258t46.5 300t-46.5 300t-132.5 258t-201 199t-258.5 131t-299.5 46t-299.5 -46t-258.5 -131t-201 -199t-132.5 -258t-46.5 -300zM250 805q0 236 119 422v-254
l178 96v-813h272v1102h-223l-223 -125q97 150 256 234.5t354 84.5q157 0 293 -57t232.5 -155.5t152 -237.5t55.5 -297t-55.5 -296.5t-152 -237.5t-232.5 -155.5t-293 -56.5t-293 56.5t-232.5 155.5t-152 237.5t-55.5 296.5zM1225 475q-36 0 -56 30t-20 85v43h-272v-53
q0 -154 95 -248t253 -94q155 0 249.5 94t94.5 248q0 192 -137 264q110 66 110 223q0 138 -85 223.5t-232 85.5q-149 0 -234.5 -86t-85.5 -229v-41h264v33q0 86 56 86q51 0 51 -86q0 -99 -76 -99h-102v-235h102q51 0 74.5 -30t23.5 -99q0 -55 -19.5 -85t-53.5 -30z" />
    <glyph glyph-name="_746" unicode="&#x246d;" 
d="M45 805q0 -156 46.5 -300t132.5 -258t201 -199t258.5 -131t299.5 -46t299.5 46t258.5 131t201 199t132.5 258t46.5 300t-46.5 300t-132.5 258t-201 199t-258.5 131t-299.5 46t-299.5 -46t-258.5 -131t-201 -199t-132.5 -258t-46.5 -300zM250 805q0 236 119 422v-254
l178 96v-813h272v1102h-223l-223 -125q97 150 256 234.5t354 84.5q150 0 281 -51.5t229 -146.5h-281l-346 -688v-213h363v-199h262q-205 -195 -508 -195q-157 0 -293 56.5t-232.5 155.5t-152 237.5t-55.5 296.5zM1495 258v195h94v235h-94v664q105 -101 163 -242t58 -305
t-58 -305t-163 -242zM1120 688l109 227v-227h-109z" />
    <glyph glyph-name="_747" unicode="&#x246e;" 
d="M45 805q0 -156 46.5 -300t132.5 -258t201 -199t258.5 -131t299.5 -46t299.5 46t258.5 131t201 199t132.5 258t46.5 300t-46.5 300t-132.5 258t-201 199t-258.5 131t-299.5 46t-299.5 -46t-258.5 -131t-201 -199t-132.5 -258t-46.5 -300zM250 805q0 236 119 422v-254
l178 96v-813h272v1102h-223l-223 -125q97 150 256 234.5t354 84.5q151 0 282 -52.5t230 -147.5h-557l-25 -654h252q21 60 56 60q67 0 67 -146q0 -145 -67 -145q-59 0 -68 129h-272q9 -171 96 -268t244 -97q162 0 251 100t89 273q0 189 -73.5 283t-201.5 94q-58 0 -100 -25
l10 158h311v225q100 -101 154.5 -238t54.5 -296q0 -158 -55.5 -296.5t-152 -237.5t-232.5 -155.5t-293 -56.5t-293 56.5t-232.5 155.5t-152 237.5t-55.5 296.5z" />
    <glyph glyph-name="_8791" unicode="&#x246f;" 
d="M45 805q0 156 46.5 300t132.5 258t201 199t258.5 131t299.5 46t299.5 -46t258.5 -131t201 -199t132.5 -258t46.5 -300t-46.5 -300t-132.5 -257.5t-201 -198.5t-258.5 -130.5t-299.5 -45.5t-299.5 45.5t-258.5 130.5t-201 198.5t-132.5 257.5t-46.5 300zM250 805
q0 -158 55.5 -296.5t152 -237.5t232.5 -155.5t293 -56.5q156 0 292 57t232 155.5t151.5 237t55.5 296.5q0 211 -94 382t-261.5 268t-375.5 97q-157 0 -293 -57t-232.5 -155.5t-152 -237.5t-55.5 -297zM817 256h-272v813l-176 -96v258l227 125h221v-1100zM1554 1051h-272
q-9 98 -51 98q-36 0 -55 -44t-23 -144q46 28 119 28q129 0 214 -98t85 -270q0 -173 -93 -276t-247 -103q-186 0 -268 133t-82 391q0 320 81 466t269 146q141 0 225.5 -85t97.5 -242zM1298 621q0 143 -71 143q-74 0 -74 -143q0 -144 74 -144q71 0 71 144z" />
    <glyph glyph-name="_8792" unicode="&#x2470;" 
d="M45 805q0 156 46.5 300t132.5 258t201 199t258.5 131t299.5 46t299.5 -46t258.5 -131t201 -199t132.5 -258t46.5 -300t-46.5 -300t-132.5 -258t-201 -199t-258.5 -131t-299.5 -46t-299.5 46t-258.5 131t-201 199t-132.5 258t-46.5 300zM250 805q0 -158 55.5 -296.5
t152 -237.5t232.5 -155.5t293 -56.5t293 56.5t232.5 155.5t152 237.5t55.5 296.5t-55.5 297t-152 237.5t-232.5 155.5t-293 57t-293 -57t-232.5 -155.5t-152 -237.5t-55.5 -297zM819 256h-272v813l-178 -96v258l227 127h223v-1102zM901 1106v237h655v-198l-294 -903h-277
l291 864h-375z" />
    <glyph glyph-name="_8793" unicode="&#x2471;" 
d="M45 805q0 156 46.5 300t132.5 258t201 199t258.5 131t299.5 46t299.5 -46t258.5 -131t201 -199t132.5 -258t46.5 -300t-46.5 -300t-132.5 -258t-201 -199t-258.5 -131t-299.5 -46t-299.5 46t-258.5 131t-201 199t-132.5 258t-46.5 300zM250 805q0 -158 55.5 -296.5
t152 -237.5t232.5 -155.5t293 -56.5t293 56.5t232.5 155.5t152 237.5t55.5 296.5t-55.5 297t-152 237.5t-232.5 155.5t-293 57t-293 -57t-232.5 -155.5t-152 -237.5t-55.5 -297zM819 256h-272v813l-178 -96v258l227 127h223v-1102zM1221 1380q152 0 242.5 -84.5t90.5 -222.5
q0 -72 -30 -131.5t-82 -95.5q139 -81 139 -262q0 -156 -98 -248t-262 -92t-262.5 92t-98.5 248q0 176 141 262q-52 36 -82 95.5t-30 131.5q0 138 90 222.5t242 84.5zM1286 1053q0 43 -17 67.5t-48 24.5q-29 0 -46.5 -24.5t-17.5 -67.5q0 -44 17 -68t47 -24q31 0 48 24t17 68
zM1309 604q0 61 -23 93t-65 32q-41 0 -64.5 -32.5t-23.5 -92.5q0 -59 24 -92t64 -33q41 0 64.5 32.5t23.5 92.5z" />
    <glyph glyph-name="_8794" unicode="&#x2472;" 
d="M45 805q0 156 46.5 300t132.5 258t201 199t258.5 131t299.5 46t299.5 -46t258.5 -131t201 -199t132.5 -258t46.5 -300t-46.5 -300t-132.5 -257.5t-201 -198.5t-258.5 -130.5t-299.5 -45.5t-299.5 45.5t-258.5 130.5t-201 198.5t-132.5 257.5t-46.5 300zM250 805
q0 -158 55.5 -296.5t152 -237.5t232.5 -155.5t293 -56.5q156 0 292 57t232 155.5t151.5 237t55.5 296.5q0 211 -94 382t-261.5 268t-375.5 97q-157 0 -293 -57t-232.5 -155.5t-152 -237.5t-55.5 -297zM817 256h-272v813l-176 -96v258l227 125h221v-1100zM895 571h270
q10 -100 54 -100q35 0 52.5 44.5t22.5 143.5q-46 -28 -118 -28q-129 0 -213 98t-84 270q0 174 92 276.5t248 102.5q186 0 268 -134t82 -390q0 -321 -81 -466.5t-269 -145.5q-142 0 -226 86t-98 243zM1149 999q0 -141 74 -141q71 0 71 141q0 144 -71 144q-74 0 -74 -144z" />
    <glyph glyph-name="_8795" unicode="&#x2473;" 
d="M45 805q0 156 46.5 300t132.5 258t201 199t258.5 131t299.5 46t299.5 -46t258.5 -131t201 -199t132.5 -258t46.5 -300t-46.5 -300t-132.5 -258t-201 -199t-258.5 -131t-299.5 -46t-299.5 46t-258.5 131t-201 199t-132.5 258t-46.5 300zM250 805q0 -158 55.5 -296.5
t152 -237.5t232.5 -155.5t293 -56.5t293 56.5t232.5 155.5t152 237.5t55.5 296.5t-55.5 297t-152 237.5t-232.5 155.5t-293 57t-293 -57t-232.5 -155.5t-152 -237.5t-55.5 -297zM1366 813q0 257 -29 309q-10 23 -32 23q-23 0 -35 -23q-29 -52 -29 -309t29 -309
q12 -23 35 -23q21 0 32 23q29 54 29 309zM958 1044q0 -77 -21.5 -141t-68.5 -137l-170 -264h271v-236h-582v201l279 432q45 68 45 148q0 102 -45 102t-45 -102v-70h-248v67q0 145 78.5 242.5t214.5 97.5q137 0 214.5 -97t77.5 -243zM1614 813q0 -182 -25.5 -299.5
t-85.5 -181.5q-73 -86 -198 -86q-132 0 -203 86q-109 120 -109 481q0 183 25.5 300t83.5 181q71 86 203 86q125 0 198 -86q60 -63 85.5 -180t25.5 -301z" />
    <glyph glyph-name="_827" unicode="&#x2474;" 
d="M1188 229v1166h-256l-289 -133v-267l231 103v-869h314zM66 795q0 -241 71.5 -467.5t206.5 -417.5h193q-120 191 -184 424t-64 461q0 229 63.5 462t184.5 426h-193q-136 -193 -207 -419.5t-71 -468.5zM1901 795q0 242 -71.5 468.5t-207.5 419.5h-192
q120 -192 183.5 -428.5t63.5 -466.5q0 -228 -63 -457.5t-184 -420.5h192q136 191 207.5 417.5t71.5 467.5z" />
    <glyph glyph-name="_828" unicode="&#x2475;" 
d="M1382 1069q0 155 -104.5 258t-290.5 103q-185 0 -290 -103t-105 -258v-70h313v72q0 111 82 111q35 0 58.5 -29.5t23.5 -81.5q0 -46 -15 -81t-50 -75l-396 -456v-215h791v248h-385l243 278q68 78 96.5 144.5t28.5 154.5zM63 795q0 -241 72 -467t207 -416h195
q-121 189 -184.5 421t-63.5 462q0 229 63.5 461.5t184.5 424.5h-195q-136 -193 -207.5 -419.5t-71.5 -466.5zM1901 795q0 240 -71.5 466.5t-207.5 419.5h-195q121 -191 184.5 -427t63.5 -466q0 -229 -63 -458t-185 -418h195q135 190 207 416t72 467z" />
    <glyph glyph-name="_829" unicode="&#x2476;" 
d="M995 465q-47 0 -73.5 32.5t-26.5 92.5v45h-315v-57q0 -163 113.5 -261t301.5 -98q186 0 299 98t113 261q0 97 -42.5 169t-121.5 111q131 77 131 240q0 144 -102.5 234.5t-276.5 90.5q-178 0 -279.5 -91t-101.5 -242v-43h306v34q0 45 19.5 69t55.5 24q32 0 52 -24.5
t20 -68.5q0 -108 -102 -108h-115v-244h115q66 0 96.5 -32.5t30.5 -106.5q0 -60 -25.5 -92.5t-71.5 -32.5zM66 795q0 -241 71.5 -467.5t206.5 -417.5h193q-120 191 -184 424t-64 461q0 229 63.5 462t184.5 426h-193q-136 -193 -207 -419.5t-71 -468.5zM1901 795
q0 242 -71.5 468.5t-207.5 419.5h-192q120 -192 183.5 -428.5t63.5 -466.5q0 -228 -63 -457.5t-184 -420.5h192q136 191 207.5 417.5t71.5 467.5z" />
    <glyph glyph-name="_830" unicode="&#x2477;" 
d="M821 696l142 254v-254h-142zM1407 696h-139v709h-314l-432 -727v-229h441v-209h305v209h139v247zM66 795q0 -241 71.5 -467.5t206.5 -417.5h193q-120 191 -184 424t-64 461q0 229 63.5 462t184.5 426h-193q-136 -193 -207 -419.5t-71 -468.5zM1901 795q0 242 -71.5 468.5
t-207.5 419.5h-192q120 -192 183.5 -428.5t63.5 -466.5q0 -228 -63 -457.5t-184 -420.5h192q136 191 207.5 417.5t71.5 467.5z" />
    <glyph glyph-name="_831" unicode="&#x2478;" 
d="M987 762q92 0 92 -156q0 -155 -92 -155q-79 0 -88 137h-315q9 -181 112.5 -282t290.5 -101q194 0 300 104.5t106 288.5q0 197 -87.5 297t-238.5 100q-74 0 -129 -30l10 176h389v250h-682l-30 -691h288q28 62 74 62zM66 795q0 -241 71.5 -467.5t206.5 -417.5h193
q-120 191 -184 424t-64 461q0 229 63.5 462t184.5 426h-193q-136 -193 -207 -419.5t-71 -468.5zM1901 795q0 242 -71.5 468.5t-207.5 419.5h-192q120 -192 183.5 -428.5t63.5 -466.5q0 -228 -63 -457.5t-184 -420.5h192q136 191 207.5 417.5t71.5 467.5z" />
    <glyph glyph-name="_832" unicode="&#x2479;" 
d="M1372 1071q-17 165 -117 255.5t-268 90.5q-224 0 -321 -155t-97 -494q0 -272 97.5 -413.5t320.5 -141.5q185 0 295.5 108t110.5 291q0 182 -101 287t-254 105q-96 0 -155 -41q6 115 31 164t73 49q65 0 74 -105h311zM1077 612q0 -153 -94 -153q-47 0 -72.5 39t-25.5 114
q0 154 98 154q94 0 94 -154zM63 795q0 -241 72 -467t207 -416h195q-121 189 -184.5 421t-63.5 462q0 229 63.5 461.5t184.5 424.5h-195q-136 -193 -207.5 -419.5t-71.5 -466.5zM1901 795q0 240 -71.5 466.5t-207.5 419.5h-195q121 -191 184.5 -427t63.5 -466
q0 -229 -63 -458t-185 -418h195q135 190 207 416t72 467z" />
    <glyph glyph-name="_833" unicode="&#x247a;" 
d="M600 1106h461l-352 -918h321l356 957v209h-786v-248zM66 795q0 -241 71.5 -467.5t206.5 -417.5h193q-120 191 -184 424t-64 461q0 229 63.5 462t184.5 426h-193q-136 -193 -207 -419.5t-71 -468.5zM1901 795q0 242 -71.5 468.5t-207.5 419.5h-192q120 -192 183.5 -428.5
t63.5 -466.5q0 -228 -63 -457.5t-184 -420.5h192q136 191 207.5 417.5t71.5 467.5z" />
    <glyph glyph-name="_834" unicode="&#x247b;" 
d="M987 1415q-182 0 -288.5 -89.5t-106.5 -235.5q0 -77 36.5 -141t98.5 -101q-78 -42 -124 -113t-46 -166q0 -163 118 -260.5t312 -97.5t312 97.5t118 260.5q0 195 -168 279q60 38 96.5 102.5t36.5 139.5q0 146 -106.5 235.5t-288.5 89.5zM1075 1069q0 -47 -23.5 -73.5
t-64.5 -26.5t-64.5 26.5t-23.5 73.5q0 46 23.5 72t64.5 26t64.5 -26t23.5 -72zM1102 592q0 -64 -31 -98.5t-84 -34.5q-54 0 -84.5 34.5t-30.5 98.5q0 65 30 100t85 35q53 0 84 -35t31 -100zM66 795q0 -241 71.5 -467.5t206.5 -417.5h193q-120 191 -184 424t-64 461
q0 229 63.5 462t184.5 426h-193q-136 -193 -207 -419.5t-71 -468.5zM1901 795q0 242 -71.5 468.5t-207.5 419.5h-192q120 -192 183.5 -428.5t63.5 -466.5q0 -228 -63 -457.5t-184 -420.5h192q136 191 207.5 417.5t71.5 467.5z" />
    <glyph glyph-name="_835" unicode="&#x247c;" 
d="M594 545q19 -167 119 -257.5t268 -90.5q223 0 320.5 154.5t97.5 494.5q0 277 -99 416t-319 139q-185 0 -295.5 -108t-110.5 -292q0 -182 100 -286.5t253 -104.5q96 0 155 41q-6 -113 -30 -163t-72 -50q-65 0 -74 107h-313zM889 999q0 154 98 154q94 0 94 -154
q0 -151 -94 -151q-47 0 -72.5 39t-25.5 112zM63 795q0 -241 72 -467t207 -416h195q-121 189 -184.5 421t-63.5 462q0 229 63.5 461.5t184.5 424.5h-195q-136 -193 -207.5 -419.5t-71.5 -466.5zM1901 795q0 240 -71.5 466.5t-207.5 419.5h-195q121 -191 184.5 -427t63.5 -466
q0 -229 -63 -458t-185 -418h195q135 190 207 416t72 467z" />
    <glyph glyph-name="_836" unicode="&#x247d;" 
d="M1593 813q0 346 -118 473q-85 94 -236 94q-153 0 -238 -94q-118 -126 -118 -473q0 -178 28 -293.5t90 -181.5q85 -94 238 -94q148 0 236 94q118 127 118 475zM1321 813q0 -251 -37 -307q-18 -27 -45 -27q-29 0 -47 27q-37 56 -37 307q0 250 37 303q18 27 47 27t45 -27
q37 -53 37 -303zM819 256v1102h-223l-227 -127v-258l178 96v-813h272zM66 795q0 -241 71.5 -467.5t206.5 -417.5h193q-120 191 -184 424t-64 461q0 229 63.5 462t184.5 426h-193q-136 -193 -207 -419.5t-71 -468.5zM1901 795q0 242 -71.5 468.5t-207.5 419.5h-192
q120 -192 183.5 -428.5t63.5 -466.5q0 -228 -63 -457.5t-184 -420.5h192q136 191 207.5 417.5t71.5 467.5z" />
    <glyph glyph-name="_837" unicode="&#x247e;" 
d="M872 256v1102h-221l-227 -127v-258l178 96v-813h270zM1450 256v1102h-223l-226 -127v-258l177 96v-813h272zM66 795q0 -241 71.5 -467.5t206.5 -417.5h193q-120 191 -184 424t-64 461q0 229 63.5 462t184.5 426h-193q-136 -193 -207 -419.5t-71 -468.5zM1901 795
q0 242 -71.5 468.5t-207.5 419.5h-192q120 -192 183.5 -428.5t63.5 -466.5q0 -228 -63 -457.5t-184 -420.5h192q136 191 207.5 417.5t71.5 467.5z" />
    <glyph glyph-name="_838" unicode="&#x247f;" 
d="M819 256v1102h-223l-227 -127v-258l178 96v-813h272zM1556 1038q0 148 -87 245t-244 97q-156 0 -244 -97.5t-88 -244.5v-65h272v69q0 103 60 103q61 0 61 -103q0 -77 -53 -147l-326 -430v-203h664v236h-316l201 262q56 74 78 134t22 144zM66 795q0 -241 71.5 -467.5
t206.5 -417.5h193q-120 191 -184 424t-64 461q0 229 63.5 462t184.5 426h-193q-136 -193 -207 -419.5t-71 -468.5zM1901 795q0 242 -71.5 468.5t-207.5 419.5h-192q120 -192 183.5 -428.5t63.5 -466.5q0 -228 -63 -457.5t-184 -420.5h192q136 191 207.5 417.5t71.5 467.5z
" />
    <glyph glyph-name="_839" unicode="&#x2480;" 
d="M819 256v1102h-223l-227 -127v-258l178 96v-813h272zM1225 475q-36 0 -56 30t-20 85v43h-272v-53q0 -154 95 -248t253 -94q155 0 249.5 94t94.5 248q0 192 -137 264q110 66 110 223q0 138 -85 223.5t-232 85.5q-149 0 -234.5 -86t-85.5 -229v-41h264v33q0 86 56 86
q51 0 51 -86q0 -99 -76 -99h-102v-235h102q51 0 74.5 -30t23.5 -99q0 -55 -19.5 -85t-53.5 -30zM66 795q0 -241 71.5 -467.5t206.5 -417.5h193q-120 191 -184 424t-64 461q0 229 63.5 462t184.5 426h-193q-136 -193 -207 -419.5t-71 -468.5zM1901 795q0 242 -71.5 468.5
t-207.5 419.5h-192q120 -192 183.5 -428.5t63.5 -466.5q0 -228 -63 -457.5t-184 -420.5h192q136 191 207.5 417.5t71.5 467.5z" />
    <glyph glyph-name="_840" unicode="&#x2481;" 
d="M819 256v1102h-223l-227 -127v-258l178 96v-813h272zM1120 688l109 227v-227h-109zM1589 688h-94v666h-283l-346 -688v-213h363v-199h266v199h94v235zM66 795q0 -241 71.5 -467.5t206.5 -417.5h193q-120 191 -184 424t-64 461q0 229 63.5 462t184.5 426h-193
q-136 -193 -207 -419.5t-71 -468.5zM1901 795q0 242 -71.5 468.5t-207.5 419.5h-192q120 -192 183.5 -428.5t63.5 -466.5q0 -228 -63 -457.5t-184 -420.5h192q136 191 207.5 417.5t71.5 467.5z" />
    <glyph glyph-name="_841" unicode="&#x2482;" 
d="M819 256v1102h-223l-227 -127v-258l178 96v-813h272zM1221 758q67 0 67 -146q0 -145 -67 -145q-59 0 -68 129h-272q9 -171 96 -268t244 -97q162 0 251 100t89 273q0 189 -73.5 283t-201.5 94q-58 0 -100 -25l10 158h311v238h-569l-25 -654h252q21 60 56 60zM66 795
q0 -241 71.5 -467.5t206.5 -417.5h193q-120 191 -184 424t-64 461q0 229 63.5 462t184.5 426h-193q-136 -193 -207 -419.5t-71 -468.5zM1901 795q0 242 -71.5 468.5t-207.5 419.5h-192q120 -192 183.5 -428.5t63.5 -466.5q0 -228 -63 -457.5t-184 -420.5h192
q136 191 207.5 417.5t71.5 467.5z" />
    <glyph glyph-name="_9042" unicode="&#x2483;" 
d="M817 256h-272v813l-176 -96v258l227 125h221v-1100zM1554 1051h-272q-9 98 -51 98q-36 0 -55 -44t-23 -144q46 28 119 28q129 0 214 -98t85 -270q0 -173 -93 -276t-247 -103q-186 0 -268 133t-82 391q0 320 81 466t269 146q141 0 225.5 -85t97.5 -242zM1298 621
q0 143 -71 143q-74 0 -74 -143q0 -144 74 -144q71 0 71 144zM63 795q0 240 71.5 466.5t207.5 419.5h195q-121 -192 -184.5 -424.5t-63.5 -461.5q0 -230 63.5 -462t184.5 -421h-195q-135 190 -207 416t-72 467zM1901 795q0 -241 -72 -467t-207 -416h-195q122 189 185 418
t63 458q0 230 -63.5 466t-184.5 427h195q136 -193 207.5 -419.5t71.5 -466.5z" />
    <glyph glyph-name="_9043" unicode="&#x2484;" 
d="M819 256h-272v813l-178 -96v258l227 127h223v-1102zM901 1106v237h655v-198l-294 -903h-277l291 864h-375zM66 795q0 242 71 468.5t207 419.5h193q-121 -193 -184.5 -426t-63.5 -462q0 -228 64 -461t184 -424h-193q-135 191 -206.5 417.5t-71.5 467.5zM1901 795
q0 -241 -71.5 -467.5t-207.5 -417.5h-192q121 191 184 420.5t63 457.5q0 230 -63.5 466.5t-183.5 428.5h192q136 -193 207.5 -419.5t71.5 -468.5z" />
    <glyph glyph-name="_9044" unicode="&#x2485;" 
d="M819 256h-272v813l-178 -96v258l227 127h223v-1102zM1221 1380q152 0 242.5 -84.5t90.5 -222.5q0 -72 -30 -131.5t-82 -95.5q139 -81 139 -262q0 -156 -98 -248t-262 -92t-262.5 92t-98.5 248q0 176 141 262q-52 36 -82 95.5t-30 131.5q0 138 90 222.5t242 84.5z
M1286 1053q0 43 -17 67.5t-48 24.5q-29 0 -46.5 -24.5t-17.5 -67.5q0 -44 17 -68t47 -24q31 0 48 24t17 68zM1309 604q0 61 -23 93t-65 32q-41 0 -64.5 -32.5t-23.5 -92.5q0 -59 24 -92t64 -33q41 0 64.5 32.5t23.5 92.5zM66 795q0 242 71 468.5t207 419.5h193
q-121 -193 -184.5 -426t-63.5 -462q0 -228 64 -461t184 -424h-193q-135 191 -206.5 417.5t-71.5 467.5zM1901 795q0 -241 -71.5 -467.5t-207.5 -417.5h-192q121 191 184 420.5t63 457.5q0 230 -63.5 466.5t-183.5 428.5h192q136 -193 207.5 -419.5t71.5 -468.5z" />
    <glyph glyph-name="_9045" unicode="&#x2486;" 
d="M817 256h-272v813l-176 -96v258l227 125h221v-1100zM895 571h270q10 -100 54 -100q35 0 52.5 44.5t22.5 143.5q-46 -28 -118 -28q-129 0 -213 98t-84 270q0 174 92 276.5t248 102.5q186 0 268 -134t82 -390q0 -321 -81 -466.5t-269 -145.5q-142 0 -226 86t-98 243z
M1149 999q0 -141 74 -141q71 0 71 141q0 144 -71 144q-74 0 -74 -144zM63 795q0 240 71.5 466.5t207.5 419.5h195q-121 -192 -184.5 -424.5t-63.5 -461.5q0 -230 63.5 -462t184.5 -421h-195q-135 190 -207 416t-72 467zM1901 795q0 -241 -72 -467t-207 -416h-195
q122 189 185 418t63 458q0 230 -63.5 466t-184.5 427h195q136 -193 207.5 -419.5t71.5 -466.5z" />
    <glyph glyph-name="_9046" unicode="&#x2487;" 
d="M1366 813q0 257 -29 309q-10 23 -32 23q-23 0 -35 -23q-29 -52 -29 -309t29 -309q12 -23 35 -23q21 0 32 23q29 54 29 309zM958 1044q0 -77 -21.5 -141t-68.5 -137l-170 -264h271v-236h-582v201l279 432q45 73 45 148q0 102 -45 102t-45 -102v-70h-248v67
q0 145 78.5 242.5t214.5 97.5q137 0 214.5 -97t77.5 -243zM1614 813q0 -182 -25.5 -299.5t-85.5 -181.5q-73 -86 -198 -86q-132 0 -203 86q-109 120 -109 481q0 183 25.5 300t83.5 181q71 86 203 86q125 0 198 -86q60 -63 85.5 -180t25.5 -301zM66 795q0 242 71 468.5
t207 419.5h193q-121 -193 -184.5 -426t-63.5 -462q0 -228 64 -461t184 -424h-193q-135 191 -206.5 417.5t-71.5 467.5zM1901 795q0 -241 -71.5 -467.5t-207.5 -417.5h-192q121 191 184 420.5t63 457.5q0 230 -63.5 466.5t-183.5 428.5h192q136 -193 207.5 -419.5
t71.5 -468.5z" />
    <glyph glyph-name="_801" unicode="&#x249c;" 
d="M1075 379h318q-35 69 -35 145v410q0 143 -98.5 229t-282.5 86q-181 0 -278.5 -82t-102.5 -221h309q6 72 72 72q72 0 72 -80v-76q-68 53 -183 53q-139 0 -221 -74t-82 -202q0 -131 82 -205t221 -74q126 0 193 64q11 -37 16 -45zM961 571q-91 0 -91 68q0 32 23.5 50
t67.5 18q43 0 65.5 -18t22.5 -50q0 -68 -88 -68zM63 795q0 -241 72 -467t207 -416h195q-121 189 -184.5 421t-63.5 462q0 229 63.5 461.5t184.5 424.5h-195q-136 -193 -207.5 -419.5t-71.5 -466.5zM1901 795q0 240 -71.5 466.5t-207.5 419.5h-195q121 -191 184.5 -427
t63.5 -466q0 -229 -63 -458t-185 -418h195q135 190 207 416t72 467z" />
    <glyph glyph-name="_802" unicode="&#x249d;" 
d="M942 311q76 -69 188 -69q156 0 242 112.5t86 331.5t-86 331.5t-242 112.5q-111 0 -188 -67v369h-307v-1170h307v49zM942 686q0 113 24 162t78 49q56 0 80.5 -48.5t24.5 -162.5q0 -116 -24.5 -163.5t-80.5 -47.5q-55 0 -78.5 48.5t-23.5 162.5zM66 795q0 -241 71.5 -467.5
t206.5 -417.5h193q-120 191 -184 424t-64 461q0 229 63.5 462t184.5 426h-193q-136 -193 -207 -419.5t-71 -468.5zM1901 795q0 242 -71.5 468.5t-207.5 419.5h-192q120 -192 183.5 -428.5t63.5 -466.5q0 -228 -63 -457.5t-184 -420.5h192q136 191 207.5 417.5t71.5 467.5z
" />
    <glyph glyph-name="_803" unicode="&#x249e;" 
d="M573 803q0 -212 104.5 -328.5t307.5 -116.5q180 0 286 94t115 265h-303q-12 -121 -98 -121q-56 0 -80 47.5t-24 159.5q0 108 24 157.5t80 49.5q85 0 98 -119h303q-9 168 -115.5 262t-285.5 94q-203 0 -307.5 -116t-104.5 -328zM66 795q0 -241 71.5 -467.5t206.5 -417.5
h193q-120 191 -184 424t-64 461q0 229 63.5 462t184.5 426h-193q-136 -193 -207 -419.5t-71 -468.5zM1901 795q0 242 -71.5 468.5t-207.5 419.5h-192q120 -192 183.5 -428.5t63.5 -466.5q0 -228 -63 -457.5t-184 -420.5h192q136 191 207.5 417.5t71.5 467.5z" />
    <glyph glyph-name="_804" unicode="&#x249f;" 
d="M1030 270h309v1170h-309v-369q-68 68 -188 68q-157 0 -242.5 -113t-85.5 -332t85.5 -331.5t242.5 -112.5q119 0 188 69v-49zM1030 694q0 -115 -23 -163t-79 -48q-58 0 -81.5 48t-23.5 163t23.5 163t81.5 48q54 0 78 -48t24 -163zM66 795q0 -241 71.5 -467.5t206.5 -417.5
h193q-120 191 -184 424t-64 461q0 229 63.5 462t184.5 426h-193q-136 -193 -207 -419.5t-71 -468.5zM1901 795q0 242 -71.5 468.5t-207.5 419.5h-192q120 -192 183.5 -428.5t63.5 -466.5q0 -228 -63 -457.5t-184 -420.5h192q136 191 207.5 417.5t71.5 467.5z" />
    <glyph glyph-name="_805" unicode="&#x24a0;" 
d="M1384 719q7 34 7 86q0 211 -104 327.5t-306 116.5q-205 0 -308.5 -116t-103.5 -328q0 -213 104 -329t308 -116q163 0 266.5 80t130.5 236h-307q-6 -43 -29.5 -67.5t-60.5 -24.5q-98 0 -104 135h507zM981 1026q44 0 69.5 -30t30.5 -85h-202q9 115 102 115zM63 795
q0 -241 72 -467t207 -416h195q-121 189 -184.5 421t-63.5 462q0 229 63.5 461.5t184.5 424.5h-195q-136 -193 -207.5 -419.5t-71.5 -466.5zM1901 795q0 240 -71.5 466.5t-207.5 419.5h-195q121 -191 184.5 -427t63.5 -466q0 -229 -63 -458t-185 -418h195q135 190 207 416
t72 467z" />
    <glyph glyph-name="_806" unicode="&#x24a1;" 
d="M1280 1157v221q-68 15 -174 15q-176 0 -253 -65.5t-77 -211.5v-61h-119v-238h119v-604h305v604h199v238h-199v41q0 33 16 47t54 14h129zM66 795q0 -241 71.5 -467.5t206.5 -417.5h193q-120 191 -184 424t-64 461q0 229 63.5 462t184.5 426h-193q-136 -193 -207 -419.5
t-71 -468.5zM1901 795q0 242 -71.5 468.5t-207.5 419.5h-192q120 -192 183.5 -428.5t63.5 -466.5q0 -228 -63 -457.5t-184 -420.5h192q136 191 207.5 417.5t71.5 467.5z" />
    <glyph glyph-name="_807" unicode="&#x24a2;" 
d="M1067 961q0 -115 -24 -163t-80 -48q-57 0 -81 48t-24 163q0 114 24 161t81 47q56 0 80 -47.5t24 -160.5zM1374 1384h-307v-49q-73 70 -188 70q-158 0 -244 -113t-86 -331t86.5 -331.5t243.5 -113.5q120 0 188 68v-84q0 -113 -84 -113q-73 0 -82 88h-313
q19 -148 118.5 -229.5t274.5 -81.5q195 0 294 96.5t99 257.5v866zM66 795q0 -241 71.5 -467.5t206.5 -417.5h193q-120 191 -184 424t-64 461q0 229 63.5 462t184.5 426h-193q-136 -193 -207 -419.5t-71 -468.5zM1901 795q0 242 -71.5 468.5t-207.5 419.5h-192
q120 -192 183.5 -428.5t63.5 -466.5q0 -228 -63 -457.5t-184 -420.5h192q136 191 207.5 417.5t71.5 467.5z" />
    <glyph glyph-name="_808" unicode="&#x24a3;" 
d="M1411 784q0 166 -74 251t-215 85q-118 0 -190 -69v370h-307v-1171h307v483q0 72 27.5 112t74.5 40q70 0 70 -103v-532h307v534zM66 795q0 -241 71.5 -467.5t206.5 -417.5h193q-120 191 -184 424t-64 461q0 229 63.5 462t184.5 426h-193q-136 -193 -207 -419.5t-71 -468.5
zM1901 795q0 242 -71.5 468.5t-207.5 419.5h-192q120 -192 183.5 -428.5t63.5 -466.5q0 -228 -63 -457.5t-184 -420.5h192q136 191 207.5 417.5t71.5 467.5z" />
    <glyph glyph-name="_809" unicode="&#x24a4;" 
d="M825 1143h308v256h-308v-256zM825 227h308v838h-308v-838zM66 795q0 -241 71.5 -467.5t206.5 -417.5h193q-120 191 -184 424t-64 461q0 229 63.5 462t184.5 426h-193q-136 -193 -207 -419.5t-71 -468.5zM1901 795q0 242 -71.5 468.5t-207.5 419.5h-192
q120 -192 183.5 -428.5t63.5 -466.5q0 -228 -63 -457.5t-184 -420.5h192q136 191 207.5 417.5t71.5 467.5z" />
    <glyph glyph-name="_810" unicode="&#x24a5;" 
d="M874 461q0 -88 -69 -88h-94v-228q49 -6 143 -6q330 0 330 303v699h-310v-680zM874 1221h310v254h-310v-254zM66 795q0 -241 71.5 -467.5t206.5 -417.5h193q-120 191 -184 424t-64 461q0 229 63.5 462t184.5 426h-193q-136 -193 -207 -419.5t-71 -468.5zM1901 795
q0 242 -71.5 468.5t-207.5 419.5h-192q120 -192 183.5 -428.5t63.5 -466.5q0 -228 -63 -457.5t-184 -420.5h192q136 191 207.5 417.5t71.5 467.5z" />
    <glyph glyph-name="_811" unicode="&#x24a6;" 
d="M635 260h307v324l184 -324h328l-252 442l217 408h-323l-154 -289v611h-307v-1172zM63 795q0 -241 72 -467t207 -416h195q-121 189 -184.5 421t-63.5 462q0 229 63.5 461.5t184.5 424.5h-195q-136 -193 -207.5 -419.5t-71.5 -466.5zM1901 795q0 240 -71.5 466.5
t-207.5 419.5h-195q121 -191 184.5 -427t63.5 -466q0 -229 -63 -458t-185 -418h195q135 190 207 416t72 467z" />
    <glyph glyph-name="_812" unicode="&#x24a7;" 
d="M1141 217v1172h-307v-1172h307zM66 795q0 -241 71.5 -467.5t206.5 -417.5h193q-120 191 -184 424t-64 461q0 229 63.5 462t184.5 426h-193q-136 -193 -207 -419.5t-71 -468.5zM1901 795q0 242 -71.5 468.5t-207.5 419.5h-192q120 -192 183.5 -428.5t63.5 -466.5
q0 -228 -63 -457.5t-184 -420.5h192q136 191 207.5 417.5t71.5 467.5z" />
    <glyph glyph-name="_813" unicode="&#x24a8;" 
d="M1141 860q0 73 22.5 112.5t63.5 39.5q53 0 53 -97v-536h297v534q0 165 -69 249.5t-203 84.5q-146 0 -222 -106q-66 106 -213 106q-99 0 -165 -59v39h-297v-848h297v481q0 73 21.5 112.5t61.5 39.5q29 0 42.5 -23t13.5 -74v-536h297v481zM63 795q0 -241 72 -467t207 -416
h195q-121 189 -184.5 421t-63.5 462q0 229 63.5 461.5t184.5 424.5h-195q-136 -193 -207.5 -419.5t-71.5 -466.5zM1901 795q0 240 -71.5 466.5t-207.5 419.5h-195q121 -191 184.5 -427t63.5 -466q0 -229 -63 -458t-185 -418h195q135 190 207 416t72 467z" />
    <glyph glyph-name="_814" unicode="&#x24a9;" 
d="M1382 913q0 166 -74.5 251t-213.5 85q-122 0 -191 -69v49h-307v-850h307v483q0 73 27.5 112.5t75.5 39.5q67 0 67 -103v-532h309v534zM66 795q0 -241 71.5 -467.5t206.5 -417.5h193q-120 191 -184 424t-64 461q0 229 63.5 462t184.5 426h-193q-136 -193 -207 -419.5
t-71 -468.5zM1901 795q0 242 -71.5 468.5t-207.5 419.5h-192q120 -192 183.5 -428.5t63.5 -466.5q0 -228 -63 -457.5t-184 -420.5h192q136 191 207.5 417.5t71.5 467.5z" />
    <glyph glyph-name="_815" unicode="&#x24aa;" 
d="M881 809q0 109 24.5 158t81.5 49q55 0 79 -48t24 -159q0 -113 -24 -160t-79 -47q-56 0 -81 47t-25 160zM575 809q0 -213 104 -328.5t308 -115.5q203 0 306.5 115.5t103.5 328.5q0 211 -104 327.5t-306 116.5q-203 0 -307.5 -116.5t-104.5 -327.5zM66 795
q0 -241 71.5 -467.5t206.5 -417.5h193q-120 191 -184 424t-64 461q0 229 63.5 462t184.5 426h-193q-136 -193 -207 -419.5t-71 -468.5zM1901 795q0 242 -71.5 468.5t-207.5 419.5h-192q120 -192 183.5 -428.5t63.5 -466.5q0 -228 -63 -457.5t-184 -420.5h192
q136 191 207.5 417.5t71.5 467.5z" />
    <glyph glyph-name="_816" unicode="&#x24ab;" 
d="M932 1358h-307v-1198h307v397q78 -68 188 -68q156 0 242 113t86 332t-86 331.5t-242 112.5q-111 0 -188 -67v47zM932 934q0 113 24 161t78 48q56 0 81.5 -48t25.5 -161q0 -115 -25 -163t-82 -48q-54 0 -78 48t-24 163zM66 795q0 -241 71.5 -467.5t206.5 -417.5h193
q-120 191 -184 424t-64 461q0 229 63.5 462t184.5 426h-193q-136 -193 -207 -419.5t-71 -468.5zM1901 795q0 242 -71.5 468.5t-207.5 419.5h-192q120 -192 183.5 -428.5t63.5 -466.5q0 -228 -63 -457.5t-184 -420.5h192q136 191 207.5 417.5t71.5 467.5z" />
    <glyph glyph-name="_817" unicode="&#x24ac;" 
d="M1032 1311q-70 67 -188 67q-157 0 -242.5 -112.5t-85.5 -331.5q0 -220 85.5 -332.5t242.5 -112.5q120 0 188 68v-397h307v1198h-307v-47zM1032 934q0 -116 -23.5 -163.5t-80.5 -47.5t-81 48t-24 163q0 114 24 161.5t81 47.5q56 0 80 -48t24 -161zM66 795
q0 -241 71.5 -467.5t206.5 -417.5h193q-120 191 -184 424t-64 461q0 229 63.5 462t184.5 426h-193q-136 -193 -207 -419.5t-71 -468.5zM1901 795q0 242 -71.5 468.5t-207.5 419.5h-192q120 -192 183.5 -428.5t63.5 -466.5q0 -228 -63 -457.5t-184 -420.5h192
q136 191 207.5 417.5t71.5 467.5z" />
    <glyph glyph-name="_818" unicode="&#x24ad;" 
d="M1202 975q72 0 90 -4l2 241q-43 19 -88 19q-117 0 -186 -82v61h-295v-850h307v410q0 101 44 153t126 52zM66 795q0 -241 71.5 -467.5t206.5 -417.5h193q-120 191 -184 424t-64 461q0 229 63.5 462t184.5 426h-193q-136 -193 -207 -419.5t-71 -468.5zM1901 795
q0 242 -71.5 468.5t-207.5 419.5h-192q120 -192 183.5 -428.5t63.5 -466.5q0 -228 -63 -457.5t-184 -420.5h192q136 191 207.5 417.5t71.5 467.5z" />
    <glyph glyph-name="_819" unicode="&#x24ae;" 
d="M629 641q0 -123 97 -201t271 -78q172 0 271.5 78t99.5 205q0 122 -68.5 185.5t-222.5 91.5q-12 2 -38 7t-38 7q-69 12 -69 53q0 43 49 43t49 -43v-31h303v29q0 115 -93 189.5t-259 74.5t-259 -76t-93 -198q0 -111 70.5 -173.5t215.5 -92.5q10 -2 38 -9t44 -10
q64 -13 64 -59q0 -25 -16.5 -39t-47.5 -14q-29 0 -45 14t-16 39v35h-307v-27zM66 795q0 -241 71.5 -467.5t206.5 -417.5h193q-120 191 -184 424t-64 461q0 229 63.5 462t184.5 426h-193q-136 -193 -207 -419.5t-71 -468.5zM1901 795q0 242 -71.5 468.5t-207.5 419.5h-192
q120 -192 183.5 -428.5t63.5 -466.5q0 -228 -63 -457.5t-184 -420.5h192q136 191 207.5 417.5t71.5 467.5z" />
    <glyph glyph-name="_820" unicode="&#x24af;" 
d="M1079 905h205v236h-205v227h-311v-227h-117v-236h117v-334q0 -159 76 -224.5t262 -65.5q67 0 178 6v229h-108q-58 0 -77.5 17.5t-19.5 70.5v301zM66 795q0 -241 71.5 -467.5t206.5 -417.5h193q-120 191 -184 424t-64 461q0 229 63.5 462t184.5 426h-193
q-136 -193 -207 -419.5t-71 -468.5zM1901 795q0 242 -71.5 468.5t-207.5 419.5h-192q120 -192 183.5 -428.5t63.5 -466.5q0 -228 -63 -457.5t-184 -420.5h192q136 191 207.5 417.5t71.5 467.5z" />
    <glyph glyph-name="_821" unicode="&#x24b0;" 
d="M573 678q0 -164 75 -249t214 -85q56 0 106 19t83 51v-52h309v850h-309v-481q0 -72 -27.5 -112.5t-73.5 -40.5q-36 0 -52.5 24.5t-16.5 79.5v530h-308v-534zM66 795q0 -241 71.5 -467.5t206.5 -417.5h193q-120 191 -184 424t-64 461q0 229 63.5 462t184.5 426h-193
q-136 -193 -207 -419.5t-71 -468.5zM1901 795q0 242 -71.5 468.5t-207.5 419.5h-192q120 -192 183.5 -428.5t63.5 -466.5q0 -228 -63 -457.5t-184 -420.5h192q136 191 207.5 417.5t71.5 467.5z" />
    <glyph glyph-name="_822" unicode="&#x24b1;" 
d="M1124 338l297 850h-319l-129 -467l-131 467h-320l299 -850h303zM66 795q0 -241 71.5 -467.5t206.5 -417.5h193q-120 191 -184 424t-64 461q0 229 63.5 462t184.5 426h-193q-136 -193 -207 -419.5t-71 -468.5zM1901 795q0 242 -71.5 468.5t-207.5 419.5h-192
q120 -192 183.5 -428.5t63.5 -466.5q0 -228 -63 -457.5t-184 -420.5h192q136 191 207.5 417.5t71.5 467.5z" />
    <glyph glyph-name="_823" unicode="&#x24b2;" 
d="M864 1202l-129 -461l-117 461h-280q63 262 199 481h-193q-136 -193 -207 -419.5t-71 -468.5q0 -241 71.5 -467.5t206.5 -417.5h193q-120 191 -184 424t-64 461q0 166 35 338l249 -781h285l121 422l125 -422h287l249 787q37 -173 37 -351q0 -228 -63 -457.5t-184 -420.5
h192q136 191 207.5 417.5t71.5 467.5q0 242 -71.5 468.5t-207.5 419.5h-192q131 -211 196 -481h-278l-119 -461l-129 461h-236z" />
    <glyph glyph-name="_824" unicode="&#x24b3;" 
d="M1094 369h325l-241 438l225 412h-324l-96 -222l-96 222h-322l223 -414l-241 -436h323l113 241zM63 795q0 -241 72 -467t207 -416h195q-121 189 -184.5 421t-63.5 462q0 229 63.5 461.5t184.5 424.5h-195q-136 -193 -207.5 -419.5t-71.5 -466.5zM1901 795
q0 240 -71.5 466.5t-207.5 419.5h-195q121 -191 184.5 -427t63.5 -466q0 -229 -63 -458t-185 -418h195q135 190 207 416t72 467z" />
    <glyph glyph-name="_825" unicode="&#x24b4;" 
d="M825 420q-18 -66 -82 -66h-90v-227q59 -8 140 -8q134 0 201 51.5t120 202.5l330 942h-320l-127 -457l-133 457h-319l301 -826zM66 795q0 -241 71.5 -467.5t206.5 -417.5h193q-120 191 -184 424t-64 461q0 229 63.5 462t184.5 426h-193q-136 -193 -207 -419.5t-71 -468.5z
M1901 795q0 242 -71.5 468.5t-207.5 419.5h-192q120 -192 183.5 -428.5t63.5 -466.5q0 -228 -63 -457.5t-184 -420.5h192q136 191 207.5 417.5t71.5 467.5z" />
    <glyph glyph-name="_826" unicode="&#x24b5;" 
d="M1325 1229h-692v-238h305l-317 -411v-201h714v235h-329l319 412v203zM63 795q0 -241 72 -467t207 -416h195q-121 189 -184.5 421t-63.5 462q0 229 63.5 461.5t184.5 424.5h-195q-136 -193 -207.5 -419.5t-71.5 -466.5zM1901 795q0 240 -71.5 466.5t-207.5 419.5h-195
q121 -191 184.5 -427t63.5 -466q0 -229 -63 -458t-185 -418h195q135 190 207 416t72 467z" />
    <glyph glyph-name="_8388" unicode="&#x24b6;" 
d="M985 1679q179 0 343.5 -70.5t283.5 -189.5t189.5 -283t70.5 -343q0 -239 -119.5 -443.5t-324 -324t-443.5 -119.5q-181 0 -346 70.5t-284.5 189.5t-190 283.5t-70.5 343.5t70.5 343t190 283t284.5 189.5t346 70.5zM985 1599q-164 0 -313 -64t-256.5 -172t-171.5 -257
t-64 -313q0 -218 108 -404t293.5 -294.5t403.5 -108.5q162 0 310.5 64t255.5 172.5t171 258t64 312.5t-64 312.5t-171 257.5t-255.5 172t-310.5 64zM909 1356h144l401 -1047h-143l-101 273h-460l-99 -273h-143zM981 1219l-190 -523h380z" />
    <glyph glyph-name="_8389" unicode="&#x24b7;" 
d="M985 1679q179 0 343.5 -70.5t283.5 -189.5t189.5 -283t70.5 -343q0 -239 -119.5 -443.5t-324 -324t-443.5 -119.5q-181 0 -346 70.5t-284.5 189.5t-190 283.5t-70.5 343.5t70.5 343t190 283t284.5 189.5t346 70.5zM985 1599q-164 0 -313 -64t-256.5 -172t-171.5 -257
t-64 -313q0 -218 108 -404t293.5 -294.5t403.5 -108.5q162 0 310.5 64t255.5 172.5t171 258t64 312.5t-64 312.5t-171 257.5t-255.5 172t-310.5 64zM659 289v1046h359q162 0 253 -76.5t91 -199.5q0 -70 -35.5 -127t-95.5 -86q88 -32 136 -99.5t48 -156.5
q0 -142 -98.5 -221.5t-276.5 -79.5h-381zM791 891h208q111 0 171.5 44.5t60.5 123.5q0 160 -232 160h-208v-328zM1284 590q0 89 -66 136.5t-198 47.5h-229v-368h229q264 0 264 184z" />
    <glyph glyph-name="_8390" unicode="&#x24b8;" 
d="M985 1679q179 0 343.5 -70.5t283.5 -189.5t189.5 -283t70.5 -343q0 -239 -119.5 -443.5t-324 -324t-443.5 -119.5q-181 0 -346 70.5t-284.5 189.5t-190 283.5t-70.5 343.5t70.5 343t190 283t284.5 189.5t346 70.5zM985 1599q-164 0 -313 -64t-256.5 -172t-171.5 -257
t-64 -313q0 -218 108 -404t293.5 -294.5t403.5 -108.5q162 0 310.5 64t255.5 172.5t171 258t64 312.5t-64 312.5t-171 257.5t-255.5 172t-310.5 64zM526 813q0 238 147.5 389.5t389.5 151.5q136 0 244 -43l-13 -133q-99 57 -221 57q-192 0 -301.5 -118t-109.5 -304
q0 -193 111.5 -307.5t301.5 -114.5q121 0 223 60l15 -134q-98 -45 -242 -45q-249 0 -397 148.5t-148 392.5z" />
    <glyph glyph-name="_8391" unicode="&#x24b9;" 
d="M985 1679q179 0 343.5 -70.5t283.5 -189.5t189.5 -283t70.5 -343q0 -239 -119.5 -443.5t-324 -324t-443.5 -119.5q-181 0 -346 70.5t-284.5 189.5t-190 283.5t-70.5 343.5t70.5 343t190 283t284.5 189.5t346 70.5zM985 1599q-164 0 -313 -64t-256.5 -172t-171.5 -257
t-64 -313q0 -218 108 -404t293.5 -294.5t403.5 -108.5q162 0 310.5 64t255.5 172.5t171 258t64 312.5t-64 312.5t-171 257.5t-255.5 172t-310.5 64zM1346 813q0 406 -449 406h-115v-813h115q449 0 449 407zM1481 813q0 -128 -42.5 -228.5t-118.5 -164.5t-178 -97.5
t-224 -33.5h-267v1046h267q122 0 224 -33t178 -97t118.5 -164t42.5 -228z" />
    <glyph glyph-name="_8392" unicode="&#x24ba;" 
d="M985 1679q179 0 343.5 -70.5t283.5 -189.5t189.5 -283t70.5 -343q0 -239 -119.5 -443.5t-324 -324t-443.5 -119.5q-181 0 -346 70.5t-284.5 189.5t-190 283.5t-70.5 343.5t70.5 343t190 283t284.5 189.5t346 70.5zM985 1599q-164 0 -313 -64t-256.5 -172t-171.5 -257
t-64 -313q0 -218 108 -404t293.5 -294.5t403.5 -108.5q162 0 310.5 64t255.5 172.5t171 258t64 312.5t-64 312.5t-171 257.5t-255.5 172t-310.5 64zM662 289v1046h653v-116h-522v-332h483v-117h-483v-364h534v-117h-665z" />
    <glyph glyph-name="_8393" unicode="&#x24bb;" 
d="M985 1679q179 0 343.5 -70.5t283.5 -189.5t189.5 -283t70.5 -343q0 -239 -119.5 -443.5t-324 -324t-443.5 -119.5q-181 0 -346 70.5t-284.5 189.5t-190 283.5t-70.5 343.5t70.5 343t190 283t284.5 189.5t346 70.5zM985 1599q-164 0 -313 -64t-256.5 -172t-171.5 -257
t-64 -313q0 -218 108 -404t293.5 -294.5t403.5 -108.5q162 0 310.5 64t255.5 172.5t171 258t64 312.5t-64 312.5t-171 257.5t-255.5 172t-310.5 64zM698 289v1046h648v-116h-519v-326h484v-119h-484v-485h-129z" />
    <glyph glyph-name="_8394" unicode="&#x24bc;" 
d="M985 1679q179 0 343.5 -70.5t283.5 -189.5t189.5 -283t70.5 -343q0 -239 -119.5 -443.5t-324 -324t-443.5 -119.5q-181 0 -346 70.5t-284.5 189.5t-190 283.5t-70.5 343.5t70.5 343t190 283t284.5 189.5t346 70.5zM985 1599q-164 0 -313 -64t-256.5 -172t-171.5 -257
t-64 -313q0 -218 108 -404t293.5 -294.5t403.5 -108.5q162 0 310.5 64t255.5 172.5t171 258t64 312.5t-64 312.5t-171 257.5t-255.5 172t-310.5 64zM465 813q0 153 66 275t192 194t291 72q179 0 309 -54l-12 -131q-139 66 -289 66q-192 0 -308 -118t-116 -304
q0 -191 117 -306.5t325 -115.5q103 0 172 27v330h-284v116h415v-534q-140 -58 -315 -58q-255 0 -409 151t-154 390z" />
    <glyph glyph-name="_8395" unicode="&#x24bd;" 
d="M985 1679q179 0 343.5 -70.5t283.5 -189.5t189.5 -283t70.5 -343q0 -239 -119.5 -443.5t-324 -324t-443.5 -119.5q-181 0 -346 70.5t-284.5 189.5t-190 283.5t-70.5 343.5t70.5 343t190 283t284.5 189.5t346 70.5zM985 1599q-164 0 -313 -64t-256.5 -172t-171.5 -257
t-64 -313q0 -218 108 -404t293.5 -294.5t403.5 -108.5q162 0 310.5 64t255.5 172.5t171 258t64 312.5t-64 312.5t-171 257.5t-255.5 172t-310.5 64zM575 289v1046h132v-432h546v432h133v-1046h-133v497h-546v-497h-132z" />
    <glyph glyph-name="_8396" unicode="&#x24be;" 
d="M985 1679q179 0 343.5 -70.5t283.5 -189.5t189.5 -283t70.5 -343q0 -239 -119.5 -443.5t-324 -324t-443.5 -119.5q-181 0 -346 70.5t-284.5 189.5t-190 283.5t-70.5 343.5t70.5 343t190 283t284.5 189.5t346 70.5zM985 1599q-164 0 -313 -64t-256.5 -172t-171.5 -257
t-64 -313q0 -218 108 -404t293.5 -294.5t403.5 -108.5q162 0 310.5 64t255.5 172.5t171 258t64 312.5t-64 312.5t-171 257.5t-255.5 172t-310.5 64zM915 1335h132v-1046h-132v1046z" />
    <glyph glyph-name="_8397" unicode="&#x24bf;" 
d="M985 1679q179 0 343.5 -70.5t283.5 -189.5t189.5 -283t70.5 -343q0 -239 -119.5 -443.5t-324 -324t-443.5 -119.5q-181 0 -346 70.5t-284.5 189.5t-190 283.5t-70.5 343.5t70.5 343t190 283t284.5 189.5t346 70.5zM985 1599q-164 0 -313 -64t-256.5 -172t-171.5 -257
t-64 -313q0 -218 108 -404t293.5 -294.5t403.5 -108.5q162 0 310.5 64t255.5 172.5t171 258t64 312.5t-64 312.5t-171 257.5t-255.5 172t-310.5 64zM1114 627v704h131v-704q0 -357 -311 -357q-132 0 -219 43l10 131q82 -55 205 -55q184 0 184 238z" />
    <glyph glyph-name="_8398" unicode="&#x24c0;" 
d="M985 1679q179 0 343.5 -70.5t283.5 -189.5t189.5 -283t70.5 -343q0 -239 -119.5 -443.5t-324 -324t-443.5 -119.5q-181 0 -346 70.5t-284.5 189.5t-190 283.5t-70.5 343.5t70.5 343t190 283t284.5 189.5t346 70.5zM985 1599q-164 0 -313 -64t-256.5 -172t-171.5 -257
t-64 -313q0 -218 108 -404t293.5 -294.5t403.5 -108.5q162 0 310.5 64t255.5 172.5t171 258t64 312.5t-64 312.5t-171 257.5t-255.5 172t-310.5 64zM1212 1335h164l-469 -489l541 -557h-176l-504 532v-532h-131v1046h131v-463z" />
    <glyph glyph-name="_8399" unicode="&#x24c1;" 
d="M985 1679q179 0 343.5 -70.5t283.5 -189.5t189.5 -283t70.5 -343q0 -239 -119.5 -443.5t-324 -324t-443.5 -119.5q-181 0 -346 70.5t-284.5 189.5t-190 283.5t-70.5 343.5t70.5 343t190 283t284.5 189.5t346 70.5zM985 1599q-164 0 -313 -64t-256.5 -172t-171.5 -257
t-64 -313q0 -218 108 -404t293.5 -294.5t403.5 -108.5q162 0 310.5 64t255.5 172.5t171 258t64 312.5t-64 312.5t-171 257.5t-255.5 172t-310.5 64zM674 289v1046h131v-929h563v-117h-694z" />
    <glyph glyph-name="_8400" unicode="&#x24c2;" 
d="M985 1679q179 0 343.5 -70.5t283.5 -189.5t189.5 -283t70.5 -343q0 -239 -119.5 -443.5t-324 -324t-443.5 -119.5q-181 0 -346 70.5t-284.5 189.5t-190 283.5t-70.5 343.5t70.5 343t190 283t284.5 189.5t346 70.5zM985 1599q-164 0 -313 -64t-256.5 -172t-171.5 -257
t-64 -313q0 -218 108 -404t293.5 -294.5t403.5 -108.5q162 0 310.5 64t255.5 172.5t171 258t64 312.5t-64 312.5t-171 257.5t-255.5 172t-310.5 64zM1036 637h-110l-332 508v-856h-125v1046h139l373 -575l373 575h139v-1046h-125v856z" />
    <glyph glyph-name="_8401" unicode="&#x24c3;" 
d="M985 1679q179 0 343.5 -70.5t283.5 -189.5t189.5 -283t70.5 -343q0 -239 -119.5 -443.5t-324 -324t-443.5 -119.5q-181 0 -346 70.5t-284.5 189.5t-190 283.5t-70.5 343.5t70.5 343t190 283t284.5 189.5t346 70.5zM985 1599q-164 0 -313 -64t-256.5 -172t-171.5 -257
t-64 -313q0 -218 108 -404t293.5 -294.5t403.5 -108.5q162 0 310.5 64t255.5 172.5t171 258t64 312.5t-64 312.5t-171 257.5t-255.5 172t-310.5 64zM571 289v1046h158l537 -882v882h125v-1046h-158l-537 882v-882h-125z" />
    <glyph glyph-name="_8402" unicode="&#x24c4;" 
d="M985 1679q179 0 343.5 -70.5t283.5 -189.5t189.5 -283t70.5 -343q0 -239 -119.5 -443.5t-324 -324t-443.5 -119.5q-181 0 -346 70.5t-284.5 189.5t-190 283.5t-70.5 343.5t70.5 343t190 283t284.5 189.5t346 70.5zM985 1599q-164 0 -313 -64t-256.5 -172t-171.5 -257
t-64 -313q0 -218 108 -404t293.5 -294.5t403.5 -108.5q162 0 310.5 64t255.5 172.5t171 258t64 312.5t-64 312.5t-171 257.5t-255.5 172t-310.5 64zM1448 813q0 -154 -54.5 -275.5t-161.5 -193.5t-251 -72q-145 0 -252.5 72t-162 193.5t-54.5 275.5q0 153 54.5 274.5
t162 194t252.5 72.5q215 0 341 -153.5t126 -387.5zM647 813q0 -193 91 -307.5t243 -114.5q151 0 241.5 114.5t90.5 307.5t-90.5 307.5t-241.5 114.5q-152 0 -243 -114.5t-91 -307.5z" />
    <glyph glyph-name="_8403" unicode="&#x24c5;" 
d="M985 1679q179 0 343.5 -70.5t283.5 -189.5t189.5 -283t70.5 -343q0 -239 -119.5 -443.5t-324 -324t-443.5 -119.5q-181 0 -346 70.5t-284.5 189.5t-190 283.5t-70.5 343.5t70.5 343t190 283t284.5 189.5t346 70.5zM985 1599q-164 0 -313 -64t-256.5 -172t-171.5 -257
t-64 -313q0 -218 108 -404t293.5 -294.5t403.5 -108.5q162 0 310.5 64t255.5 172.5t171 258t64 312.5t-64 312.5t-171 257.5t-255.5 172t-310.5 64zM1419 1010q0 -153 -105.5 -238.5t-283.5 -85.5h-192v-397h-133v1046h325q178 0 283.5 -85.5t105.5 -239.5zM1286 1010
q0 107 -65.5 158t-200.5 51h-182v-416h182q136 0 201 50t65 157z" />
    <glyph glyph-name="_8404" unicode="&#x24c6;" 
d="M985 1679q179 0 343.5 -70.5t283.5 -189.5t189.5 -283t70.5 -343q0 -239 -119.5 -443.5t-324 -324t-443.5 -119.5q-181 0 -346 70.5t-284.5 189.5t-190 283.5t-70.5 343.5t70.5 343t190 283t284.5 189.5t346 70.5zM985 1599q-164 0 -313 -64t-256.5 -172t-171.5 -257
t-64 -313q0 -218 108 -404t293.5 -294.5t403.5 -108.5q162 0 310.5 64t255.5 172.5t171 258t64 312.5t-64 312.5t-171 257.5t-255.5 172t-310.5 64zM1436 862q0 -210 -103 -357.5t-282 -176.5q12 -68 61 -95q46 -24 135 -24q61 0 127 16l15 -108q-81 -15 -146 -15
q-127 0 -207 45q-89 59 -110 177q-198 15 -312 165t-114 373q0 153 54.5 274.5t162 194t252.5 72.5q215 0 341 -153.5t126 -387.5zM635 862q0 -193 90.5 -306.5t243.5 -113.5q151 0 241 113.5t90 306.5t-90 306.5t-241 113.5q-153 0 -243.5 -113.5t-90.5 -306.5z" />
    <glyph glyph-name="_8405" unicode="&#x24c7;" 
d="M985 1679q179 0 343.5 -70.5t283.5 -189.5t189.5 -283t70.5 -343q0 -239 -119.5 -443.5t-324 -324t-443.5 -119.5q-181 0 -346 70.5t-284.5 189.5t-190 283.5t-70.5 343.5t70.5 343t190 283t284.5 189.5t346 70.5zM985 1599q-164 0 -313 -64t-256.5 -172t-171.5 -257
t-64 -313q0 -218 108 -404t293.5 -294.5t403.5 -108.5q162 0 310.5 64t255.5 172.5t171 258t64 312.5t-64 312.5t-171 257.5t-255.5 172t-310.5 64zM1393 1030q0 -110 -63 -182t-171 -103l299 -456h-151l-283 438h-225v-438h-133v1046h350q165 0 271 -80t106 -225z
M1257 1030q0 189 -251 189h-207v-377h207q251 0 251 188z" />
    <glyph glyph-name="_8406" unicode="&#x24c8;" 
d="M985 1679q179 0 343.5 -70.5t283.5 -189.5t189.5 -283t70.5 -343q0 -239 -119.5 -443.5t-324 -324t-443.5 -119.5q-181 0 -346 70.5t-284.5 189.5t-190 283.5t-70.5 343.5t70.5 343t190 283t284.5 189.5t346 70.5zM985 1599q-164 0 -313 -64t-256.5 -172t-171.5 -257
t-64 -313q0 -218 108 -404t293.5 -294.5t403.5 -108.5q162 0 310.5 64t255.5 172.5t171 258t64 312.5t-64 312.5t-171 257.5t-255.5 172t-310.5 64zM1260 1307l-11 -131q-102 59 -241 59q-111 0 -167.5 -40t-56.5 -110q0 -63 49.5 -108t159.5 -82q174 -59 250 -135t76 -195
q0 -139 -99 -216t-278 -77q-161 0 -285 70l11 135q124 -86 284 -86q113 0 172.5 43.5t59.5 122.5q0 75 -52 124.5t-176 88.5q-157 52 -232 127t-75 188q0 125 96 197t265 72q141 0 250 -47z" />
    <glyph glyph-name="_8407" unicode="&#x24c9;" 
d="M985 1679q179 0 343.5 -70.5t283.5 -189.5t189.5 -283t70.5 -343q0 -239 -119.5 -443.5t-324 -324t-443.5 -119.5q-181 0 -346 70.5t-284.5 189.5t-190 283.5t-70.5 343.5t70.5 343t190 283t284.5 189.5t346 70.5zM985 1599q-164 0 -313 -64t-256.5 -172t-171.5 -257
t-64 -313q0 -218 108 -404t293.5 -294.5t403.5 -108.5q162 0 310.5 64t255.5 172.5t171 258t64 312.5t-64 312.5t-171 257.5t-255.5 172t-310.5 64zM915 289v930h-325v116h782v-116h-325v-930h-132z" />
    <glyph glyph-name="_8408" unicode="&#x24ca;" 
d="M985 1679q179 0 343.5 -70.5t283.5 -189.5t189.5 -283t70.5 -343q0 -239 -119.5 -443.5t-324 -324t-443.5 -119.5q-181 0 -346 70.5t-284.5 189.5t-190 283.5t-70.5 343.5t70.5 343t190 283t284.5 189.5t346 70.5zM985 1599q-164 0 -313 -64t-256.5 -172t-171.5 -257
t-64 -313q0 -218 108 -404t293.5 -294.5t403.5 -108.5q162 0 310.5 64t255.5 172.5t171 258t64 312.5t-64 312.5t-171 257.5t-255.5 172t-310.5 64zM981 270q-190 0 -303 108t-113 316v637h131v-629q0 -313 285 -313q283 0 283 313v629h131v-637q0 -210 -109.5 -317
t-304.5 -107z" />
    <glyph glyph-name="_8409" unicode="&#x24cb;" 
d="M985 1679q179 0 343.5 -70.5t283.5 -189.5t189.5 -283t70.5 -343q0 -239 -119.5 -443.5t-324 -324t-443.5 -119.5q-181 0 -346 70.5t-284.5 189.5t-190 283.5t-70.5 343.5t70.5 343t190 283t284.5 189.5t346 70.5zM985 1599q-164 0 -313 -64t-256.5 -172t-171.5 -257
t-64 -313q0 -218 108 -404t293.5 -294.5t403.5 -108.5q162 0 310.5 64t255.5 172.5t171 258t64 312.5t-64 312.5t-171 257.5t-255.5 172t-310.5 64zM1053 289h-144l-401 1046h135l338 -891l336 891h137z" />
    <glyph glyph-name="_8410" unicode="&#x24cc;" 
d="M985 1679q179 0 343.5 -70.5t283.5 -189.5t189.5 -283t70.5 -343q0 -239 -119.5 -443.5t-324 -324t-443.5 -119.5q-181 0 -346 70.5t-284.5 189.5t-190 283.5t-70.5 343.5t70.5 343t190 283t284.5 189.5t346 70.5zM985 1599q-164 0 -313 -64t-256.5 -172t-171.5 -257
t-64 -313q0 -218 108 -404t293.5 -294.5t403.5 -108.5q162 0 310.5 64t255.5 172.5t171 258t64 312.5t-64 312.5t-171 257.5t-255.5 172t-310.5 64zM901 1335h160l162 -891l207 891h141l-258 -1046h-178l-154 878l-156 -878h-176l-258 1046h139l209 -891z" />
    <glyph glyph-name="_8411" unicode="&#x24cd;" 
d="M985 1679q179 0 343.5 -70.5t283.5 -189.5t189.5 -283t70.5 -343q0 -239 -119.5 -443.5t-324 -324t-443.5 -119.5q-181 0 -346 70.5t-284.5 189.5t-190 283.5t-70.5 343.5t70.5 343t190 283t284.5 189.5t346 70.5zM985 1599q-164 0 -313 -64t-256.5 -172t-171.5 -257
t-64 -313q0 -218 108 -404t293.5 -294.5t403.5 -108.5q162 0 310.5 64t255.5 172.5t171 258t64 312.5t-64 312.5t-171 257.5t-255.5 172t-310.5 64zM903 821l-383 514h154l307 -415l307 415h154l-383 -514l397 -532h-153l-322 434l-324 -434h-151z" />
    <glyph glyph-name="_8412" unicode="&#x24ce;" 
d="M985 1679q179 0 343.5 -70.5t283.5 -189.5t189.5 -283t70.5 -343q0 -239 -119.5 -443.5t-324 -324t-443.5 -119.5q-181 0 -346 70.5t-284.5 189.5t-190 283.5t-70.5 343.5t70.5 343t190 283t284.5 189.5t346 70.5zM985 1599q-164 0 -313 -64t-256.5 -172t-171.5 -257
t-64 -313q0 -218 108 -404t293.5 -294.5t403.5 -108.5q162 0 310.5 64t255.5 172.5t171 258t64 312.5t-64 312.5t-171 257.5t-255.5 172t-310.5 64zM1446 1335l-399 -630v-416h-132v416l-399 630h154l311 -506l311 506h154z" />
    <glyph glyph-name="_8413" unicode="&#x24cf;" 
d="M985 1679q179 0 343.5 -70.5t283.5 -189.5t189.5 -283t70.5 -343q0 -239 -119.5 -443.5t-324 -324t-443.5 -119.5q-181 0 -346 70.5t-284.5 189.5t-190 283.5t-70.5 343.5t70.5 343t190 283t284.5 189.5t346 70.5zM985 1599q-164 0 -313 -64t-256.5 -172t-171.5 -257
t-64 -313q0 -218 108 -404t293.5 -294.5t403.5 -108.5q162 0 310.5 64t255.5 172.5t171 258t64 312.5t-64 312.5t-171 257.5t-255.5 172t-310.5 64zM606 422l584 797h-561v116h710v-131l-583 -798h600v-117h-750v133z" />
    <glyph glyph-name="_707" unicode="&#x24d0;" 
d="M45 805q0 -156 46.5 -300t132.5 -257.5t201 -198.5t258.5 -130.5t299.5 -45.5t299.5 45.5t258.5 130.5t201 198.5t132.5 257.5t46.5 300t-46.5 300t-132.5 258t-201 199t-258.5 131t-299.5 46t-299.5 -46t-258.5 -131t-201 -199t-132.5 -258t-46.5 -300zM250 805
q0 158 55.5 297t152 237.5t232.5 155.5t293 57q208 0 375.5 -97t261.5 -268t94 -382q0 -158 -55.5 -296.5t-151.5 -237t-232 -155.5t-292 -57q-157 0 -293 56.5t-232.5 155.5t-152 237.5t-55.5 296.5zM1075 379h318q-35 69 -35 145v410q0 143 -98.5 229t-282.5 86
q-181 0 -278.5 -82t-102.5 -221h309q6 72 72 72q72 0 72 -80v-76q-68 53 -183 53q-139 0 -221 -74t-82 -202q0 -131 82 -205t221 -74q126 0 193 64q11 -37 16 -45zM961 571q-91 0 -91 68q0 32 23.5 50t67.5 18q43 0 65.5 -18t22.5 -50q0 -68 -88 -68z" />
    <glyph glyph-name="_708" unicode="&#x24d1;" 
d="M45 805q0 -156 46.5 -300t132.5 -258t201 -199t258.5 -131t299.5 -46t299.5 46t258.5 131t201 199t132.5 258t46.5 300t-46.5 300t-132.5 258t-201 199t-258.5 131t-299.5 46t-299.5 -46t-258.5 -131t-201 -199t-132.5 -258t-46.5 -300zM250 805q0 158 55.5 297
t152 237.5t232.5 155.5t293 57t293 -57t232.5 -155.5t152 -237.5t55.5 -297t-55.5 -296.5t-152 -237.5t-232.5 -155.5t-293 -56.5t-293 56.5t-232.5 155.5t-152 237.5t-55.5 296.5zM942 311q76 -69 188 -69q156 0 242 112.5t86 331.5t-86 331.5t-242 112.5q-111 0 -188 -67
v369h-307v-1170h307v49zM942 686q0 113 24 162t78 49q56 0 80.5 -48.5t24.5 -162.5q0 -116 -24.5 -163.5t-80.5 -47.5q-55 0 -78.5 48.5t-23.5 162.5z" />
    <glyph glyph-name="_709" unicode="&#x24d2;" 
d="M45 805q0 -156 46.5 -300t132.5 -258t201 -199t258.5 -131t299.5 -46t299.5 46t258.5 131t201 199t132.5 258t46.5 300t-46.5 300t-132.5 258t-201 199t-258.5 131t-299.5 46t-299.5 -46t-258.5 -131t-201 -199t-132.5 -258t-46.5 -300zM250 805q0 158 55.5 297
t152 237.5t232.5 155.5t293 57t293 -57t232.5 -155.5t152 -237.5t55.5 -297t-55.5 -296.5t-152 -237.5t-232.5 -155.5t-293 -56.5t-293 56.5t-232.5 155.5t-152 237.5t-55.5 296.5zM573 803q0 -212 104.5 -328.5t307.5 -116.5q180 0 286 94t115 265h-303q-12 -121 -98 -121
q-56 0 -80 47.5t-24 159.5q0 108 24 157.5t80 49.5q85 0 98 -119h303q-9 168 -115.5 262t-285.5 94q-203 0 -307.5 -116t-104.5 -328z" />
    <glyph glyph-name="_710" unicode="&#x24d3;" 
d="M45 805q0 -156 46.5 -300t132.5 -258t201 -199t258.5 -131t299.5 -46t299.5 46t258.5 131t201 199t132.5 258t46.5 300t-46.5 300t-132.5 258t-201 199t-258.5 131t-299.5 46t-299.5 -46t-258.5 -131t-201 -199t-132.5 -258t-46.5 -300zM250 805q0 158 55.5 297
t152 237.5t232.5 155.5t293 57t293 -57t232.5 -155.5t152 -237.5t55.5 -297t-55.5 -296.5t-152 -237.5t-232.5 -155.5t-293 -56.5t-293 56.5t-232.5 155.5t-152 237.5t-55.5 296.5zM1030 270h309v1170h-309v-369q-68 68 -188 68q-157 0 -242.5 -113t-85.5 -332t85.5 -331.5
t242.5 -112.5q119 0 188 69v-49zM1030 694q0 -115 -23 -163t-79 -48q-58 0 -81.5 48t-23.5 163t23.5 163t81.5 48q54 0 78 -48t24 -163z" />
    <glyph glyph-name="_711" unicode="&#x24d4;" 
d="M45 805q0 -156 46.5 -300t132.5 -257.5t201 -198.5t258.5 -130.5t299.5 -45.5t299.5 45.5t258.5 130.5t201 198.5t132.5 257.5t46.5 300t-46.5 300t-132.5 258t-201 199t-258.5 131t-299.5 46t-299.5 -46t-258.5 -131t-201 -199t-132.5 -258t-46.5 -300zM250 805
q0 158 55.5 297t152 237.5t232.5 155.5t293 57q208 0 375.5 -97t261.5 -268t94 -382q0 -158 -55.5 -296.5t-151.5 -237t-232 -155.5t-292 -57q-157 0 -293 56.5t-232.5 155.5t-152 237.5t-55.5 296.5zM1384 719q7 34 7 86q0 211 -104 327.5t-306 116.5q-205 0 -308.5 -116
t-103.5 -328q0 -213 104 -329t308 -116q163 0 266.5 80t130.5 236h-307q-6 -43 -29.5 -67.5t-60.5 -24.5q-98 0 -104 135h507zM981 1026q44 0 69.5 -30t30.5 -85h-202q9 115 102 115z" />
    <glyph glyph-name="_712" unicode="&#x24d5;" 
d="M45 805q0 -156 46.5 -300t132.5 -258t201 -199t258.5 -131t299.5 -46t299.5 46t258.5 131t201 199t132.5 258t46.5 300t-46.5 300t-132.5 258t-201 199t-258.5 131t-299.5 46t-299.5 -46t-258.5 -131t-201 -199t-132.5 -258t-46.5 -300zM250 805q0 158 55.5 297
t152 237.5t232.5 155.5t293 57t293 -57t232.5 -155.5t152 -237.5t55.5 -297t-55.5 -296.5t-152 -237.5t-232.5 -155.5t-293 -56.5t-293 56.5t-232.5 155.5t-152 237.5t-55.5 296.5zM1280 1157v221q-68 15 -174 15q-176 0 -253 -65.5t-77 -211.5v-61h-119v-238h119v-604h305
v604h199v238h-199v41q0 33 16 47t54 14h129z" />
    <glyph glyph-name="_713" unicode="&#x24d6;" 
d="M45 805q0 -156 46.5 -300t132.5 -258t201 -199t258.5 -131t299.5 -46t299.5 46t258.5 131t201 199t132.5 258t46.5 300t-46.5 300t-132.5 258t-201 199t-258.5 131t-299.5 46t-299.5 -46t-258.5 -131t-201 -199t-132.5 -258t-46.5 -300zM250 805q0 158 55.5 297
t152 237.5t232.5 155.5t293 57t293 -57t232.5 -155.5t152 -237.5t55.5 -297t-55.5 -296.5t-152 -237.5t-232.5 -155.5t-293 -56.5t-293 56.5t-232.5 155.5t-152 237.5t-55.5 296.5zM1067 961q0 -115 -24 -163t-80 -48q-57 0 -81 48t-24 163q0 114 24 161t81 47
q56 0 80 -47.5t24 -160.5zM1374 1384h-307v-49q-73 70 -188 70q-158 0 -244 -113t-86 -331t86.5 -331.5t243.5 -113.5q120 0 188 68v-84q0 -113 -84 -113q-73 0 -82 88h-313q19 -148 118.5 -229.5t274.5 -81.5q195 0 294 96.5t99 257.5v866z" />
    <glyph glyph-name="_714" unicode="&#x24d7;" 
d="M45 805q0 -156 46.5 -300t132.5 -258t201 -199t258.5 -131t299.5 -46t299.5 46t258.5 131t201 199t132.5 258t46.5 300t-46.5 300t-132.5 258t-201 199t-258.5 131t-299.5 46t-299.5 -46t-258.5 -131t-201 -199t-132.5 -258t-46.5 -300zM250 805q0 158 55.5 297
t152 237.5t232.5 155.5t293 57t293 -57t232.5 -155.5t152 -237.5t55.5 -297t-55.5 -296.5t-152 -237.5t-232.5 -155.5t-293 -56.5t-293 56.5t-232.5 155.5t-152 237.5t-55.5 296.5zM1411 784q0 166 -74 251t-215 85q-118 0 -190 -69v370h-307v-1171h307v483q0 72 27.5 112
t74.5 40q70 0 70 -103v-532h307v534z" />
    <glyph glyph-name="_715" unicode="&#x24d8;" 
d="M45 805q0 -156 46.5 -300t132.5 -258t201 -199t258.5 -131t299.5 -46t299.5 46t258.5 131t201 199t132.5 258t46.5 300t-46.5 300t-132.5 258t-201 199t-258.5 131t-299.5 46t-299.5 -46t-258.5 -131t-201 -199t-132.5 -258t-46.5 -300zM250 805q0 158 55.5 297
t152 237.5t232.5 155.5t293 57t293 -57t232.5 -155.5t152 -237.5t55.5 -297t-55.5 -296.5t-152 -237.5t-232.5 -155.5t-293 -56.5t-293 56.5t-232.5 155.5t-152 237.5t-55.5 296.5zM825 1143h308v256h-308v-256zM825 227h308v838h-308v-838z" />
    <glyph glyph-name="_716" unicode="&#x24d9;" 
d="M45 805q0 -156 46.5 -300t132.5 -258t201 -199t258.5 -131t299.5 -46t299.5 46t258.5 131t201 199t132.5 258t46.5 300t-46.5 300t-132.5 258t-201 199t-258.5 131t-299.5 46t-299.5 -46t-258.5 -131t-201 -199t-132.5 -258t-46.5 -300zM250 805q0 158 55.5 297
t152 237.5t232.5 155.5t293 57t293 -57t232.5 -155.5t152 -237.5t55.5 -297t-55.5 -296.5t-152 -237.5t-232.5 -155.5t-293 -56.5t-293 56.5t-232.5 155.5t-152 237.5t-55.5 296.5zM874 461q0 -88 -69 -88h-94v-228q49 -6 143 -6q330 0 330 303v699h-310v-680zM874 1221h310
v254h-310v-254z" />
    <glyph glyph-name="_717" unicode="&#x24da;" 
d="M45 805q0 -156 46.5 -300t132.5 -257.5t201 -198.5t258.5 -130.5t299.5 -45.5t299.5 45.5t258.5 130.5t201 198.5t132.5 257.5t46.5 300t-46.5 300t-132.5 258t-201 199t-258.5 131t-299.5 46t-299.5 -46t-258.5 -131t-201 -199t-132.5 -258t-46.5 -300zM250 805
q0 158 55.5 297t152 237.5t232.5 155.5t293 57q208 0 375.5 -97t261.5 -268t94 -382q0 -158 -55.5 -296.5t-151.5 -237t-232 -155.5t-292 -57q-157 0 -293 56.5t-232.5 155.5t-152 237.5t-55.5 296.5zM635 260h307v324l184 -324h328l-252 442l217 408h-323l-154 -289v611
h-307v-1172z" />
    <glyph glyph-name="_718" unicode="&#x24db;" 
d="M45 805q0 -156 46.5 -300t132.5 -258t201 -199t258.5 -131t299.5 -46t299.5 46t258.5 131t201 199t132.5 258t46.5 300t-46.5 300t-132.5 258t-201 199t-258.5 131t-299.5 46t-299.5 -46t-258.5 -131t-201 -199t-132.5 -258t-46.5 -300zM250 805q0 158 55.5 297
t152 237.5t232.5 155.5t293 57t293 -57t232.5 -155.5t152 -237.5t55.5 -297t-55.5 -296.5t-152 -237.5t-232.5 -155.5t-293 -56.5t-293 56.5t-232.5 155.5t-152 237.5t-55.5 296.5zM1141 217v1172h-307v-1172h307z" />
    <glyph glyph-name="_719" unicode="&#x24dc;" 
d="M45 805q0 -156 46.5 -300t132.5 -257.5t201 -198.5t258.5 -130.5t299.5 -45.5t299.5 45.5t258.5 130.5t201 198.5t132.5 257.5t46.5 300t-46.5 300t-132.5 258t-201 199t-258.5 131t-299.5 46t-299.5 -46t-258.5 -131t-201 -199t-132.5 -258t-46.5 -300zM250 805
q0 158 55.5 297t152 237.5t232.5 155.5t293 57q208 0 375.5 -97t261.5 -268t94 -382q0 -158 -55.5 -296.5t-151.5 -237t-232 -155.5t-292 -57q-157 0 -293 56.5t-232.5 155.5t-152 237.5t-55.5 296.5zM1141 860q0 73 22.5 112.5t63.5 39.5q53 0 53 -97v-536h297v534
q0 165 -69 249.5t-203 84.5q-146 0 -222 -106q-66 106 -213 106q-99 0 -165 -59v39h-297v-848h297v481q0 73 21.5 112.5t61.5 39.5q29 0 42.5 -23t13.5 -74v-536h297v481z" />
    <glyph glyph-name="_720" unicode="&#x24dd;" 
d="M45 805q0 -156 46.5 -300t132.5 -258t201 -199t258.5 -131t299.5 -46t299.5 46t258.5 131t201 199t132.5 258t46.5 300t-46.5 300t-132.5 258t-201 199t-258.5 131t-299.5 46t-299.5 -46t-258.5 -131t-201 -199t-132.5 -258t-46.5 -300zM250 805q0 158 55.5 297
t152 237.5t232.5 155.5t293 57t293 -57t232.5 -155.5t152 -237.5t55.5 -297t-55.5 -296.5t-152 -237.5t-232.5 -155.5t-293 -56.5t-293 56.5t-232.5 155.5t-152 237.5t-55.5 296.5zM1382 913q0 166 -74.5 251t-213.5 85q-122 0 -191 -69v49h-307v-850h307v483
q0 73 27.5 112.5t75.5 39.5q67 0 67 -103v-532h309v534z" />
    <glyph glyph-name="_721" unicode="&#x24de;" 
d="M45 805q0 -156 46.5 -300t132.5 -258t201 -199t258.5 -131t299.5 -46t299.5 46t258.5 131t201 199t132.5 258t46.5 300t-46.5 300t-132.5 258t-201 199t-258.5 131t-299.5 46t-299.5 -46t-258.5 -131t-201 -199t-132.5 -258t-46.5 -300zM250 805q0 158 55.5 297
t152 237.5t232.5 155.5t293 57t293 -57t232.5 -155.5t152 -237.5t55.5 -297t-55.5 -296.5t-152 -237.5t-232.5 -155.5t-293 -56.5t-293 56.5t-232.5 155.5t-152 237.5t-55.5 296.5zM881 809q0 109 24.5 158t81.5 49q55 0 79 -48t24 -159q0 -113 -24 -160t-79 -47
q-56 0 -81 47t-25 160zM575 809q0 -213 104 -328.5t308 -115.5q203 0 306.5 115.5t103.5 328.5q0 211 -104 327.5t-306 116.5q-203 0 -307.5 -116.5t-104.5 -327.5z" />
    <glyph glyph-name="_722" unicode="&#x24df;" 
d="M45 805q0 -156 46.5 -300t132.5 -258t201 -199t258.5 -131t299.5 -46t299.5 46t258.5 131t201 199t132.5 258t46.5 300t-46.5 300t-132.5 258t-201 199t-258.5 131t-299.5 46t-299.5 -46t-258.5 -131t-201 -199t-132.5 -258t-46.5 -300zM250 805q0 158 55.5 297
t152 237.5t232.5 155.5t293 57t293 -57t232.5 -155.5t152 -237.5t55.5 -297t-55.5 -296.5t-152 -237.5t-232.5 -155.5t-293 -56.5t-293 56.5t-232.5 155.5t-152 237.5t-55.5 296.5zM932 1358h-307v-1198h307v397q78 -68 188 -68q156 0 242 113t86 332t-86 331.5t-242 112.5
q-111 0 -188 -67v47zM932 934q0 113 24 161t78 48q56 0 81.5 -48t25.5 -161q0 -115 -25 -163t-82 -48q-54 0 -78 48t-24 163z" />
    <glyph glyph-name="_723" unicode="&#x24e0;" 
d="M45 805q0 -156 46.5 -300t132.5 -258t201 -199t258.5 -131t299.5 -46t299.5 46t258.5 131t201 199t132.5 258t46.5 300t-46.5 300t-132.5 258t-201 199t-258.5 131t-299.5 46t-299.5 -46t-258.5 -131t-201 -199t-132.5 -258t-46.5 -300zM250 805q0 158 55.5 297
t152 237.5t232.5 155.5t293 57t293 -57t232.5 -155.5t152 -237.5t55.5 -297t-55.5 -296.5t-152 -237.5t-232.5 -155.5t-293 -56.5t-293 56.5t-232.5 155.5t-152 237.5t-55.5 296.5zM1032 1311q-70 67 -188 67q-157 0 -242.5 -112.5t-85.5 -331.5q0 -220 85.5 -332.5
t242.5 -112.5q120 0 188 68v-397h307v1198h-307v-47zM1032 934q0 -116 -23.5 -163.5t-80.5 -47.5t-81 48t-24 163q0 114 24 161.5t81 47.5q56 0 80 -48t24 -161z" />
    <glyph glyph-name="_724" unicode="&#x24e1;" 
d="M45 805q0 -156 46.5 -300t132.5 -258t201 -199t258.5 -131t299.5 -46t299.5 46t258.5 131t201 199t132.5 258t46.5 300t-46.5 300t-132.5 258t-201 199t-258.5 131t-299.5 46t-299.5 -46t-258.5 -131t-201 -199t-132.5 -258t-46.5 -300zM250 805q0 158 55.5 297
t152 237.5t232.5 155.5t293 57t293 -57t232.5 -155.5t152 -237.5t55.5 -297t-55.5 -296.5t-152 -237.5t-232.5 -155.5t-293 -56.5t-293 56.5t-232.5 155.5t-152 237.5t-55.5 296.5zM1202 975q72 0 90 -4l2 241q-43 19 -88 19q-117 0 -186 -82v61h-295v-850h307v410
q0 101 44 153t126 52z" />
    <glyph glyph-name="_725" unicode="&#x24e2;" 
d="M45 805q0 -156 46.5 -300t132.5 -258t201 -199t258.5 -131t299.5 -46t299.5 46t258.5 131t201 199t132.5 258t46.5 300t-46.5 300t-132.5 258t-201 199t-258.5 131t-299.5 46t-299.5 -46t-258.5 -131t-201 -199t-132.5 -258t-46.5 -300zM250 805q0 158 55.5 297
t152 237.5t232.5 155.5t293 57t293 -57t232.5 -155.5t152 -237.5t55.5 -297t-55.5 -296.5t-152 -237.5t-232.5 -155.5t-293 -56.5t-293 56.5t-232.5 155.5t-152 237.5t-55.5 296.5zM629 641q0 -123 97 -201t271 -78q172 0 271.5 78t99.5 205q0 122 -68.5 184.5t-222.5 92.5
q-12 2 -38 7t-38 7q-69 15 -69 53q0 43 49 43t49 -43v-31h303v29q0 115 -93 189.5t-259 74.5t-259 -76t-93 -198q0 -111 70.5 -173.5t215.5 -92.5q10 -2 38 -9t44 -10q64 -10 64 -59q0 -25 -16.5 -39t-47.5 -14q-29 0 -45 14t-16 39v35h-307v-27z" />
    <glyph glyph-name="_726" unicode="&#x24e3;" 
d="M45 805q0 -156 46.5 -300t132.5 -258t201 -199t258.5 -131t299.5 -46t299.5 46t258.5 131t201 199t132.5 258t46.5 300t-46.5 300t-132.5 258t-201 199t-258.5 131t-299.5 46t-299.5 -46t-258.5 -131t-201 -199t-132.5 -258t-46.5 -300zM250 805q0 158 55.5 297
t152 237.5t232.5 155.5t293 57t293 -57t232.5 -155.5t152 -237.5t55.5 -297t-55.5 -296.5t-152 -237.5t-232.5 -155.5t-293 -56.5t-293 56.5t-232.5 155.5t-152 237.5t-55.5 296.5zM1079 905h205v236h-205v227h-311v-227h-117v-236h117v-334q0 -159 76 -224.5t262 -65.5
q67 0 178 6v229h-108q-58 0 -77.5 17.5t-19.5 70.5v301z" />
    <glyph glyph-name="_727" unicode="&#x24e4;" 
d="M45 805q0 -156 46.5 -300t132.5 -258t201 -199t258.5 -131t299.5 -46t299.5 46t258.5 131t201 199t132.5 258t46.5 300t-46.5 300t-132.5 258t-201 199t-258.5 131t-299.5 46t-299.5 -46t-258.5 -131t-201 -199t-132.5 -258t-46.5 -300zM250 805q0 158 55.5 297
t152 237.5t232.5 155.5t293 57t293 -57t232.5 -155.5t152 -237.5t55.5 -297t-55.5 -296.5t-152 -237.5t-232.5 -155.5t-293 -56.5t-293 56.5t-232.5 155.5t-152 237.5t-55.5 296.5zM573 678q0 -164 75 -249t214 -85q56 0 106 19t83 51v-52h309v850h-309v-481
q0 -72 -27.5 -112.5t-73.5 -40.5q-36 0 -52.5 24.5t-16.5 79.5v530h-308v-534z" />
    <glyph glyph-name="_728" unicode="&#x24e5;" 
d="M45 805q0 -156 46.5 -300t132.5 -258t201 -199t258.5 -131t299.5 -46t299.5 46t258.5 131t201 199t132.5 258t46.5 300t-46.5 300t-132.5 258t-201 199t-258.5 131t-299.5 46t-299.5 -46t-258.5 -131t-201 -199t-132.5 -258t-46.5 -300zM250 805q0 158 55.5 297
t152 237.5t232.5 155.5t293 57t293 -57t232.5 -155.5t152 -237.5t55.5 -297t-55.5 -296.5t-152 -237.5t-232.5 -155.5t-293 -56.5t-293 56.5t-232.5 155.5t-152 237.5t-55.5 296.5zM1124 338l297 850h-319l-129 -467l-131 467h-320l299 -850h303z" />
    <glyph glyph-name="_729" unicode="&#x24e6;" 
d="M45 805q0 -156 46.5 -300t132.5 -258t201 -199t258.5 -131t299.5 -46t299.5 46t258.5 131t201 199t132.5 258t46.5 300t-46.5 300t-132.5 258t-201 199t-258.5 131t-299.5 46t-299.5 -46t-258.5 -131t-201 -199t-132.5 -258t-46.5 -300zM250 805q0 183 72 336l251 -789
h285l121 422l125 -422h287l251 793q74 -157 74 -340q0 -158 -55.5 -296.5t-152 -237.5t-232.5 -155.5t-293 -56.5t-293 56.5t-232.5 155.5t-152 237.5t-55.5 296.5zM1612 1202h-264l-119 -461l-129 461h-236l-129 -461l-117 461h-264q94 162 259.5 256t369.5 94t369 -93.5
t260 -256.5z" />
    <glyph glyph-name="_730" unicode="&#x24e7;" 
d="M45 805q0 -156 46.5 -300t132.5 -257.5t201 -198.5t258.5 -130.5t299.5 -45.5t299.5 45.5t258.5 130.5t201 198.5t132.5 257.5t46.5 300t-46.5 300t-132.5 258t-201 199t-258.5 131t-299.5 46t-299.5 -46t-258.5 -131t-201 -199t-132.5 -258t-46.5 -300zM250 805
q0 158 55.5 297t152 237.5t232.5 155.5t293 57q208 0 375.5 -97t261.5 -268t94 -382q0 -158 -55.5 -296.5t-151.5 -237t-232 -155.5t-292 -57q-157 0 -293 56.5t-232.5 155.5t-152 237.5t-55.5 296.5zM1094 369h325l-241 438l225 412h-324l-96 -222l-96 222h-322l223 -414
l-241 -436h323l113 241z" />
    <glyph glyph-name="_731" unicode="&#x24e8;" 
d="M45 805q0 -156 46.5 -300t132.5 -258t201 -199t258.5 -131t299.5 -46t299.5 46t258.5 131t201 199t132.5 258t46.5 300t-46.5 300t-132.5 258t-201 199t-258.5 131t-299.5 46t-299.5 -46t-258.5 -131t-201 -199t-132.5 -258t-46.5 -300zM250 805q0 158 55.5 297
t152 237.5t232.5 155.5t293 57t293 -57t232.5 -155.5t152 -237.5t55.5 -297t-55.5 -296.5t-152 -237.5t-232.5 -155.5t-293 -56.5q-171 0 -315 66q53 -6 125 -6q134 0 201 51.5t120 202.5l330 942h-320l-127 -457l-133 457h-319l301 -826l-21 -69q-18 -66 -82 -66h-90v-223
q-186 90 -294.5 269t-108.5 405z" />
    <glyph glyph-name="_732" unicode="&#x24e9;" 
d="M45 805q0 -156 46.5 -300t132.5 -257.5t201 -198.5t258.5 -130.5t299.5 -45.5t299.5 45.5t258.5 130.5t201 198.5t132.5 257.5t46.5 300t-46.5 300t-132.5 258t-201 199t-258.5 131t-299.5 46t-299.5 -46t-258.5 -131t-201 -199t-132.5 -258t-46.5 -300zM250 805
q0 158 55.5 297t152 237.5t232.5 155.5t293 57q208 0 375.5 -97t261.5 -268t94 -382q0 -158 -55.5 -296.5t-151.5 -237t-232 -155.5t-292 -57q-157 0 -293 56.5t-232.5 155.5t-152 237.5t-55.5 296.5zM1325 1229h-692v-238h305l-317 -411v-201h714v235h-329l319 412v203z
" />
    <glyph glyph-name="_519" unicode="&#x2500;" 
d="M1966 854h-1966v-121h1966v121z" />
    <glyph glyph-name="_530" unicode="&#x2501;" 
d="M0 891v-193h1966v193h-1966z" />
    <glyph glyph-name="_520" unicode="&#x2502;" 
d="M924 1819v-2048h120v2048h-120z" />
    <glyph glyph-name="_531" unicode="&#x2503;" 
d="M887 1819v-2048h192v2048h-192z" />
    <glyph glyph-name="_521" unicode="&#x250c;" 
d="M924 -229h120v962h922v121h-1042v-1083z" />
    <glyph glyph-name="_558" unicode="&#x250d;" 
d="M944 891v-1120h76v927h946v193h-1022z" />
    <glyph glyph-name="_557" unicode="&#x250e;" 
d="M1079 756h887v73h-1079v-1058h192v985z" />
    <glyph glyph-name="_532" unicode="&#x250f;" 
d="M887 891v-1120h192v927h887v193h-1079z" />
    <glyph glyph-name="_522" unicode="&#x2510;" 
d="M1044 854h-1044v-121h924v-962h120v1083z" />
    <glyph glyph-name="_552" unicode="&#x2511;" 
d="M944 698v-927h76v1120h-1020v-193h944z" />
    <glyph glyph-name="_551" unicode="&#x2512;" 
d="M887 756v-985h192v1058h-1079v-73h887z" />
    <glyph glyph-name="_533" unicode="&#x2513;" 
d="M0 891v-193h887v-927h192v1120h-1079z" />
    <glyph glyph-name="_524" unicode="&#x2514;" 
d="M924 733h1042v121h-922v965h-120v-1086z" />
    <glyph glyph-name="_556" unicode="&#x2515;" 
d="M1020 891v928h-76v-1121h1022v193h-946z" />
    <glyph glyph-name="_555" unicode="&#x2516;" 
d="M1079 829v990h-192v-1063h1079v73h-887z" />
    <glyph glyph-name="_535" unicode="&#x2517;" 
d="M887 1819v-1121h1079v193h-887v928h-192z" />
    <glyph glyph-name="_523" unicode="&#x2518;" 
d="M1044 1819h-120v-965h-924v-121h1044v1086z" />
    <glyph glyph-name="_554" unicode="&#x2519;" 
d="M944 891h-944v-193h1020v1121h-76v-928z" />
    <glyph glyph-name="_553" unicode="&#x251a;" 
d="M887 829h-887v-73h1079v1063h-192v-990z" />
    <glyph glyph-name="_534" unicode="&#x251b;" 
d="M887 1819v-928h-887v-193h1079v1121h-192z" />
    <glyph glyph-name="_525" unicode="&#x251c;" 
d="M924 1819v-2048h120v962h922v121h-922v965h-120z" />
    <glyph glyph-name="_546" unicode="&#x251d;" 
d="M1966 891h-946v928h-76v-2048h76v927h946v193z" />
    <glyph glyph-name="_559" unicode="&#x251e;" 
d="M887 1819v-1063h57v-985h76v985h946v73h-887v990h-192z" />
    <glyph glyph-name="_560" unicode="&#x251f;" 
d="M944 1819v-990h-57v-1058h192v985h887v73h-946v990h-76z" />
    <glyph glyph-name="_541" unicode="&#x2520;" 
d="M1966 829h-887v990h-192v-2048h192v985h887v73z" />
    <glyph glyph-name="_561" unicode="&#x2521;" 
d="M944 -229h76v927h946v193h-887v928h-192v-1121h57v-927z" />
    <glyph glyph-name="_562" unicode="&#x2522;" 
d="M887 -229h192v927h887v193h-946v928h-76v-928h-57v-1120z" />
    <glyph glyph-name="_536" unicode="&#x2523;" 
d="M887 1819v-2048h192v927h887v193h-887v928h-192z" />
    <glyph glyph-name="_527" unicode="&#x2524;" 
d="M1044 1819h-120v-965h-924v-121h924v-962h120v2048z" />
    <glyph glyph-name="_548" unicode="&#x2525;" 
d="M944 891h-944v-193h944v-927h76v2048h-76v-928z" />
    <glyph glyph-name="_563" unicode="&#x2526;" 
d="M887 1819v-990h-887v-73h944v-985h76v985h59v1063h-192z" />
    <glyph glyph-name="_564" unicode="&#x2527;" 
d="M0 829v-73h887v-985h192v1058h-59v990h-76v-990h-944z" />
    <glyph glyph-name="_543" unicode="&#x2528;" 
d="M1079 -229v2048h-192v-990h-887v-73h887v-985h192z" />
    <glyph glyph-name="_565" unicode="&#x2529;" 
d="M0 698h944v-927h76v927h59v1121h-192v-928h-887v-193z" />
    <glyph glyph-name="_566" unicode="&#x252a;" 
d="M0 698h887v-927h192v1120h-59v928h-76v-928h-944v-193z" />
    <glyph glyph-name="_538" unicode="&#x252b;" 
d="M0 698h887v-927h192v2048h-192v-928h-887v-193z" />
    <glyph glyph-name="_526" unicode="&#x252c;" 
d="M1966 854h-1966v-121h924v-962h120v962h922v121z" />
    <glyph glyph-name="_567" unicode="&#x252d;" 
d="M0 698h944v-927h76v985h946v73h-946v62h-1020v-193z" />
    <glyph glyph-name="_568" unicode="&#x252e;" 
d="M0 756h944v-985h76v927h946v193h-1022v-62h-944v-73z" />
    <glyph glyph-name="_542" unicode="&#x252f;" 
d="M1966 891h-1966v-193h944v-927h76v927h946v193z" />
    <glyph glyph-name="_547" unicode="&#x2530;" 
d="M1966 829h-1966v-73h887v-985h192v985h887v73z" />
    <glyph glyph-name="_569" unicode="&#x2531;" 
d="M0 698h887v-927h192v985h887v73h-887v62h-1079v-193z" />
    <glyph glyph-name="_570" unicode="&#x2532;" 
d="M0 756h887v-985h192v927h887v193h-1079v-62h-887v-73z" />
    <glyph glyph-name="_537" unicode="&#x2533;" 
d="M0 698h887v-927h192v927h887v193h-1966v-193z" />
    <glyph glyph-name="_528" unicode="&#x2534;" 
d="M1966 733v121h-922v965h-120v-965h-924v-121h1966z" />
    <glyph glyph-name="_571" unicode="&#x2535;" 
d="M0 698h1020v58h946v73h-946v990h-76v-928h-944v-193z" />
    <glyph glyph-name="_572" unicode="&#x2536;" 
d="M0 756h944v-58h1022v193h-946v928h-76v-990h-944v-73z" />
    <glyph glyph-name="_544" unicode="&#x2537;" 
d="M944 891h-944v-193h1966v193h-946v928h-76v-928z" />
    <glyph glyph-name="_549" unicode="&#x2538;" 
d="M887 829h-887v-73h1966v73h-887v990h-192v-990z" />
    <glyph glyph-name="_573" unicode="&#x2539;" 
d="M0 698h1079v58h887v73h-887v990h-192v-928h-887v-193z" />
    <glyph glyph-name="_574" unicode="&#x253a;" 
d="M0 756h887v-58h1079v193h-887v928h-192v-990h-887v-73z" />
    <glyph glyph-name="_539" unicode="&#x253b;" 
d="M887 891h-887v-193h1966v193h-887v928h-192v-928z" />
    <glyph glyph-name="_529" unicode="&#x253c;" 
d="M924 1819v-965h-924v-121h924v-962h120v962h922v121h-922v965h-120z" />
    <glyph glyph-name="_575" unicode="&#x253d;" 
d="M0 698h944v-927h76v985h946v73h-946v990h-76v-928h-944v-193z" />
    <glyph glyph-name="_576" unicode="&#x253e;" 
d="M1020 1819h-76v-990h-944v-73h944v-985h76v927h946v193h-946v928z" />
    <glyph glyph-name="_545" unicode="&#x253f;" 
d="M944 891h-944v-193h944v-927h76v927h946v193h-946v928h-76v-928z" />
    <glyph glyph-name="_577" unicode="&#x2540;" 
d="M1079 1819h-192v-990h-887v-73h944v-985h76v985h946v73h-887v990z" />
    <glyph glyph-name="_578" unicode="&#x2541;" 
d="M1020 1819h-76v-990h-944v-73h887v-985h192v985h887v73h-946v990z" />
    <glyph glyph-name="_550" unicode="&#x2542;" 
d="M887 829h-887v-73h887v-985h192v985h887v73h-887v990h-192v-990z" />
    <glyph glyph-name="_579" unicode="&#x2543;" 
d="M1079 1819h-192v-928h-887v-193h944v-927h76v927h59v58h887v73h-887v990z" />
    <glyph glyph-name="_580" unicode="&#x2544;" 
d="M1020 -229v927h946v193h-887v928h-192v-990h-887v-73h887v-58h57v-927h76z" />
    <glyph glyph-name="_581" unicode="&#x2545;" 
d="M1020 1819h-76v-928h-944v-193h887v-927h192v985h887v73h-887v62h-59v928z" />
    <glyph glyph-name="_582" unicode="&#x2546;" 
d="M1020 1819h-76v-928h-57v-62h-887v-73h887v-985h192v925h887v195h-946v928z" />
    <glyph glyph-name="_583" unicode="&#x2547;" 
d="M1079 1819h-192v-928h-887v-193h944v-927h76v927h946v193h-887v928z" />
    <glyph glyph-name="_584" unicode="&#x2548;" 
d="M1020 1819h-76v-928h-944v-193h887v-927h192v927h887v193h-946v928z" />
    <glyph glyph-name="_585" unicode="&#x2549;" 
d="M1079 1819h-192v-928h-887v-193h887v-927h192v985h887v73h-887v990z" />
    <glyph glyph-name="_586" unicode="&#x254a;" 
d="M1079 1819h-192v-990h-887v-73h887v-985h192v927h887v193h-887v928z" />
    <glyph glyph-name="_540" unicode="&#x254b;" 
d="M887 891h-887v-193h887v-927h192v927h887v193h-887v928h-192v-928z" />
    <glyph glyph-name="_232" unicode="&#x2592;" 
d="M909 160h140v143h-140v-143zM1276 303v-143h137v143h-137zM1233 160v143h-141v-143h141zM684 160v143h-137v-143h137zM500 160v143h-138v-143h138zM864 160v143h-139v-143h139zM1458 303v-143h137v143h-137zM909 348h140v141h-140v-141zM1276 489v-141h137v141h-137z
M1233 348v141h-141v-141h141zM684 348v141h-137v-141h137zM500 348v141h-138v-141h138zM864 348v141h-139v-141h139zM1458 489v-141h137v141h-137zM909 532h140v144h-140v-144zM1276 676v-144h137v144h-137zM1233 532v144h-141v-144h141zM684 532v144h-137v-144h137z
M500 532v144h-138v-144h138zM864 532v144h-139v-144h139zM1458 676v-144h137v144h-137zM909 717h140v147h-140v-147zM1276 864v-147h137v147h-137zM1233 717v147h-141v-147h141zM684 717v147h-137v-147h137zM500 717v147h-138v-147h138zM864 717v147h-139v-147h139z
M1458 864v-147h137v147h-137zM909 907h140v144h-140v-144zM1276 1051v-144h137v144h-137zM1233 907v144h-141v-144h141zM684 907v144h-137v-144h137zM500 907v144h-138v-144h138zM864 907v144h-139v-144h139zM1458 1051v-144h137v144h-137zM909 1092h140v143h-140v-143z
M1276 1235v-143h137v143h-137zM1233 1092v143h-141v-143h141zM684 1092v143h-137v-143h137zM500 1092v143h-138v-143h138zM864 1092v143h-139v-143h139zM1458 1235v-143h137v143h-137zM909 1278h140v143h-140v-143zM1276 1421v-143h137v143h-137zM1233 1278v143h-141v-143
h141zM684 1278v143h-137v-143h137zM500 1278v143h-138v-143h138zM864 1278v143h-139v-143h139zM1458 1421v-143h137v143h-137zM1778 6v1575h-1590v-1575h1590zM319 115v1347h1323v-1347h-1323z" />
    <glyph glyph-name="_165" unicode="&#x25a0;" 
d="M1774 20v1567h-1581v-1567h1581z" />
    <glyph glyph-name="_164" unicode="&#x25a1;" 
d="M410 225v1159h1146v-1159h-1146zM1774 20v1567h-1581v-1567h1581z" />
    <glyph glyph-name="_229" unicode="&#x25a3;" 
d="M410 225v1159h1146v-1159h-1146zM1774 20v1567h-1581v-1567h1581zM1348 436v735h-732v-735h732z" />
    <glyph glyph-name="_233" unicode="&#x25a4;" 
d="M1778 6v1575h-1590v-1575h1590zM319 842h1323v-105h-1323v105zM319 414h1323v-101h-1323v101zM319 623h1323v-99h-1323v99zM319 1053h1323v-99h-1323v99zM319 1266h1323v-101h-1323v101zM319 115v88h1323v-88h-1323zM1642 1376h-1323v86h1323v-86z" />
    <glyph glyph-name="_234" unicode="&#x25a5;" 
d="M1778 6v1575h-1590v-1575h1590zM520 1462h96v-1347h-96v1347zM932 1462h96v-1347h-96v1347zM1343 1462h97v-1347h-97v1347zM727 1462h94v-1347h-94v1347zM1139 1462h94v-1347h-94v1347zM1554 115v1347h88v-1347h-88zM319 1462h89v-1347h-89v1347z" />
    <glyph glyph-name="_237" unicode="&#x25a6;" 
d="M1778 6v1575h-1590v-1575h1590zM928 846h104v-113h-104v113zM516 846h105v-113h-105v113zM1339 846h105v-113h-105v113zM1135 846h102v-113h-102v113zM723 846h102v-113h-102v113zM928 627h104v-107h-104v107zM928 418h104v-109h-104v109zM928 1057h104v-107h-104v107z
M928 1270h104v-109h-104v109zM516 1057h105v-107h-105v107zM516 418h105v-109h-105v109zM516 627h105v-107h-105v107zM516 1270h105v-109h-105v109zM1339 418h105v-109h-105v109zM1339 627h105v-107h-105v107zM1339 1057h105v-107h-105v107zM1339 1270h105v-109h-105v109z
M1135 418h102v-109h-102v109zM1135 1057h102v-107h-102v107zM1135 1270h102v-109h-102v109zM1135 627h102v-107h-102v107zM723 418h102v-109h-102v109zM723 627h102v-107h-102v107zM723 1057h102v-107h-102v107zM723 1270h102v-109h-102v109zM319 846h93v-113h-93v113z
M1550 846h92v-113h-92v113zM319 418h93v-109h-93v109zM319 1057h93v-107h-93v107zM319 1270h93v-109h-93v109zM1550 627h92v-107h-92v107zM1550 1057h92v-107h-92v107zM1550 418h92v-109h-92v109zM1550 1270h92v-109h-92v109zM319 627h93v-107h-93v107zM928 207h104v-92
h-104v92zM1339 207h105v-92h-105v92zM516 207h105v-92h-105v92zM516 1462h105v-90h-105v90zM928 1462h104v-90h-104v90zM1339 1462h105v-90h-105v90zM1135 207h102v-92h-102v92zM723 207h102v-92h-102v92zM1135 1462h102v-90h-102v90zM723 1462h102v-90h-102v90zM1550 115
v92h92v-92h-92zM319 207h93v-92h-93v92zM319 1462h93v-90h-93v90zM1642 1372h-92v90h92v-90z" />
    <glyph glyph-name="_236" unicode="&#x25a7;" 
d="M1778 6v1575h-1590v-1575h1590zM1645 209l-1254 1253h129l1125 -1122v-131zM1458 115l-1136 1136v127l1261 -1263h-125zM1165 115l-843 843v136l978 -979h-135zM1645 496l-969 966h135l834 -831v-135zM872 115l-550 555v131l686 -686h-136zM1645 778l-684 684h133
l551 -549v-135zM582 115l-260 264v135l393 -399h-133zM1645 1069l-394 393h131l263 -262v-131zM1645 1356l-105 106h105v-106zM322 115v108l102 -108h-102z" />
    <glyph glyph-name="_235" unicode="&#x25a8;" 
d="M1778 6v1575h-1590v-1575h1590zM322 340l1124 1122h129l-1253 -1253v131zM383 115l1262 1263v-127l-1137 -1136h-125zM666 115l979 979v-136l-844 -843h-135zM322 631l833 831h133l-966 -966v135zM958 115l687 686v-131l-551 -555h-136zM322 913l550 549h134l-684 -684
v135zM1251 115l394 399v-135l-261 -264h-133zM322 1200l262 262h131l-393 -393v131zM322 1462h104l-104 -106v106zM1542 115l103 108v-108h-103z" />
    <glyph glyph-name="_238" unicode="&#x25a9;" 
d="M1778 6v1575h-1590v-1575h1590zM477 795l76 75l76 -75l-76 -76zM1128 293l76 -76l-76 -76l-75 76zM336 936l76 76l75 -76l-75 -76zM907 365l76 75l76 -75l-76 -76zM836 293l75 -76l-75 -76l-74 78zM1552 1010l78 -74l-76 -76l-75 76zM907 1225l74 73l76 -75l-74 -74z
M1411 868l76 -75l-74 -74l-76 76zM1049 1366l75 74l74 -76l-74 -74zM766 1366l76 74l73 -76l-73 -74zM332 649l74 74l75 -76l-73 -74zM1483 647l76 76l73 -74l-76 -76zM1556 434l76 -76l-71 -73l-76 75zM332 358l76 76l73 -74l-75 -75zM1266 723l75 -76l-71 -72l-76 76z
M623 647l75 76l74 -72l-76 -76zM694 1294l76 -75l-72 -72l-75 76zM764 1081l72 72l75 -76l-71 -71zM477 504l76 74l72 -74l-74 -74zM1413 578l74 -74l-72 -74l-76 74zM1053 1077l75 76l72 -74l-74 -73zM1270 1294l71 -73l-73 -74l-74 72zM1124 582l76 -76l-72 -72l-75 76z
M553 1153l76 -76l-72 -71l-76 75zM623 940l71 72l76 -76l-72 -72zM1272 436l74 -76l-70 -71l-76 76zM1415 291l76 -76l-70 -72l-75 76zM479 1366l72 72l74 -74l-72 -72zM1339 1364l74 74l74 -72l-74 -74zM766 506l76 76l69 -72l-75 -76zM549 289l72 -70l-76 -76l-70 72z
M983 1008l72 -74l-72 -72l-74 72zM410 1296l73 -73l-71 -72l-74 74zM621 360l73 74l72 -69l-76 -76zM1196 936l74 74l71 -70l-75 -76zM1337 1077l74 74l72 -70l-76 -75zM842 866l71 -73l-71 -72l-72 74zM1483 1223l73 73l70 -71l-74 -74zM1053 793l71 71l72 -69l-74 -74z
M911 651l72 72l72 -70l-72 -71zM950 115l33 32l33 -32h-66zM1243 115l33 32l33 -32h-66zM657 115l33 32l33 -32h-66zM983 1432l-31 30h62zM1534 115l27 28l30 -28h-57zM375 115l28 28l29 -28h-57zM1270 1436l-27 26h53zM696 1436l-26 26h53zM408 1436l-25 26h51zM1556 1436
l-24 26h51zM322 1102l20 -21l-20 -20v41zM1645 1061l-21 20l21 21v-41zM322 1386l18 -20l-18 -18v38zM322 809l18 -21l-18 -18v39zM1645 1348l-21 18l21 20v-38zM1645 770l-21 18l21 21v-39zM322 522l16 -18l-16 -17v35zM1645 487l-19 17l19 18v-35zM322 231l14 -16l-14 -14
v30zM1645 201l-17 14l17 16v-30z" />
    <glyph glyph-name="_8736" unicode="&#x25b1;" 
d="M266 350l232 936h1202l-234 -936h-1200zM559 1212l-199 -784h1045l199 784h-1045z" />
    <glyph glyph-name="_167" unicode="&#x25b2;" 
d="M983 1673l-940 -1644h1880z" />
    <glyph glyph-name="_166" unicode="&#x25b3;" 
d="M983 1673l-940 -1644h1880zM983 1264l580 -1035h-1160z" />
    <glyph glyph-name="_8780" unicode="&#x25b5;" 
d="M248 238l737 1247l731 -1247h-1468zM1413 412l-428 729l-434 -729h862z" />
    <glyph glyph-name="_220" unicode="&#x25b6;" 
d="M221 1747v-1880l1645 940z" />
    <glyph glyph-name="_219" unicode="&#x25b7;" 
d="M221 1747v-1880l1645 940zM451 229v1157l1013 -579z" />
    <glyph glyph-name="_8781" unicode="&#x25b9;" 
d="M356 1532l1252 -731l-1252 -733v1464zM530 371l732 430l-732 428v-858z" />
    <glyph glyph-name="_169" unicode="&#x25bc;" 
d="M1923 1559h-1880l940 -1645z" />
    <glyph glyph-name="_168" unicode="&#x25bd;" 
d="M1923 1559h-1880l940 -1645zM403 1358h1160l-580 -1034z" />
    <glyph glyph-name="_8779" unicode="&#x25bf;" 
d="M1716 1360l-731 -1245l-737 1245h1468zM551 1188l434 -729l428 729h-862z" />
    <glyph glyph-name="_218" unicode="&#x25c0;" 
d="M98 807l1645 -940v1880z" />
    <glyph glyph-name="_217" unicode="&#x25c1;" 
d="M98 807l1645 -940v1880zM500 807l1016 579v-1157z" />
    <glyph glyph-name="_8782" unicode="&#x25c3;" 
d="M1608 68l-1252 733l1252 731v-1464zM1434 1229l-732 -428l732 -430v858z" />
    <glyph glyph-name="_163" unicode="&#x25c6;" 
d="M983 1790l-942 -995l942 -994l942 994z" />
    <glyph glyph-name="_162" unicode="&#x25c7;" 
d="M983 1790l-942 -995l942 -994l942 994zM983 1489l653 -694l-653 -695l-657 695z" />
    <glyph glyph-name="_228" unicode="&#x25c8;" 
d="M983 1790l-942 -995l942 -994l942 994zM983 1489l653 -694l-653 -695l-657 695zM559 795l424 -449l420 449l-420 448z" />
    <glyph glyph-name="_8787" unicode="&#x25ca;" 
d="M1702 801l-717 -848l-721 848l721 848zM455 801l530 -623l526 623l-526 622z" />
    <glyph glyph-name="_159" unicode="&#x25cb;" 
d="M1903 799q0 191 -70.5 361.5t-192.5 293t-293 193.5t-364 71q-194 0 -365 -71t-292.5 -193t-192 -292.5t-70.5 -362.5t70 -362.5t191.5 -293t292.5 -193.5t366 -71q259 0 470 121t330.5 331.5t119.5 467.5zM1683 799q0 -203 -88.5 -367t-249 -258t-362.5 -94
q-201 0 -361 94t-248.5 258t-88.5 367q0 202 88.5 365.5t248.5 257.5t361 94q202 0 362.5 -94t249 -257.5t88.5 -365.5z" />
    <glyph glyph-name="_8639" unicode="&#x25cc;" 
d="M748 1649l18 -68q-106 -31 -178 -76l-39 64q102 55 199 80zM436 1491l43 -55q-87 -73 -137 -146l-61 51q96 104 155 150zM213 1233l63 -37q-28 -52 -75 -180l-70 14q25 106 82 203zM109 907l69 -6q-10 -62 -10 -100q0 -29 8 -99l-72 -8q-4 35 -4 107q0 64 9 106zM133 567
l68 19q31 -102 75 -183l-63 -34q-59 102 -80 198zM285 260l57 45q50 -65 137 -141l-43 -55q-80 68 -151 151zM588 96q68 -44 178 -73l-21 -70q-98 25 -196 80q37 59 39 63zM1087 1675l-8 -71q-66 8 -94 8q-21 0 -55.5 -3.5t-48.5 -4.5l-7 69q35 8 111 8q67 0 102 -6z
M1221 -47l-21 70q101 27 180 75l37 -65q-104 -56 -196 -80zM1526 102l-43 60q3 3 20.5 18.5t22 20t19 18.5t21.5 21t18 18.5t19.5 21.5t16.5 21l57 -45q-75 -92 -151 -154zM1753 369l-61 39q43 77 73 178l68 -19q-31 -114 -80 -198zM1858 694l-70 6q10 46 10 101
q0 40 -10 98l70 8q8 -49 8 -106q0 -72 -8 -107zM1833 1030l-68 -16q-29 97 -73 180l61 39q61 -115 80 -203zM1681 1346l-59 -50q-55 71 -139 142l45 55q68 -55 153 -147zM1378 1505q-96 54 -178 74l21 70q92 -24 196 -80q-1 0 -18.5 -29.5t-20.5 -34.5zM874 -78l7 78
q87 -10 96 -10q32 0 102 8l8 -72q-37 -6 -110 -6q-70 0 -103 2z" />
    <glyph glyph-name="_161" unicode="&#x25ce;" 
d="M373 799q0 -170 81 -311t221 -221.5t308 -80.5t308 80.5t221 221.5t81 311q0 127 -48 240.5t-129.5 194.5t-194 128t-238.5 47t-238.5 -47t-194 -128t-129.5 -194.5t-48 -240.5zM1397 799q0 -191 -116.5 -315t-297.5 -124t-297.5 124t-116.5 315t116.5 313.5t297.5 122.5
t297.5 -122.5t116.5 -313.5zM1903 799q0 191 -70.5 361.5t-192.5 293t-293 193.5t-364 71q-194 0 -365 -71t-292.5 -193t-192 -292.5t-70.5 -362.5t70 -362.5t191.5 -293t292.5 -193.5t366 -71q259 0 470 121t330.5 331.5t119.5 467.5zM1704 799q0 -153 -55 -289.5
t-150.5 -235t-229.5 -156t-286 -57.5q-151 0 -285 57.5t-229 156t-150 235t-55 289.5q0 204 93.5 372.5t259 266.5t366.5 98q202 0 368 -98t259.5 -266.5t93.5 -372.5z" />
    <glyph glyph-name="_160" unicode="&#x25cf;" 
d="M1903 799q0 191 -70.5 361.5t-192.5 293t-293 193.5t-364 71q-194 0 -365 -71t-292.5 -193t-192 -292.5t-70.5 -362.5t70 -362.5t191.5 -293t292.5 -193.5t366 -71q259 0 470 121t330.5 331.5t119.5 467.5z" />
    <glyph glyph-name="_230" unicode="&#x25d0;" 
d="M1903 799q0 191 -70.5 361.5t-192.5 293t-293 193.5t-364 71q-194 0 -365 -71t-292.5 -193t-192 -292.5t-70.5 -362.5t70 -362.5t191.5 -293t292.5 -193.5t366 -71q259 0 470 121t330.5 331.5t119.5 467.5zM1683 799q0 -203 -88.5 -367t-249 -258t-362.5 -94v1436
q202 0 362.5 -94t249 -257.5t88.5 -365.5z" />
    <glyph glyph-name="_231" unicode="&#x25d1;" 
d="M1901 799q0 191 -70.5 361t-191.5 292t-292 193t-364 71q-194 0 -365 -71t-292.5 -193t-192 -292t-70.5 -361q0 -193 70 -363t191.5 -292t292.5 -192.5t366 -70.5q258 0 468.5 120t330 330.5t119.5 467.5zM285 799q0 202 88.5 365.5t248.5 257.5t361 94v-1434
q-201 0 -361 93t-248.5 256.5t-88.5 367.5z" />
    <glyph glyph-name="_8775" unicode="&#x25e6;" 
d="M985 1454q175 0 326 -88.5t240 -239t89 -325.5q0 -132 -52.5 -254t-141 -210.5t-209.5 -141t-252 -52.5q-133 0 -254.5 52.5t-210 141t-141.5 210t-53 254.5q0 175 89 325.5t241 239t329 88.5zM985 1284q-202 0 -345.5 -142.5t-143.5 -340.5q0 -133 65.5 -245.5
t178 -177.5t245.5 -65q131 0 242.5 65t177 177.5t65.5 245.5q0 198 -143 340.5t-342 142.5z" />
    </font>
</defs>
</svg>
