<?xml version="1.0" standalone="no"?>
<!DOCTYPE svg PUBLIC "-//W3C//DTD SVG 1.1//EN" "http://www.w3.org/Graphics/SVG/1.1/DTD/svg11.dtd" >
<svg xmlns="http://www.w3.org/2000/svg" xmlns:xlink="http://www.w3.org/1999/xlink" version="1.1">
<metadata>
Created by FontForge 20170731 at Fri Dec 10 02:39:10 2021
 By Aleksey,,,
Copyright (c) 2018 by S-Core Co., Ltd.. All rights reserved.
</metadata>
<defs>
<font id="S-CoreDream-5Medium" horiz-adv-x="1966" >
  <font-face 
    font-family="S-Core Dream 5 Medium"
    font-weight="500"
    font-stretch="normal"
    units-per-em="2048"
    panose-1="2 11 5 3 3 3 2 2 2 4"
    ascent="1638"
    descent="-410"
    x-height="1149"
    cap-height="1608"
    bbox="-66 -547 2464 2097"
    underline-thickness="102"
    underline-position="-307"
    unicode-range="U+0020-FFE6"
  />
<missing-glyph horiz-adv-x="595" 
 />
    <glyph glyph-name=".notdef" horiz-adv-x="595" 
 />
    <glyph glyph-name=".null" horiz-adv-x="0" 
 />
    <glyph glyph-name="nonmarkingreturn" horiz-adv-x="682" 
 />
    <glyph glyph-name="_1" unicode=" " horiz-adv-x="595" 
 />
    <glyph glyph-name="_2" unicode="!" horiz-adv-x="638" 
d="M434 1608v-281l-22 -881h-185l-22 881v281h229zM436 242v-240h-233v240h233z" />
    <glyph glyph-name="_3" unicode="&#x22;" horiz-adv-x="937" 
d="M737 1149h-207v459h207v-459zM406 1149h-207v459h207v-459z" />
    <glyph glyph-name="_4" unicode="#" horiz-adv-x="1501" 
d="M739 2l95 436h-326l-96 -436h-205l94 436h-231v183h268l82 368h-273v182h310l98 437h207l-96 -437h325l96 437h207l-96 -437h234v-182h-271l-84 -368h277v-183h-314l-94 -436h-207zM627 989l-82 -368h325l82 368h-325z" />
    <glyph glyph-name="_5" unicode="$" horiz-adv-x="1296" 
d="M1212 446q0 -194 -129.5 -320.5t-355.5 -145.5v-177h-166v179q-216 23 -337.5 148t-121.5 316v33h238v-39q0 -96 58.5 -163t162.5 -89v545q-8 2 -24.5 5t-24.5 5q-196 41 -303 151.5t-107 293.5q0 177 120.5 301t338.5 141v176h166v-180q136 -17 233.5 -80.5t145 -155.5
t47.5 -202v-25h-240v25q0 84 -48 143t-138 84v-495q239 -44 362 -159t123 -315zM973 440q0 207 -246 260v-516q116 17 181 85.5t65 170.5zM340 1188q0 -97 53.5 -154.5t167.5 -83.5v471q-106 -15 -163.5 -77t-57.5 -156z" />
    <glyph glyph-name="_6" unicode="%" horiz-adv-x="1816" 
d="M676 2h-195l660 1606h192zM780 1202q0 -216 -86 -325t-248 -109q-165 0 -249 110t-84 324q0 211 84.5 321.5t248.5 110.5q160 0 247 -109.5t87 -322.5zM586 1202q0 145 -34 206.5t-106 61.5q-75 0 -108 -61t-33 -207q0 -149 32.5 -209.5t108.5 -60.5q74 0 107 61t33 209z
M1038 408q0 213 86 323.5t246 110.5t246 -112t86 -322q0 -212 -85.5 -322.5t-246.5 -110.5t-246.5 109t-85.5 324zM1229 408q0 -151 33.5 -210t107.5 -59q73 0 107 60.5t34 208.5q0 144 -34 206t-107 62q-74 0 -107.5 -60.5t-33.5 -207.5z" />
    <glyph glyph-name="_7" unicode="&#x26;" horiz-adv-x="1472" 
d="M1337 799q-12 -308 -123 -504l269 -293h-287l-119 131q-164 -158 -442 -158q-244 0 -388.5 127t-144.5 340q0 290 279 459q-160 160 -160 356q0 175 115.5 276t304.5 101q187 0 303.5 -99.5t116.5 -268.5v-54h-232v48q0 83 -50 129.5t-138 46.5t-138 -46.5t-50 -129.5
q0 -66 26 -123t92 -129l480 -529q45 121 55 320h231zM637 174q200 0 297 117l-426 469q-176 -117 -176 -314q0 -130 86.5 -201t218.5 -71z" />
    <glyph glyph-name="_8" unicode="'" horiz-adv-x="534" 
d="M371 1149h-207v459h207v-459z" />
    <glyph glyph-name="_9" unicode="(" horiz-adv-x="714" 
d="M164 797q0 186 10.5 332t30 255t52 187.5t71.5 129.5t94 80.5t114 41.5t136 12v-197q-52 0 -88.5 -11.5t-70.5 -43.5t-55.5 -90t-38 -151t-23.5 -227.5t-7 -317.5q0 -184 7 -318.5t23.5 -227.5t38 -151.5t55.5 -90t70.5 -43t88.5 -11.5v-199q-77 0 -136 12t-114 41.5
t-94 81t-71.5 130t-52 188t-30 255.5t-10.5 333z" />
    <glyph glyph-name="_10" unicode=")" horiz-adv-x="716" 
d="M553 797q0 -187 -10.5 -333t-30.5 -255.5t-52.5 -188t-72 -130t-95 -81t-114.5 -41.5t-137 -12v199q45 0 77.5 8t64 30t53 61.5t39.5 101.5t28.5 151.5t16.5 210.5t6 279q0 219 -11.5 369.5t-32 244t-57.5 143.5t-78.5 67t-105.5 17v197q78 0 137 -12t114.5 -41.5
t95 -80.5t72 -129.5t52.5 -187.5t30.5 -255t10.5 -332z" />
    <glyph glyph-name="_11" unicode="*" horiz-adv-x="1134" 
d="M72 915l104 181l309 -209l-22 375h207l-23 -375l309 209l105 -181l-336 -165l336 -166l-105 -178l-309 204l23 -370h-207l22 370l-309 -204l-104 178l334 166z" />
    <glyph glyph-name="_12" unicode="+" horiz-adv-x="1200" 
d="M102 655v189h394v418h209v-418h393v-189h-393v-417h-209v417h-394z" />
    <glyph glyph-name="_13" unicode="," horiz-adv-x="630" 
d="M180 -262v112q133 6 133 152h-125v270h252v-290q0 -110 -67.5 -172.5t-192.5 -71.5z" />
    <glyph glyph-name="_14" unicode="-" horiz-adv-x="905" 
d="M102 649v199h701v-199h-701z" />
    <glyph glyph-name="_15" unicode="." horiz-adv-x="630" 
d="M442 274v-272h-254v272h254z" />
    <glyph glyph-name="_16" unicode="/" horiz-adv-x="972" 
d="M973 1798l-750 -2009h-225l752 2009h223z" />
    <glyph glyph-name="_17" unicode="0" horiz-adv-x="1261" 
d="M1161 805q0 -273 -38.5 -431.5t-125.5 -254.5q-135 -144 -366 -144q-237 0 -369 144q-87 96 -125.5 254.5t-38.5 431.5t38.5 431.5t125.5 254.5q131 143 369 143q232 0 366 -143q87 -96 125.5 -254.5t38.5 -431.5zM930 805q0 230 -20.5 351.5t-71.5 184.5q-79 95 -207 95
q-130 0 -209 -95q-51 -63 -72.5 -185t-21.5 -351t21.5 -351.5t72.5 -185.5q79 -94 209 -94q128 0 207 94q51 63 71.5 185t20.5 352z" />
    <glyph glyph-name="_18" unicode="1" horiz-adv-x="1261" 
d="M872 2h-231v1362l-377 -168v225l412 187h196v-1606z" />
    <glyph glyph-name="_19" unicode="2" horiz-adv-x="1261" 
d="M1118 1153q-2 -119 -33.5 -200t-119.5 -181l-502 -571h678v-199h-985v180l622 711q60 67 85.5 127t25.5 131q0 125 -73.5 204t-188.5 79q-122 0 -192 -77t-70 -206v-43h-232v45q0 100 33.5 187.5t95 153t156 103t209.5 37.5q153 0 266 -65.5t169 -173t56 -242.5z" />
    <glyph glyph-name="_20" unicode="3" horiz-adv-x="1261" 
d="M911 465q0 134 -77.5 212.5t-202.5 78.5h-166v196h166q106 0 170.5 66.5t64.5 173.5q0 109 -67 175.5t-172 66.5q-109 0 -174.5 -66t-65.5 -176v-16h-231v34q0 186 126.5 305t344.5 119t343.5 -119t125.5 -305q0 -125 -66 -222t-178 -132q136 -39 213.5 -143.5
t77.5 -261.5q0 -216 -144 -346t-372 -130q-229 0 -375 131.5t-146 350.5v24h234v-12q0 -138 79.5 -215.5t207.5 -77.5q125 0 204.5 76.5t79.5 212.5z" />
    <glyph glyph-name="_21" unicode="4" horiz-adv-x="1261" 
d="M334 543h422v704zM1171 543v-201h-184v-340h-231v340h-664v201l639 1065h256v-1065h184z" />
    <glyph glyph-name="_22" unicode="5" horiz-adv-x="1261" 
d="M637 844q-74 0 -130 -34t-87 -95h-230l41 893h822v-201h-607l-24 -489q33 56 103.5 90t160.5 34q203 0 329 -139t126 -397q0 -250 -134.5 -390.5t-369.5 -140.5q-217 0 -352 122t-150 335h230q13 -126 85 -193t187 -67q129 0 200.5 87.5t71.5 250.5q0 162 -71.5 248
t-200.5 86z" />
    <glyph glyph-name="_23" unicode="6" horiz-adv-x="1261" 
d="M360 879q38 74 118.5 118.5t191.5 44.5q218 0 350.5 -143.5t132.5 -388.5t-143.5 -390t-370.5 -145q-272 0 -408 218q-108 134 -108 522q0 337 54.5 538t167.5 291t300 90q197 0 321.5 -102.5t151.5 -298.5h-235q-17 97 -78 149t-162 52q-148 0 -212.5 -131.5
t-70.5 -423.5zM358 510q0 -157 75.5 -245.5t205.5 -88.5q132 0 208.5 88.5t76.5 245.5q0 154 -77 243t-208 89q-130 0 -205.5 -88.5t-75.5 -243.5z" />
    <glyph glyph-name="_24" unicode="7" horiz-adv-x="1261" 
d="M139 1407v201h983v-181l-538 -1425h-244l547 1405h-748z" />
    <glyph glyph-name="_25" unicode="8" horiz-adv-x="1261" 
d="M631 756q-138 0 -225 -80t-87 -213t87 -212t225 -79q137 0 223 79t86 212t-86 213t-223 80zM631 -25q-242 0 -391.5 128.5t-149.5 347.5q0 151 77 254.5t214 148.5q-112 40 -178 137t-66 219q0 187 132.5 305.5t361.5 118.5q227 0 359 -118.5t132 -305.5
q0 -122 -65.5 -219.5t-177.5 -136.5q138 -45 215 -148.5t77 -254.5q0 -218 -149.5 -347t-390.5 -129zM631 950q117 0 188.5 67t71.5 177q0 109 -71.5 175.5t-188.5 66.5q-120 0 -192 -66.5t-72 -175.5q0 -110 72 -177t192 -67z" />
    <glyph glyph-name="_26" unicode="9" horiz-adv-x="1261" 
d="M897 729q-36 -74 -116 -118t-191 -44q-218 0 -352 143.5t-134 389.5q0 244 144.5 389t369.5 145q278 0 410 -219q107 -135 107 -522q0 -338 -55 -539.5t-167.5 -290t-298.5 -88.5q-197 0 -322 102.5t-151 297.5h238q15 -97 75.5 -148t161.5 -51q147 0 211.5 131.5
t69.5 421.5zM903 1100q0 155 -77.5 244.5t-207.5 89.5t-206 -89t-76 -245t76 -245t206 -89t207.5 89.5t77.5 244.5z" />
    <glyph glyph-name="_27" unicode=":" horiz-adv-x="630" 
d="M442 1149v-272h-254v272h254zM442 274v-272h-254v272h254z" />
    <glyph glyph-name="_28" unicode=";" horiz-adv-x="630" 
d="M440 1149v-272h-252v272h252zM180 -262v112q133 6 133 152h-125v270h252v-290q0 -110 -67.5 -172.5t-192.5 -71.5z" />
    <glyph glyph-name="_29" unicode="&#x3c;" horiz-adv-x="1191" 
d="M117 657v185l958 426v-211l-719 -307l719 -310v-209z" />
    <glyph glyph-name="_30" unicode="=" horiz-adv-x="1200" 
d="M102 455v186h996v-186h-996zM102 856v188h996v-188h-996z" />
    <glyph glyph-name="_31" unicode="&#x3e;" horiz-adv-x="1191" 
d="M1075 842v-185l-958 -426v209l717 310l-717 307v211z" />
    <glyph glyph-name="_32" unicode="?" horiz-adv-x="1175" 
d="M1053 1182q0 -129 -48.5 -222t-154.5 -188q-97 -88 -131.5 -150.5t-34.5 -152.5v-51h-225v67q0 127 42 211t163 189q92 79 126.5 141.5t34.5 149.5q0 122 -66.5 190t-176.5 68t-177 -68.5t-67 -191.5h-225v8q0 201 125 326.5t344 125.5q220 0 345.5 -126t125.5 -326z
M686 242v-240h-231v240h231z" />
    <glyph glyph-name="_33" unicode="@" horiz-adv-x="1683" 
d="M141 600q0 379 72 604.5t223 327.5t404 102t404.5 -102t222.5 -327t71 -605v-8q0 -276 -122.5 -424t-348.5 -148t-343.5 141.5t-117.5 389.5q0 254 113.5 391t308.5 137q227 0 295 -155q-17 199 -72.5 315t-154 166.5t-256.5 50.5q-93 0 -161.5 -16t-125.5 -54.5
t-94.5 -101t-63.5 -158.5t-37.5 -225t-11.5 -301q0 -208 18.5 -354.5t54 -244.5t97 -154t138 -78.5t186.5 -22.5q149 0 264 64l61 -166q-152 -76 -325 -76q-146 0 -255.5 32.5t-195.5 106t-139.5 193.5t-81 293t-27.5 407zM1337 551q0 171 -63.5 255.5t-194.5 84.5
t-194.5 -84.5t-63.5 -255.5q0 -174 63.5 -259t194.5 -85t194.5 85t63.5 259z" />
    <glyph glyph-name="_34" unicode="A" horiz-adv-x="1394" 
d="M1372 2h-246l-112 356h-635l-113 -356h-246l535 1606h281zM948 565l-252 807l-254 -807h506z" />
    <glyph glyph-name="_35" unicode="B" horiz-adv-x="1351" 
d="M381 930h307q153 0 228 55t75 180t-75 180.5t-228 55.5h-307v-471zM776 2h-633v1606h594q244 0 368 -108t124 -318q0 -134 -64.5 -222.5t-179.5 -121.5q137 -29 213 -131.5t76 -251.5q0 -453 -498 -453zM1036 467q0 135 -74.5 196.5t-238.5 61.5h-342v-516h342
q164 0 238.5 61.5t74.5 196.5z" />
    <glyph glyph-name="_36" unicode="C" horiz-adv-x="1425" 
d="M340 805q0 -121 11 -214t38 -172t71 -130t110.5 -79t156.5 -28q168 0 263 94t106 259h237q-14 -254 -173.5 -407t-432.5 -153q-148 0 -260 46t-180 121.5t-110.5 185.5t-58.5 224.5t-16 252.5q0 96 8 181t27.5 170.5t51 155t80.5 130.5t112.5 102.5t151.5 65.5t194 24
q273 0 432.5 -153.5t173.5 -407.5h-237q-11 165 -106 258.5t-263 93.5q-90 0 -157.5 -28.5t-111 -79.5t-70 -130t-37.5 -171t-11 -211z" />
    <glyph glyph-name="_37" unicode="D" horiz-adv-x="1431" 
d="M1092 805q0 178 -26 291t-81 188q-84 117 -289 117h-315v-1192h315q205 0 289 117q55 75 81 188t26 291zM1329 805q0 -196 -29 -342.5t-112 -259.5q-145 -201 -469 -201h-576v1606h576q324 0 469 -201q83 -113 112 -259.5t29 -342.5z" />
    <glyph glyph-name="_38" unicode="E" horiz-adv-x="1193" 
d="M143 2v1606h951v-207h-713v-473h631v-207h-631v-512h725v-207h-963z" />
    <glyph glyph-name="_39" unicode="F" horiz-adv-x="1144" 
d="M143 2v1606h938v-207h-700v-496h631v-207h-631v-696h-238z" />
    <glyph glyph-name="_40" unicode="G" horiz-adv-x="1462" 
d="M102 805q0 97 8 182.5t28 171t51 155t80.5 130.5t113 102t151 64.5t193.5 23.5q273 0 432.5 -153.5t173.5 -407.5h-237q-11 165 -106 258.5t-263 93.5q-91 0 -158.5 -28.5t-111 -79.5t-70 -130t-37 -170.5t-10.5 -211.5q0 -228 43 -366t126.5 -197.5t217.5 -59.5
q171 0 271 106.5t100 286.5v60h-361v205h594v-838h-174l-37 203q-44 -102 -152.5 -166t-256.5 -64q-140 0 -248 46.5t-175.5 123t-110 186t-59 224.5t-16.5 250z" />
    <glyph glyph-name="_41" unicode="H" horiz-adv-x="1398" 
d="M1018 2v719h-637v-719h-238v1606h238v-680h637v680h237v-1606h-237z" />
    <glyph glyph-name="_42" unicode="I" horiz-adv-x="522" 
d="M381 1608v-1606h-238v1606h238z" />
    <glyph glyph-name="_43" unicode="J" horiz-adv-x="1193" 
d="M551 182q268 0 268 344v1082h238v-1114q0 -249 -134.5 -384t-375.5 -135q-238 0 -372 135t-134 384v14h240q6 -326 270 -326z" />
    <glyph glyph-name="_44" unicode="K" horiz-adv-x="1320" 
d="M1260 1608l-521 -785l592 -821h-270l-510 719h-170v-719h-238v1606h238v-680h170l444 680h265z" />
    <glyph glyph-name="_45" unicode="L" horiz-adv-x="1136" 
d="M143 2v1606h238v-1399h725v-207h-963z" />
    <glyph glyph-name="_46" unicode="M" horiz-adv-x="1880" 
d="M1055 2h-228l-448 1122v-1122h-236v1606h263l534 -1336l535 1336h264v-1606h-238v1122z" />
    <glyph glyph-name="_47" unicode="N" horiz-adv-x="1421" 
d="M1278 2h-244l-655 1182v-1182h-238v1606h244l655 -1184v1184h238v-1606z" />
    <glyph glyph-name="_48" unicode="O" horiz-adv-x="1452" 
d="M727 -25q-148 0 -260 46t-180 121.5t-110.5 185.5t-58.5 224.5t-16 252.5q0 96 8 181t27.5 170.5t51 155t80.5 130.5t112.5 102.5t151.5 65.5t194 24q623 0 623 -829q0 -830 -623 -830zM727 182q88 0 154.5 28t110 79t71 129.5t38.5 172t11 214.5q0 119 -11 211.5
t-38 171t-70.5 129.5t-110 79.5t-155.5 28.5q-90 0 -157.5 -28.5t-111 -79.5t-70 -130t-37.5 -171t-11 -211q0 -121 11 -214t38 -172t71 -130t110.5 -79t156.5 -28z" />
    <glyph glyph-name="_49" unicode="P" horiz-adv-x="1335" 
d="M381 811h356q147 0 223 77t76 218t-76 218t-223 77h-356v-590zM768 604h-387v-602h-238v1606h625q239 0 372.5 -132.5t133.5 -369.5q0 -239 -133 -370.5t-373 -131.5z" />
    <glyph glyph-name="_50" unicode="Q" horiz-adv-x="1462" 
d="M727 -25q-122 0 -220 30.5t-165.5 87.5t-115 131.5t-74.5 170.5t-38.5 195t-11.5 215q0 97 8 182.5t28 171t51 155t80.5 130.5t113 102t151 64.5t193.5 23.5q623 0 623 -829q0 -352 -111 -553l195 -162l-136 -147l-182 155q-148 -123 -389 -123zM727 182q137 0 217 62
l-213 182l133 149l195 -167q53 139 53 397q0 119 -11 211.5t-38 171t-70.5 129.5t-110 79.5t-155.5 28.5q-90 0 -157.5 -28.5t-111 -79.5t-70 -130t-37.5 -171t-11 -211q0 -121 11 -214t38 -172t71 -130t110.5 -79t156.5 -28z" />
    <glyph glyph-name="_51" unicode="R" horiz-adv-x="1380" 
d="M1022 143l-10 193q-9 150 -74.5 211t-226.5 61h-330v-606h-238v1606h625q248 0 377 -126.5t129 -357.5q0 -161 -70 -265.5t-207 -143.5q120 -22 179 -103t69 -239l15 -197q6 -106 28 -174h-241q-19 59 -25 141zM381 815h350q305 0 305 293t-305 293h-350v-586z" />
    <glyph glyph-name="_52" unicode="S" horiz-adv-x="1296" 
d="M1212 446q0 -209 -149 -340t-406 -131q-255 0 -405 131t-150 340v33h240v-37q0 -118 84.5 -190t230.5 -72q147 0 231.5 71.5t84.5 190.5q0 206 -254 260l-207 43q-410 86 -410 443q0 92 34.5 172.5t99 142t165.5 96.5t226 35q249 0 387.5 -127t138.5 -319v-25h-240v25
q0 108 -75 173.5t-211 65.5q-135 0 -210 -65.5t-75 -173.5q0 -100 59.5 -156.5t186.5 -83.5l207 -43q204 -43 310.5 -158.5t106.5 -300.5z" />
    <glyph glyph-name="_53" unicode="T" horiz-adv-x="1204" 
d="M31 1401v207h1143v-207h-453v-1399h-238v1399h-452z" />
    <glyph glyph-name="_54" unicode="U" horiz-adv-x="1447" 
d="M725 182q183 0 267.5 112t84.5 335v979h238v-1010q0 -291 -149 -457t-441 -166t-442 166t-150 457v1010h238v-979q0 -223 85 -335t269 -112z" />
    <glyph glyph-name="_55" unicode="V" horiz-adv-x="1394" 
d="M696 291l430 1317h248l-536 -1606h-281l-537 1606h248z" />
    <glyph glyph-name="_56" unicode="W" horiz-adv-x="2152" 
d="M954 1608h242l344 -1291l334 1291h246l-428 -1606h-289l-328 1223l-330 -1223h-288l-426 1606h245l334 -1291z" />
    <glyph glyph-name="_57" unicode="X" horiz-adv-x="1372" 
d="M1337 2h-260l-393 653l-393 -653h-258l502 825l-469 781h258l360 -609l363 609h258l-474 -781z" />
    <glyph glyph-name="_58" unicode="Y" horiz-adv-x="1370" 
d="M684 854l403 754h250l-532 -973v-633h-240v633l-532 973h248z" />
    <glyph glyph-name="_59" unicode="Z" horiz-adv-x="1208" 
d="M82 188l747 1213h-725v207h1012v-187l-747 -1212h757v-207h-1044v186z" />
    <glyph glyph-name="_60" unicode="[" horiz-adv-x="739" 
d="M164 -211v2009h493v-194h-268v-1620h268v-195h-493z" />
    <glyph glyph-name="_61" unicode="\" 
d="M862 1608l-160 -727h-241l-154 727h-246l166 -727h-186v-131h215l170 -748h289l164 748h208l162 -748h289l170 748h217v131h-186l166 727h-246l-154 -727h-241l-160 727h-242zM1292 750h187l-93 -433zM1059 881h-152l76 344zM487 750h187l-94 -433z" />
    <glyph glyph-name="_62" unicode="]" horiz-adv-x="739" 
d="M575 1798v-2009h-493v195h270v1620h-270v194h493z" />
    <glyph glyph-name="_63" unicode="^" horiz-adv-x="966" 
d="M924 1075h-224l-219 344l-217 -344h-223l342 533h199z" />
    <glyph glyph-name="_64" unicode="_" horiz-adv-x="1146" 
d="M0 -383v145h1147v-145h-1147z" />
    <glyph glyph-name="_65" unicode="`" horiz-adv-x="798" 
d="M438 1307l-278 370h256l223 -370h-201z" />
    <glyph glyph-name="_66" unicode="a" horiz-adv-x="1183" 
d="M836 125q-28 -69 -113.5 -109.5t-210.5 -40.5q-202 0 -318 96t-116 269q0 172 116.5 268.5t317.5 96.5q120 0 207 -39t117 -109v186q0 119 -62.5 182.5t-185.5 63.5q-215 0 -240 -180h-227q12 173 131.5 270t335.5 97q234 0 354.5 -115.5t120.5 -317.5v-583
q0 -92 27 -158h-232q-22 49 -22 123zM569 158q269 0 269 182q0 89 -68.5 135.5t-200.5 46.5q-130 0 -198 -46.5t-68 -135.5q0 -182 266 -182z" />
    <glyph glyph-name="_67" unicode="b" horiz-adv-x="1222" 
d="M348 1608v-637q34 95 120.5 150t207.5 55q218 0 338.5 -149.5t120.5 -451.5q0 -301 -120.5 -450.5t-338.5 -149.5q-121 0 -207.5 55t-120.5 150v-178h-225v1606h225zM348 575q0 -201 65 -306t216 -105t215.5 104.5t64.5 306.5q0 201 -64.5 306.5t-215.5 105.5t-216 -106
t-65 -306z" />
    <glyph glyph-name="_68" unicode="c" horiz-adv-x="1159" 
d="M86 575q0 291 128 446t380 155q213 0 340 -104.5t149 -299.5h-229q-11 102 -78.5 159.5t-181.5 57.5q-151 0 -216 -106t-65 -308t65 -307.5t216 -105.5q114 0 181.5 57.5t78.5 159.5h229q-22 -195 -149 -299.5t-340 -104.5q-252 0 -380 154.5t-128 445.5z" />
    <glyph glyph-name="_69" unicode="d" horiz-adv-x="1222" 
d="M872 971v637h228v-1606h-228v178q-33 -95 -119 -150t-208 -55q-218 0 -338.5 149.5t-120.5 450.5q0 302 120.5 451.5t338.5 149.5q122 0 208 -55t119 -150zM872 575q0 132 -25 220t-88 140t-165 52q-78 0 -133.5 -28.5t-88 -83.5t-47 -128.5t-14.5 -171.5
q0 -202 65 -306.5t218 -104.5q150 0 214 104.5t64 306.5z" />
    <glyph glyph-name="_70" unicode="e" horiz-adv-x="1185" 
d="M1098 506h-785q13 -342 285 -342q106 0 170 48t76 134h231q-28 -176 -151 -273.5t-326 -97.5q-255 0 -383.5 154.5t-128.5 445.5q0 290 128 445.5t380 155.5q250 0 378 -155.5t128 -445.5q0 -46 -2 -69zM594 987q-133 0 -199.5 -79t-79.5 -230h555q-26 309 -276 309z" />
    <glyph glyph-name="_71" unicode="f" horiz-adv-x="784" 
d="M743 1438h-108q-104 0 -143 -36t-39 -128v-125h290v-186h-290v-961h-226v961h-164v186h164v135q0 186 87 263t290 77q80 0 139 -10v-176z" />
    <glyph glyph-name="_72" unicode="g" horiz-adv-x="1222" 
d="M872 1149h228v-1190q0 -106 -28 -193t-85.5 -154.5t-152 -104.5t-220.5 -37q-204 0 -327 93t-146 259h232q12 -84 74 -128t167 -44q258 0 258 291v239q-33 -95 -119 -150t-208 -55q-218 0 -338.5 149.5t-120.5 450.5q0 302 120.5 451.5t338.5 149.5q122 0 208 -55
t119 -150v178zM872 575q0 201 -63.5 306.5t-214.5 105.5q-78 0 -133.5 -28.5t-88 -83.5t-47 -128.5t-14.5 -171.5q0 -202 65 -306.5t218 -104.5q151 0 214.5 104.5t63.5 306.5z" />
    <glyph glyph-name="_73" unicode="h" horiz-adv-x="1210" 
d="M1092 719v-717h-228v700q0 287 -227 287q-127 0 -208 -96.5t-81 -269.5v-621h-223v1606h223v-652q41 103 129 161.5t215 58.5q192 0 296 -118.5t104 -338.5z" />
    <glyph glyph-name="_74" unicode="i" horiz-adv-x="491" 
d="M358 2h-227v1147h227v-1147zM358 1366h-227v242h227v-242z" />
    <glyph glyph-name="_75" unicode="j" horiz-adv-x="522" 
d="M389 1149v-1301q0 -346 -358 -346q-60 0 -97 6v185h76q77 0 114.5 39.5t37.5 126.5v1290h227zM389 1366h-227v242h227v-242z" />
    <glyph glyph-name="_76" unicode="k" horiz-adv-x="1093" 
d="M348 2h-225v1606h225v-918h117l313 459h252l-381 -551l434 -596h-260l-362 508h-113v-508z" />
    <glyph glyph-name="_77" unicode="l" horiz-adv-x="491" 
d="M358 2h-225v1606h225v-1606z" />
    <glyph glyph-name="_78" unicode="m" horiz-adv-x="1880" 
d="M1057 623v-621h-228v741q0 246 -206 246q-124 0 -199.5 -94t-75.5 -270v-623h-223v1147h223v-188q40 102 122 158.5t206 56.5q127 0 217 -60.5t127 -169.5q93 230 360 230q184 0 283.5 -115.5t99.5 -325.5v-733h-227v741q0 246 -207 246q-123 0 -197.5 -95t-74.5 -271z
" />
    <glyph glyph-name="_79" unicode="n" horiz-adv-x="1210" 
d="M1092 719v-717h-228v700q0 287 -227 287q-127 0 -208 -96.5t-81 -269.5v-621h-223v1147h223v-193q41 103 129 161.5t215 58.5q192 0 296 -118.5t104 -338.5z" />
    <glyph glyph-name="_80" unicode="o" horiz-adv-x="1185" 
d="M594 162q151 0 215.5 105.5t64.5 307.5t-64.5 308t-215.5 106t-216 -106t-65 -308t65 -307.5t216 -105.5zM594 1176q251 0 378.5 -155t127.5 -446t-127.5 -445.5t-378.5 -154.5q-252 0 -380 154.5t-128 445.5t128 446t380 155z" />
    <glyph glyph-name="_81" unicode="p" horiz-adv-x="1222" 
d="M348 1149v-178q34 95 121 150t209 55q218 0 338.5 -149.5t120.5 -451.5q0 -301 -120.5 -450.5t-338.5 -149.5q-122 0 -209 55t-121 150v-678h-223v1647h223zM631 162q150 0 214 105.5t64 307.5t-64 308t-214 106q-153 0 -218 -106t-65 -308t65 -307.5t218 -105.5z" />
    <glyph glyph-name="_82" unicode="q" horiz-adv-x="1222" 
d="M874 971v178h226v-1647h-226v678q-34 -95 -120.5 -150t-206.5 -55q-219 0 -340 149.5t-121 450.5t121 451t340 150q120 0 206.5 -55t120.5 -150zM594 162q151 0 215.5 105.5t64.5 307.5t-64.5 308t-215.5 106t-216 -106t-65 -308t65 -307.5t216 -105.5z" />
    <glyph glyph-name="_83" unicode="r" horiz-adv-x="790" 
d="M659 987q-147 0 -229 -101.5t-82 -295.5v-588h-223v1147h223v-193q38 111 113.5 165.5t204.5 54.5q64 0 94 -9l-4 -184q-36 4 -97 4z" />
    <glyph glyph-name="_84" unicode="s" horiz-adv-x="1075" 
d="M524 1176q199 0 313.5 -92t114.5 -244v-27h-225v29q0 66 -53.5 109.5t-149.5 43.5q-97 0 -151 -43t-54 -108q0 -21 3.5 -37.5t12.5 -29.5t18 -23t28.5 -18.5t33.5 -14t44 -12.5t50 -11.5t60 -12t66 -13.5q187 -34 273.5 -117.5t86.5 -232.5q0 -150 -124 -248.5
t-328 -98.5t-329.5 97.5t-125.5 249.5v32h225v-32q0 -77 63 -121.5t167 -44.5q102 0 164.5 43.5t62.5 115.5q0 37 -12.5 64t-32 44.5t-59.5 31.5t-77 23t-102 22l-30 6q-187 32 -274 112t-87 222q0 150 114.5 243t313.5 93z" />
    <glyph glyph-name="_85" unicode="t" horiz-adv-x="823" 
d="M442 963v-613q0 -105 43.5 -141.5t153.5 -36.5h115v-180q-37 -6 -154 -6q-206 0 -294.5 71t-88.5 252v654h-166v186h166v326h225v-326h312v-186h-312z" />
    <glyph glyph-name="_86" unicode="u" horiz-adv-x="1210" 
d="M119 432v717h225v-700q0 -287 227 -287q129 0 209 96t80 270v621h225v-1147h-225v193q-41 -103 -129 -161.5t-215 -58.5q-191 0 -294 118.5t-103 338.5z" />
    <glyph glyph-name="_87" unicode="v" horiz-adv-x="1165" 
d="M895 1149h238l-420 -1147h-262l-420 1147h237l314 -899z" />
    <glyph glyph-name="_88" unicode="w" horiz-adv-x="1830" 
d="M801 1149h229l273 -883l264 883h233l-373 -1147h-241l-271 891l-270 -891h-244l-370 1147h233l262 -883z" />
    <glyph glyph-name="_89" unicode="x" horiz-adv-x="1085" 
d="M1065 2h-244l-280 430l-279 -430h-246l390 588l-367 559h250l252 -404l256 404h245l-364 -559z" />
    <glyph glyph-name="_90" unicode="y" horiz-adv-x="1167" 
d="M408 -182l65 180l-440 1151h235l320 -868l311 868h236l-523 -1401q-54 -145 -133 -195.5t-215 -50.5q-67 0 -94 2v185h76q60 0 98 27.5t64 101.5z" />
    <glyph glyph-name="_91" unicode="z" horiz-adv-x="1019" 
d="M930 1149v-168l-574 -793h590v-186h-870v168l573 793h-555v186h836z" />
    <glyph glyph-name="_92" unicode="{" horiz-adv-x="778" 
d="M82 694v197h43q70 0 104.5 41.5t34.5 116.5v397q0 182 89.5 267t271.5 85h71v-196h-47q-160 0 -160 -187v-391q0 -187 -157 -231q157 -44 157 -232v-389q0 -186 160 -186h47v-197h-71q-183 0 -272 84.5t-89 267.5v394q0 75 -35 117t-104 42h-43z" />
    <glyph glyph-name="_93" unicode="|" horiz-adv-x="634" 
d="M205 -211v2009h225v-2009h-225z" />
    <glyph glyph-name="_94" unicode="}" horiz-adv-x="778" 
d="M696 891v-197h-47q-69 0 -103 -41.5t-34 -117.5v-394q0 -184 -88 -268t-270 -84h-72v197h45q82 0 120 46t38 140v389q0 87 40.5 149t118.5 83q-159 45 -159 231v391q0 90 -39.5 138.5t-118.5 48.5h-45v196h72q182 0 270 -84.5t88 -267.5v-397q0 -158 137 -158h47z" />
    <glyph glyph-name="_95" unicode="~" horiz-adv-x="1191" 
d="M786 575q-58 0 -105.5 16.5t-78 40t-57 47t-55 40t-58.5 16.5q-97 0 -100 -145h-213q2 154 74.5 245t212.5 91q58 0 105.5 -16.5t78 -40t57 -47t55 -40t58.5 -16.5q96 0 102 147h213q-2 -154 -75.5 -246t-213.5 -92z" />
    <glyph glyph-name="_208" unicode="&#xa1;" horiz-adv-x="638" 
d="M203 -186v-275h229v275l-20 878h-185zM203 905h231v246h-231v-246z" />
    <glyph glyph-name="_214" unicode="&#xa4;" horiz-adv-x="1443" 
d="M1231 750q0 160 -94 284l213 215l-148 148l-219 -221q-118 73 -262 73q-143 0 -264 -73l-217 221l-148 -148l213 -215q-92 -126 -92 -284q0 -161 92 -287l-213 -213l148 -148l217 217q120 -69 264 -69q145 0 262 69l219 -217l148 148l-213 213q94 124 94 287zM1022 750
q0 -144 -86 -231t-215 -87q-128 0 -214.5 87t-86.5 231t86.5 230.5t214.5 86.5q129 0 215 -86.5t86 -230.5z" />
    <glyph glyph-name="_155" unicode="&#xa7;" 
d="M971 1497q86 0 144.5 -51.5t58.5 -130.5v-15h227v19q0 161 -117.5 260.5t-312.5 99.5q-197 0 -314.5 -100t-117.5 -262q0 -108 39 -181.5t127 -125.5q-91 -51 -139 -132t-48 -182q0 -77 19.5 -137t53.5 -104t92 -78.5t124 -59.5t160 -49q122 -31 176.5 -79.5t54.5 -129.5
q0 -84 -56 -133t-149 -49q-89 0 -147 50.5t-58 131.5v15h-227v-19q0 -160 118 -259t314 -99t313 99t117 261q0 105 -40 178t-128 127q94 49 142.5 130t48.5 182q0 95 -29.5 166t-91.5 121t-144 83.5t-200 61.5q-113 26 -164 77t-51 132q0 84 55.5 133t149.5 49zM743 711
q0 72 36 129t108 88q189 -39 260.5 -95t71.5 -171q0 -72 -36 -129.5t-108 -90.5q-101 25 -158.5 45t-100 50.5t-58 71t-15.5 102.5z" />
    <glyph glyph-name="_107" unicode="&#xa8;" horiz-adv-x="1228" 
d="M498 1612h-242v-277h242v277zM969 1612h-242v-277h242v277z" />
    <glyph glyph-name="_668" unicode="&#xaa;" horiz-adv-x="919" 
d="M614 856q0 -56 15 -90h198q-18 61 -18 117v452q0 134 -90 214.5t-254 80.5q-158 0 -245 -73t-95 -201h197q3 60 40 92.5t103 32.5q149 0 149 -144v-170q-25 55 -86 84t-151 29q-133 0 -215 -70t-82 -198t82 -197.5t217 -69.5q88 0 149 28.5t86 82.5zM276 1012
q0 58 44 89.5t124 31.5q82 0 126 -31.5t44 -89.5t-44 -89.5t-126 -31.5q-80 0 -124 31.5t-44 89.5zM66 467h790v154h-790v-154z" />
    <glyph glyph-name="_18155" unicode="&#xad;" horiz-adv-x="909" 
d="M102 649h705v199h-705v-199z" />
    <glyph glyph-name="_18156" unicode="&#xae;" horiz-adv-x="1024" 
d="M729 969q-11 33 -14 78l-4 47q-7 80 -52 106q62 39 62 121q0 79 -45.5 120.5t-134.5 41.5h-215v-514h120v180h86q19 0 29.5 -3.5t16 -15t7 -20t3.5 -31.5l4 -41q3 -33 14 -69h123zM446 1247v137h82q70 0 70 -69q0 -30 -21 -49t-49 -19h-82zM512 760q187 0 313.5 127.5
t126.5 326.5q0 198 -127 327.5t-313 129.5t-313 -129.5t-127 -327.5q0 -199 126.5 -326.5t313.5 -127.5zM512 872q-138 0 -226.5 95t-88.5 247t89 248.5t226 96.5t225 -96.5t88 -248.5q0 -153 -87.5 -247.5t-225.5 -94.5z" />
    <glyph glyph-name="_138" unicode="&#xb0;" horiz-adv-x="819" 
d="M721 1317q0 138 -84.5 225.5t-228.5 87.5q-142 0 -227 -88t-85 -225q0 -139 84.5 -226t227.5 -87q144 0 228.5 87t84.5 226zM555 1317q0 -73 -41 -116.5t-106 -43.5q-64 0 -105 44t-41 116q0 71 41 114.5t105 43.5q65 0 106 -43.5t41 -114.5z" />
    <glyph glyph-name="_130" unicode="&#xb1;" horiz-adv-x="1200" 
d="M100 831h396v-405h209v405h395v185h-395v407h-209v-407h-396v-185zM100 100h1000v187h-1000v-187z" />
    <glyph glyph-name="_843" unicode="&#xb2;" horiz-adv-x="851" 
d="M571 1300q0 -46 -15 -80.5t-48 -70.5l-406 -463v-143h664v170h-401l282 317q64 72 92.5 133t28.5 140q0 151 -94 239t-248 88q-159 0 -251.5 -88.5t-92.5 -238.5v-39h197v36q0 68 38 110t109 42q69 0 107 -42t38 -110z" />
    <glyph glyph-name="_844" unicode="&#xb3;" horiz-adv-x="851" 
d="M426 1464q64 0 100.5 -37.5t36.5 -103.5t-38 -101.5t-107 -35.5h-88v-164h88q80 0 124 -42.5t44 -125.5q0 -74 -43.5 -120t-116.5 -46q-75 0 -119.5 46.5t-44.5 123.5v33h-196v-39q0 -143 94.5 -235.5t265.5 -92.5q168 0 263 92t95 234q0 205 -190 260q82 27 122 86.5
t40 142.5q0 131 -90.5 211t-239.5 80q-151 0 -242.5 -80t-91.5 -207v-32h193v16q0 64 37 100.5t104 36.5z" />
    <glyph glyph-name="_199" unicode="&#xb4;" horiz-adv-x="800" 
d="M641 1681h-256l-225 -372h200z" />
    <glyph glyph-name="_244" unicode="&#xb6;" 
d="M942 1612q-219 0 -344 -129.5t-125 -360.5v-14q0 -229 139 -361.5t359 -132.5h61v-917h158v1761h104v-1761h158v1915h-510z" />
    <glyph glyph-name="_18157" unicode="&#xb7;" horiz-adv-x="819" 
d="M535 1008h-252v-275h252v275z" />
    <glyph glyph-name="_206" unicode="&#xb8;" horiz-adv-x="806" 
d="M135 -469q109 -78 254 -78q129 0 205 61t76 164q0 181 -240 207l57 115h-168l-92 -190l37 -46q35 15 92 15q66 0 101 -24t35 -70q0 -84 -119 -84q-98 0 -170 57z" />
    <glyph glyph-name="_842" unicode="&#xb9;" horiz-adv-x="851" 
d="M563 543v1069h-168l-256 -119v-174l226 104v-880h198z" />
    <glyph glyph-name="_675" unicode="&#xba;" horiz-adv-x="921" 
d="M838 1186q0 215 -95 329.5t-282 114.5q-189 0 -284 -114.5t-95 -329.5t95 -329t284 -114q187 0 282 114t95 329zM643 1186q0 -155 -42.5 -223t-139.5 -68q-98 0 -141.5 67t-43.5 224q0 156 43.5 223.5t141.5 67.5q97 0 139.5 -68t42.5 -223zM66 467h790v154h-790v-154z
" />
    <glyph glyph-name="_751" unicode="&#xbc;" 
d="M506 543v1069h-168l-256 -119v-174l225 104v-880h199zM1397 1612h-193l-788 -1614h194zM1315 371l260 422v-422h-260zM1880 371h-111v696h-219l-436 -711v-151h461v-207h194v207h111v166z" />
    <glyph glyph-name="_748" unicode="&#xbd;" 
d="M506 543v1069h-168l-256 -119v-174l225 104v-880h199zM1184 1612l-789 -1612h195l786 1612h-192zM1661 758q0 -81 -64 -154l-405 -461v-143h663v168h-401l283 317q65 73 93 134.5t28 140.5q0 149 -95 237t-250 88q-158 0 -251 -88t-93 -237v-39h199v37q0 67 37.5 109
t107.5 42t109 -42t39 -109z" />
    <glyph glyph-name="_752" unicode="&#xbe;" 
d="M1315 371l260 422v-422h-260zM1880 371h-111v696h-219l-436 -711v-151h461v-207h194v207h111v166zM401 1464q66 0 103 -37.5t37 -103.5q0 -65 -39 -101t-107 -36h-88v-164h88q80 0 124 -42.5t44 -125.5q0 -74 -44 -120t-118 -46t-117.5 46.5t-43.5 123.5v33h-197v-39
q0 -143 93.5 -235.5t264.5 -92.5q168 0 263.5 92t95.5 234q0 204 -189 260q160 52 160 229q0 131 -90.5 211t-239.5 80t-240 -80t-91 -207v-32h192v16q0 63 37 100t102 37zM1493 1612h-193l-788 -1614h195z" />
    <glyph glyph-name="_209" unicode="&#xbf;" horiz-adv-x="1181" 
d="M123 -35q0 -202 125 -328t348 -126q222 0 346.5 126t124.5 328v8h-225q0 -121 -67.5 -193.5t-178.5 -72.5q-112 0 -179 70t-67 192q0 86 35 149.5t127 145.5q122 105 164.5 187t42.5 206v72h-225v-55q0 -89 -34.5 -150.5t-135.5 -150.5q-108 -96 -154.5 -186.5
t-46.5 -221.5zM492 905h229v246h-229v-246z" />
    <glyph glyph-name="_666" unicode="&#xc6;" horiz-adv-x="2017" 
d="M1929 0v205h-729v516h635v205h-635v479h717v207h-1100l-842 -1612h265l182 354h539v-354h968zM961 559h-435l435 840v-840z" />
    <glyph glyph-name="_667" unicode="&#xd0;" horiz-adv-x="1458" 
d="M18 889v-168h144v-723h577q108 0 196 23t151.5 63t111 100t77.5 127t48.5 151t25.5 165.5t7 177.5q0 94 -7 175.5t-25.5 165.5t-48 151t-77.5 127.5t-111 100.5t-151.5 63.5t-196.5 23.5h-577v-723h-144zM1116 805q0 -322 -90 -461t-305 -139h-320v516h289v168h-289v516
h320q216 0 305.5 -140t89.5 -460z" />
    <glyph glyph-name="_131" unicode="&#xd7;" horiz-adv-x="1200" 
d="M918 285l139 135l-320 328l320 327l-139 137l-320 -325l-317 325l-140 -137l322 -327l-322 -328l140 -135l317 325z" />
    <glyph glyph-name="_673" unicode="&#xd8;" horiz-adv-x="1458" 
d="M324 -74l71 127q141 -82 334 -82q627 0 627 834q0 458 -172 645l133 236h-182l-72 -132q-134 84 -334 84q-627 0 -627 -833q0 -444 168 -645l-129 -234h183zM340 805q0 330 89.5 478.5t299.5 148.5q139 0 225 -68l-553 -979q-61 133 -61 420zM1118 805
q0 -330 -89.5 -478.5t-299.5 -148.5q-136 0 -225 64l553 981q61 -142 61 -418z" />
    <glyph glyph-name="_676" unicode="&#xde;" horiz-adv-x="1343" 
d="M383 1612h-240v-1612h240v299h387q244 0 378 133t134 373q0 239 -134 372.5t-378 133.5h-387v301zM383 504v602h356q149 0 226 -78.5t77 -222.5t-77 -222.5t-226 -78.5h-356z" />
    <glyph glyph-name="_768" unicode="&#xdf;" horiz-adv-x="1316" 
d="M1249 401q0 91 -29 165.5t-80 123.5t-114 79.5t-137 41.5q128 31 204 128t76 230q0 95 -33.5 178.5t-96.5 149t-164.5 103.5t-227.5 38q-128 0 -229 -37.5t-165 -104.5t-97 -155.5t-33 -193.5v-1149h237v1147q0 135 76 211t211 76q130 0 206.5 -75t76.5 -194
q0 -115 -67 -183.5t-208 -68.5h-59v-200h43q171 0 272 -79t101 -218q0 -113 -74 -175.5t-207 -62.5q-100 0 -184 23v-205q94 -23 205 -23q232 0 364.5 113t132.5 317z" />
    <glyph glyph-name="_757" unicode="&#xe6;" horiz-adv-x="2002" 
d="M995 164q111 -193 385 -193q203 0 329 97.5t155 275.5h-232q-15 -91 -80.5 -140.5t-171.5 -49.5q-272 0 -284 354h790q2 20 2 67q0 289 -128 446t-380 157q-128 0 -224.5 -50.5t-151.5 -150.5q-50 99 -150.5 150t-235.5 51q-214 0 -334 -99t-134 -270h229
q11 87 71.5 135.5t170.5 48.5q123 0 185 -64.5t62 -183.5v-192q-32 71 -120.5 110t-212.5 39q-198 0 -313.5 -97t-115.5 -269q0 -173 120 -269t345 -96q152 0 262.5 50t161.5 143zM1098 672q19 323 280 323q263 0 279 -323h-559zM600 145q-131 0 -198.5 49t-67.5 142
t67.5 142.5t198.5 49.5q132 0 200 -49.5t68 -142.5t-67.5 -142t-200.5 -49z" />
    <glyph glyph-name="_759" unicode="&#xf0;" horiz-adv-x="1191" 
d="M623 1356q144 -116 192 -289q-39 53 -110 82t-160 29q-217 0 -338 -151t-121 -452q0 -290 126.5 -447t383.5 -157q258 0 384 157.5t126 446.5q0 308 -73.5 526t-231.5 363l151 92l-65 101l-187 -115q-104 70 -241 125l-127 -149q105 -40 184 -88l-154 -93l64 -100z
M311 575q0 205 66.5 310.5t218.5 105.5q151 0 217 -106t66 -310q0 -207 -66 -312t-217 -105q-153 0 -219 105t-66 312z" />
    <glyph glyph-name="_132" unicode="&#xf7;" horiz-adv-x="1200" 
d="M100 655h1000v187h-1000v-187zM717 1268h-234v-260h234v260zM717 489h-234v-260h234v260z" />
    <glyph glyph-name="_766" unicode="&#xf8;" horiz-adv-x="1191" 
d="M596 1178q-254 0 -382 -157t-128 -446q0 -336 162 -485l-101 -180h164l58 102q96 -41 227 -41q254 0 382 156t128 448q0 326 -162 482l98 182h-163l-58 -104q-93 43 -225 43zM313 575q0 205 65.5 310.5t217.5 105.5q77 0 133 -26l-369 -668q-47 100 -47 278zM596 156
q-73 0 -133 26l366 668q50 -97 50 -275q0 -208 -65.5 -313.5t-217.5 -105.5z" />
    <glyph glyph-name="_769" unicode="&#xfe;" horiz-adv-x="1230" 
d="M350 575q0 205 65.5 310.5t217.5 105.5t217 -105.5t65 -310.5q0 -208 -65 -313.5t-217 -105.5t-217.5 105.5t-65.5 313.5zM350 176q35 -94 122 -149.5t212 -55.5q220 0 339.5 150.5t119.5 453.5q0 300 -119.5 451.5t-339.5 151.5q-125 0 -212.5 -55.5t-121.5 -151.5v641
h-227v-2114h227v678z" />
    <glyph glyph-name="_758" unicode="&#x111;" horiz-adv-x="1247" 
d="M879 971q-34 96 -121.5 151.5t-212.5 55.5q-220 0 -339.5 -151.5t-119.5 -451.5q0 -302 119.5 -453t339.5 -151q125 0 212.5 55.5t121.5 151.5v-178h227v1313h127v151h-127v148h-227v-148h-316v-151h316v-342zM879 575q0 -207 -66 -312t-217 -105q-153 0 -219 105
t-66 312q0 205 66.5 310.5t218.5 105.5q151 0 217 -106t66 -310z" />
    <glyph glyph-name="_669" unicode="&#x126;" horiz-adv-x="1447" 
d="M18 1370v-168h146v-1202h239v721h641v-721h240v1202h146v168h-146v242h-240v-242h-641v242h-239v-242h-146zM403 928v274h641v-274h-641z" />
    <glyph glyph-name="_760" unicode="&#x127;" horiz-adv-x="1234" 
d="M1114 719q0 221 -102 340t-295 119q-131 0 -220.5 -61.5t-127.5 -166.5v363h313v151h-313v148h-228v-148h-127v-151h127v-1313h228v616q0 177 80 276t210 99q228 0 228 -295v-696h227v719z" />
    <glyph glyph-name="_761" unicode="&#x131;" horiz-adv-x="495" 
d="M360 0v1151h-227v-1151h227z" />
    <glyph glyph-name="_670" unicode="&#x132;" horiz-adv-x="1753" 
d="M383 1612h-240v-1614h240v1614zM1106 -29q244 0 378 136t134 387v1118h-240v-1088q0 -348 -270 -348q-264 0 -270 332h-240v-14q0 -252 132.5 -387.5t375.5 -135.5z" />
    <glyph glyph-name="_762" unicode="&#x133;" horiz-adv-x="1030" 
d="M360 0v1151h-227v-1151h227zM360 1368v244h-227v-244h227zM895 1151h-227v-1298q0 -88 -38 -128t-116 -40h-78v-181q50 -4 103 -4q356 0 356 344v1307zM895 1368v244h-227v-244h227z" />
    <glyph glyph-name="_763" unicode="&#x138;" horiz-adv-x="1095" 
d="M350 0v510h115l364 -510h256l-432 598l381 553h-250l-317 -463h-117v463h-227v-1151h227z" />
    <glyph glyph-name="_671" unicode="&#x13f;" horiz-adv-x="1142" 
d="M143 -2h969v205h-729v1409h-240v-1614zM895 987h-240v-244h240v244z" />
    <glyph glyph-name="_764" unicode="&#x140;" horiz-adv-x="759" 
d="M360 -2v1614h-227v-1614h227zM739 987h-239v-244h239v244z" />
    <glyph glyph-name="_672" unicode="&#x141;" horiz-adv-x="1163" 
d="M23 498l139 71v-569h968v205h-729v491l412 217v189l-412 -217v727h-239v-854l-139 -72v-188z" />
    <glyph glyph-name="_765" unicode="&#x142;" horiz-adv-x="659" 
d="M35 567l180 92v-659h227v778l183 94v170l-183 -96v666h-227v-783l-180 -92v-170z" />
    <glyph glyph-name="_772" unicode="&#x149;" horiz-adv-x="1304" 
d="M1184 719q0 221 -102.5 340t-295.5 119q-132 0 -221 -61.5t-127 -166.5v201h-227v-1151h227v616q0 181 85 275t218 94q123 0 169 -83t46 -279v-623h228v719zM31 1354h110q0 -74 -30 -111.5t-93 -46.5v-104q120 14 182 78t62 176v266h-231v-258z" />
    <glyph glyph-name="_678" unicode="&#x14a;" horiz-adv-x="1431" 
d="M1047 -139q0 -84 -37.5 -122t-114.5 -38h-66v-197q46 -4 101 -4q356 0 356 346v1766h-237v-1198l-662 1198h-244v-1612h238v1194l666 -1200v-133z" />
    <glyph glyph-name="_771" unicode="&#x14b;" horiz-adv-x="1216" 
d="M868 -154q0 -85 -37.5 -124t-115.5 -39h-76v-179q35 -6 100 -6q357 0 357 346v875q0 221 -102.5 340t-295.5 119q-131 0 -220.5 -61.5t-127.5 -166.5v201h-227v-1153h227v618q0 177 80.5 276t210.5 99q114 0 170.5 -71t56.5 -224v-850z" />
    <glyph glyph-name="_674" unicode="&#x152;" horiz-adv-x="2095" 
d="M102 805q0 -95 7 -176.5t25.5 -166t48 -151.5t77.5 -127t111 -100t151.5 -63t196.5 -23h1288v207h-729v516h635v205h-635v479h717v207h-1276q-108 0 -196.5 -23.5t-151.5 -64t-111 -101t-77.5 -127.5t-48 -151t-25.5 -165t-7 -175zM340 805q0 320 91.5 460t307.5 140h299
v-1200h-299q-218 0 -308.5 139t-90.5 461z" />
    <glyph glyph-name="_767" unicode="&#x153;" horiz-adv-x="2031" 
d="M618 991q151 0 217 -106t66 -310q0 -207 -66 -313t-217 -106q-152 0 -218 106t-66 313q0 205 66 310.5t218 105.5zM1411 995q263 0 279 -323h-560q19 323 281 323zM1419 -29q199 0 323.5 97.5t153.5 275.5h-229q-19 -91 -83.5 -140.5t-168.5 -49.5q-278 0 -287 354h791
q2 14 2 67q0 289 -128 446t-376 157q-142 0 -246 -59t-157 -167q-53 108 -157.5 167t-246.5 59q-247 0 -374 -157t-127 -446q0 -291 126.5 -447.5t374.5 -156.5q140 0 245.5 58.5t158.5 163.5q55 -106 158 -164t247 -58z" />
    <glyph glyph-name="_677" unicode="&#x166;" horiz-adv-x="1210" 
d="M244 737h241v-737h238v737h244v170h-244v498h455v207h-1147v-207h454v-498h-241v-170z" />
    <glyph glyph-name="_770" unicode="&#x167;" horiz-adv-x="831" 
d="M700 537v153h-256v275h318v186h-318v326h-227v-326h-168v-186h168v-275h-137v-153h137v-226q0 -182 89.5 -254.5t297.5 -72.5q117 0 158 4v180h-115q-115 0 -159 36.5t-44 145.5v187h256z" />
    <glyph glyph-name="_8275" unicode="&#x2bc;" horiz-adv-x="983" 
d="M184 1634q0 60 28.5 87.5t88.5 27.5q61 0 88 -27.5t27 -87.5q0 -298 -287 -356l-27 61q157 47 197 179q-59 0 -87 27.5t-28 88.5z" />
    <glyph glyph-name="_201" unicode="&#x2c7;" horiz-adv-x="835" 
d="M514 1309l274 372h-200l-170 -208l-170 208h-201l272 -372h195z" />
    <glyph glyph-name="_18158" unicode="&#x2d0;" horiz-adv-x="1024" 
d="M516 950l242 363h-494zM264 123h494l-242 360z" />
    <glyph glyph-name="_202" unicode="&#x2d8;" horiz-adv-x="831" 
d="M416 1317q155 0 250 90.5t102 253.5h-195q-9 -178 -157 -178q-149 0 -158 178h-197q9 -163 104.5 -253.5t250.5 -90.5z" />
    <glyph glyph-name="_205" unicode="&#x2d9;" horiz-adv-x="765" 
d="M502 1610h-240v-244h240v244z" />
    <glyph glyph-name="_204" unicode="&#x2da;" horiz-adv-x="800" 
d="M649 1493q0 112 -69.5 176t-178.5 64q-110 0 -179.5 -63.5t-69.5 -176.5q0 -112 69.5 -176t179.5 -64q109 0 178.5 64.5t69.5 175.5zM498 1493q0 -49 -26.5 -78t-70.5 -29q-46 0 -73 29t-27 78q0 51 27 80t73 29q45 0 71 -29t26 -80z" />
    <glyph glyph-name="_207" unicode="&#x2db;" horiz-adv-x="806" 
d="M315 -2q-81 -42 -128.5 -113t-47.5 -147v-17q0 -107 76.5 -166t210.5 -59q159 0 242 86l-78 117q-59 -53 -148 -53q-62 0 -95.5 30t-33.5 76v10q0 59 47 121.5t140 114.5h-185z" />
    <glyph glyph-name="_203" unicode="&#x2dd;" horiz-adv-x="845" 
d="M819 1681h-231l-242 -374h182zM453 1681h-232l-196 -374h184z" />
    <glyph glyph-name="_471" unicode="&#x391;" horiz-adv-x="1400" 
d="M559 1612l-543 -1612h248l113 354h639l114 -354h246l-542 1612h-275zM438 559l258 811l254 -811h-512z" />
    <glyph glyph-name="_472" unicode="&#x392;" horiz-adv-x="1361" 
d="M778 -2q504 0 504 455q0 150 -77 252t-214 131q115 33 179.5 122.5t64.5 225.5q0 210 -124 319t-368 109h-600v-1614h635zM1042 463q0 -135 -75 -197.5t-240 -62.5h-344v522h344q165 0 240 -62.5t75 -199.5zM997 1167q0 -126 -74 -181.5t-227 -55.5h-313v475h313
q153 0 227 -56t74 -182z" />
    <glyph glyph-name="_473" unicode="&#x393;" horiz-adv-x="1120" 
d="M143 1612v-1614h240v1407h715v207h-955z" />
    <glyph glyph-name="_474" unicode="&#x394;" horiz-adv-x="1400" 
d="M563 1612l-545 -1612h1362l-542 1612h-275zM1069 203h-739l370 1167z" />
    <glyph glyph-name="_475" unicode="&#x395;" horiz-adv-x="1198" 
d="M143 -2h969v205h-729v518h635v207h-635v477h717v207h-957v-1614z" />
    <glyph glyph-name="_476" unicode="&#x396;" horiz-adv-x="1216" 
d="M82 184v-186h1051v205h-762l751 1220v189h-1018v-207h732z" />
    <glyph glyph-name="_477" unicode="&#x397;" horiz-adv-x="1409" 
d="M1024 -2h240v1614h-240v-684h-641v684h-240v-1614h240v723h641v-723z" />
    <glyph glyph-name="_478" unicode="&#x398;" horiz-adv-x="1458" 
d="M1356 805q0 833 -627 833t-627 -833q0 -140 16.5 -256.5t60 -226.5t112.5 -185t180.5 -120.5t257.5 -45.5q627 0 627 834zM1118 805q0 -331 -91.5 -479t-297.5 -148q-212 0 -300.5 148.5t-88.5 478.5q0 329 90 478t299 149q208 0 298.5 -148.5t90.5 -478.5zM489 709h480
v190h-480v-190z" />
    <glyph glyph-name="_479" unicode="&#x399;" horiz-adv-x="528" 
d="M383 1612h-240v-1614h240v1614z" />
    <glyph glyph-name="_480" unicode="&#x39a;" horiz-adv-x="1327" 
d="M1264 1612h-263l-444 -684h-174v684h-240v-1614h240v723h174l508 -723h268l-585 827z" />
    <glyph glyph-name="_481" unicode="&#x39b;" horiz-adv-x="1400" 
d="M1380 0l-542 1612h-275l-545 -1612h248l434 1370l433 -1370h247z" />
    <glyph glyph-name="_482" unicode="&#x39c;" horiz-adv-x="1892" 
d="M1059 -2l452 1128v-1128h236v1614h-258l-543 -1354l-543 1354h-260v-1614h236v1128l452 -1128h228z" />
    <glyph glyph-name="_483" unicode="&#x39d;" horiz-adv-x="1431" 
d="M1286 0v1612h-237v-1192l-662 1192h-244v-1612h238v1190l663 -1190h242z" />
    <glyph glyph-name="_484" unicode="&#x39e;" horiz-adv-x="1286" 
d="M98 1405h1090v207h-1090v-207zM86 -2h1112v205h-1112v-205zM180 721h926v207h-926v-207z" />
    <glyph glyph-name="_485" unicode="&#x39f;" horiz-adv-x="1458" 
d="M1356 805q0 833 -627 833t-627 -833q0 -140 16.5 -256.5t60 -226.5t112.5 -185t180.5 -120.5t257.5 -45.5q627 0 627 834zM1118 805q0 -331 -91.5 -479t-297.5 -148q-212 0 -300.5 148.5t-88.5 478.5q0 329 90 478t299 149q208 0 298.5 -148.5t90.5 -478.5z" />
    <glyph glyph-name="_486" unicode="&#x3a0;" horiz-adv-x="1409" 
d="M1024 -2h240v1614h-1121v-1614h240v1407h641v-1407z" />
    <glyph glyph-name="_487" unicode="&#x3a1;" horiz-adv-x="1343" 
d="M770 600q244 0 378 133t134 373q0 239 -134 372.5t-378 133.5h-627v-1614h240v602h387zM383 805v600h356q149 0 226 -77.5t77 -221.5t-77 -222.5t-226 -78.5h-356z" />
    <glyph glyph-name="_488" unicode="&#x3a3;" horiz-adv-x="1185" 
d="M102 207v-209h1012v205h-733l371 585v82l-367 535h729v207h-1012v-209l398 -574z" />
    <glyph glyph-name="_489" unicode="&#x3a4;" horiz-adv-x="1210" 
d="M31 1405h454v-1407h240v1407h453v207h-1147v-207z" />
    <glyph glyph-name="_490" unicode="&#x3a5;" horiz-adv-x="1376" 
d="M686 850l-403 762h-252l536 -977v-637h240v637l536 977h-251z" />
    <glyph glyph-name="_491" unicode="&#x3a6;" horiz-adv-x="1665" 
d="M950 1612h-237v-244q-146 -7 -262 -44t-201 -105t-130.5 -173t-45.5 -241q0 -269 170 -410t469 -155v-242h237v242q300 14 470.5 155t170.5 410q0 136 -45.5 241t-131 173t-201.5 105t-263 44v244zM311 805q0 174 106.5 263t295.5 95v-719q-188 6 -295 96t-107 265z
M1352 805q0 -175 -106.5 -265t-295.5 -96v719q190 -6 296 -95t106 -263z" />
    <glyph glyph-name="_492" unicode="&#x3a7;" horiz-adv-x="1376" 
d="M1343 0l-507 829l475 783h-258l-365 -617l-362 617h-260l473 -783l-506 -829h260l395 659l395 -659h260z" />
    <glyph glyph-name="_493" unicode="&#x3a8;" horiz-adv-x="1564" 
d="M664 1612v-1053q-152 23 -227 127.5t-75 294.5v631h-239v-651q0 -258 139.5 -419.5t401.5 -191.5v-350h237v350q261 30 400 191.5t139 419.5v651h-238v-631q0 -376 -301 -422v1053h-237z" />
    <glyph glyph-name="_494" unicode="&#x3a9;" horiz-adv-x="1458" 
d="M729 1638q-322 0 -477 -213q-150 -204 -150 -591q0 -238 74 -401.5t213 -229.5h-254v-205h512v205q-162 56 -234.5 203.5t-72.5 398.5q0 186 24 304t78 194q96 129 287 129q192 0 285 -129q55 -76 78.5 -193t23.5 -305q0 -250 -72 -398t-233 -204v-205h512v205h-254
q139 66 213 229.5t74 401.5q0 383 -150 591q-155 213 -477 213z" />
    <glyph glyph-name="_495" unicode="&#x3b1;" horiz-adv-x="1261" 
d="M879 575q0 -208 -65.5 -313.5t-217.5 -105.5t-217.5 105.5t-65.5 313.5q0 205 65.5 310.5t217.5 105.5t217.5 -105.5t65.5 -310.5zM879 178q9 -104 64.5 -150t180.5 -46q49 0 103 4v184h-35q-47 0 -66.5 20.5t-19.5 73.5v887h-227v-180q-34 96 -121.5 151.5t-212.5 55.5
q-220 0 -339.5 -151.5t-119.5 -451.5q0 -303 119.5 -453.5t339.5 -150.5q125 0 212.5 55.5t121.5 151.5z" />
    <glyph glyph-name="_496" unicode="&#x3b2;" horiz-adv-x="1259" 
d="M1118 1184q0 204 -130 329t-367 125q-238 0 -368 -129t-130 -352v-1659h227v674q42 -100 134 -150.5t223 -50.5q215 0 348 127.5t133 350.5q0 166 -96 271.5t-244 125.5q127 27 198.5 119t71.5 219zM891 1176q0 -109 -67.5 -173.5t-194.5 -64.5h-60v-184h60
q157 0 244.5 -79.5t87.5 -213.5q0 -145 -80 -225t-226 -80q-148 0 -226.5 86t-78.5 245v660q0 149 70.5 227t200.5 78q127 0 198.5 -73.5t71.5 -202.5z" />
    <glyph glyph-name="_497" unicode="&#x3b3;" horiz-adv-x="1171" 
d="M698 -502v486l441 1167h-238l-315 -897l-316 897h-237l438 -1165v-488h227z" />
    <glyph glyph-name="_498" unicode="&#x3b4;" horiz-adv-x="1191" 
d="M502 1425h516v187h-823v-187l331 -264q-215 -19 -327.5 -168t-112.5 -418q0 -292 127.5 -448t382.5 -156q254 0 382 156t128 448q0 349 -193 508zM311 575q0 205 66.5 310.5t218.5 105.5q151 0 217 -106t66 -310q0 -207 -66 -312t-217 -105q-153 0 -219 105t-66 312z" />
    <glyph glyph-name="_499" unicode="&#x3b5;" horiz-adv-x="1097" 
d="M557 680q-110 0 -166.5 43.5t-56.5 114.5t56.5 114t166.5 43q109 0 166 -43.5t57 -113.5v-19h228v21q0 149 -116 243.5t-335 94.5q-218 0 -333 -93t-115 -237q0 -95 60.5 -166t154.5 -92q-109 -19 -175.5 -93t-66.5 -184q0 -156 128.5 -249t354.5 -93q223 0 352.5 94
t129.5 250v15h-228v-6q0 -79 -69 -125.5t-185 -46.5q-120 0 -188 45t-68 129q0 82 68 127t188 45h160v182h-168z" />
    <glyph glyph-name="_500" unicode="&#x3b6;" horiz-adv-x="1015" 
d="M846 147q-203 3 -322.5 40.5t-169 106.5t-49.5 181q0 271 166 511t483 433v193h-759v-187h495q-282 -174 -447 -428.5t-165 -537.5q0 -235 161.5 -360.5t491.5 -125.5q-20 -125 -127 -323l170 -51q79 116 129.5 240.5t50.5 209.5q0 53 -23 75t-85 23z" />
    <glyph glyph-name="_501" unicode="&#x3b7;" horiz-adv-x="1216" 
d="M350 0v496q0 249 67.5 372t227.5 123q126 0 174.5 -97t48.5 -300v-1094h228v1219q0 221 -102.5 340t-291.5 119q-131 0 -223 -65.5t-129 -180.5v219h-227v-1151h227z" />
    <glyph glyph-name="_502" unicode="&#x3b8;" horiz-adv-x="1294" 
d="M1196 807q0 304 -60.5 488t-179 264.5t-309.5 80.5t-309.5 -80.5t-179 -264.5t-60.5 -488q0 -305 60.5 -490t179 -265.5t309.5 -80.5t309.5 80.5t179 265.5t60.5 490zM647 1456q169 0 241.5 -134t80.5 -425h-643q5 291 77 425t244 134zM647 158q-168 0 -241.5 132
t-79.5 425h643q-8 -294 -78 -425.5t-244 -131.5z" />
    <glyph glyph-name="_503" unicode="&#x3b9;" horiz-adv-x="534" 
d="M350 1151h-227v-915q0 -139 58 -196.5t190 -57.5q59 0 100 6v182h-35q-48 0 -67 20.5t-19 73.5v887z" />
    <glyph glyph-name="_504" unicode="&#x3ba;" horiz-adv-x="1095" 
d="M350 0v510h115l364 -510h256l-432 598l381 553h-250l-317 -463h-117v463h-227v-1151h227z" />
    <glyph glyph-name="_505" unicode="&#x3bb;" horiz-adv-x="1120" 
d="M449 1141l-443 -1143h236l319 864l316 -864h237l-522 1380q-57 153 -136.5 206.5t-217.5 53.5q-70 0 -97 -4v-180h72q62 0 101 -27.5t67 -103.5z" />
    <glyph glyph-name="_506" unicode="&#x3bc;" horiz-adv-x="1220" 
d="M571 -29q104 0 183 61t116 165v-197h226v1151h-226v-629q0 -171 -83.5 -267.5t-211.5 -96.5q-103 0 -164 72.5t-61 199.5v721h-227v-1651h227v613q25 -66 83 -104t138 -38z" />
    <glyph glyph-name="_507" unicode="&#x3bd;" horiz-adv-x="1171" 
d="M715 -2l424 1153h-238l-315 -911l-316 911h-237l424 -1153h258z" />
    <glyph glyph-name="_508" unicode="&#x3be;" horiz-adv-x="1067" 
d="M780 -27q-23 -123 -127 -323l168 -51q79 116 129.5 240.5t50.5 209.5q0 54 -22.5 75.5t-85.5 22.5q-588 9 -588 351q0 102 51.5 185.5t134.5 128t177 44.5h104v186h-162q-106 0 -169.5 53.5t-63.5 153.5q0 97 52 150t153 53q95 0 146.5 -45.5t59.5 -122.5h228
q-6 157 -116 255.5t-318 98.5q-210 0 -321 -103.5t-111 -268.5q0 -129 77.5 -215t206.5 -111q-162 -56 -259 -177t-97 -292q0 -234 187 -365t515 -133z" />
    <glyph glyph-name="_509" unicode="&#x3bf;" horiz-adv-x="1191" 
d="M1106 575q0 289 -128 446t-382 157t-382 -157t-128 -446q0 -292 128 -448t382 -156t382 156t128 448zM313 575q0 205 65.5 310.5t217.5 105.5t217.5 -105.5t65.5 -310.5q0 -208 -65.5 -313.5t-217.5 -105.5t-217.5 105.5t-65.5 313.5z" />
    <glyph glyph-name="_510" unicode="&#x3c0;" horiz-adv-x="1269" 
d="M455 965h358v-967h227v967h174v186h-1159v-186h172v-967h228v967z" />
    <glyph glyph-name="_511" unicode="&#x3c1;" horiz-adv-x="1210" 
d="M1122 575q0 290 -127.5 446.5t-382.5 156.5q-254 0 -382 -157t-128 -446v-1077h228v678q34 -94 121 -149.5t211 -55.5q221 0 340.5 151t119.5 453zM612 156q-151 0 -216.5 106t-65.5 313q0 205 65.5 310.5t216.5 105.5q152 0 217.5 -105.5t65.5 -310.5
q0 -208 -65.5 -313.5t-217.5 -105.5z" />
    <glyph glyph-name="_512" unicode="&#x3c3;" horiz-adv-x="1216" 
d="M1106 561q0 162 -55 266.5t-148 137.5h273v186h-580q-252 0 -381 -153t-129 -437q0 -285 129 -437.5t381 -152.5t381 152.5t129 437.5zM879 561q0 -199 -67.5 -302t-215.5 -103t-215.5 103t-67.5 302q0 197 67.5 300.5t215.5 103.5t215.5 -103.5t67.5 -300.5z" />
    <glyph glyph-name="_513" unicode="&#x3c4;" horiz-adv-x="1034" 
d="M993 1151h-966v-186h356v-680q0 -172 65 -237.5t238 -65.5q70 0 117 6v178h-66q-74 0 -100.5 25t-26.5 100v674h383v186z" />
    <glyph glyph-name="_514" unicode="&#x3c5;" horiz-adv-x="1196" 
d="M598 -29q230 0 356.5 116.5t126.5 344.5v719h-227v-717q0 -141 -66.5 -209.5t-189.5 -68.5q-258 0 -258 278v717h-227v-719q0 -228 127 -344.5t358 -116.5z" />
    <glyph glyph-name="_515" unicode="&#x3c6;" horiz-adv-x="1587" 
d="M485 1130q-211 -40 -306 -179.5t-95 -389.5q0 -296 139 -441t457 -149v-473h227v473q318 4 457 149t139 441t-141 442.5t-461 147.5h-221v-995q-135 0 -213.5 36t-117 124.5t-38.5 244.5q0 181 51 268.5t160 116.5zM1276 561q0 -156 -38.5 -244.5t-117 -124.5t-213.5 -36
v809q102 -1 169 -20t113.5 -65.5t66.5 -123.5t20 -195z" />
    <glyph glyph-name="_516" unicode="&#x3c7;" horiz-adv-x="1134" 
d="M887 -502h243l-421 848l397 805h-242l-297 -621l-299 621h-241l397 -805l-420 -848h242l321 660z" />
    <glyph glyph-name="_517" unicode="&#x3c8;" horiz-adv-x="1503" 
d="M637 -500h227v477q249 17 387 147.5t138 350.5v676h-226v-672q0 -140 -78.5 -222t-220.5 -91v985h-227v-985q-142 9 -220.5 91t-78.5 222v672h-225v-676q0 -220 138 -350.5t386 -147.5v-477z" />
    <glyph glyph-name="_518" unicode="&#x3c9;" horiz-adv-x="1716" 
d="M745 924v-412q0 -187 -51.5 -271.5t-158.5 -84.5q-111 0 -163.5 90.5t-52.5 294.5q0 280 119 610h-229q-117 -319 -117 -614q0 -566 422 -566q134 0 222.5 62t121.5 184q33 -122 121.5 -184t222.5 -62q422 0 422 566q0 295 -117 614h-229q119 -330 119 -610
q0 -204 -52 -294.5t-163 -90.5q-107 0 -159 85t-52 271v412h-226z" />
    <glyph glyph-name="_1026" unicode="&#x401;" horiz-adv-x="1193" 
d="M143 2h963v207h-725v512h631v207h-631v473h713v207h-951v-1606zM532 2054h-241v-248h241v248zM942 2054h-240v-248h240v248z" />
    <glyph glyph-name="_1020" unicode="&#x410;" horiz-adv-x="1394" 
d="M1372 2l-536 1606h-281l-535 -1606h246l113 356h635l112 -356h246zM948 565h-506l254 807z" />
    <glyph glyph-name="_1021" unicode="&#x411;" horiz-adv-x="1288" 
d="M705 2q249 0 380.5 118.5t131.5 354.5q0 235 -131.5 353t-380.5 118h-326v453h741v209h-979v-1606h564zM979 475q0 -136 -74.5 -201t-230.5 -65h-295v528h295q157 0 231 -63.5t74 -198.5z" />
    <glyph glyph-name="_1022" unicode="&#x412;" horiz-adv-x="1351" 
d="M381 930v471h307q153 0 228 -55.5t75 -180.5t-75 -180t-228 -55h-307zM776 2q498 0 498 453q0 149 -76 251.5t-213 131.5q115 33 179.5 121.5t64.5 222.5q0 210 -124 318t-368 108h-594v-1606h633zM1036 467q0 -135 -74.5 -196.5t-238.5 -61.5h-342v516h342
q164 0 238.5 -61.5t74.5 -196.5z" />
    <glyph glyph-name="_1023" unicode="&#x413;" horiz-adv-x="1114" 
d="M143 1608v-1606h238v1399h713v207h-951z" />
    <glyph glyph-name="_1024" unicode="&#x414;" horiz-adv-x="1447" 
d="M496 1399h503v-1190h-569q66 291 66 700v490zM258 928q0 -424 -74 -719h-157v-481h239v274h901v-274h238v481h-168v1399h-979v-680z" />
    <glyph glyph-name="_1025" unicode="&#x415;" horiz-adv-x="1193" 
d="M143 2h963v207h-725v512h631v207h-631v473h713v207h-951v-1606z" />
    <glyph glyph-name="_1027" unicode="&#x416;" horiz-adv-x="2002" 
d="M881 1608v-680h-164l-377 680h-258l444 -783l-514 -823h262l443 719h164v-719h239v719h164l442 -719h265l-514 823l442 783h-258l-377 -680h-164v680h-239z" />
    <glyph glyph-name="_1028" unicode="&#x417;" horiz-adv-x="1275" 
d="M436 954v-204h187q148 0 235.5 -75.5t87.5 -211.5q0 -129 -85 -205t-228 -76q-145 0 -230.5 76t-85.5 205v18h-237v-26q0 -216 151 -348t402 -132t401 132t150 348q0 157 -83.5 262t-232.5 137q124 30 196.5 122t72.5 230q0 186 -132.5 307t-371.5 121t-372.5 -121
t-133.5 -307v-30h240v16q0 104 69.5 168.5t196.5 64.5q123 0 193.5 -65t70.5 -168q0 -116 -69.5 -177t-204.5 -61h-187z" />
    <glyph glyph-name="_1029" unicode="&#x418;" horiz-adv-x="1421" 
d="M1034 1608l-655 -1184v1184h-238v-1606h244l655 1182v-1182h238v1606h-244z" />
    <glyph glyph-name="_1030" unicode="&#x419;" horiz-adv-x="1421" 
d="M1034 1608l-655 -1184v1184h-238v-1606h244l655 1182v-1182h238v1606h-244zM711 1757q153 0 248 89.5t104 250.5h-199q-9 -172 -153 -172q-147 0 -156 172h-199q9 -161 105 -250.5t250 -89.5z" />
    <glyph glyph-name="_1031" unicode="&#x41a;" horiz-adv-x="1320" 
d="M1260 1608h-265l-444 -680h-170v680h-238v-1606h238v719h170l510 -719h270l-592 821z" />
    <glyph glyph-name="_1032" unicode="&#x41b;" horiz-adv-x="1484" 
d="M248 356q0 -95 -35 -129t-123 -34h-67v-201q31 -6 108 -6q97 0 160.5 16t108.5 57t65 111t20 178v1053h621v-1399h237v1606h-1095v-1252z" />
    <glyph glyph-name="_1033" unicode="&#x41c;" horiz-adv-x="1880" 
d="M1055 2l446 1122v-1122h238v1606h-264l-535 -1336l-534 1336h-263v-1606h236v1122l448 -1122h228z" />
    <glyph glyph-name="_1034" unicode="&#x41d;" horiz-adv-x="1398" 
d="M1018 2h237v1606h-237v-680h-637v680h-238v-1606h238v719h637v-719z" />
    <glyph glyph-name="_1035" unicode="&#x41e;" horiz-adv-x="1452" 
d="M727 -25q623 0 623 830q0 829 -623 829q-106 0 -194 -24t-151.5 -65.5t-112.5 -102.5t-80.5 -130.5t-51 -155t-27.5 -170.5t-8 -181q0 -138 16 -252.5t58.5 -224.5t110.5 -185.5t180 -121.5t260 -46zM727 182q-90 0 -156.5 28t-110.5 79t-71 130t-38 172t-11 214
q0 119 11 211t37.5 171t70 130t111 79.5t157.5 28.5q89 0 155.5 -28.5t110 -79.5t70.5 -129.5t38 -171t11 -211.5q0 -121 -11 -214.5t-38.5 -172t-71 -129.5t-110 -79t-154.5 -28z" />
    <glyph glyph-name="_1036" unicode="&#x41f;" horiz-adv-x="1398" 
d="M1018 2h237v1606h-1112v-1606h238v1399h637v-1399z" />
    <glyph glyph-name="_1037" unicode="&#x420;" horiz-adv-x="1335" 
d="M381 811v590h356q147 0 223 -77t76 -218t-76 -218t-223 -77h-356zM768 604q240 0 373 131.5t133 370.5q0 237 -133.5 369.5t-372.5 132.5h-625v-1606h238v602h387z" />
    <glyph glyph-name="_1038" unicode="&#x421;" horiz-adv-x="1425" 
d="M340 805q0 119 11 211t37.5 171t70 130t111 79.5t157.5 28.5q168 0 263 -93.5t106 -258.5h237q-14 254 -173.5 407.5t-432.5 153.5q-106 0 -194 -24t-151.5 -65.5t-112.5 -102.5t-80.5 -130.5t-51 -155t-27.5 -170.5t-8 -181q0 -138 16 -252.5t58.5 -224.5t110.5 -185.5
t180 -121.5t260 -46q273 0 432.5 153t173.5 407h-237q-11 -165 -106 -259t-263 -94q-90 0 -156.5 28t-110.5 79t-71 130t-38 172t-11 214z" />
    <glyph glyph-name="_1039" unicode="&#x422;" horiz-adv-x="1204" 
d="M31 1401h452v-1399h238v1399h453v207h-1143v-207z" />
    <glyph glyph-name="_1040" unicode="&#x423;" horiz-adv-x="1345" 
d="M395 2q143 0 218 56t141 214l569 1336h-248l-389 -906l-399 906h-248l524 -1190l-45 -103q-26 -61 -59.5 -84.5t-91.5 -23.5h-76v-203q33 -2 104 -2z" />
    <glyph glyph-name="_1041" unicode="&#x424;" horiz-adv-x="1648" 
d="M1575 805q0 263 -168.5 403t-464.5 156v244h-237v-244q-145 -8 -260 -45.5t-198.5 -105.5t-128 -171.5t-44.5 -236.5q0 -265 167.5 -405t463.5 -156v-242h237v242q297 16 465 156t168 405zM1335 805q0 -170 -104 -260.5t-289 -98.5v713q185 -6 289 -95.5t104 -258.5z
M705 446q-184 8 -289 98.5t-105 260.5q0 169 105 258.5t289 95.5v-713z" />
    <glyph glyph-name="_1042" unicode="&#x425;" horiz-adv-x="1372" 
d="M1337 2l-506 825l474 781h-258l-363 -609l-360 609h-258l469 -781l-502 -825h258l393 653l393 -653h260z" />
    <glyph glyph-name="_1043" unicode="&#x426;" horiz-adv-x="1466" 
d="M1255 209v1399h-237v-1399h-639v1399h-238v-1606h1045v-274h237v481h-168z" />
    <glyph glyph-name="_1044" unicode="&#x427;" horiz-adv-x="1353" 
d="M973 2h237v1606h-237v-740q-60 -53 -151.5 -82.5t-192.5 -29.5q-141 0 -204 67.5t-63 225.5v559h-237v-584q0 -244 114.5 -359.5t352.5 -115.5q108 0 212 31.5t169 83.5v-662z" />
    <glyph glyph-name="_1045" unicode="&#x428;" horiz-adv-x="2140" 
d="M1759 209h-569v1399h-240v-1399h-569v1399h-238v-1606h1854v1606h-238v-1399z" />
    <glyph glyph-name="_1046" unicode="&#x429;" horiz-adv-x="2209" 
d="M1759 209h-571v1399h-238v-1399h-571v1399h-238v-1606h1788v-274h236v481h-168v1399h-238v-1399z" />
    <glyph glyph-name="_1047" unicode="&#x42a;" horiz-adv-x="1574" 
d="M991 2q249 0 380.5 118.5t131.5 354.5q0 235 -131.5 353t-380.5 118h-325v662h-635v-209h397v-1397h563zM1266 475q0 -136 -74.5 -201t-230.5 -65h-295v528h295q157 0 231 -63.5t74 -198.5z" />
    <glyph glyph-name="_1048" unicode="&#x42b;" horiz-adv-x="1777" 
d="M1636 1608h-239v-1606h239v1606zM705 2q249 0 380.5 118.5t131.5 354.5q0 235 -131.5 353t-380.5 118h-326v662h-238v-1606h564zM979 475q0 -136 -74.5 -201t-230.5 -65h-295v528h295q157 0 231 -63.5t74 -198.5z" />
    <glyph glyph-name="_1049" unicode="&#x42c;" horiz-adv-x="1288" 
d="M705 2q249 0 380.5 118.5t131.5 354.5q0 235 -131.5 353t-380.5 118h-326v662h-238v-1606h564zM979 475q0 -136 -74.5 -201t-230.5 -65h-295v528h295q157 0 231 -63.5t74 -198.5z" />
    <glyph glyph-name="_1050" unicode="&#x42d;" horiz-adv-x="1425" 
d="M698 1425q102 0 175.5 -36t117 -106t64.5 -161.5t26 -214.5h-501v-207h501q-5 -123 -27 -215t-66 -161.5t-116.5 -105.5t-173.5 -36q-168 0 -263.5 94t-104.5 259h-240q14 -254 174.5 -407t433.5 -153q625 0 625 830q0 829 -625 829q-273 0 -433.5 -153.5t-174.5 -407.5
h240q9 165 104.5 258.5t263.5 93.5z" />
    <glyph glyph-name="_1051" unicode="&#x42e;" horiz-adv-x="1902" 
d="M1178 -25q146 0 257 46t179 121.5t111 185.5t59 224.5t16 252.5q0 829 -622 829q-588 0 -621 -727h-178v701h-238v-1606h238v698h178q33 -725 621 -725zM1178 182q-90 0 -157 28t-110.5 78.5t-70 129.5t-37 172t-10.5 215q0 120 10.5 211.5t37 170.5t69.5 130t110 79.5
t158 28.5q111 0 187.5 -42.5t119 -127t60.5 -192.5t18 -258q0 -121 -11 -214t-38 -172t-70.5 -130t-110 -79t-155.5 -28z" />
    <glyph glyph-name="_1052" unicode="&#x42f;" horiz-adv-x="1380" 
d="M369 336q9 149 75.5 210.5t225.5 61.5h329v-606h238v1606h-625q-249 0 -378.5 -126t-129.5 -358q0 -160 71 -264.5t208 -144.5q-120 -22 -179 -103t-69 -239l-12 -197q-4 -79 -31 -174h242q15 48 22 141zM647 815q-303 0 -303 293t303 293h352v-586h-352z" />
    <glyph glyph-name="_1053" unicode="&#x430;" horiz-adv-x="1183" 
d="M836 125q0 -74 22 -123h232q-27 66 -27 158v583q0 202 -120.5 317.5t-354.5 115.5q-216 0 -335.5 -97t-131.5 -270h227q25 180 240 180q123 0 185.5 -63.5t62.5 -182.5v-186q-30 70 -117 109t-207 39q-201 0 -317.5 -96.5t-116.5 -268.5q0 -173 116 -269t318 -96
q125 0 210.5 40.5t113.5 109.5zM569 158q-266 0 -266 182q0 89 68 135.5t198 46.5q132 0 200.5 -46.5t68.5 -135.5q0 -182 -269 -182z" />
    <glyph glyph-name="_1054" unicode="&#x431;" horiz-adv-x="1196" 
d="M322 575q0 202 64.5 308t215.5 106q153 0 218 -106t65 -308t-65 -307.5t-218 -105.5q-151 0 -215.5 105.5t-64.5 307.5zM96 727q0 -173 21 -301t60 -214.5t102 -139t141 -75t182 -22.5q253 0 379.5 154t126.5 446q0 301 -118 451t-331 150q-127 0 -214.5 -55t-122.5 -150
q3 82 10 138t24 101t39 72.5t62 49.5t86.5 35t118.5 26l294 53l-65 188l-281 -51q-83 -15 -141 -30.5t-113 -40.5t-90 -55t-67 -77t-49.5 -105t-30.5 -140t-18 -180t-5 -228z" />
    <glyph glyph-name="_1055" unicode="&#x432;" horiz-adv-x="1116" 
d="M649 2q395 0 395 330q0 210 -202 262q84 26 129 88t45 152q0 149 -94 232t-291 83h-508v-1147h526zM348 676v287h260q95 0 139 -34.5t44 -109.5t-44 -109t-139 -34h-260zM821 340q0 -82 -49 -118t-149 -36h-275v308h275q100 0 149 -36t49 -118z" />
    <glyph glyph-name="_1056" unicode="&#x433;" horiz-adv-x="905" 
d="M866 963v186h-741v-1147h223v961h518z" />
    <glyph glyph-name="_1057" unicode="&#x434;" horiz-adv-x="1187" 
d="M424 961h364v-773h-407q43 195 43 517v256zM201 715q0 -309 -49 -527h-132v-438h228v252h680v-252h225v438h-139v961h-813v-434z" />
    <glyph glyph-name="_1058" unicode="&#x435;" horiz-adv-x="1185" 
d="M1098 506q2 23 2 69q0 290 -128 445.5t-378 155.5q-252 0 -380 -155.5t-128 -445.5q0 -291 128.5 -445.5t383.5 -154.5q203 0 326 97.5t151 273.5h-231q-12 -86 -76 -134t-170 -48q-272 0 -285 342h785zM594 987q250 0 276 -309h-555q13 151 79.5 230t199.5 79z" />
    <glyph glyph-name="_1060" unicode="&#x436;" horiz-adv-x="1624" 
d="M924 1149h-226v-461h-125l-264 461h-235l317 -551l-371 -596h246l309 508h123v-508h226v508h123l309 -508h246l-371 596l317 551h-237l-260 -461h-127v461z" />
    <glyph glyph-name="_1061" unicode="&#x437;" horiz-adv-x="1103" 
d="M379 684v-184h164q117 0 185.5 -45t68.5 -127q0 -80 -68 -123t-186 -43q-117 0 -185.5 44t-68.5 120v8h-226v-17q0 -155 128 -248.5t352 -93.5t351.5 93t127.5 249q0 109 -66.5 183t-173.5 92q92 21 152.5 91.5t60.5 162.5q0 146 -113.5 238t-332.5 92q-218 0 -332.5 -94
t-114.5 -244v-21h226v21q0 69 56 110t165 41q110 0 165.5 -41t55.5 -110q0 -68 -56 -111t-165 -43h-170z" />
    <glyph glyph-name="_1062" unicode="&#x438;" horiz-adv-x="1167" 
d="M827 1149l-479 -772v772h-225v-1147h215l481 772v-772h223v1147h-215z" />
    <glyph glyph-name="_1063" unicode="&#x439;" horiz-adv-x="1167" 
d="M827 1149l-479 -772v772h-225v-1147h215l481 772v-772h223v1147h-215zM586 1305q154 0 249.5 90t104.5 250h-199q-9 -172 -155 -172q-145 0 -154 172h-199q9 -159 104.5 -249.5t248.5 -90.5z" />
    <glyph glyph-name="_1064" unicode="&#x43a;" horiz-adv-x="1093" 
d="M348 2v508h113l362 -508h260l-434 596l381 551h-252l-313 -459h-117v459h-225v-1147h225z" />
    <glyph glyph-name="_1065" unicode="&#x43b;" horiz-adv-x="1232" 
d="M219 324q0 -83 -30.5 -115.5t-100.5 -32.5h-57v-186q36 -4 78 -4q185 0 259 83t74 300v592h441v-959h227v1147h-891v-825z" />
    <glyph glyph-name="_1066" unicode="&#x43c;" horiz-adv-x="1472" 
d="M1124 2h224v1147h-218l-395 -891l-397 891h-215v-1147h221v672l301 -672h180l299 672v-672z" />
    <glyph glyph-name="_1067" unicode="&#x43d;" horiz-adv-x="1159" 
d="M1036 1149h-227v-465h-461v465h-223v-1147h223v494h461v-494h227v1147z" />
    <glyph glyph-name="_1068" unicode="&#x43e;" horiz-adv-x="1185" 
d="M594 162q-151 0 -216 105.5t-65 307.5t65 308t216 106t215.5 -106t64.5 -308t-64.5 -307.5t-215.5 -105.5zM594 1176q-252 0 -380 -155t-128 -446t128 -445.5t380 -154.5q251 0 378.5 154.5t127.5 445.5t-127.5 446t-378.5 155z" />
    <glyph glyph-name="_1069" unicode="&#x43f;" horiz-adv-x="1159" 
d="M1036 1149h-911v-1147h223v961h461v-961h227v1147z" />
    <glyph glyph-name="_1070" unicode="&#x440;" horiz-adv-x="1222" 
d="M348 1149h-223v-1645h223v676q34 -95 121 -150t209 -55q218 0 338.5 149.5t120.5 450.5q0 302 -120.5 451.5t-338.5 149.5q-122 0 -209 -55t-121 -150v178zM631 162q-153 0 -218 105.5t-65 307.5t65 308t218 106q150 0 214 -106t64 -308t-64 -307.5t-214 -105.5z" />
    <glyph glyph-name="_1071" unicode="&#x441;" horiz-adv-x="1159" 
d="M86 575q0 -291 128 -445.5t380 -154.5q213 0 340 104.5t149 299.5h-229q-11 -102 -78.5 -159.5t-181.5 -57.5q-151 0 -216 105.5t-65 307.5t65 308t216 106q114 0 181.5 -57.5t78.5 -159.5h229q-22 195 -149 299.5t-340 104.5q-252 0 -380 -155t-128 -446z" />
    <glyph glyph-name="_1072" unicode="&#x442;" horiz-adv-x="1024" 
d="M399 963v-961h226v961h360v186h-946v-186h360z" />
    <glyph glyph-name="_1073" unicode="&#x443;" horiz-adv-x="1167" 
d="M408 -182q-26 -74 -64 -101.5t-98 -27.5h-76v-183q27 -2 94 -2q137 0 215.5 49.5t132.5 194.5l523 1401h-236l-311 -868l-320 868h-235l440 -1151z" />
    <glyph glyph-name="_1074" unicode="&#x444;" horiz-adv-x="1974" 
d="M1100 1608h-228v-637q-32 92 -123.5 148.5t-203.5 56.5q-218 0 -338.5 -149.5t-120.5 -451.5q0 -301 120.5 -450.5t338.5 -149.5q122 0 208 55t119 150v-676h228v676q33 -95 119 -150t208 -55q217 0 338 149.5t121 450.5t-121 451t-338 150q-122 0 -208 -55t-119 -150
v637zM872 575q0 -202 -64 -306.5t-214 -104.5q-153 0 -218 104.5t-65 306.5q0 98 14.5 171.5t47 128.5t88 83.5t133.5 28.5q102 0 165 -52t88 -140t25 -220zM1100 575q0 132 25 220t88 140t165 52q78 0 133.5 -28.5t88 -83.5t47 -128.5t14.5 -171.5q0 -202 -65 -306.5
t-218 -104.5q-150 0 -214 104.5t-64 306.5z" />
    <glyph glyph-name="_1075" unicode="&#x445;" horiz-adv-x="1083" 
d="M1065 2l-387 588l364 559h-245l-256 -404l-252 404h-250l367 -559l-390 -588h246l279 430l280 -430h244z" />
    <glyph glyph-name="_1076" unicode="&#x446;" horiz-adv-x="1208" 
d="M123 2h823v-252h228v438h-140v961h-225v-961h-461v961h-225v-1147z" />
    <glyph glyph-name="_1077" unicode="&#x447;" horiz-adv-x="1120" 
d="M770 2h227v1147h-227v-531q-40 -39 -106.5 -62.5t-139.5 -23.5q-100 0 -148 50.5t-48 165.5v401h-226v-418q0 -199 94.5 -292t286.5 -93q79 0 158 24t129 62v-430z" />
    <glyph glyph-name="_1078" unicode="&#x448;" horiz-adv-x="1728" 
d="M1608 1149h-228v-961h-403v961h-225v-961h-404v961h-223v-1147h1483v1147z" />
    <glyph glyph-name="_1079" unicode="&#x449;" horiz-adv-x="1779" 
d="M1608 1149h-228v-961h-403v961h-225v-961h-404v961h-223v-1147h1393v-252h227v438h-137v961z" />
    <glyph glyph-name="_1080" unicode="&#x44a;" horiz-adv-x="1298" 
d="M1233 377q0 178 -106.5 275.5t-303.5 97.5h-264v399h-520v-188h297v-959h487q197 0 303.5 98t106.5 277zM1006 377q0 -94 -54 -141.5t-153 -47.5h-240v373h240q99 0 153 -46.5t54 -137.5z" />
    <glyph glyph-name="_1081" unicode="&#x44b;" horiz-adv-x="1519" 
d="M1395 2v1147h-226v-1147h226zM1020 377q0 178 -105.5 275.5t-302.5 97.5h-264v399h-225v-1147h489q197 0 302.5 98t105.5 277zM795 377q0 -93 -54.5 -141t-152.5 -48h-240v373h240q97 0 152 -47t55 -137z" />
    <glyph glyph-name="_1082" unicode="&#x44c;" horiz-adv-x="1085" 
d="M1020 377q0 178 -105.5 275.5t-302.5 97.5h-264v399h-225v-1147h489q197 0 302.5 98t105.5 277zM795 377q0 -93 -54.5 -141t-152.5 -48h-240v373h240q97 0 152 -47t55 -137z" />
    <glyph glyph-name="_1083" unicode="&#x44d;" horiz-adv-x="1159" 
d="M1071 575q0 291 -127 446t-379 155q-214 0 -340.5 -104.5t-146.5 -299.5h227q11 102 78.5 159.5t181.5 57.5q255 0 277 -323h-342v-183h342q-11 -157 -77 -239t-200 -82q-114 0 -181.5 57.5t-78.5 159.5h-227q20 -195 146.5 -299.5t340.5 -104.5q252 0 379 154.5
t127 445.5z" />
    <glyph glyph-name="_1084" unicode="&#x44e;" horiz-adv-x="1591" 
d="M997 1176q-232 0 -358 -130t-145 -378h-146v481h-223v-1147h223v477h146q19 -246 145 -375t358 -129q253 0 379.5 154t126.5 446t-126.5 446.5t-379.5 154.5zM997 162q-151 0 -215.5 105.5t-64.5 307.5t64.5 308t215.5 106t216 -106t65 -308t-65 -307.5t-216 -105.5z" />
    <glyph glyph-name="_1085" unicode="&#x44f;" horiz-adv-x="1136" 
d="M340 242q6 86 52.5 131t152.5 45h243v-416h226v1147h-512q-199 0 -302.5 -86.5t-103.5 -249.5q0 -121 56.5 -196.5t154.5 -102.5q-96 -22 -140 -83.5t-50 -180.5l-11 -141q-3 -62 -16 -107h225q14 49 17 102zM322 784q0 91 54 135t150 44h262v-357h-262q-204 0 -204 178z
" />
    <glyph glyph-name="_1059" unicode="&#x451;" horiz-adv-x="1185" 
d="M1098 506q2 23 2 69q0 290 -128 445.5t-378 155.5q-252 0 -380 -155.5t-128 -445.5q0 -291 128.5 -445.5t383.5 -154.5q203 0 326 97.5t151 273.5h-231q-12 -86 -76 -134t-170 -48q-272 0 -285 342h785zM594 987q250 0 276 -309h-555q13 151 79.5 230t199.5 79zM506 1597
h-240v-247h240v247zM918 1597h-242v-247h242v247z" />
    <glyph glyph-name="_18159" unicode="&#x2015;" 
d="M102 848v-199h1760v199h-1760z" />
    <glyph glyph-name="_114" unicode="&#x2018;" horiz-adv-x="602" 
d="M438 1786q-128 -7 -195 -74t-67 -182v-289h252v275h-123q0 79 29.5 116.5t103.5 40.5v113z" />
    <glyph glyph-name="_115" unicode="&#x2019;" horiz-adv-x="602" 
d="M162 1241q128 7 195 74t67 182v289h-252v-275h123q0 -79 -29.5 -116.5t-103.5 -40.5v-113z" />
    <glyph glyph-name="_8238" unicode="&#x201b;" horiz-adv-x="983" 
d="M463 1634q0 -61 -28 -88.5t-87 -27.5q40 -132 197 -179l-27 -61q-287 58 -287 356q0 60 27 87.5t88 27.5q60 0 88.5 -27.5t28.5 -87.5z" />
    <glyph glyph-name="_116" unicode="&#x201c;" horiz-adv-x="972" 
d="M811 1786q-128 -7 -195 -74t-67 -182v-289h252v275h-123q0 79 29.5 116.5t103.5 40.5v113zM434 1786q-128 -7 -195 -74t-67 -182v-289h252v275h-123q0 79 29.5 116.5t103.5 40.5v113z" />
    <glyph glyph-name="_117" unicode="&#x201d;" horiz-adv-x="972" 
d="M162 1241q128 7 195 74t67 182v289h-252v-275h123q0 -79 -29.5 -116.5t-103.5 -40.5v-113zM539 1241q128 7 195 74t67 182v289h-252v-275h123q0 -79 -29.5 -116.5t-103.5 -40.5v-113z" />
    <glyph glyph-name="_8237" unicode="&#x201f;" horiz-adv-x="983" 
d="M469 1634q0 -61 -28 -88.5t-87 -27.5q40 -132 197 -179l-27 -61q-286 58 -286 356q0 61 26.5 88t87.5 27q60 0 88.5 -27.5t28.5 -87.5zM776 1634q0 -61 -27.5 -88.5t-86.5 -27.5q40 -132 196 -179l-27 -61q-286 58 -286 356q0 61 26.5 88t87.5 27q60 0 88.5 -27.5
t28.5 -87.5z" />
    <glyph glyph-name="_245" unicode="&#x2020;" 
d="M1479 1335h-392v387h-208v-387h-392v-186h392v-1452h208v1452h392v186z" />
    <glyph glyph-name="_246" unicode="&#x2021;" 
d="M487 84h392v-387h208v387h392v184h-392v881h392v186h-392v387h-208v-387h-392v-186h392v-881h-392v-184z" />
    <glyph glyph-name="_8607" unicode="&#x2022;" 
d="M1227 801q0 -99 -70.5 -169.5t-171.5 -70.5q-102 0 -174 70.5t-72 169.5q0 97 72 167t174 70q101 0 171.5 -70t70.5 -167z" />
    <glyph glyph-name="_8058" unicode="&#x2025;" 
d="M1559 1008h-252v-275h252v275zM657 1008h-251v-275h251v275z" />
    <glyph glyph-name="_106" unicode="&#x2026;" 
d="M1702 1008h-242v-275h242v275zM504 1008h-242v-275h242v275zM1102 1008h-242v-275h242v275z" />
    <glyph glyph-name="_216" unicode="&#x2030;" horiz-adv-x="2578" 
d="M676 2q109 268 328 803.5t329 802.5h-192q-110 -267 -330.5 -803t-329.5 -803h195zM780 1202q0 213 -87 322.5t-247 109.5q-164 0 -248.5 -110.5t-84.5 -321.5q0 -214 84 -324t249 -110q162 0 248 109t86 325zM586 1202q0 -148 -33 -209t-107 -61q-76 0 -108.5 60.5
t-32.5 209.5q0 146 33 207t108 61q72 0 106 -61.5t34 -206.5zM1038 408q0 -215 85.5 -324t246.5 -109t246.5 110.5t85.5 322.5q0 210 -86 322t-246 112t-246 -110.5t-86 -323.5zM1229 408q0 147 33.5 207.5t107.5 60.5q73 0 107 -62t34 -206q0 -148 -34 -208.5t-107 -60.5
q-74 0 -107.5 59t-33.5 210zM1796 408q0 -213 86.5 -323t249.5 -110q160 0 246 110t86 323q0 211 -86.5 322.5t-245.5 111.5q-162 0 -249 -111t-87 -323zM1991 408q0 147 32 207.5t109 60.5q73 0 106 -60.5t33 -207.5q0 -150 -34 -209.5t-105 -59.5q-75 0 -108 60t-33 209z
" />
    <glyph glyph-name="_139" unicode="&#x2032;" horiz-adv-x="446" 
d="M236 1096l157 516h-227l-113 -516h183z" />
    <glyph glyph-name="_140" unicode="&#x2033;" horiz-adv-x="788" 
d="M236 1096l157 516h-227l-113 -516h183zM578 1096l157 516h-225l-113 -516h181z" />
    <glyph glyph-name="_8612" unicode="&#x2039;" 
d="M238 801l1491 907v-74l-1346 -833l1346 -830v-80z" />
    <glyph glyph-name="_8613" unicode="&#x203a;" 
d="M238 1708l1491 -907l-1491 -910v80l1347 830l-1347 833v74z" />
    <glyph glyph-name="_156" unicode="&#x203b;" 
d="M1745 1440l-123 125l-639 -639l-637 639l-125 -125l639 -639l-639 -637l125 -125l637 639l639 -639l123 125l-637 637zM1155 1425q0 73 -50.5 123.5t-123.5 50.5q-72 0 -123 -50.5t-51 -123.5q0 -72 51 -123t123 -51q73 0 123.5 51t50.5 123zM1155 184q0 72 -50.5 123
t-123.5 51q-72 0 -123 -51t-51 -123q0 -73 51 -123.5t123 -50.5q73 0 123.5 50t50.5 124zM1774 801q0 73 -51.5 123.5t-123.5 50.5q-73 0 -123.5 -50.5t-50.5 -123.5q0 -72 50.5 -123t123.5 -51q72 0 123.5 51t51.5 123zM539 801q0 73 -51 123.5t-123 50.5t-123.5 -50.5
t-51.5 -123.5q0 -72 51.5 -123t123.5 -51t123 51t51 123z" />
    <glyph glyph-name="_8763" unicode="&#x203c;" 
d="M715 395h-103l-53 830v426h211v-426zM532 100q0 67 32 99t98 32q69 0 100 -31.5t31 -99.5q0 -69 -31 -99t-100 -30q-67 0 -98.5 30.5t-31.5 98.5zM1354 395h-103l-53 830v426h211v-426zM1171 100q0 67 31.5 99t97.5 32q69 0 100.5 -31.5t31.5 -99.5q0 -69 -31.5 -99
t-100.5 -30q-67 0 -98 30.5t-31 98.5z" />
    <glyph glyph-name="_8599" unicode="&#x2042;" 
d="M737 635l-149 -203l243 21v-131l-243 22l143 -205l-117 -71l-102 231l-102 -229l-119 67l147 207l-252 -22v131l252 -21l-149 205l114 72l109 -232l104 228zM1686 635l-148 -203l242 21v-131l-242 22l143 -205l-118 -71l-103 231l-102 -229l-119 67l145 207l-249 -22v131
l249 -21l-147 205l115 72l108 -232l109 228zM1233 1042l-203 150l17 -244h-127l20 244l-203 -143l-73 116l233 103l-229 102l63 119l209 -146l-20 250h127l-17 -250l205 148l74 -115l-234 -108l228 -105z" />
    <glyph glyph-name="_845" unicode="&#x2074;" horiz-adv-x="851" 
d="M244 913l260 424v-424h-260zM809 913h-111v699h-219l-436 -711v-153h461v-205h194v205h111v165z" />
    <glyph glyph-name="_8239" unicode="&#x207a;" horiz-adv-x="983" 
d="M791 1364v-127h-234v-268h-129v268h-235v127h235v268h129v-268h234z" />
    <glyph glyph-name="_8240" unicode="&#x207b;" horiz-adv-x="983" 
d="M193 1237v127h598v-127h-598z" />
    <glyph glyph-name="_8248" unicode="&#x207c;" horiz-adv-x="983" 
d="M223 1352v123h535v-123h-535zM223 1106v123h535v-123h-535z" />
    <glyph glyph-name="_8250" unicode="&#x207d;" horiz-adv-x="983" 
d="M885 823h-105q-66 85 -116 208t-50 263q0 138 50.5 262.5t115.5 208.5h103q-140 -225 -140 -471q0 -111 35 -235t107 -236z" />
    <glyph glyph-name="_8251" unicode="&#x207e;" horiz-adv-x="983" 
d="M205 823h-105q72 112 107 236t35 235q0 246 -140 471h103q65 -84 115.5 -208.5t50.5 -262.5q0 -140 -50 -263t-116 -208z" />
    <glyph glyph-name="_846" unicode="&#x207f;" horiz-adv-x="851" 
d="M92 545h189v469q0 91 46.5 147t121.5 56q120 0 120 -142v-530h189v553q0 136 -66 206t-182 70q-88 0 -147 -42.5t-82 -112.5v135h-189v-809z" />
    <glyph glyph-name="_847" unicode="&#x2081;" horiz-adv-x="851" 
d="M563 -2v1069h-168l-256 -117v-174l226 103v-881h198z" />
    <glyph glyph-name="_848" unicode="&#x2082;" horiz-adv-x="851" 
d="M571 758q0 -82 -63 -154l-406 -461v-143h664v168h-401l282 317q65 73 93 134.5t28 140.5q0 149 -94 237t-248 88q-159 0 -251.5 -87.5t-92.5 -237.5v-39h197v37q0 67 38 109t109 42q69 0 107 -42t38 -109z" />
    <glyph glyph-name="_849" unicode="&#x2083;" horiz-adv-x="851" 
d="M426 920q64 0 100.5 -37.5t36.5 -102.5q0 -66 -38 -102.5t-107 -36.5h-88v-164h88q80 0 124 -42.5t44 -125.5q0 -74 -43.5 -120t-116.5 -46q-75 0 -119.5 46.5t-44.5 123.5v35h-196v-39q0 -144 94.5 -236.5t265.5 -92.5q168 0 263 91.5t95 233.5q0 205 -190 260
q162 53 162 232q0 130 -90.5 209t-239.5 79q-151 0 -242.5 -78.5t-91.5 -205.5v-35h193v16q0 64 37 101t104 37z" />
    <glyph glyph-name="_850" unicode="&#x2084;" horiz-adv-x="851" 
d="M244 371l260 422v-422h-260zM809 371h-111v696h-219l-436 -711v-153h461v-205h194v205h111v168z" />
    <glyph glyph-name="_18160" unicode="&#x20ac;" horiz-adv-x="1445" 
d="M23 989v-125h92v-121h-92v-125h100q13 -143 52.5 -256t111 -203t187 -139t267.5 -49q275 0 436 153t175 411h-238q-11 -168 -107 -262.5t-266 -94.5q-181 0 -271.5 108.5t-109.5 331.5h404l22 125h-432v121h453l22 125h-469q19 221 109.5 332t271.5 111
q169 0 265.5 -95.5t107.5 -263.5h238q-14 258 -175 411.5t-436 153.5q-122 0 -220.5 -32.5t-167.5 -90t-118 -140t-75.5 -177.5t-36.5 -209h-100z" />
    <glyph glyph-name="_141" unicode="&#x2103;" 
d="M680 1337q0 125 -84 209t-217 84t-217 -84t-84 -209q0 -126 84 -209.5t217 -83.5t217 83.5t84 209.5zM516 1337q0 -64 -38 -101.5t-99 -37.5t-99 37.5t-38 101.5q0 62 38 100t99 38t99 -38t38 -100zM1309 -29q264 0 419.5 153t169.5 411h-237q-11 -168 -101 -262.5
t-251 -94.5q-143 0 -226 80q-141 138 -141 547q0 406 137 543q84 84 230 84q161 0 251 -95.5t101 -263.5h237q-14 257 -169.5 411t-419.5 154q-245 0 -391 -137q-216 -201 -216 -696q0 -523 232 -715q144 -119 375 -119z" />
    <glyph glyph-name="_215" unicode="&#x2109;" 
d="M825 -2h240v700h633v205h-633v502h704v207h-944v-1614zM680 1337q0 125 -84 209t-217 84t-217 -84t-84 -209q0 -126 84 -209.5t217 -83.5t217 83.5t84 209.5zM516 1337q0 -64 -38 -101.5t-99 -37.5t-99 37.5t-38 101.5q0 62 38 100t99 38t99 -38t38 -100z" />
    <glyph glyph-name="_590" unicode="&#x2113;" horiz-adv-x="1161" 
d="M676 -25q166 0 272.5 83.5t136.5 244.5l-223 43q-18 -89 -69 -132.5t-117 -43.5q-180 0 -197 246q281 127 428.5 323.5t147.5 450.5v18q0 203 -105.5 314.5t-298.5 111.5q-194 0 -298.5 -111.5t-104.5 -314.5v-665q-111 -38 -217 -62l71 -186q30 7 83.5 21t70.5 18
q26 -170 137.5 -264.5t282.5 -94.5zM479 1210q0 230 172 230q86 0 130 -58.5t44 -171.5v-20q0 -349 -346 -545v565z" />
    <glyph glyph-name="_258" unicode="&#x2116;" horiz-adv-x="2011" 
d="M844 2h207v1606h-228v-1088l-473 1088h-207v-1606h228v1088zM1923 752q0 232 -88 350.5t-285 118.5q-198 0 -286 -118t-88 -351q0 -231 88 -349t286 -118q196 0 284.5 118t88.5 349zM1716 752q0 -154 -37 -222.5t-129 -68.5q-93 0 -131.5 68.5t-38.5 222.5t38.5 222
t131.5 68q92 0 129 -68t37 -222zM1186 2h727v174h-727v-174z" />
    <glyph glyph-name="_263" unicode="&#x2121;" 
d="M1559 582q0 313 -110.5 454.5t-324.5 141.5q-216 0 -325 -143t-109 -460q0 -318 109 -461t325 -143q179 0 283.5 92t134.5 283h-227q-33 -192 -191 -192q-103 0 -153 81.5t-56 272.5h644v74zM1124 995q100 0 150.5 -76.5t56.5 -246.5h-411q3 169 54 246t150 77zM16 1405
h320v-1405h239v1405h320v207h-879v-207zM1886 0v1612h-227v-1612h227z" />
    <glyph glyph-name="_260" unicode="&#x2122;" horiz-adv-x="1509" 
d="M23 1475h202v-633h164v633h203v137h-569v-137zM1087 842l177 415v-415h155v770h-143l-242 -574l-241 574h-144v-770h156v415l176 -415h106z" />
    <glyph glyph-name="_643" unicode="&#x2126;" horiz-adv-x="1452" 
d="M727 1634q-325 0 -477 -217q-148 -209 -148 -586q0 -236 74 -397.5t209 -224.5h-250v-207h514v207q-162 58 -234.5 202t-72.5 394q0 188 23 302t77 189q95 131 285 131q191 0 283 -131q54 -77 78 -191t24 -300q0 -250 -72.5 -394t-234.5 -202v-207h514v207h-250
q134 63 207.5 224.5t73.5 397.5q0 380 -146 586q-152 217 -477 217z" />
    <glyph glyph-name="_142" unicode="&#x212b;" 
d="M1153 1516q62 39 96.5 101.5t34.5 139.5q0 124 -84.5 206.5t-218.5 82.5q-132 0 -216.5 -82.5t-84.5 -206.5q0 -77 35.5 -140.5t97.5 -100.5l-512 -1516h248l113 354h641l112 -354h248zM725 559l258 811l254 -811h-512zM1118 1757q0 -61 -37.5 -97t-99.5 -36
q-59 0 -97 36t-38 97t38 97t97 36q62 0 99.5 -36t37.5 -97z" />
    <glyph glyph-name="_749" unicode="&#x2153;" 
d="M506 543v1069h-168l-256 -119v-174l225 104v-880h199zM1376 1612h-192l-789 -1614h195zM1518 922q64 0 101.5 -38.5t37.5 -103.5q0 -66 -39.5 -102.5t-108.5 -36.5h-88v-164h88q81 0 125.5 -42t44.5 -124q0 -75 -43.5 -121.5t-117.5 -46.5t-118 47t-44 123v35h-197v-39
q0 -144 94 -236.5t265 -92.5q168 0 263 91.5t95 233.5q0 206 -188 260q82 27 121.5 88t39.5 144q0 130 -91 209t-240 79q-150 0 -241 -78.5t-91 -205.5v-35h192v16q0 64 37.5 102t102.5 38z" />
    <glyph glyph-name="_750" unicode="&#x2154;" 
d="M545 1300q0 -80 -62 -151l-405 -463v-143h663v170h-403l285 317q63 71 90.5 132t27.5 141q0 151 -94 239t-248 88q-159 0 -251.5 -88.5t-92.5 -238.5v-39h197v36q0 68 38 110t109 42q70 0 108 -42t38 -110zM1276 1612l-789 -1612h195l786 1612h-192zM1692 780
q0 -66 -38.5 -102.5t-107.5 -36.5h-88v-164h88q80 0 124 -42t44 -124q0 -74 -44 -120t-118 -46t-117.5 46t-43.5 122v35h-197v-39q0 -142 94.5 -234.5t263.5 -92.5q170 0 265.5 91t95.5 232q0 205 -191 260q82 27 122 88t40 144q0 131 -90.5 209.5t-241.5 78.5
q-150 0 -240.5 -78.5t-90.5 -205.5v-35h192v16q0 63 37.5 101.5t101.5 38.5q65 0 102.5 -38.5t37.5 -103.5z" />
    <glyph glyph-name="_753" unicode="&#x215b;" 
d="M1513 -23q170 0 270.5 91t100.5 235q0 98 -49.5 168.5t-140.5 99.5q75 24 118 88t43 142q0 127 -92.5 204.5t-249.5 77.5q-155 0 -247 -77.5t-92 -204.5q0 -78 43 -142t118 -88q-90 -29 -139 -99t-49 -169q0 -144 98.5 -235t267.5 -91zM1513 649q-68 0 -107.5 36
t-39.5 97t39.5 98.5t107.5 37.5q69 0 109.5 -37.5t40.5 -98.5t-40 -97t-110 -36zM1686 311q0 -78 -47.5 -124t-125.5 -46q-76 0 -123 46t-47 124q0 82 46.5 128t123.5 46q78 0 125.5 -46t47.5 -128zM506 543v1069h-168l-256 -119v-174l225 104v-880h199zM1376 1612h-192
l-789 -1614h195z" />
    <glyph glyph-name="_754" unicode="&#x215c;" 
d="M1544 -23q170 0 270.5 91t100.5 235q0 98 -50 168.5t-141 99.5q75 24 118.5 88t43.5 142q0 127 -92.5 204.5t-249.5 77.5q-156 0 -248 -77.5t-92 -204.5q0 -78 43.5 -142t118.5 -88q-90 -29 -139 -99t-49 -169q0 -144 98.5 -235t267.5 -91zM1544 649q-68 0 -107.5 36
t-39.5 97t39.5 98.5t107.5 37.5q69 0 109.5 -37.5t40.5 -98.5t-40 -97t-110 -36zM1716 311q0 -79 -47.5 -124.5t-124.5 -45.5q-76 0 -123 46t-47 124q0 82 46.5 128t123.5 46q78 0 125 -46t47 -128zM401 1464q66 0 103 -37.5t37 -103.5q0 -65 -39 -101t-107 -36h-88v-164h88
q80 0 124 -42.5t44 -125.5q0 -74 -44 -120t-118 -46t-117.5 46.5t-43.5 123.5v33h-197v-39q0 -143 93.5 -235.5t264.5 -92.5q168 0 263.5 92t95.5 234q0 204 -189 260q160 52 160 229q0 131 -90.5 211t-239.5 80t-240 -80t-91 -207v-32h192v16q0 63 37 100t102 37z
M1456 1612h-192l-789 -1614h195z" />
    <glyph glyph-name="_755" unicode="&#x215d;" 
d="M1544 -23q170 0 270.5 91t100.5 235q0 98 -50 168.5t-141 99.5q75 24 118.5 88t43.5 142q0 127 -92.5 204.5t-249.5 77.5q-156 0 -248 -77.5t-92 -204.5q0 -78 43.5 -142t118.5 -88q-90 -29 -139 -99t-49 -169q0 -144 98.5 -235t267.5 -91zM1544 649q-68 0 -107.5 36
t-39.5 97t39.5 98.5t107.5 37.5q69 0 109.5 -37.5t40.5 -98.5t-40 -97t-110 -36zM1716 311q0 -79 -47.5 -124.5t-124.5 -45.5q-76 0 -123 46t-47 124q0 82 46.5 128t123.5 46q78 0 125 -46t47 -128zM1456 1612h-192l-789 -1614h195zM49 848q11 -150 102 -236t250 -86
q166 0 257.5 97t91.5 266q0 168 -79 266t-220 98q-121 0 -177 -79l15 270h407v168h-585l-29 -608h180q17 40 55.5 64t85.5 24q73 0 113.5 -53t40.5 -148t-41 -147t-115 -52q-67 0 -108 41t-47 115h-197z" />
    <glyph glyph-name="_756" unicode="&#x215e;" 
d="M1544 -23q170 0 270.5 91t100.5 235q0 98 -50 168.5t-141 99.5q75 24 118.5 88t43.5 142q0 127 -92.5 204.5t-249.5 77.5q-156 0 -248 -77.5t-92 -204.5q0 -78 43.5 -142t118.5 -88q-90 -29 -139 -99t-49 -169q0 -144 98.5 -235t267.5 -91zM1544 649q-68 0 -107.5 36
t-39.5 97t39.5 98.5t107.5 37.5q69 0 109.5 -37.5t40.5 -98.5t-40 -97t-110 -36zM1716 311q0 -79 -47.5 -124.5t-124.5 -45.5q-76 0 -123 46t-47 124q0 82 46.5 128t123.5 46q78 0 125 -46t47 -128zM1415 1612h-192l-789 -1614h195zM63 1442h484l-346 -899h205l350 927v142
h-693v-170z" />
    <glyph glyph-name="_461" unicode="&#x2160;" 
d="M1229 -2v203h-129v1208h129v203h-496v-203h131v-1208h-131v-203h496z" />
    <glyph glyph-name="_462" unicode="&#x2161;" 
d="M907 -2v201h-116v1212h116v201h-465v-201h117v-1212h-117v-201h465zM1522 -2v201h-117v1212h117v201h-465v-201h117v-1212h-117v-201h465z" />
    <glyph glyph-name="_463" unicode="&#x2162;" 
d="M1202 -2v199h-108v1216h108v199h-440v-199h106v-1216h-106v-199h440zM690 -2v199h-108v1216h108v199h-440v-199h106v-1216h-106v-199h440zM1714 -2v199h-108v1216h108v199h-440v-199h106v-1216h-106v-199h440z" />
    <glyph glyph-name="_464" unicode="&#x2163;" 
d="M682 0v197h-113v1216h113v199h-451v-199h113v-1216h-113v-197h451zM1417 0l406 1612h-238l-315 -1342l-314 1342h-235l403 -1612h293z" />
    <glyph glyph-name="_465" unicode="&#x2164;" 
d="M1120 0l543 1612h-248l-432 -1331l-434 1331h-248l545 -1612h274z" />
    <glyph glyph-name="_466" unicode="&#x2165;" 
d="M1737 0v197h-113v1216h113v199h-451v-199h113v-1216h-113v-197h451zM844 0l405 1612h-237l-316 -1342l-313 1342h-236l404 -1612h293z" />
    <glyph glyph-name="_467" unicode="&#x2166;" 
d="M1878 0v195h-96v1220h96v197h-410v-197h97v-1220h-97v-195h410zM1415 0v195h-96v1220h96v197h-409v-197h96v-1220h-96v-195h409zM662 0l317 1612h-234l-229 -1329l-229 1329h-232l316 -1612h291z" />
    <glyph glyph-name="_468" unicode="&#x2167;" 
d="M1907 0v190h-72v1229h72v193h-348v-193h69v-1229h-69v-190h348zM1518 0v190h-76v1229h76v193h-359v-193h76v-1229h-76v-190h359zM1118 0v190h-71v1229h71v193h-348v-193h70v-1229h-70v-190h348zM547 0l194 1612h-223l-127 -1333l-127 1333h-221l190 -1612h314z" />
    <glyph glyph-name="_469" unicode="&#x2168;" 
d="M1860 0l-474 821l453 791h-240l-331 -580l-332 580h-240l451 -791l-471 -821h237l355 610l352 -610h240zM651 0v197h-112v1216h112v199h-450v-199h112v-1216h-112v-197h450z" />
    <glyph glyph-name="_470" unicode="&#x2169;" 
d="M1636 0l-506 829l476 783h-260l-363 -617l-365 617h-258l471 -783l-505 -829h262l395 659l393 -659h260z" />
    <glyph glyph-name="_451" unicode="&#x2170;" 
d="M1094 0v1151h-228v-1151h228zM1094 1368v244h-228v-244h228z" />
    <glyph glyph-name="_452" unicode="&#x2171;" 
d="M807 0v1151h-225v-1151h225zM807 1368v244h-225v-244h225zM1380 0v1151h-225v-1151h225zM1380 1368v244h-225v-244h225z" />
    <glyph glyph-name="_453" unicode="&#x2172;" 
d="M1092 0v1151h-224v-1151h224zM1092 1368v244h-224v-244h224zM641 0v1151h-223v-1151h223zM641 1368v244h-223v-244h223zM1542 0v1151h-223v-1151h223zM1542 1368v244h-223v-244h223z" />
    <glyph glyph-name="_454" unicode="&#x2173;" 
d="M651 0v1151h-223v-1151h223zM651 1368v244h-223v-244h223zM1348 0l393 1151h-236l-286 -907l-289 907h-236l396 -1151h258z" />
    <glyph glyph-name="_455" unicode="&#x2174;" 
d="M1112 -2l424 1153h-238l-315 -911l-317 911h-238l426 -1153h258z" />
    <glyph glyph-name="_456" unicode="&#x2175;" 
d="M911 0l394 1151h-236l-287 -907l-288 907h-236l395 -1151h258zM1571 0v1151h-223v-1151h223zM1571 1368v244h-223v-244h223z" />
    <glyph glyph-name="_457" unicode="&#x2176;" 
d="M729 0l313 1151h-231l-213 -905l-215 905h-231l315 -1151h262zM1317 0v1151h-219v-1151h219zM1317 1368v244h-219v-244h219zM1675 0v1151h-219v-1151h219zM1675 1368v244h-219v-244h219z" />
    <glyph glyph-name="_458" unicode="&#x2177;" 
d="M598 0l254 1151h-227l-164 -907l-164 907h-227l254 -1151h274zM1120 0v1151h-215v-1151h215zM1120 1368v244h-215v-244h215zM1464 0v1151h-215v-1151h215zM1464 1368v244h-215v-244h215zM1806 0v1151h-215v-1151h215zM1806 1368v244h-215v-244h215z" />
    <glyph glyph-name="_459" unicode="&#x2178;" 
d="M1747 0l-397 600l364 551h-237l-246 -373l-248 373h-240l367 -553l-397 -598h239l277 418l278 -418h240zM651 0v1151h-223v-1151h223zM651 1368v244h-223v-244h223z" />
    <glyph glyph-name="_460" unicode="&#x2179;" 
d="M1509 0l-387 590l365 561h-246l-258 -412l-258 412h-246l365 -561l-389 -590h245l283 438l281 -438h245z" />
    <glyph glyph-name="_171" unicode="&#x2190;" 
d="M1890 860h-1355v242l-461 -338l461 -342v242h1355v196z" />
    <glyph glyph-name="_172" unicode="&#x2191;" 
d="M1079 -90v1356h242l-338 460l-342 -460h242v-1356h196z" />
    <glyph glyph-name="_170" unicode="&#x2192;" 
d="M74 664h1353v-242l463 342l-463 338v-242h-1353v-196z" />
    <glyph glyph-name="_173" unicode="&#x2193;" 
d="M883 1726v-1353h-242l342 -463l338 463h-242v1353h-196z" />
    <glyph glyph-name="_174" unicode="&#x2194;" 
d="M535 664h895v-242l460 342l-460 338v-242h-895v242l-461 -338l461 -342v242z" />
    <glyph glyph-name="_247" unicode="&#x2195;" 
d="M641 371l342 -461l340 461h-242v895h242l-340 460l-342 -460h244v-895h-244z" />
    <glyph glyph-name="_250" unicode="&#x2196;" 
d="M1659 190l-957 957l170 170l-565 88l84 -567l172 170l957 -957z" />
    <glyph glyph-name="_248" unicode="&#x2197;" 
d="M446 51l957 957l170 -170l86 567l-565 -88l170 -170l-957 -957z" />
    <glyph glyph-name="_251" unicode="&#x2198;" 
d="M307 1266l957 -957l-170 -170l565 -88l-86 567l-170 -169l-957 956z" />
    <glyph glyph-name="_249" unicode="&#x2199;" 
d="M1520 1405l-957 -956l-172 169l-84 -567l565 88l-170 170l957 957z" />
    <glyph glyph-name="_8868" unicode="&#x21b0;" 
d="M455 1257h1325v-1411h-51v1362h-1274v-266l-271 289l271 285v-259z" />
    <glyph glyph-name="_8865" unicode="&#x21b1;" 
d="M195 1247h1304v256l273 -284l-273 -287v264h-1255v-1350h-49v1401z" />
    <glyph glyph-name="_8864" unicode="&#x21b2;" 
d="M1788 297h-1342v-258l-270 283l270 288v-258h1289v1391h53v-1446z" />
    <glyph glyph-name="_8869" unicode="&#x21b3;" 
d="M1495 313h-1298v1430h51v-1381h1247v263l272 -287l-272 -287v262z" />
    <glyph glyph-name="_8867" unicode="&#x21b4;" 
d="M1565 1454v-1335h258l-281 -273l-291 273h260v1284h-1370v51h1424z" />
    <glyph glyph-name="_8884" unicode="&#x21bc;" 
d="M481 1061q48 33 98 58t86 37.5t68.5 20.5t46 9.5t17.5 1.5q-13 -7 -42 -24t-89.5 -63t-104.5 -95q-38 -42 -72 -89t-50 -72.5t-17 -25.5h1501v-47h-1880q38 31 183 122.5t255 166.5z" />
    <glyph glyph-name="_8885" unicode="&#x21c0;" 
d="M1483 1061q115 -79 259 -169.5t181 -119.5h-1882v47h1501l-16 25q-15 26 -49 73t-72 89q-45 49 -104 94t-93 65.5t-41 22.5q12 0 45.5 -6t114.5 -37.5t156 -83.5z" />
    <glyph glyph-name="_8896" unicode="&#x21c4;" 
d="M1272 1358l641 -248l-641 -252l213 191h-1397v120h1401zM1878 551v-123h-1399l215 -186l-641 247l641 248l-217 -186h1401z" />
    <glyph glyph-name="_8897" unicode="&#x21c5;" 
d="M420 1087l250 639l248 -639l-191 211v-1390h-121v1395zM1235 1688h121v-1391l188 215l-252 -637l-248 637l191 -217v1393z" />
    <glyph glyph-name="_8816" unicode="&#x21cd;" 
d="M1096 952h-828l-162 -157l164 -160h740zM322 1004h788l107 399l49 -14l-103 -385h760v-52h-774l-86 -317h860v-53h-872l-111 -408l-49 12l104 396h-673l280 -287l-35 -31l-524 531l522 526l35 -35z" />
    <glyph glyph-name="_8815" unicode="&#x21cf;" 
d="M1640 592h-819l-108 -418l-54 12l109 406h-725v55h741l86 316h-827v51h840l104 389l49 -14l-98 -375h702l-280 284l37 37l526 -534l-528 -527l-37 35zM924 963l-88 -316h854l165 156l-161 160h-770z" />
    <glyph glyph-name="_8814" unicode="&#x21d0;" 
d="M1923 582h-1601l280 -287l-35 -31l-524 531l522 526l35 -35l-278 -282h1601v-52h-1655l-162 -157l162 -160h1655v-53z" />
    <glyph glyph-name="_8854" unicode="&#x21d1;" 
d="M801 1741v-1895h-51v1737l-617 -739l-49 45zM1159 1741v-1895h55v1737l617 -739l49 45z" />
    <glyph glyph-name="_195" unicode="&#x21d2;" 
d="M82 621v-162h1182l-222 -178l109 -129l731 606l-733 585l-107 -126l218 -170h-1178v-164h1388l162 -125l-168 -137h-1382z" />
    <glyph glyph-name="_8855" unicode="&#x21d3;" 
d="M801 1733v-1891l-717 852l49 45l617 -741v1735h51zM1159 -158v1891h55v-1735l617 741l49 -45z" />
    <glyph glyph-name="_196" unicode="&#x21d4;" 
d="M1348 459l-201 -180l108 -125l670 604l-672 583l-106 -122l196 -172h-725l199 172l-106 122l-672 -583l670 -604l108 125l-203 180h734zM1532 883l147 -125l-151 -137h-1092l-151 137l145 125h1102z" />
    <glyph glyph-name="_9190" unicode="&#x21e0;" 
d="M459 1214v-841l-389 420zM926 780q0 56 -40 95.5t-95 39.5q-56 0 -96 -40t-40 -95t40 -95t96 -40q55 0 95 39.5t40 95.5zM1413 780q0 56 -39.5 95.5t-95.5 39.5t-95.5 -39.5t-39.5 -95.5t39.5 -95.5t95.5 -39.5t95.5 39.5t39.5 95.5zM1896 780q0 56 -40 95.5t-95 39.5
t-95 -39.5t-40 -95.5t40 -95.5t95 -39.5t95 39.5t40 95.5z" />
    <glyph glyph-name="_9192" unicode="&#x21e1;" 
d="M559 1315h846l-418 391zM995 158q-55 0 -95 -40t-40 -95q0 -56 40 -96t95 -40t95 40t40 96q0 55 -40 95t-95 40zM995 645q-55 0 -95 -39.5t-40 -95.5t40 -95.5t95 -39.5t95 39.5t40 95.5t-40 95.5t-95 39.5zM995 1128q-55 0 -95 -40t-40 -95t40 -95t95 -40t95 40t40 95
t-40 95t-95 40z" />
    <glyph glyph-name="_9191" unicode="&#x21e2;" 
d="M1509 1217v-842l389 420zM336 780q0 56 -40 95.5t-95 39.5t-95 -39.5t-40 -95.5t40 -95.5t95 -39.5t95 39.5t40 95.5zM823 780q0 56 -39.5 95.5t-95.5 39.5t-95.5 -39.5t-39.5 -95.5t39.5 -95.5t95.5 -39.5t95.5 39.5t39.5 95.5zM1307 780q0 55 -40 95t-96 40
q-55 0 -95 -39.5t-40 -95.5t40 -95.5t95 -39.5q56 0 96 40t40 95z" />
    <glyph glyph-name="_9193" unicode="&#x21e3;" 
d="M559 274h846l-418 -391zM995 731q-55 0 -95 -39.5t-40 -95.5t40 -95.5t95 -39.5t95 39.5t40 95.5t-40 95.5t-95 39.5zM995 1219q-55 0 -95 -40t-40 -96q0 -55 40 -95t95 -40t95 40t40 95q0 56 -40 96t-95 40zM995 1702q-55 0 -95 -40t-40 -95t40 -95t95 -40t95 40t40 95
t-40 95t-95 40z" />
    <glyph glyph-name="_9198" unicode="&#x21e6;" 
d="M1837 506v571h-1051v344l-632 -628l632 -633v346h1051zM1894 1135v-684h-1054v-428l-770 772l770 768v-428h1054z" />
    <glyph glyph-name="_9200" unicode="&#x21e7;" 
d="M1272 -57h-576v1044h-346l635 635l635 -633h-348v-1046zM639 -115h688v1051h428l-770 770l-774 -772h428v-1049z" />
    <glyph glyph-name="_9199" unicode="&#x21e8;" 
d="M127 506v571h1051v344l632 -628l-632 -633v346h-1051zM70 1135v-684h1054v-428l770 772l-770 768v-428h-1054z" />
    <glyph glyph-name="_9201" unicode="&#x21e9;" 
d="M1272 1647h-576v-1045h-346l635 -635l635 633h-348v1047zM639 1704h688v-1051h428l-770 -770l-774 772h428v1049z" />
    <glyph glyph-name="_197" unicode="&#x2200;" 
d="M1120 0l543 1612h-248l-112 -357h-639l-115 357h-248l545 -1612h274zM725 1051h514l-256 -811z" />
    <glyph glyph-name="_151" unicode="&#x2202;" 
d="M786 1235q25 99 90.5 153t161.5 54q126 0 187 -98t61 -312q0 -70 -6 -153q-33 76 -115.5 120.5t-197.5 44.5q-230 0 -374 -156.5t-144 -422.5q0 -231 127 -362.5t337 -131.5q318 0 460.5 248.5t142.5 777.5q0 336 -114.5 488.5t-350.5 152.5q-193 0 -324 -104.5
t-178 -298.5h237zM936 168q-122 0 -190 75.5t-68 213.5q0 110 34.5 197t107.5 140.5t175 53.5q120 0 187 -78t67 -217q0 -174 -86 -279.5t-227 -105.5z" />
    <glyph glyph-name="_198" unicode="&#x2203;" 
d="M1446 1612h-969v-205h729v-518h-635v-207h635v-477h-717v-207h957v1614z" />
    <glyph glyph-name="_8715" unicode="&#x2206;" 
d="M313 102l631 1334q19 45 47 45q22 0 43 -43l611 -1307q21 -46 24 -76q0 -32 -67 -32h-1248q-32 0 -44.5 5.5t-12.5 22.5q0 14 16 51zM1442 166l-506 1077l-510 -1077h1016z" />
    <glyph glyph-name="_152" unicode="&#x2207;" 
d="M1120 0l543 1612h-1362l545 -1612h274zM983 240l-371 1167h740z" />
    <glyph glyph-name="_184" unicode="&#x2208;" 
d="M1724 698v197h-1302q27 175 171.5 270t416.5 95h714v198h-718q-181 0 -327 -39.5t-255 -118.5t-168 -207.5t-59 -297.5q0 -170 59 -298.5t168 -207.5t255 -118.5t327 -39.5h718v197h-714q-535 0 -588 370h1302z" />
    <glyph glyph-name="_8749" unicode="&#x2209;" 
d="M924 303l-56 -199l-67 23l49 180q-210 26 -352 167.5t-142 326.5q0 100 45.5 191.5t122 158.5t183 107t223.5 40h194l68 242l72 -24l-62 -218h406v-75h-426l-107 -379h533v-76h-555l-109 -389h664v-76h-678h-6zM442 844h557l105 379h-174q-183 0 -325.5 -109.5
t-162.5 -269.5zM870 381l107 387h-535q13 -151 136.5 -259.5t291.5 -127.5z" />
    <glyph glyph-name="_185" unicode="&#x220b;" 
d="M1542 698q-26 -178 -170.5 -274t-419.5 -96h-714v-197h718q181 0 327 39.5t255 118.5t168 207.5t59 298.5q0 169 -59 297.5t-168 207.5t-255 118.5t-327 39.5h-718v-198h714q272 0 417 -95.5t171 -269.5h-1302v-197h1304z" />
    <glyph glyph-name="_8750" unicode="&#x220c;" 
d="M838 303l-56 -199l-67 23l49 176h-408v76h428l107 389h-535v76h557l105 379h-662v75h678h4l68 242l72 -24l-64 -224q210 -26 352 -166.5t142 -324.5q0 -133 -76.5 -247.5t-209.5 -182.5t-288 -68h-196zM858 379h176q185 0 329 112.5t159 276.5h-555zM1094 1219l-105 -375
h531q-19 146 -140 251t-286 124z" />
    <glyph glyph-name="_213" unicode="&#x220f;" 
d="M1305 -154h237v1766h-1120v-1766h240v1559h643v-1559z" />
    <glyph glyph-name="_212" unicode="&#x2211;" 
d="M453 41v-195h1058v203h-790l354 635v66l-356 655h792v207h-1058v-205l378 -688z" />
    <glyph glyph-name="_8726" unicode="&#x2213;" 
d="M317 1444v72h1332v-72h-1332zM317 686v74h625v524h76v-524h631v-74h-631v-504h-76v504h-625z" />
    <glyph glyph-name="_178" unicode="&#x221a;" 
d="M1257 1536h619v190h-801l-487 -1695l-266 575h-252l415 -860h248z" />
    <glyph glyph-name="_180" unicode="&#x221d;" 
d="M864 762q-107 -178 -260 -178q-79 0 -130.5 47t-51.5 131q0 82 51.5 129t130.5 47q153 0 260 -176zM1485 625q-50 -41 -125 -41q-155 0 -262 178q107 176 262 176q57 0 110 -31l93 162q-84 43 -195 43q-112 0 -213 -59t-174 -176q-73 116 -173.5 174.5t-213.5 58.5
q-172 0 -272.5 -94t-100.5 -254q0 -161 100.5 -255.5t272.5 -94.5q113 0 213.5 58.5t173.5 174.5q73 -116 173.5 -174.5t213.5 -58.5q136 0 225 59z" />
    <glyph glyph-name="_136" unicode="&#x221e;" 
d="M864 762q-107 -178 -260 -178q-79 0 -130.5 47t-51.5 131q0 82 51.5 129t130.5 47q153 0 260 -176zM1098 762q107 176 262 176q78 0 130 -47t52 -129q0 -83 -52 -130.5t-130 -47.5q-155 0 -262 178zM981 645q73 -116 173.5 -174.5t213.5 -58.5q172 0 273.5 94.5
t101.5 255.5q0 160 -101.5 254t-273.5 94q-113 0 -213.5 -58.5t-173.5 -174.5q-73 116 -173.5 174.5t-213.5 58.5q-172 0 -272.5 -94t-100.5 -254q0 -161 100.5 -255.5t272.5 -94.5q113 0 213.5 58.5t173.5 174.5z" />
    <glyph glyph-name="_8717" unicode="&#x221f;" 
d="M383 252v1173h74v-1097h1124v-76h-1198z" />
    <glyph glyph-name="_148" unicode="&#x2220;" 
d="M1634 1380l-141 125l-1286 -1263v-117h1550v180h-1216z" />
    <glyph glyph-name="_8738" unicode="&#x2222;" 
d="M393 836l854 333q-75 131 -219 193v82q198 -80 291 -246l268 105l25 -70l-262 -103q55 -135 55 -329q0 -181 -47 -312l254 -88l-27 -71l-258 90q-92 -180 -299 -262v82q150 63 225 204l-858 304q-41 15 -42 43t40 45zM1329 801q0 178 -51 303l-793 -307l799 -281
q45 119 45 285z" />
    <glyph glyph-name="_8719" unicode="&#x2225;" 
d="M709 -299h186v2023h-186v-2023zM1069 -299h184v2023h-184v-2023z" />
    <glyph glyph-name="_8720" unicode="&#x2226;" 
d="M842 1006l-297 487l65 39l277 -455l260 451l63 -43l-282 -475l180 -301l481 813l66 -43l-504 -842l301 -504l-55 -43l-287 477l-297 -479l-61 41l313 508l-180 301l-516 -844l-60 43z" />
    <glyph glyph-name="_192" unicode="&#x2227;" 
d="M207 86l188 -92l586 1239l590 -1239l186 92l-733 1499h-84z" />
    <glyph glyph-name="_193" unicode="&#x2228;" 
d="M940 -23h84l733 1500l-186 92l-590 -1239l-584 1239l-190 -92z" />
    <glyph glyph-name="_191" unicode="&#x2229;" 
d="M981 1382q209 0 327.5 -157.5t118.5 -476.5v-715h218v719q0 181 -39.5 327t-119 255t-208 168t-297.5 59t-297.5 -59t-208 -168t-119 -255t-39.5 -327v-719h220v715q0 319 118 476.5t326 157.5z" />
    <glyph glyph-name="_190" unicode="&#x222a;" 
d="M981 168q-207 0 -325.5 158t-118.5 477v715h-220v-719q0 -181 39.5 -327t119 -255t208 -168t297.5 -59t297.5 59t208 168t119 255t39.5 327v719h-218v-715q0 -320 -118.5 -477.5t-327.5 -157.5z" />
    <glyph glyph-name="_182" unicode="&#x222b;" 
d="M573 -66v-176q60 -8 142 -8q206 0 293.5 77t87.5 263v1350q0 95 39.5 131.5t144.5 36.5h111v176q-59 10 -142 10q-205 0 -293 -78t-88 -264v-1350q0 -96 -39.5 -132t-144.5 -36h-111z" />
    <glyph glyph-name="_183" unicode="&#x222c;" 
d="M246 -66v-176q60 -8 141 -8q206 0 293.5 77t87.5 263v1350q0 95 39.5 131.5t144.5 36.5h111v176q-59 10 -141 10q-205 0 -293 -78t-88 -264v-1350q0 -95 -39.5 -131.5t-145.5 -36.5h-110zM901 -66v-176q60 -8 141 -8q206 0 293.5 77t87.5 263v1350q0 94 40 131t145 37
h110v176q-59 10 -141 10q-205 0 -293 -78t-88 -264v-1350q0 -96 -39.5 -132t-144.5 -36h-111z" />
    <glyph glyph-name="_211" unicode="&#x222e;" 
d="M549 762q0 -147 88.5 -255t228.5 -142v-263q0 -96 -39.5 -132t-144.5 -36h-111v-178q60 -8 142 -8q205 0 293 78t88 264v272q142 34 231.5 143t89.5 257t-89.5 256t-231.5 141v281q0 92 40 130t144 38h111v176q-59 10 -142 10q-205 0 -293 -78t-88 -264v-293
q-140 -34 -228.5 -142t-88.5 -255zM1237 762q0 -79 -38 -138t-105 -85v448q67 -28 105 -87t38 -138zM727 762q0 77 37.5 136t101.5 87v-446q-64 30 -101.5 89t-37.5 134z" />
    <glyph glyph-name="_137" unicode="&#x2234;" 
d="M1624 475h-242v-274h242v274zM580 475h-242v-274h242v274zM1102 1438h-242v-275h242v275z" />
    <glyph glyph-name="_181" unicode="&#x2235;" 
d="M1624 1438h-242v-275h242v275zM580 1438h-242v-275h242v275zM1102 475h-242v-274h242v274z" />
    <glyph glyph-name="_18161" unicode="&#x223c;" horiz-adv-x="1200" 
d="M403 930q-138 0 -209 -93t-73 -251h209q6 153 104 153q31 0 60.5 -17.5t57 -42t58.5 -49t79 -42t106 -17.5q138 0 210 93t74 254h-211q-3 -81 -28.5 -118.5t-75.5 -37.5q-31 0 -60.5 17.5t-57 42t-58.5 49t-79 42t-106 17.5z" />
    <glyph glyph-name="_179" unicode="&#x223d;" 
d="M1055 698q162 240 305 240q78 0 130 -47t52 -129q0 -83 -52 -130.5t-130 -47.5q-62 0 -111 24l-78 -147q91 -49 197 -49q172 0 273.5 94.5t101.5 255.5q0 160 -101.5 254t-273.5 94q-261 0 -457 -291q-74 -109 -155.5 -172t-151.5 -63q-79 0 -130.5 47t-51.5 131
q0 82 51.5 129t130.5 47q48 0 98 -18l64 153q-81 37 -172 37q-172 0 -272.5 -94t-100.5 -254q0 -161 100.5 -255.5t272.5 -94.5q265 0 461 286z" />
    <glyph glyph-name="_8500" unicode="&#x2243;" 
d="M952 963q-52 28 -73.5 38t-72.5 21.5t-112 11.5q-91 0 -183.5 -44t-164.5 -107l-22 84q62 83 167.5 143.5t221.5 60.5q40 0 74 -5t66 -17.5t51 -21.5t54.5 -28.5t51.5 -27.5q54 -29 74 -38.5t71.5 -21.5t112.5 -12q91 0 183.5 44.5t164.5 107.5l22 -84
q-62 -83 -167.5 -144t-221.5 -61q-49 0 -95.5 11t-67 19.5t-72.5 37t-62 33.5zM348 324v104h1292v-104h-1292z" />
    <glyph glyph-name="_8499" unicode="&#x2245;" 
d="M952 963q-52 28 -73.5 38t-72.5 21.5t-112 11.5q-91 0 -183.5 -44t-164.5 -107l-22 84q62 83 167.5 143.5t221.5 60.5q40 0 74 -5t66 -17.5t51 -21.5t54.5 -28.5t51.5 -27.5q54 -29 74 -38.5t71.5 -21.5t112.5 -12q91 0 183.5 44.5t164.5 107.5l22 -84
q-62 -83 -167.5 -144t-221.5 -61q-49 0 -95.5 11t-67 19.5t-72.5 37t-62 33.5zM348 78v104h1292v-104h-1292zM348 406v104h1292v-104h-1292z" />
    <glyph glyph-name="_8501" unicode="&#x2248;" 
d="M954 963q-52 28 -73.5 38t-72.5 21.5t-112 11.5q-91 0 -183.5 -44t-164.5 -107l-22 84q62 83 167.5 143.5t221.5 60.5q40 0 74 -5t66 -17.5t51 -21.5t54.5 -28.5t51.5 -27.5q54 -29 74 -38.5t71.5 -21.5t112.5 -12q91 0 183.5 44.5t164.5 107.5l22 -84
q-62 -83 -167.5 -144t-221.5 -61q-49 0 -95.5 11t-67 19.5t-72.5 37t-62 33.5zM954 348q-54 29 -74 38.5t-71.5 21.5t-112.5 12q-91 0 -183.5 -44.5t-164.5 -107.5l-22 84q62 83 167.5 144t221.5 61q40 0 74 -5t66 -17.5t51 -21.5t54.5 -28.5t51.5 -27.5q54 -29 74 -38.5
t71.5 -21.5t112.5 -12q91 0 183.5 44.5t164.5 107.5l22 -84q-62 -83 -167.5 -144t-221.5 -61q-40 0 -74 5t-66 17.5t-51 21.5t-54.5 28.5t-51.5 27.5z" />
    <glyph glyph-name="_8739" unicode="&#x2250;" 
d="M268 776v-74h1430v74h-1430zM268 412v-76h1430v76h-1430zM985 1251q58 0 91.5 -37t33.5 -86t-32 -84.5t-89 -35.5q-60 0 -92.5 35.5t-32.5 84.5q0 50 31.5 86t89.5 37z" />
    <glyph glyph-name="_8723" unicode="&#x2251;" 
d="M1681 1008v-78h-1396v78h1396zM1681 643v-76h-1396v76h1396zM979 1395q57 0 89 -36t32 -85q0 -51 -33.5 -87t-91.5 -36t-89.5 36t-31.5 85q0 51 32.5 87t92.5 36zM979 414q57 0 89 -36t32 -85q0 -51 -33.5 -87t-91.5 -36q-57 0 -89 37t-32 84q0 51 32.5 87t92.5 36z" />
    <glyph glyph-name="_154" unicode="&#x2252;" horiz-adv-x="1200" 
d="M100 842h1000v186h-1000v-186zM100 469h1000v186h-1000v-186zM963 307h-244v-272h244v272zM483 1460h-243v-270h243v270z" />
    <glyph glyph-name="_8722" unicode="&#x2253;" 
d="M1681 1008v-78h-1396v78h1396zM1681 643v-76h-1396v76h1396zM1397 1395q57 0 89 -36.5t32 -84.5q0 -51 -33.5 -87t-91.5 -36q-56 0 -87.5 36.5t-31.5 84.5q0 51 32.5 87t90.5 36zM586 414q57 0 88 -35.5t31 -85.5q0 -51 -32.5 -87t-90.5 -36q-56 0 -87.5 37t-31.5 84
q0 51 32.5 87t90.5 36z" />
    <glyph glyph-name="_8753" unicode="&#x225a;" 
d="M315 416h1334v-72h-1334v72zM1493 1397l-502 -903l-510 917l70 25l440 -774l432 763zM315 176h1334v-72h-1334v72z" />
    <glyph glyph-name="_133" unicode="&#x2260;" horiz-adv-x="1200" 
d="M100 862h482l-129 -227h-353v-186h246l-156 -275h164l158 275h588v186h-484l129 227h355v187h-248l158 276h-164l-158 -276h-588v-187z" />
    <glyph glyph-name="_153" unicode="&#x2261;" horiz-adv-x="1200" 
d="M100 1026h1000v186h-1000v-186zM100 287h1000v186h-1000v-186zM100 655h1000v187h-1000v-187z" />
    <glyph glyph-name="_8734" unicode="&#x2262;" 
d="M270 1090v71h875l143 252l64 -35l-125 -217h467v-71h-510l-148 -256h658v-68h-699l-145 -252h844v-70h-887l-164 -284l-61 33l145 251h-457v72h500l143 250h-643v68h684l148 256h-832z" />
    <glyph glyph-name="_134" unicode="&#x2264;" horiz-adv-x="1200" 
d="M98 102h1002v185h-1002v-185zM1081 1434l-964 -418v-187l964 -415v209l-710 301l710 299v211z" />
    <glyph glyph-name="_135" unicode="&#x2265;" horiz-adv-x="1200" 
d="M1100 287h-1002v-185h1002v185zM117 414l964 415v187l-964 418v-211l710 -299l-710 -301v-209z" />
    <glyph glyph-name="_8724" unicode="&#x2266;" 
d="M383 1073l1194 467l25 -70l-1127 -436l1127 -395l-27 -72l-1190 418q-41 15 -42 43t40 45zM330 426v72h1304v-72h-1304zM330 154v69h1304v-69h-1304z" />
    <glyph glyph-name="_8725" unicode="&#x2267;" 
d="M387 1540l1194 -467q42 -18 42.5 -44t-44.5 -44l-1190 -418l-27 72l1127 395l-1127 436zM1634 498v-72h-1304v72h1304zM1634 223v-69h-1304v69h1304z" />
    <glyph glyph-name="_18162" unicode="&#x226a;" 
d="M739 772l1039 -729l102 145l-874 615l874 610l-104 146l-1037 -725v-62zM84 772l1038 -729l103 145l-875 615l875 610l-105 146l-1036 -725v-62z" />
    <glyph glyph-name="_18163" unicode="&#x226b;" 
d="M1225 834l-1037 725l-104 -146l874 -610l-874 -615l102 -145l1039 729v62zM1880 834l-1036 725l-105 -146l875 -610l-875 -615l103 -145l1038 729v62z" />
    <glyph glyph-name="_8745" unicode="&#x226e;" 
d="M1276 1516l-80 -283l391 192l25 -69l-443 -219l-161 -580l604 -278l-27 -72l-600 272l-104 -375l-68 23l107 383l-525 240q-41 15 -42 43t40 45l713 350l98 352zM485 797l455 -209l139 504z" />
    <glyph glyph-name="_8746" unicode="&#x226f;" 
d="M1151 1516l-117 -414l537 -264q41 -17 40 -45t-42 -43l-725 -332l-88 -314l-68 23l70 252l-379 -172l-27 72l432 198l162 584l-594 295l25 69l590 -290l112 405zM1479 797l-465 229l-144 -510z" />
    <glyph glyph-name="_8481" unicode="&#x2270;" 
d="M305 1036l1278 574l33 -113l-1020 -453l1026 -407l-43 -117zM1659 492v-123h-1292v123h1292zM1659 195v-121h-1292v121h1292zM823 -168l-112 29l460 1900l115 -28z" />
    <glyph glyph-name="_8482" unicode="&#x2271;" 
d="M381 1610l1278 -574l-1274 -516l-43 117l1026 407l-1020 453zM305 369v123h1292v-123h-1292zM305 74v121h1292v-121h-1292zM1253 -139l-112 -29l-463 1901l115 28z" />
    <glyph glyph-name="_8483" unicode="&#x2272;" 
d="M305 1036l1278 574l33 -113l-1020 -453l1026 -407l-43 -117zM973 123q-54 29 -74 38.5t-71.5 21.5t-112.5 12q-91 0 -183.5 -44.5t-164.5 -107.5l-23 84q62 83 167.5 144t221.5 61q49 0 95.5 -11t67 -19.5t72.5 -37t62 -33.5q52 -28 73.5 -38t72.5 -21.5t112 -11.5
q91 0 183.5 44t164.5 107l23 -84q-62 -83 -167.5 -143.5t-221.5 -60.5q-40 0 -74 5t-66 17.5t-51 21.5t-54.5 28.5t-51.5 27.5z" />
    <glyph glyph-name="_8484" unicode="&#x2273;" 
d="M334 1497l35 113l1276 -574l-1272 -516l-45 117l1028 407zM948 123q-54 29 -74 38.5t-71.5 21.5t-112.5 12q-91 0 -183.5 -44.5t-164.5 -107.5l-23 84q62 83 168 144t222 61q49 0 95.5 -11t67 -19.5t72.5 -37t62 -33.5q52 -28 73.5 -38t72.5 -21.5t112 -11.5
q91 0 183.5 44t164.5 107l22 -84q-62 -83 -167.5 -143.5t-221.5 -60.5q-40 0 -74 5t-66 17.5t-51 21.5t-54.5 28.5t-51.5 27.5z" />
    <glyph glyph-name="_8489" unicode="&#x2276;" 
d="M1651 1425l-1016 -321l1016 -322l-33 -114l-1303 436l1303 436zM315 147l1016 322l-1016 322l33 114l1303 -436l-1303 -436z" />
    <glyph glyph-name="_8490" unicode="&#x2277;" 
d="M338 1544l1292 -440l-1294 -438v125l987 313l-985 315v125zM1630 31l-1294 440l1292 438v-123l-985 -315l987 -315v-125z" />
    <glyph glyph-name="_8491" unicode="&#x2279;" 
d="M338 1544l1292 -440l-1294 -438v125l987 313l-985 315v125zM1630 31l-1294 440l1292 438v-123l-985 -315l987 -315v-125zM805 -168l-113 29l461 1900l115 -28z" />
    <glyph glyph-name="_8475" unicode="&#x227a;" 
d="M342 795q744 220 1225 610l57 -113q-474 -363 -950 -497q473 -136 950 -498l-57 -113q-483 392 -1225 611z" />
    <glyph glyph-name="_8476" unicode="&#x227b;" 
d="M1624 795q-742 -219 -1225 -611l-57 113q477 362 950 498q-476 134 -950 497l57 113q481 -390 1225 -610z" />
    <glyph glyph-name="_8479" unicode="&#x2280;" 
d="M1063 1569v-1549h-117v1549h117zM342 795q744 220 1225 610l57 -113q-474 -363 -950 -497q473 -136 950 -498l-57 -113q-483 392 -1225 611z" />
    <glyph glyph-name="_8480" unicode="&#x2281;" 
d="M903 20v1549h117v-1549h-117zM1624 795q-742 -219 -1225 -611l-57 113q477 362 950 498q-476 134 -950 497l57 113q481 -390 1225 -610z" />
    <glyph glyph-name="_188" unicode="&#x2282;" 
d="M414 795q0 220 144 342.5t454 122.5h712v198h-716q-181 0 -327 -39.5t-255 -118.5t-168 -207.5t-59 -297.5t59 -297.5t168 -208t255 -119t327 -39.5h716v197h-712q-310 0 -454 123.5t-144 343.5z" />
    <glyph glyph-name="_189" unicode="&#x2283;" 
d="M1550 795q0 -220 -144 -343.5t-454 -123.5h-714v-197h718q181 0 327 39.5t255 119t168 208t59 297.5t-59 297.5t-168 207.5t-255 118.5t-327 39.5h-718v-198h714q310 0 454 -122.5t144 -342.5z" />
    <glyph glyph-name="_8748" unicode="&#x2284;" 
d="M924 303l-56 -199l-67 23l49 180q-210 26 -352 167.5t-142 326.5q0 100 45.5 191.5t122 158.5t183 107t223.5 40h194l68 242l72 -24l-62 -218h406v-75h-426l-238 -844h664v-76h-678h-6zM440 801q0 -161 126.5 -280t303.5 -140l234 842h-174q-127 0 -239.5 -55
t-181.5 -153t-69 -214z" />
    <glyph glyph-name="_8747" unicode="&#x2285;" 
d="M840 303l-56 -199l-67 23l49 176h-410v76h430l234 844h-664v75h678h6l68 242l72 -24l-64 -224q210 -26 351 -166.5t141 -324.5q0 -133 -76.5 -247.5t-209.5 -182.5t-288 -68h-194zM860 379h174q127 0 239.5 55t181.5 153t69 214q0 160 -125.5 278.5t-302.5 139.5z" />
    <glyph glyph-name="_186" unicode="&#x2286;" 
d="M242 184v-188h1491v188h-1491zM406 1030q0 185 127.5 274t396.5 89h788v194h-792q-169 0 -302 -32.5t-231 -99t-150.5 -174t-52.5 -251.5t52.5 -252t150.5 -174.5t231 -99.5t302 -33h792v195h-788q-269 0 -396.5 89t-127.5 275z" />
    <glyph glyph-name="_187" unicode="&#x2287;" 
d="M231 184v-188h1491v188h-1491zM1559 1030q0 -186 -127.5 -275t-397.5 -89h-788v-195h792q169 0 302 33t231 99.5t150.5 174.5t52.5 252t-52.5 251.5t-150.5 174t-231 99t-302 32.5h-792v-194h788q269 0 397 -89t128 -274z" />
    <glyph glyph-name="_8486" unicode="&#x228a;" 
d="M434 1087q0 -87 44.5 -166t127 -130.5t182.5 -51.5h875v-123h-858q-109 0 -204.5 40t-160 105.5t-102 150.5t-37.5 175t37.5 175t102 151t160 106t204.5 40h858v-123h-875q-100 0 -182.5 -51.5t-127 -131t-44.5 -166.5zM1665 195v-121h-1292v121h1292zM1665 492v-123
h-1292v123h1292zM1063 721l117 -33l-236 -825l-119 33z" />
    <glyph glyph-name="_8488" unicode="&#x228b;" 
d="M1532 1087q0 87 -44.5 166.5t-127 131t-182.5 51.5h-875v123h858q109 0 204.5 -40t160 -106t102 -151t37.5 -175t-37.5 -175t-102 -150.5t-160 -105.5t-204.5 -40h-858v123h875q100 0 182.5 51.5t127 130.5t44.5 166zM301 74v121h1292v-121h-1292zM301 369v123h1292v-123
h-1292zM1022 721l117 -33l-236 -825l-119 33z" />
    <glyph glyph-name="_8727" unicode="&#x2295;" 
d="M291 754v75h655v650h78v-650h651v-75h-651v-643h-78v643h-655zM985 1618q134 0 259 -41t225.5 -116t175.5 -175.5t116 -225.5t41 -259t-41 -259t-116 -225.5t-175.5 -175.5t-225.5 -116t-259 -41q-169 0 -321.5 64t-262 173.5t-173.5 260.5t-64 319t64 319t173.5 260.5
t262 173.5t321.5 64zM985 1546q-123 0 -238 -37.5t-206.5 -106t-160.5 -160t-106.5 -205.5t-37.5 -236q0 -204 99.5 -375.5t271.5 -271t378 -99.5q153 0 291 59t237.5 158.5t158.5 237.5t59 291t-59 291t-158.5 237.5t-237.5 158t-291 58.5z" />
    <glyph glyph-name="_8728" unicode="&#x2296;" 
d="M295 758v73h1384v-73h-1384zM985 1618q134 0 259 -41t225.5 -116t175.5 -175.5t116 -225.5t41 -259t-41 -259t-116 -225.5t-175.5 -175.5t-225.5 -116t-259 -41q-169 0 -321.5 64t-262 173.5t-173.5 260.5t-64 319t64 319t173.5 260.5t262 173.5t321.5 64zM985 1546
q-123 0 -238 -37.5t-206.5 -106t-160.5 -160t-106.5 -205.5t-37.5 -236q0 -204 99.5 -375.5t271.5 -271t378 -99.5q153 0 291 59t237.5 158.5t158.5 237.5t59 291t-59 291t-158.5 237.5t-237.5 158t-291 58.5z" />
    <glyph glyph-name="_8729" unicode="&#x2297;" 
d="M522 283l-55 57l461 461l-457 454l55 56l459 -457l459 459l55 -56l-461 -456l467 -461l-57 -53l-463 461zM985 1618q134 0 259 -41t225.5 -116t175.5 -175.5t116 -225.5t41 -259t-41 -259t-116 -225.5t-175.5 -175.5t-225.5 -116t-259 -41q-169 0 -321.5 64t-262 173.5
t-173.5 260.5t-64 319t64 319t173.5 260.5t262 173.5t321.5 64zM985 1546q-123 0 -238 -37.5t-206.5 -106t-160.5 -160t-106.5 -205.5t-37.5 -236q0 -204 99.5 -375.5t271.5 -271t378 -99.5q153 0 291 59t237.5 158.5t158.5 237.5t59 291t-59 291t-158.5 237.5t-237.5 158
t-291 58.5z" />
    <glyph glyph-name="_18164" unicode="&#x2299;" 
d="M1884 797q0 184 -71 351.5t-191.5 288t-287.5 192t-351 71.5q-186 0 -353.5 -71t-287.5 -191.5t-191 -288t-71 -352.5q0 -247 119 -454t326.5 -327t457.5 -120q186 0 353 70.5t287 191t190.5 287.5t70.5 352zM256 797q0 151 56 288t152.5 236t231.5 157t287 58
q122 0 234.5 -37t201.5 -105t155.5 -159t102 -204t35.5 -234q0 -151 -56 -287.5t-152.5 -236t-232.5 -158t-288 -58.5q-202 0 -369.5 99.5t-262.5 269t-95 371.5zM612 797q0 -156 108 -266.5t263 -110.5q156 0 264.5 110.5t108.5 266.5q0 157 -108.5 267t-264.5 110
q-155 0 -263 -110t-108 -267z" />
    <glyph glyph-name="_8742" unicode="&#x22a3;" 
d="M1526 141h-74v623h-1014v72h1014v608h74v-1303z" />
    <glyph glyph-name="_8503" unicode="&#x22a4;" 
d="M920 1245h-584v121h1292v-121h-567v-1069h-141v1069z" />
    <glyph glyph-name="_149" unicode="&#x22a5;" 
d="M1087 303v1253h-208v-1253h-670v-180h1546v180h-668z" />
    <glyph glyph-name="_8751" unicode="&#x22bb;" 
d="M315 248h1334v-72h-1334v72zM1534 1434l-543 -1108l-551 1122l70 25l481 -979l473 968z" />
    <glyph glyph-name="_8752" unicode="&#x22bc;" 
d="M1651 1321h-1336v72h1336v-72zM983 1235l543 -1108l-70 -29l-473 969l-481 -979l-70 25z" />
    <glyph glyph-name="_8477" unicode="&#x22ce;" 
d="M983 1458q220 -744 610 -1225l-112 -57q-362 477 -498 950q-134 -474 -498 -950l-112 57q390 481 610 1225z" />
    <glyph glyph-name="_8478" unicode="&#x22cf;" 
d="M983 156q-219 742 -610 1224l112 58q364 -475 498 -951q137 475 498 951l112 -58q-391 -482 -610 -1224z" />
    <glyph glyph-name="_8492" unicode="&#x22da;" 
d="M1610 1487l-934 -240l934 -239l-33 -115l-1303 354l1303 355zM356 86l934 240l-934 239l33 115l1303 -354l-1303 -355zM1628 838v-105h-1292v105h1292z" />
    <glyph glyph-name="_8493" unicode="&#x22db;" 
d="M1290 1247l-934 240l33 115l1303 -355l-1303 -354l-33 115zM676 326l934 -240l-33 -115l-1303 355l1303 354l33 -115zM338 733v105h1292v-105h-1292z" />
    <glyph glyph-name="_8754" unicode="&#x2306;" 
d="M1649 1139h-1334v71h1334v-71zM991 1061l502 -903l-70 -29l-432 764l-440 -774l-70 24zM1649 1378h-1334v72h1334v-72z" />
    <glyph glyph-name="_150" unicode="&#x2312;" 
d="M55 1366l103 -143q340 346 825 346q480 0 827 -344l103 141q-180 186 -415.5 289.5t-514.5 103.5t-514.5 -103.5t-413.5 -289.5z" />
    <glyph glyph-name="_8731" unicode="&#x2314;" 
d="M1614 1198l-631 -1120l-631 1120q145 86 309 139.5t322 53.5t322 -53.5t309 -139.5zM983 1325q-131 0 -278.5 -43.5t-255.5 -110.5l534 -956l535 956q-107 66 -255.5 110t-279.5 44z" />
    <glyph glyph-name="_733" unicode="&#x2460;" 
d="M49 805q0 -258 124 -471t338.5 -335t471.5 -122q192 0 364.5 72t297 195t197.5 295.5t73 365.5q0 259 -124 472.5t-337.5 335.5t-470.5 122q-193 0 -366 -72t-297.5 -195.5t-197.5 -296t-73 -366.5zM207 805q0 164 60 309.5t162.5 250t247 165.5t306.5 61t306.5 -61
t247 -165.5t162.5 -250t60 -309.5t-60 -309.5t-162.5 -250t-247 -165t-306.5 -60.5t-306.5 60.5t-247 165t-162.5 250t-60 309.5zM1133 233v1160h-164l-307 -138v-196l266 117v-943h205z" />
    <glyph glyph-name="_734" unicode="&#x2461;" 
d="M49 805q0 -258 124 -471t338.5 -335t471.5 -122q192 0 364.5 72t297 195t197.5 295.5t73 365.5q0 259 -124 472.5t-337.5 335.5t-470.5 122q-193 0 -366 -72t-297.5 -195.5t-197.5 -296t-73 -366.5zM207 805q0 164 60 309.5t162.5 250t247 165.5t306.5 61t306.5 -61
t247 -165.5t162.5 -250t60 -309.5t-60 -309.5t-162.5 -250t-247 -165t-306.5 -60.5t-306.5 60.5t-247 165t-162.5 250t-60 309.5zM1354 1075q0 154 -98 254.5t-271 100.5q-171 0 -269 -100.5t-98 -254.5v-53h207v53q0 82 43 131t117 49q75 0 118.5 -49t43.5 -131
q0 -90 -74 -172l-438 -500v-151h733v174h-455l326 371q62 71 88.5 134t26.5 144z" />
    <glyph glyph-name="_735" unicode="&#x2462;" 
d="M49 805q0 -258 124 -471t338.5 -335t471.5 -122q192 0 364.5 72t297 195t197.5 295.5t73 365.5q0 259 -124 472.5t-337.5 335.5t-470.5 122q-193 0 -366 -72t-297.5 -195.5t-197.5 -296t-73 -366.5zM207 805q0 164 60 309.5t162.5 250t247 165.5t306.5 61t306.5 -61
t247 -165.5t162.5 -250t60 -309.5t-60 -309.5t-162.5 -250t-247 -165t-306.5 -60.5t-306.5 60.5t-247 165t-162.5 250t-60 309.5zM1169 584q0 -86 -49 -135.5t-127 -49.5t-129 50.5t-51 138.5v30h-205v-38q0 -163 106.5 -260t278.5 -97q170 0 276.5 96t106.5 256
q0 99 -46 173t-124 112q65 37 100 101t35 147q0 137 -93 225t-255 88q-163 0 -257.5 -88t-94.5 -225v-45h205v33q0 69 40 110t107 41q64 0 105 -41.5t41 -109.5q0 -69 -39 -110.5t-107 -41.5h-135v-174h133q82 0 130 -49.5t48 -136.5z" />
    <glyph glyph-name="_736" unicode="&#x2463;" 
d="M49 805q0 -258 124 -471t338.5 -335t471.5 -122q192 0 364.5 72t297 195t197.5 295.5t73 365.5q0 259 -124 472.5t-337.5 335.5t-470.5 122q-193 0 -366 -72t-297.5 -195.5t-197.5 -296t-73 -366.5zM207 805q0 164 60 309.5t162.5 250t247 165.5t306.5 61t306.5 -61
t247 -165.5t162.5 -250t60 -309.5t-60 -309.5t-162.5 -250t-247 -165t-306.5 -60.5t-306.5 60.5t-247 165t-162.5 250t-60 309.5zM774 657l238 410v-410h-238zM1360 657h-141v746h-213l-457 -760v-162h463v-237h207v237h141v176z" />
    <glyph glyph-name="_737" unicode="&#x2464;" 
d="M49 805q0 -258 124 -471t338.5 -335t471.5 -122q192 0 364.5 72t297 195t197.5 295.5t73 365.5q0 259 -124 472.5t-337.5 335.5t-470.5 122q-193 0 -366 -72t-297.5 -195.5t-197.5 -296t-73 -366.5zM207 805q0 164 60 309.5t162.5 250t247 165.5t306.5 61t306.5 -61
t247 -165.5t162.5 -250t60 -309.5t-60 -309.5t-162.5 -250t-247 -165t-306.5 -60.5t-306.5 60.5t-247 165t-162.5 250t-60 309.5zM989 819q82 0 126 -56.5t44 -160.5q0 -106 -45 -162.5t-125 -56.5q-70 0 -114.5 47.5t-53.5 138.5h-207q12 -169 111.5 -264.5t263.5 -95.5
q175 0 275 103t100 288q0 191 -92 292t-248 101q-102 0 -160 -49l15 268h426v177h-621l-29 -664h197q46 94 137 94z" />
    <glyph glyph-name="_738" unicode="&#x2465;" 
d="M49 805q0 -258 124 -471t338.5 -335t471.5 -122q192 0 364.5 72t297 195t197.5 295.5t73 365.5q0 259 -124 472.5t-337.5 335.5t-470.5 122q-193 0 -366 -72t-297.5 -195.5t-197.5 -296t-73 -366.5zM207 805q0 164 60 309.5t162.5 250t247 165.5t306.5 61t306.5 -61
t247 -165.5t162.5 -250t60 -309.5t-60 -309.5t-162.5 -250t-247 -165t-306.5 -60.5t-306.5 60.5t-247 165t-162.5 250t-60 309.5zM985 1239q123 0 145 -145h209q-18 156 -110.5 237.5t-241.5 81.5q-209 0 -298 -150t-89 -511q0 -537 383 -537q168 0 273.5 106.5t105.5 286.5
q0 181 -98 286t-258 105q-121 0 -195 -67q8 161 48.5 234t125.5 73zM807 608q0 102 47 159.5t127 57.5q82 0 129 -57.5t47 -159.5q0 -103 -47 -161t-129 -58q-80 0 -127 58.5t-47 160.5z" />
    <glyph glyph-name="_739" unicode="&#x2466;" 
d="M49 805q0 -258 124 -471t338.5 -335t471.5 -122q192 0 364.5 72t297 195t197.5 295.5t73 365.5q0 259 -124 472.5t-337.5 335.5t-470.5 122q-193 0 -366 -72t-297.5 -195.5t-197.5 -296t-73 -366.5zM207 805q0 164 60 309.5t162.5 250t247 165.5t306.5 61t306.5 -61
t247 -165.5t162.5 -250t60 -309.5t-60 -309.5t-162.5 -250t-247 -165t-306.5 -60.5t-306.5 60.5t-247 165t-162.5 250t-60 309.5zM621 1171h516l-381 -985h213l383 1018v142h-731v-175z" />
    <glyph glyph-name="_740" unicode="&#x2467;" 
d="M49 805q0 -258 124 -471t338.5 -335t471.5 -122q192 0 364.5 72t297 195t197.5 295.5t73 365.5q0 259 -124 472.5t-337.5 335.5t-470.5 122q-193 0 -366 -72t-297.5 -195.5t-197.5 -296t-73 -366.5zM207 805q0 164 60 309.5t162.5 250t247 165.5t306.5 61t306.5 -61
t247 -165.5t162.5 -250t60 -309.5t-60 -309.5t-162.5 -250t-247 -165t-306.5 -60.5t-306.5 60.5t-247 165t-162.5 250t-60 309.5zM985 213q180 0 290.5 95t110.5 255q0 101 -46.5 173.5t-131.5 111.5q66 37 105 104t39 146q0 138 -98.5 225.5t-268.5 87.5q-169 0 -268 -87.5
t-99 -225.5q0 -82 38.5 -148.5t105.5 -101.5q-176 -79 -176 -285q0 -160 110 -255t289 -95zM985 1237q73 0 117.5 -42.5t44.5 -111.5t-44 -110t-118 -41q-72 0 -117 41t-45 110t45 111.5t117 42.5zM985 760q88 0 141.5 -50t53.5 -137q0 -85 -54 -134.5t-141 -49.5
t-140.5 49.5t-53.5 134.5q0 87 53.5 137t140.5 50z" />
    <glyph glyph-name="_741" unicode="&#x2468;" 
d="M49 805q0 -258 124 -471t338.5 -335t471.5 -122q192 0 364.5 72t297 195t197.5 295.5t73 365.5q0 259 -124 472.5t-337.5 335.5t-470.5 122q-193 0 -366 -72t-297.5 -195.5t-197.5 -296t-73 -366.5zM207 805q0 164 60 309.5t162.5 250t247 165.5t306.5 61t306.5 -61
t247 -165.5t162.5 -250t60 -309.5t-60 -309.5t-162.5 -250t-247 -165t-306.5 -60.5t-306.5 60.5t-247 165t-162.5 250t-60 309.5zM975 375q-62 0 -99.5 37.5t-46.5 107.5h-213q21 -156 114.5 -237.5t242.5 -81.5q138 0 221.5 63.5t124.5 208.5t41 387q0 539 -383 539
q-169 0 -275 -106.5t-106 -288.5q0 -179 98.5 -284.5t257.5 -105.5q125 0 197 66q-9 -161 -49.5 -233t-124.5 -72zM1151 1004q0 -101 -47 -159.5t-127 -58.5t-127 58.5t-47 159.5q0 103 47 161t127 58t127 -58t47 -161z" />
    <glyph glyph-name="_742" unicode="&#x2469;" 
d="M49 805q0 -258 124 -471t338.5 -335t471.5 -122q192 0 364.5 72t297 195t197.5 295.5t73 365.5q0 259 -124 472.5t-337.5 335.5t-470.5 122q-193 0 -366 -72t-297.5 -195.5t-197.5 -296t-73 -366.5zM207 805q0 164 60 309.5t162.5 250t247 165.5t306.5 61t306.5 -61
t247 -165.5t162.5 -250t60 -309.5t-60 -309.5t-162.5 -250t-247 -165t-306.5 -60.5t-306.5 60.5t-247 165t-162.5 250t-60 309.5zM778 260v1094h-155l-256 -133v-197l215 111v-875h196zM1100 809q0 160 15 247.5t54 121.5q27 24 70 24t70 -24q38 -34 53.5 -122.5
t15.5 -246.5t-15.5 -246.5t-53.5 -122.5q-25 -22 -70 -22t-70 22q-39 34 -54 121.5t-15 247.5zM903 809q0 -203 37 -329t119 -183q73 -51 180 -51q104 0 180 51q80 58 117 183.5t37 328.5q0 205 -37 330.5t-117 181.5q-71 51 -180 51q-112 0 -180 -51q-82 -56 -119 -181.5
t-37 -330.5z" />
    <glyph glyph-name="_743" unicode="&#x246a;" 
d="M49 805q0 -258 124 -471t338.5 -335t471.5 -122q192 0 364.5 72t297 195t197.5 295.5t73 365.5q0 259 -124 472.5t-337.5 335.5t-470.5 122q-193 0 -366 -72t-297.5 -195.5t-197.5 -296t-73 -366.5zM207 805q0 164 60 309.5t162.5 250t247 165.5t306.5 61t306.5 -61
t247 -165.5t162.5 -250t60 -309.5t-60 -309.5t-162.5 -250t-247 -165t-306.5 -60.5t-306.5 60.5t-247 165t-162.5 250t-60 309.5zM834 260v1094h-156l-256 -133v-197l215 111v-875h197zM1423 260v1094h-155l-256 -133v-197l215 111v-875h196z" />
    <glyph glyph-name="_744" unicode="&#x246b;" 
d="M49 805q0 -258 124 -471t338.5 -335t471.5 -122q192 0 364.5 72t297 195t197.5 295.5t73 365.5q0 259 -124 472.5t-337.5 335.5t-470.5 122q-193 0 -366 -72t-297.5 -195.5t-197.5 -296t-73 -366.5zM207 805q0 164 60 309.5t162.5 250t247 165.5t306.5 61t306.5 -61
t247 -165.5t162.5 -250t60 -309.5t-60 -309.5t-162.5 -250t-247 -165t-306.5 -60.5t-306.5 60.5t-247 165t-162.5 250t-60 309.5zM778 260v1094h-155l-256 -133v-197l215 111v-875h196zM1538 1042q0 144 -83 240t-230 96q-144 0 -228 -96t-84 -240v-53h197v53q0 74 31 119
t84 45q55 0 85.5 -44.5t30.5 -119.5q0 -83 -57 -159l-356 -471v-144h622v172h-366l260 340q53 68 73.5 126t20.5 136z" />
    <glyph glyph-name="_745" unicode="&#x246c;" 
d="M49 805q0 -258 124 -471t338.5 -335t471.5 -122q192 0 364.5 72t297 195t197.5 295.5t73 365.5q0 259 -124 472.5t-337.5 335.5t-470.5 122q-193 0 -366 -72t-297.5 -195.5t-197.5 -296t-73 -366.5zM207 805q0 164 60 309.5t162.5 250t247 165.5t306.5 61t306.5 -61
t247 -165.5t162.5 -250t60 -309.5t-60 -309.5t-162.5 -250t-247 -165t-306.5 -60.5t-306.5 60.5t-247 165t-162.5 250t-60 309.5zM778 260v1094h-155l-256 -133v-197l215 111v-875h196zM1352 582q0 -78 -36 -123t-93 -45q-59 0 -95 45.5t-36 126.5v30h-197v-36
q0 -155 90.5 -246.5t237.5 -91.5q144 0 233.5 90.5t89.5 242.5q0 95 -37 164t-104 103q54 34 84.5 95t30.5 136q0 130 -79.5 213.5t-217.5 83.5q-139 0 -219 -83.5t-80 -213.5v-47h192v35q0 61 30 99t77 38q46 0 74 -38t28 -99q0 -62 -27.5 -99.5t-74.5 -37.5h-123v-170h121
q61 0 96 -45.5t35 -126.5z" />
    <glyph glyph-name="_746" unicode="&#x246d;" 
d="M49 805q0 -258 124 -471t338.5 -335t471.5 -122q192 0 364.5 72t297 195t197.5 295.5t73 365.5q0 259 -124 472.5t-337.5 335.5t-470.5 122q-193 0 -366 -72t-297.5 -195.5t-197.5 -296t-73 -366.5zM207 805q0 164 60 309.5t162.5 250t247 165.5t306.5 61t306.5 -61
t247 -165.5t162.5 -250t60 -309.5t-60 -309.5t-162.5 -250t-247 -165t-306.5 -60.5t-306.5 60.5t-247 165t-162.5 250t-60 309.5zM778 260v1094h-155l-256 -133v-197l215 111v-875h196zM1085 649l168 330v-330h-168zM1552 649h-104v699h-197l-374 -719v-152h376v-223h195
v223h104v172z" />
    <glyph glyph-name="_747" unicode="&#x246e;" 
d="M49 805q0 -258 124 -471t338.5 -335t471.5 -122q192 0 364.5 72t297 195t197.5 295.5t73 365.5q0 259 -124 472.5t-337.5 335.5t-470.5 122q-193 0 -366 -72t-297.5 -195.5t-197.5 -296t-73 -366.5zM207 805q0 164 60 309.5t162.5 250t247 165.5t306.5 61t306.5 -61
t247 -165.5t162.5 -250t60 -309.5t-60 -309.5t-162.5 -250t-247 -165t-306.5 -60.5t-306.5 60.5t-247 165t-162.5 250t-60 309.5zM778 260v1094h-155l-256 -133v-197l215 111v-875h196zM1217 809q60 0 91 -51t31 -148q0 -99 -31.5 -149.5t-90.5 -50.5q-52 0 -84 43.5
t-39 128.5h-197q12 -161 96 -252.5t224 -91.5q148 0 233.5 97.5t85.5 270.5q0 181 -79.5 277t-211.5 96q-60 0 -117 -31l13 230h346v170h-533l-22 -627h184q37 88 101 88z" />
    <glyph glyph-name="_8791" unicode="&#x246f;" 
d="M49 805q0 194 73 366.5t197.5 296t297.5 195.5t366 72q257 0 470.5 -122t337.5 -335.5t124 -472.5q0 -193 -73 -365.5t-197.5 -295.5t-297 -195t-364.5 -72q-257 0 -471.5 122t-338.5 335t-124 471zM207 805q0 -164 60 -309.5t162.5 -250t247 -165t306.5 -60.5
t306.5 60.5t247 165t162.5 250t60 309.5t-60 309.5t-162.5 250t-247 165.5t-306.5 61t-306.5 -61t-247 -165.5t-162.5 -250t-60 -309.5zM778 260h-196v875l-215 -111v197l256 133h155v-1094zM1229 1202q-60 0 -89.5 -61.5t-37.5 -196.5q59 43 143 43q136 0 219.5 -100.5
t83.5 -270.5q0 -169 -89.5 -269.5t-231.5 -100.5q-161 0 -244.5 121.5t-83.5 384.5q0 336 76 478t254 142q126 0 206 -78.5t95 -226.5h-199q-7 66 -33.5 100.5t-68.5 34.5zM1096 616q0 -94 35 -147t94 -53q60 0 94.5 52.5t34.5 147.5t-34.5 147t-94.5 52q-59 0 -94 -52.5
t-35 -146.5z" />
    <glyph glyph-name="_8792" unicode="&#x2470;" 
d="M49 805q0 194 73 366.5t197.5 296t297.5 195.5t366 72q257 0 470.5 -122t337.5 -335.5t124 -472.5q0 -193 -73 -365.5t-197.5 -295.5t-297 -195t-364.5 -72q-257 0 -471.5 122t-338.5 335t-124 471zM207 805q0 -164 60 -309.5t162.5 -250t247 -165t306.5 -60.5
t306.5 60.5t247 165t162.5 250t60 309.5t-60 309.5t-162.5 250t-247 165.5t-306.5 61t-306.5 -61t-247 -165.5t-162.5 -250t-60 -309.5zM780 256h-196v874l-215 -110v197l256 133h155v-1094zM915 1165v170h623v-137l-313 -954h-203l311 921h-418z" />
    <glyph glyph-name="_8793" unicode="&#x2471;" 
d="M49 805q0 194 73 366.5t197.5 296t297.5 195.5t366 72q257 0 470.5 -122t337.5 -335.5t124 -472.5q0 -193 -73 -365.5t-197.5 -295.5t-297 -195t-364.5 -72q-257 0 -471.5 122t-338.5 335t-124 471zM207 805q0 -164 60 -309.5t162.5 -250t247 -165t306.5 -60.5
t306.5 60.5t247 165t162.5 250t60 309.5t-60 309.5t-162.5 250t-247 165.5t-306.5 61t-306.5 -61t-247 -165.5t-162.5 -250t-60 -309.5zM778 260h-196v875l-215 -111v197l256 133h155v-1094zM1219 246q-152 0 -246 90t-94 242q0 90 39 158t108 106q-56 36 -88.5 98.5
t-32.5 136.5q0 130 85 213.5t229 83.5q143 0 227 -83.5t84 -213.5q0 -75 -31.5 -137.5t-87.5 -97.5q145 -76 145 -264q0 -152 -93 -242t-244 -90zM1219 1202q-54 0 -86.5 -38t-32.5 -101q0 -62 32.5 -99.5t86.5 -37.5q52 0 84 37.5t32 99.5q0 63 -31.5 101t-84.5 38z
M1219 758q-65 0 -105.5 -46.5t-40.5 -123.5q0 -78 40.5 -124t105.5 -46q64 0 103.5 46t39.5 124q0 77 -39.5 123.5t-103.5 46.5z" />
    <glyph glyph-name="_8794" unicode="&#x2472;" 
d="M49 805q0 194 73 366.5t197.5 296t297.5 195.5t366 72q257 0 470.5 -122t337.5 -335.5t124 -472.5q0 -193 -73 -365.5t-197.5 -295.5t-297 -195t-364.5 -72q-257 0 -471.5 122t-338.5 335t-124 471zM207 805q0 -164 60 -309.5t162.5 -250t247 -165t306.5 -60.5
t306.5 60.5t247 165t162.5 250t60 309.5t-60 309.5t-162.5 250t-247 165.5t-306.5 61t-306.5 -61t-247 -165.5t-162.5 -250t-60 -309.5zM778 260h-196v875l-215 -111v197l256 133h155v-1094zM1221 418q57 0 86.5 62t38.5 196q-59 -41 -144 -41q-137 0 -221 99.5t-84 269.5
t91 271t233 101q168 0 246.5 -127t78.5 -379q0 -339 -76.5 -480.5t-250.5 -141.5q-128 0 -207.5 78.5t-96.5 228.5h199q18 -137 107 -137zM1350 1004q0 94 -34 147t-93 53q-60 0 -94.5 -52.5t-34.5 -147.5q0 -93 34.5 -146t94.5 -53q59 0 93 53t34 146z" />
    <glyph glyph-name="_8795" unicode="&#x2473;" 
d="M49 805q0 194 73 366.5t197.5 296t297.5 195.5t366 72q257 0 470.5 -122t337.5 -335.5t124 -472.5q0 -193 -73 -365.5t-197.5 -295.5t-297 -195t-364.5 -72q-257 0 -471.5 122t-338.5 335t-124 471zM207 805q0 -164 60 -309.5t162.5 -250t247 -165t306.5 -60.5
t306.5 60.5t247 165t162.5 250t60 309.5t-60 309.5t-162.5 250t-247 165.5t-306.5 61t-306.5 -61t-247 -165.5t-162.5 -250t-60 -309.5zM942 1044q0 -73 -19.5 -132t-66.5 -130l-227 -340h325v-172h-563v142l314 473q51 77 51 159q0 74 -26 119t-71 45q-44 0 -69 -45
t-25 -119v-53h-186v53q0 144 75 240t205 96q132 0 207.5 -96t75.5 -240zM1192 809q0 -154 11 -243t44 -124q21 -24 60 -24q36 0 57 24q34 35 45.5 123.5t11.5 243.5q0 156 -11.5 244t-45.5 125q-21 24 -57 24q-39 0 -60 -24q-33 -37 -44 -125.5t-11 -243.5zM1006 809
q0 209 35 336.5t112 183.5q61 43 154 43q92 0 153 -43q77 -56 111.5 -183.5t34.5 -336.5q0 -208 -35 -336t-111 -182q-60 -45 -153 -45q-94 0 -154 45q-77 55 -112 182.5t-35 335.5z" />
    <glyph glyph-name="_827" unicode="&#x2474;" 
d="M1133 233v1160h-164l-307 -138v-196l266 117v-943h205zM76 807q0 -463 289 -866h149q-128 195 -199 420.5t-71 445.5q0 218 71 444t199 422h-149q-139 -194 -214 -414.5t-75 -451.5zM1888 807q0 232 -74 452.5t-212 413.5h-150q127 -197 197.5 -422.5t70.5 -443.5
q0 -219 -70.5 -445t-197.5 -421h150q286 399 286 866z" />
    <glyph glyph-name="_828" unicode="&#x2475;" 
d="M1354 1075q0 154 -98 254.5t-271 100.5q-171 0 -269 -100.5t-98 -254.5v-53h207v53q0 82 43 131t117 49q75 0 118.5 -49t43.5 -131q0 -90 -74 -172l-438 -500v-151h733v174h-455l326 371q62 71 88.5 134t26.5 144zM76 807q0 -463 289 -866h149q-128 195 -199 420.5
t-71 445.5q0 218 71 444t199 422h-149q-139 -194 -214 -414.5t-75 -451.5zM1888 807q0 232 -74 452.5t-212 413.5h-150q127 -197 197.5 -422.5t70.5 -443.5q0 -219 -70.5 -445t-197.5 -421h150q286 399 286 866z" />
    <glyph glyph-name="_829" unicode="&#x2476;" 
d="M1169 584q0 -86 -49 -135.5t-127 -49.5t-129 50.5t-51 138.5v30h-205v-38q0 -163 106.5 -260t278.5 -97q170 0 276.5 96t106.5 256q0 99 -46 173t-124 112q65 37 100 101t35 147q0 137 -93 225t-255 88q-163 0 -257.5 -88t-94.5 -225v-45h205v33q0 69 40 110t107 41
q64 0 105 -41.5t41 -109.5q0 -69 -39 -110.5t-107 -41.5h-135v-174h133q82 0 130 -49.5t48 -136.5zM76 807q0 -463 289 -866h149q-128 195 -199 420.5t-71 445.5q0 218 71 444t199 422h-149q-139 -194 -214 -414.5t-75 -451.5zM1888 807q0 232 -74 452.5t-212 413.5h-150
q127 -197 197.5 -422.5t70.5 -443.5q0 -219 -70.5 -445t-197.5 -421h150q286 399 286 866z" />
    <glyph glyph-name="_830" unicode="&#x2477;" 
d="M774 657l238 410v-410h-238zM1360 657h-141v746h-213l-457 -760v-162h463v-237h207v237h141v176zM76 807q0 -463 289 -866h149q-128 195 -199 420.5t-71 445.5q0 218 71 444t199 422h-149q-139 -194 -214 -414.5t-75 -451.5zM1888 807q0 232 -74 452.5t-212 413.5h-150
q127 -197 197.5 -422.5t70.5 -443.5q0 -219 -70.5 -445t-197.5 -421h150q286 399 286 866z" />
    <glyph glyph-name="_831" unicode="&#x2478;" 
d="M989 819q82 0 126 -56.5t44 -160.5q0 -106 -45 -162.5t-125 -56.5q-70 0 -114.5 47.5t-53.5 138.5h-207q12 -169 111.5 -264.5t263.5 -95.5q175 0 275 103t100 288q0 191 -92 292t-248 101q-102 0 -160 -49l15 268h426v177h-621l-29 -664h197q46 94 137 94zM76 807
q0 -463 289 -866h149q-128 195 -199 420.5t-71 445.5q0 218 71 444t199 422h-149q-139 -194 -214 -414.5t-75 -451.5zM1888 807q0 232 -74 452.5t-212 413.5h-150q127 -197 197.5 -422.5t70.5 -443.5q0 -219 -70.5 -445t-197.5 -421h150q286 399 286 866z" />
    <glyph glyph-name="_832" unicode="&#x2479;" 
d="M985 1239q123 0 145 -145h209q-18 156 -110.5 237.5t-241.5 81.5q-209 0 -298 -150t-89 -511q0 -537 383 -537q168 0 273.5 106.5t105.5 286.5q0 181 -98 286t-258 105q-121 0 -195 -67q8 161 48.5 234t125.5 73zM807 608q0 102 47 159.5t127 57.5q82 0 129 -57.5
t47 -159.5q0 -103 -47 -161t-129 -58q-80 0 -127 58.5t-47 160.5zM76 807q0 -463 289 -866h149q-128 195 -199 420.5t-71 445.5q0 218 71 444t199 422h-149q-139 -194 -214 -414.5t-75 -451.5zM1888 807q0 232 -74 452.5t-212 413.5h-150q127 -197 197.5 -422.5t70.5 -443.5
q0 -219 -70.5 -445t-197.5 -421h150q286 399 286 866z" />
    <glyph glyph-name="_833" unicode="&#x247a;" 
d="M621 1171h516l-381 -985h213l383 1018v142h-731v-175zM76 807q0 -463 289 -866h149q-128 195 -199 420.5t-71 445.5q0 218 71 444t199 422h-149q-139 -194 -214 -414.5t-75 -451.5zM1888 807q0 232 -74 452.5t-212 413.5h-150q127 -197 197.5 -422.5t70.5 -443.5
q0 -219 -70.5 -445t-197.5 -421h150q286 399 286 866z" />
    <glyph glyph-name="_834" unicode="&#x247b;" 
d="M985 213q180 0 290.5 95t110.5 255q0 101 -46.5 173.5t-131.5 111.5q66 37 105 104t39 146q0 138 -98.5 225.5t-268.5 87.5q-169 0 -268 -87.5t-99 -225.5q0 -82 38.5 -148.5t105.5 -101.5q-176 -79 -176 -285q0 -160 110 -255t289 -95zM985 1237q73 0 117.5 -42.5
t44.5 -111.5t-44 -110t-118 -41q-72 0 -117 41t-45 110t45 111.5t117 42.5zM985 760q88 0 141.5 -50t53.5 -137q0 -85 -54 -134.5t-141 -49.5t-140.5 49.5t-53.5 134.5q0 87 53.5 137t140.5 50zM76 807q0 -463 289 -866h149q-128 195 -199 420.5t-71 445.5q0 218 71 444
t199 422h-149q-139 -194 -214 -414.5t-75 -451.5zM1888 807q0 232 -74 452.5t-212 413.5h-150q127 -197 197.5 -422.5t70.5 -443.5q0 -219 -70.5 -445t-197.5 -421h150q286 399 286 866z" />
    <glyph glyph-name="_835" unicode="&#x247c;" 
d="M975 375q-62 0 -99.5 37.5t-46.5 107.5h-213q21 -156 114.5 -237.5t242.5 -81.5q138 0 221.5 63.5t124.5 208.5t41 387q0 539 -383 539q-169 0 -275 -106.5t-106 -288.5q0 -179 98.5 -284.5t257.5 -105.5q125 0 197 66q-9 -161 -49.5 -233t-124.5 -72zM1151 1004
q0 -101 -47 -159.5t-127 -58.5t-127 58.5t-47 159.5q0 103 47 161t127 58t127 -58t47 -161zM76 807q0 -463 289 -866h149q-128 195 -199 420.5t-71 445.5q0 218 71 444t199 422h-149q-139 -194 -214 -414.5t-75 -451.5zM1888 807q0 232 -74 452.5t-212 413.5h-150
q127 -197 197.5 -422.5t70.5 -443.5q0 -219 -70.5 -445t-197.5 -421h150q286 399 286 866z" />
    <glyph glyph-name="_836" unicode="&#x247d;" 
d="M778 260v1094h-155l-256 -133v-197l215 111v-875h196zM1100 809q0 160 15 247.5t54 121.5q27 24 70 24t70 -24q38 -34 53.5 -122.5t15.5 -246.5t-15.5 -246.5t-53.5 -122.5q-25 -22 -70 -22t-70 22q-39 34 -54 121.5t-15 247.5zM903 809q0 -203 37 -329t119 -183
q73 -51 180 -51q104 0 180 51q80 58 117 183.5t37 328.5q0 205 -37 330.5t-117 181.5q-71 51 -180 51q-112 0 -180 -51q-82 -56 -119 -181.5t-37 -330.5zM76 807q0 -463 289 -866h149q-128 195 -199 420.5t-71 445.5q0 218 71 444t199 422h-149q-139 -194 -214 -414.5
t-75 -451.5zM1888 807q0 232 -74 452.5t-212 413.5h-150q127 -197 197.5 -422.5t70.5 -443.5q0 -219 -70.5 -445t-197.5 -421h150q286 399 286 866z" />
    <glyph glyph-name="_837" unicode="&#x247e;" 
d="M834 260v1094h-156l-256 -133v-197l215 111v-875h197zM1423 260v1094h-155l-256 -133v-197l215 111v-875h196zM76 807q0 -463 289 -866h149q-128 195 -199 420.5t-71 445.5q0 218 71 444t199 422h-149q-139 -194 -214 -414.5t-75 -451.5zM1888 807q0 232 -74 452.5
t-212 413.5h-150q127 -197 197.5 -422.5t70.5 -443.5q0 -219 -70.5 -445t-197.5 -421h150q286 399 286 866z" />
    <glyph glyph-name="_838" unicode="&#x247f;" 
d="M778 260v1094h-155l-256 -133v-197l215 111v-875h196zM1538 1042q0 144 -83 240t-230 96q-144 0 -228 -96t-84 -240v-53h197v53q0 74 31 119t84 45q55 0 85.5 -44.5t30.5 -119.5q0 -83 -57 -159l-356 -471v-144h622v172h-366l260 340q53 68 73.5 126t20.5 136zM76 807
q0 -463 289 -866h149q-128 195 -199 420.5t-71 445.5q0 218 71 444t199 422h-149q-139 -194 -214 -414.5t-75 -451.5zM1888 807q0 232 -74 452.5t-212 413.5h-150q127 -197 197.5 -422.5t70.5 -443.5q0 -219 -70.5 -445t-197.5 -421h150q286 399 286 866z" />
    <glyph glyph-name="_839" unicode="&#x2480;" 
d="M778 260v1094h-155l-256 -133v-197l215 111v-875h196zM1352 582q0 -78 -36 -123t-93 -45q-59 0 -95 45.5t-36 126.5v30h-197v-36q0 -155 90.5 -246.5t237.5 -91.5q144 0 233.5 90.5t89.5 242.5q0 95 -37 164t-104 103q54 34 84.5 95t30.5 136q0 130 -79.5 213.5
t-217.5 83.5q-139 0 -219 -83.5t-80 -213.5v-47h192v35q0 61 30 99t77 38q46 0 74 -38t28 -99q0 -62 -27.5 -99.5t-74.5 -37.5h-123v-170h121q61 0 96 -45.5t35 -126.5zM76 807q0 -463 289 -866h149q-128 195 -199 420.5t-71 445.5q0 218 71 444t199 422h-149
q-139 -194 -214 -414.5t-75 -451.5zM1888 807q0 232 -74 452.5t-212 413.5h-150q127 -197 197.5 -422.5t70.5 -443.5q0 -219 -70.5 -445t-197.5 -421h150q286 399 286 866z" />
    <glyph glyph-name="_840" unicode="&#x2481;" 
d="M778 260v1094h-155l-256 -133v-197l215 111v-875h196zM1085 649l168 330v-330h-168zM1552 649h-104v699h-197l-374 -719v-152h376v-223h195v223h104v172zM76 807q0 -463 289 -866h149q-128 195 -199 420.5t-71 445.5q0 218 71 444t199 422h-149q-139 -194 -214 -414.5
t-75 -451.5zM1888 807q0 232 -74 452.5t-212 413.5h-150q127 -197 197.5 -422.5t70.5 -443.5q0 -219 -70.5 -445t-197.5 -421h150q286 399 286 866z" />
    <glyph glyph-name="_841" unicode="&#x2482;" 
d="M778 260v1094h-155l-256 -133v-197l215 111v-875h196zM1217 809q60 0 91 -51t31 -148q0 -99 -31.5 -149.5t-90.5 -50.5q-52 0 -84 43.5t-39 128.5h-197q12 -161 96 -252.5t224 -91.5q148 0 233.5 97.5t85.5 270.5q0 181 -79.5 277t-211.5 96q-60 0 -117 -31l13 230h346
v170h-533l-22 -627h184q37 88 101 88zM76 807q0 -463 289 -866h149q-128 195 -199 420.5t-71 445.5q0 218 71 444t199 422h-149q-139 -194 -214 -414.5t-75 -451.5zM1888 807q0 232 -74 452.5t-212 413.5h-150q127 -197 197.5 -422.5t70.5 -443.5q0 -219 -70.5 -445
t-197.5 -421h150q286 399 286 866z" />
    <glyph glyph-name="_9042" unicode="&#x2483;" 
d="M778 260h-196v875l-215 -111v197l256 133h155v-1094zM1229 1202q-60 0 -89.5 -61.5t-37.5 -196.5q59 43 143 43q136 0 219.5 -100.5t83.5 -270.5q0 -169 -89.5 -269.5t-231.5 -100.5q-161 0 -244.5 121.5t-83.5 384.5q0 336 76 478t254 142q126 0 206 -78.5t95 -226.5
h-199q-7 66 -33.5 100.5t-68.5 34.5zM1096 616q0 -94 35 -147t94 -53q60 0 94.5 52.5t34.5 147.5t-34.5 147t-94.5 52q-59 0 -94 -52.5t-35 -146.5zM76 807q0 231 75 451.5t214 414.5h149q-128 -196 -199 -422t-71 -444q0 -220 71 -445.5t199 -420.5h-149q-289 403 -289 866
zM1888 807q0 -467 -286 -866h-150q127 195 197.5 421t70.5 445q0 218 -70.5 443.5t-197.5 422.5h150q138 -193 212 -413.5t74 -452.5z" />
    <glyph glyph-name="_9043" unicode="&#x2484;" 
d="M780 256h-196v874l-215 -110v197l256 133h155v-1094zM915 1165v170h623v-137l-313 -954h-203l311 921h-418zM76 807q0 231 75 451.5t214 414.5h149q-128 -196 -199 -422t-71 -444q0 -220 71 -445.5t199 -420.5h-149q-289 403 -289 866zM1888 807q0 -467 -286 -866h-150
q127 195 197.5 421t70.5 445q0 218 -70.5 443.5t-197.5 422.5h150q138 -193 212 -413.5t74 -452.5z" />
    <glyph glyph-name="_9044" unicode="&#x2485;" 
d="M778 260h-196v875l-215 -111v197l256 133h155v-1094zM1219 246q-152 0 -246 90t-94 242q0 90 39 158t108 106q-56 36 -88.5 98.5t-32.5 136.5q0 130 85 213.5t229 83.5q143 0 227 -83.5t84 -213.5q0 -75 -31.5 -137.5t-87.5 -97.5q145 -76 145 -264q0 -152 -93 -242
t-244 -90zM1219 1202q-54 0 -86.5 -38t-32.5 -101q0 -62 32.5 -99.5t86.5 -37.5q52 0 84 37.5t32 99.5q0 63 -31.5 101t-84.5 38zM1219 758q-65 0 -105.5 -46.5t-40.5 -123.5q0 -78 40.5 -124t105.5 -46q64 0 103.5 46t39.5 124q0 77 -39.5 123.5t-103.5 46.5zM76 807
q0 231 75 451.5t214 414.5h149q-128 -196 -199 -422t-71 -444q0 -220 71 -445.5t199 -420.5h-149q-289 403 -289 866zM1888 807q0 -467 -286 -866h-150q127 195 197.5 421t70.5 445q0 218 -70.5 443.5t-197.5 422.5h150q138 -193 212 -413.5t74 -452.5z" />
    <glyph glyph-name="_9045" unicode="&#x2486;" 
d="M778 260h-196v875l-215 -111v197l256 133h155v-1094zM1221 418q57 0 86.5 62t38.5 196q-59 -41 -144 -41q-137 0 -221 99.5t-84 269.5t91 271t233 101q168 0 246.5 -127t78.5 -379q0 -339 -76.5 -480.5t-250.5 -141.5q-128 0 -207.5 78.5t-96.5 228.5h199
q18 -137 107 -137zM1350 1004q0 94 -34 147t-93 53q-60 0 -94.5 -52.5t-34.5 -147.5q0 -93 34.5 -146t94.5 -53q59 0 93 53t34 146zM76 807q0 231 75 451.5t214 414.5h149q-128 -196 -199 -422t-71 -444q0 -220 71 -445.5t199 -420.5h-149q-289 403 -289 866zM1888 807
q0 -467 -286 -866h-150q127 195 197.5 421t70.5 445q0 218 -70.5 443.5t-197.5 422.5h150q138 -193 212 -413.5t74 -452.5z" />
    <glyph glyph-name="_9046" unicode="&#x2487;" 
d="M942 1044q0 -73 -19.5 -132t-66.5 -130l-227 -340h325v-172h-563v142l314 473q51 77 51 159q0 74 -26 119t-71 45q-44 0 -69 -45t-25 -119v-53h-186v53q0 144 75 240t205 96q132 0 207.5 -96t75.5 -240zM1192 809q0 -154 11 -243t44 -124q21 -24 60 -24q36 0 57 24
q34 35 45.5 123.5t11.5 243.5q0 156 -11.5 244t-45.5 125q-21 24 -57 24q-39 0 -60 -24q-33 -37 -44 -125.5t-11 -243.5zM1006 809q0 209 35 336.5t112 183.5q61 43 154 43q92 0 153 -43q77 -56 111.5 -183.5t34.5 -336.5q0 -208 -35 -336t-111 -182q-60 -45 -153 -45
q-94 0 -154 45q-77 55 -112 182.5t-35 335.5zM76 807q0 231 75 451.5t214 414.5h149q-128 -196 -199 -422t-71 -444q0 -220 71 -445.5t199 -420.5h-149q-289 403 -289 866zM1888 807q0 -467 -286 -866h-150q127 195 197.5 421t70.5 445q0 218 -70.5 443.5t-197.5 422.5h150
q138 -193 212 -413.5t74 -452.5z" />
    <glyph glyph-name="_801" unicode="&#x249c;" 
d="M1147 383h211q-27 75 -27 131v410q0 149 -89.5 235t-264.5 86q-161 0 -251.5 -78.5t-102.5 -214.5h208q16 121 146 121q74 0 111.5 -38.5t37.5 -110.5v-68q-75 59 -206 59q-152 0 -239 -73t-87 -203q0 -131 87.5 -204t238.5 -73q137 0 213 66q2 -17 14 -45zM965 526
q-162 0 -162 113t162 113q79 0 120 -29.5t41 -83.5t-41 -83.5t-120 -29.5zM76 807q0 -463 289 -866h149q-128 195 -199 420.5t-71 445.5q0 218 71 444t199 422h-149q-139 -194 -214 -414.5t-75 -451.5zM1888 807q0 232 -74 452.5t-212 413.5h-150q127 -197 197.5 -422.5
t70.5 -443.5q0 -219 -70.5 -445t-197.5 -421h150q286 399 286 866z" />
    <glyph glyph-name="_802" unicode="&#x249d;" 
d="M870 1430h-206v-1166h206v62q80 -80 209 -80q164 0 254 110.5t90 329.5t-90 329.5t-254 110.5q-130 0 -209 -79v383zM870 686q0 132 40.5 200t133.5 68q173 0 173 -268t-173 -268q-93 0 -133.5 68t-40.5 200zM76 807q0 -463 289 -866h149q-128 195 -199 420.5t-71 445.5
q0 218 71 444t199 422h-149q-139 -194 -214 -414.5t-75 -451.5zM1888 807q0 232 -74 452.5t-212 413.5h-150q127 -197 197.5 -422.5t70.5 -443.5q0 -219 -70.5 -445t-197.5 -421h150q286 399 286 866z" />
    <glyph glyph-name="_803" unicode="&#x249e;" 
d="M604 803q0 -212 95.5 -326.5t283.5 -114.5q161 0 257.5 85.5t111.5 240.5h-207q-9 -73 -50.5 -113t-111.5 -40q-92 0 -132 68t-40 200t40 200t132 68q70 0 111.5 -39.5t50.5 -111.5h207q-15 154 -111.5 238.5t-257.5 84.5q-188 0 -283.5 -113.5t-95.5 -326.5zM76 807
q0 -463 289 -866h149q-128 195 -199 420.5t-71 445.5q0 218 71 444t199 422h-149q-139 -194 -214 -414.5t-75 -451.5zM1888 807q0 232 -74 452.5t-212 413.5h-150q127 -197 197.5 -422.5t70.5 -443.5q0 -219 -70.5 -445t-197.5 -421h150q286 399 286 866z" />
    <glyph glyph-name="_804" unicode="&#x249f;" 
d="M1092 1055q-80 80 -207 80q-165 0 -255.5 -110.5t-90.5 -330.5t90.5 -330t255.5 -110q127 0 207 80v-62h206v1166h-206v-383zM1092 694q0 -132 -40 -200t-132 -68q-93 0 -134 68t-41 200t41 200.5t134 68.5q92 0 132 -68.5t40 -200.5zM76 807q0 -463 289 -866h149
q-128 195 -199 420.5t-71 445.5q0 218 71 444t199 422h-149q-139 -194 -214 -414.5t-75 -451.5zM1888 807q0 232 -74 452.5t-212 413.5h-150q127 -197 197.5 -422.5t70.5 -443.5q0 -219 -70.5 -445t-197.5 -421h150q286 399 286 866z" />
    <glyph glyph-name="_805" unicode="&#x24a0;" 
d="M1137 668q-11 -62 -52 -97.5t-102 -35.5q-161 0 -174 202h551v68q0 214 -95 327t-284 113q-188 0 -283.5 -113.5t-95.5 -326.5q0 -214 95.5 -327t285.5 -113q151 0 245 78.5t120 224.5h-211zM811 893q19 184 170 184t170 -184h-340zM76 807q0 -463 289 -866h149
q-128 195 -199 420.5t-71 445.5q0 218 71 444t199 422h-149q-139 -194 -214 -414.5t-75 -451.5zM1888 807q0 232 -74 452.5t-212 413.5h-150q127 -197 197.5 -422.5t70.5 -443.5q0 -219 -70.5 -445t-197.5 -421h150q286 399 286 866z" />
    <glyph glyph-name="_806" unicode="&#x24a1;" 
d="M1233 1214v160q-59 12 -123 12q-155 0 -222 -59.5t-67 -200.5v-71h-116v-172h116v-672h207v672h205v172h-205v63q0 53 22 74.5t80 21.5h103zM76 807q0 -463 289 -866h149q-128 195 -199 420.5t-71 445.5q0 218 71 444t199 422h-149q-139 -194 -214 -414.5t-75 -451.5z
M1888 807q0 232 -74 452.5t-212 413.5h-150q127 -197 197.5 -422.5t70.5 -443.5q0 -219 -70.5 -445t-197.5 -421h150q286 399 286 866z" />
    <glyph glyph-name="_807" unicode="&#x24a2;" 
d="M1137 514q0 -88 -40 -135t-116 -47q-62 0 -101 32t-46 91h-211q17 -135 110.5 -211t245.5 -76q182 0 273 98.5t91 259.5v856h-206v-61q-80 80 -207 80q-165 0 -255.5 -110t-90.5 -330t90.5 -331.5t255.5 -111.5q131 0 207 82v-86zM1137 961q0 -133 -40 -202t-132 -69
q-93 0 -133.5 68.5t-40.5 202.5q0 131 40.5 199.5t133.5 68.5q92 0 132 -68.5t40 -199.5zM76 807q0 -463 289 -866h149q-128 195 -199 420.5t-71 445.5q0 218 71 444t199 422h-149q-139 -194 -214 -414.5t-75 -451.5zM1888 807q0 232 -74 452.5t-212 413.5h-150
q127 -197 197.5 -422.5t70.5 -443.5q0 -219 -70.5 -445t-197.5 -421h150q286 399 286 866z" />
    <glyph glyph-name="_808" unicode="&#x24a3;" 
d="M1384 776q0 163 -77.5 250.5t-223.5 87.5q-144 0 -217 -88v391h-207v-1165h207v453q0 112 49.5 174.5t128.5 62.5q67 0 100.5 -43.5t33.5 -138.5v-508h206v524zM76 807q0 -463 289 -866h149q-128 195 -199 420.5t-71 445.5q0 218 71 444t199 422h-149
q-139 -194 -214 -414.5t-75 -451.5zM1888 807q0 232 -74 452.5t-212 413.5h-150q127 -197 197.5 -422.5t70.5 -443.5q0 -219 -70.5 -445t-197.5 -421h150q286 399 286 866z" />
    <glyph glyph-name="_809" unicode="&#x24a4;" 
d="M1085 231v844h-208v-844h208zM1085 1184v211h-208v-211h208zM76 807q0 -463 289 -866h149q-128 195 -199 420.5t-71 445.5q0 218 71 444t199 422h-149q-139 -194 -214 -414.5t-75 -451.5zM1888 807q0 232 -74 452.5t-212 413.5h-150q127 -197 197.5 -422.5t70.5 -443.5
q0 -219 -70.5 -445t-197.5 -421h150q286 399 286 866z" />
    <glyph glyph-name="_810" unicode="&#x24a5;" 
d="M1135 1163h-209v-770q0 -50 -20 -73t-62 -23h-78v-166q38 -6 94 -6q134 0 204.5 66t70.5 196v776zM1135 1272v213h-209v-213h209zM76 807q0 -463 289 -866h149q-128 195 -199 420.5t-71 445.5q0 218 71 444t199 422h-149q-139 -194 -214 -414.5t-75 -451.5zM1888 807
q0 232 -74 452.5t-212 413.5h-150q127 -197 197.5 -422.5t70.5 -443.5q0 -219 -70.5 -445t-197.5 -421h150q286 399 286 866z" />
    <glyph glyph-name="_811" unicode="&#x24a6;" 
d="M901 264v357h41l252 -357h240l-318 441l279 403h-232l-221 -322h-41v644h-207v-1166h207zM76 807q0 -463 289 -866h149q-128 195 -199 420.5t-71 445.5q0 218 71 444t199 422h-149q-139 -194 -214 -414.5t-75 -451.5zM1888 807q0 232 -74 452.5t-212 413.5h-150
q127 -197 197.5 -422.5t70.5 -443.5q0 -219 -70.5 -445t-197.5 -421h150q286 399 286 866z" />
    <glyph glyph-name="_812" unicode="&#x24a7;" 
d="M1094 221v1163h-209v-1163h209zM76 807q0 -463 289 -866h149q-128 195 -199 420.5t-71 445.5q0 218 71 444t199 422h-149q-139 -194 -214 -414.5t-75 -451.5zM1888 807q0 232 -74 452.5t-212 413.5h-150q127 -197 197.5 -422.5t70.5 -443.5q0 -219 -70.5 -445
t-197.5 -421h150q286 399 286 866z" />
    <glyph glyph-name="_813" unicode="&#x24a8;" 
d="M1096 831q0 114 43.5 177t115.5 63q117 0 117 -151v-539h207v534q0 158 -73.5 243t-211.5 85q-160 0 -245 -131q-69 131 -238 131q-131 0 -201 -86v68h-207v-844h207v450q0 115 43.5 177.5t116.5 62.5q119 0 119 -151v-539h207v450zM76 807q0 -463 289 -866h149
q-128 195 -199 420.5t-71 445.5q0 218 71 444t199 422h-149q-139 -194 -214 -414.5t-75 -451.5zM1888 807q0 232 -74 452.5t-212 413.5h-150q127 -197 197.5 -422.5t70.5 -443.5q0 -219 -70.5 -445t-197.5 -421h150q286 399 286 866z" />
    <glyph glyph-name="_814" unicode="&#x24a9;" 
d="M1352 905q0 163 -77 250.5t-222 87.5q-143 0 -219 -88v70h-207v-844h207v453q0 112 49.5 174.5t128.5 62.5q67 0 101 -43.5t34 -138.5v-508h205v524zM76 807q0 -463 289 -866h149q-128 195 -199 420.5t-71 445.5q0 218 71 444t199 422h-149q-139 -194 -214 -414.5
t-75 -451.5zM1888 807q0 232 -74 452.5t-212 413.5h-150q127 -197 197.5 -422.5t70.5 -443.5q0 -219 -70.5 -445t-197.5 -421h150q286 399 286 866z" />
    <glyph glyph-name="_815" unicode="&#x24aa;" 
d="M1362 807q0 213 -95 326.5t-284 113.5q-188 0 -283.5 -114t-95.5 -326q0 -214 95.5 -328t283.5 -114q189 0 284 114t95 328zM811 807q0 131 40 199.5t132 68.5q93 0 132.5 -68t39.5 -200q0 -134 -39.5 -202t-132.5 -68q-92 0 -132 68.5t-40 201.5zM76 807
q0 -463 289 -866h149q-128 195 -199 420.5t-71 445.5q0 218 71 444t199 422h-149q-139 -194 -214 -414.5t-75 -451.5zM1888 807q0 232 -74 452.5t-212 413.5h-150q127 -197 197.5 -422.5t70.5 -443.5q0 -219 -70.5 -445t-197.5 -421h150q286 399 286 866z" />
    <glyph glyph-name="_816" unicode="&#x24ab;" 
d="M866 575q75 -81 207 -81q165 0 255.5 111t90.5 331t-90.5 330t-255.5 110q-127 0 -207 -80v62h-207v-1192h207v409zM866 936q0 131 40 199.5t132 68.5q174 0 174 -268q0 -133 -41 -201.5t-133 -68.5t-132 68.5t-40 201.5zM76 807q0 -463 289 -866h149
q-128 195 -199 420.5t-71 445.5q0 218 71 444t199 422h-149q-139 -194 -214 -414.5t-75 -451.5zM1888 807q0 232 -74 452.5t-212 413.5h-150q127 -197 197.5 -422.5t70.5 -443.5q0 -219 -70.5 -445t-197.5 -421h150q286 399 286 866z" />
    <glyph glyph-name="_817" unicode="&#x24ac;" 
d="M1094 166h206v1192h-206v-62q-80 80 -207 80q-165 0 -255.5 -110t-90.5 -330t90.5 -331t255.5 -111q132 0 207 81v-409zM1094 936q0 -133 -40 -201.5t-132 -68.5q-93 0 -133.5 68.5t-40.5 201.5q0 131 40.5 199.5t133.5 68.5q92 0 132 -68.5t40 -199.5zM76 807
q0 -463 289 -866h149q-128 195 -199 420.5t-71 445.5q0 218 71 444t199 422h-149q-139 -194 -214 -414.5t-75 -451.5zM1888 807q0 232 -74 452.5t-212 413.5h-150q127 -197 197.5 -422.5t70.5 -443.5q0 -219 -70.5 -445t-197.5 -421h150q286 399 286 866z" />
    <glyph glyph-name="_818" unicode="&#x24ad;" 
d="M1169 1051q45 0 88 -7l3 168q-40 13 -86 13q-131 0 -199 -84v65h-207v-844h207v433q0 126 51 191t143 65zM76 807q0 -463 289 -866h149q-128 195 -199 420.5t-71 445.5q0 218 71 444t199 422h-149q-139 -194 -214 -414.5t-75 -451.5zM1888 807q0 232 -74 452.5
t-212 413.5h-150q127 -197 197.5 -422.5t70.5 -443.5q0 -219 -70.5 -445t-197.5 -421h150q286 399 286 866z" />
    <glyph glyph-name="_819" unicode="&#x24ae;" 
d="M979 1245q-150 0 -237 -71.5t-87 -184.5q0 -53 14.5 -91t40 -65t73.5 -48t100.5 -35t136.5 -31q108 -21 108 -94q0 -38 -40.5 -66.5t-94.5 -28.5q-59 0 -97 26.5t-38 70.5v43h-207v-43q0 -116 93 -189t249 -73q154 0 248 74t94 188q0 130 -81 191t-277 89
q-61 14 -88 33.5t-27 54.5t31.5 59.5t85.5 24.5t86.5 -26.5t32.5 -59.5v-39h207v37q0 114 -87 184t-239 70zM76 807q0 -463 289 -866h149q-128 195 -199 420.5t-71 445.5q0 218 71 444t199 422h-149q-139 -194 -214 -414.5t-75 -451.5zM1888 807q0 232 -74 452.5t-212 413.5
h-150q127 -197 197.5 -422.5t70.5 -443.5q0 -219 -70.5 -445t-197.5 -421h150q286 399 286 866z" />
    <glyph glyph-name="_820" unicode="&#x24af;" 
d="M1018 969h221v172h-221v225h-207v-225h-117v-172h117v-432q0 -140 68.5 -196t226.5 -56q90 0 133 6v166h-104q-66 0 -91.5 21t-25.5 83v408zM76 807q0 -463 289 -866h149q-128 195 -199 420.5t-71 445.5q0 218 71 444t199 422h-149q-139 -194 -214 -414.5t-75 -451.5z
M1888 807q0 232 -74 452.5t-212 413.5h-150q127 -197 197.5 -422.5t70.5 -443.5q0 -219 -70.5 -445t-197.5 -421h150q286 399 286 866z" />
    <glyph glyph-name="_821" unicode="&#x24b0;" 
d="M600 688q0 -164 77 -252t222 -88q142 0 219 90v-71h207v843h-207v-452q0 -111 -49.5 -174.5t-128.5 -63.5q-67 0 -101 44.5t-34 140.5v505h-205v-522zM76 807q0 -463 289 -866h149q-128 195 -199 420.5t-71 445.5q0 218 71 444t199 422h-149q-139 -194 -214 -414.5
t-75 -451.5zM1888 807q0 232 -74 452.5t-212 413.5h-150q127 -197 197.5 -422.5t70.5 -443.5q0 -219 -70.5 -445t-197.5 -421h150q286 399 286 866z" />
    <glyph glyph-name="_822" unicode="&#x24b1;" 
d="M1077 340l312 844h-215l-203 -582l-203 582h-215l309 -844h215zM76 807q0 -463 289 -866h149q-128 195 -199 420.5t-71 445.5q0 218 71 444t199 422h-149q-139 -194 -214 -414.5t-75 -451.5zM1888 807q0 232 -74 452.5t-212 413.5h-150q127 -197 197.5 -422.5
t70.5 -443.5q0 -219 -70.5 -445t-197.5 -421h150q286 399 286 866z" />
    <glyph glyph-name="_823" unicode="&#x24b2;" 
d="M883 1200l-172 -557l-168 557h-213l276 -844h203l170 553l172 -553h203l274 844h-211l-168 -555l-174 555h-192zM76 807q0 -463 289 -866h149q-128 195 -199 420.5t-71 445.5q0 218 71 444t199 422h-149q-139 -194 -214 -414.5t-75 -451.5zM1888 807q0 232 -74 452.5
t-212 413.5h-150q127 -197 197.5 -422.5t70.5 -443.5q0 -219 -70.5 -445t-197.5 -421h150q286 399 286 866z" />
    <glyph glyph-name="_824" unicode="&#x24b3;" 
d="M1393 373l-285 430l270 414h-229l-164 -263l-166 263h-227l268 -412l-285 -432h226l184 282l180 -282h228zM76 807q0 -463 289 -866h149q-128 195 -199 420.5t-71 445.5q0 218 71 444t199 422h-149q-139 -194 -214 -414.5t-75 -451.5zM1888 807q0 232 -74 452.5
t-212 413.5h-150q127 -197 197.5 -422.5t70.5 -443.5q0 -219 -70.5 -445t-197.5 -421h150q286 399 286 866z" />
    <glyph glyph-name="_825" unicode="&#x24b4;" 
d="M850 367q-16 -43 -38.5 -59.5t-55.5 -16.5h-76v-166q37 -6 92 -6q102 0 164.5 42t103.5 152l375 998h-217l-201 -570l-204 570h-215l315 -824zM76 807q0 -463 289 -866h149q-128 195 -199 420.5t-71 445.5q0 218 71 444t199 422h-149q-139 -194 -214 -414.5t-75 -451.5z
M1888 807q0 232 -74 452.5t-212 413.5h-150q127 -197 197.5 -422.5t70.5 -443.5q0 -219 -70.5 -445t-197.5 -421h150q286 399 286 866z" />
    <glyph glyph-name="_826" unicode="&#x24b5;" 
d="M1296 1227h-634v-172h370l-383 -531v-141h660v170h-396l383 530v144zM76 807q0 -463 289 -866h149q-128 195 -199 420.5t-71 445.5q0 218 71 444t199 422h-149q-139 -194 -214 -414.5t-75 -451.5zM1888 807q0 232 -74 452.5t-212 413.5h-150q127 -197 197.5 -422.5
t70.5 -443.5q0 -219 -70.5 -445t-197.5 -421h150q286 399 286 866z" />
    <glyph glyph-name="_8388" unicode="&#x24b6;" 
d="M985 1679q179 0 343.5 -70.5t283.5 -189.5t189.5 -283t70.5 -343q0 -239 -119.5 -443.5t-324 -324t-443.5 -119.5q-181 0 -346 70.5t-284.5 189.5t-190 283.5t-70.5 343.5t70.5 343t190 283t284.5 189.5t346 70.5zM985 1599q-164 0 -313 -64t-256.5 -172t-171.5 -257
t-64 -313q0 -218 108 -404t293.5 -294.5t403.5 -108.5q162 0 310.5 64t255.5 172.5t171 258t64 312.5t-64 312.5t-171 257.5t-255.5 172t-310.5 64zM909 1356h144l401 -1047h-143l-101 273h-460l-99 -273h-143zM981 1219l-190 -523h380z" />
    <glyph glyph-name="_8389" unicode="&#x24b7;" 
d="M985 1679q179 0 343.5 -70.5t283.5 -189.5t189.5 -283t70.5 -343q0 -239 -119.5 -443.5t-324 -324t-443.5 -119.5q-181 0 -346 70.5t-284.5 189.5t-190 283.5t-70.5 343.5t70.5 343t190 283t284.5 189.5t346 70.5zM985 1599q-164 0 -313 -64t-256.5 -172t-171.5 -257
t-64 -313q0 -218 108 -404t293.5 -294.5t403.5 -108.5q162 0 310.5 64t255.5 172.5t171 258t64 312.5t-64 312.5t-171 257.5t-255.5 172t-310.5 64zM659 289v1046h359q162 0 253 -76.5t91 -199.5q0 -70 -35.5 -127t-95.5 -86q88 -32 136 -99.5t48 -156.5
q0 -142 -98.5 -221.5t-276.5 -79.5h-381zM791 891h208q111 0 171.5 44.5t60.5 123.5q0 160 -232 160h-208v-328zM1284 590q0 89 -66 136.5t-198 47.5h-229v-368h229q264 0 264 184z" />
    <glyph glyph-name="_8390" unicode="&#x24b8;" 
d="M985 1679q179 0 343.5 -70.5t283.5 -189.5t189.5 -283t70.5 -343q0 -239 -119.5 -443.5t-324 -324t-443.5 -119.5q-181 0 -346 70.5t-284.5 189.5t-190 283.5t-70.5 343.5t70.5 343t190 283t284.5 189.5t346 70.5zM985 1599q-164 0 -313 -64t-256.5 -172t-171.5 -257
t-64 -313q0 -218 108 -404t293.5 -294.5t403.5 -108.5q162 0 310.5 64t255.5 172.5t171 258t64 312.5t-64 312.5t-171 257.5t-255.5 172t-310.5 64zM526 813q0 238 147.5 389.5t389.5 151.5q136 0 244 -43l-13 -133q-99 57 -221 57q-192 0 -301.5 -118t-109.5 -304
q0 -193 111.5 -307.5t301.5 -114.5q121 0 223 60l15 -134q-98 -45 -242 -45q-249 0 -397 148.5t-148 392.5z" />
    <glyph glyph-name="_8391" unicode="&#x24b9;" 
d="M985 1679q179 0 343.5 -70.5t283.5 -189.5t189.5 -283t70.5 -343q0 -239 -119.5 -443.5t-324 -324t-443.5 -119.5q-181 0 -346 70.5t-284.5 189.5t-190 283.5t-70.5 343.5t70.5 343t190 283t284.5 189.5t346 70.5zM985 1599q-164 0 -313 -64t-256.5 -172t-171.5 -257
t-64 -313q0 -218 108 -404t293.5 -294.5t403.5 -108.5q162 0 310.5 64t255.5 172.5t171 258t64 312.5t-64 312.5t-171 257.5t-255.5 172t-310.5 64zM1346 813q0 406 -449 406h-115v-813h115q449 0 449 407zM1481 813q0 -128 -42.5 -228.5t-118.5 -164.5t-178 -97.5
t-224 -33.5h-267v1046h267q122 0 224 -33t178 -97t118.5 -164t42.5 -228z" />
    <glyph glyph-name="_8392" unicode="&#x24ba;" 
d="M985 1679q179 0 343.5 -70.5t283.5 -189.5t189.5 -283t70.5 -343q0 -239 -119.5 -443.5t-324 -324t-443.5 -119.5q-181 0 -346 70.5t-284.5 189.5t-190 283.5t-70.5 343.5t70.5 343t190 283t284.5 189.5t346 70.5zM985 1599q-164 0 -313 -64t-256.5 -172t-171.5 -257
t-64 -313q0 -218 108 -404t293.5 -294.5t403.5 -108.5q162 0 310.5 64t255.5 172.5t171 258t64 312.5t-64 312.5t-171 257.5t-255.5 172t-310.5 64zM662 289v1046h653v-116h-522v-332h483v-117h-483v-364h534v-117h-665z" />
    <glyph glyph-name="_8393" unicode="&#x24bb;" 
d="M985 1679q179 0 343.5 -70.5t283.5 -189.5t189.5 -283t70.5 -343q0 -239 -119.5 -443.5t-324 -324t-443.5 -119.5q-181 0 -346 70.5t-284.5 189.5t-190 283.5t-70.5 343.5t70.5 343t190 283t284.5 189.5t346 70.5zM985 1599q-164 0 -313 -64t-256.5 -172t-171.5 -257
t-64 -313q0 -218 108 -404t293.5 -294.5t403.5 -108.5q162 0 310.5 64t255.5 172.5t171 258t64 312.5t-64 312.5t-171 257.5t-255.5 172t-310.5 64zM698 289v1046h648v-116h-519v-326h484v-119h-484v-485h-129z" />
    <glyph glyph-name="_8394" unicode="&#x24bc;" 
d="M985 1679q179 0 343.5 -70.5t283.5 -189.5t189.5 -283t70.5 -343q0 -239 -119.5 -443.5t-324 -324t-443.5 -119.5q-181 0 -346 70.5t-284.5 189.5t-190 283.5t-70.5 343.5t70.5 343t190 283t284.5 189.5t346 70.5zM985 1599q-164 0 -313 -64t-256.5 -172t-171.5 -257
t-64 -313q0 -218 108 -404t293.5 -294.5t403.5 -108.5q162 0 310.5 64t255.5 172.5t171 258t64 312.5t-64 312.5t-171 257.5t-255.5 172t-310.5 64zM465 813q0 153 66 275t192 194t291 72q179 0 309 -54l-12 -131q-139 66 -289 66q-192 0 -308 -118t-116 -304
q0 -191 117 -306.5t325 -115.5q103 0 172 27v330h-284v116h415v-534q-140 -58 -315 -58q-255 0 -409 151t-154 390z" />
    <glyph glyph-name="_8395" unicode="&#x24bd;" 
d="M985 1679q179 0 343.5 -70.5t283.5 -189.5t189.5 -283t70.5 -343q0 -239 -119.5 -443.5t-324 -324t-443.5 -119.5q-181 0 -346 70.5t-284.5 189.5t-190 283.5t-70.5 343.5t70.5 343t190 283t284.5 189.5t346 70.5zM985 1599q-164 0 -313 -64t-256.5 -172t-171.5 -257
t-64 -313q0 -218 108 -404t293.5 -294.5t403.5 -108.5q162 0 310.5 64t255.5 172.5t171 258t64 312.5t-64 312.5t-171 257.5t-255.5 172t-310.5 64zM575 289v1046h132v-432h546v432h133v-1046h-133v497h-546v-497h-132z" />
    <glyph glyph-name="_8396" unicode="&#x24be;" 
d="M985 1679q179 0 343.5 -70.5t283.5 -189.5t189.5 -283t70.5 -343q0 -239 -119.5 -443.5t-324 -324t-443.5 -119.5q-181 0 -346 70.5t-284.5 189.5t-190 283.5t-70.5 343.5t70.5 343t190 283t284.5 189.5t346 70.5zM985 1599q-164 0 -313 -64t-256.5 -172t-171.5 -257
t-64 -313q0 -218 108 -404t293.5 -294.5t403.5 -108.5q162 0 310.5 64t255.5 172.5t171 258t64 312.5t-64 312.5t-171 257.5t-255.5 172t-310.5 64zM915 1335h132v-1046h-132v1046z" />
    <glyph glyph-name="_8397" unicode="&#x24bf;" 
d="M985 1679q179 0 343.5 -70.5t283.5 -189.5t189.5 -283t70.5 -343q0 -239 -119.5 -443.5t-324 -324t-443.5 -119.5q-181 0 -346 70.5t-284.5 189.5t-190 283.5t-70.5 343.5t70.5 343t190 283t284.5 189.5t346 70.5zM985 1599q-164 0 -313 -64t-256.5 -172t-171.5 -257
t-64 -313q0 -218 108 -404t293.5 -294.5t403.5 -108.5q162 0 310.5 64t255.5 172.5t171 258t64 312.5t-64 312.5t-171 257.5t-255.5 172t-310.5 64zM1114 627v704h131v-704q0 -357 -311 -357q-132 0 -219 43l10 131q82 -55 205 -55q184 0 184 238z" />
    <glyph glyph-name="_8398" unicode="&#x24c0;" 
d="M985 1679q179 0 343.5 -70.5t283.5 -189.5t189.5 -283t70.5 -343q0 -239 -119.5 -443.5t-324 -324t-443.5 -119.5q-181 0 -346 70.5t-284.5 189.5t-190 283.5t-70.5 343.5t70.5 343t190 283t284.5 189.5t346 70.5zM985 1599q-164 0 -313 -64t-256.5 -172t-171.5 -257
t-64 -313q0 -218 108 -404t293.5 -294.5t403.5 -108.5q162 0 310.5 64t255.5 172.5t171 258t64 312.5t-64 312.5t-171 257.5t-255.5 172t-310.5 64zM1212 1335h164l-469 -489l541 -557h-176l-504 532v-532h-131v1046h131v-463z" />
    <glyph glyph-name="_8399" unicode="&#x24c1;" 
d="M985 1679q179 0 343.5 -70.5t283.5 -189.5t189.5 -283t70.5 -343q0 -239 -119.5 -443.5t-324 -324t-443.5 -119.5q-181 0 -346 70.5t-284.5 189.5t-190 283.5t-70.5 343.5t70.5 343t190 283t284.5 189.5t346 70.5zM985 1599q-164 0 -313 -64t-256.5 -172t-171.5 -257
t-64 -313q0 -218 108 -404t293.5 -294.5t403.5 -108.5q162 0 310.5 64t255.5 172.5t171 258t64 312.5t-64 312.5t-171 257.5t-255.5 172t-310.5 64zM674 289v1046h131v-929h563v-117h-694z" />
    <glyph glyph-name="_8400" unicode="&#x24c2;" 
d="M985 1679q179 0 343.5 -70.5t283.5 -189.5t189.5 -283t70.5 -343q0 -239 -119.5 -443.5t-324 -324t-443.5 -119.5q-181 0 -346 70.5t-284.5 189.5t-190 283.5t-70.5 343.5t70.5 343t190 283t284.5 189.5t346 70.5zM985 1599q-164 0 -313 -64t-256.5 -172t-171.5 -257
t-64 -313q0 -218 108 -404t293.5 -294.5t403.5 -108.5q162 0 310.5 64t255.5 172.5t171 258t64 312.5t-64 312.5t-171 257.5t-255.5 172t-310.5 64zM1036 637h-110l-332 508v-856h-125v1046h139l373 -575l373 575h139v-1046h-125v856z" />
    <glyph glyph-name="_8401" unicode="&#x24c3;" 
d="M985 1679q179 0 343.5 -70.5t283.5 -189.5t189.5 -283t70.5 -343q0 -239 -119.5 -443.5t-324 -324t-443.5 -119.5q-181 0 -346 70.5t-284.5 189.5t-190 283.5t-70.5 343.5t70.5 343t190 283t284.5 189.5t346 70.5zM985 1599q-164 0 -313 -64t-256.5 -172t-171.5 -257
t-64 -313q0 -218 108 -404t293.5 -294.5t403.5 -108.5q162 0 310.5 64t255.5 172.5t171 258t64 312.5t-64 312.5t-171 257.5t-255.5 172t-310.5 64zM571 289v1046h158l537 -882v882h125v-1046h-158l-537 882v-882h-125z" />
    <glyph glyph-name="_8402" unicode="&#x24c4;" 
d="M985 1679q179 0 343.5 -70.5t283.5 -189.5t189.5 -283t70.5 -343q0 -239 -119.5 -443.5t-324 -324t-443.5 -119.5q-181 0 -346 70.5t-284.5 189.5t-190 283.5t-70.5 343.5t70.5 343t190 283t284.5 189.5t346 70.5zM985 1599q-164 0 -313 -64t-256.5 -172t-171.5 -257
t-64 -313q0 -218 108 -404t293.5 -294.5t403.5 -108.5q162 0 310.5 64t255.5 172.5t171 258t64 312.5t-64 312.5t-171 257.5t-255.5 172t-310.5 64zM1448 813q0 -154 -54.5 -275.5t-161.5 -193.5t-251 -72q-145 0 -252.5 72t-162 193.5t-54.5 275.5q0 153 54.5 274.5
t162 194t252.5 72.5q215 0 341 -153.5t126 -387.5zM647 813q0 -193 91 -307.5t243 -114.5q151 0 241.5 114.5t90.5 307.5t-90.5 307.5t-241.5 114.5q-152 0 -243 -114.5t-91 -307.5z" />
    <glyph glyph-name="_8403" unicode="&#x24c5;" 
d="M985 1679q179 0 343.5 -70.5t283.5 -189.5t189.5 -283t70.5 -343q0 -239 -119.5 -443.5t-324 -324t-443.5 -119.5q-181 0 -346 70.5t-284.5 189.5t-190 283.5t-70.5 343.5t70.5 343t190 283t284.5 189.5t346 70.5zM985 1599q-164 0 -313 -64t-256.5 -172t-171.5 -257
t-64 -313q0 -218 108 -404t293.5 -294.5t403.5 -108.5q162 0 310.5 64t255.5 172.5t171 258t64 312.5t-64 312.5t-171 257.5t-255.5 172t-310.5 64zM1419 1010q0 -153 -105.5 -238.5t-283.5 -85.5h-192v-397h-133v1046h325q178 0 283.5 -85.5t105.5 -239.5zM1286 1010
q0 107 -65.5 158t-200.5 51h-182v-416h182q136 0 201 50t65 157z" />
    <glyph glyph-name="_8404" unicode="&#x24c6;" 
d="M985 1679q179 0 343.5 -70.5t283.5 -189.5t189.5 -283t70.5 -343q0 -239 -119.5 -443.5t-324 -324t-443.5 -119.5q-181 0 -346 70.5t-284.5 189.5t-190 283.5t-70.5 343.5t70.5 343t190 283t284.5 189.5t346 70.5zM985 1599q-164 0 -313 -64t-256.5 -172t-171.5 -257
t-64 -313q0 -218 108 -404t293.5 -294.5t403.5 -108.5q162 0 310.5 64t255.5 172.5t171 258t64 312.5t-64 312.5t-171 257.5t-255.5 172t-310.5 64zM1436 862q0 -210 -103 -357.5t-282 -176.5q12 -68 61 -95q46 -24 135 -24q61 0 127 16l15 -108q-81 -15 -146 -15
q-127 0 -207 45q-89 59 -110 177q-198 15 -312 165t-114 373q0 153 54.5 274.5t162 194t252.5 72.5q215 0 341 -153.5t126 -387.5zM635 862q0 -193 90.5 -306.5t243.5 -113.5q151 0 241 113.5t90 306.5t-90 306.5t-241 113.5q-153 0 -243.5 -113.5t-90.5 -306.5z" />
    <glyph glyph-name="_8405" unicode="&#x24c7;" 
d="M985 1679q179 0 343.5 -70.5t283.5 -189.5t189.5 -283t70.5 -343q0 -239 -119.5 -443.5t-324 -324t-443.5 -119.5q-181 0 -346 70.5t-284.5 189.5t-190 283.5t-70.5 343.5t70.5 343t190 283t284.5 189.5t346 70.5zM985 1599q-164 0 -313 -64t-256.5 -172t-171.5 -257
t-64 -313q0 -218 108 -404t293.5 -294.5t403.5 -108.5q162 0 310.5 64t255.5 172.5t171 258t64 312.5t-64 312.5t-171 257.5t-255.5 172t-310.5 64zM1393 1030q0 -110 -63 -182t-171 -103l299 -456h-151l-283 438h-225v-438h-133v1046h350q165 0 271 -80t106 -225z
M1257 1030q0 189 -251 189h-207v-377h207q251 0 251 188z" />
    <glyph glyph-name="_8406" unicode="&#x24c8;" 
d="M985 1679q179 0 343.5 -70.5t283.5 -189.5t189.5 -283t70.5 -343q0 -239 -119.5 -443.5t-324 -324t-443.5 -119.5q-181 0 -346 70.5t-284.5 189.5t-190 283.5t-70.5 343.5t70.5 343t190 283t284.5 189.5t346 70.5zM985 1599q-164 0 -313 -64t-256.5 -172t-171.5 -257
t-64 -313q0 -218 108 -404t293.5 -294.5t403.5 -108.5q162 0 310.5 64t255.5 172.5t171 258t64 312.5t-64 312.5t-171 257.5t-255.5 172t-310.5 64zM1260 1307l-11 -131q-102 59 -241 59q-111 0 -167.5 -40t-56.5 -110q0 -63 49.5 -108t159.5 -82q174 -59 250 -135t76 -195
q0 -139 -99 -216t-278 -77q-161 0 -285 70l11 135q124 -86 284 -86q113 0 172.5 43.5t59.5 122.5q0 75 -52 124.5t-176 88.5q-157 52 -232 127t-75 188q0 125 96 197t265 72q141 0 250 -47z" />
    <glyph glyph-name="_8407" unicode="&#x24c9;" 
d="M985 1679q179 0 343.5 -70.5t283.5 -189.5t189.5 -283t70.5 -343q0 -239 -119.5 -443.5t-324 -324t-443.5 -119.5q-181 0 -346 70.5t-284.5 189.5t-190 283.5t-70.5 343.5t70.5 343t190 283t284.5 189.5t346 70.5zM985 1599q-164 0 -313 -64t-256.5 -172t-171.5 -257
t-64 -313q0 -218 108 -404t293.5 -294.5t403.5 -108.5q162 0 310.5 64t255.5 172.5t171 258t64 312.5t-64 312.5t-171 257.5t-255.5 172t-310.5 64zM915 289v930h-325v116h782v-116h-325v-930h-132z" />
    <glyph glyph-name="_8408" unicode="&#x24ca;" 
d="M985 1679q179 0 343.5 -70.5t283.5 -189.5t189.5 -283t70.5 -343q0 -239 -119.5 -443.5t-324 -324t-443.5 -119.5q-181 0 -346 70.5t-284.5 189.5t-190 283.5t-70.5 343.5t70.5 343t190 283t284.5 189.5t346 70.5zM985 1599q-164 0 -313 -64t-256.5 -172t-171.5 -257
t-64 -313q0 -218 108 -404t293.5 -294.5t403.5 -108.5q162 0 310.5 64t255.5 172.5t171 258t64 312.5t-64 312.5t-171 257.5t-255.5 172t-310.5 64zM981 270q-190 0 -303 108t-113 316v637h131v-629q0 -313 285 -313q283 0 283 313v629h131v-637q0 -210 -109.5 -317
t-304.5 -107z" />
    <glyph glyph-name="_8409" unicode="&#x24cb;" 
d="M985 1679q179 0 343.5 -70.5t283.5 -189.5t189.5 -283t70.5 -343q0 -239 -119.5 -443.5t-324 -324t-443.5 -119.5q-181 0 -346 70.5t-284.5 189.5t-190 283.5t-70.5 343.5t70.5 343t190 283t284.5 189.5t346 70.5zM985 1599q-164 0 -313 -64t-256.5 -172t-171.5 -257
t-64 -313q0 -218 108 -404t293.5 -294.5t403.5 -108.5q162 0 310.5 64t255.5 172.5t171 258t64 312.5t-64 312.5t-171 257.5t-255.5 172t-310.5 64zM1053 289h-144l-401 1046h135l338 -891l336 891h137z" />
    <glyph glyph-name="_8410" unicode="&#x24cc;" 
d="M985 1679q179 0 343.5 -70.5t283.5 -189.5t189.5 -283t70.5 -343q0 -239 -119.5 -443.5t-324 -324t-443.5 -119.5q-181 0 -346 70.5t-284.5 189.5t-190 283.5t-70.5 343.5t70.5 343t190 283t284.5 189.5t346 70.5zM985 1599q-164 0 -313 -64t-256.5 -172t-171.5 -257
t-64 -313q0 -218 108 -404t293.5 -294.5t403.5 -108.5q162 0 310.5 64t255.5 172.5t171 258t64 312.5t-64 312.5t-171 257.5t-255.5 172t-310.5 64zM901 1335h160l162 -891l207 891h141l-258 -1046h-178l-154 878l-156 -878h-176l-258 1046h139l209 -891z" />
    <glyph glyph-name="_8411" unicode="&#x24cd;" 
d="M985 1679q179 0 343.5 -70.5t283.5 -189.5t189.5 -283t70.5 -343q0 -239 -119.5 -443.5t-324 -324t-443.5 -119.5q-181 0 -346 70.5t-284.5 189.5t-190 283.5t-70.5 343.5t70.5 343t190 283t284.5 189.5t346 70.5zM985 1599q-164 0 -313 -64t-256.5 -172t-171.5 -257
t-64 -313q0 -218 108 -404t293.5 -294.5t403.5 -108.5q162 0 310.5 64t255.5 172.5t171 258t64 312.5t-64 312.5t-171 257.5t-255.5 172t-310.5 64zM903 821l-383 514h154l307 -415l307 415h154l-383 -514l397 -532h-153l-322 434l-324 -434h-151z" />
    <glyph glyph-name="_8412" unicode="&#x24ce;" 
d="M985 1679q179 0 343.5 -70.5t283.5 -189.5t189.5 -283t70.5 -343q0 -239 -119.5 -443.5t-324 -324t-443.5 -119.5q-181 0 -346 70.5t-284.5 189.5t-190 283.5t-70.5 343.5t70.5 343t190 283t284.5 189.5t346 70.5zM985 1599q-164 0 -313 -64t-256.5 -172t-171.5 -257
t-64 -313q0 -218 108 -404t293.5 -294.5t403.5 -108.5q162 0 310.5 64t255.5 172.5t171 258t64 312.5t-64 312.5t-171 257.5t-255.5 172t-310.5 64zM1446 1335l-399 -630v-416h-132v416l-399 630h154l311 -506l311 506h154z" />
    <glyph glyph-name="_8413" unicode="&#x24cf;" 
d="M985 1679q179 0 343.5 -70.5t283.5 -189.5t189.5 -283t70.5 -343q0 -239 -119.5 -443.5t-324 -324t-443.5 -119.5q-181 0 -346 70.5t-284.5 189.5t-190 283.5t-70.5 343.5t70.5 343t190 283t284.5 189.5t346 70.5zM985 1599q-164 0 -313 -64t-256.5 -172t-171.5 -257
t-64 -313q0 -218 108 -404t293.5 -294.5t403.5 -108.5q162 0 310.5 64t255.5 172.5t171 258t64 312.5t-64 312.5t-171 257.5t-255.5 172t-310.5 64zM606 422l584 797h-561v116h710v-131l-583 -798h600v-117h-750v133z" />
    <glyph glyph-name="_707" unicode="&#x24d0;" 
d="M49 805q0 -258 124 -471t338.5 -335t471.5 -122q192 0 364.5 72t297 195t197.5 295.5t73 365.5q0 259 -124 472.5t-337.5 335.5t-470.5 122q-193 0 -366 -72t-297.5 -195.5t-197.5 -296t-73 -366.5zM207 805q0 164 60 309.5t162.5 250t247 165.5t306.5 61t306.5 -61
t247 -165.5t162.5 -250t60 -309.5t-60 -309.5t-162.5 -250t-247 -165t-306.5 -60.5t-306.5 60.5t-247 165t-162.5 250t-60 309.5zM1147 383h211q-27 75 -27 131v410q0 149 -89.5 235t-264.5 86q-161 0 -251.5 -78.5t-102.5 -214.5h208q16 121 146 121q74 0 111.5 -38.5
t37.5 -110.5v-68q-75 59 -206 59q-152 0 -239 -73t-87 -203q0 -131 87.5 -204t238.5 -73q137 0 213 66q2 -17 14 -45zM965 526q-162 0 -162 113t162 113q79 0 120 -29.5t41 -83.5t-41 -83.5t-120 -29.5z" />
    <glyph glyph-name="_708" unicode="&#x24d1;" 
d="M49 805q0 -258 124 -471t338.5 -335t471.5 -122q192 0 364.5 72t297 195t197.5 295.5t73 365.5q0 259 -124 472.5t-337.5 335.5t-470.5 122q-193 0 -366 -72t-297.5 -195.5t-197.5 -296t-73 -366.5zM207 805q0 164 60 309.5t162.5 250t247 165.5t306.5 61t306.5 -61
t247 -165.5t162.5 -250t60 -309.5t-60 -309.5t-162.5 -250t-247 -165t-306.5 -60.5t-306.5 60.5t-247 165t-162.5 250t-60 309.5zM870 1430h-206v-1166h206v62q80 -80 209 -80q164 0 254 110.5t90 329.5t-90 329.5t-254 110.5q-130 0 -209 -79v383zM870 686q0 132 40.5 200
t133.5 68q173 0 173 -268t-173 -268q-93 0 -133.5 68t-40.5 200z" />
    <glyph glyph-name="_709" unicode="&#x24d2;" 
d="M49 805q0 -258 124 -471t338.5 -335t471.5 -122q192 0 364.5 72t297 195t197.5 295.5t73 365.5q0 259 -124 472.5t-337.5 335.5t-470.5 122q-193 0 -366 -72t-297.5 -195.5t-197.5 -296t-73 -366.5zM207 805q0 164 60 309.5t162.5 250t247 165.5t306.5 61t306.5 -61
t247 -165.5t162.5 -250t60 -309.5t-60 -309.5t-162.5 -250t-247 -165t-306.5 -60.5t-306.5 60.5t-247 165t-162.5 250t-60 309.5zM604 803q0 -212 95.5 -326.5t283.5 -114.5q161 0 257.5 85.5t111.5 240.5h-207q-9 -73 -50.5 -113t-111.5 -40q-92 0 -132 68t-40 200t40 200
t132 68q70 0 111.5 -39.5t50.5 -111.5h207q-15 154 -111.5 238.5t-257.5 84.5q-188 0 -283.5 -113.5t-95.5 -326.5z" />
    <glyph glyph-name="_710" unicode="&#x24d3;" 
d="M49 805q0 -258 124 -471t338.5 -335t471.5 -122q192 0 364.5 72t297 195t197.5 295.5t73 365.5q0 259 -124 472.5t-337.5 335.5t-470.5 122q-193 0 -366 -72t-297.5 -195.5t-197.5 -296t-73 -366.5zM207 805q0 164 60 309.5t162.5 250t247 165.5t306.5 61t306.5 -61
t247 -165.5t162.5 -250t60 -309.5t-60 -309.5t-162.5 -250t-247 -165t-306.5 -60.5t-306.5 60.5t-247 165t-162.5 250t-60 309.5zM1092 1055q-80 80 -207 80q-165 0 -255.5 -110.5t-90.5 -330.5t90.5 -330t255.5 -110q127 0 207 80v-62h206v1166h-206v-383zM1092 694
q0 -132 -40 -200t-132 -68q-93 0 -134 68t-41 200t41 200.5t134 68.5q92 0 132 -68.5t40 -200.5z" />
    <glyph glyph-name="_711" unicode="&#x24d4;" 
d="M49 805q0 -258 124 -471t338.5 -335t471.5 -122q192 0 364.5 72t297 195t197.5 295.5t73 365.5q0 259 -124 472.5t-337.5 335.5t-470.5 122q-193 0 -366 -72t-297.5 -195.5t-197.5 -296t-73 -366.5zM207 805q0 164 60 309.5t162.5 250t247 165.5t306.5 61t306.5 -61
t247 -165.5t162.5 -250t60 -309.5t-60 -309.5t-162.5 -250t-247 -165t-306.5 -60.5t-306.5 60.5t-247 165t-162.5 250t-60 309.5zM1137 668q-11 -62 -52 -97.5t-102 -35.5q-161 0 -174 202h551v68q0 214 -95 327t-284 113q-188 0 -283.5 -113.5t-95.5 -326.5
q0 -214 95.5 -327t285.5 -113q151 0 245 78.5t120 224.5h-211zM811 893q19 184 170 184t170 -184h-340z" />
    <glyph glyph-name="_712" unicode="&#x24d5;" 
d="M49 805q0 -258 124 -471t338.5 -335t471.5 -122q192 0 364.5 72t297 195t197.5 295.5t73 365.5q0 259 -124 472.5t-337.5 335.5t-470.5 122q-193 0 -366 -72t-297.5 -195.5t-197.5 -296t-73 -366.5zM207 805q0 164 60 309.5t162.5 250t247 165.5t306.5 61t306.5 -61
t247 -165.5t162.5 -250t60 -309.5t-60 -309.5t-162.5 -250t-247 -165t-306.5 -60.5t-306.5 60.5t-247 165t-162.5 250t-60 309.5zM1233 1214v160q-59 12 -123 12q-155 0 -222 -59.5t-67 -200.5v-71h-116v-172h116v-672h207v672h205v172h-205v63q0 53 22 74.5t80 21.5h103z
" />
    <glyph glyph-name="_713" unicode="&#x24d6;" 
d="M49 805q0 -258 124 -471t338.5 -335t471.5 -122q192 0 364.5 72t297 195t197.5 295.5t73 365.5q0 259 -124 472.5t-337.5 335.5t-470.5 122q-193 0 -366 -72t-297.5 -195.5t-197.5 -296t-73 -366.5zM207 805q0 164 60 309.5t162.5 250t247 165.5t306.5 61t306.5 -61
t247 -165.5t162.5 -250t60 -309.5t-60 -309.5t-162.5 -250t-247 -165t-306.5 -60.5t-306.5 60.5t-247 165t-162.5 250t-60 309.5zM1137 514q0 -88 -40 -135t-116 -47q-62 0 -101 32t-46 91h-211q17 -135 110.5 -211t245.5 -76q182 0 273 98.5t91 259.5v856h-206v-61
q-80 80 -207 80q-165 0 -255.5 -110t-90.5 -330t90.5 -331.5t255.5 -111.5q131 0 207 82v-86zM1137 961q0 -133 -40 -202t-132 -69q-93 0 -133.5 68.5t-40.5 202.5q0 131 40.5 199.5t133.5 68.5q92 0 132 -68.5t40 -199.5z" />
    <glyph glyph-name="_714" unicode="&#x24d7;" 
d="M49 805q0 -258 124 -471t338.5 -335t471.5 -122q192 0 364.5 72t297 195t197.5 295.5t73 365.5q0 259 -124 472.5t-337.5 335.5t-470.5 122q-193 0 -366 -72t-297.5 -195.5t-197.5 -296t-73 -366.5zM207 805q0 164 60 309.5t162.5 250t247 165.5t306.5 61t306.5 -61
t247 -165.5t162.5 -250t60 -309.5t-60 -309.5t-162.5 -250t-247 -165t-306.5 -60.5t-306.5 60.5t-247 165t-162.5 250t-60 309.5zM1384 776q0 163 -77.5 250.5t-223.5 87.5q-144 0 -217 -88v391h-207v-1165h207v453q0 112 49.5 174.5t128.5 62.5q67 0 100.5 -43.5
t33.5 -138.5v-508h206v524z" />
    <glyph glyph-name="_715" unicode="&#x24d8;" 
d="M49 805q0 -258 124 -471t338.5 -335t471.5 -122q192 0 364.5 72t297 195t197.5 295.5t73 365.5q0 259 -124 472.5t-337.5 335.5t-470.5 122q-193 0 -366 -72t-297.5 -195.5t-197.5 -296t-73 -366.5zM207 805q0 164 60 309.5t162.5 250t247 165.5t306.5 61t306.5 -61
t247 -165.5t162.5 -250t60 -309.5t-60 -309.5t-162.5 -250t-247 -165t-306.5 -60.5t-306.5 60.5t-247 165t-162.5 250t-60 309.5zM1085 231v844h-208v-844h208zM1085 1184v211h-208v-211h208z" />
    <glyph glyph-name="_716" unicode="&#x24d9;" 
d="M49 805q0 -258 124 -471t338.5 -335t471.5 -122q192 0 364.5 72t297 195t197.5 295.5t73 365.5q0 259 -124 472.5t-337.5 335.5t-470.5 122q-193 0 -366 -72t-297.5 -195.5t-197.5 -296t-73 -366.5zM207 805q0 164 60 309.5t162.5 250t247 165.5t306.5 61t306.5 -61
t247 -165.5t162.5 -250t60 -309.5t-60 -309.5t-162.5 -250t-247 -165t-306.5 -60.5t-306.5 60.5t-247 165t-162.5 250t-60 309.5zM1135 1163h-209v-770q0 -50 -20 -73t-62 -23h-78v-166q38 -6 94 -6q134 0 204.5 66t70.5 196v776zM1135 1272v213h-209v-213h209z" />
    <glyph glyph-name="_717" unicode="&#x24da;" 
d="M49 805q0 -258 124 -471t338.5 -335t471.5 -122q192 0 364.5 72t297 195t197.5 295.5t73 365.5q0 259 -124 472.5t-337.5 335.5t-470.5 122q-193 0 -366 -72t-297.5 -195.5t-197.5 -296t-73 -366.5zM207 805q0 164 60 309.5t162.5 250t247 165.5t306.5 61t306.5 -61
t247 -165.5t162.5 -250t60 -309.5t-60 -309.5t-162.5 -250t-247 -165t-306.5 -60.5t-306.5 60.5t-247 165t-162.5 250t-60 309.5zM901 264v357h41l252 -357h240l-318 441l279 403h-232l-221 -322h-41v644h-207v-1166h207z" />
    <glyph glyph-name="_718" unicode="&#x24db;" 
d="M49 805q0 -258 124 -471t338.5 -335t471.5 -122q192 0 364.5 72t297 195t197.5 295.5t73 365.5q0 259 -124 472.5t-337.5 335.5t-470.5 122q-193 0 -366 -72t-297.5 -195.5t-197.5 -296t-73 -366.5zM207 805q0 164 60 309.5t162.5 250t247 165.5t306.5 61t306.5 -61
t247 -165.5t162.5 -250t60 -309.5t-60 -309.5t-162.5 -250t-247 -165t-306.5 -60.5t-306.5 60.5t-247 165t-162.5 250t-60 309.5zM1094 221v1163h-209v-1163h209z" />
    <glyph glyph-name="_719" unicode="&#x24dc;" 
d="M49 805q0 -258 124 -471t338.5 -335t471.5 -122q192 0 364.5 72t297 195t197.5 295.5t73 365.5q0 259 -124 472.5t-337.5 335.5t-470.5 122q-193 0 -366 -72t-297.5 -195.5t-197.5 -296t-73 -366.5zM207 805q0 164 60 309.5t162.5 250t247 165.5t306.5 61t306.5 -61
t247 -165.5t162.5 -250t60 -309.5t-60 -309.5t-162.5 -250t-247 -165t-306.5 -60.5t-306.5 60.5t-247 165t-162.5 250t-60 309.5zM1096 831q0 114 43.5 177t115.5 63q117 0 117 -151v-539h207v534q0 158 -73.5 243t-211.5 85q-160 0 -245 -131q-69 131 -238 131
q-131 0 -201 -86v68h-207v-844h207v450q0 115 43.5 177.5t116.5 62.5q119 0 119 -151v-539h207v450z" />
    <glyph glyph-name="_720" unicode="&#x24dd;" 
d="M49 805q0 -258 124 -471t338.5 -335t471.5 -122q192 0 364.5 72t297 195t197.5 295.5t73 365.5q0 259 -124 472.5t-337.5 335.5t-470.5 122q-193 0 -366 -72t-297.5 -195.5t-197.5 -296t-73 -366.5zM207 805q0 164 60 309.5t162.5 250t247 165.5t306.5 61t306.5 -61
t247 -165.5t162.5 -250t60 -309.5t-60 -309.5t-162.5 -250t-247 -165t-306.5 -60.5t-306.5 60.5t-247 165t-162.5 250t-60 309.5zM1352 905q0 163 -77 250.5t-222 87.5q-143 0 -219 -88v70h-207v-844h207v453q0 112 49.5 174.5t128.5 62.5q67 0 101 -43.5t34 -138.5v-508
h205v524z" />
    <glyph glyph-name="_721" unicode="&#x24de;" 
d="M49 805q0 -258 124 -471t338.5 -335t471.5 -122q192 0 364.5 72t297 195t197.5 295.5t73 365.5q0 259 -124 472.5t-337.5 335.5t-470.5 122q-193 0 -366 -72t-297.5 -195.5t-197.5 -296t-73 -366.5zM207 805q0 164 60 309.5t162.5 250t247 165.5t306.5 61t306.5 -61
t247 -165.5t162.5 -250t60 -309.5t-60 -309.5t-162.5 -250t-247 -165t-306.5 -60.5t-306.5 60.5t-247 165t-162.5 250t-60 309.5zM1362 807q0 213 -95 326.5t-284 113.5q-188 0 -283.5 -114t-95.5 -326q0 -214 95.5 -328t283.5 -114q189 0 284 114t95 328zM811 807
q0 131 40 199.5t132 68.5q93 0 132.5 -68t39.5 -200q0 -134 -39.5 -202t-132.5 -68q-92 0 -132 68.5t-40 201.5z" />
    <glyph glyph-name="_722" unicode="&#x24df;" 
d="M49 805q0 -258 124 -471t338.5 -335t471.5 -122q192 0 364.5 72t297 195t197.5 295.5t73 365.5q0 259 -124 472.5t-337.5 335.5t-470.5 122q-193 0 -366 -72t-297.5 -195.5t-197.5 -296t-73 -366.5zM207 805q0 164 60 309.5t162.5 250t247 165.5t306.5 61t306.5 -61
t247 -165.5t162.5 -250t60 -309.5t-60 -309.5t-162.5 -250t-247 -165t-306.5 -60.5t-306.5 60.5t-247 165t-162.5 250t-60 309.5zM866 575q75 -81 207 -81q165 0 255.5 111t90.5 331t-90.5 330t-255.5 110q-127 0 -207 -80v62h-207v-1192h207v409zM866 936q0 131 40 199.5
t132 68.5q174 0 174 -268q0 -133 -41 -201.5t-133 -68.5t-132 68.5t-40 201.5z" />
    <glyph glyph-name="_723" unicode="&#x24e0;" 
d="M49 805q0 -258 124 -471t338.5 -335t471.5 -122q192 0 364.5 72t297 195t197.5 295.5t73 365.5q0 259 -124 472.5t-337.5 335.5t-470.5 122q-193 0 -366 -72t-297.5 -195.5t-197.5 -296t-73 -366.5zM207 805q0 164 60 309.5t162.5 250t247 165.5t306.5 61t306.5 -61
t247 -165.5t162.5 -250t60 -309.5t-60 -309.5t-162.5 -250t-247 -165t-306.5 -60.5t-306.5 60.5t-247 165t-162.5 250t-60 309.5zM1094 166h206v1192h-206v-62q-80 80 -207 80q-165 0 -255.5 -110t-90.5 -330t90.5 -331t255.5 -111q132 0 207 81v-409zM1094 936
q0 -133 -40 -201.5t-132 -68.5q-93 0 -133.5 68.5t-40.5 201.5q0 131 40.5 199.5t133.5 68.5q92 0 132 -68.5t40 -199.5z" />
    <glyph glyph-name="_724" unicode="&#x24e1;" 
d="M49 805q0 -258 124 -471t338.5 -335t471.5 -122q192 0 364.5 72t297 195t197.5 295.5t73 365.5q0 259 -124 472.5t-337.5 335.5t-470.5 122q-193 0 -366 -72t-297.5 -195.5t-197.5 -296t-73 -366.5zM207 805q0 164 60 309.5t162.5 250t247 165.5t306.5 61t306.5 -61
t247 -165.5t162.5 -250t60 -309.5t-60 -309.5t-162.5 -250t-247 -165t-306.5 -60.5t-306.5 60.5t-247 165t-162.5 250t-60 309.5zM1169 1051q45 0 88 -7l3 168q-40 13 -86 13q-131 0 -199 -84v65h-207v-844h207v433q0 126 51 191t143 65z" />
    <glyph glyph-name="_725" unicode="&#x24e2;" 
d="M49 805q0 -258 124 -471t338.5 -335t471.5 -122q192 0 364.5 72t297 195t197.5 295.5t73 365.5q0 259 -124 472.5t-337.5 335.5t-470.5 122q-193 0 -366 -72t-297.5 -195.5t-197.5 -296t-73 -366.5zM207 805q0 164 60 309.5t162.5 250t247 165.5t306.5 61t306.5 -61
t247 -165.5t162.5 -250t60 -309.5t-60 -309.5t-162.5 -250t-247 -165t-306.5 -60.5t-306.5 60.5t-247 165t-162.5 250t-60 309.5zM979 1245q-150 0 -237 -71.5t-87 -184.5q0 -53 14.5 -91t40 -65t73.5 -48t100.5 -35t136.5 -31q108 -21 108 -94q0 -38 -40.5 -66.5
t-94.5 -28.5q-59 0 -97 26.5t-38 70.5v43h-207v-43q0 -116 93 -189t249 -73q154 0 248 74t94 188q0 130 -81 191t-277 89q-61 14 -88 33.5t-27 54.5t31.5 59.5t85.5 24.5t86.5 -26.5t32.5 -59.5v-39h207v37q0 114 -87 184t-239 70z" />
    <glyph glyph-name="_726" unicode="&#x24e3;" 
d="M49 805q0 -258 124 -471t338.5 -335t471.5 -122q192 0 364.5 72t297 195t197.5 295.5t73 365.5q0 259 -124 472.5t-337.5 335.5t-470.5 122q-193 0 -366 -72t-297.5 -195.5t-197.5 -296t-73 -366.5zM207 805q0 164 60 309.5t162.5 250t247 165.5t306.5 61t306.5 -61
t247 -165.5t162.5 -250t60 -309.5t-60 -309.5t-162.5 -250t-247 -165t-306.5 -60.5t-306.5 60.5t-247 165t-162.5 250t-60 309.5zM1018 969h221v172h-221v225h-207v-225h-117v-172h117v-432q0 -140 68.5 -196t226.5 -56q90 0 133 6v166h-104q-66 0 -91.5 21t-25.5 83v408z
" />
    <glyph glyph-name="_727" unicode="&#x24e4;" 
d="M49 805q0 -258 124 -471t338.5 -335t471.5 -122q192 0 364.5 72t297 195t197.5 295.5t73 365.5q0 259 -124 472.5t-337.5 335.5t-470.5 122q-193 0 -366 -72t-297.5 -195.5t-197.5 -296t-73 -366.5zM207 805q0 164 60 309.5t162.5 250t247 165.5t306.5 61t306.5 -61
t247 -165.5t162.5 -250t60 -309.5t-60 -309.5t-162.5 -250t-247 -165t-306.5 -60.5t-306.5 60.5t-247 165t-162.5 250t-60 309.5zM600 688q0 -164 77 -252t222 -88q142 0 219 90v-71h207v843h-207v-452q0 -111 -49.5 -174.5t-128.5 -63.5q-67 0 -101 44.5t-34 140.5v505
h-205v-522z" />
    <glyph glyph-name="_728" unicode="&#x24e5;" 
d="M49 805q0 -258 124 -471t338.5 -335t471.5 -122q192 0 364.5 72t297 195t197.5 295.5t73 365.5q0 259 -124 472.5t-337.5 335.5t-470.5 122q-193 0 -366 -72t-297.5 -195.5t-197.5 -296t-73 -366.5zM207 805q0 164 60 309.5t162.5 250t247 165.5t306.5 61t306.5 -61
t247 -165.5t162.5 -250t60 -309.5t-60 -309.5t-162.5 -250t-247 -165t-306.5 -60.5t-306.5 60.5t-247 165t-162.5 250t-60 309.5zM1077 340l312 844h-215l-203 -582l-203 582h-215l309 -844h215z" />
    <glyph glyph-name="_729" unicode="&#x24e6;" 
d="M49 805q0 -258 124 -471t338.5 -335t471.5 -122q192 0 364.5 72t297 195t197.5 295.5t73 365.5q0 259 -124 472.5t-337.5 335.5t-470.5 122q-193 0 -366 -72t-297.5 -195.5t-197.5 -296t-73 -366.5zM207 805q0 164 60 309.5t162.5 250t247 165.5t306.5 61t306.5 -61
t247 -165.5t162.5 -250t60 -309.5t-60 -309.5t-162.5 -250t-247 -165t-306.5 -60.5t-306.5 60.5t-247 165t-162.5 250t-60 309.5zM883 1200l-172 -557l-168 557h-213l276 -844h203l170 553l172 -553h203l274 844h-211l-168 -555l-174 555h-192z" />
    <glyph glyph-name="_730" unicode="&#x24e7;" 
d="M49 805q0 -258 124 -471t338.5 -335t471.5 -122q192 0 364.5 72t297 195t197.5 295.5t73 365.5q0 259 -124 472.5t-337.5 335.5t-470.5 122q-193 0 -366 -72t-297.5 -195.5t-197.5 -296t-73 -366.5zM207 805q0 164 60 309.5t162.5 250t247 165.5t306.5 61t306.5 -61
t247 -165.5t162.5 -250t60 -309.5t-60 -309.5t-162.5 -250t-247 -165t-306.5 -60.5t-306.5 60.5t-247 165t-162.5 250t-60 309.5zM1393 373l-285 430l270 414h-229l-164 -263l-166 263h-227l268 -412l-285 -432h226l184 282l180 -282h228z" />
    <glyph glyph-name="_731" unicode="&#x24e8;" 
d="M49 805q0 -258 124 -471t338.5 -335t471.5 -122q192 0 364.5 72t297 195t197.5 295.5t73 365.5q0 259 -124 472.5t-337.5 335.5t-470.5 122q-193 0 -366 -72t-297.5 -195.5t-197.5 -296t-73 -366.5zM207 805q0 164 60 309.5t162.5 250t247 165.5t306.5 61t306.5 -61
t247 -165.5t162.5 -250t60 -309.5t-60 -309.5t-162.5 -250t-247 -165t-306.5 -60.5t-306.5 60.5t-247 165t-162.5 250t-60 309.5zM850 367q-16 -43 -38.5 -59.5t-55.5 -16.5h-76v-166q37 -6 92 -6q102 0 164.5 42t103.5 152l375 998h-217l-201 -570l-204 570h-215l315 -824z
" />
    <glyph glyph-name="_732" unicode="&#x24e9;" 
d="M49 805q0 -258 124 -471t338.5 -335t471.5 -122q192 0 364.5 72t297 195t197.5 295.5t73 365.5q0 259 -124 472.5t-337.5 335.5t-470.5 122q-193 0 -366 -72t-297.5 -195.5t-197.5 -296t-73 -366.5zM207 805q0 164 60 309.5t162.5 250t247 165.5t306.5 61t306.5 -61
t247 -165.5t162.5 -250t60 -309.5t-60 -309.5t-162.5 -250t-247 -165t-306.5 -60.5t-306.5 60.5t-247 165t-162.5 250t-60 309.5zM1296 1227h-634v-172h370l-383 -531v-141h660v170h-396l383 530v144z" />
    <glyph glyph-name="_519" unicode="&#x2500;" 
d="M1966 854h-1966v-121h1966v121z" />
    <glyph glyph-name="_530" unicode="&#x2501;" 
d="M0 891v-193h1966v193h-1966z" />
    <glyph glyph-name="_520" unicode="&#x2502;" 
d="M924 1819v-2048h120v2048h-120z" />
    <glyph glyph-name="_531" unicode="&#x2503;" 
d="M887 1819v-2048h192v2048h-192z" />
    <glyph glyph-name="_521" unicode="&#x250c;" 
d="M924 -229h120v962h922v121h-1042v-1083z" />
    <glyph glyph-name="_558" unicode="&#x250d;" 
d="M944 891v-1120h76v927h946v193h-1022z" />
    <glyph glyph-name="_557" unicode="&#x250e;" 
d="M1079 756h887v73h-1079v-1058h192v985z" />
    <glyph glyph-name="_532" unicode="&#x250f;" 
d="M887 891v-1120h192v927h887v193h-1079z" />
    <glyph glyph-name="_522" unicode="&#x2510;" 
d="M1044 854h-1044v-121h924v-962h120v1083z" />
    <glyph glyph-name="_552" unicode="&#x2511;" 
d="M944 698v-927h76v1120h-1020v-193h944z" />
    <glyph glyph-name="_551" unicode="&#x2512;" 
d="M887 756v-985h192v1058h-1079v-73h887z" />
    <glyph glyph-name="_533" unicode="&#x2513;" 
d="M0 891v-193h887v-927h192v1120h-1079z" />
    <glyph glyph-name="_524" unicode="&#x2514;" 
d="M924 733h1042v121h-922v965h-120v-1086z" />
    <glyph glyph-name="_556" unicode="&#x2515;" 
d="M1020 891v928h-76v-1121h1022v193h-946z" />
    <glyph glyph-name="_555" unicode="&#x2516;" 
d="M1079 829v990h-192v-1063h1079v73h-887z" />
    <glyph glyph-name="_535" unicode="&#x2517;" 
d="M887 1819v-1121h1079v193h-887v928h-192z" />
    <glyph glyph-name="_523" unicode="&#x2518;" 
d="M1044 1819h-120v-965h-924v-121h1044v1086z" />
    <glyph glyph-name="_554" unicode="&#x2519;" 
d="M944 891h-944v-193h1020v1121h-76v-928z" />
    <glyph glyph-name="_553" unicode="&#x251a;" 
d="M887 829h-887v-73h1079v1063h-192v-990z" />
    <glyph glyph-name="_534" unicode="&#x251b;" 
d="M887 1819v-928h-887v-193h1079v1121h-192z" />
    <glyph glyph-name="_525" unicode="&#x251c;" 
d="M924 1819v-2048h120v962h922v121h-922v965h-120z" />
    <glyph glyph-name="_546" unicode="&#x251d;" 
d="M1966 891h-946v928h-76v-2048h76v927h946v193z" />
    <glyph glyph-name="_559" unicode="&#x251e;" 
d="M887 1819v-1063h57v-985h76v985h946v73h-887v990h-192z" />
    <glyph glyph-name="_560" unicode="&#x251f;" 
d="M944 1819v-990h-57v-1058h192v985h887v73h-946v990h-76z" />
    <glyph glyph-name="_541" unicode="&#x2520;" 
d="M1966 829h-887v990h-192v-2048h192v985h887v73z" />
    <glyph glyph-name="_561" unicode="&#x2521;" 
d="M944 -229h76v927h946v193h-887v928h-192v-1121h57v-927z" />
    <glyph glyph-name="_562" unicode="&#x2522;" 
d="M887 -229h192v927h887v193h-946v928h-76v-928h-57v-1120z" />
    <glyph glyph-name="_536" unicode="&#x2523;" 
d="M887 1819v-2048h192v927h887v193h-887v928h-192z" />
    <glyph glyph-name="_527" unicode="&#x2524;" 
d="M1044 1819h-120v-965h-924v-121h924v-962h120v2048z" />
    <glyph glyph-name="_548" unicode="&#x2525;" 
d="M944 891h-944v-193h944v-927h76v2048h-76v-928z" />
    <glyph glyph-name="_563" unicode="&#x2526;" 
d="M887 1819v-990h-887v-73h944v-985h76v985h59v1063h-192z" />
    <glyph glyph-name="_564" unicode="&#x2527;" 
d="M0 829v-73h887v-985h192v1058h-59v990h-76v-990h-944z" />
    <glyph glyph-name="_543" unicode="&#x2528;" 
d="M1079 -229v2048h-192v-990h-887v-73h887v-985h192z" />
    <glyph glyph-name="_565" unicode="&#x2529;" 
d="M0 698h944v-927h76v927h59v1121h-192v-928h-887v-193z" />
    <glyph glyph-name="_566" unicode="&#x252a;" 
d="M0 698h887v-927h192v1120h-59v928h-76v-928h-944v-193z" />
    <glyph glyph-name="_538" unicode="&#x252b;" 
d="M0 698h887v-927h192v2048h-192v-928h-887v-193z" />
    <glyph glyph-name="_526" unicode="&#x252c;" 
d="M1966 854h-1966v-121h924v-962h120v962h922v121z" />
    <glyph glyph-name="_567" unicode="&#x252d;" 
d="M0 698h944v-927h76v985h946v73h-946v62h-1020v-193z" />
    <glyph glyph-name="_568" unicode="&#x252e;" 
d="M0 756h944v-985h76v927h946v193h-1022v-62h-944v-73z" />
    <glyph glyph-name="_542" unicode="&#x252f;" 
d="M1966 891h-1966v-193h944v-927h76v927h946v193z" />
    <glyph glyph-name="_547" unicode="&#x2530;" 
d="M1966 829h-1966v-73h887v-985h192v985h887v73z" />
    <glyph glyph-name="_569" unicode="&#x2531;" 
d="M0 698h887v-927h192v985h887v73h-887v62h-1079v-193z" />
    <glyph glyph-name="_570" unicode="&#x2532;" 
d="M0 756h887v-985h192v927h887v193h-1079v-62h-887v-73z" />
    <glyph glyph-name="_537" unicode="&#x2533;" 
d="M0 698h887v-927h192v927h887v193h-1966v-193z" />
    <glyph glyph-name="_528" unicode="&#x2534;" 
d="M1966 733v121h-922v965h-120v-965h-924v-121h1966z" />
    <glyph glyph-name="_571" unicode="&#x2535;" 
d="M0 698h1020v58h946v73h-946v990h-76v-928h-944v-193z" />
    <glyph glyph-name="_572" unicode="&#x2536;" 
d="M0 756h944v-58h1022v193h-946v928h-76v-990h-944v-73z" />
    <glyph glyph-name="_544" unicode="&#x2537;" 
d="M944 891h-944v-193h1966v193h-946v928h-76v-928z" />
    <glyph glyph-name="_549" unicode="&#x2538;" 
d="M887 829h-887v-73h1966v73h-887v990h-192v-990z" />
    <glyph glyph-name="_573" unicode="&#x2539;" 
d="M0 698h1079v58h887v73h-887v990h-192v-928h-887v-193z" />
    <glyph glyph-name="_574" unicode="&#x253a;" 
d="M0 756h887v-58h1079v193h-887v928h-192v-990h-887v-73z" />
    <glyph glyph-name="_539" unicode="&#x253b;" 
d="M887 891h-887v-193h1966v193h-887v928h-192v-928z" />
    <glyph glyph-name="_529" unicode="&#x253c;" 
d="M924 1819v-965h-924v-121h924v-962h120v962h922v121h-922v965h-120z" />
    <glyph glyph-name="_575" unicode="&#x253d;" 
d="M0 698h944v-927h76v985h946v73h-946v990h-76v-928h-944v-193z" />
    <glyph glyph-name="_576" unicode="&#x253e;" 
d="M1020 1819h-76v-990h-944v-73h944v-985h76v927h946v193h-946v928z" />
    <glyph glyph-name="_545" unicode="&#x253f;" 
d="M944 891h-944v-193h944v-927h76v927h946v193h-946v928h-76v-928z" />
    <glyph glyph-name="_577" unicode="&#x2540;" 
d="M1079 1819h-192v-990h-887v-73h944v-985h76v985h946v73h-887v990z" />
    <glyph glyph-name="_578" unicode="&#x2541;" 
d="M1020 1819h-76v-990h-944v-73h887v-985h192v985h887v73h-946v990z" />
    <glyph glyph-name="_550" unicode="&#x2542;" 
d="M887 829h-887v-73h887v-985h192v985h887v73h-887v990h-192v-990z" />
    <glyph glyph-name="_579" unicode="&#x2543;" 
d="M1079 1819h-192v-928h-887v-193h944v-927h76v927h59v58h887v73h-887v990z" />
    <glyph glyph-name="_580" unicode="&#x2544;" 
d="M1020 -229v927h946v193h-887v928h-192v-990h-887v-73h887v-58h57v-927h76z" />
    <glyph glyph-name="_581" unicode="&#x2545;" 
d="M1020 1819h-76v-928h-944v-193h887v-927h192v985h887v73h-887v62h-59v928z" />
    <glyph glyph-name="_582" unicode="&#x2546;" 
d="M1020 1819h-76v-928h-57v-62h-887v-73h887v-985h192v925h887v195h-946v928z" />
    <glyph glyph-name="_583" unicode="&#x2547;" 
d="M1079 1819h-192v-928h-887v-193h944v-927h76v927h946v193h-887v928z" />
    <glyph glyph-name="_584" unicode="&#x2548;" 
d="M1020 1819h-76v-928h-944v-193h887v-927h192v927h887v193h-946v928z" />
    <glyph glyph-name="_585" unicode="&#x2549;" 
d="M1079 1819h-192v-928h-887v-193h887v-927h192v985h887v73h-887v990z" />
    <glyph glyph-name="_586" unicode="&#x254a;" 
d="M1079 1819h-192v-990h-887v-73h887v-985h192v927h887v193h-887v928z" />
    <glyph glyph-name="_540" unicode="&#x254b;" 
d="M887 891h-887v-193h887v-927h192v927h887v193h-887v928h-192v-928z" />
    <glyph glyph-name="_232" unicode="&#x2592;" 
d="M920 150h118v122h-118v-122zM1303 272v-122h114v122h-114zM1229 150v122h-119v-122h119zM657 150v122h-114v-122h114zM467 150v122h-117v-122h117zM846 150v122h-117v-122h117zM1491 272v-122h117v122h-117zM920 348h118v119h-118v-119zM1303 467v-119h114v119h-114z
M1229 348v119h-119v-119h119zM657 348v119h-114v-119h114zM467 348v119h-117v-119h117zM846 348v119h-117v-119h117zM1491 467v-119h117v119h-117zM920 541h118v121h-118v-121zM1303 662v-121h114v121h-114zM1229 541v121h-119v-121h119zM657 541v121h-114v-121h114z
M467 541v121h-117v-121h117zM846 541v121h-117v-121h117zM1491 662v-121h117v121h-117zM920 733h118v127h-118v-127zM1303 860v-127h114v127h-114zM1229 733v127h-119v-127h119zM657 733v127h-114v-127h114zM467 733v127h-117v-127h117zM846 733v127h-117v-127h117z
M1491 860v-127h117v127h-117zM920 934h118v121h-118v-121zM1303 1055v-121h114v121h-114zM1229 934v121h-119v-121h119zM657 934v121h-114v-121h114zM467 934v121h-117v-121h117zM846 934v121h-117v-121h117zM1491 1055v-121h117v121h-117zM920 1126h118v121h-118v-121z
M1303 1247v-121h114v121h-114zM1229 1126v121h-119v-121h119zM657 1126v121h-114v-121h114zM467 1126v121h-117v-121h117zM846 1126v121h-117v-121h117zM1491 1247v-121h117v121h-117zM920 1321h118v123h-118v-123zM1303 1444v-123h114v123h-114zM1229 1321v123h-119v-123
h119zM657 1321v123h-114v-123h114zM467 1321v123h-117v-123h117zM846 1321v123h-117v-123h117zM1491 1444v-123h117v123h-117zM1778 12v1575h-1590v-1575h1590zM295 96v1397h1372v-1397h-1372z" />
    <glyph glyph-name="_165" unicode="&#x25a0;" 
d="M1759 33v1540h-1554v-1540h1554z" />
    <glyph glyph-name="_164" unicode="&#x25a1;" 
d="M1759 33v1540h-1554v-1540h1554zM381 195v1216h1202v-1216h-1202z" />
    <glyph glyph-name="_229" unicode="&#x25a3;" 
d="M1759 33v1540h-1554v-1540h1554zM381 195v1216h1202v-1216h-1202zM1298 483v641h-632v-641h632z" />
    <glyph glyph-name="_233" unicode="&#x25a4;" 
d="M1778 12v1575h-1590v-1575h1590zM295 864h1372v-137h-1372v137zM295 436h1372v-135h-1372v135zM295 1290h1372v-135h-1372v135zM295 647h1372v-133h-1372v133zM295 1075h1372v-133h-1372v133zM295 96v127h1372v-127h-1372zM1667 1368h-1372v125h1372v-125z" />
    <glyph glyph-name="_234" unicode="&#x25a5;" 
d="M1778 12v1575h-1590v-1575h1590zM494 1489h133v-1385h-133v1385zM705 1489h131v-1385h-131v1385zM1122 1489h133v-1385h-133v1385zM1333 1489h131v-1385h-131v1385zM913 1489h131v-1385h-131v1385zM1544 104v1385h129v-1385h-129zM287 1489h129v-1385h-129v1385z" />
    <glyph glyph-name="_237" unicode="&#x25a6;" 
d="M1778 12v1575h-1590v-1575h1590zM489 868h138v-141h-138v141zM1122 868h138v-141h-138v141zM1333 868h137v-141h-137v141zM700 868h138v-141h-138v141zM911 868h138v-141h-138v141zM1122 440h138v-139h-138v139zM1122 1294h138v-139h-138v139zM489 440h138v-139h-138v139
zM489 1294h138v-139h-138v139zM1333 440h137v-139h-137v139zM1333 1294h137v-139h-137v139zM700 440h138v-139h-138v139zM700 1294h138v-139h-138v139zM1122 651h138v-137h-138v137zM1122 1079h138v-137h-138v137zM489 651h138v-137h-138v137zM489 1079h138v-137h-138v137z
M1333 651h137v-137h-137v137zM1333 1079h137v-137h-137v137zM700 651h138v-137h-138v137zM700 1079h138v-137h-138v137zM911 440h138v-139h-138v139zM911 1294h138v-139h-138v139zM285 868h131v-141h-131v141zM1544 868h133v-141h-133v141zM911 651h138v-137h-138v137z
M911 1079h138v-137h-138v137zM285 440h131v-139h-131v139zM285 1294h131v-139h-131v139zM1544 440h133v-139h-133v139zM1544 1294h133v-139h-133v139zM285 1079h131v-137h-131v137zM285 651h131v-137h-131v137zM1544 1079h133v-137h-133v137zM1544 651h133v-137h-133v137z
M1122 227h138v-129h-138v129zM489 227h138v-129h-138v129zM1333 227h137v-129h-137v129zM700 227h138v-129h-138v129zM911 227h138v-129h-138v129zM1122 1495h138v-127h-138v127zM489 1495h138v-127h-138v127zM1333 1495h137v-127h-137v127zM700 1495h138v-127h-138v127z
M911 1495h138v-127h-138v127zM1544 98v129h133v-129h-133zM285 227h131v-129h-131v129zM285 1495h131v-127h-131v127zM1677 1368h-133v127h133v-127z" />
    <glyph glyph-name="_236" unicode="&#x25a7;" 
d="M1778 12v1575h-1590v-1575h1590zM1673 162l-1329 1329h166l1163 -1159v-170zM1462 100l-1169 1168v168l1333 -1336h-164zM1176 100l-883 881v178l1059 -1059h-176zM1673 440l-1055 1051h179l876 -875v-176zM891 100l-598 596v176l772 -772h-174zM1669 721l-770 770h174
l596 -592v-178zM604 100l-311 312v176l487 -488h-176zM1669 1008l-485 483h176l309 -309v-174zM293 100v203l201 -203h-201zM1669 1290l-199 201h199v-201z" />
    <glyph glyph-name="_235" unicode="&#x25a8;" 
d="M1778 12v1575h-1590v-1575h1590zM291 332l1161 1159h168l-1329 -1329v170zM336 100l1333 1336v-168l-1167 -1168h-166zM612 100l1057 1059v-178l-883 -881h-174zM291 616l876 875h176l-1052 -1051v176zM897 100l772 772v-176l-596 -596h-176zM295 899l594 592h176
l-770 -770v178zM1184 100l485 488v-176l-311 -312h-174zM295 1182l309 309h174l-483 -483v174zM1468 100l201 203v-203h-201zM295 1491h199l-199 -201v201z" />
    <glyph glyph-name="_238" unicode="&#x25a9;" 
d="M1778 12v1575h-1590v-1575h1590zM336 940l90 90l88 -90l-88 -88zM477 801l88 88l88 -88l-88 -88zM1540 1028l88 -88l-90 -88l-86 88zM895 1219l88 88l88 -88l-88 -89zM1126 330l88 -88l-88 -88l-88 88zM1034 1358l88 88l88 -88l-88 -88zM334 657l88 88l88 -88l-88 -88z
M1542 745l88 -88l-88 -88l-88 88zM756 1358l88 88l88 -88l-88 -88zM895 383l88 88l88 -86l-88 -88zM1313 801l88 88l86 -88l-88 -88zM840 328l88 -86l-88 -88l-88 86zM618 657l91 91l84 -86l-88 -89zM477 516l88 88l84 -86l-88 -88zM1036 1075l88 88l86 -84l-88 -88z
M1176 1214l88 89l86 -84l-88 -89zM334 373l88 88l86 -84l-88 -88zM563 1167l90 -88l-84 -84l-90 88zM1542 461l88 -88l-84 -84l-88 88zM700 1303l88 -89l-83 -84l-89 91zM1319 1358l88 88l84 -86l-86 -86zM1264 467l88 -88l-84 -84l-88 88zM1401 604l88 -88l-84 -84l-88 88z
M705 1028l88 -88l-84 -84l-88 88zM840 1163l88 -88l-84 -84l-88 88zM756 520l90 90l82 -84l-88 -88zM1122 610l86 -88l-84 -84l-86 88zM475 1362l84 84l86 -88l-84 -84zM1257 745l89 -86l-84 -84l-88 87zM422 1309l88 -86l-84 -84l-88 86zM471 236l88 88l84 -82l-88 -88z
M1174 938l88 88l84 -82l-89 -88zM614 379l88 88l82 -84l-88 -88zM1313 1077l88 88l84 -82l-88 -88zM1407 324l86 -88l-82 -82l-88 86zM1456 1221l88 88l82 -84l-86 -86zM983 1022l84 -86l-84 -84l-84 86zM846 885l86 -84l-84 -84l-86 84zM1036 801l84 84l82 -84l-84 -84z
M899 664l84 84l84 -82l-84 -84zM897 100l86 86l86 -86h-172zM1184 100l86 86l84 -86h-170zM612 100l86 86l84 -86h-170zM983 1409l-82 82h164zM336 100l82 82l80 -82h-162zM1468 100l80 80l82 -80h-162zM700 1413l-77 78h155zM1266 1413l-78 78h155zM297 1159l74 -76
l-74 -73v149zM1669 1159v-149l-76 73zM297 872l74 -75l-74 -74v149zM1669 872v-149l-76 74zM420 1415l-74 76h148zM1620 1491l-74 -76l-73 76h147zM297 588l72 -72l-72 -72v144zM1669 588v-144l-72 72zM297 1436l72 -72l-72 -72v144zM1669 1436v-144l-72 72zM297 303l68 -70
l-68 -67v137zM1669 303v-137l-67 67z" />
    <glyph glyph-name="_8736" unicode="&#x25b1;" 
d="M266 350l232 936h1202l-234 -936h-1200zM559 1212l-199 -784h1045l199 784h-1045z" />
    <glyph glyph-name="_167" unicode="&#x25b2;" 
d="M983 1651l-930 -1610h1858z" />
    <glyph glyph-name="_166" unicode="&#x25b3;" 
d="M983 1651l-930 -1610h1858zM983 1331l645 -1134h-1292z" />
    <glyph glyph-name="_8780" unicode="&#x25b5;" 
d="M248 238l737 1247l731 -1247h-1468zM1413 412l-428 729l-434 -729h862z" />
    <glyph glyph-name="_220" unicode="&#x25b6;" 
d="M238 1729v-1858l1611 928z" />
    <glyph glyph-name="_219" unicode="&#x25b7;" 
d="M238 1729v-1858l1611 928zM416 152v1294l1120 -647z" />
    <glyph glyph-name="_8781" unicode="&#x25b9;" 
d="M356 1532l1252 -731l-1252 -733v1464zM530 371l732 430l-732 428v-858z" />
    <glyph glyph-name="_169" unicode="&#x25bc;" 
d="M1911 1569h-1858l930 -1610z" />
    <glyph glyph-name="_168" unicode="&#x25bd;" 
d="M1911 1569h-1858l930 -1610zM336 1413h1292l-645 -1134z" />
    <glyph glyph-name="_8779" unicode="&#x25bf;" 
d="M1716 1360l-731 -1245l-737 1245h1468zM551 1188l434 -729l428 729h-862z" />
    <glyph glyph-name="_218" unicode="&#x25c0;" 
d="M115 799l1611 -928v1858z" />
    <glyph glyph-name="_217" unicode="&#x25c1;" 
d="M115 799l1611 -928v1858zM428 799l1120 647v-1294z" />
    <glyph glyph-name="_8782" unicode="&#x25c3;" 
d="M1608 68l-1252 733l1252 731v-1464zM1434 1229l-732 -428l732 -430v858z" />
    <glyph glyph-name="_163" unicode="&#x25c6;" 
d="M983 1782l-942 -985l942 -983l942 983z" />
    <glyph glyph-name="_162" unicode="&#x25c7;" 
d="M983 1782l-942 -985l942 -983l942 983zM983 1550l717 -753l-717 -752l-721 752z" />
    <glyph glyph-name="_228" unicode="&#x25c8;" 
d="M983 1782l-942 -985l942 -983l942 983zM983 1550l717 -753l-717 -752l-721 752zM588 795l393 -408l391 408l-391 407z" />
    <glyph glyph-name="_8787" unicode="&#x25ca;" 
d="M1702 801l-717 -848l-721 848l721 848zM455 801l530 -623l526 623l-526 622z" />
    <glyph glyph-name="_159" unicode="&#x25cb;" 
d="M1884 797q0 184 -71 351.5t-191.5 288t-287.5 192t-351 71.5q-186 0 -353.5 -71t-287.5 -191.5t-191 -288t-71 -352.5q0 -247 119 -454t326.5 -327t457.5 -120q186 0 353 70.5t287 191t190.5 287.5t70.5 352zM256 797q0 151 56 288t152.5 236t231.5 157t287 58
q122 0 234.5 -37t201.5 -105t155.5 -159t102 -204t35.5 -234q0 -151 -56 -287.5t-152.5 -236t-232.5 -158t-288 -58.5q-202 0 -369.5 99.5t-262.5 269t-95 371.5z" />
    <glyph glyph-name="_8639" unicode="&#x25cc;" 
d="M748 1649l18 -68q-106 -31 -178 -76l-39 64q102 55 199 80zM436 1491l43 -55q-87 -73 -137 -146l-61 51q96 104 155 150zM213 1233l63 -37q-28 -52 -75 -180l-70 14q25 106 82 203zM109 907l69 -6q-10 -62 -10 -100q0 -29 8 -99l-72 -8q-4 35 -4 107q0 64 9 106zM133 567
l68 19q31 -102 75 -183l-63 -34q-59 102 -80 198zM285 260l57 45q50 -65 137 -141l-43 -55q-80 68 -151 151zM588 96q68 -44 178 -73l-21 -70q-98 25 -196 80q37 59 39 63zM1087 1675l-8 -71q-66 8 -94 8q-21 0 -55.5 -3.5t-48.5 -4.5l-7 69q35 8 111 8q67 0 102 -6z
M1221 -47l-21 70q101 27 180 75l37 -65q-104 -56 -196 -80zM1526 102l-43 60q3 3 20.5 18.5t22 20t19 18.5t21.5 21t18 18.5t19.5 21.5t16.5 21l57 -45q-75 -92 -151 -154zM1753 369l-61 39q43 77 73 178l68 -19q-31 -114 -80 -198zM1858 694l-70 6q10 46 10 101
q0 40 -10 98l70 8q8 -49 8 -106q0 -72 -8 -107zM1833 1030l-68 -16q-29 97 -73 180l61 39q61 -115 80 -203zM1681 1346l-59 -50q-55 71 -139 142l45 55q68 -55 153 -147zM1378 1505q-96 54 -178 74l21 70q92 -24 196 -80q-1 0 -18.5 -29.5t-20.5 -34.5zM874 -78l7 78
q87 -10 96 -10q32 0 102 8l8 -72q-37 -6 -110 -6q-70 0 -103 2z" />
    <glyph glyph-name="_161" unicode="&#x25ce;" 
d="M379 797q0 -168 80.5 -307t219 -218t304.5 -79t304 79t218 218t80 307t-80 307.5t-218 219t-304 79.5t-304.5 -79.5t-219 -219t-80.5 -307.5zM1438 797q0 -207 -127.5 -339t-327.5 -132t-327.5 132t-127.5 339t127.5 339t327.5 132t327.5 -132t127.5 -339zM238 797
q0 209 97 383.5t268.5 276.5t379.5 102q156 0 295 -60t238.5 -162.5t157 -243t57.5 -296.5t-57.5 -296.5t-157 -243t-238.5 -162.5t-295 -60q-208 0 -379.5 102t-268.5 276.5t-97 383.5zM1884 797q0 185 -70.5 352.5t-190.5 288t-287 191.5t-353 71q-249 0 -456.5 -120
t-327 -327.5t-119.5 -455.5q0 -185 69.5 -352t189.5 -287.5t287.5 -191t356.5 -70.5q249 0 456 120t326 327t119 454z" />
    <glyph glyph-name="_160" unicode="&#x25cf;" 
d="M1884 797q0 184 -71 351.5t-191.5 288t-287.5 192t-351 71.5q-186 0 -353.5 -71t-287.5 -191.5t-191 -288t-71 -352.5q0 -247 119 -454t326.5 -327t457.5 -120q186 0 353 70.5t287 191t190.5 287.5t70.5 352z" />
    <glyph glyph-name="_230" unicode="&#x25d0;" 
d="M1884 797q0 184 -71 351.5t-191.5 288t-287.5 192t-351 71.5q-186 0 -353.5 -71t-287.5 -191.5t-191 -288t-71 -352.5q0 -247 119 -454t326.5 -327t457.5 -120q186 0 353 70.5t287 191t190.5 287.5t70.5 352zM983 1536q122 0 234.5 -37t201.5 -105t155.5 -159t102 -204
t35.5 -234q0 -151 -56 -287.5t-152.5 -236t-232.5 -158t-288 -58.5v1479z" />
    <glyph glyph-name="_231" unicode="&#x25d1;" 
d="M1884 797q0 184 -71 351.5t-191.5 288t-288 192t-352.5 71.5t-352 -71t-287.5 -191.5t-191 -288t-70.5 -352.5q0 -247 119 -454t326 -327t456 -120q149 0 287.5 45t249.5 128t193.5 193.5t127.5 248.5t45 286zM254 797q0 121 35.5 234t102 204t155.5 159t201.5 105
t234.5 37v-1479q-152 0 -288 58.5t-232.5 158t-152.5 236t-56 287.5z" />
    <glyph glyph-name="_8775" unicode="&#x25e6;" 
d="M985 1454q175 0 326 -88.5t240 -239t89 -325.5q0 -132 -52.5 -254t-141 -210.5t-209.5 -141t-252 -52.5q-133 0 -254.5 52.5t-210 141t-141.5 210t-53 254.5q0 175 89 325.5t241 239t329 88.5zM985 1284q-202 0 -345.5 -142.5t-143.5 -340.5q0 -133 65.5 -245.5
t178 -177.5t245.5 -65q131 0 242.5 65t177 177.5t65.5 245.5q0 198 -143 340.5t-342 142.5z" />
    <glyph glyph-name="_8633" unicode="&#x25ef;" 
d="M985 1681q179 0 342 -70t281 -187.5t188 -280.5t70 -342t-70 -342t-188 -281t-281 -188t-342 -70q-181 0 -345 70t-282.5 188t-188 281t-69.5 342t69.5 341.5t188 280.5t282.5 188t345 70zM985 1599q-218 0 -403.5 -107t-293.5 -291t-108 -400q0 -162 64 -310t171.5 -255
t256.5 -170.5t313 -63.5q162 0 310.5 63.5t255.5 170.5t171 255t64 310t-64 310t-171.5 254.5t-255.5 170t-310 63.5z" />
    <glyph glyph-name="_158" unicode="&#x2605;" 
d="M737 1100h-663l-13 -43l537 -412l-264 -706l37 -27l612 457l610 -457l33 29l-260 704l537 412l-13 43h-663l-221 655h-45z" />
    </font>
</defs>
</svg>
