<?xml version="1.0" standalone="no"?>
<!DOCTYPE svg PUBLIC "-//W3C//DTD SVG 1.1//EN" "http://www.w3.org/Graphics/SVG/1.1/DTD/svg11.dtd" >
<svg xmlns="http://www.w3.org/2000/svg" xmlns:xlink="http://www.w3.org/1999/xlink" version="1.1">
<metadata>
Created by FontForge 20170731 at Fri Dec 10 02:39:00 2021
 By Aleksey,,,
Copyright (c) 2018 by S-Core Co., Ltd.. All rights reserved.
</metadata>
<defs>
<font id="S-CoreDream-3Light" horiz-adv-x="1966" >
  <font-face 
    font-family="S-Core Dream 3 Light"
    font-weight="300"
    font-stretch="normal"
    units-per-em="2048"
    panose-1="2 11 3 3 3 3 2 2 2 4"
    ascent="1638"
    descent="-410"
    x-height="1145"
    cap-height="1599"
    bbox="-61 -535 2363 2083"
    underline-thickness="102"
    underline-position="-307"
    unicode-range="U+0020-FFE6"
  />
<missing-glyph horiz-adv-x="591" 
 />
    <glyph glyph-name=".notdef" horiz-adv-x="591" 
 />
    <glyph glyph-name=".null" horiz-adv-x="0" 
 />
    <glyph glyph-name="nonmarkingreturn" horiz-adv-x="682" 
 />
    <glyph glyph-name="_1" unicode=" " horiz-adv-x="591" 
 />
    <glyph glyph-name="_2" unicode="!" horiz-adv-x="612" 
d="M360 471h-108l-10 850v278h131v-278zM375 215v-207h-137v207h137z" />
    <glyph glyph-name="_3" unicode="&#x22;" horiz-adv-x="765" 
d="M573 1145h-116v454h116v-454zM311 1145h-118v454h118v-454z" />
    <glyph glyph-name="_4" unicode="#" horiz-adv-x="1468" 
d="M770 8l102 469h-415l-103 -469h-121l103 469h-256v105h278l97 442h-297v104h319l103 471h118l-102 -471h418l102 471h119l-102 -471h256v-104h-279l-98 -442h299v-105h-320l-102 -469h-119zM573 1024l-96 -442h416l98 442h-418z" />
    <glyph glyph-name="_5" unicode="$" horiz-adv-x="1277" 
d="M584 -190v174q-220 17 -341.5 138.5t-121.5 301.5v47h131v-49q0 -129 87.5 -217t244.5 -105v676l-74 17q-389 79 -389 411q0 174 122 292.5t341 127.5v174h102v-176q138 -12 237 -71.5t147 -148.5t48 -198v-35h-131v35q0 124 -78.5 204t-222.5 97v-626l66 -15
q217 -44 321.5 -153.5t104.5 -286.5q0 -186 -129.5 -309t-362.5 -133v-172h-102zM715 750l-29 4v-656q168 9 264.5 99t96.5 225q0 130 -79 211t-253 117zM252 1204q0 -123 74 -195t221 -102l37 -6v606q-158 -9 -245 -90.5t-87 -212.5z" />
    <glyph glyph-name="_6" unicode="%" horiz-adv-x="1767" 
d="M612 8h-112l653 1591h113zM760 1198q0 -217 -81.5 -323.5t-232.5 -106.5q-152 0 -232.5 106.5t-80.5 323.5q0 216 80.5 322t232.5 106q151 0 232.5 -106.5t81.5 -321.5zM649 1198q0 178 -52 256t-151 78q-100 0 -152 -77.5t-52 -256.5q0 -181 52 -258.5t152 -77.5
q99 0 151 77.5t52 258.5zM1008 410q0 216 80.5 323t232.5 107q151 0 232 -107t81 -323q0 -215 -81 -321.5t-232 -106.5q-152 0 -232.5 106t-80.5 322zM1116 410q0 -180 52 -257t153 -77q99 0 151 77.5t52 256.5q0 180 -52 257.5t-151 77.5q-100 0 -152.5 -77.5t-52.5 -257.5
z" />
    <glyph glyph-name="_7" unicode="&#x26;" horiz-adv-x="1437" 
d="M633 1626q178 0 286.5 -96t108.5 -264v-45h-127v43q0 118 -72.5 183.5t-195.5 65.5t-194.5 -65.5t-71.5 -183.5q0 -77 32.5 -143t122.5 -158l563 -580q82 171 91 414h127q-6 -302 -123 -510l270 -279h-164l-176 178q-176 -204 -483 -204q-230 0 -368 124t-138 328
q0 301 287 475q-95 98 -131.5 179.5t-36.5 177.5q0 168 108.5 264t284.5 96zM627 92q258 0 395 187l-541 552q-233 -150 -233 -395q0 -156 106 -250t273 -94z" />
    <glyph glyph-name="_8" unicode="'" horiz-adv-x="503" 
d="M311 1145h-118v454h118v-454z" />
    <glyph glyph-name="_9" unicode="(" horiz-adv-x="704" 
d="M193 795q0 217 11.5 378t38 275.5t61.5 187.5t90 115t115.5 58t145.5 16v-109q-64 0 -109 -13.5t-85 -51t-65.5 -102t-44 -167.5t-26.5 -246.5t-8 -340.5t8 -341t26.5 -246.5t44 -167.5t65.5 -102t85 -51t109 -14v-109q-85 0 -145.5 16t-115.5 57.5t-90 115t-61.5 187.5
t-38 275.5t-11.5 379.5z" />
    <glyph glyph-name="_10" unicode=")" horiz-adv-x="704" 
d="M512 795q0 -218 -11.5 -379.5t-38 -275.5t-62 -187.5t-90 -115t-115.5 -57.5t-146 -16v109q64 0 109 14t85 51t65.5 102t44 167.5t26.5 246.5t8 341t-8 340.5t-26.5 246.5t-44 167.5t-65.5 102t-85 51t-109 13.5v109q85 0 146 -16t115.5 -58t90 -115t62 -187t38 -275.5
t11.5 -378.5z" />
    <glyph glyph-name="_11" unicode="*" horiz-adv-x="1069" 
d="M434 750l-350 190l59 104l342 -210l-10 401h119l-10 -401l342 210l59 -104l-352 -190l352 -193l-59 -102l-342 207l10 -398h-119l10 398l-342 -207l-59 102z" />
    <glyph glyph-name="_12" unicode="+" horiz-adv-x="1187" 
d="M121 696v107h414v432h118v-432h412v-107h-412v-432h-118v432h-414z" />
    <glyph glyph-name="_13" unicode="," horiz-adv-x="620" 
d="M205 -254v78q51 12 74.5 46t23.5 99v37h-70v221h152v-245q0 -106 -42.5 -161.5t-137.5 -74.5z" />
    <glyph glyph-name="_14" unicode="-" horiz-adv-x="897" 
d="M121 692v115h653v-115h-653z" />
    <glyph glyph-name="_15" unicode="." horiz-adv-x="620" 
d="M385 227v-219h-152v219h152z" />
    <glyph glyph-name="_16" unicode="/" horiz-adv-x="858" 
d="M862 1788l-737 -1991h-129l737 1991h129z" />
    <glyph glyph-name="_17" unicode="0" horiz-adv-x="1241" 
d="M1126 805q0 -269 -35.5 -422t-113.5 -252q-119 -149 -356 -149q-235 0 -357 149q-78 99 -113.5 252t-35.5 422q0 266 36 419.5t113 250.5q123 151 357 151q236 0 356 -151q77 -97 113 -250.5t36 -419.5zM999 805q0 243 -27 379.5t-85 210.5q-92 118 -266 118
q-175 0 -267 -118q-58 -74 -85 -210.5t-27 -379.5q0 -244 27 -381t85 -211q94 -121 267 -121q172 0 266 121q58 74 85 211t27 381z" />
    <glyph glyph-name="_18" unicode="1" horiz-adv-x="1241" 
d="M817 8h-127v1456l-414 -184v127l429 192h112v-1591z" />
    <glyph glyph-name="_19" unicode="2" horiz-adv-x="1241" 
d="M1085 1161q0 -114 -32.5 -197t-122.5 -182l-586 -663h766v-111h-936v105l653 739q70 79 100.5 151t30.5 156q0 156 -91 255t-249 99t-248.5 -99.5t-90.5 -254.5v-45h-127v47q0 128 52 232t160 168.5t254 64.5q111 0 201 -37t147.5 -101t88 -148t30.5 -179z" />
    <glyph glyph-name="_20" unicode="3" horiz-adv-x="1241" 
d="M981 444q0 161 -94.5 258t-257.5 97h-156v110h164q141 0 219 87.5t78 215.5q0 133 -88 217t-230 84q-146 0 -231.5 -83.5t-85.5 -217.5v-28h-127v37q0 175 121 290t323 115t323.5 -115t121.5 -290q0 -139 -67 -236.5t-189 -130.5q138 -32 220.5 -138.5t82.5 -273.5
q0 -212 -135 -336t-357 -124t-357.5 129.5t-135.5 347.5v14h129v-10q0 -170 101.5 -270.5t262.5 -100.5q160 0 262.5 96.5t102.5 255.5z" />
    <glyph glyph-name="_21" unicode="4" horiz-adv-x="1241" 
d="M260 489h545v895zM1145 489v-112h-213v-369h-127v369h-688v112l678 1110h137v-1110h213z" />
    <glyph glyph-name="_22" unicode="5" horiz-adv-x="1241" 
d="M631 928q-101 0 -178 -52t-117 -149h-129l41 872h774v-112h-653l-29 -606q43 73 123 116t186 43q214 0 336.5 -138.5t122.5 -393.5q0 -249 -126.5 -387.5t-350.5 -138.5q-210 0 -333 116.5t-142 325.5h127q17 -163 107 -247.5t241 -84.5q168 0 259 108.5t91 309.5
t-91 309.5t-259 108.5z" />
    <glyph glyph-name="_23" unicode="6" horiz-adv-x="1241" 
d="M1075 1241h-133q-17 136 -99.5 204t-213.5 68q-192 0 -272.5 -155.5t-86.5 -519.5q44 93 141.5 147.5t229.5 54.5q219 0 348 -142.5t129 -387.5q0 -244 -133.5 -386t-353.5 -142q-324 0 -438 284q-54 131 -54 416v35q0 339 52 538t158 285t284 86q187 0 303 -98t139 -287
zM631 94q164 0 262 110.5t98 305.5q0 194 -98.5 306t-261.5 112t-262 -112t-99 -306q0 -195 98.5 -305.5t262.5 -110.5z" />
    <glyph glyph-name="_24" unicode="7" horiz-adv-x="1241" 
d="M154 1487v112h929v-104l-567 -1487h-135l573 1479h-800z" />
    <glyph glyph-name="_25" unicode="8" horiz-adv-x="1241" 
d="M621 -18q-233 0 -374 120.5t-141 331.5q0 158 83.5 266.5t230.5 147.5q-122 39 -194 136.5t-72 232.5q0 184 126.5 296.5t340.5 112.5t340 -112.5t126 -296.5q0 -135 -72 -232.5t-194 -136.5q148 -39 232 -147.5t84 -266.5q0 -211 -141 -331.5t-375 -120.5zM621 905
q152 0 246 82.5t94 220.5t-94 221.5t-246 83.5t-246 -83.5t-94 -221.5t94 -220.5t246 -82.5zM1008 442q0 163 -107 258t-280 95q-172 0 -280 -95t-108 -258t108 -256.5t280 -93.5q173 0 280 93.5t107 256.5z" />
    <glyph glyph-name="_26" unicode="9" horiz-adv-x="1241" 
d="M164 367h133q17 -136 99.5 -204.5t213.5 -68.5q193 0 273.5 155.5t85.5 520.5q-44 -93 -141 -148t-230 -55q-219 0 -348 143t-129 388q0 244 134 386t355 142q156 0 268 -71t169 -214q53 -131 53 -417v-35q0 -255 -28.5 -428.5t-90 -280t-152 -152.5t-221.5 -46
q-188 0 -304.5 98t-139.5 287zM610 1513q-165 0 -262.5 -110.5t-97.5 -304.5q0 -196 97.5 -307t262.5 -111q163 0 261 111t98 307q0 194 -98 304.5t-261 110.5z" />
    <glyph glyph-name="_27" unicode=":" horiz-adv-x="620" 
d="M385 227v-219h-152v219h152zM385 1145v-221h-152v221h152z" />
    <glyph glyph-name="_28" unicode=";" horiz-adv-x="620" 
d="M385 1145v-221h-152v221h152zM205 -254v78q51 12 74.5 46t23.5 99v37h-70v221h152v-245q0 -106 -42.5 -161.5t-137.5 -74.5z" />
    <glyph glyph-name="_29" unicode="&#x3c;" horiz-adv-x="1183" 
d="M1044 1118l-770 -368l770 -369v-125l-907 440v107l907 438v-123z" />
    <glyph glyph-name="_30" unicode="=" horiz-adv-x="1187" 
d="M121 492v108h944v-108h-944zM121 899v109h944v-109h-944z" />
    <glyph glyph-name="_31" unicode="&#x3e;" horiz-adv-x="1183" 
d="M909 750l-772 368v123l907 -438v-107l-907 -440v125z" />
    <glyph glyph-name="_32" unicode="?" horiz-adv-x="1165" 
d="M1020 1188q0 -130 -44 -217.5t-157 -182.5q-119 -99 -154.5 -162.5t-35.5 -158.5v-47h-127v55q0 117 41.5 191t175.5 188q100 86 138 157.5t38 172.5q0 150 -86 239.5t-234 89.5q-147 0 -232 -92.5t-85 -238.5h-127v6q0 193 116 315.5t328 122.5q211 0 328 -123t117 -315
zM633 215v-207h-137v207h137z" />
    <glyph glyph-name="_33" unicode="@" horiz-adv-x="1679" 
d="M1042 1077q128 0 215.5 -48.5t126.5 -133.5q-25 341 -150 485t-394 144q-160 0 -264 -45t-171 -155t-94.5 -283t-27.5 -439q0 -185 14 -325t44.5 -242.5t74 -170.5t108 -108.5t140 -57.5t176.5 -17q164 0 284 69l39 -96q-152 -76 -323 -76q-142 0 -247 31t-187.5 102.5
t-133.5 190t-77.5 291.5t-26.5 409q0 283 36 475t117 316t207 178.5t312 54.5q185 0 310.5 -54.5t207 -178.5t117.5 -316t36 -475v-33q0 -260 -117 -401t-337 -141t-334.5 138.5t-114.5 385.5q0 251 113.5 388.5t320.5 137.5zM1061 131q165 0 250.5 106.5t85.5 313.5
q0 205 -86 312.5t-250 107.5t-249 -107t-85 -313q0 -207 85 -313.5t249 -106.5z" />
    <glyph glyph-name="_34" unicode="A" horiz-adv-x="1347" 
d="M600 1599h145l578 -1591h-139l-142 398h-739l-139 -398h-139zM674 1450l-330 -930h657z" />
    <glyph glyph-name="_35" unicode="B" horiz-adv-x="1341" 
d="M756 8h-588v1591h569q229 0 347 -106t118 -303q0 -146 -67 -238.5t-185 -124.5q145 -28 221 -127.5t76 -259.5q0 -432 -491 -432zM1069 1182q0 150 -87 224.5t-269 74.5h-414v-598h414q182 0 269 74.5t87 224.5zM299 127h428q208 0 298.5 78.5t90.5 238.5
q0 162 -90.5 242t-298.5 80h-428v-639z" />
    <glyph glyph-name="_36" unicode="C" horiz-adv-x="1406" 
d="M717 -18q-292 0 -436 186q-160 201 -160 637q0 434 160 635q147 186 436 186q262 0 411.5 -146t167.5 -399h-133q-15 202 -128 315t-318 113q-216 0 -332 -141q-71 -91 -102 -227.5t-31 -335.5q0 -200 31 -337t102 -228q116 -144 332 -144q205 0 318 113.5t128 316.5h133
q-18 -254 -167.5 -399t-411.5 -145z" />
    <glyph glyph-name="_37" unicode="D" horiz-adv-x="1425" 
d="M711 8h-543v1591h543q136 0 240.5 -42t170 -112.5t107 -174t58 -216t16.5 -249.5q0 -138 -16 -250.5t-57 -216.5t-106.5 -175t-170.5 -113t-242 -42zM1169 805q0 125 -13.5 224t-46.5 185.5t-85.5 144t-135 90t-190.5 32.5h-399v-1354h399q109 0 190.5 32.5t134.5 89.5
t86 144t46.5 186.5t13.5 225.5z" />
    <glyph glyph-name="_38" unicode="E" horiz-adv-x="1173" 
d="M168 8v1591h901v-118h-770v-598h688v-119h-688v-639h780v-117h-911z" />
    <glyph glyph-name="_39" unicode="F" horiz-adv-x="1130" 
d="M168 8v1591h889v-118h-758v-623h688v-117h-688v-733h-131z" />
    <glyph glyph-name="_40" unicode="G" horiz-adv-x="1452" 
d="M717 1509q-103 0 -182 -31.5t-132.5 -89.5t-87 -145.5t-48.5 -194.5t-15 -243q0 -139 15 -247.5t49 -196t87.5 -145t132 -88t181.5 -30.5q213 0 333.5 134t120.5 382v78h-442v117h571v-801h-100l-20 240q-51 -123 -171 -194.5t-296 -71.5q-133 0 -236 41t-169.5 113
t-109 177.5t-60 225.5t-17.5 266q0 145 17.5 264t60 224.5t109.5 177.5t170.5 113.5t238.5 41.5q262 0 411.5 -146t167.5 -399h-133q-15 202 -128 315t-318 113z" />
    <glyph glyph-name="_41" unicode="H" horiz-adv-x="1396" 
d="M1098 8v756h-799v-756h-131v1591h131v-718h799v718h131v-1591h-131z" />
    <glyph glyph-name="_42" unicode="I" horiz-adv-x="468" 
d="M299 1599v-1591h-131v1591h131z" />
    <glyph glyph-name="_43" unicode="J" horiz-adv-x="1161" 
d="M528 98q164 0 251 105t87 303v1093h133v-1103q0 -245 -122 -379.5t-349 -134.5q-231 0 -351 135.5t-120 382.5h131q2 -194 87.5 -298t252.5 -104z" />
    <glyph glyph-name="_44" unicode="K" horiz-adv-x="1255" 
d="M1190 1599l-578 -778l650 -813h-156l-596 756h-211v-756h-131v1591h131v-716h211l526 716h154z" />
    <glyph glyph-name="_45" unicode="L" horiz-adv-x="1112" 
d="M168 8v1591h131v-1474h780v-117h-911z" />
    <glyph glyph-name="_46" unicode="M" horiz-adv-x="1875" 
d="M1010 8h-146l-565 1307v-1307h-131v1591h145l625 -1443l623 1443h145v-1591h-131v1307z" />
    <glyph glyph-name="_47" unicode="N" horiz-adv-x="1421" 
d="M1251 8h-131l-821 1350v-1350h-131v1591h131l821 -1349v1349h131v-1591z" />
    <glyph glyph-name="_48" unicode="O" horiz-adv-x="1437" 
d="M1315 805q0 -435 -158 -637q-148 -186 -438 -186t-438 186q-160 204 -160 637q0 431 160 635q150 186 438 186t438 -186q158 -202 158 -635zM1184 805q0 198 -30.5 335t-100.5 228q-119 141 -334 141q-218 0 -334 -141q-71 -91 -101 -227t-30 -336q0 -201 30 -337.5
t101 -227.5q116 -144 334 -144q215 0 334 144q70 91 100.5 228t30.5 337z" />
    <glyph glyph-name="_49" unicode="P" horiz-adv-x="1318" 
d="M299 745h440q185 0 281 97t96 272q0 174 -96 270.5t-281 96.5h-440v-736zM752 629h-453v-621h-131v1591h584q240 0 367.5 -129t127.5 -356q0 -228 -127 -356.5t-368 -128.5z" />
    <glyph glyph-name="_50" unicode="Q" horiz-adv-x="1433" 
d="M1315 805q0 -386 -125 -590l209 -176l-78 -88l-205 174q-140 -143 -397 -143q-290 0 -438 186q-160 204 -160 637q0 431 160 635q150 186 438 186t438 -186q158 -202 158 -635zM1184 805q0 198 -30.5 335t-100.5 228q-119 141 -334 141q-218 0 -334 -141
q-71 -91 -101 -227t-30 -336q0 -201 30 -337.5t101 -227.5q116 -144 334 -144q189 0 303 111l-254 217l76 88l250 -213q90 168 90 506z" />
    <glyph glyph-name="_51" unicode="R" horiz-adv-x="1366" 
d="M1260 8h-136q-17 43 -24 144l-17 225q-11 151 -88.5 214.5t-263.5 63.5h-432v-647h-131v1591h588q245 0 368 -122t123 -342q0 -338 -282 -420q121 -23 180.5 -101.5t71.5 -234.5l14 -225q9 -94 29 -146zM299 774h444q183 0 278 89.5t95 262.5q0 175 -95 265t-278 90h-444
v-707z" />
    <glyph glyph-name="_52" unicode="S" horiz-adv-x="1277" 
d="M1178 424q0 -193 -139.5 -317.5t-389.5 -124.5t-389 124.5t-139 317.5v47h131v-49q0 -143 106 -234.5t291 -91.5t291.5 91.5t106.5 234.5q0 130 -79 211t-253 117l-205 43q-389 79 -389 411q0 182 131 302t366 120t367.5 -120.5t132.5 -301.5v-35h-131v35
q0 139 -97.5 222t-271.5 83q-172 0 -269 -83t-97 -222q0 -123 74 -195t221 -102l205 -43q217 -44 321.5 -153.5t104.5 -286.5z" />
    <glyph glyph-name="_53" unicode="T" horiz-adv-x="1159" 
d="M35 1481v118h1089v-118h-479v-1473h-131v1473h-479z" />
    <glyph glyph-name="_54" unicode="U" horiz-adv-x="1445" 
d="M721 -18q-145 0 -254 44t-176 125.5t-100 192.5t-33 250v1005h131v-989q0 -253 104.5 -383.5t327.5 -130.5q226 0 330 130.5t104 383.5v989h131v-1005q0 -139 -33 -250t-100 -192.5t-176.5 -125.5t-255.5 -44z" />
    <glyph glyph-name="_55" unicode="V" horiz-adv-x="1347" 
d="M745 8h-145l-575 1591h139l510 -1417l510 1417h139z" />
    <glyph glyph-name="_56" unicode="W" horiz-adv-x="2099" 
d="M1462 8l-411 1381l-414 -1381h-152l-450 1591h135l395 -1402l418 1402h133l418 -1402l395 1402h137l-452 -1591h-152z" />
    <glyph glyph-name="_57" unicode="X" horiz-adv-x="1320" 
d="M1128 8l-469 717l-469 -717h-147l535 813l-506 778h145l442 -679l445 679h145l-506 -778l535 -813h-150z" />
    <glyph glyph-name="_58" unicode="Y" horiz-adv-x="1320" 
d="M35 1599h141l483 -837l484 837h143l-561 -964v-627h-131v627z" />
    <glyph glyph-name="_59" unicode="Z" horiz-adv-x="1185" 
d="M96 115l828 1366h-805v118h958v-108l-827 -1366h840v-117h-994v107z" />
    <glyph glyph-name="_60" unicode="[" horiz-adv-x="735" 
d="M193 -203v1991h446v-109h-322v-1773h322v-109h-446z" />
    <glyph glyph-name="_61" unicode="\" 
d="M1333 8h152l188 768h252v88h-229l180 735h-137l-174 -735h-330l-186 735h-134l-186 -735h-330l-174 735h-135l180 -735h-229v-88h250l188 -768h152l196 768h312zM1116 864h-266l133 525zM422 776h285l-148 -579zM1257 776h285l-137 -579z" />
    <glyph glyph-name="_62" unicode="]" horiz-adv-x="735" 
d="M543 1788v-1991h-447v109h322v1773h-322v109h447z" />
    <glyph glyph-name="_63" unicode="^" horiz-adv-x="931" 
d="M410 1599h112l361 -528h-129l-289 424l-287 -424h-129z" />
    <glyph glyph-name="_64" unicode="_" horiz-adv-x="1136" 
d="M0 -346v86h1137v-86h-1137z" />
    <glyph glyph-name="_65" unicode="`" horiz-adv-x="751" 
d="M444 1303l-258 364h144l235 -364h-121z" />
    <glyph glyph-name="_66" unicode="a" horiz-adv-x="1159" 
d="M901 342q0 119 -86.5 185.5t-255.5 66.5q-167 0 -253.5 -66.5t-86.5 -185.5t86.5 -185.5t253.5 -66.5q169 0 255.5 66.5t86.5 185.5zM901 133q-77 -151 -366 -151q-207 0 -324 95.5t-117 264.5q0 168 117.5 265.5t323.5 97.5q141 0 234.5 -41.5t131.5 -112.5v213
q0 138 -82 218.5t-237 80.5q-145 0 -223.5 -65.5t-92.5 -178.5h-127q16 162 129 257t314 95q216 0 331 -109.5t115 -301.5v-594q0 -92 29 -158h-131q-22 47 -25 125z" />
    <glyph glyph-name="_67" unicode="b" horiz-adv-x="1206" 
d="M270 199v-191h-125v1591h125v-647q40 102 133.5 160.5t235.5 58.5q228 0 347.5 -152.5t119.5 -443.5t-119.5 -442t-347.5 -151q-142 0 -235.5 58t-133.5 159zM981 575q0 488 -354 488q-357 0 -357 -488q0 -485 357 -485q354 0 354 485z" />
    <glyph glyph-name="_68" unicode="c" horiz-adv-x="1140" 
d="M100 575q0 287 121 441.5t361 154.5q200 0 319 -101.5t141 -287.5h-129q-18 134 -102 207.5t-229 73.5q-357 0 -357 -488q0 -240 86.5 -362.5t270.5 -122.5q146 0 229.5 72.5t101.5 206.5h129q-22 -184 -141 -285.5t-319 -101.5q-241 0 -361.5 153.5t-120.5 439.5z" />
    <glyph glyph-name="_69" unicode="d" horiz-adv-x="1206" 
d="M936 8v191q-40 -101 -133 -159t-234 -58q-229 0 -349 151t-120 442t120 443.5t349 152.5q142 0 234.5 -58.5t132.5 -160.5v647h125v-1591h-125zM936 575q0 488 -354 488q-357 0 -357 -488q0 -485 357 -485q354 0 354 485z" />
    <glyph glyph-name="_70" unicode="e" horiz-adv-x="1163" 
d="M1061 539h-836q9 -449 359 -449q271 0 323 248h129q-33 -171 -148 -263.5t-306 -92.5q-240 0 -361 154t-121 439t121 440.5t361 155.5t359.5 -155t119.5 -441v-36zM582 1063q-170 0 -257.5 -108t-95.5 -312h705q-9 204 -96.5 312t-255.5 108z" />
    <glyph glyph-name="_71" unicode="f" horiz-adv-x="743" 
d="M694 1505h-104q-130 0 -175.5 -45t-45.5 -172v-143h325v-109h-325v-1028h-127v1028h-170v109h170v153q0 178 75.5 248t262.5 70q56 0 114 -6v-105z" />
    <glyph glyph-name="_72" unicode="g" horiz-adv-x="1206" 
d="M936 -66v265q-40 -101 -133 -159t-234 -58q-229 0 -349 151t-120 442t120 443.5t349 152.5q142 0 234.5 -58.5t132.5 -160.5v193h125v-1202q0 -211 -117 -337t-336 -126q-191 0 -305.5 91t-136.5 247h127q19 -107 102 -167.5t213 -60.5q154 0 241 91t87 253zM936 575
q0 488 -354 488q-357 0 -357 -488q0 -485 357 -485q354 0 354 485z" />
    <glyph glyph-name="_73" unicode="h" horiz-adv-x="1202" 
d="M1061 711v-703h-125v662q0 202 -75.5 297.5t-225.5 95.5q-160 0 -261 -128.5t-104 -352.5v-574h-125v1591h125v-675q45 114 143 180.5t246 66.5q194 0 298 -121t104 -339z" />
    <glyph glyph-name="_74" unicode="i" horiz-adv-x="438" 
d="M283 8h-127v1137h127v-1137zM283 1391h-127v208h127v-208z" />
    <glyph glyph-name="_75" unicode="j" horiz-adv-x="448" 
d="M293 1145v-1327q0 -158 -69.5 -231.5t-217.5 -73.5q-51 0 -67 2v106h59q84 0 126 44t42 138v1342h127zM293 1391h-127v208h127v-208z" />
    <glyph glyph-name="_76" unicode="k" horiz-adv-x="1021" 
d="M270 8h-125v1591h125v-944h146l393 490h149l-434 -543l486 -594h-154l-442 537h-144v-537z" />
    <glyph glyph-name="_77" unicode="l" horiz-adv-x="438" 
d="M283 8h-127v1591h127v-1591z" />
    <glyph glyph-name="_78" unicode="m" horiz-adv-x="1867" 
d="M1602 8v748q0 152 -71 229.5t-202 77.5q-145 0 -237.5 -129t-92.5 -359v-567h-127v748q0 152 -70 229.5t-202 77.5q-145 0 -237.5 -129t-92.5 -359v-567h-125v1137h125v-217q39 115 130 179t223 64q134 0 227 -68t125 -194q100 262 379 262q179 0 277 -107t98 -306v-750
h-127z" />
    <glyph glyph-name="_79" unicode="n" horiz-adv-x="1202" 
d="M1061 711v-703h-125v662q0 202 -75.5 297.5t-225.5 95.5q-160 0 -261 -128.5t-104 -352.5v-574h-125v1137h125v-221q45 114 143 180.5t246 66.5q194 0 298 -121t104 -339z" />
    <glyph glyph-name="_80" unicode="o" horiz-adv-x="1163" 
d="M1061 575q0 -284 -119.5 -438.5t-359.5 -154.5t-361 154.5t-121 438.5q0 285 121 440.5t361 155.5t359.5 -155t119.5 -441zM225 575q0 -485 357 -485q354 0 354 485q0 488 -354 488q-357 0 -357 -488z" />
    <glyph glyph-name="_81" unicode="p" horiz-adv-x="1206" 
d="M270 199v-686h-125v1632h125v-193q40 102 133.5 160.5t235.5 58.5q228 0 347.5 -152.5t119.5 -443.5t-119.5 -442t-347.5 -151q-142 0 -235.5 58t-133.5 159zM270 575q0 -485 357 -485q354 0 354 485q0 488 -354 488q-357 0 -357 -488z" />
    <glyph glyph-name="_82" unicode="q" horiz-adv-x="1206" 
d="M936 -487v686q-40 -101 -133 -159t-234 -58q-229 0 -349 151t-120 442t120 443.5t349 152.5q142 0 234.5 -58.5t132.5 -160.5v193h125v-1632h-125zM936 575q0 488 -354 488q-357 0 -357 -488q0 -485 357 -485q354 0 354 485z" />
    <glyph glyph-name="_83" unicode="r" horiz-adv-x="731" 
d="M608 1061q-158 0 -248 -121.5t-90 -357.5v-574h-125v1137h125v-219q76 245 340 245q57 0 84 -8l-2 -106q-36 4 -84 4z" />
    <glyph glyph-name="_84" unicode="s" horiz-adv-x="1048" 
d="M588 520l-139 29q-182 36 -261 109t-79 200q0 135 107.5 224t295.5 89q185 0 294 -87.5t109 -225.5v-35h-127v35q0 90 -73.5 147.5t-202.5 57.5q-130 0 -203 -57t-73 -148q0 -80 56 -126.5t185 -72.5l139 -28q182 -38 261 -113t79 -211q0 -146 -116.5 -235.5
t-311.5 -89.5q-193 0 -310.5 89t-117.5 236v41h125v-41q0 -99 84.5 -158t218.5 -59t218.5 59t84.5 158q0 88 -56 137.5t-187 75.5z" />
    <glyph glyph-name="_85" unicode="t" horiz-adv-x="774" 
d="M352 1036v-712q0 -129 55.5 -176.5t180.5 -47.5h112v-106q-43 -2 -129 -2q-184 0 -264 68.5t-80 242.5v733h-172v109h172v323h125v-323h348v-109h-348z" />
    <glyph glyph-name="_86" unicode="u" horiz-adv-x="1202" 
d="M139 442v703h127v-664q0 -203 74.5 -297t226.5 -94q160 0 261 128t102 351v576h127v-1137h-127v219q-45 -114 -142 -179.5t-245 -65.5q-195 0 -299.5 120t-104.5 340z" />
    <glyph glyph-name="_87" unicode="v" horiz-adv-x="1122" 
d="M41 1145h133l387 -989l387 989h133l-448 -1137h-144z" />
    <glyph glyph-name="_88" unicode="w" horiz-adv-x="1781" 
d="M821 1145h137l328 -979l328 979h133l-389 -1137h-139l-328 977l-328 -977h-139l-389 1137h131l328 -979z" />
    <glyph glyph-name="_89" unicode="x" horiz-adv-x="1038" 
d="M874 8l-356 490l-354 -490h-144l422 582l-399 555h143l332 -463l334 463h143l-399 -555l422 -582h-144z" />
    <glyph glyph-name="_90" unicode="y" horiz-adv-x="1124" 
d="M399 -240l99 246l-457 1139h133l389 -981l385 981h135l-567 -1421q-50 -126 -115.5 -168.5t-181.5 -42.5q-39 0 -57 2v106h47q76 0 117 27.5t73 111.5z" />
    <glyph glyph-name="_91" unicode="z" horiz-adv-x="997" 
d="M893 1145v-103l-651 -925h667v-109h-821v101l651 927h-633v109h787z" />
    <glyph glyph-name="_92" unicode="{" horiz-adv-x="757" 
d="M96 737v109h41q69 0 105.5 40.5t36.5 112.5v433q0 187 80.5 271.5t246.5 84.5h56v-109h-41q-116 0 -167 -60.5t-51 -199.5v-430q0 -161 -131 -196q131 -38 131 -199v-430q0 -139 51 -198.5t167 -59.5h41v-109h-56q-166 0 -246.5 84.5t-80.5 272.5v430q0 73 -36 113
t-106 40h-41z" />
    <glyph glyph-name="_93" unicode="|" horiz-adv-x="606" 
d="M240 -203v1991h125v-1991h-125z" />
    <glyph glyph-name="_94" unicode="}" horiz-adv-x="757" 
d="M662 846v-109h-41q-70 0 -106 -40t-36 -113v-430q0 -188 -81.5 -272.5t-247.5 -84.5h-54v109h41q116 0 166.5 59.5t50.5 198.5v430q0 161 131 199q-131 35 -131 196v430q0 139 -50.5 199.5t-166.5 60.5h-41v109h54q166 0 247.5 -84.5t81.5 -271.5v-433q0 -72 36.5 -112.5
t105.5 -40.5h41z" />
    <glyph glyph-name="_95" unicode="~" horiz-adv-x="1183" 
d="M786 575q-64 0 -114 25t-80.5 60.5t-57.5 71t-60.5 60.5t-74.5 25q-132 0 -135 -227h-117q0 159 64.5 246.5t185.5 87.5q64 0 114 -25t80 -60.5t56.5 -71t60 -60.5t74.5 -25q133 0 136 229h118q-2 -161 -66 -248.5t-184 -87.5z" />
    <glyph glyph-name="_208" unicode="&#xa1;" horiz-adv-x="612" 
d="M252 680l-14 -868v-261h133v261l-13 868h-106zM377 1145h-141v-207h141v207z" />
    <glyph glyph-name="_214" unicode="&#xa4;" horiz-adv-x="1433" 
d="M1219 750q0 184 -117 317l223 225l-86 84l-225 -229q-132 96 -295 96q-167 0 -299 -96l-227 229l-84 -84l223 -225q-117 -133 -117 -317q0 -188 117 -318l-223 -225l84 -82l227 223q133 -90 299 -90q162 0 295 90l225 -223l86 82l-223 225q117 130 117 318zM1100 750
q0 -176 -110.5 -282t-272.5 -106q-161 0 -272 106t-111 282q0 177 111 283t272 106q162 0 272.5 -105.5t110.5 -283.5z" />
    <glyph glyph-name="_155" unicode="&#xa7;" 
d="M543 713q0 -87 25.5 -149.5t85 -109.5t140.5 -80.5t207 -66.5q139 -36 203 -100t64 -162q0 -106 -75.5 -168.5t-201.5 -62.5q-123 0 -199.5 64t-76.5 167v18h-129v-20q0 -150 108 -242t297 -92q188 0 296 92t108 242q0 104 -44 177t-143 126q104 47 157.5 128t53.5 185
q0 62 -10.5 109t-37 84.5t-59 65.5t-89.5 54t-114.5 46t-147.5 47q-143 43 -205 104.5t-62 161.5q0 106 75.5 169t201.5 63q122 0 199 -64.5t77 -167.5v-18h129v20q0 150 -108.5 243t-296.5 93q-189 0 -297.5 -93t-108.5 -243q0 -108 44 -181.5t143 -125.5
q-102 -46 -155.5 -128t-53.5 -185zM893 969q229 -55 313 -119.5t84 -196.5q0 -85 -47.5 -152.5t-144.5 -107.5q-85 25 -125.5 37.5t-97 33t-80.5 35.5t-54.5 37.5t-41 48t-19 58.5t-8.5 76q0 90 55 161t166 89z" />
    <glyph glyph-name="_107" unicode="&#xa8;" horiz-adv-x="1228" 
d="M463 1604h-150v-224h150v224zM913 1604h-149v-224h149v224z" />
    <glyph glyph-name="_668" unicode="&#xaa;" horiz-adv-x="897" 
d="M403 745q92 0 160 31t94 90q0 -70 17 -100h117q-19 51 -19 115v456q0 127 -82.5 205t-236.5 78q-151 0 -231.5 -71.5t-86.5 -190.5h117q3 80 54 125t147 45q102 0 153 -49.5t51 -139.5v-188q-27 60 -95 91.5t-163 31.5q-140 0 -222.5 -68t-82.5 -196t83 -196.5t226 -68.5
zM432 836q-107 0 -165 45.5t-58 128.5q0 82 58 127t165 45q108 0 166.5 -45t58.5 -127q0 -83 -58.5 -128.5t-166.5 -45.5zM78 504h743v98h-743v-98z" />
    <glyph glyph-name="_18155" unicode="&#xad;" horiz-adv-x="892" 
d="M121 692h653v115h-653v-115z" />
    <glyph glyph-name="_18156" unicode="&#xae;" horiz-adv-x="1024" 
d="M512 776q180 0 305 127t125 324q0 196 -125 323t-305 127t-305 -127t-125 -323q0 -197 125 -324t305 -127zM512 856q-147 0 -244.5 104t-97.5 267q0 162 97.5 266t244.5 104q146 0 243 -104t97 -266q0 -163 -97 -267t-243 -104zM721 991q-12 29 -16 92l-3 25
q-2 27 -6.5 43.5t-17.5 33t-35 25.5q32 12 52 45.5t20 79.5q0 73 -43.5 111.5t-128.5 38.5h-205v-494h86v183h131q33 0 45.5 -15t15.5 -53l2 -23q4 -56 17 -92h86zM424 1245v168h115q88 0 88 -80q0 -39 -24.5 -63.5t-63.5 -24.5h-115z" />
    <glyph glyph-name="_138" unicode="&#xb0;" horiz-adv-x="817" 
d="M713 1313q0 136 -82 222.5t-221 86.5t-221.5 -86.5t-82.5 -222.5t82.5 -221.5t221.5 -85.5t221 85.5t82 221.5zM612 1313q0 -97 -56.5 -156t-145.5 -59q-88 0 -145.5 59t-57.5 156t57.5 156t145.5 59q89 0 145.5 -59t56.5 -156z" />
    <glyph glyph-name="_130" unicode="&#xb1;" horiz-adv-x="1187" 
d="M121 866h414v-430h118v430h414v109h-414v432h-118v-432h-414v-109zM121 109h946v108h-946v-108z" />
    <glyph glyph-name="_843" unicode="&#xb2;" horiz-adv-x="829" 
d="M621 1296q0 -56 -17.5 -97t-56.5 -85l-436 -481v-88h624v100h-471l361 395q61 67 86.5 124.5t25.5 133.5q0 146 -87.5 235t-235.5 89q-151 0 -238.5 -89t-87.5 -235v-32h117v30q0 96 55 159t154 63q98 0 152.5 -63t54.5 -159z" />
    <glyph glyph-name="_844" unicode="&#xb3;" horiz-adv-x="829" 
d="M614 1333q0 -88 -53.5 -136t-138.5 -48h-98v-98h98q96 0 156.5 -56.5t60.5 -156.5q0 -94 -61 -153.5t-162 -59.5q-104 0 -166 60t-62 155v45h-114v-45q0 -135 90 -224.5t252 -89.5q157 0 248.5 89.5t91.5 220.5q0 107 -53 174t-150 92q89 26 131.5 91.5t42.5 147.5
q0 124 -85.5 202.5t-225.5 78.5q-142 0 -229 -79.5t-87 -201.5v-30h115v22q0 87 54 138t147 51q91 0 144.5 -51t53.5 -138z" />
    <glyph glyph-name="_199" unicode="&#xb4;" horiz-adv-x="753" 
d="M569 1671h-147l-236 -366h119z" />
    <glyph glyph-name="_244" unicode="&#xb6;" 
d="M1001 1604q-217 0 -340.5 -128t-123.5 -356v-16q0 -226 137 -357t354 -131h64v-909h96v1804h104v-1804h97v1897h-388z" />
    <glyph glyph-name="_18157" unicode="&#xb7;" horiz-adv-x="819" 
d="M483 981h-149v-223h149v223z" />
    <glyph glyph-name="_206" unicode="&#xb8;" horiz-adv-x="757" 
d="M135 -463q43 -33 105 -52.5t125 -19.5q120 0 188 58t68 153q0 89 -61.5 145t-164.5 56q-30 0 -51 -6l68 135h-101l-90 -180l31 -33q42 17 94 17q78 0 123 -33.5t45 -98.5q0 -56 -40 -88t-116 -32q-106 0 -176 61z" />
    <glyph glyph-name="_842" unicode="&#xb9;" horiz-adv-x="829" 
d="M506 545v1059h-100l-240 -113v-105l223 107v-948h117z" />
    <glyph glyph-name="_675" unicode="&#xba;" horiz-adv-x="899" 
d="M803 1182q0 219 -90 329.5t-262 110.5q-173 0 -264 -110.5t-91 -329.5q0 -220 90.5 -330.5t264.5 -110.5q172 0 262 110.5t90 330.5zM688 1182q0 -184 -58 -266t-179 -82q-124 0 -182 81.5t-58 266.5q0 182 58.5 264t181.5 82q121 0 179 -82t58 -264zM78 506h743v96h-743
v-96z" />
    <glyph glyph-name="_751" unicode="&#xbc;" 
d="M1253 330l377 565v-565h-377zM1866 330h-123v735h-125l-490 -743v-91h502v-225h113v225h123v99zM459 545v1059h-101l-237 -113v-105l223 107v-948h115zM1352 1604h-115l-778 -1598h112z" />
    <glyph glyph-name="_748" unicode="&#xbd;" 
d="M459 545v1059h-101l-237 -113v-105l223 107v-948h115zM1331 1604h-114l-779 -1598h113zM1722 758q0 -55 -17.5 -97t-57.5 -86l-437 -481v-88h625v100h-471l360 396q61 67 87 125t26 133q0 146 -88 234.5t-238 88.5q-148 0 -235.5 -88.5t-87.5 -234.5v-31h117v29
q0 96 54.5 158.5t151.5 62.5q99 0 155 -62.5t56 -158.5z" />
    <glyph glyph-name="_752" unicode="&#xbe;" 
d="M598 1333q0 -88 -54.5 -136t-140.5 -48h-96v-98h96q98 0 159 -56.5t61 -156.5q0 -94 -61.5 -153.5t-164.5 -59.5t-164 60t-61 155v45h-115v-45q0 -135 89.5 -224.5t250.5 -89.5q158 0 249 89t91 221q0 107 -52 174t-148 92q89 26 131.5 91.5t42.5 147.5
q0 124 -86.5 202.5t-227.5 78.5q-142 0 -227.5 -79.5t-85.5 -201.5v-30h113v22q0 86 54 137.5t146 51.5q93 0 147 -50.5t54 -138.5zM1444 1604h-113l-778 -1598h113zM1253 330l377 565v-565h-377zM1866 330h-123v735h-125l-490 -743v-91h502v-225h113v225h123v99z" />
    <glyph glyph-name="_209" unicode="&#xbf;" horiz-adv-x="1167" 
d="M143 -35q0 -126 49.5 -224t152.5 -157t245 -59q211 0 327.5 123t116.5 317v15h-127q0 -151 -83.5 -246.5t-233.5 -95.5q-148 0 -234 90t-86 239q0 100 39 171t140 159q130 113 171.5 188t41.5 193v55h-125v-47q0 -95 -36.5 -159t-156.5 -165q-113 -97 -157 -183t-44 -214
zM532 938h136v207h-136v-207z" />
    <glyph glyph-name="_666" unicode="&#xc6;" horiz-adv-x="1961" 
d="M879 1602l-895 -1594h141l225 395h604v-395h914v117h-783v639h691v117h-691v604h773v117h-979zM414 520l540 959v-959h-540z" />
    <glyph glyph-name="_667" unicode="&#xd0;" horiz-adv-x="1435" 
d="M20 754h156v-746h545q137 0 241.5 41.5t170.5 111.5t107.5 174t58 217.5t16.5 252.5q0 137 -16.5 249.5t-58 217t-107.5 175.5t-170.5 113t-241.5 42h-545v-748h-156v-100zM711 1485q107 0 188.5 -32.5t135 -89.5t86.5 -143.5t47 -187t14 -227.5q0 -161 -22 -279
t-74 -211.5t-145.5 -141.5t-229.5 -48h-404v629h342v100h-342v631h404z" />
    <glyph glyph-name="_131" unicode="&#xd7;" horiz-adv-x="1187" 
d="M936 324l80 79l-342 347l342 346l-80 78l-342 -347l-342 347l-80 -78l344 -346l-344 -347l80 -79l342 346z" />
    <glyph glyph-name="_673" unicode="&#xd8;" horiz-adv-x="1437" 
d="M279 -66l86 152q131 -104 350 -104q133 0 235.5 39t171 108.5t112 173.5t62.5 227t19 275q0 212 -38.5 369t-127.5 276l129 225h-123l-86 -151q-134 104 -354 104q-133 0 -235.5 -40t-170 -111t-111 -176t-61.5 -226t-18 -270q0 -213 39 -368.5t125 -276.5l-125 -226h121
zM250 805q0 131 13.5 235t46 194t85 150t133.5 93.5t187 33.5q186 0 293 -98l-656 -1134q-102 163 -102 526zM1184 805q0 -132 -13 -235.5t-46 -194t-85.5 -150t-134 -93.5t-190.5 -34q-177 0 -289 92l653 1137q105 -173 105 -522z" />
    <glyph glyph-name="_676" unicode="&#xde;" horiz-adv-x="1323" 
d="M301 8v309h453q241 0 369 130t128 358q0 227 -128 356t-369 129h-453v312h-133v-1594h133zM301 434v740h442q183 0 279 -97t96 -272q0 -176 -96 -273.5t-279 -97.5h-442z" />
    <glyph glyph-name="_768" unicode="&#xdf;" horiz-adv-x="1290" 
d="M1217 406q0 92 -32.5 166.5t-87 123t-120.5 77.5t-139 38q136 26 217.5 124.5t81.5 235.5q0 96 -33.5 179.5t-96 146t-157 98t-209.5 35.5q-233 0 -365.5 -131.5t-132.5 -339.5v-1153h133v1153q0 162 98.5 258t266.5 96q165 0 264 -95.5t99 -250.5q0 -61 -18.5 -112.5
t-58 -94.5t-110.5 -67.5t-166 -24.5h-61v-114h49q206 0 326 -91.5t120 -252.5q0 -148 -94 -231t-260 -83q-105 0 -192 23v-117q78 -22 198 -22q222 0 351 114.5t129 311.5z" />
    <glyph glyph-name="_757" unicode="&#xe6;" horiz-adv-x="1988" 
d="M911 342q0 -120 -87 -187t-255 -67q-167 0 -253.5 66.5t-86.5 187.5q0 120 86.5 187t253.5 67t254.5 -67.5t87.5 -186.5zM1395 1065q336 0 352 -424h-707q16 424 355 424zM590 1171q-202 0 -315 -94.5t-125 -257.5h129q11 116 88.5 181t222.5 65q155 0 238 -82.5
t83 -224.5v-213q-37 75 -133.5 117.5t-236.5 42.5q-206 0 -322.5 -97.5t-116.5 -265.5t118.5 -264t336.5 -96q172 0 282.5 60.5t153.5 172.5q49 -114 153.5 -173.5t250.5 -59.5q191 0 307.5 94t146.5 262h-129q-25 -121 -107 -185.5t-218 -64.5q-178 0 -268.5 117t-90.5 338
h838v32q0 287 -120 441.5t-361 154.5q-303 0 -402 -249q-38 120 -143 184.5t-260 64.5z" />
    <glyph glyph-name="_759" unicode="&#xf0;" horiz-adv-x="1165" 
d="M1063 575q0 330 -66 540.5t-223 348.5l162 95l-45 73l-191 -114q-92 66 -272 139l-78 -94q140 -52 238 -113l-180 -104l45 -74l211 127q180 -132 229 -391q-91 163 -330 163q-227 0 -345 -152t-118 -444q0 -287 120 -440t362 -153q244 0 362.5 153t118.5 440zM936 575
q0 -239 -85 -363t-269 -124q-185 0 -271 124t-86 363t86 364.5t271 125.5q184 0 269 -125.5t85 -364.5z" />
    <glyph glyph-name="_132" unicode="&#xf7;" horiz-adv-x="1187" 
d="M121 696h946v107h-946v-107zM662 1237h-138v-217h138v217zM662 477h-138v-215h138v215z" />
    <glyph glyph-name="_766" unicode="&#xf8;" horiz-adv-x="1165" 
d="M274 -80l66 117q98 -55 242 -55q242 0 362.5 153.5t120.5 439.5q0 333 -160 484l96 174h-112l-66 -117q-98 55 -241 55q-241 0 -361.5 -154.5t-120.5 -441.5q0 -336 158 -481l-96 -174h112zM227 575q0 240 85 365t270 125q111 0 188 -47l-453 -813q-90 124 -90 370z
M938 575q0 -239 -85.5 -363t-270.5 -124q-111 0 -191 47l453 811q94 -117 94 -371z" />
    <glyph glyph-name="_769" unicode="&#xfe;" horiz-adv-x="1208" 
d="M1108 575q0 292 -119 444t-348 152q-142 0 -236 -61.5t-135 -173.5v666h-127v-2089h127v702q41 -110 135.5 -171.5t235.5 -61.5q229 0 348 151.5t119 441.5zM979 575q0 -240 -84.5 -363.5t-269.5 -123.5t-270 124t-85 363q0 240 85 365t270 125t269.5 -125t84.5 -365z
" />
    <glyph glyph-name="_758" unicode="&#x111;" horiz-adv-x="1218" 
d="M1196 1331v101h-133v170h-127v-170h-363v-101h363v-395q-39 112 -133.5 173.5t-237.5 61.5q-230 0 -347.5 -151.5t-117.5 -444.5q0 -291 117.5 -442t347.5 -151q142 0 237 61.5t134 171.5v-207h127v1323h133zM936 575q0 -239 -85 -363t-269 -124q-185 0 -271 124t-86 363
t86 364.5t271 125.5q184 0 269 -125.5t85 -364.5z" />
    <glyph glyph-name="_669" unicode="&#x126;" horiz-adv-x="1421" 
d="M1399 1331h-156v271h-133v-271h-801v271h-133v-271h-156v-100h156v-1223h133v756h801v-756h133v1223h156v100zM309 883v348h801v-348h-801z" />
    <glyph glyph-name="_760" unicode="&#x127;" horiz-adv-x="1212" 
d="M279 8v582q3 221 105.5 348t262.5 127q297 0 297 -383v-674h127v701q0 221 -102.5 341.5t-294.5 120.5q-150 0 -250.5 -71t-144.5 -197v428h364v101h-364v170h-125v-170h-134v-101h134v-1323h125z" />
    <glyph glyph-name="_761" unicode="&#x131;" horiz-adv-x="438" 
d="M285 6v1141h-129v-1141h129z" />
    <glyph glyph-name="_670" unicode="&#x132;" horiz-adv-x="1644" 
d="M301 1602h-133v-1594h133v1594zM1010 -18q229 0 352 135t123 377v1108h-133v-1096q0 -200 -87 -305t-253 -105q-163 0 -251.5 106t-88.5 298h-133q0 -247 121 -382.5t350 -135.5z" />
    <glyph glyph-name="_762" unicode="&#x133;" horiz-adv-x="894" 
d="M285 6v1141h-129v-1141h129zM285 1395v209h-129v-209h129zM739 1147h-127v-1348q0 -94 -42 -137t-126 -43h-61v-104q18 -2 72 -2q144 0 214 71.5t70 222.5v1340zM739 1395v209h-127v-209h127z" />
    <glyph glyph-name="_763" unicode="&#x138;" horiz-adv-x="1026" 
d="M272 6v543h146l444 -543h152l-488 596l437 545h-148l-397 -492h-146v492h-129v-1141h129z" />
    <glyph glyph-name="_671" unicode="&#x13f;" horiz-adv-x="1116" 
d="M168 6h915v117h-782v1481h-133v-1598zM793 944h-156v-158h156v158z" />
    <glyph glyph-name="_764" unicode="&#x140;" horiz-adv-x="608" 
d="M285 6v1598h-129v-1598h129zM588 944h-156v-158h156v158z" />
    <glyph glyph-name="_672" unicode="&#x141;" horiz-adv-x="1124" 
d="M39 549l137 72v-615h916v117h-783v567l449 236v112l-449 -235v801h-133v-871l-137 -71v-113z" />
    <glyph glyph-name="_765" unicode="&#x142;" horiz-adv-x="587" 
d="M356 8v778l189 97v102l-189 -98v715h-127v-783l-188 -94v-102l188 94v-709h127z" />
    <glyph glyph-name="_772" unicode="&#x149;" horiz-adv-x="1232" 
d="M299 8v582q3 221 105.5 348t263.5 127q148 0 222.5 -93.5t74.5 -289.5v-674h127v701q0 221 -103 341.5t-295 120.5q-150 0 -249.5 -70.5t-145.5 -197.5v242h-127v-1137h127zM66 1380h55q0 -152 -101 -176v-80q93 23 138 79.5t45 166.5v232h-137v-222z" />
    <glyph glyph-name="_678" unicode="&#x14a;" horiz-adv-x="1425" 
d="M1255 1602h-133v-1362l-821 1362h-133v-1594h133v1360l821 -1362v-192q0 -96 -42 -140.5t-126 -44.5h-55v-112q36 -4 70 -4q286 0 286 299v1790z" />
    <glyph glyph-name="_771" unicode="&#x14b;" horiz-adv-x="1202" 
d="M270 8v582q0 220 103.5 347.5t263.5 127.5q149 0 223 -93.5t74 -289.5v-879q0 -96 -41.5 -140t-126.5 -44h-59v-100q27 -6 69 -6q156 0 221.5 80t65.5 264v852q0 221 -103 341.5t-296 120.5q-149 0 -249.5 -71t-144.5 -197v242h-127v-1137h127z" />
    <glyph glyph-name="_674" unicode="&#x152;" horiz-adv-x="2109" 
d="M119 805q0 -137 16.5 -249.5t58 -216.5t107 -175.5t170 -113.5t240.5 -42h1304v117h-782v639h690v117h-690v604h772v117h-1294q-136 0 -240.5 -42t-170 -113.5t-107 -175.5t-58 -216.5t-16.5 -249.5zM1100 1485v-1360h-377q-109 0 -191 32t-135 89t-86.5 143.5t-47 187
t-13.5 228.5q0 127 14 227.5t47.5 187t87 143.5t135.5 89.5t189 32.5h377z" />
    <glyph glyph-name="_767" unicode="&#x153;" horiz-adv-x="2025" 
d="M1434 88q-179 0 -265.5 115.5t-95.5 339.5h838q2 10 2 32q0 287 -120.5 441.5t-360.5 154.5q-161 0 -268.5 -73t-153.5 -211q-46 138 -154 211t-268 73q-239 0 -358 -154.5t-119 -441.5t119 -440t358 -153q158 0 267 72.5t155 207.5q48 -136 155 -208t267 -72
q191 0 308 94t148 262h-129q-25 -121 -107 -185.5t-218 -64.5zM1430 1065q338 0 354 -424h-709q16 424 355 424zM946 575q0 -239 -85 -363t-269 -124q-185 0 -270.5 124t-85.5 363q0 240 85.5 365t270.5 125q184 0 269 -125.5t85 -364.5z" />
    <glyph glyph-name="_677" unicode="&#x166;" horiz-adv-x="1165" 
d="M246 772h270v-766h131v766h273v100h-273v615h481v117h-1093v-117h481v-615h-270v-100z" />
    <glyph glyph-name="_770" unicode="&#x167;" horiz-adv-x="778" 
d="M94 668v-101h131v-262q0 -174 82 -243.5t266 -69.5q86 0 129 4v102h-112q-126 0 -182 46.5t-56 174.5v248h295v101h-295v370h350v107h-350v323h-127v-323h-170v-107h170v-370h-131z" />
    <glyph glyph-name="_8275" unicode="&#x2bc;" horiz-adv-x="983" 
d="M184 1634q0 60 28.5 87.5t88.5 27.5q61 0 88 -27.5t27 -87.5q0 -298 -287 -356l-27 61q157 47 197 179q-59 0 -87 27.5t-28 88.5z" />
    <glyph glyph-name="_201" unicode="&#x2c7;" horiz-adv-x="772" 
d="M440 1305l285 366h-123l-217 -264l-217 264h-121l283 -366h110z" />
    <glyph glyph-name="_18158" unicode="&#x2d0;" horiz-adv-x="1024" 
d="M516 1016l182 287h-372zM326 160h372l-182 286z" />
    <glyph glyph-name="_202" unicode="&#x2d8;" horiz-adv-x="770" 
d="M385 1313q150 0 234.5 88t93.5 250h-119q-12 -238 -209 -238q-199 0 -211 238h-117q9 -162 93.5 -250t234.5 -88z" />
    <glyph glyph-name="_205" unicode="&#x2d9;" horiz-adv-x="737" 
d="M446 1561h-155v-158h155v158z" />
    <glyph glyph-name="_204" unicode="&#x2da;" horiz-adv-x="757" 
d="M618 1487q0 108 -66.5 171.5t-170.5 63.5q-105 0 -173.5 -63.5t-68.5 -171.5t68.5 -173t173.5 -65q103 0 170 65t67 173zM518 1487q0 -70 -37.5 -110t-99.5 -40q-64 0 -102.5 40t-38.5 110q0 68 38.5 108.5t102.5 40.5q62 0 99.5 -40.5t37.5 -108.5z" />
    <glyph glyph-name="_207" unicode="&#x2db;" horiz-adv-x="757" 
d="M324 6q-86 -43 -137.5 -115.5t-51.5 -150.5v-14q0 -100 69.5 -159t190.5 -59q145 0 228 80l-50 74q-68 -59 -172 -59q-77 0 -118 35.5t-41 99.5v8q0 71 50.5 139.5t158.5 120.5h-127z" />
    <glyph glyph-name="_203" unicode="&#x2dd;" horiz-adv-x="772" 
d="M408 1671h-132l-225 -366h111zM719 1671h-131l-246 -366h111z" />
    <glyph glyph-name="_471" unicode="&#x391;" horiz-adv-x="1351" 
d="M162 8l141 395h741l142 -395h139l-577 1594h-148l-577 -1594h139zM342 520l332 934l330 -934h-662z" />
    <glyph glyph-name="_472" unicode="&#x392;" horiz-adv-x="1343" 
d="M301 885v602h414q183 0 270.5 -75.5t87.5 -227.5q0 -149 -87.5 -224t-270.5 -75h-414zM762 6q489 0 489 434q0 163 -78 264t-229 127q121 27 191.5 120t70.5 243q0 198 -117 304t-346 106h-575v-1598h594zM1118 444q0 -161 -90.5 -241t-296.5 -80h-430v645h430
q207 0 297 -80.5t90 -243.5z" />
    <glyph glyph-name="_473" unicode="&#x393;" horiz-adv-x="1085" 
d="M168 1604v-1598h133v1481h760v117h-893z" />
    <glyph glyph-name="_474" unicode="&#x394;" horiz-adv-x="1351" 
d="M1325 8l-577 1594h-148l-577 -1594h1302zM1147 125h-946l473 1329z" />
    <glyph glyph-name="_475" unicode="&#x395;" horiz-adv-x="1175" 
d="M168 6h915v117h-782v643h688v117h-688v604h770v117h-903v-1598z" />
    <glyph glyph-name="_476" unicode="&#x396;" horiz-adv-x="1191" 
d="M96 115v-109h998v117h-840l829 1372v109h-964v-117h807z" />
    <glyph glyph-name="_477" unicode="&#x397;" horiz-adv-x="1402" 
d="M1102 6h133v1598h-133v-721h-801v721h-133v-1598h133v760h801v-760z" />
    <glyph glyph-name="_478" unicode="&#x398;" horiz-adv-x="1437" 
d="M1184 805q0 -132 -13 -236t-46 -194.5t-85.5 -150t-134 -93t-190.5 -33.5q-107 0 -187.5 33.5t-133 93t-85 150t-46 194.5t-13.5 236q0 131 14 236t47 194.5t85.5 149t133 93t185.5 33.5q107 0 188.5 -33.5t134.5 -93t86 -149.5t46.5 -194t13.5 -236zM119 805
q0 -150 18.5 -272t61.5 -226.5t111 -175t170 -110t235 -39.5q135 0 238.5 40t171.5 110t111 175t61 226.5t18 271.5q0 148 -17.5 268t-60.5 225.5t-110.5 176.5t-171.5 112t-240 41q-134 0 -237 -40.5t-170.5 -111.5t-110 -176.5t-60.5 -226t-18 -268.5zM465 745h504v115
h-504v-115z" />
    <glyph glyph-name="_479" unicode="&#x399;" horiz-adv-x="468" 
d="M301 1604h-133v-1598h133v1598z" />
    <glyph glyph-name="_480" unicode="&#x39a;" horiz-adv-x="1261" 
d="M1194 1604h-152l-532 -721h-209v721h-133v-1598h133v760h209l600 -760h156l-648 817z" />
    <glyph glyph-name="_481" unicode="&#x39b;" horiz-adv-x="1351" 
d="M1188 6h137l-575 1598h-150l-577 -1598h139l514 1450z" />
    <glyph glyph-name="_482" unicode="&#x39c;" horiz-adv-x="1880" 
d="M1012 6l567 1313v-1313h133v1598h-145l-627 -1448l-625 1448h-147v-1598h133v1313l567 -1313h144z" />
    <glyph glyph-name="_483" unicode="&#x39d;" horiz-adv-x="1425" 
d="M1257 6v1598h-133v-1356l-823 1356h-133v-1598h133v1356l823 -1356h133z" />
    <glyph glyph-name="_484" unicode="&#x39e;" horiz-adv-x="1243" 
d="M104 1487h1037v117h-1037v-117zM92 6h1059v117h-1059v-117zM184 766h875v117h-875v-117z" />
    <glyph glyph-name="_485" unicode="&#x39f;" horiz-adv-x="1437" 
d="M1184 805q0 -132 -13 -236t-46 -194.5t-85.5 -150t-134 -93t-190.5 -33.5q-107 0 -187.5 33.5t-133 93t-85 150t-46 194.5t-13.5 236q0 131 14 236t47 194.5t85.5 149t133 93t185.5 33.5q107 0 188.5 -33.5t134.5 -93t86 -149.5t46.5 -194t13.5 -236zM119 805
q0 -150 18.5 -272t61.5 -226.5t111 -175t170 -110t235 -39.5q135 0 238.5 40t171.5 110t111 175t61 226.5t18 271.5q0 148 -17.5 268t-60.5 225.5t-110.5 176.5t-171.5 112t-240 41q-134 0 -237 -40.5t-170.5 -111.5t-110 -176.5t-60.5 -226t-18 -268.5z" />
    <glyph glyph-name="_486" unicode="&#x3a0;" horiz-adv-x="1402" 
d="M1102 6h133v1598h-1067v-1598h133v1481h801v-1481z" />
    <glyph glyph-name="_487" unicode="&#x3a1;" horiz-adv-x="1323" 
d="M301 745v742h442q183 0 279 -97.5t96 -273.5q0 -175 -96 -273t-279 -98h-442zM754 629q242 0 369.5 129.5t127.5 357.5q0 229 -127.5 358.5t-369.5 129.5h-586v-1598h133v623h453z" />
    <glyph glyph-name="_488" unicode="&#x3a3;" horiz-adv-x="1161" 
d="M121 125v-119h958v117h-805l404 682v49l-399 633h800v117h-958v-119l416 -656z" />
    <glyph glyph-name="_489" unicode="&#x3a4;" horiz-adv-x="1165" 
d="M37 1487h479v-1481h133v1481h479v117h-1091v-117z" />
    <glyph glyph-name="_490" unicode="&#x3a5;" horiz-adv-x="1329" 
d="M664 764l-486 840h-141l561 -967v-631h133v631l561 967h-141z" />
    <glyph glyph-name="_491" unicode="&#x3a6;" horiz-adv-x="1619" 
d="M1534 805q0 140 -48 246t-136.5 172t-207.5 100t-268 37v242h-131v-242q-118 -2 -217 -24t-181 -65.5t-139 -107.5t-88.5 -155t-31.5 -203q0 -141 47.5 -247t136 -172.5t207 -100.5t266.5 -37v-240h131v240q149 3 268 37t207.5 100.5t136.5 172.5t48 247zM1401 805
q0 -113 -38.5 -198t-110 -137t-165.5 -79t-213 -31v887q119 -4 213 -30.5t165.5 -78.5t110 -136.5t38.5 -196.5zM743 360q-119 4 -213 31t-165.5 79t-109.5 137t-38 198q0 112 38 196.5t109.5 136.5t165.5 78.5t213 30.5v-887z" />
    <glyph glyph-name="_492" unicode="&#x3a7;" horiz-adv-x="1327" 
d="M1108 1602l-446 -680l-445 680h-145l508 -779l-539 -815h149l472 715l473 -715h147l-539 815l512 779h-147z" />
    <glyph glyph-name="_493" unicode="&#x3a8;" horiz-adv-x="1542" 
d="M836 8v346q269 17 413 178.5t144 425.5v644h-131v-629q0 -230 -108 -358.5t-318 -143.5v1131h-134v-1131q-209 15 -316 143.5t-107 358.5v629h-134v-644q0 -265 143.5 -426t413.5 -178v-346h134z" />
    <glyph glyph-name="_494" unicode="&#x3a9;" horiz-adv-x="1437" 
d="M719 1630q-293 0 -440 -188q-158 -199 -158 -625q0 -569 313 -694h-272v-117h452v117q-83 23 -146 68.5t-103.5 106.5t-66 143t-36 169.5t-10.5 194.5q0 396 131 569q117 139 336 139q221 0 332 -139q72 -92 103.5 -231t31.5 -338q0 -106 -10.5 -194.5t-36.5 -170
t-67 -142.5t-103.5 -106.5t-145.5 -68.5v-117h453v117h-275q316 125 316 694q0 424 -160 625q-147 188 -438 188z" />
    <glyph glyph-name="_495" unicode="&#x3b1;" horiz-adv-x="1224" 
d="M1065 1145h-127v-209q-40 112 -135.5 173.5t-237.5 61.5q-228 0 -346.5 -152t-118.5 -444t118 -442.5t347 -150.5q142 0 237 62t136 173q0 -113 39.5 -169t140.5 -56q30 0 66 4v104h-33q-50 0 -68 21.5t-18 79.5v944zM938 575q0 -239 -85.5 -363t-270.5 -124t-270 124
t-85 363q0 240 85 365t270 125t270.5 -125t85.5 -365z" />
    <glyph glyph-name="_496" unicode="&#x3b2;" horiz-adv-x="1228" 
d="M1077 1184q0 200 -123 323t-344 123t-344 -123.5t-123 -328.5v-1665h129v692q47 -110 147.5 -167.5t242.5 -57.5q226 0 354.5 123.5t128.5 330.5q0 170 -92 277.5t-246 134.5q128 30 199 121.5t71 216.5zM950 1180q0 -121 -80.5 -201t-232.5 -80h-68v-106h68
q179 0 280 -99t101 -254q0 -161 -98 -256.5t-275 -95.5q-178 0 -275.5 103t-97.5 272v708q0 162 89.5 256.5t248.5 94.5q158 0 249 -91t91 -251z" />
    <glyph glyph-name="_497" unicode="&#x3b3;" horiz-adv-x="1126" 
d="M627 -487v487l458 1147h-137l-385 -983l-385 983h-137l459 -1145v-489h127z" />
    <glyph glyph-name="_498" unicode="&#x3b4;" horiz-adv-x="1165" 
d="M209 1602v-109l414 -338q-30 10 -72 10q-222 0 -336.5 -157t-114.5 -433q0 -287 120 -440t362 -153t361.5 153t119.5 440q0 355 -184 508l-492 410h592v109h-770zM936 575q0 -239 -85 -363t-269 -124q-185 0 -271 124t-86 363t86 364.5t271 125.5q184 0 269 -125.5
t85 -364.5z" />
    <glyph glyph-name="_499" unicode="&#x3b5;" horiz-adv-x="1071" 
d="M545 641q-143 0 -219 58.5t-76 154.5t77 154.5t218 58.5q143 0 220 -58t77 -155v-23h127v23q0 141 -111 230.5t-313 89.5t-312 -89t-110 -227q0 -102 63.5 -175t173.5 -95q-121 -21 -192.5 -95.5t-71.5 -189.5q0 -150 122 -236.5t335 -86.5q211 0 333 90.5t122 242.5v9
h-127v-7q0 -106 -90 -166.5t-238 -60.5q-151 0 -240.5 57.5t-89.5 163.5q0 107 90 166.5t240 59.5h139v106h-147z" />
    <glyph glyph-name="_500" unicode="&#x3b6;" horiz-adv-x="989" 
d="M840 80q-333 0 -477 95.5t-144 293.5q0 289 190.5 566t508.5 456v113h-709v-109h545q-190 -110 -339.5 -273t-236 -361.5t-86.5 -397.5q0 -489 701 -483q-12 -136 -131 -338l98 -29q72 106 115 214.5t43 186.5q0 38 -16 52t-62 14z" />
    <glyph glyph-name="_501" unicode="&#x3b7;" horiz-adv-x="1204" 
d="M270 6v531q3 254 99.5 392t273.5 138q144 0 218.5 -104.5t74.5 -296.5v-1153h127v1198q0 222 -102 342.5t-291 120.5q-149 0 -253 -77.5t-147 -217.5v268h-127v-1141h127z" />
    <glyph glyph-name="_502" unicode="&#x3b8;" horiz-adv-x="1275" 
d="M1157 805q0 235 -34 396.5t-103 254.5t-161.5 132.5t-221.5 39.5q-103 0 -182.5 -25t-145 -83t-107.5 -152.5t-64.5 -235t-22.5 -327.5q0 -189 23 -330.5t65 -235t108 -151.5t144.5 -82t181.5 -24q102 0 180.5 23.5t144 81t107.5 151t65 235.5t23 332zM244 856
q6 344 97 505t296 161t296 -161t97 -505h-786zM1030 754q-6 -344 -97 -505t-296 -161t-296 161t-97 505h786z" />
    <glyph glyph-name="_503" unicode="&#x3b9;" horiz-adv-x="454" 
d="M272 1147h-129v-961q0 -105 42 -150.5t141 -45.5q27 0 67 4v104h-33q-52 0 -70 22t-18 81v946z" />
    <glyph glyph-name="_504" unicode="&#x3ba;" horiz-adv-x="1026" 
d="M272 6v543h146l444 -543h152l-488 596l437 545h-148l-397 -492h-146v492h-129v-1141h129z" />
    <glyph glyph-name="_505" unicode="&#x3bb;" horiz-adv-x="1079" 
d="M475 1137l-459 -1131h136l389 969l387 -969h135l-569 1411q-51 128 -115.5 170.5t-179.5 42.5q-42 0 -60 -2v-106h49q73 0 116 -29.5t75 -114.5z" />
    <glyph glyph-name="_506" unicode="&#x3bc;" horiz-adv-x="1208" 
d="M561 -20q137 0 234.5 71t142.5 199v-244h125v1141h-125v-586q-3 -220 -108 -346.5t-265 -126.5q-142 0 -217.5 91t-75.5 263v705h-129v-1634h129v651q34 -89 108.5 -136.5t180.5 -47.5z" />
    <glyph glyph-name="_507" unicode="&#x3bd;" horiz-adv-x="1126" 
d="M489 8h146l450 1137h-137l-385 -987l-387 987h-135z" />
    <glyph glyph-name="_508" unicode="&#x3be;" horiz-adv-x="1038" 
d="M963 14q0 39 -15.5 52.5t-62.5 13.5q-321 3 -493.5 108t-172.5 299q0 170 120 289t275 119h142v106h-197q-117 0 -192.5 71.5t-75.5 189.5q0 122 72.5 191t205.5 69q127 0 200 -63t81 -169h127q-6 147 -110.5 243.5t-297.5 96.5q-196 0 -300.5 -101.5t-104.5 -258.5
q0 -133 75.5 -219.5t198.5 -110.5q-157 -55 -251.5 -176t-94.5 -289q0 -232 199.5 -363.5t548.5 -131.5q-14 -136 -131 -338l96 -29q72 106 115 214.5t43 186.5z" />
    <glyph glyph-name="_509" unicode="&#x3bf;" horiz-adv-x="1165" 
d="M1065 578q0 287 -120 441.5t-363 154.5q-241 0 -361.5 -154.5t-120.5 -441.5t120.5 -442.5t361.5 -155.5q243 0 363 155t120 443zM938 578q0 -241 -85.5 -365.5t-270.5 -124.5t-270 124.5t-85 365.5q0 239 85 364t270 125q356 0 356 -489z" />
    <glyph glyph-name="_510" unicode="&#x3c0;" horiz-adv-x="1206" 
d="M365 1040h475v-1034h127v1034h186v107h-1100v-107h185v-1034h127v1034z" />
    <glyph glyph-name="_511" unicode="&#x3c1;" horiz-adv-x="1185" 
d="M119 -487h127v702q39 -109 134.5 -171t235.5 -62q230 0 348.5 151t118.5 442q0 287 -120 441.5t-363 154.5q-241 0 -361 -154.5t-120 -441.5v-1062zM956 575q0 -239 -85.5 -363t-270.5 -124q-184 0 -269 124t-85 363t85 364.5t269 125.5q185 0 270.5 -125t85.5 -365z" />
    <glyph glyph-name="_512" unicode="&#x3c3;" horiz-adv-x="1177" 
d="M582 -20q240 0 361.5 153.5t121.5 429.5q0 185 -59 309t-172 168h290v107h-542q-239 0 -360.5 -154.5t-121.5 -429.5t121.5 -429t360.5 -154zM938 563q0 -227 -86.5 -351t-269.5 -124q-182 0 -268.5 124t-86.5 351q0 228 86.5 352.5t268.5 124.5q356 0 356 -477z" />
    <glyph glyph-name="_513" unicode="&#x3c4;" horiz-adv-x="1001" 
d="M954 1147h-913v-107h379v-802q0 -134 51.5 -191t181.5 -57q56 0 86 6v102h-65q-69 0 -98 30t-29 108v804h407v107z" />
    <glyph glyph-name="_514" unicode="&#x3c5;" horiz-adv-x="1179" 
d="M590 -20q219 0 339 118.5t120 350.5v698h-129v-696q0 -363 -330 -363t-330 363v696h-129v-698q0 -232 120 -350.5t339 -118.5z" />
    <glyph glyph-name="_515" unicode="&#x3c6;" horiz-adv-x="1552" 
d="M1327 563q0 -258 -110 -366t-377 -109v952q268 -4 377.5 -111.5t109.5 -365.5zM1452 563q0 200 -60.5 326t-197.5 191.5t-360 66.5h-121v-1059q-267 1 -376.5 109t-109.5 366q0 141 31 233.5t88.5 143t149.5 74.5l-21 108q-197 -47 -287 -181t-90 -378
q0 -298 141.5 -438.5t473.5 -144.5v-467h127v467q224 3 359.5 68.5t194 190.5t58.5 324z" />
    <glyph glyph-name="_516" unicode="&#x3c7;" horiz-adv-x="1097" 
d="M924 1145l-375 -686l-377 686h-135l436 -797l-459 -835h136l399 723l397 -723h137l-458 835l436 797h-137z" />
    <glyph glyph-name="_517" unicode="&#x3c8;" horiz-adv-x="1476" 
d="M799 -487v471q254 11 399 136.5t145 350.5v674h-126v-672q0 -180 -112.5 -276.5t-305.5 -104.5v1053h-125v-1053q-193 8 -304.5 104t-111.5 277v672h-127v-674q0 -225 145 -350.5t398 -136.5v-471h125z" />
    <glyph glyph-name="_518" unicode="&#x3c9;" horiz-adv-x="1689" 
d="M844 231q29 -119 118 -184t220 -65q397 0 397 557q0 292 -117 606h-129q119 -321 119 -600q0 -241 -72 -349t-209 -108q-125 0 -194.5 94t-69.5 291v449h-127v-449q0 -197 -69.5 -291t-196.5 -94q-135 0 -206.5 108t-71.5 349q0 282 118 600h-127q-118 -316 -118 -606
q0 -557 397 -557q131 0 220 65t118 184z" />
    <glyph glyph-name="_1026" unicode="&#x401;" horiz-adv-x="1173" 
d="M168 8h911v117h-780v639h688v119h-688v598h770v118h-901v-1591zM506 1997h-152v-158h152v158zM874 1997h-151v-158h151v158z" />
    <glyph glyph-name="_1020" unicode="&#x410;" horiz-adv-x="1347" 
d="M600 1599l-575 -1591h139l139 398h739l142 -398h139l-578 1591h-145zM674 1450l327 -930h-657z" />
    <glyph glyph-name="_1021" unicode="&#x411;" horiz-adv-x="1273" 
d="M1096 1599h-928v-1591h547q226 0 351.5 119t125.5 350q0 230 -125.5 348.5t-351.5 118.5h-416v537h797v118zM1061 477q0 -350 -369 -350h-393v700h393q179 0 274 -87.5t95 -262.5z" />
    <glyph glyph-name="_1022" unicode="&#x412;" horiz-adv-x="1341" 
d="M756 8q491 0 491 432q0 160 -76 259.5t-221 127.5q118 32 185 124.5t67 238.5q0 197 -118 303t-347 106h-569v-1591h588zM1069 1182q0 -150 -87 -224.5t-269 -74.5h-414v598h414q182 0 269 -74.5t87 -224.5zM299 127v639h428q208 0 298.5 -80t90.5 -242
q0 -160 -90.5 -238.5t-298.5 -78.5h-428z" />
    <glyph glyph-name="_1023" unicode="&#x413;" horiz-adv-x="1081" 
d="M168 1599v-1591h131v1473h758v118h-889z" />
    <glyph glyph-name="_1024" unicode="&#x414;" horiz-adv-x="1384" 
d="M387 1485h660v-1360h-732q72 328 72 741v619zM254 877q0 -429 -78 -752h-145v-389h131v272h1042v-272h131v389h-157v1474h-924v-722z" />
    <glyph glyph-name="_1025" unicode="&#x415;" horiz-adv-x="1173" 
d="M168 8h911v117h-780v639h688v119h-688v598h770v118h-901v-1591z" />
    <glyph glyph-name="_1027" unicode="&#x416;" horiz-adv-x="1906" 
d="M1018 1599h-131v-718h-215l-441 718h-145l477 -776l-547 -815h150l506 758h215v-758h131v758h217l506 -758h149l-547 815l476 776h-142l-442 -718h-217v718z" />
    <glyph glyph-name="_1028" unicode="&#x417;" horiz-adv-x="1247" 
d="M434 909v-114h180q178 0 288 -97.5t110 -255.5q0 -155 -107.5 -250.5t-286.5 -95.5t-287 95.5t-108 250.5v31h-131v-33q0 -205 144 -331.5t382 -126.5q239 0 383 127t144 331q0 158 -90.5 269.5t-247.5 142.5q132 30 211.5 125.5t79.5 239.5q0 174 -129.5 291.5
t-350.5 117.5q-220 0 -349.5 -117.5t-129.5 -291.5v-33h133v24q0 133 94.5 217t251.5 84q159 0 253 -84t94 -217q0 -136 -94 -217.5t-257 -81.5h-180z" />
    <glyph glyph-name="_1029" unicode="&#x418;" horiz-adv-x="1421" 
d="M1120 1599l-821 -1349v1349h-131v-1591h131l821 1350v-1350h131v1591h-131z" />
    <glyph glyph-name="_1030" unicode="&#x419;" horiz-adv-x="1421" 
d="M1120 1599l-821 -1349v1349h-131v-1591h131l821 1350v-1350h131v1591h-131zM711 1747q148 0 233 87.5t92 248.5h-118q-12 -234 -207 -234q-197 0 -209 234h-119q7 -161 93 -248.5t235 -87.5z" />
    <glyph glyph-name="_1031" unicode="&#x41a;" horiz-adv-x="1255" 
d="M1190 1599h-154l-526 -716h-211v716h-131v-1591h131v756h211l596 -756h156l-650 813z" />
    <glyph glyph-name="_1032" unicode="&#x41b;" horiz-adv-x="1464" 
d="M242 272q0 -91 -36 -127t-118 -36h-61v-113q25 -4 86 -4q136 0 198 60.5t62 211.5v1217h790v-1473h133v1591h-1054v-1327z" />
    <glyph glyph-name="_1033" unicode="&#x41c;" horiz-adv-x="1875" 
d="M1010 8l565 1307v-1307h131v1591h-145l-623 -1443l-625 1443h-145v-1591h131v1307l565 -1307h146z" />
    <glyph glyph-name="_1034" unicode="&#x41d;" horiz-adv-x="1396" 
d="M1098 8h131v1591h-131v-718h-799v718h-131v-1591h131v756h799v-756z" />
    <glyph glyph-name="_1035" unicode="&#x41e;" horiz-adv-x="1437" 
d="M1315 805q0 433 -158 635q-150 186 -438 186t-438 -186q-160 -204 -160 -635q0 -433 160 -637q148 -186 438 -186t438 186q158 202 158 637zM1184 805q0 -200 -30.5 -337t-100.5 -228q-119 -144 -334 -144q-218 0 -334 144q-71 91 -101 227.5t-30 337.5q0 200 30 336
t101 227q116 141 334 141q215 0 334 -141q70 -91 100.5 -228t30.5 -335z" />
    <glyph glyph-name="_1036" unicode="&#x41f;" horiz-adv-x="1396" 
d="M1098 8h131v1591h-1061v-1591h131v1473h799v-1473z" />
    <glyph glyph-name="_1037" unicode="&#x420;" horiz-adv-x="1318" 
d="M299 745v736h440q185 0 281 -96.5t96 -270.5q0 -175 -96 -272t-281 -97h-440zM752 629q241 0 368 128.5t127 356.5q0 227 -127.5 356t-367.5 129h-584v-1591h131v621h453z" />
    <glyph glyph-name="_1038" unicode="&#x421;" horiz-adv-x="1406" 
d="M717 -18q262 0 411.5 145t167.5 399h-133q-15 -203 -128 -316.5t-318 -113.5q-216 0 -332 144q-71 91 -102 228t-31 337q0 199 31 335.5t102 227.5q116 141 332 141q205 0 318 -113t128 -315h133q-18 253 -167.5 399t-411.5 146q-289 0 -436 -186q-160 -201 -160 -635
q0 -436 160 -637q144 -186 436 -186z" />
    <glyph glyph-name="_1039" unicode="&#x422;" horiz-adv-x="1159" 
d="M35 1481h479v-1473h131v1473h479v118h-1089v-118z" />
    <glyph glyph-name="_1040" unicode="&#x423;" horiz-adv-x="1290" 
d="M487 225q-28 -59 -59 -80.5t-80 -21.5h-72v-113q23 -2 84 -2q99 0 153 39.5t105 147.5l646 1404h-138l-469 -1011l-477 1011h-137l543 -1161z" />
    <glyph glyph-name="_1041" unicode="&#x424;" horiz-adv-x="1617" 
d="M219 805q0 421 524 438v-878q-524 13 -524 440zM874 1599h-131v-241q-148 -3 -266 -37t-206 -100t-135.5 -171.5t-47.5 -244.5q0 -141 47.5 -247t135.5 -172t206 -100t266 -38v-240h131v240q148 4 266.5 38t207 100t136.5 172.5t48 246.5q0 139 -48 244.5t-136.5 171.5
t-207 100t-266.5 37v241zM1399 805q0 -427 -525 -440v878q525 -17 525 -438z" />
    <glyph glyph-name="_1042" unicode="&#x425;" horiz-adv-x="1320" 
d="M1128 8h150l-535 813l506 778h-145l-445 -679l-442 679h-145l506 -778l-535 -813h147l469 717z" />
    <glyph glyph-name="_1043" unicode="&#x426;" horiz-adv-x="1437" 
d="M1098 127h-799v1472h-131v-1591h1087v-272h131v391h-157v1472h-131v-1472z" />
    <glyph glyph-name="_1044" unicode="&#x427;" horiz-adv-x="1349" 
d="M1051 8h131v1591h-133v-790q-176 -143 -428 -143q-175 0 -258.5 90t-83.5 286v557h-132v-575q0 -242 112.5 -358.5t338.5 -116.5q135 0 254.5 37t198.5 102v-680z" />
    <glyph glyph-name="_1045" unicode="&#x428;" horiz-adv-x="2136" 
d="M1835 125h-700v1474h-134v-1474h-702v1474h-131v-1591h1800v1591h-133v-1474z" />
    <glyph glyph-name="_1046" unicode="&#x429;" horiz-adv-x="2172" 
d="M1995 8v-272h131v389h-158v1474h-133v-1474h-700v1474h-134v-1474h-702v1474h-131v-1591h1827z" />
    <glyph glyph-name="_1047" unicode="&#x42a;" horiz-adv-x="1544" 
d="M571 1599h-536v-118h405v-1473h547q226 0 351.5 119t125.5 350q0 230 -125.5 348.5t-351.5 118.5h-416v655zM1333 477q0 -350 -368 -350h-394v700h394q179 0 273.5 -87.5t94.5 -262.5z" />
    <glyph glyph-name="_1048" unicode="&#x42b;" horiz-adv-x="1681" 
d="M1511 1599h-131v-1591h131v1591zM299 1599h-131v-1591h547q226 0 351.5 119t125.5 350q0 230 -125.5 348.5t-351.5 118.5h-416v655zM1061 477q0 -350 -369 -350h-393v700h393q179 0 274 -87.5t95 -262.5z" />
    <glyph glyph-name="_1049" unicode="&#x42c;" horiz-adv-x="1273" 
d="M299 1599h-131v-1591h547q226 0 351.5 119t125.5 350q0 230 -125.5 348.5t-351.5 118.5h-416v655zM1061 477q0 -350 -369 -350h-393v700h393q179 0 274 -87.5t95 -262.5z" />
    <glyph glyph-name="_1050" unicode="&#x42d;" horiz-adv-x="1406" 
d="M690 -18q292 0 436 186q160 204 160 637q0 431 -160 635q-147 186 -436 186q-262 0 -413 -146.5t-166 -398.5h133q14 201 127.5 314.5t318.5 113.5q216 0 332 -141q125 -160 131 -506h-571v-119h571q-6 -346 -131 -503q-116 -144 -332 -144q-205 0 -318.5 114t-127.5 316
h-133q15 -253 165.5 -398.5t413.5 -145.5z" />
    <glyph glyph-name="_1051" unicode="&#x42e;" horiz-adv-x="1812" 
d="M1692 805q0 431 -160 635q-150 186 -438 186q-290 0 -437 -186q-149 -183 -159 -578h-199v737h-131v-1591h131v735h199q10 -391 159 -575q144 -186 437 -186q290 0 438 186q160 204 160 637zM1559 805q0 -199 -31 -336.5t-101 -228.5q-116 -144 -333 -144
q-219 0 -332 144q-71 91 -102 228t-31 337q0 199 31 335.5t102 227.5q113 141 332 141q217 0 333 -141q70 -91 101 -228t31 -335z" />
    <glyph glyph-name="_1052" unicode="&#x42f;" horiz-adv-x="1366" 
d="M242 8q18 52 24 144l17 225q9 150 87.5 214t264.5 64h432v-647h131v1591h-588q-245 0 -368 -122t-123 -342q0 -338 282 -420q-121 -23 -180 -101.5t-71 -234.5l-15 -225q-9 -94 -29 -146h136zM623 774q-183 0 -278 89.5t-95 262.5q0 175 95 265t278 90h444v-707h-444z
" />
    <glyph glyph-name="_1053" unicode="&#x430;" horiz-adv-x="1159" 
d="M901 342q0 -119 -86.5 -185.5t-255.5 -66.5q-167 0 -253.5 66.5t-86.5 185.5t86.5 185.5t253.5 66.5q169 0 255.5 -66.5t86.5 -185.5zM901 133q3 -78 25 -125h131q-29 66 -29 158v594q0 192 -115 301.5t-331 109.5q-201 0 -314 -95t-129 -257h127q14 113 92.5 178.5
t223.5 65.5q155 0 237 -80.5t82 -218.5v-213q-38 71 -131.5 112.5t-234.5 41.5q-206 0 -323.5 -97.5t-117.5 -265.5q0 -169 117 -264.5t324 -95.5q289 0 366 151z" />
    <glyph glyph-name="_1054" unicode="&#x431;" horiz-adv-x="1173" 
d="M946 575q0 -238 -85.5 -361.5t-268.5 -123.5t-268.5 123.5t-85.5 361.5q0 240 85.5 364t268.5 124t268.5 -124t85.5 -364zM238 954q2 90 6.5 149t21 114t31.5 87t58.5 64t79.5 48t117 36.5t150 32.5t197 33l-39 108q-28 -5 -82 -15q-110 -20 -159.5 -29.5t-129 -29
t-109.5 -33t-82.5 -42.5t-68.5 -56.5t-45.5 -75.5t-36.5 -99t-18.5 -127t-13.5 -160.5t-2 -198.5q0 -245 17 -368t73 -212q120 -198 389 -198q241 0 361 153.5t120 439.5q0 291 -119.5 443.5t-345.5 152.5q-143 0 -237 -59t-133 -158z" />
    <glyph glyph-name="_1055" unicode="&#x432;" horiz-adv-x="1099" 
d="M635 8q379 0 379 307q0 229 -207 275q182 57 182 254q0 147 -91 224t-288 77h-465v-1137h490zM887 326q0 -114 -68 -161.5t-201 -47.5h-348v418h348q133 0 201 -47.5t68 -161.5zM270 641v395h332q136 0 198 -46.5t62 -151.5q0 -104 -62 -150.5t-198 -46.5h-332z" />
    <glyph glyph-name="_1056" unicode="&#x433;" horiz-adv-x="876" 
d="M838 1036v109h-693v-1137h125v1028h568z" />
    <glyph glyph-name="_1057" unicode="&#x434;" horiz-adv-x="1130" 
d="M326 1036h503v-919h-546q43 214 43 549v370zM201 655q0 -317 -49 -538h-125v-359h127v250h811v-250h127v359h-136v1028h-755v-490z" />
    <glyph glyph-name="_1058" unicode="&#x435;" horiz-adv-x="1163" 
d="M1061 539v36q0 286 -119.5 441t-359.5 155t-361 -155.5t-121 -440.5t121 -439t361 -154q191 0 306 92.5t148 263.5h-129q-52 -248 -323 -248q-350 0 -359 449h836zM582 1063q168 0 255.5 -108t96.5 -312h-705q8 204 95.5 312t257.5 108z" />
    <glyph glyph-name="_1060" unicode="&#x436;" horiz-adv-x="1529" 
d="M702 1145v-490h-176l-315 490h-137l352 -545l-406 -592h142l364 539h176v-539h125v539h177l364 -539h141l-405 592l354 545h-139l-315 -490h-177v490h-125z" />
    <glyph glyph-name="_1061" unicode="&#x437;" horiz-adv-x="1077" 
d="M389 641v-109h139q151 0 239.5 -58.5t88.5 -164.5q0 -105 -88.5 -162t-239.5 -57q-148 0 -237.5 61t-89.5 164v7h-125v-9q0 -152 120.5 -241.5t331.5 -89.5q213 0 333 85.5t120 235.5q0 113 -68.5 187t-185.5 96q108 25 168.5 97t60.5 173q0 138 -109.5 226.5
t-311.5 88.5q-200 0 -310 -88.5t-110 -228.5v-25h125v25q0 94 77 151.5t218 57.5q142 0 219 -58t77 -151q0 -96 -76.5 -154.5t-219.5 -58.5h-146z" />
    <glyph glyph-name="_1062" unicode="&#x438;" horiz-adv-x="1161" 
d="M889 1145l-619 -930v930h-125v-1137h125l619 928v-928h127v1137h-127z" />
    <glyph glyph-name="_1063" unicode="&#x439;" horiz-adv-x="1161" 
d="M889 1145l-619 -930v930h-125v-1137h125l619 928v-928h127v1137h-127zM580 1298q148 0 234 88t93 250h-119q-12 -233 -208 -233q-194 0 -209 233h-117q6 -162 91.5 -250t234.5 -88z" />
    <glyph glyph-name="_1064" unicode="&#x43a;" horiz-adv-x="1021" 
d="M270 8v537h144l442 -537h154l-486 594l434 543h-149l-393 -490h-146v490h-125v-1137h125z" />
    <glyph glyph-name="_1065" unicode="&#x43b;" horiz-adv-x="1204" 
d="M205 240q0 -78 -28 -109t-93 -31h-49v-106q18 -2 63 -2q120 0 177 56.5t57 195.5v792h602v-1028h125v1137h-854v-905z" />
    <glyph glyph-name="_1066" unicode="&#x43c;" horiz-adv-x="1460" 
d="M782 8l408 860v-860h125v1137h-125l-459 -969l-461 969h-125v-1137h125v860l408 -860h104z" />
    <glyph glyph-name="_1067" unicode="&#x43d;" horiz-adv-x="1150" 
d="M1008 1145h-127v-500h-611v500h-125v-1137h125v529h611v-529h127v1137z" />
    <glyph glyph-name="_1068" unicode="&#x43e;" horiz-adv-x="1163" 
d="M1061 575q0 286 -119.5 441t-359.5 155t-361 -155.5t-121 -440.5q0 -284 121 -438.5t361 -154.5t359.5 154.5t119.5 438.5zM225 575q0 488 357 488q354 0 354 -488q0 -485 -354 -485q-357 0 -357 485z" />
    <glyph glyph-name="_1069" unicode="&#x43f;" horiz-adv-x="1150" 
d="M1008 1145h-863v-1137h125v1028h611v-1028h127v1137z" />
    <glyph glyph-name="_1070" unicode="&#x440;" horiz-adv-x="1206" 
d="M270 199q40 -101 133.5 -159t235.5 -58q228 0 347.5 151t119.5 442t-119.5 443.5t-347.5 152.5q-142 0 -235.5 -58.5t-133.5 -160.5v193h-125v-1630h125v684zM270 575q0 488 357 488q354 0 354 -488q0 -485 -354 -485q-357 0 -357 485z" />
    <glyph glyph-name="_1071" unicode="&#x441;" horiz-adv-x="1140" 
d="M100 575q0 -286 120.5 -439.5t361.5 -153.5q200 0 319 101.5t141 285.5h-129q-18 -134 -101.5 -206.5t-229.5 -72.5q-184 0 -270.5 122.5t-86.5 362.5q0 488 357 488q145 0 229 -73.5t102 -207.5h129q-22 186 -141 287.5t-319 101.5q-240 0 -361 -154.5t-121 -441.5z" />
    <glyph glyph-name="_1072" unicode="&#x442;" horiz-adv-x="972" 
d="M422 1036v-1028h127v1028h385v109h-895v-109h383z" />
    <glyph glyph-name="_1073" unicode="&#x443;" horiz-adv-x="1124" 
d="M399 -240q-32 -84 -73 -111.5t-117 -27.5h-47v-104q18 -2 57 -2q116 0 181.5 41.5t115.5 167.5l567 1421h-135l-385 -981l-389 981h-133l457 -1139z" />
    <glyph glyph-name="_1074" unicode="&#x444;" horiz-adv-x="1998" 
d="M936 952q-40 102 -132.5 160.5t-234.5 58.5q-229 0 -349 -152.5t-120 -443.5t120 -442t349 -151q141 0 234 58t133 159v-684h125v684q40 -101 133.5 -159t235.5 -58q229 0 347.5 150.5t118.5 442.5t-118.5 444t-347.5 152q-142 0 -235.5 -58.5t-133.5 -160.5v647h-125
v-647zM1772 575q0 -485 -357 -485q-354 0 -354 485q0 488 354 488q357 0 357 -488zM225 575q0 488 357 488q354 0 354 -488q0 -485 -354 -485q-357 0 -357 485z" />
    <glyph glyph-name="_1075" unicode="&#x445;" horiz-adv-x="1038" 
d="M874 8h144l-422 582l399 555h-143l-334 -463l-332 463h-143l399 -555l-422 -582h144l354 490z" />
    <glyph glyph-name="_1076" unicode="&#x446;" horiz-adv-x="1181" 
d="M145 8h871v-250h127v359h-135v1028h-127v-1028h-611v1028h-125v-1137z" />
    <glyph glyph-name="_1077" unicode="&#x447;" horiz-adv-x="1112" 
d="M842 8h127v1137h-127v-574q-56 -55 -140.5 -83.5t-181.5 -28.5q-133 0 -201.5 67t-68.5 215v404h-127v-414q0 -381 379 -381q103 0 194 28.5t146 78.5v-449z" />
    <glyph glyph-name="_1078" unicode="&#x448;" horiz-adv-x="1718" 
d="M1573 1145h-125v-1028h-526v1028h-127v-1028h-525v1028h-125v-1137h1428v1137z" />
    <glyph glyph-name="_1079" unicode="&#x449;" horiz-adv-x="1748" 
d="M145 8h1438v-250h127v359h-137v1028h-125v-1028h-526v1028h-127v-1028h-525v1028h-125v-1137z" />
    <glyph glyph-name="_1080" unicode="&#x44a;" horiz-adv-x="1230" 
d="M1159 379q0 174 -100 272.5t-291 98.5h-330v395h-399v-109h272v-1028h457q191 0 291 98.5t100 272.5zM1032 379q0 -128 -70.5 -195t-209.5 -67h-314v522h314q139 0 209.5 -66.5t70.5 -193.5z" />
    <glyph glyph-name="_1081" unicode="&#x44b;" horiz-adv-x="1421" 
d="M1276 8v1137h-127v-1137h127zM993 379q0 174 -100 272.5t-293 98.5h-330v395h-125v-1137h455q193 0 293 98.5t100 272.5zM866 379q0 -128 -71 -195t-209 -67h-316v522h316q137 0 208.5 -66.5t71.5 -193.5z" />
    <glyph glyph-name="_1082" unicode="&#x44c;" horiz-adv-x="1064" 
d="M993 379q0 174 -100 272.5t-293 98.5h-330v395h-125v-1137h455q193 0 293 98.5t100 272.5zM866 379q0 -128 -71 -195t-209 -67h-316v522h316q137 0 208.5 -66.5t71.5 -193.5z" />
    <glyph glyph-name="_1083" unicode="&#x44d;" horiz-adv-x="1140" 
d="M1038 575q0 287 -120 441.5t-361 154.5q-200 0 -319 -101.5t-142 -287.5h129q18 134 102 207.5t230 73.5q174 0 260.5 -109t95.5 -323h-409v-111h409q-19 -430 -356 -430q-146 0 -230.5 72.5t-101.5 206.5h-129q23 -184 142.5 -285.5t318.5 -101.5q242 0 361.5 153
t119.5 440z" />
    <glyph glyph-name="_1084" unicode="&#x44e;" horiz-adv-x="1490" 
d="M1389 575q0 286 -120 441t-360 155q-229 0 -349 -140.5t-132 -399.5h-158v514h-125v-1137h125v512h158q12 -259 132 -398.5t349 -139.5q240 0 360 154.5t120 438.5zM553 575q0 488 356 488q355 0 355 -488q0 -485 -355 -485q-356 0 -356 485z" />
    <glyph glyph-name="_1085" unicode="&#x44f;" horiz-adv-x="1122" 
d="M324 514q-43 -10 -73.5 -24t-52.5 -38.5t-35 -51t-21.5 -74t-12.5 -92.5t-8 -121q-2 -56 -17 -105h125q14 39 19.5 96t5 102.5t10.5 94.5t33 82t76 54.5t137 21.5h342v-451h125v1137h-475q-186 0 -288.5 -85.5t-102.5 -244.5q0 -120 56.5 -198t156.5 -103zM512 569
q-130 0 -203 56.5t-73 175.5q0 120 73.5 177.5t202.5 57.5h340v-467h-340z" />
    <glyph glyph-name="_1059" unicode="&#x451;" horiz-adv-x="1163" 
d="M1061 539v36q0 286 -119.5 441t-359.5 155t-361 -155.5t-121 -440.5t121 -439t361 -154q191 0 306 92.5t148 263.5h-129q-52 -248 -323 -248q-350 0 -359 449h836zM582 1063q168 0 255.5 -108t96.5 -312h-705q8 204 95.5 312t257.5 108zM838 1544h-152v-158h152v158z
M469 1544h-152v-158h152v158z" />
    <glyph glyph-name="_18159" unicode="&#x2015;" 
d="M113 807v-115h1740v115h-1740z" />
    <glyph glyph-name="_114" unicode="&#x2018;" horiz-adv-x="598" 
d="M420 1776q-195 -36 -195 -220v-266h150v228h-62q0 84 22.5 124t84.5 52v82z" />
    <glyph glyph-name="_115" unicode="&#x2019;" horiz-adv-x="598" 
d="M180 1290q110 17 151.5 82.5t41.5 204.5v199h-150v-228h62q1 -85 -22 -123.5t-83 -52.5v-82z" />
    <glyph glyph-name="_8238" unicode="&#x201b;" horiz-adv-x="983" 
d="M463 1634q0 -61 -28 -88.5t-87 -27.5q40 -132 197 -179l-27 -61q-287 58 -287 356q0 60 27 87.5t88 27.5q60 0 88.5 -27.5t28.5 -87.5z" />
    <glyph glyph-name="_116" unicode="&#x201c;" horiz-adv-x="897" 
d="M420 1776q-195 -36 -195 -220v-266h150v228h-62q0 84 22.5 124t84.5 52v82zM713 1776q-195 -36 -195 -220v-266h150v228h-62q0 83 23 123.5t84 52.5v82z" />
    <glyph glyph-name="_117" unicode="&#x201d;" horiz-adv-x="897" 
d="M184 1290q108 17 150.5 83t42.5 204v199h-152v-228h64q0 -85 -22.5 -124.5t-82.5 -51.5v-82zM477 1290q108 17 150.5 83t42.5 204v199h-152v-228h64q0 -85 -23 -124.5t-82 -51.5v-82z" />
    <glyph glyph-name="_8237" unicode="&#x201f;" horiz-adv-x="983" 
d="M469 1634q0 -61 -28 -88.5t-87 -27.5q40 -132 197 -179l-27 -61q-286 58 -286 356q0 61 26.5 88t87.5 27q60 0 88.5 -27.5t28.5 -87.5zM776 1634q0 -61 -27.5 -88.5t-86.5 -27.5q40 -132 196 -179l-27 -61q-286 58 -286 356q0 61 26.5 88t87.5 27q60 0 88.5 -27.5
t28.5 -87.5z" />
    <glyph glyph-name="_245" unicode="&#x2020;" 
d="M1452 1329h-410v383h-118v-383h-410v-106h410v-1516h118v1516h410v106z" />
    <glyph glyph-name="_246" unicode="&#x2021;" 
d="M514 90h410v-383h118v383h410v109h-410v1024h410v106h-410v383h-118v-383h-410v-106h410v-1024h-410v-109z" />
    <glyph glyph-name="_8607" unicode="&#x2022;" 
d="M1227 801q0 -99 -70.5 -169.5t-171.5 -70.5q-102 0 -174 70.5t-72 169.5q0 97 72 167t174 70q101 0 171.5 -70t70.5 -167z" />
    <glyph glyph-name="_8058" unicode="&#x2025;" 
d="M606 981h-149v-223h149v223zM1507 981h-149v-223h149v223z" />
    <glyph glyph-name="_106" unicode="&#x2026;" 
d="M1057 981h-150v-223h150v223zM463 981h-150v-223h150v223zM1651 981h-150v-223h150v223z" />
    <glyph glyph-name="_216" unicode="&#x2030;" horiz-adv-x="2496" 
d="M612 8l654 1591h-113l-653 -1591h112zM760 1198q0 215 -81.5 321.5t-232.5 106.5q-152 0 -232.5 -106t-80.5 -322q0 -217 80.5 -323.5t232.5 -106.5q151 0 232.5 106.5t81.5 323.5zM649 1198q0 -181 -52 -258.5t-151 -77.5q-100 0 -152 77.5t-52 258.5q0 179 52 256.5
t152 77.5q99 0 151 -78t52 -256zM1008 410q0 -216 80.5 -322t232.5 -106q151 0 232 106.5t81 321.5q0 216 -81 323t-232 107q-152 0 -232.5 -107t-80.5 -323zM1116 410q0 180 52.5 257.5t152.5 77.5q99 0 151 -77.5t52 -257.5q0 -179 -52 -256.5t-151 -77.5q-101 0 -153 77
t-52 257zM1735 410q0 -216 81.5 -322t233.5 -106q151 0 232 106.5t81 321.5q0 216 -81 323t-232 107q-152 0 -233.5 -107t-81.5 -323zM1845 410q0 180 52.5 257.5t152.5 77.5q99 0 151 -77.5t52 -257.5q0 -179 -52 -256.5t-151 -77.5q-101 0 -153 77t-52 257z" />
    <glyph glyph-name="_139" unicode="&#x2032;" horiz-adv-x="382" 
d="M174 1096l143 506h-129l-122 -506h108z" />
    <glyph glyph-name="_140" unicode="&#x2033;" horiz-adv-x="673" 
d="M174 1096l143 506h-129l-122 -506h108zM465 1096l141 506h-129l-123 -506h111z" />
    <glyph glyph-name="_8612" unicode="&#x2039;" 
d="M238 801l1491 907v-74l-1346 -833l1346 -830v-80z" />
    <glyph glyph-name="_8613" unicode="&#x203a;" 
d="M238 1708l1491 -907l-1491 -910v80l1347 830l-1347 833v74z" />
    <glyph glyph-name="_156" unicode="&#x203b;" 
d="M1108 1427q0 53 -36.5 90t-88.5 37t-88.5 -37t-36.5 -90q0 -51 36.5 -87.5t88.5 -36.5t88.5 36.5t36.5 87.5zM365 934q-53 0 -89 -36t-36 -89t36 -89t89 -36t90 36.5t37 88.5t-37 88.5t-90 36.5zM1602 684q52 0 88 36t36 89t-36 89t-88 36q-53 0 -90 -36.5t-37 -88.5
t37 -88.5t90 -36.5zM858 193q0 -53 36.5 -90t88.5 -37t88.5 37t36.5 90q0 51 -36.5 87.5t-88.5 36.5t-88.5 -36.5t-36.5 -87.5zM1710 1475l-63 65l-664 -663l-659 663l-66 -67l660 -662l-662 -661l63 -66l664 664l664 -666l65 63l-665 666z" />
    <glyph glyph-name="_8763" unicode="&#x203c;" 
d="M715 395h-103l-53 830v426h211v-426zM532 100q0 67 32 99t98 32q69 0 100 -31.5t31 -99.5q0 -69 -31 -99t-100 -30q-67 0 -98.5 30.5t-31.5 98.5zM1354 395h-103l-53 830v426h211v-426zM1171 100q0 67 31.5 99t97.5 32q69 0 100.5 -31.5t31.5 -99.5q0 -69 -31.5 -99
t-100.5 -30q-67 0 -98 30.5t-31 98.5z" />
    <glyph glyph-name="_8599" unicode="&#x2042;" 
d="M737 635l-149 -203l243 21v-131l-243 22l143 -205l-117 -71l-102 231l-102 -229l-119 67l147 207l-252 -22v131l252 -21l-149 205l114 72l109 -232l104 228zM1686 635l-148 -203l242 21v-131l-242 22l143 -205l-118 -71l-103 231l-102 -229l-119 67l145 207l-249 -22v131
l249 -21l-147 205l115 72l108 -232l109 228zM1233 1042l-203 150l17 -244h-127l20 244l-203 -143l-73 116l233 103l-229 102l63 119l209 -146l-20 250h127l-17 -250l205 148l74 -115l-234 -108l228 -105z" />
    <glyph glyph-name="_845" unicode="&#x2074;" horiz-adv-x="829" 
d="M176 868l375 566v-566h-375zM772 868h-108v736h-125l-490 -744v-92h502v-223h113v223h108v100z" />
    <glyph glyph-name="_8239" unicode="&#x207a;" horiz-adv-x="983" 
d="M791 1364v-127h-234v-268h-129v268h-235v127h235v268h129v-268h234z" />
    <glyph glyph-name="_8240" unicode="&#x207b;" horiz-adv-x="983" 
d="M193 1237v127h598v-127h-598z" />
    <glyph glyph-name="_8248" unicode="&#x207c;" horiz-adv-x="983" 
d="M223 1352v123h535v-123h-535zM223 1106v123h535v-123h-535z" />
    <glyph glyph-name="_8250" unicode="&#x207d;" horiz-adv-x="983" 
d="M885 823h-105q-66 85 -116 208t-50 263q0 138 50.5 262.5t115.5 208.5h103q-140 -225 -140 -471q0 -111 35 -235t107 -236z" />
    <glyph glyph-name="_8251" unicode="&#x207e;" horiz-adv-x="983" 
d="M205 823h-105q72 112 107 236t35 235q0 246 -140 471h103q65 -84 115.5 -208.5t50.5 -262.5q0 -140 -50 -263t-116 -208z" />
    <glyph glyph-name="_846" unicode="&#x207f;" horiz-adv-x="829" 
d="M102 547h109v446q0 113 65.5 198t167.5 85q83 0 127.5 -51t44.5 -148v-530h113v540q0 136 -68.5 208.5t-189.5 72.5q-95 0 -162.5 -49t-97.5 -131v160h-109v-801z" />
    <glyph glyph-name="_847" unicode="&#x2081;" horiz-adv-x="829" 
d="M506 6v1059h-100l-240 -111v-104l223 104v-948h117z" />
    <glyph glyph-name="_848" unicode="&#x2082;" horiz-adv-x="829" 
d="M621 758q0 -56 -17.5 -97.5t-56.5 -85.5l-436 -481v-88h624v100h-471l361 396q61 67 86.5 125t25.5 133q0 146 -87.5 234.5t-235.5 88.5q-151 0 -238.5 -88.5t-87.5 -234.5v-31h117v29q0 96 55 158.5t154 62.5q98 0 152.5 -62.5t54.5 -158.5z" />
    <glyph glyph-name="_849" unicode="&#x2083;" horiz-adv-x="829" 
d="M614 797q0 -88 -53.5 -137.5t-138.5 -49.5h-98v-98h98q96 0 156.5 -57.5t60.5 -157.5q0 -91 -61 -151t-162 -60q-104 0 -166 60.5t-62 154.5v45h-114v-45q0 -135 90 -224t252 -89q158 0 249 88.5t91 220.5q0 107 -53 174t-150 92q89 26 131.5 92t42.5 150
q0 123 -85.5 200.5t-225.5 77.5q-143 0 -229.5 -79t-86.5 -201v-31h115v23q0 87 54 137.5t147 50.5q91 0 144.5 -49.5t53.5 -136.5z" />
    <glyph glyph-name="_850" unicode="&#x2084;" horiz-adv-x="829" 
d="M176 330l375 565v-565h-375zM772 330h-108v735h-125l-490 -743v-93h502v-223h113v223h108v101z" />
    <glyph glyph-name="_18160" unicode="&#x20ac;" horiz-adv-x="1417" 
d="M125 735h-100v-84h104q13 -157 52.5 -277t109.5 -209.5t178.5 -136t253.5 -46.5q262 0 413.5 145t166.5 397h-132q-15 -201 -129 -313.5t-319 -112.5q-117 0 -203 38t-139.5 112.5t-82 172.5t-38.5 230h481l17 84h-500v135h522l15 84h-535q10 130 38 227.5t81 174
t139.5 116t204.5 39.5q205 0 319 -114t129 -316h132q-15 253 -166.5 400t-413.5 147q-119 0 -214 -32t-161 -89.5t-112.5 -143t-71.5 -185.5t-35 -224h-104v-84h100v-135z" />
    <glyph glyph-name="_141" unicode="&#x2103;" 
d="M190 1333q0 87 54.5 140t138.5 53q85 0 138.5 -53t53.5 -140q0 -88 -53 -141t-139 -53q-85 0 -139 53t-54 141zM90 1333q0 -124 82 -206.5t211 -82.5t211 82.5t82 206.5q0 123 -82 205t-211 82t-211 -82t-82 -205zM733 805q0 -823 580 -823q253 0 401 145.5t162 396.5
h-131q-15 -201 -124 -313.5t-308 -112.5q-102 0 -179.5 34t-128 94t-82.5 150t-45.5 194.5t-13.5 234.5q0 127 12.5 229t44 193t81.5 152t128.5 96.5t182.5 35.5q198 0 307.5 -114.5t124.5 -315.5h131q-14 251 -162 399t-401 148q-580 0 -580 -823z" />
    <glyph glyph-name="_215" unicode="&#x2109;" 
d="M676 1333q0 125 -81.5 207t-211.5 82q-129 0 -211 -82.5t-82 -206.5t82 -205t211 -81q131 0 212 81t81 205zM578 1333q0 -87 -54.5 -140.5t-140.5 -53.5q-83 0 -138 54t-55 140q0 87 55 141t138 54q85 0 140 -54t55 -141zM850 6h133v737h688v115h-688v629h760v117h-893
v-1598z" />
    <glyph glyph-name="_590" unicode="&#x2113;" horiz-adv-x="1093" 
d="M35 403l43 -104q91 21 151 41q26 -178 128.5 -268t265.5 -90q157 0 257.5 84.5t129.5 244.5l-125 25q-20 -123 -89 -184.5t-173 -61.5q-240 0 -269 293q625 242 625 803v18q0 202 -97.5 312t-281.5 110t-281.5 -110t-97.5 -312v-643q0 -71 2 -106q-111 -34 -188 -52z
M348 1206q0 153 64.5 232.5t187.5 79.5q121 0 186.5 -80t65.5 -232v-20q0 -465 -502 -682q-2 33 -2 102v600z" />
    <glyph glyph-name="_258" unicode="&#x2116;" horiz-adv-x="1961" 
d="M899 8h125v1591h-125v-1308l-604 1308h-127v-1591h127v1307zM1159 8h699v101h-699v-101zM1868 752q0 228 -85.5 345t-273.5 117q-189 0 -273.5 -116.5t-84.5 -345.5t84.5 -346t273.5 -117q188 0 273.5 117t85.5 346zM1751 752q0 -186 -56.5 -273.5t-185.5 -87.5
q-130 0 -186.5 87.5t-56.5 273.5q0 185 56.5 272.5t186.5 87.5q128 0 185 -87.5t57 -272.5z" />
    <glyph glyph-name="_263" unicode="&#x2121;" 
d="M1544 598q-3 298 -112 437t-316 139q-211 0 -319.5 -143.5t-108.5 -452.5t108.5 -453.5t319.5 -144.5q346 0 410 360h-129q-48 -252 -281 -252q-147 0 -222.5 108.5t-78.5 346.5h729v55zM1116 1067q142 0 217.5 -102t81.5 -322h-598q8 424 299 424zM31 1487h352v-1481
h133v1481h352v117h-837v-117zM1829 6v1598h-129v-1598h129z" />
    <glyph glyph-name="_260" unicode="&#x2122;" horiz-adv-x="1480" 
d="M35 1518h219v-676h100v676h221v86h-540v-86zM1049 842l233 540v-540h96v762h-92l-276 -641l-277 641h-92v-762h96v540l234 -540h78z" />
    <glyph glyph-name="_643" unicode="&#x2126;" horiz-adv-x="1437" 
d="M719 1626q-291 0 -438 -186q-160 -198 -160 -629q0 -554 301 -686h-258v-117h450v117q-103 31 -174.5 93t-111.5 152.5t-57 195.5t-17 239q0 202 29.5 337.5t101.5 225.5q116 141 334 141q221 0 334 -141q71 -89 101 -226t30 -337q0 -134 -17.5 -239t-57.5 -195.5
t-111.5 -152.5t-174.5 -93v-117h449v117h-256q299 131 299 686q0 430 -158 629q-144 186 -438 186z" />
    <glyph glyph-name="_142" unicode="&#x212b;" 
d="M330 6h141l141 400h742l141 -400h139l-549 1520q85 26 135 93t50 159q0 116 -80 191t-207 75t-207 -75t-80 -191q0 -92 50 -159t135 -93zM1313 522h-662l332 934zM1169 1778q0 -80 -52.5 -127t-133.5 -47q-80 0 -133 47t-53 127q0 78 53 125t133 47q81 0 133.5 -47
t52.5 -125z" />
    <glyph glyph-name="_749" unicode="&#x2153;" 
d="M1716 797q0 -88 -54 -137.5t-140 -49.5h-99v-98h99q97 0 158 -57t61 -156q0 -93 -61.5 -153t-163.5 -60q-103 0 -164.5 60.5t-61.5 154.5v45h-114v-45q0 -134 89.5 -223.5t250.5 -89.5q159 0 250.5 88t91.5 221q0 106 -53.5 173.5t-149.5 94.5q89 25 131.5 90.5
t42.5 149.5q0 123 -86 200.5t-227 77.5q-142 0 -228 -79t-86 -201v-31h113v23q0 86 55 138t146 52t145.5 -50.5t54.5 -137.5zM459 545v1059h-101l-237 -113v-105l223 107v-948h115zM1331 1604h-114l-779 -1598h113z" />
    <glyph glyph-name="_750" unicode="&#x2154;" 
d="M608 1296q0 -56 -17 -97t-56 -85l-437 -481v-88h625v100h-471l360 395q62 68 87.5 125t25.5 133q0 146 -88 235t-236 89q-151 0 -238 -89t-87 -235v-32h117v30q0 96 55 159t153 63t152.5 -63t54.5 -159zM1421 1604h-114l-779 -1598h113zM1757 797q0 -88 -54 -137.5
t-140 -49.5h-99v-98h99q97 0 158 -57t61 -156q0 -93 -62 -153t-164 -60t-163.5 60.5t-61.5 154.5v45h-114v-45q0 -134 89 -223.5t250 -89.5q159 0 250.5 88t91.5 221q0 106 -53 173.5t-149 94.5q89 25 131.5 90.5t42.5 149.5q0 123 -86.5 200.5t-227.5 77.5
q-142 0 -227.5 -79t-85.5 -201v-31h113v23q0 86 54.5 138t145.5 52t146 -50.5t55 -137.5z" />
    <glyph glyph-name="_753" unicode="&#x215b;" 
d="M1509 -14q162 0 257.5 85.5t95.5 225.5q0 102 -54 175t-151 99q84 24 130 88t46 148q0 122 -87.5 198t-236.5 76q-146 0 -233.5 -76.5t-87.5 -197.5q0 -84 46.5 -148t129.5 -88q-96 -26 -149.5 -99t-53.5 -175q0 -140 93.5 -225.5t254.5 -85.5zM1509 520q106 0 172 -59.5
t66 -159.5q0 -99 -66.5 -158t-171.5 -59q-104 0 -168.5 59t-64.5 158q0 100 64.5 159.5t168.5 59.5zM1509 618q-97 0 -151.5 51t-54.5 130q0 80 54.5 131t151.5 51q100 0 155.5 -50.5t55.5 -131.5q0 -79 -55.5 -130t-155.5 -51zM459 545v1059h-101l-237 -113v-105l223 107
v-948h115zM1331 1604h-114l-779 -1598h113z" />
    <glyph glyph-name="_754" unicode="&#x215c;" 
d="M598 1333q0 -88 -54.5 -136t-140.5 -48h-96v-98h96q98 0 159 -56.5t61 -156.5q0 -94 -61.5 -153.5t-164.5 -59.5t-164 60t-61 155v45h-115v-45q0 -135 89.5 -224.5t250.5 -89.5q158 0 249 89t91 221q0 107 -52 174t-148 92q89 26 131.5 91.5t42.5 147.5
q0 124 -86.5 202.5t-227.5 78.5q-142 0 -227.5 -79.5t-85.5 -201.5v-30h113v22q0 86 54 137.5t146 51.5q93 0 147 -50.5t54 -138.5zM1413 1604h-113l-778 -1598h113zM1550 -14q162 0 257.5 85.5t95.5 225.5q0 102 -54 175t-151 99q84 24 130 88t46 148q0 122 -87.5 198
t-236.5 76q-146 0 -233.5 -76.5t-87.5 -197.5q0 -84 46.5 -148t129.5 -88q-96 -26 -149.5 -99t-53.5 -175q0 -140 93.5 -225.5t254.5 -85.5zM1550 520q106 0 172 -59.5t66 -159.5q0 -99 -66.5 -158t-171.5 -59q-104 0 -168.5 59t-64.5 158q0 100 64.5 159.5t168.5 59.5z
M1550 618q-97 0 -152 51t-55 130q0 80 55 131t152 51q100 0 155.5 -50.5t55.5 -131.5q0 -79 -55.5 -130t-155.5 -51z" />
    <glyph glyph-name="_755" unicode="&#x215d;" 
d="M70 842q9 -145 94.5 -229.5t232.5 -84.5q158 0 245 97t87 262q0 168 -77.5 265t-225.5 97q-73 0 -128 -28t-85 -78l18 360h445v101h-549l-27 -584h107q22 61 73.5 96t122.5 35q105 0 159 -69t54 -193q0 -123 -56.5 -191t-162.5 -69q-95 1 -150.5 57t-64.5 156h-112z
M1413 1604h-113l-778 -1598h113zM1550 -14q162 0 257.5 85.5t95.5 225.5q0 102 -54 175t-151 99q84 24 130 88t46 148q0 122 -87.5 198t-236.5 76q-146 0 -233.5 -76.5t-87.5 -197.5q0 -84 46.5 -148t129.5 -88q-96 -26 -149.5 -99t-53.5 -175q0 -140 93.5 -225.5
t254.5 -85.5zM1550 520q106 0 172 -59.5t66 -159.5q0 -99 -66.5 -158t-171.5 -59q-104 0 -168.5 59t-64.5 158q0 100 64.5 159.5t168.5 59.5zM1550 618q-97 0 -152 51t-55 130q0 80 55 131t152 51q100 0 155.5 -50.5t55.5 -131.5q0 -79 -55.5 -130t-155.5 -51z" />
    <glyph glyph-name="_756" unicode="&#x215e;" 
d="M70 1503h534l-362 -958h120l363 971v88h-655v-101zM1370 1604h-115l-778 -1598h113zM1550 -14q162 0 257.5 85.5t95.5 225.5q0 102 -54 175t-151 99q84 24 130 88t46 148q0 122 -87.5 198t-236.5 76q-146 0 -233.5 -76.5t-87.5 -197.5q0 -84 46.5 -148t129.5 -88
q-96 -26 -149.5 -99t-53.5 -175q0 -140 93.5 -225.5t254.5 -85.5zM1550 520q106 0 172 -59.5t66 -159.5q0 -99 -66.5 -158t-171.5 -59q-104 0 -168.5 59t-64.5 158q0 100 64.5 159.5t168.5 59.5zM1550 618q-97 0 -152 51t-55 130q0 80 55 131t152 51q100 0 155.5 -50.5
t55.5 -131.5q0 -79 -55.5 -130t-155.5 -51z" />
    <glyph glyph-name="_461" unicode="&#x2160;" 
d="M1192 6v117h-143v1364h143v117h-420v-117h143v-1364h-143v-117h420z" />
    <glyph glyph-name="_462" unicode="&#x2161;" 
d="M879 6v117h-138v1364h138v117h-406v-117h135v-1364h-135v-117h406zM1493 6v117h-137v1364h137v117h-406v-117h136v-1364h-136v-117h406z" />
    <glyph glyph-name="_463" unicode="&#x2162;" 
d="M1667 6v117h-127v1364h127v117h-385v-117h125v-1364h-125v-117h385zM1176 6v117h-127v1364h127v117h-385v-117h124v-1364h-124v-117h385zM684 6v117h-127v1364h127v117h-385v-117h125v-1364h-125v-117h385z" />
    <glyph glyph-name="_464" unicode="&#x2163;" 
d="M666 6v117h-134v1364h134v117h-400v-117h133v-1364h-133v-117h400zM1343 6l445 1598h-141l-387 -1446l-388 1446h-135l441 -1598h165z" />
    <glyph glyph-name="_465" unicode="&#x2164;" 
d="M330 1602l577 -1594h150l575 1594h-137l-512 -1424l-514 1424h-139z" />
    <glyph glyph-name="_466" unicode="&#x2165;" 
d="M1706 6v117h-133v1364h133v117h-399v-117h133v-1364h-133v-117h399zM791 6l444 1598h-141l-387 -1446l-388 1446h-135l441 -1598h166z" />
    <glyph glyph-name="_467" unicode="&#x2166;" 
d="M1851 6v117h-116v1364h116v117h-364v-117h115v-1364h-115v-117h364zM1401 6v117h-117v1364h117v117h-365v-117h115v-1364h-115v-117h365zM604 6l371 1598h-137l-314 -1432l-315 1432h-135l368 -1598h162z" />
    <glyph glyph-name="_468" unicode="&#x2167;" 
d="M1894 6v117h-100v1364h100v117h-329v-117h100v-1364h-100v-117h329zM1505 6v117h-100v1364h100v117h-329v-117h100v-1364h-100v-117h329zM1116 6v117h-100v1364h100v117h-330v-117h101v-1364h-101v-117h330zM481 6l248 1598h-133l-205 -1436l-207 1436h-131l248 -1598
h180z" />
    <glyph glyph-name="_469" unicode="&#x2168;" 
d="M623 8v115h-131v1364h131v115h-398v-115h133v-1364h-133v-115h398zM1827 8l-500 811l481 783h-143l-410 -666l-409 666h-144l482 -783l-500 -811h143l428 694l428 -694h144z" />
    <glyph glyph-name="_470" unicode="&#x2169;" 
d="M1427 1602l-446 -680l-444 680h-146l508 -779l-539 -815h150l471 715l473 -715h148l-539 815l512 779h-148z" />
    <glyph glyph-name="_451" unicode="&#x2170;" 
d="M1047 6v1141h-127v-1141h127zM1047 1395v209h-127v-209h127z" />
    <glyph glyph-name="_452" unicode="&#x2171;" 
d="M760 6v1141h-127v-1141h127zM760 1395v209h-127v-209h127zM1333 6v1141h-127v-1141h127zM1333 1395v209h-127v-209h127z" />
    <glyph glyph-name="_453" unicode="&#x2172;" 
d="M1047 6v1141h-127v-1141h127zM1047 1395v209h-127v-209h127zM596 6v1141h-127v-1141h127zM596 1395v209h-127v-209h127zM1497 6v1141h-127v-1141h127zM1497 1395v209h-127v-209h127z" />
    <glyph glyph-name="_454" unicode="&#x2173;" 
d="M1571 1149l-361 -999l-362 999h-135l422 -1141h149l422 1141h-135zM614 8v1137h-127v-1137h127zM614 1393v209h-127v-209h127z" />
    <glyph glyph-name="_455" unicode="&#x2174;" 
d="M1055 8l450 1137h-137l-385 -987l-387 987h-137l450 -1137h146z" />
    <glyph glyph-name="_456" unicode="&#x2175;" 
d="M1155 1145l-362 -995l-363 995h-135l422 -1137h151l422 1137h-135zM1516 8v1137h-127v-1137h127zM1516 1393v209h-127v-209h127z" />
    <glyph glyph-name="_457" unicode="&#x2176;" 
d="M895 1145l-287 -993l-286 993h-136l346 -1137h152l346 1137h-135zM1618 8v1137h-127v-1137h127zM1618 1393v209h-127v-209h127zM1270 8v1137h-127v-1137h127zM1270 1393v209h-127v-209h127z" />
    <glyph glyph-name="_458" unicode="&#x2177;" 
d="M702 1145l-241 -993l-242 993h-135l301 -1137h152l301 1137h-136zM1065 8v1137h-127v-1137h127zM1065 1393v209h-127v-209h127zM1413 8v1137h-127v-1137h127zM1413 1393v209h-127v-209h127zM1761 8v1137h-127v-1137h127zM1761 1393v209h-127v-209h127z" />
    <glyph glyph-name="_459" unicode="&#x2178;" 
d="M1722 8l-419 588l393 549h-144l-321 -451l-324 451h-141l393 -549l-422 -588h144l350 488l348 -488h143zM614 8v1137h-127v-1137h127zM614 1393v209h-127v-209h127z" />
    <glyph glyph-name="_460" unicode="&#x2179;" 
d="M1339 6h144l-422 586l399 555h-143l-334 -465l-334 465h-143l399 -555l-422 -586h144l356 492z" />
    <glyph glyph-name="_171" unicode="&#x2190;" 
d="M1880 817h-1460v191l-336 -244l336 -246v191h1460v108z" />
    <glyph glyph-name="_172" unicode="&#x2191;" 
d="M1036 -80v1462h191l-244 334l-246 -334h191v-1462h108z" />
    <glyph glyph-name="_170" unicode="&#x2192;" 
d="M84 709h1462v-191l334 246l-334 244v-191h-1462v-108z" />
    <glyph glyph-name="_173" unicode="&#x2193;" 
d="M928 1716v-1460h-191l246 -336l244 336h-191v1460h-108z" />
    <glyph glyph-name="_174" unicode="&#x2194;" 
d="M418 1008l-334 -244l334 -246v191h1126v-191l336 246l-336 244v-191h-1126v191z" />
    <glyph glyph-name="_247" unicode="&#x2195;" 
d="M737 254l248 -334l244 334h-191v1126h191l-244 336l-248 -336h193v-1126h-193z" />
    <glyph glyph-name="_250" unicode="&#x2196;" 
d="M1636 168l-1032 1032l133 135l-409 64l65 -410l133 133l1033 -1032z" />
    <glyph glyph-name="_248" unicode="&#x2197;" 
d="M406 90l1034 1032l133 -133l63 410l-409 -64l135 -135l-1034 -1032z" />
    <glyph glyph-name="_251" unicode="&#x2198;" 
d="M328 1321l1034 -1032l-135 -135l409 -64l-63 410l-133 -135l-1034 1034z" />
    <glyph glyph-name="_249" unicode="&#x2199;" 
d="M1559 1399l-1033 -1034l-133 135l-65 -410l409 64l-133 135l1032 1032z" />
    <glyph glyph-name="_8868" unicode="&#x21b0;" 
d="M455 1257h1325v-1411h-51v1362h-1274v-266l-271 289l271 285v-259z" />
    <glyph glyph-name="_8865" unicode="&#x21b1;" 
d="M195 1247h1304v256l273 -284l-273 -287v264h-1255v-1350h-49v1401z" />
    <glyph glyph-name="_8864" unicode="&#x21b2;" 
d="M1788 297h-1342v-258l-270 283l270 288v-258h1289v1391h53v-1446z" />
    <glyph glyph-name="_8869" unicode="&#x21b3;" 
d="M1495 313h-1298v1430h51v-1381h1247v263l272 -287l-272 -287v262z" />
    <glyph glyph-name="_8867" unicode="&#x21b4;" 
d="M1565 1454v-1335h258l-281 -273l-291 273h260v1284h-1370v51h1424z" />
    <glyph glyph-name="_8884" unicode="&#x21bc;" 
d="M481 1061q48 33 98 58t86 37.5t68.5 20.5t46 9.5t17.5 1.5q-13 -7 -42 -24t-89.5 -63t-104.5 -95q-38 -42 -72 -89t-50 -72.5t-17 -25.5h1501v-47h-1880q38 31 183 122.5t255 166.5z" />
    <glyph glyph-name="_8885" unicode="&#x21c0;" 
d="M1483 1061q115 -79 259 -169.5t181 -119.5h-1882v47h1501l-16 25q-15 26 -49 73t-72 89q-45 49 -104 94t-93 65.5t-41 22.5q12 0 45.5 -6t114.5 -37.5t156 -83.5z" />
    <glyph glyph-name="_8896" unicode="&#x21c4;" 
d="M1272 1358l641 -248l-641 -252l213 191h-1397v120h1401zM1878 551v-123h-1399l215 -186l-641 247l641 248l-217 -186h1401z" />
    <glyph glyph-name="_8897" unicode="&#x21c5;" 
d="M420 1087l250 639l248 -639l-191 211v-1390h-121v1395zM1235 1688h121v-1391l188 215l-252 -637l-248 637l191 -217v1393z" />
    <glyph glyph-name="_8816" unicode="&#x21cd;" 
d="M1096 952h-828l-162 -157l164 -160h740zM322 1004h788l107 399l49 -14l-103 -385h760v-52h-774l-86 -317h860v-53h-872l-111 -408l-49 12l104 396h-673l280 -287l-35 -31l-524 531l522 526l35 -35z" />
    <glyph glyph-name="_8815" unicode="&#x21cf;" 
d="M1640 592h-819l-108 -418l-54 12l109 406h-725v55h741l86 316h-827v51h840l104 389l49 -14l-98 -375h702l-280 284l37 37l526 -534l-528 -527l-37 35zM924 963l-88 -316h854l165 156l-161 160h-770z" />
    <glyph glyph-name="_8814" unicode="&#x21d0;" 
d="M1923 582h-1601l280 -287l-35 -31l-524 531l522 526l35 -35l-278 -282h1601v-52h-1655l-162 -157l162 -160h1655v-53z" />
    <glyph glyph-name="_8854" unicode="&#x21d1;" 
d="M801 1741v-1895h-51v1737l-617 -739l-49 45zM1159 1741v-1895h55v1737l617 -739l49 45z" />
    <glyph glyph-name="_195" unicode="&#x21d2;" 
d="M1868 764l-715 559l-68 -86l277 -215h-1266v-102h1401l199 -156l-205 -166h-1395v-102h1266l-279 -224l72 -88z" />
    <glyph glyph-name="_8855" unicode="&#x21d3;" 
d="M801 1733v-1891l-717 852l49 45l617 -741v1735h51zM1159 -158v1891h55v-1735l617 741l49 -45z" />
    <glyph glyph-name="_196" unicode="&#x21d4;" 
d="M1262 184l655 580l-657 559l-72 -84l256 -217h-928l258 217l-72 84l-657 -559l655 -580l74 86l-260 226h932l-258 -226zM1561 598h-1162l-188 166l182 156h1174l184 -156z" />
    <glyph glyph-name="_9190" unicode="&#x21e0;" 
d="M459 1214v-841l-389 420zM926 780q0 56 -40 95.5t-95 39.5q-56 0 -96 -40t-40 -95t40 -95t96 -40q55 0 95 39.5t40 95.5zM1413 780q0 56 -39.5 95.5t-95.5 39.5t-95.5 -39.5t-39.5 -95.5t39.5 -95.5t95.5 -39.5t95.5 39.5t39.5 95.5zM1896 780q0 56 -40 95.5t-95 39.5
t-95 -39.5t-40 -95.5t40 -95.5t95 -39.5t95 39.5t40 95.5z" />
    <glyph glyph-name="_9192" unicode="&#x21e1;" 
d="M559 1315h846l-418 391zM995 158q-55 0 -95 -40t-40 -95q0 -56 40 -96t95 -40t95 40t40 96q0 55 -40 95t-95 40zM995 645q-55 0 -95 -39.5t-40 -95.5t40 -95.5t95 -39.5t95 39.5t40 95.5t-40 95.5t-95 39.5zM995 1128q-55 0 -95 -40t-40 -95t40 -95t95 -40t95 40t40 95
t-40 95t-95 40z" />
    <glyph glyph-name="_9191" unicode="&#x21e2;" 
d="M1509 1217v-842l389 420zM336 780q0 56 -40 95.5t-95 39.5t-95 -39.5t-40 -95.5t40 -95.5t95 -39.5t95 39.5t40 95.5zM823 780q0 56 -39.5 95.5t-95.5 39.5t-95.5 -39.5t-39.5 -95.5t39.5 -95.5t95.5 -39.5t95.5 39.5t39.5 95.5zM1307 780q0 55 -40 95t-96 40
q-55 0 -95 -39.5t-40 -95.5t40 -95.5t95 -39.5q56 0 96 40t40 95z" />
    <glyph glyph-name="_9193" unicode="&#x21e3;" 
d="M559 274h846l-418 -391zM995 731q-55 0 -95 -39.5t-40 -95.5t40 -95.5t95 -39.5t95 39.5t40 95.5t-40 95.5t-95 39.5zM995 1219q-55 0 -95 -40t-40 -96q0 -55 40 -95t95 -40t95 40t40 95q0 56 -40 96t-95 40zM995 1702q-55 0 -95 -40t-40 -95t40 -95t95 -40t95 40t40 95
t-40 95t-95 40z" />
    <glyph glyph-name="_9198" unicode="&#x21e6;" 
d="M1837 506v571h-1051v344l-632 -628l632 -633v346h1051zM1894 1135v-684h-1054v-428l-770 772l770 768v-428h1054z" />
    <glyph glyph-name="_9200" unicode="&#x21e7;" 
d="M1272 -57h-576v1044h-346l635 635l635 -633h-348v-1046zM639 -115h688v1051h428l-770 770l-774 -772h428v-1049z" />
    <glyph glyph-name="_9199" unicode="&#x21e8;" 
d="M127 506v571h1051v344l632 -628l-632 -633v346h-1051zM70 1135v-684h1054v-428l770 772l-770 768v-428h-1054z" />
    <glyph glyph-name="_9201" unicode="&#x21e9;" 
d="M1272 1647h-576v-1045h-346l635 -635l635 633h-348v1047zM639 1704h688v-1051h428l-770 -770l-774 772h428v1049z" />
    <glyph glyph-name="_197" unicode="&#x2200;" 
d="M330 1602l577 -1594h150l575 1594h-137l-143 -398h-742l-141 398h-139zM649 1087h662l-328 -931z" />
    <glyph glyph-name="_151" unicode="&#x2202;" 
d="M991 1040q-231 0 -374.5 -161.5t-143.5 -429.5q0 -217 121.5 -342t323.5 -125q128 0 224 42t160.5 120.5t105.5 202.5t59.5 274.5t21.5 349.5v39q0 169 -28.5 289t-86 192t-137 104.5t-186.5 32.5q-179 0 -302.5 -100.5t-164.5 -284.5h135q33 133 118 203t207 70
q158 0 238 -114t80 -370q0 -84 -10 -217q-35 104 -129 164.5t-232 60.5zM926 94q-151 0 -237.5 93t-86.5 264q0 209 106 343t293 134q151 0 237.5 -95.5t86.5 -265.5q0 -219 -111 -346t-288 -127z" />
    <glyph glyph-name="_198" unicode="&#x2203;" 
d="M1419 1604h-915v-117h782v-643h-688v-117h688v-604h-770v-117h903v1598z" />
    <glyph glyph-name="_8715" unicode="&#x2206;" 
d="M313 102l631 1334q19 45 47 45q22 0 43 -43l611 -1307q21 -46 24 -76q0 -32 -67 -32h-1248q-32 0 -44.5 5.5t-12.5 22.5q0 14 16 51zM1442 166l-506 1077l-510 -1077h1016z" />
    <glyph glyph-name="_152" unicode="&#x2207;" 
d="M330 1602l577 -1594h150l575 1594h-1302zM1454 1485l-471 -1329l-475 1329h946z" />
    <glyph glyph-name="_184" unicode="&#x2208;" 
d="M209 795q0 -159 56.5 -280t162 -197t251.5 -114t329 -38h704v110h-704q-321 0 -489 117.5t-183 345.5h1376v113h-1376q35 459 672 459h704v112h-704q-184 0 -329.5 -38t-251 -113.5t-162 -196.5t-56.5 -280z" />
    <glyph glyph-name="_8749" unicode="&#x2209;" 
d="M924 303l-56 -199l-67 23l49 180q-210 26 -352 167.5t-142 326.5q0 100 45.5 191.5t122 158.5t183 107t223.5 40h194l68 242l72 -24l-62 -218h406v-75h-426l-107 -379h533v-76h-555l-109 -389h664v-76h-678h-6zM442 844h557l105 379h-174q-183 0 -325.5 -109.5
t-162.5 -269.5zM870 381l107 387h-535q13 -151 136.5 -259.5t291.5 -127.5z" />
    <glyph glyph-name="_185" unicode="&#x220b;" 
d="M1753 795q0 159 -56.5 280t-162 196.5t-251 113.5t-329.5 38h-704v-112h704q637 0 672 -459h-1376v-113h1376q-15 -228 -183 -345.5t-489 -117.5h-704v-110h704q183 0 329 38t251.5 114t162 197t56.5 280z" />
    <glyph glyph-name="_8750" unicode="&#x220c;" 
d="M838 303l-56 -199l-67 23l49 176h-408v76h428l107 389h-535v76h557l105 379h-662v75h678h4l68 242l72 -24l-64 -224q210 -26 352 -166.5t142 -324.5q0 -133 -76.5 -247.5t-209.5 -182.5t-288 -68h-196zM858 379h176q185 0 329 112.5t159 276.5h-555zM1094 1219l-105 -375
h531q-19 146 -140 251t-286 124z" />
    <glyph glyph-name="_213" unicode="&#x220f;" 
d="M1382 -143h134v1747h-1065v-1747h131v1630h800v-1630z" />
    <glyph glyph-name="_212" unicode="&#x2211;" 
d="M479 -33v-110h1006v114h-858l358 725v45l-360 746h860v117h-1006v-117l375 -768z" />
    <glyph glyph-name="_8726" unicode="&#x2213;" 
d="M317 1444v72h1332v-72h-1332zM317 686v74h625v524h76v-524h631v-74h-631v-504h-76v504h-625z" />
    <glyph glyph-name="_178" unicode="&#x221a;" 
d="M1253 1604h598v112h-698l-553 -1800l-356 692h-142l441 -852h139z" />
    <glyph glyph-name="_180" unicode="&#x221d;" 
d="M1528 565q-64 -47 -160 -47q-202 0 -319 244q118 244 319 244q82 0 141 -39l52 96q-79 43 -189 43q-121 0 -222.5 -67t-168.5 -201q-65 134 -166.5 201t-220.5 67q-164 0 -263.5 -93.5t-99.5 -250.5t99.5 -250.5t263.5 -93.5q118 0 220 67t167 199q67 -133 168.5 -199.5
t222.5 -66.5q124 0 215 57zM348 762q0 115 73 179.5t175 64.5q201 0 319 -244q-117 -244 -319 -244q-103 0 -175.5 64t-72.5 180z" />
    <glyph glyph-name="_136" unicode="&#x221e;" 
d="M1733 762q0 157 -99.5 250.5t-261.5 93.5q-121 0 -222.5 -67t-168.5 -201q-65 134 -166.5 201t-220.5 67q-164 0 -263.5 -93.5t-99.5 -250.5t99.5 -250.5t263.5 -93.5q118 0 220 67t167 199q67 -133 168.5 -199.5t222.5 -66.5q162 0 261.5 93.5t99.5 250.5zM1049 762
q118 244 319 244q104 0 177 -64.5t73 -179.5q0 -117 -73 -180.5t-177 -63.5q-202 0 -319 244zM348 762q0 115 73 179.5t175 64.5q201 0 319 -244q-117 -244 -319 -244q-103 0 -175.5 64t-72.5 180z" />
    <glyph glyph-name="_8717" unicode="&#x221f;" 
d="M383 252v1173h74v-1097h1124v-76h-1198z" />
    <glyph glyph-name="_148" unicode="&#x2220;" 
d="M1530 1495l-1321 -1288v-60h1544v113h-1323l1184 1157z" />
    <glyph glyph-name="_8738" unicode="&#x2222;" 
d="M393 836l854 333q-75 131 -219 193v82q198 -80 291 -246l268 105l25 -70l-262 -103q55 -135 55 -329q0 -181 -47 -312l254 -88l-27 -71l-258 90q-92 -180 -299 -262v82q150 63 225 204l-858 304q-41 15 -42 43t40 45zM1329 801q0 178 -51 303l-793 -307l799 -281
q45 119 45 285z" />
    <glyph glyph-name="_8719" unicode="&#x2225;" 
d="M768 -289h109v2003h-109v-2003zM1087 -289h109v2003h-109v-2003z" />
    <glyph glyph-name="_8720" unicode="&#x2226;" 
d="M842 1006l-297 487l65 39l277 -455l260 451l63 -43l-282 -475l180 -301l481 813l66 -43l-504 -842l301 -504l-55 -43l-287 477l-297 -479l-61 41l313 508l-180 301l-516 -844l-60 43z" />
    <glyph glyph-name="_192" unicode="&#x2227;" 
d="M334 8l647 1340l651 -1340l105 58l-738 1501h-34l-738 -1501z" />
    <glyph glyph-name="_193" unicode="&#x2228;" 
d="M999 -12l738 1501l-107 57l-649 -1341l-645 1341l-109 -57l738 -1501h34z" />
    <glyph glyph-name="_191" unicode="&#x2229;" 
d="M981 1546q-159 0 -280 -56.5t-197 -162t-114 -251t-38 -328.5v-705h127v705q0 345 132.5 518.5t369.5 173.5q239 0 371.5 -173.5t132.5 -518.5v-705h127v705q0 183 -38.5 328.5t-114.5 251t-197.5 162t-280.5 56.5z" />
    <glyph glyph-name="_190" unicode="&#x222a;" 
d="M981 4q159 0 280.5 56.5t197.5 162t114.5 251.5t38.5 329v704h-127v-704q0 -345 -132.5 -518.5t-371.5 -173.5q-237 0 -369.5 173.5t-132.5 518.5v704h-127v-704q0 -183 38 -329t114 -251.5t197 -162t280 -56.5z" />
    <glyph glyph-name="_182" unicode="&#x222b;" 
d="M592 -135v-101q78 -4 115 -4q189 0 264.5 69.5t75.5 248.5v1376q0 128 47 175.5t178 47.5h100v101q-58 6 -115 6q-185 0 -261 -71t-76 -249v-1378q0 -127 -47 -174t-177 -47h-104z" />
    <glyph glyph-name="_183" unicode="&#x222c;" 
d="M279 -135v-101q78 -4 114 -4q188 0 264 70t76 248v1376q0 128 46.5 175.5t176.5 47.5h103v101q-59 6 -115 6q-187 0 -262.5 -71t-75.5 -249v-1378q0 -127 -47 -174t-178 -47h-102zM907 -135v-101q78 -4 115 -4q187 0 262.5 69.5t75.5 248.5v1376q0 128 47 175.5t178 47.5
h103v101q-59 6 -115 6q-187 0 -263.5 -71t-76.5 -249v-1378q0 -127 -46.5 -174t-176.5 -47h-103z" />
    <glyph glyph-name="_211" unicode="&#x222e;" 
d="M594 770q0 -146 91 -250.5t233 -126.5v-307q0 -127 -47.5 -174t-178.5 -47h-102v-103q78 -4 115 -4q187 0 263 70.5t76 249.5v315q141 21 233.5 125.5t92.5 251.5t-92.5 251.5t-233.5 125.5v307q0 129 46.5 176t177.5 47h102v101q-58 6 -115 6q-187 0 -262 -71t-75 -249
v-317q-142 -22 -233 -126.5t-91 -250.5zM1257 770q0 -100 -59.5 -172.5t-153.5 -91.5v528q94 -19 153.5 -91.5t59.5 -172.5zM707 770q0 100 58 171.5t153 90.5v-524q-94 20 -152.5 92t-58.5 170z" />
    <glyph glyph-name="_137" unicode="&#x2234;" 
d="M1057 1411h-150v-223h150v223zM1575 455h-150v-222h150v222zM539 455h-150v-222h150v222z" />
    <glyph glyph-name="_181" unicode="&#x2235;" 
d="M1057 455h-150v-222h150v222zM1575 1411h-150v-223h150v223zM539 1411h-150v-223h150v223z" />
    <glyph glyph-name="_18161" unicode="&#x223c;" horiz-adv-x="1183" 
d="M786 578q122 0 186 87t66 248h-120q-3 -227 -138 -227q-32 0 -58.5 13t-46.5 34.5t-39 47t-41 51t-48 47t-64.5 34.5t-85.5 13q-122 0 -187 -87t-67 -247h121q6 227 137 227q43 0 77.5 -25t61 -60.5t56 -70.5t78 -60t112.5 -25z" />
    <glyph glyph-name="_179" unicode="&#x223d;" 
d="M936 795q-75 -129 -164.5 -203t-175.5 -74q-103 0 -175.5 64t-72.5 180q0 115 73 179.5t175 64.5q77 0 135 -31l39 88q-82 43 -176 43q-164 0 -263.5 -93.5t-99.5 -250.5t99.5 -250.5t263.5 -93.5q125 0 236.5 81t199.5 236q72 128 159.5 199.5t178.5 71.5
q104 0 177 -64.5t73 -179.5q0 -117 -73 -180.5t-177 -63.5q-85 0 -151 41l-48 -86q94 -55 203 -55q162 0 261.5 93.5t99.5 250.5t-99.5 250.5t-261.5 93.5q-254 0 -436 -311z" />
    <glyph glyph-name="_8500" unicode="&#x2243;" 
d="M952 963q-52 28 -73.5 38t-72.5 21.5t-112 11.5q-91 0 -183.5 -44t-164.5 -107l-22 84q62 83 167.5 143.5t221.5 60.5q40 0 74 -5t66 -17.5t51 -21.5t54.5 -28.5t51.5 -27.5q54 -29 74 -38.5t71.5 -21.5t112.5 -12q91 0 183.5 44.5t164.5 107.5l22 -84
q-62 -83 -167.5 -144t-221.5 -61q-49 0 -95.5 11t-67 19.5t-72.5 37t-62 33.5zM348 324v104h1292v-104h-1292z" />
    <glyph glyph-name="_8499" unicode="&#x2245;" 
d="M952 963q-52 28 -73.5 38t-72.5 21.5t-112 11.5q-91 0 -183.5 -44t-164.5 -107l-22 84q62 83 167.5 143.5t221.5 60.5q40 0 74 -5t66 -17.5t51 -21.5t54.5 -28.5t51.5 -27.5q54 -29 74 -38.5t71.5 -21.5t112.5 -12q91 0 183.5 44.5t164.5 107.5l22 -84
q-62 -83 -167.5 -144t-221.5 -61q-49 0 -95.5 11t-67 19.5t-72.5 37t-62 33.5zM348 78v104h1292v-104h-1292zM348 406v104h1292v-104h-1292z" />
    <glyph glyph-name="_8501" unicode="&#x2248;" 
d="M954 963q-52 28 -73.5 38t-72.5 21.5t-112 11.5q-91 0 -183.5 -44t-164.5 -107l-22 84q62 83 167.5 143.5t221.5 60.5q40 0 74 -5t66 -17.5t51 -21.5t54.5 -28.5t51.5 -27.5q54 -29 74 -38.5t71.5 -21.5t112.5 -12q91 0 183.5 44.5t164.5 107.5l22 -84
q-62 -83 -167.5 -144t-221.5 -61q-49 0 -95.5 11t-67 19.5t-72.5 37t-62 33.5zM954 348q-54 29 -74 38.5t-71.5 21.5t-112.5 12q-91 0 -183.5 -44.5t-164.5 -107.5l-22 84q62 83 167.5 144t221.5 61q40 0 74 -5t66 -17.5t51 -21.5t54.5 -28.5t51.5 -27.5q54 -29 74 -38.5
t71.5 -21.5t112.5 -12q91 0 183.5 44.5t164.5 107.5l22 -84q-62 -83 -167.5 -144t-221.5 -61q-40 0 -74 5t-66 17.5t-51 21.5t-54.5 28.5t-51.5 27.5z" />
    <glyph glyph-name="_8739" unicode="&#x2250;" 
d="M268 776v-74h1430v74h-1430zM268 412v-76h1430v76h-1430zM985 1251q58 0 91.5 -37t33.5 -86t-32 -84.5t-89 -35.5q-60 0 -92.5 35.5t-32.5 84.5q0 50 31.5 86t89.5 37z" />
    <glyph glyph-name="_8723" unicode="&#x2251;" 
d="M1681 1008v-78h-1396v78h1396zM1681 643v-76h-1396v76h1396zM979 1395q57 0 89 -36t32 -85q0 -51 -33.5 -87t-91.5 -36t-89.5 36t-31.5 85q0 51 32.5 87t92.5 36zM979 414q57 0 89 -36t32 -85q0 -51 -33.5 -87t-91.5 -36q-57 0 -89 37t-32 84q0 51 32.5 87t92.5 36z" />
    <glyph glyph-name="_154" unicode="&#x2252;" horiz-adv-x="1187" 
d="M121 879h946v108h-946v-108zM121 514h946v107h-946v-107zM420 1432h-139v-218h139v218zM907 285h-139v-217h139v217z" />
    <glyph glyph-name="_8722" unicode="&#x2253;" 
d="M1681 1008v-78h-1396v78h1396zM1681 643v-76h-1396v76h1396zM1397 1395q57 0 89 -36.5t32 -84.5q0 -51 -33.5 -87t-91.5 -36q-56 0 -87.5 36.5t-31.5 84.5q0 51 32.5 87t90.5 36zM586 414q57 0 88 -35.5t31 -85.5q0 -51 -32.5 -87t-90.5 -36q-56 0 -87.5 37t-31.5 84
q0 51 32.5 87t90.5 36z" />
    <glyph glyph-name="_8753" unicode="&#x225a;" 
d="M315 416h1334v-72h-1334v72zM1493 1397l-502 -903l-510 917l70 25l440 -774l432 763zM315 176h1334v-72h-1334v72z" />
    <glyph glyph-name="_133" unicode="&#x2260;" horiz-adv-x="1187" 
d="M121 899h506l-174 -299h-332v-106h270l-180 -312h108l179 312h569v106h-508l172 299h336v109h-272l178 309h-105l-182 -309h-565v-109z" />
    <glyph glyph-name="_153" unicode="&#x2261;" horiz-adv-x="1187" 
d="M121 1049h946v106h-946v-106zM121 344h946v109h-946v-109zM121 696h946v107h-946v-107z" />
    <glyph glyph-name="_8734" unicode="&#x2262;" 
d="M270 1090v71h875l143 252l64 -35l-125 -217h467v-71h-510l-148 -256h658v-68h-699l-145 -252h844v-70h-887l-164 -284l-61 33l145 251h-457v72h500l143 250h-643v68h684l148 256h-832z" />
    <glyph glyph-name="_134" unicode="&#x2264;" horiz-adv-x="1187" 
d="M1049 549l-775 371l775 368v125l-912 -440v-109l912 -438v123zM119 111h948v106h-948v-106z" />
    <glyph glyph-name="_135" unicode="&#x2265;" horiz-adv-x="1187" 
d="M1049 973l-912 440v-125l774 -368l-774 -371v-123l912 438v109zM1067 217h-948v-106h948v106z" />
    <glyph glyph-name="_8724" unicode="&#x2266;" 
d="M383 1073l1194 467l25 -70l-1127 -436l1127 -395l-27 -72l-1190 418q-41 15 -42 43t40 45zM330 426v72h1304v-72h-1304zM330 154v69h1304v-69h-1304z" />
    <glyph glyph-name="_8725" unicode="&#x2267;" 
d="M387 1540l1194 -467q42 -18 42.5 -44t-44.5 -44l-1190 -418l-27 72l1127 395l-1127 436zM1634 498v-72h-1304v72h1304zM1634 223v-69h-1304v69h1304z" />
    <glyph glyph-name="_18162" unicode="&#x226a;" 
d="M737 793l1059 -734l55 88l-954 662l954 655l-57 90l-1057 -731v-30zM111 793l1058 -734l56 88l-955 662l955 655l-58 90l-1056 -731v-30z" />
    <glyph glyph-name="_18163" unicode="&#x226b;" 
d="M1225 823l-1057 731l-57 -90l954 -655l-954 -662l55 -88l1059 734v30zM1851 823l-1056 731l-58 -90l955 -655l-955 -662l56 -88l1058 734v30z" />
    <glyph glyph-name="_8745" unicode="&#x226e;" 
d="M1276 1516l-80 -283l391 192l25 -69l-443 -219l-161 -580l604 -278l-27 -72l-600 272l-104 -375l-68 23l107 383l-525 240q-41 15 -42 43t40 45l713 350l98 352zM485 797l455 -209l139 504z" />
    <glyph glyph-name="_8746" unicode="&#x226f;" 
d="M1151 1516l-117 -414l537 -264q41 -17 40 -45t-42 -43l-725 -332l-88 -314l-68 23l70 252l-379 -172l-27 72l432 198l162 584l-594 295l25 69l590 -290l112 405zM1479 797l-465 229l-144 -510z" />
    <glyph glyph-name="_8481" unicode="&#x2270;" 
d="M305 1036l1278 574l33 -113l-1020 -453l1026 -407l-43 -117zM1659 492v-123h-1292v123h1292zM1659 195v-121h-1292v121h1292zM823 -168l-112 29l460 1900l115 -28z" />
    <glyph glyph-name="_8482" unicode="&#x2271;" 
d="M381 1610l1278 -574l-1274 -516l-43 117l1026 407l-1020 453zM305 369v123h1292v-123h-1292zM305 74v121h1292v-121h-1292zM1253 -139l-112 -29l-463 1901l115 28z" />
    <glyph glyph-name="_8483" unicode="&#x2272;" 
d="M305 1036l1278 574l33 -113l-1020 -453l1026 -407l-43 -117zM973 123q-54 29 -74 38.5t-71.5 21.5t-112.5 12q-91 0 -183.5 -44.5t-164.5 -107.5l-23 84q62 83 167.5 144t221.5 61q49 0 95.5 -11t67 -19.5t72.5 -37t62 -33.5q52 -28 73.5 -38t72.5 -21.5t112 -11.5
q91 0 183.5 44t164.5 107l23 -84q-62 -83 -167.5 -143.5t-221.5 -60.5q-40 0 -74 5t-66 17.5t-51 21.5t-54.5 28.5t-51.5 27.5z" />
    <glyph glyph-name="_8484" unicode="&#x2273;" 
d="M334 1497l35 113l1276 -574l-1272 -516l-45 117l1028 407zM948 123q-54 29 -74 38.5t-71.5 21.5t-112.5 12q-91 0 -183.5 -44.5t-164.5 -107.5l-23 84q62 83 168 144t222 61q49 0 95.5 -11t67 -19.5t72.5 -37t62 -33.5q52 -28 73.5 -38t72.5 -21.5t112 -11.5
q91 0 183.5 44t164.5 107l22 -84q-62 -83 -167.5 -143.5t-221.5 -60.5q-40 0 -74 5t-66 17.5t-51 21.5t-54.5 28.5t-51.5 27.5z" />
    <glyph glyph-name="_8489" unicode="&#x2276;" 
d="M1651 1425l-1016 -321l1016 -322l-33 -114l-1303 436l1303 436zM315 147l1016 322l-1016 322l33 114l1303 -436l-1303 -436z" />
    <glyph glyph-name="_8490" unicode="&#x2277;" 
d="M338 1544l1292 -440l-1294 -438v125l987 313l-985 315v125zM1630 31l-1294 440l1292 438v-123l-985 -315l987 -315v-125z" />
    <glyph glyph-name="_8491" unicode="&#x2279;" 
d="M338 1544l1292 -440l-1294 -438v125l987 313l-985 315v125zM1630 31l-1294 440l1292 438v-123l-985 -315l987 -315v-125zM805 -168l-113 29l461 1900l115 -28z" />
    <glyph glyph-name="_8475" unicode="&#x227a;" 
d="M342 795q744 220 1225 610l57 -113q-474 -363 -950 -497q473 -136 950 -498l-57 -113q-483 392 -1225 611z" />
    <glyph glyph-name="_8476" unicode="&#x227b;" 
d="M1624 795q-742 -219 -1225 -611l-57 113q477 362 950 498q-476 134 -950 497l57 113q481 -390 1225 -610z" />
    <glyph glyph-name="_8479" unicode="&#x2280;" 
d="M1063 1569v-1549h-117v1549h117zM342 795q744 220 1225 610l57 -113q-474 -363 -950 -497q473 -136 950 -498l-57 -113q-483 392 -1225 611z" />
    <glyph glyph-name="_8480" unicode="&#x2281;" 
d="M903 20v1549h117v-1549h-117zM1624 795q-742 -219 -1225 -611l-57 113q477 362 950 498q-476 134 -950 497l57 113q481 -390 1225 -610z" />
    <glyph glyph-name="_188" unicode="&#x2282;" 
d="M211 795q0 -159 56.5 -280t162 -197t251.5 -114t329 -38h702v113h-702q-339 0 -507.5 134.5t-168.5 381.5q0 249 168.5 383.5t507.5 134.5h702v112h-702q-183 0 -329 -38t-251.5 -114.5t-162 -197.5t-56.5 -280z" />
    <glyph glyph-name="_189" unicode="&#x2283;" 
d="M1753 795q0 159 -56.5 280t-162 197.5t-251.5 114.5t-329 38h-702v-112h702q339 0 507.5 -134.5t168.5 -383.5q0 -247 -168.5 -381.5t-507.5 -134.5h-702v-113h702q183 0 329 38t251.5 114t162 197t56.5 280z" />
    <glyph glyph-name="_8748" unicode="&#x2284;" 
d="M924 303l-56 -199l-67 23l49 180q-210 26 -352 167.5t-142 326.5q0 100 45.5 191.5t122 158.5t183 107t223.5 40h194l68 242l72 -24l-62 -218h406v-75h-426l-238 -844h664v-76h-678h-6zM440 801q0 -161 126.5 -280t303.5 -140l234 842h-174q-127 0 -239.5 -55
t-181.5 -153t-69 -214z" />
    <glyph glyph-name="_8747" unicode="&#x2285;" 
d="M840 303l-56 -199l-67 23l49 176h-410v76h430l234 844h-664v75h678h6l68 242l72 -24l-64 -224q210 -26 351 -166.5t141 -324.5q0 -133 -76.5 -247.5t-209.5 -182.5t-288 -68h-194zM860 379h174q127 0 239.5 55t181.5 153t69 214q0 160 -125.5 278.5t-302.5 139.5z" />
    <glyph glyph-name="_186" unicode="&#x2286;" 
d="M254 111v-109h1464v109h-1464zM205 1020q0 -269 188.5 -402t542.5 -133h772v113h-772q-312 0 -460 102.5t-148 319.5t148 319.5t460 102.5h772v112h-772q-354 0 -542.5 -132.5t-188.5 -401.5z" />
    <glyph glyph-name="_187" unicode="&#x2287;" 
d="M246 111v-109h1466v109h-1466zM1759 1020q0 269 -188 401.5t-541 132.5h-772v-112h772q312 0 459 -102.5t147 -319.5t-147 -319.5t-459 -102.5h-772v-113h772q353 0 541 133t188 402z" />
    <glyph glyph-name="_8486" unicode="&#x228a;" 
d="M434 1087q0 -87 44.5 -166t127 -130.5t182.5 -51.5h875v-123h-858q-109 0 -204.5 40t-160 105.5t-102 150.5t-37.5 175t37.5 175t102 151t160 106t204.5 40h858v-123h-875q-100 0 -182.5 -51.5t-127 -131t-44.5 -166.5zM1665 195v-121h-1292v121h1292zM1665 492v-123
h-1292v123h1292zM1063 721l117 -33l-236 -825l-119 33z" />
    <glyph glyph-name="_8488" unicode="&#x228b;" 
d="M1532 1087q0 87 -44.5 166.5t-127 131t-182.5 51.5h-875v123h858q109 0 204.5 -40t160 -106t102 -151t37.5 -175t-37.5 -175t-102 -150.5t-160 -105.5t-204.5 -40h-858v123h875q100 0 182.5 51.5t127 130.5t44.5 166zM301 74v121h1292v-121h-1292zM301 369v123h1292v-123
h-1292zM1022 721l117 -33l-236 -825l-119 33z" />
    <glyph glyph-name="_8727" unicode="&#x2295;" 
d="M291 754v75h655v650h78v-650h651v-75h-651v-643h-78v643h-655zM985 1618q134 0 259 -41t225.5 -116t175.5 -175.5t116 -225.5t41 -259t-41 -259t-116 -225.5t-175.5 -175.5t-225.5 -116t-259 -41q-169 0 -321.5 64t-262 173.5t-173.5 260.5t-64 319t64 319t173.5 260.5
t262 173.5t321.5 64zM985 1546q-123 0 -238 -37.5t-206.5 -106t-160.5 -160t-106.5 -205.5t-37.5 -236q0 -204 99.5 -375.5t271.5 -271t378 -99.5q153 0 291 59t237.5 158.5t158.5 237.5t59 291t-59 291t-158.5 237.5t-237.5 158t-291 58.5z" />
    <glyph glyph-name="_8728" unicode="&#x2296;" 
d="M295 758v73h1384v-73h-1384zM985 1618q134 0 259 -41t225.5 -116t175.5 -175.5t116 -225.5t41 -259t-41 -259t-116 -225.5t-175.5 -175.5t-225.5 -116t-259 -41q-169 0 -321.5 64t-262 173.5t-173.5 260.5t-64 319t64 319t173.5 260.5t262 173.5t321.5 64zM985 1546
q-123 0 -238 -37.5t-206.5 -106t-160.5 -160t-106.5 -205.5t-37.5 -236q0 -204 99.5 -375.5t271.5 -271t378 -99.5q153 0 291 59t237.5 158.5t158.5 237.5t59 291t-59 291t-158.5 237.5t-237.5 158t-291 58.5z" />
    <glyph glyph-name="_8729" unicode="&#x2297;" 
d="M522 283l-55 57l461 461l-457 454l55 56l459 -457l459 459l55 -56l-461 -456l467 -461l-57 -53l-463 461zM985 1618q134 0 259 -41t225.5 -116t175.5 -175.5t116 -225.5t41 -259t-41 -259t-116 -225.5t-175.5 -175.5t-225.5 -116t-259 -41q-169 0 -321.5 64t-262 173.5
t-173.5 260.5t-64 319t64 319t173.5 260.5t262 173.5t321.5 64zM985 1546q-123 0 -238 -37.5t-206.5 -106t-160.5 -160t-106.5 -205.5t-37.5 -236q0 -204 99.5 -375.5t271.5 -271t378 -99.5q153 0 291 59t237.5 158.5t158.5 237.5t59 291t-59 291t-158.5 237.5t-237.5 158
t-291 58.5z" />
    <glyph glyph-name="_18164" unicode="&#x2299;" 
d="M653 799q0 -137 96.5 -233.5t233.5 -96.5t233.5 96.5t96.5 233.5q0 136 -96.5 232.5t-233.5 96.5t-233.5 -96.5t-96.5 -232.5zM1870 799q0 182 -70.5 347t-189.5 283.5t-283 188.5t-344 70q-145 0 -281 -44.5t-245 -126t-191 -190.5t-127 -245.5t-45 -282.5
q0 -183 69.5 -347.5t188.5 -283.5t283.5 -188.5t347.5 -69.5q181 0 345.5 69.5t283 188t188.5 283.5t70 348zM211 799q0 159 60 302.5t162.5 248t246 166t303.5 61.5t303.5 -61.5t246.5 -166t163.5 -248t60.5 -302.5t-60.5 -303t-163.5 -248.5t-246.5 -166t-303.5 -61.5
q-128 0 -246.5 39.5t-213 111.5t-165.5 168t-109 214.5t-38 245.5z" />
    <glyph glyph-name="_8742" unicode="&#x22a3;" 
d="M1526 141h-74v623h-1014v72h1014v608h74v-1303z" />
    <glyph glyph-name="_8503" unicode="&#x22a4;" 
d="M920 1245h-584v121h1292v-121h-567v-1069h-141v1069z" />
    <glyph glyph-name="_149" unicode="&#x22a5;" 
d="M1047 252v1294h-129v-1294h-697v-113h1524v113h-698z" />
    <glyph glyph-name="_8751" unicode="&#x22bb;" 
d="M315 248h1334v-72h-1334v72zM1534 1434l-543 -1108l-551 1122l70 25l481 -979l473 968z" />
    <glyph glyph-name="_8752" unicode="&#x22bc;" 
d="M1651 1321h-1336v72h1336v-72zM983 1235l543 -1108l-70 -29l-473 969l-481 -979l-70 25z" />
    <glyph glyph-name="_8477" unicode="&#x22ce;" 
d="M983 1458q220 -744 610 -1225l-112 -57q-362 477 -498 950q-134 -474 -498 -950l-112 57q390 481 610 1225z" />
    <glyph glyph-name="_8478" unicode="&#x22cf;" 
d="M983 156q-219 742 -610 1224l112 58q364 -475 498 -951q137 475 498 951l112 -58q-391 -482 -610 -1224z" />
    <glyph glyph-name="_8492" unicode="&#x22da;" 
d="M1610 1487l-934 -240l934 -239l-33 -115l-1303 354l1303 355zM356 86l934 240l-934 239l33 115l1303 -354l-1303 -355zM1628 838v-105h-1292v105h1292z" />
    <glyph glyph-name="_8493" unicode="&#x22db;" 
d="M1290 1247l-934 240l33 115l1303 -355l-1303 -354l-33 115zM676 326l934 -240l-33 -115l-1303 355l1303 354l33 -115zM338 733v105h1292v-105h-1292z" />
    <glyph glyph-name="_8754" unicode="&#x2306;" 
d="M1649 1139h-1334v71h1334v-71zM991 1061l502 -903l-70 -29l-432 764l-440 -774l-70 24zM1649 1378h-1334v72h1334v-72z" />
    <glyph glyph-name="_150" unicode="&#x2312;" 
d="M63 1352l60 -86q359 362 862 362q494 0 862 -362l58 86q-391 391 -920 391q-538 0 -922 -391z" />
    <glyph glyph-name="_8731" unicode="&#x2314;" 
d="M1614 1198l-631 -1120l-631 1120q145 86 309 139.5t322 53.5t322 -53.5t309 -139.5zM983 1325q-131 0 -278.5 -43.5t-255.5 -110.5l534 -956l535 956q-107 66 -255.5 110t-279.5 44z" />
    <glyph glyph-name="_733" unicode="&#x2460;" 
d="M59 805q0 -153 46.5 -294t131.5 -254t198.5 -197t254.5 -129.5t293 -45.5t293 45.5t254.5 129.5t198.5 197t131.5 254t46.5 294q0 191 -72.5 361.5t-196 292.5t-294.5 193.5t-361 71.5t-361 -71.5t-294.5 -193.5t-196 -292.5t-72.5 -361.5zM154 805q0 172 65 326.5
t175.5 265t264 175t324.5 64.5t324.5 -64.5t264 -175t175.5 -265t65 -326.5q0 -230 -110 -421t-300.5 -301t-418.5 -110t-418.5 110t-300.5 301t-110 421zM1090 240v1146h-99l-313 -141v-121l291 127v-1011h121z" />
    <glyph glyph-name="_734" unicode="&#x2461;" 
d="M59 805q0 -153 46.5 -294t131.5 -254t198.5 -197t254.5 -129.5t293 -45.5t293 45.5t254.5 129.5t198.5 197t131.5 254t46.5 294q0 191 -72.5 361.5t-196 292.5t-294.5 193.5t-361 71.5t-361 -71.5t-294.5 -193.5t-196 -292.5t-72.5 -361.5zM154 805q0 172 65 326.5
t175.5 265t264 175t324.5 64.5t324.5 -64.5t264 -175t175.5 -265t65 -326.5q0 -230 -110 -421t-300.5 -301t-418.5 -110t-418.5 110t-300.5 301t-110 421zM1327 1083q0 146 -92 244t-254 98q-161 0 -252.5 -98t-91.5 -244v-45h123v45q0 103 59 169.5t162 66.5t163 -66.5
t60 -169.5q0 -100 -88 -204l-461 -525v-94h686v109h-520l391 442q64 72 89.5 133.5t25.5 138.5z" />
    <glyph glyph-name="_735" unicode="&#x2462;" 
d="M57 805q0 -153 46.5 -294.5t131.5 -254.5t199 -196.5t255 -129t294 -45.5q152 0 293 45.5t254.5 129t198.5 196.5t131.5 254.5t46.5 294.5q0 191 -72.5 361.5t-196 292.5t-294.5 193.5t-361 71.5t-361.5 -71.5t-295.5 -193.5t-196.5 -292.5t-72.5 -361.5zM154 805
q0 172 64.5 326t175 264.5t264.5 175.5t325 65q170 0 323 -65t263.5 -175.5t175.5 -265t65 -325.5q0 -230 -110 -421t-300 -301t-417 -110q-228 0 -418.5 110t-300.5 301t-110 421zM1229 567q0 -107 -66 -169t-172 -62q-110 0 -175.5 70.5t-65.5 195.5h-121
q0 -174 95.5 -274.5t266.5 -100.5q162 0 261.5 92t99.5 248q0 109 -50 183t-135 106q72 32 112 99t40 157q0 129 -89.5 214t-238.5 85q-151 0 -240 -84.5t-89 -214.5v-41h122v35q0 89 55.5 143t151.5 54q92 0 148.5 -54.5t56.5 -142.5q0 -85 -50 -142t-142 -57h-132v-106
h127q106 0 168 -63.5t62 -170.5z" />
    <glyph glyph-name="_736" unicode="&#x2463;" 
d="M59 805q0 -153 46.5 -294t131.5 -254t198.5 -197t254.5 -129.5t293 -45.5t293 45.5t254.5 129.5t198.5 197t131.5 254t46.5 294q0 191 -72.5 361.5t-196 292.5t-294.5 193.5t-361 71.5t-361 -71.5t-294.5 -193.5t-196 -292.5t-72.5 -361.5zM154 805q0 172 65 326.5
t175.5 265t264 175t324.5 64.5t324.5 -64.5t264 -175t175.5 -265t65 -326.5q0 -230 -110 -421t-300.5 -301t-418.5 -110t-418.5 110t-300.5 301t-110 421zM717 616l338 560v-560h-338zM1333 616h-155v779h-125l-482 -789v-98h484v-258h123v258h155v108z" />
    <glyph glyph-name="_737" unicode="&#x2464;" 
d="M59 805q0 -153 46.5 -294t131.5 -254t198.5 -197t254.5 -129.5t293 -45.5t293 45.5t254.5 129.5t198.5 197t131.5 254t46.5 294q0 191 -72.5 361.5t-196 292.5t-294.5 193.5t-361 71.5t-361 -71.5t-294.5 -193.5t-196 -292.5t-72.5 -361.5zM154 805q0 172 65 326.5
t175.5 265t264 175t324.5 64.5t324.5 -64.5t264 -175t175.5 -265t65 -326.5q0 -230 -110 -421t-300.5 -301t-418.5 -110t-418.5 110t-300.5 301t-110 421zM991 881q110 0 170 -73.5t60 -205.5q0 -135 -60 -207.5t-170 -72.5q-98 0 -157.5 59.5t-71.5 175.5h-121
q14 -161 105.5 -251.5t244.5 -90.5q164 0 258 100.5t94 282.5q0 187 -91 288t-246 101q-134 0 -201 -82l18 367h459v108h-573l-29 -641h115q29 69 80 105.5t116 36.5z" />
    <glyph glyph-name="_738" unicode="&#x2465;" 
d="M57 805q0 -153 46.5 -294.5t131.5 -254.5t199 -196.5t255 -129t294 -45.5q152 0 293 45.5t254.5 129t198.5 196.5t131.5 254.5t46.5 294.5q0 191 -72.5 361.5t-196 292.5t-294.5 193.5t-361 71.5t-361.5 -71.5t-295.5 -193.5t-196.5 -292.5t-72.5 -361.5zM154 805
q0 172 64.5 326t175 264.5t264.5 175.5t325 65q170 0 323 -65t263.5 -175.5t175.5 -265t65 -325.5q0 -230 -110 -421t-300 -301t-417 -110q-228 0 -418.5 110t-300.5 301t-110 421zM1315 1106q-18 147 -104 222t-224 75q-132 0 -208.5 -60.5t-114 -208t-37.5 -407.5
q0 -506 358 -506q163 0 260.5 103.5t97.5 283.5q0 178 -94.5 280.5t-255.5 102.5t-241 -114q6 226 59.5 322.5t171.5 96.5q86 0 139.5 -48t65.5 -142h127zM985 328q-106 0 -170.5 74.5t-64.5 205.5q0 129 64.5 203t170.5 74q108 0 172 -74t64 -203q0 -132 -63.5 -206
t-172.5 -74z" />
    <glyph glyph-name="_739" unicode="&#x2466;" 
d="M59 805q0 -153 46.5 -294t131.5 -254t198.5 -197t254.5 -129.5t293 -45.5t293 45.5t254.5 129.5t198.5 197t131.5 254t46.5 294q0 191 -72.5 361.5t-196 292.5t-294.5 193.5t-361 71.5t-361 -71.5t-294.5 -193.5t-196 -292.5t-72.5 -361.5zM154 805q0 172 65 326.5
t175.5 265t264 175t324.5 64.5t324.5 -64.5t264 -175t175.5 -265t65 -326.5q0 -230 -110 -421t-300.5 -301t-418.5 -110t-418.5 110t-300.5 301t-110 421zM643 1225h555l-401 -1039h129l403 1059v86h-686v-106z" />
    <glyph glyph-name="_740" unicode="&#x2467;" 
d="M59 805q0 -153 46.5 -294t131.5 -254t198.5 -197t254.5 -129.5t293 -45.5t293 45.5t254.5 129.5t198.5 197t131.5 254t46.5 294q0 191 -72.5 361.5t-196 292.5t-294.5 193.5t-361 71.5t-361 -71.5t-294.5 -193.5t-196 -292.5t-72.5 -361.5zM154 805q0 172 65 326.5
t175.5 265t264 175t324.5 64.5t324.5 -64.5t264 -175t175.5 -265t65 -326.5q0 -230 -110 -421t-300.5 -301t-418.5 -110t-418.5 110t-300.5 301t-110 421zM985 219q171 0 275 89.5t104 244.5q0 107 -52.5 183t-144.5 110q76 34 119 101.5t43 154.5q0 135 -93 218t-251 83
q-157 0 -250.5 -83t-93.5 -218q0 -88 42.5 -156t117.5 -102q-93 -33 -143 -107.5t-50 -183.5q0 -155 103 -244.5t274 -89.5zM1208 1096q0 -91 -62 -145t-161 -54t-160 54t-61 145q0 90 61 145t160 55t161 -55t62 -145zM729 557q0 107 71 169t185 62t185 -62t71 -169
t-70.5 -168t-185.5 -61t-185.5 61t-70.5 168z" />
    <glyph glyph-name="_741" unicode="&#x2468;" 
d="M57 805q0 -153 46.5 -294.5t131.5 -254.5t199 -196.5t255 -129t294 -45.5q152 0 293 45.5t254.5 129t198.5 196.5t131.5 254.5t46.5 294.5q0 191 -72.5 361.5t-196 292.5t-294.5 193.5t-361 71.5t-361.5 -71.5t-295.5 -193.5t-196.5 -292.5t-72.5 -361.5zM154 805
q0 172 64.5 326t175 264.5t264.5 175.5t325 65q170 0 323 -65t263.5 -175.5t175.5 -265t65 -325.5q0 -230 -110 -421t-300 -301t-417 -110q-228 0 -418.5 110t-300.5 301t-110 421zM645 510q18 -147 104.5 -223t225.5 -76q130 0 206.5 62.5t114 210t37.5 403.5
q0 252 -86.5 380t-271.5 128q-162 0 -260.5 -104t-98.5 -283q0 -177 96 -281t255 -104q80 0 142.5 30t98.5 84q-9 -227 -61 -322.5t-170 -95.5q-85 0 -139 48t-66 143h-127zM975 1286q106 0 170.5 -74t64.5 -204q0 -129 -64.5 -204t-170.5 -75q-108 0 -172 74.5t-64 204.5
q0 131 64 204.5t172 73.5z" />
    <glyph glyph-name="_742" unicode="&#x2469;" 
d="M59 805q0 -153 46.5 -294t131.5 -254t198.5 -197t254.5 -129.5t293 -45.5t293 45.5t254.5 129.5t198.5 197t131.5 254t46.5 294q0 191 -72.5 361.5t-196 292.5t-294.5 193.5t-361 71.5t-361 -71.5t-294.5 -193.5t-196 -292.5t-72.5 -361.5zM154 805q0 172 65 326.5
t175.5 265t264 175t324.5 64.5t324.5 -64.5t264 -175t175.5 -265t65 -326.5q0 -230 -110 -421t-300.5 -301t-418.5 -110t-418.5 110t-300.5 301t-110 421zM725 262v1088h-96l-252 -136v-127l225 121v-946h123zM1057 809q0 170 15.5 266.5t57.5 138.5q40 50 109 50
q67 0 107 -50q42 -42 58.5 -139.5t16.5 -265.5t-16.5 -266t-58.5 -140q-40 -49 -107 -49q-69 0 -109 49q-42 42 -57.5 139t-15.5 267zM934 809q0 -202 30.5 -322t100.5 -176q66 -63 174 -63q106 0 172 63q71 55 101 175t30 323t-30 323t-101 175q-66 63 -172 63
q-108 0 -174 -63q-70 -56 -100.5 -176t-30.5 -322z" />
    <glyph glyph-name="_743" unicode="&#x246a;" 
d="M59 805q0 -153 46.5 -294t131.5 -254t198.5 -197t254.5 -129.5t293 -45.5t293 45.5t254.5 129.5t198.5 197t131.5 254t46.5 294q0 191 -72.5 361.5t-196 292.5t-294.5 193.5t-361 71.5t-361 -71.5t-294.5 -193.5t-196 -292.5t-72.5 -361.5zM154 805q0 172 65 326.5
t175.5 265t264 175t324.5 64.5t324.5 -64.5t264 -175t175.5 -265t65 -326.5q0 -230 -110 -421t-300.5 -301t-418.5 -110t-418.5 110t-300.5 301t-110 421zM786 262v1088h-96l-252 -136v-127l226 121v-946h122zM1386 262v1088h-96l-252 -136v-127l228 121v-946h120z" />
    <glyph glyph-name="_744" unicode="&#x246b;" 
d="M59 805q0 -153 46.5 -294t131.5 -254t198.5 -197t254.5 -129.5t293 -45.5t293 45.5t254.5 129.5t198.5 197t131.5 254t46.5 294q0 191 -72.5 361.5t-196 292.5t-294.5 193.5t-361 71.5t-361 -71.5t-294.5 -193.5t-196 -292.5t-72.5 -361.5zM154 805q0 172 65 326.5
t175.5 265t264 175t324.5 64.5t324.5 -64.5t264 -175t175.5 -265t65 -326.5q0 -230 -110 -421t-300.5 -301t-418.5 -110t-418.5 110t-300.5 301t-110 421zM725 262v1088h-96l-252 -136v-127l225 121v-946h123zM1509 1051q0 138 -75.5 231.5t-208.5 93.5q-132 0 -207.5 -93.5
t-75.5 -231.5v-47h123v47q0 95 42.5 156t117.5 61t119.5 -60.5t44.5 -156.5q0 -98 -68 -193l-365 -498v-90h566v109h-408l305 412q50 69 70 128.5t20 131.5z" />
    <glyph glyph-name="_745" unicode="&#x246c;" 
d="M57 805q0 -153 46.5 -294.5t131.5 -254.5t199 -196.5t255 -129t294 -45.5q152 0 293 45.5t254.5 129t198.5 196.5t131.5 254.5t46.5 294.5q0 191 -72.5 361.5t-196 292.5t-294.5 193.5t-361 71.5t-361.5 -71.5t-295.5 -193.5t-196.5 -292.5t-72.5 -361.5zM154 805
q0 172 64.5 326t175 264.5t264.5 175.5t325 65q170 0 323 -65t263.5 -175.5t175.5 -265t65 -325.5q0 -230 -110 -421t-300 -301t-417 -110q-228 0 -418.5 110t-300.5 301t-110 421zM723 262v1088h-94q-43 -23 -127 -69t-127 -69v-125q38 21 113.5 60.5t113.5 60.5v-946h121z
M1395 569q0 -98 -49 -157.5t-125 -59.5q-84 0 -130.5 66t-46.5 186h-120q0 -168 78.5 -263t218.5 -95q133 0 214 86.5t81 234.5q0 102 -40.5 173.5t-107.5 101.5q57 29 89 92.5t32 148.5q0 123 -72.5 204t-195.5 81q-124 0 -197.5 -81t-73.5 -204v-43h121v37q0 81 41 132
t109 51q65 0 106 -51.5t41 -131.5q0 -78 -35.5 -131t-101.5 -53h-115v-107h111q78 0 123 -58.5t45 -158.5z" />
    <glyph glyph-name="_746" unicode="&#x246d;" 
d="M59 805q0 -153 46.5 -294t131.5 -254t198.5 -197t254.5 -129.5t293 -45.5t293 45.5t254.5 129.5t198.5 197t131.5 254t46.5 294q0 191 -72.5 361.5t-196 292.5t-294.5 193.5t-361 71.5t-361 -71.5t-294.5 -193.5t-196 -292.5t-72.5 -361.5zM154 805q0 172 65 326.5
t175.5 265t264 175t324.5 64.5t324.5 -64.5t264 -175t175.5 -265t65 -326.5q0 -230 -110 -421t-300.5 -301t-418.5 -110t-418.5 110t-300.5 301t-110 421zM725 262v1088h-96l-252 -136v-127l225 121v-946h123zM1036 610l250 477v-477h-250zM1530 610h-123v736h-119
l-389 -752v-92h387v-244h121v244h123v108z" />
    <glyph glyph-name="_747" unicode="&#x246e;" 
d="M59 805q0 -153 46.5 -294t131.5 -254t198.5 -197t254.5 -129.5t293 -45.5t293 45.5t254.5 129.5t198.5 197t131.5 254t46.5 294q0 191 -72.5 361.5t-196 292.5t-294.5 193.5t-361 71.5t-361 -71.5t-294.5 -193.5t-196 -292.5t-72.5 -361.5zM154 805q0 172 65 326.5
t175.5 265t264 175t324.5 64.5t324.5 -64.5t264 -175t175.5 -265t65 -326.5q0 -230 -110 -421t-300.5 -301t-418.5 -110t-418.5 110t-300.5 301t-110 421zM725 262v1088h-96l-252 -136v-127l225 121v-946h123zM1223 868q82 0 125 -66.5t43 -191.5q0 -126 -43 -194t-125 -68
q-71 0 -115 57t-53 166h-121q12 -156 87 -242.5t202 -86.5q134 0 211 97t77 269q0 177 -74.5 273t-201.5 96q-86 0 -145 -62l14 326h360v107h-477l-22 -613h114q21 65 59 99t85 34z" />
    <glyph glyph-name="_8791" unicode="&#x246f;" 
d="M57 805q0 191 72.5 361.5t196.5 292.5t295.5 193.5t361.5 71.5t361 -71.5t294.5 -193.5t196 -292.5t72.5 -361.5q0 -153 -46.5 -294.5t-131.5 -254.5t-198.5 -196.5t-254.5 -129t-293 -45.5q-153 0 -294 45.5t-255 129t-199 196.5t-131.5 254.5t-46.5 294.5zM154 805
q0 -230 110 -421t300.5 -301t418.5 -110q227 0 417 110t300 301t110 421q0 171 -65 325.5t-175.5 265t-263.5 175.5t-323 65q-171 0 -325 -65t-264.5 -175.5t-175 -264.5t-64.5 -326zM723 262h-121v946l-227 -121v125l254 138h94v-1088zM1499 1081h-123q-10 90 -48.5 135.5
t-98.5 45.5q-84 0 -124 -87t-46 -276q63 82 176 82q132 0 210.5 -98.5t78.5 -268.5q0 -169 -81 -267.5t-212 -98.5q-149 0 -223 116t-74 365q0 240 30.5 379.5t94 199.5t172.5 60q112 0 184 -73t84 -214zM1231 354q78 0 125 69.5t47 190.5t-47 189.5t-125 68.5
q-79 0 -126.5 -68.5t-47.5 -189.5t47.5 -190.5t126.5 -69.5z" />
    <glyph glyph-name="_8792" unicode="&#x2470;" 
d="M59 805q0 191 72.5 361.5t196 292.5t294.5 193.5t361 71.5t361 -71.5t294.5 -193.5t196 -292.5t72.5 -361.5q0 -153 -46.5 -294t-131.5 -254t-198.5 -197t-254.5 -129.5t-293 -45.5t-293 45.5t-254.5 129.5t-198.5 197t-131.5 254t-46.5 294zM154 805q0 -230 110 -421
t300.5 -301t418.5 -110t418.5 110t300.5 301t110 421q0 172 -65 326.5t-175.5 265t-264 175t-324.5 64.5t-324.5 -64.5t-264 -175t-175.5 -265t-65 -326.5zM727 258h-123v946l-225 -121v125l252 138h96v-1088zM946 1225v106h572v-84l-320 -1003h-125l316 981h-443z" />
    <glyph glyph-name="_8793" unicode="&#x2471;" 
d="M59 805q0 191 72.5 361.5t196 292.5t294.5 193.5t361 71.5t361 -71.5t294.5 -193.5t196 -292.5t72.5 -361.5q0 -153 -46.5 -294t-131.5 -254t-198.5 -197t-254.5 -129.5t-293 -45.5t-293 45.5t-254.5 129.5t-198.5 197t-131.5 254t-46.5 294zM154 805q0 -230 110 -421
t300.5 -301t418.5 -110t418.5 110t300.5 301t110 421q0 172 -65 326.5t-175.5 265t-264 175t-324.5 64.5t-324.5 -64.5t-264 -175t-175.5 -265t-65 -326.5zM725 262h-123v946l-225 -121v127l252 136h96v-1088zM1223 248q-140 0 -225 85t-85 234q0 96 42.5 167.5t115.5 105.5
q-62 32 -96.5 97t-34.5 148q0 126 77 205.5t206 79.5t205.5 -79.5t76.5 -205.5q0 -83 -34.5 -148t-96.5 -97q73 -34 115.5 -105.5t42.5 -167.5q0 -148 -85 -233.5t-224 -85.5zM1382 1077q0 84 -44 135.5t-115 51.5q-72 0 -117 -51.5t-45 -135.5t44.5 -134t117.5 -50
q71 0 115 50t44 134zM1034 571q0 -101 52 -159t137 -58t136.5 58t51.5 159q0 99 -52 157t-136 58t-136.5 -58t-52.5 -157z" />
    <glyph glyph-name="_8794" unicode="&#x2472;" 
d="M57 805q0 191 72.5 361.5t196.5 292.5t295.5 193.5t361.5 71.5t361 -71.5t294.5 -193.5t196 -292.5t72.5 -361.5q0 -153 -46.5 -294.5t-131.5 -254.5t-198.5 -196.5t-254.5 -129t-293 -45.5q-153 0 -294 45.5t-255 129t-199 196.5t-131.5 254.5t-46.5 294.5zM154 805
q0 -230 110 -421t300.5 -301t418.5 -110q227 0 417 110t300 301t110 421q0 171 -65 325.5t-175.5 265t-263.5 175.5t-323 65q-171 0 -325 -65t-264.5 -175.5t-175 -264.5t-64.5 -326zM723 262h-121v946l-227 -121v125l254 138h94v-1088zM950 541h125q10 -92 49 -137.5
t101 -45.5q78 0 118.5 86t49.5 277q-66 -82 -176 -82q-132 0 -210.5 98.5t-78.5 268.5q0 168 81.5 267t213.5 99q151 0 223 -119t72 -360q0 -242 -31 -382.5t-94 -199.5t-170 -59q-117 0 -188.5 73t-84.5 216zM1223 1266q-79 0 -125.5 -69t-46.5 -191t46.5 -191.5
t125.5 -69.5q78 0 125 70t47 191t-47 190.5t-125 69.5z" />
    <glyph glyph-name="_8795" unicode="&#x2473;" 
d="M59 805q0 191 72.5 361.5t196 292.5t294.5 193.5t361 71.5t361 -71.5t294.5 -193.5t196 -292.5t72.5 -361.5q0 -153 -46.5 -294t-131.5 -254t-198.5 -197t-254.5 -129.5t-293 -45.5t-293 45.5t-254.5 129.5t-198.5 197t-131.5 254t-46.5 294zM154 805q0 -230 110 -421
t300.5 -301t418.5 -110t418.5 110t300.5 301t110 421q0 172 -65 326.5t-175.5 265t-264 175t-324.5 64.5t-324.5 -64.5t-264 -175t-175.5 -265t-65 -326.5zM928 1053q0 -70 -19.5 -129.5t-68.5 -130.5l-283 -412h381v-109h-537v88l340 500q64 94 64 193q0 96 -39.5 156.5
t-108.5 60.5q-68 0 -106.5 -60.5t-38.5 -156.5v-47h-123v47q0 139 70.5 232t197.5 93t199 -93.5t72 -231.5zM1141 809q0 -161 14 -260.5t53 -145.5q37 -47 99 -47q66 0 98 47q40 46 55 146t15 260q0 161 -15 261.5t-55 146.5q-37 47 -98 47q-62 0 -99 -47q-39 -46 -53 -146
t-14 -262zM1018 809q0 385 123 496q62 65 166 65q103 0 168 -65q120 -111 120 -496q0 -383 -120 -494q-65 -65 -168 -65q-104 0 -166 65q-123 111 -123 494z" />
    <glyph glyph-name="_827" unicode="&#x2474;" 
d="M1090 240v1146h-99l-313 -141v-121l291 127v-1011h121zM88 815q0 -225 77.5 -443.5t215.5 -412.5h100q-132 197 -207 417.5t-75 438.5q0 216 75 436.5t207 417.5h-100q-138 -194 -215.5 -412.5t-77.5 -441.5zM1878 815q0 223 -77.5 441.5t-215.5 412.5h-100
q132 -197 207 -417.5t75 -436.5q0 -218 -75 -438.5t-207 -417.5h100q138 194 215.5 412.5t77.5 443.5z" />
    <glyph glyph-name="_828" unicode="&#x2475;" 
d="M1327 1083q0 146 -92 244t-254 98q-161 0 -252.5 -98t-91.5 -244v-45h123v45q0 103 59 169.5t162 66.5t163 -66.5t60 -169.5q0 -100 -88 -204l-461 -525v-94h686v109h-520l391 442q64 72 89.5 133.5t25.5 138.5zM88 815q0 -225 77.5 -443.5t215.5 -412.5h100
q-132 197 -207 417.5t-75 438.5q0 216 75 436.5t207 417.5h-100q-138 -194 -215.5 -412.5t-77.5 -441.5zM1878 815q0 223 -77.5 441.5t-215.5 412.5h-100q132 -197 207 -417.5t75 -436.5q0 -218 -75 -438.5t-207 -417.5h100q138 194 215.5 412.5t77.5 443.5z" />
    <glyph glyph-name="_829" unicode="&#x2476;" 
d="M1229 567q0 -107 -66 -169t-172 -62q-110 0 -175.5 70.5t-65.5 195.5h-121q0 -174 95.5 -274.5t266.5 -100.5q162 0 261.5 92t99.5 248q0 109 -50 183t-135 106q72 32 112 99t40 157q0 129 -89.5 214t-238.5 85q-151 0 -240 -84.5t-89 -214.5v-41h122v35q0 89 55.5 143
t151.5 54q92 0 148.5 -54.5t56.5 -142.5q0 -85 -50 -142t-142 -57h-132v-106h127q106 0 168 -63.5t62 -170.5zM481 -39q-132 196 -207 415t-75 437q0 217 75 438t207 416h-100q-138 -192 -215.5 -411t-77.5 -443q0 -225 77.5 -442t215.5 -410h100zM1583 -39
q138 193 215.5 410t77.5 442q0 224 -77.5 443t-215.5 411h-100q132 -195 207 -416t75 -438q0 -218 -75 -437t-207 -415h100z" />
    <glyph glyph-name="_830" unicode="&#x2477;" 
d="M717 616l338 560v-560h-338zM1333 616h-155v779h-125l-482 -789v-98h484v-258h123v258h155v108zM88 815q0 -225 77.5 -443.5t215.5 -412.5h100q-132 197 -207 417.5t-75 438.5q0 216 75 436.5t207 417.5h-100q-138 -194 -215.5 -412.5t-77.5 -441.5zM1878 815
q0 223 -77.5 441.5t-215.5 412.5h-100q132 -197 207 -417.5t75 -436.5q0 -218 -75 -438.5t-207 -417.5h100q138 194 215.5 412.5t77.5 443.5z" />
    <glyph glyph-name="_831" unicode="&#x2478;" 
d="M991 881q110 0 170 -73.5t60 -205.5q0 -135 -60 -207.5t-170 -72.5q-98 0 -157.5 59.5t-71.5 175.5h-121q14 -161 105.5 -251.5t244.5 -90.5q164 0 258 100.5t94 282.5q0 187 -91 288t-246 101q-134 0 -201 -82l18 367h459v108h-573l-29 -641h115q29 69 80 105.5
t116 36.5zM88 815q0 -225 77.5 -443.5t215.5 -412.5h100q-132 197 -207 417.5t-75 438.5q0 216 75 436.5t207 417.5h-100q-138 -194 -215.5 -412.5t-77.5 -441.5zM1878 815q0 223 -77.5 441.5t-215.5 412.5h-100q132 -197 207 -417.5t75 -436.5q0 -218 -75 -438.5
t-207 -417.5h100q138 194 215.5 412.5t77.5 443.5z" />
    <glyph glyph-name="_832" unicode="&#x2479;" 
d="M1315 1106q-18 147 -104 222t-224 75q-132 0 -208.5 -60.5t-114 -208t-37.5 -407.5q0 -506 358 -506q163 0 260.5 103.5t97.5 283.5q0 178 -94.5 280.5t-255.5 102.5t-241 -114q6 226 59.5 322.5t171.5 96.5q86 0 139.5 -48t65.5 -142h127zM985 328q-106 0 -170.5 74.5
t-64.5 205.5q0 129 64.5 203t170.5 74q108 0 172 -74t64 -203q0 -132 -63.5 -206t-172.5 -74zM481 -39q-132 196 -207 415t-75 437q0 217 75 438t207 416h-100q-138 -192 -215.5 -411t-77.5 -443q0 -225 77.5 -442t215.5 -410h100zM1583 -39q138 193 215.5 410t77.5 442
q0 224 -77.5 443t-215.5 411h-100q132 -195 207 -416t75 -438q0 -218 -75 -437t-207 -415h100z" />
    <glyph glyph-name="_833" unicode="&#x247a;" 
d="M643 1225h555l-401 -1039h129l403 1059v86h-686v-106zM88 815q0 -225 77.5 -443.5t215.5 -412.5h100q-132 197 -207 417.5t-75 438.5q0 216 75 436.5t207 417.5h-100q-138 -194 -215.5 -412.5t-77.5 -441.5zM1878 815q0 223 -77.5 441.5t-215.5 412.5h-100
q132 -197 207 -417.5t75 -436.5q0 -218 -75 -438.5t-207 -417.5h100q138 194 215.5 412.5t77.5 443.5z" />
    <glyph glyph-name="_834" unicode="&#x247b;" 
d="M985 219q171 0 275 89.5t104 244.5q0 107 -52.5 183t-144.5 110q76 34 119 101.5t43 154.5q0 135 -93 218t-251 83q-157 0 -250.5 -83t-93.5 -218q0 -88 42.5 -156t117.5 -102q-93 -33 -143 -107.5t-50 -183.5q0 -155 103 -244.5t274 -89.5zM1208 1096q0 -91 -62 -145
t-161 -54t-160 54t-61 145q0 90 61 145t160 55t161 -55t62 -145zM729 557q0 107 71 169t185 62t185 -62t71 -169t-70.5 -168t-185.5 -61t-185.5 61t-70.5 168zM88 815q0 -225 77.5 -443.5t215.5 -412.5h100q-132 197 -207 417.5t-75 438.5q0 216 75 436.5t207 417.5h-100
q-138 -194 -215.5 -412.5t-77.5 -441.5zM1878 815q0 223 -77.5 441.5t-215.5 412.5h-100q132 -197 207 -417.5t75 -436.5q0 -218 -75 -438.5t-207 -417.5h100q138 194 215.5 412.5t77.5 443.5z" />
    <glyph glyph-name="_835" unicode="&#x247c;" 
d="M645 510q18 -147 104.5 -223t225.5 -76q130 0 206.5 62.5t114 210t37.5 403.5q0 252 -86.5 380t-271.5 128q-162 0 -260.5 -104t-98.5 -283q0 -177 96 -281t255 -104q80 0 142.5 30t98.5 84q-9 -227 -61 -322.5t-170 -95.5q-85 0 -139 48t-66 143h-127zM975 1286
q106 0 170.5 -74t64.5 -204q0 -129 -64.5 -204t-170.5 -75q-108 0 -172 74.5t-64 204.5q0 131 64 204.5t172 73.5zM481 -39q-132 196 -207 415t-75 437q0 217 75 438t207 416h-100q-138 -192 -215.5 -411t-77.5 -443q0 -225 77.5 -442t215.5 -410h100zM1583 -39
q138 193 215.5 410t77.5 442q0 224 -77.5 443t-215.5 411h-100q132 -195 207 -416t75 -438q0 -218 -75 -437t-207 -415h100z" />
    <glyph glyph-name="_836" unicode="&#x247d;" 
d="M725 262v1088h-96l-252 -136v-127l225 121v-946h123zM1057 809q0 170 15.5 266.5t57.5 138.5q40 50 109 50q67 0 107 -50q42 -42 58.5 -139.5t16.5 -265.5t-16.5 -266t-58.5 -140q-40 -49 -107 -49q-69 0 -109 49q-42 42 -57.5 139t-15.5 267zM934 809q0 -202 30.5 -322
t100.5 -176q66 -63 174 -63q106 0 172 63q71 55 101 175t30 323t-30 323t-101 175q-66 63 -172 63q-108 0 -174 -63q-70 -56 -100.5 -176t-30.5 -322zM88 815q0 -225 77.5 -443.5t215.5 -412.5h100q-132 197 -207 417.5t-75 438.5q0 216 75 436.5t207 417.5h-100
q-138 -194 -215.5 -412.5t-77.5 -441.5zM1878 815q0 223 -77.5 441.5t-215.5 412.5h-100q132 -197 207 -417.5t75 -436.5q0 -218 -75 -438.5t-207 -417.5h100q138 194 215.5 412.5t77.5 443.5z" />
    <glyph glyph-name="_837" unicode="&#x247e;" 
d="M786 262v1088h-96l-252 -136v-127l226 121v-946h122zM1386 262v1088h-96l-252 -136v-127l228 121v-946h120zM88 815q0 -225 77.5 -443.5t215.5 -412.5h100q-132 197 -207 417.5t-75 438.5q0 216 75 436.5t207 417.5h-100q-138 -194 -215.5 -412.5t-77.5 -441.5zM1878 815
q0 223 -77.5 441.5t-215.5 412.5h-100q132 -197 207 -417.5t75 -436.5q0 -218 -75 -438.5t-207 -417.5h100q138 194 215.5 412.5t77.5 443.5z" />
    <glyph glyph-name="_838" unicode="&#x247f;" 
d="M725 262v1088h-96l-252 -136v-127l225 121v-946h123zM1509 1051q0 138 -75.5 231.5t-208.5 93.5q-132 0 -207.5 -93.5t-75.5 -231.5v-47h123v47q0 95 42.5 156t117.5 61t119.5 -60.5t44.5 -156.5q0 -98 -68 -193l-365 -498v-90h566v109h-408l305 412q50 69 70 128.5
t20 131.5zM88 815q0 -225 77.5 -443.5t215.5 -412.5h100q-132 197 -207 417.5t-75 438.5q0 216 75 436.5t207 417.5h-100q-138 -194 -215.5 -412.5t-77.5 -441.5zM1878 815q0 223 -77.5 441.5t-215.5 412.5h-100q132 -197 207 -417.5t75 -436.5q0 -218 -75 -438.5
t-207 -417.5h100q138 194 215.5 412.5t77.5 443.5z" />
    <glyph glyph-name="_839" unicode="&#x2480;" 
d="M723 262v1088h-94l-254 -138v-125l227 121v-946h121zM1395 569q0 -98 -49 -157.5t-125 -59.5q-84 0 -130.5 66t-46.5 186h-120q0 -168 78.5 -263t218.5 -95q133 0 214 86.5t81 234.5q0 102 -40.5 173.5t-107.5 101.5q57 29 89 92.5t32 148.5q0 123 -72.5 204t-195.5 81
q-124 0 -197.5 -81t-73.5 -204v-43h121v37q0 81 41 132t109 51q65 0 106 -51.5t41 -131.5q0 -78 -35.5 -131t-101.5 -53h-115v-107h111q78 0 123 -58.5t45 -158.5zM481 -39q-132 196 -207 415t-75 437q0 217 75 438t207 416h-100q-138 -192 -215.5 -411t-77.5 -443
q0 -225 77.5 -442t215.5 -410h100zM1583 -39q138 193 215.5 410t77.5 442q0 224 -77.5 443t-215.5 411h-100q132 -195 207 -416t75 -438q0 -218 -75 -437t-207 -415h100z" />
    <glyph glyph-name="_840" unicode="&#x2481;" 
d="M725 262v1088h-96l-252 -136v-127l225 121v-946h123zM1036 610l250 477v-477h-250zM1530 610h-123v736h-119l-389 -752v-92h387v-244h121v244h123v108zM88 815q0 -225 77.5 -443.5t215.5 -412.5h100q-132 197 -207 417.5t-75 438.5q0 216 75 436.5t207 417.5h-100
q-138 -194 -215.5 -412.5t-77.5 -441.5zM1878 815q0 223 -77.5 441.5t-215.5 412.5h-100q132 -197 207 -417.5t75 -436.5q0 -218 -75 -438.5t-207 -417.5h100q138 194 215.5 412.5t77.5 443.5z" />
    <glyph glyph-name="_841" unicode="&#x2482;" 
d="M725 262v1088h-96l-252 -136v-127l225 121v-946h123zM1223 868q82 0 125 -66.5t43 -191.5q0 -126 -43 -194t-125 -68q-71 0 -115 57t-53 166h-121q12 -156 87 -242.5t202 -86.5q134 0 211 97t77 269q0 177 -74.5 273t-201.5 96q-86 0 -145 -62l14 326h360v107h-477
l-22 -613h114q21 65 59 99t85 34zM88 815q0 -225 77.5 -443.5t215.5 -412.5h100q-132 197 -207 417.5t-75 438.5q0 216 75 436.5t207 417.5h-100q-138 -194 -215.5 -412.5t-77.5 -441.5zM1878 815q0 223 -77.5 441.5t-215.5 412.5h-100q132 -197 207 -417.5t75 -436.5
q0 -218 -75 -438.5t-207 -417.5h100q138 194 215.5 412.5t77.5 443.5z" />
    <glyph glyph-name="_9042" unicode="&#x2483;" 
d="M723 262h-121v946l-227 -121v125l254 138h94v-1088zM1499 1081h-123q-10 90 -48.5 135.5t-98.5 45.5q-84 0 -124 -87t-46 -276q63 82 176 82q132 0 210.5 -98.5t78.5 -268.5q0 -169 -81 -267.5t-212 -98.5q-149 0 -223 116t-74 365q0 240 30.5 379.5t94 199.5t172.5 60
q112 0 184 -73t84 -214zM1231 354q78 0 125 69.5t47 190.5t-47 189.5t-125 68.5q-79 0 -126.5 -68.5t-47.5 -189.5t47.5 -190.5t126.5 -69.5zM481 -39h-100q-138 193 -215.5 410t-77.5 442q0 224 77.5 443t215.5 411h100q-132 -195 -207 -416t-75 -438q0 -218 75 -437
t207 -415zM1583 -39h-100q132 196 207 415t75 437q0 217 -75 438t-207 416h100q138 -192 215.5 -411t77.5 -443q0 -225 -77.5 -442t-215.5 -410z" />
    <glyph glyph-name="_9043" unicode="&#x2484;" 
d="M727 258h-123v946l-225 -121v125l252 138h96v-1088zM946 1225v106h572v-84l-320 -1003h-125l316 981h-443zM88 815q0 223 77.5 441.5t215.5 412.5h100q-132 -197 -207 -417.5t-75 -436.5q0 -218 75 -438.5t207 -417.5h-100q-138 194 -215.5 412.5t-77.5 443.5zM1878 815
q0 -225 -77.5 -443.5t-215.5 -412.5h-100q132 197 207 417.5t75 438.5q0 216 -75 436.5t-207 417.5h100q138 -194 215.5 -412.5t77.5 -441.5z" />
    <glyph glyph-name="_9044" unicode="&#x2485;" 
d="M725 262h-123v946l-225 -121v127l252 136h96v-1088zM1223 248q-140 0 -225 85t-85 234q0 96 42.5 167.5t115.5 105.5q-62 32 -96.5 97t-34.5 148q0 126 77 205.5t206 79.5t205.5 -79.5t76.5 -205.5q0 -83 -34.5 -148t-96.5 -97q73 -34 115.5 -105.5t42.5 -167.5
q0 -148 -85 -233.5t-224 -85.5zM1382 1077q0 84 -44 135.5t-115 51.5q-72 0 -117 -51.5t-45 -135.5t44.5 -134t117.5 -50q71 0 115 50t44 134zM1034 571q0 -101 52 -159t137 -58t136.5 58t51.5 159q0 99 -52 157t-136 58t-136.5 -58t-52.5 -157zM88 815q0 223 77.5 441.5
t215.5 412.5h100q-132 -197 -207 -417.5t-75 -436.5q0 -218 75 -438.5t207 -417.5h-100q-138 194 -215.5 412.5t-77.5 443.5zM1878 815q0 -225 -77.5 -443.5t-215.5 -412.5h-100q132 197 207 417.5t75 438.5q0 216 -75 436.5t-207 417.5h100q138 -194 215.5 -412.5
t77.5 -441.5z" />
    <glyph glyph-name="_9045" unicode="&#x2486;" 
d="M723 262h-121v946l-227 -121v125l254 138h94v-1088zM950 541h125q10 -92 49 -137.5t101 -45.5q78 0 118.5 86t49.5 277q-66 -82 -176 -82q-132 0 -210.5 98.5t-78.5 268.5q0 168 81.5 267t213.5 99q151 0 223 -119t72 -360q0 -242 -31 -382.5t-94 -199.5t-170 -59
q-117 0 -188.5 73t-84.5 216zM1223 1266q-79 0 -125.5 -69t-46.5 -191t46.5 -191.5t125.5 -69.5q78 0 125 70t47 191t-47 190.5t-125 69.5zM481 -39h-100q-138 193 -215.5 410t-77.5 442q0 224 77.5 443t215.5 411h100q-132 -195 -207 -416t-75 -438q0 -218 75 -437
t207 -415zM1583 -39h-100q132 196 207 415t75 437q0 217 -75 438t-207 416h100q138 -192 215.5 -411t77.5 -443q0 -225 -77.5 -442t-215.5 -410z" />
    <glyph glyph-name="_9046" unicode="&#x2487;" 
d="M928 1053q0 -70 -19.5 -129.5t-68.5 -130.5l-283 -412h381v-109h-537v88l340 500q64 94 64 193q0 96 -39.5 156.5t-108.5 60.5q-68 0 -106.5 -60.5t-38.5 -156.5v-47h-123v47q0 139 70.5 232t197.5 93t199 -93.5t72 -231.5zM1141 809q0 -161 14 -260.5t53 -145.5
q37 -47 99 -47q66 0 98 47q40 46 55 146t15 260q0 161 -15 261.5t-55 146.5q-37 47 -98 47q-62 0 -99 -47q-39 -46 -53 -146t-14 -262zM1018 809q0 385 123 496q62 65 166 65q103 0 168 -65q120 -111 120 -496q0 -383 -120 -494q-65 -65 -168 -65q-104 0 -166 65
q-123 111 -123 494zM88 815q0 223 77.5 441.5t215.5 412.5h100q-132 -197 -207 -417.5t-75 -436.5q0 -218 75 -438.5t207 -417.5h-100q-138 194 -215.5 412.5t-77.5 443.5zM1878 815q0 -225 -77.5 -443.5t-215.5 -412.5h-100q132 197 207 417.5t75 438.5q0 216 -75 436.5
t-207 417.5h100q138 -194 215.5 -412.5t77.5 -441.5z" />
    <glyph glyph-name="_801" unicode="&#x249c;" 
d="M1214 383h123q-24 63 -24 125v424q0 144 -86.5 227.5t-247.5 83.5q-154 0 -238.5 -74t-95.5 -204h123q8 81 60.5 127.5t150.5 46.5q103 0 158 -55t55 -150v-109q-77 84 -248 84q-156 0 -244 -72.5t-88 -199.5q0 -129 87.5 -202t244.5 -73q173 0 250 87q3 -36 20 -66z
M1192 637q0 -80 -58 -125t-171 -45t-170.5 45t-57.5 125q0 78 58 123t170 45t170.5 -45.5t58.5 -122.5zM88 815q0 -225 77.5 -443.5t215.5 -412.5h100q-132 197 -207 417.5t-75 438.5q0 216 75 436.5t207 417.5h-100q-138 -194 -215.5 -412.5t-77.5 -441.5zM1878 815
q0 223 -77.5 441.5t-215.5 412.5h-100q132 -197 207 -417.5t75 -436.5q0 -218 -75 -438.5t-207 -417.5h100q138 194 215.5 412.5t77.5 443.5z" />
    <glyph glyph-name="_802" unicode="&#x249d;" 
d="M1405 678q0 215 -89 327.5t-259 112.5q-85 0 -149.5 -32.5t-100.5 -90.5v430h-123v-1167h123v102q36 -56 101.5 -89t148.5 -33q170 0 259 112.5t89 327.5zM1284 678q0 -336 -237 -336q-240 0 -240 336t240 336q237 0 237 -336zM481 -39q-132 196 -207 415t-75 437
q0 217 75 438t207 416h-100q-138 -192 -215.5 -411t-77.5 -443q0 -225 77.5 -442t215.5 -410h100zM1583 -39q138 193 215.5 410t77.5 442q0 224 -77.5 443t-215.5 411h-100q132 -195 207 -416t75 -438q0 -218 -75 -437t-207 -415h100z" />
    <glyph glyph-name="_803" unicode="&#x249e;" 
d="M625 803q0 -212 89.5 -326.5t268.5 -114.5q151 0 241 80.5t107 227.5h-123q-12 -97 -69.5 -150t-155.5 -53q-124 0 -181 85.5t-57 250.5q0 336 238 336q98 0 155.5 -53t69.5 -148h123q-17 146 -107 225.5t-241 79.5q-180 0 -269 -113.5t-89 -326.5zM88 815
q0 -225 77.5 -443.5t215.5 -412.5h100q-132 197 -207 417.5t-75 438.5q0 216 75 436.5t207 417.5h-100q-138 -194 -215.5 -412.5t-77.5 -441.5zM1878 815q0 223 -77.5 441.5t-215.5 412.5h-100q132 -197 207 -417.5t75 -436.5q0 -218 -75 -438.5t-207 -417.5h100
q138 194 215.5 412.5t77.5 443.5z" />
    <glyph glyph-name="_804" unicode="&#x249f;" 
d="M551 684q0 -216 88.5 -328t259.5 -112q83 0 147.5 33t102.5 90v-105h121v1168h-121v-431q-36 59 -100 91t-150 32q-172 0 -260 -111.5t-88 -326.5zM1149 684q0 -165 -57.5 -250.5t-182.5 -85.5q-124 0 -180.5 85.5t-56.5 250.5q0 336 237 336q240 0 240 -336zM481 -39
q-132 196 -207 415t-75 437q0 217 75 438t207 416h-100q-138 -192 -215.5 -411t-77.5 -443q0 -225 77.5 -442t215.5 -410h100zM1583 -39q138 193 215.5 410t77.5 442q0 224 -77.5 443t-215.5 411h-100q132 -195 207 -416t75 -438q0 -218 -75 -437t-207 -415h100z" />
    <glyph glyph-name="_805" unicode="&#x24a0;" 
d="M1202 649q-15 -82 -74 -131t-145 -49q-231 0 -240 297h598q0 234 -85.5 355.5t-274.5 121.5q-180 0 -269 -113.5t-89 -324.5q0 -213 89.5 -326.5t270.5 -113.5q143 0 231 74.5t113 209.5h-125zM981 1141q222 0 238 -277h-476q16 277 238 277zM481 -39q-132 196 -207 415
t-75 437q0 217 75 438t207 416h-100q-138 -192 -215.5 -411t-77.5 -443q0 -225 77.5 -442t215.5 -410h100zM1583 -39q138 193 215.5 410t77.5 442q0 224 -77.5 443t-215.5 411h-100q132 -195 207 -416t75 -438q0 -218 -75 -437t-207 -415h100z" />
    <glyph glyph-name="_806" unicode="&#x24a1;" 
d="M1210 1280v100q-52 6 -96 6q-142 0 -200 -53.5t-58 -189.5v-94h-123v-105h123v-737h121v737h233v105h-233v88q0 82 30 112.5t113 30.5h90zM88 815q0 -225 77.5 -443.5t215.5 -412.5h100q-132 197 -207 417.5t-75 438.5q0 216 75 436.5t207 417.5h-100
q-138 -194 -215.5 -412.5t-77.5 -441.5zM1878 815q0 223 -77.5 441.5t-215.5 412.5h-100q132 -197 207 -417.5t75 -436.5q0 -218 -75 -438.5t-207 -417.5h100q138 194 215.5 412.5t77.5 443.5z" />
    <glyph glyph-name="_807" unicode="&#x24a2;" 
d="M1202 961q0 -336 -239 -336q-238 0 -238 336q0 337 238 337q239 0 239 -337zM649 432q15 -124 102 -196t232 -72q168 0 254 93.5t86 250.5v874h-121v-104q-36 58 -100.5 90.5t-149.5 32.5q-170 0 -259 -112.5t-89 -327.5q0 -214 89 -326.5t259 -112.5q172 0 250 121v-141
q0 -111 -57.5 -173.5t-161.5 -62.5q-89 0 -144.5 44.5t-66.5 121.5h-123zM481 -39q-132 196 -207 415t-75 437q0 217 75 438t207 416h-100q-138 -192 -215.5 -411t-77.5 -443q0 -225 77.5 -442t215.5 -410h100zM1583 -39q138 193 215.5 410t77.5 442q0 224 -77.5 443
t-215.5 411h-100q132 -195 207 -416t75 -438q0 -218 -75 -437t-207 -415h100z" />
    <glyph glyph-name="_808" unicode="&#x24a3;" 
d="M799 252v358q0 192 62.5 295t185.5 103q196 0 196 -258v-498h121v516q0 165 -77.5 254.5t-221.5 89.5q-185 0 -266 -143v450h-121v-1167h121zM481 -39q-132 196 -207 415t-75 437q0 217 75 438t207 416h-100q-138 -192 -215.5 -411t-77.5 -443q0 -225 77.5 -442
t215.5 -410h100zM1583 -39q138 193 215.5 410t77.5 442q0 224 -77.5 443t-215.5 411h-100q132 -195 207 -416t75 -438q0 -218 -75 -437t-207 -415h100z" />
    <glyph glyph-name="_809" unicode="&#x24a4;" 
d="M1044 231v842h-122v-842h122zM1044 1221v178h-122v-178h122zM88 815q0 -225 77.5 -443.5t215.5 -412.5h100q-132 197 -207 417.5t-75 438.5q0 216 75 436.5t207 417.5h-100q-138 -194 -215.5 -412.5t-77.5 -441.5zM1878 815q0 223 -77.5 441.5t-215.5 412.5h-100
q132 -197 207 -417.5t75 -436.5q0 -218 -75 -438.5t-207 -417.5h100q138 194 215.5 412.5t77.5 443.5z" />
    <glyph glyph-name="_810" unicode="&#x24a5;" 
d="M1094 1157h-121v-821q0 -117 -107 -117h-57v-100q28 -4 63 -4q222 0 222 225v817zM1094 1307v176h-121v-176h121zM88 815q0 -225 77.5 -443.5t215.5 -412.5h100q-132 197 -207 417.5t-75 438.5q0 216 75 436.5t207 417.5h-100q-138 -194 -215.5 -412.5t-77.5 -441.5z
M1878 815q0 223 -77.5 441.5t-215.5 412.5h-100q132 -197 207 -417.5t75 -436.5q0 -218 -75 -438.5t-207 -417.5h100q138 194 215.5 412.5t77.5 443.5z" />
    <glyph glyph-name="_811" unicode="&#x24a6;" 
d="M852 266v387h80l317 -387h148l-361 436l324 406h-141l-285 -350h-82v676h-123v-1168h123zM88 815q0 -225 77.5 -443.5t215.5 -412.5h100q-132 197 -207 417.5t-75 438.5q0 216 75 436.5t207 417.5h-100q-138 -194 -215.5 -412.5t-77.5 -441.5zM1878 815
q0 223 -77.5 441.5t-215.5 412.5h-100q132 -197 207 -417.5t75 -436.5q0 -218 -75 -438.5t-207 -417.5h100q138 194 215.5 412.5t77.5 443.5z" />
    <glyph glyph-name="_812" unicode="&#x24a7;" 
d="M1051 221v1168h-121v-1168h121zM88 815q0 -225 77.5 -443.5t215.5 -412.5h100q-132 197 -207 417.5t-75 438.5q0 216 75 436.5t207 417.5h-100q-138 -194 -215.5 -412.5t-77.5 -441.5zM1878 815q0 223 -77.5 441.5t-215.5 412.5h-100q132 -197 207 -417.5t75 -436.5
q0 -218 -75 -438.5t-207 -417.5h100q138 194 215.5 412.5t77.5 443.5z" />
    <glyph glyph-name="_813" unicode="&#x24a8;" 
d="M1444 381h121v553q0 145 -73 226t-204 81q-91 0 -159.5 -45t-104.5 -123q-28 81 -93 124.5t-157 43.5q-162 0 -235 -139v121h-123v-842h123v422q0 159 61 247.5t156 88.5q84 0 129 -53t45 -154v-551h121v422q0 157 62 246.5t157 89.5q85 0 129.5 -53t44.5 -154v-551z
M481 -39q-132 196 -207 415t-75 437q0 217 75 438t207 416h-100q-138 -192 -215.5 -411t-77.5 -443q0 -225 77.5 -442t215.5 -410h100zM1583 -39q138 193 215.5 410t77.5 442q0 224 -77.5 443t-215.5 411h-100q132 -195 207 -416t75 -438q0 -218 -75 -437t-207 -415h100z
" />
    <glyph glyph-name="_814" unicode="&#x24a9;" 
d="M770 381v430q0 151 71 238.5t177 87.5q108 0 153.5 -75t45.5 -247v-434h118v516q0 164 -77.5 254t-219.5 90q-187 0 -268 -143v125h-121v-842h121zM481 -39q-132 196 -207 415t-75 437q0 217 75 438t207 416h-100q-138 -192 -215.5 -411t-77.5 -443q0 -225 77.5 -442
t215.5 -410h100zM1583 -39q138 193 215.5 410t77.5 442q0 224 -77.5 443t-215.5 411h-100q132 -195 207 -416t75 -438q0 -218 -75 -437t-207 -415h100z" />
    <glyph glyph-name="_815" unicode="&#x24aa;" 
d="M1343 805q0 213 -89.5 326.5t-270.5 113.5q-180 0 -269 -113.5t-89 -326.5q0 -210 89.5 -324t268.5 -114q181 0 270.5 114t89.5 324zM1223 805q0 -336 -240 -336q-238 0 -238 336q0 338 238 338q240 0 240 -338zM88 815q0 -225 77.5 -443.5t215.5 -412.5h100
q-132 197 -207 417.5t-75 438.5q0 216 75 436.5t207 417.5h-100q-138 -194 -215.5 -412.5t-77.5 -441.5zM1878 815q0 223 -77.5 441.5t-215.5 412.5h-100q132 -197 207 -417.5t75 -436.5q0 -218 -75 -438.5t-207 -417.5h100q138 194 215.5 412.5t77.5 443.5z" />
    <glyph glyph-name="_816" unicode="&#x24ab;" 
d="M1409 936q0 215 -89 327.5t-261 112.5q-84 0 -149 -32.5t-101 -90.5v105h-121v-1196h121v456q77 -122 250 -122q171 0 260.5 113t89.5 327zM1286 936q0 -336 -237 -336q-125 0 -182.5 85.5t-57.5 250.5q0 336 240 336q237 0 237 -336zM481 -39q-132 196 -207 415t-75 437
q0 217 75 438t207 416h-100q-138 -192 -215.5 -411t-77.5 -443q0 -225 77.5 -442t215.5 -410h100zM1583 -39q138 193 215.5 410t77.5 442q0 224 -77.5 443t-215.5 411h-100q132 -195 207 -416t75 -438q0 -218 -75 -437t-207 -415h100z" />
    <glyph glyph-name="_817" unicode="&#x24ac;" 
d="M561 936q0 -214 89 -327t259 -113q173 0 250 122v-456h121v1196h-121v-105q-36 58 -100.5 90.5t-149.5 32.5q-170 0 -259 -112.5t-89 -327.5zM1159 936q0 -336 -239 -336q-124 0 -181 85.5t-57 250.5q0 336 238 336q239 0 239 -336zM481 -39q-132 196 -207 415t-75 437
q0 217 75 438t207 416h-100q-138 -192 -215.5 -411t-77.5 -443q0 -225 77.5 -442t215.5 -410h100zM1583 -39q138 193 215.5 410t77.5 442q0 224 -77.5 443t-215.5 411h-100q132 -195 207 -416t75 -438q0 -218 -75 -437t-207 -415h100z" />
    <glyph glyph-name="_818" unicode="&#x24ad;" 
d="M1155 1116q51 0 76 -2l2 96q-29 13 -76 13q-165 0 -227 -125v106h-123v-842h123v426q0 164 59.5 246t165.5 82zM88 815q0 -225 77.5 -443.5t215.5 -412.5h100q-132 197 -207 417.5t-75 438.5q0 216 75 436.5t207 417.5h-100q-138 -194 -215.5 -412.5t-77.5 -441.5z
M1878 815q0 223 -77.5 441.5t-215.5 412.5h-100q132 -197 207 -417.5t75 -436.5q0 -218 -75 -438.5t-207 -417.5h100q138 194 215.5 412.5t77.5 443.5z" />
    <glyph glyph-name="_819" unicode="&#x24ae;" 
d="M981 1245q-142 0 -222.5 -67t-80.5 -170q0 -98 59.5 -154t194.5 -82q16 -2 108 -20q82 -18 120 -50.5t38 -89.5q0 -65 -56.5 -104t-146.5 -39q-89 0 -144.5 39t-55.5 106v43h-121v-43q0 -112 89 -180.5t232 -68.5q146 0 235 69t89 180q0 101 -59.5 159t-188.5 83
q-10 2 -53 11.5t-53 11.5q-88 17 -127 47t-39 82q0 60 48.5 97.5t133.5 37.5q88 0 136 -37t48 -96v-41h123v39q0 104 -81.5 170.5t-225.5 66.5zM88 815q0 -225 77.5 -443.5t215.5 -412.5h100q-132 197 -207 417.5t-75 438.5q0 216 75 436.5t207 417.5h-100
q-138 -194 -215.5 -412.5t-77.5 -441.5zM1878 815q0 223 -77.5 441.5t-215.5 412.5h-100q132 -197 207 -417.5t75 -436.5q0 -218 -75 -438.5t-207 -417.5h100q138 194 215.5 412.5t77.5 443.5z" />
    <glyph glyph-name="_820" unicode="&#x24af;" 
d="M969 1034h250v105h-250v229h-123v-229h-121v-105h121v-510q0 -133 62.5 -186t201.5 -53q68 0 109 4v100h-97q-80 0 -116.5 31t-36.5 117v497zM88 815q0 -225 77.5 -443.5t215.5 -412.5h100q-132 197 -207 417.5t-75 438.5q0 216 75 436.5t207 417.5h-100
q-138 -194 -215.5 -412.5t-77.5 -441.5zM1878 815q0 223 -77.5 441.5t-215.5 412.5h-100q132 -197 207 -417.5t75 -436.5q0 -218 -75 -438.5t-207 -417.5h100q138 194 215.5 412.5t77.5 443.5z" />
    <glyph glyph-name="_821" unicode="&#x24b0;" 
d="M739 1210h-121v-516q0 -164 78 -254t222 -90q184 0 266 144v-125h121v841h-121v-430q0 -152 -70.5 -238.5t-177.5 -86.5q-197 0 -197 258v497zM481 -39q-132 196 -207 415t-75 437q0 217 75 438t207 416h-100q-138 -192 -215.5 -411t-77.5 -443q0 -225 77.5 -442
t215.5 -410h100zM1583 -39q138 193 215.5 410t77.5 442q0 224 -77.5 443t-215.5 411h-100q132 -195 207 -416t75 -438q0 -218 -75 -437t-207 -415h100z" />
    <glyph glyph-name="_822" unicode="&#x24b1;" 
d="M907 340h125l332 842h-129l-264 -678l-266 678h-130zM481 -39q-132 196 -207 415t-75 437q0 217 75 438t207 416h-100q-138 -192 -215.5 -411t-77.5 -443q0 -225 77.5 -442t215.5 -410h100zM1583 -39q138 193 215.5 410t77.5 442q0 224 -77.5 443t-215.5 411h-100
q132 -195 207 -416t75 -438q0 -218 -75 -437t-207 -415h100z" />
    <glyph glyph-name="_823" unicode="&#x24b2;" 
d="M922 1198l-226 -659l-221 659h-127l289 -842h121l221 662l225 -662h121l289 842h-129l-221 -661l-224 661h-118zM88 815q0 -225 77.5 -443.5t215.5 -412.5h100q-132 197 -207 417.5t-75 438.5q0 216 75 436.5t207 417.5h-100q-138 -194 -215.5 -412.5t-77.5 -441.5z
M1878 815q0 223 -77.5 441.5t-215.5 412.5h-100q132 -197 207 -417.5t75 -436.5q0 -218 -75 -438.5t-207 -417.5h100q138 194 215.5 412.5t77.5 443.5z" />
    <glyph glyph-name="_824" unicode="&#x24b3;" 
d="M1233 373h137l-311 430l297 411h-139l-232 -319l-231 319h-138l297 -409l-313 -432h137l248 342zM88 815q0 -225 77.5 -443.5t215.5 -412.5h100q-132 197 -207 417.5t-75 438.5q0 216 75 436.5t207 417.5h-100q-138 -194 -215.5 -412.5t-77.5 -441.5zM1878 815
q0 223 -77.5 441.5t-215.5 412.5h-100q132 -197 207 -417.5t75 -436.5q0 -218 -75 -438.5t-207 -417.5h100q138 194 215.5 412.5t77.5 443.5z" />
    <glyph glyph-name="_825" unicode="&#x24b4;" 
d="M868 315q-22 -55 -49 -73.5t-74 -18.5h-49v-102q23 -2 58 -2q84 0 135 34.5t88 127.5l416 1034h-129l-267 -676l-266 676h-129l334 -830zM88 815q0 -225 77.5 -443.5t215.5 -412.5h100q-132 197 -207 417.5t-75 438.5q0 216 75 436.5t207 417.5h-100
q-138 -194 -215.5 -412.5t-77.5 -441.5zM1878 815q0 223 -77.5 441.5t-215.5 412.5h-100q132 -197 207 -417.5t75 -436.5q0 -218 -75 -438.5t-207 -417.5h100q138 194 215.5 412.5t77.5 443.5z" />
    <glyph glyph-name="_826" unicode="&#x24b5;" 
d="M1278 1225h-594v-103h440l-452 -651v-88h618v104h-467l455 652v86zM88 815q0 -225 77.5 -443.5t215.5 -412.5h100q-132 197 -207 417.5t-75 438.5q0 216 75 436.5t207 417.5h-100q-138 -194 -215.5 -412.5t-77.5 -441.5zM1878 815q0 223 -77.5 441.5t-215.5 412.5h-100
q132 -197 207 -417.5t75 -436.5q0 -218 -75 -438.5t-207 -417.5h100q138 194 215.5 412.5t77.5 443.5z" />
    <glyph glyph-name="_8388" unicode="&#x24b6;" 
d="M985 1679q179 0 343.5 -70.5t283.5 -189.5t189.5 -283t70.5 -343q0 -239 -119.5 -443.5t-324 -324t-443.5 -119.5q-181 0 -346 70.5t-284.5 189.5t-190 283.5t-70.5 343.5t70.5 343t190 283t284.5 189.5t346 70.5zM985 1599q-164 0 -313 -64t-256.5 -172t-171.5 -257
t-64 -313q0 -218 108 -404t293.5 -294.5t403.5 -108.5q162 0 310.5 64t255.5 172.5t171 258t64 312.5t-64 312.5t-171 257.5t-255.5 172t-310.5 64zM909 1356h144l401 -1047h-143l-101 273h-460l-99 -273h-143zM981 1219l-190 -523h380z" />
    <glyph glyph-name="_8389" unicode="&#x24b7;" 
d="M985 1679q179 0 343.5 -70.5t283.5 -189.5t189.5 -283t70.5 -343q0 -239 -119.5 -443.5t-324 -324t-443.5 -119.5q-181 0 -346 70.5t-284.5 189.5t-190 283.5t-70.5 343.5t70.5 343t190 283t284.5 189.5t346 70.5zM985 1599q-164 0 -313 -64t-256.5 -172t-171.5 -257
t-64 -313q0 -218 108 -404t293.5 -294.5t403.5 -108.5q162 0 310.5 64t255.5 172.5t171 258t64 312.5t-64 312.5t-171 257.5t-255.5 172t-310.5 64zM659 289v1046h359q162 0 253 -76.5t91 -199.5q0 -70 -35.5 -127t-95.5 -86q88 -32 136 -99.5t48 -156.5
q0 -142 -98.5 -221.5t-276.5 -79.5h-381zM791 891h208q111 0 171.5 44.5t60.5 123.5q0 160 -232 160h-208v-328zM1284 590q0 89 -66 136.5t-198 47.5h-229v-368h229q264 0 264 184z" />
    <glyph glyph-name="_8390" unicode="&#x24b8;" 
d="M985 1679q179 0 343.5 -70.5t283.5 -189.5t189.5 -283t70.5 -343q0 -239 -119.5 -443.5t-324 -324t-443.5 -119.5q-181 0 -346 70.5t-284.5 189.5t-190 283.5t-70.5 343.5t70.5 343t190 283t284.5 189.5t346 70.5zM985 1599q-164 0 -313 -64t-256.5 -172t-171.5 -257
t-64 -313q0 -218 108 -404t293.5 -294.5t403.5 -108.5q162 0 310.5 64t255.5 172.5t171 258t64 312.5t-64 312.5t-171 257.5t-255.5 172t-310.5 64zM526 813q0 238 147.5 389.5t389.5 151.5q136 0 244 -43l-13 -133q-99 57 -221 57q-192 0 -301.5 -118t-109.5 -304
q0 -193 111.5 -307.5t301.5 -114.5q121 0 223 60l15 -134q-98 -45 -242 -45q-249 0 -397 148.5t-148 392.5z" />
    <glyph glyph-name="_8391" unicode="&#x24b9;" 
d="M985 1679q179 0 343.5 -70.5t283.5 -189.5t189.5 -283t70.5 -343q0 -239 -119.5 -443.5t-324 -324t-443.5 -119.5q-181 0 -346 70.5t-284.5 189.5t-190 283.5t-70.5 343.5t70.5 343t190 283t284.5 189.5t346 70.5zM985 1599q-164 0 -313 -64t-256.5 -172t-171.5 -257
t-64 -313q0 -218 108 -404t293.5 -294.5t403.5 -108.5q162 0 310.5 64t255.5 172.5t171 258t64 312.5t-64 312.5t-171 257.5t-255.5 172t-310.5 64zM1346 813q0 406 -449 406h-115v-813h115q449 0 449 407zM1481 813q0 -128 -42.5 -228.5t-118.5 -164.5t-178 -97.5
t-224 -33.5h-267v1046h267q122 0 224 -33t178 -97t118.5 -164t42.5 -228z" />
    <glyph glyph-name="_8392" unicode="&#x24ba;" 
d="M985 1679q179 0 343.5 -70.5t283.5 -189.5t189.5 -283t70.5 -343q0 -239 -119.5 -443.5t-324 -324t-443.5 -119.5q-181 0 -346 70.5t-284.5 189.5t-190 283.5t-70.5 343.5t70.5 343t190 283t284.5 189.5t346 70.5zM985 1599q-164 0 -313 -64t-256.5 -172t-171.5 -257
t-64 -313q0 -218 108 -404t293.5 -294.5t403.5 -108.5q162 0 310.5 64t255.5 172.5t171 258t64 312.5t-64 312.5t-171 257.5t-255.5 172t-310.5 64zM662 289v1046h653v-116h-522v-332h483v-117h-483v-364h534v-117h-665z" />
    <glyph glyph-name="_8393" unicode="&#x24bb;" 
d="M985 1679q179 0 343.5 -70.5t283.5 -189.5t189.5 -283t70.5 -343q0 -239 -119.5 -443.5t-324 -324t-443.5 -119.5q-181 0 -346 70.5t-284.5 189.5t-190 283.5t-70.5 343.5t70.5 343t190 283t284.5 189.5t346 70.5zM985 1599q-164 0 -313 -64t-256.5 -172t-171.5 -257
t-64 -313q0 -218 108 -404t293.5 -294.5t403.5 -108.5q162 0 310.5 64t255.5 172.5t171 258t64 312.5t-64 312.5t-171 257.5t-255.5 172t-310.5 64zM698 289v1046h648v-116h-519v-326h484v-119h-484v-485h-129z" />
    <glyph glyph-name="_8394" unicode="&#x24bc;" 
d="M985 1679q179 0 343.5 -70.5t283.5 -189.5t189.5 -283t70.5 -343q0 -239 -119.5 -443.5t-324 -324t-443.5 -119.5q-181 0 -346 70.5t-284.5 189.5t-190 283.5t-70.5 343.5t70.5 343t190 283t284.5 189.5t346 70.5zM985 1599q-164 0 -313 -64t-256.5 -172t-171.5 -257
t-64 -313q0 -218 108 -404t293.5 -294.5t403.5 -108.5q162 0 310.5 64t255.5 172.5t171 258t64 312.5t-64 312.5t-171 257.5t-255.5 172t-310.5 64zM465 813q0 153 66 275t192 194t291 72q179 0 309 -54l-12 -131q-139 66 -289 66q-192 0 -308 -118t-116 -304
q0 -191 117 -306.5t325 -115.5q103 0 172 27v330h-284v116h415v-534q-140 -58 -315 -58q-255 0 -409 151t-154 390z" />
    <glyph glyph-name="_8395" unicode="&#x24bd;" 
d="M985 1679q179 0 343.5 -70.5t283.5 -189.5t189.5 -283t70.5 -343q0 -239 -119.5 -443.5t-324 -324t-443.5 -119.5q-181 0 -346 70.5t-284.5 189.5t-190 283.5t-70.5 343.5t70.5 343t190 283t284.5 189.5t346 70.5zM985 1599q-164 0 -313 -64t-256.5 -172t-171.5 -257
t-64 -313q0 -218 108 -404t293.5 -294.5t403.5 -108.5q162 0 310.5 64t255.5 172.5t171 258t64 312.5t-64 312.5t-171 257.5t-255.5 172t-310.5 64zM575 289v1046h132v-432h546v432h133v-1046h-133v497h-546v-497h-132z" />
    <glyph glyph-name="_8396" unicode="&#x24be;" 
d="M985 1679q179 0 343.5 -70.5t283.5 -189.5t189.5 -283t70.5 -343q0 -239 -119.5 -443.5t-324 -324t-443.5 -119.5q-181 0 -346 70.5t-284.5 189.5t-190 283.5t-70.5 343.5t70.5 343t190 283t284.5 189.5t346 70.5zM985 1599q-164 0 -313 -64t-256.5 -172t-171.5 -257
t-64 -313q0 -218 108 -404t293.5 -294.5t403.5 -108.5q162 0 310.5 64t255.5 172.5t171 258t64 312.5t-64 312.5t-171 257.5t-255.5 172t-310.5 64zM915 1335h132v-1046h-132v1046z" />
    <glyph glyph-name="_8397" unicode="&#x24bf;" 
d="M985 1679q179 0 343.5 -70.5t283.5 -189.5t189.5 -283t70.5 -343q0 -239 -119.5 -443.5t-324 -324t-443.5 -119.5q-181 0 -346 70.5t-284.5 189.5t-190 283.5t-70.5 343.5t70.5 343t190 283t284.5 189.5t346 70.5zM985 1599q-164 0 -313 -64t-256.5 -172t-171.5 -257
t-64 -313q0 -218 108 -404t293.5 -294.5t403.5 -108.5q162 0 310.5 64t255.5 172.5t171 258t64 312.5t-64 312.5t-171 257.5t-255.5 172t-310.5 64zM1114 627v704h131v-704q0 -357 -311 -357q-132 0 -219 43l10 131q82 -55 205 -55q184 0 184 238z" />
    <glyph glyph-name="_8398" unicode="&#x24c0;" 
d="M985 1679q179 0 343.5 -70.5t283.5 -189.5t189.5 -283t70.5 -343q0 -239 -119.5 -443.5t-324 -324t-443.5 -119.5q-181 0 -346 70.5t-284.5 189.5t-190 283.5t-70.5 343.5t70.5 343t190 283t284.5 189.5t346 70.5zM985 1599q-164 0 -313 -64t-256.5 -172t-171.5 -257
t-64 -313q0 -218 108 -404t293.5 -294.5t403.5 -108.5q162 0 310.5 64t255.5 172.5t171 258t64 312.5t-64 312.5t-171 257.5t-255.5 172t-310.5 64zM1212 1335h164l-469 -489l541 -557h-176l-504 532v-532h-131v1046h131v-463z" />
    <glyph glyph-name="_8399" unicode="&#x24c1;" 
d="M985 1679q179 0 343.5 -70.5t283.5 -189.5t189.5 -283t70.5 -343q0 -239 -119.5 -443.5t-324 -324t-443.5 -119.5q-181 0 -346 70.5t-284.5 189.5t-190 283.5t-70.5 343.5t70.5 343t190 283t284.5 189.5t346 70.5zM985 1599q-164 0 -313 -64t-256.5 -172t-171.5 -257
t-64 -313q0 -218 108 -404t293.5 -294.5t403.5 -108.5q162 0 310.5 64t255.5 172.5t171 258t64 312.5t-64 312.5t-171 257.5t-255.5 172t-310.5 64zM674 289v1046h131v-929h563v-117h-694z" />
    <glyph glyph-name="_8400" unicode="&#x24c2;" 
d="M985 1679q179 0 343.5 -70.5t283.5 -189.5t189.5 -283t70.5 -343q0 -239 -119.5 -443.5t-324 -324t-443.5 -119.5q-181 0 -346 70.5t-284.5 189.5t-190 283.5t-70.5 343.5t70.5 343t190 283t284.5 189.5t346 70.5zM985 1599q-164 0 -313 -64t-256.5 -172t-171.5 -257
t-64 -313q0 -218 108 -404t293.5 -294.5t403.5 -108.5q162 0 310.5 64t255.5 172.5t171 258t64 312.5t-64 312.5t-171 257.5t-255.5 172t-310.5 64zM1036 637h-110l-332 508v-856h-125v1046h139l373 -575l373 575h139v-1046h-125v856z" />
    <glyph glyph-name="_8401" unicode="&#x24c3;" 
d="M985 1679q179 0 343.5 -70.5t283.5 -189.5t189.5 -283t70.5 -343q0 -239 -119.5 -443.5t-324 -324t-443.5 -119.5q-181 0 -346 70.5t-284.5 189.5t-190 283.5t-70.5 343.5t70.5 343t190 283t284.5 189.5t346 70.5zM985 1599q-164 0 -313 -64t-256.5 -172t-171.5 -257
t-64 -313q0 -218 108 -404t293.5 -294.5t403.5 -108.5q162 0 310.5 64t255.5 172.5t171 258t64 312.5t-64 312.5t-171 257.5t-255.5 172t-310.5 64zM571 289v1046h158l537 -882v882h125v-1046h-158l-537 882v-882h-125z" />
    <glyph glyph-name="_8402" unicode="&#x24c4;" 
d="M985 1679q179 0 343.5 -70.5t283.5 -189.5t189.5 -283t70.5 -343q0 -239 -119.5 -443.5t-324 -324t-443.5 -119.5q-181 0 -346 70.5t-284.5 189.5t-190 283.5t-70.5 343.5t70.5 343t190 283t284.5 189.5t346 70.5zM985 1599q-164 0 -313 -64t-256.5 -172t-171.5 -257
t-64 -313q0 -218 108 -404t293.5 -294.5t403.5 -108.5q162 0 310.5 64t255.5 172.5t171 258t64 312.5t-64 312.5t-171 257.5t-255.5 172t-310.5 64zM1448 813q0 -154 -54.5 -275.5t-161.5 -193.5t-251 -72q-145 0 -252.5 72t-162 193.5t-54.5 275.5q0 153 54.5 274.5
t162 194t252.5 72.5q215 0 341 -153.5t126 -387.5zM647 813q0 -193 91 -307.5t243 -114.5q151 0 241.5 114.5t90.5 307.5t-90.5 307.5t-241.5 114.5q-152 0 -243 -114.5t-91 -307.5z" />
    <glyph glyph-name="_8403" unicode="&#x24c5;" 
d="M985 1679q179 0 343.5 -70.5t283.5 -189.5t189.5 -283t70.5 -343q0 -239 -119.5 -443.5t-324 -324t-443.5 -119.5q-181 0 -346 70.5t-284.5 189.5t-190 283.5t-70.5 343.5t70.5 343t190 283t284.5 189.5t346 70.5zM985 1599q-164 0 -313 -64t-256.5 -172t-171.5 -257
t-64 -313q0 -218 108 -404t293.5 -294.5t403.5 -108.5q162 0 310.5 64t255.5 172.5t171 258t64 312.5t-64 312.5t-171 257.5t-255.5 172t-310.5 64zM1419 1010q0 -153 -105.5 -238.5t-283.5 -85.5h-192v-397h-133v1046h325q178 0 283.5 -85.5t105.5 -239.5zM1286 1010
q0 107 -65.5 158t-200.5 51h-182v-416h182q136 0 201 50t65 157z" />
    <glyph glyph-name="_8404" unicode="&#x24c6;" 
d="M985 1679q179 0 343.5 -70.5t283.5 -189.5t189.5 -283t70.5 -343q0 -239 -119.5 -443.5t-324 -324t-443.5 -119.5q-181 0 -346 70.5t-284.5 189.5t-190 283.5t-70.5 343.5t70.5 343t190 283t284.5 189.5t346 70.5zM985 1599q-164 0 -313 -64t-256.5 -172t-171.5 -257
t-64 -313q0 -218 108 -404t293.5 -294.5t403.5 -108.5q162 0 310.5 64t255.5 172.5t171 258t64 312.5t-64 312.5t-171 257.5t-255.5 172t-310.5 64zM1436 862q0 -210 -103 -357.5t-282 -176.5q12 -68 61 -95q46 -24 135 -24q61 0 127 16l15 -108q-81 -15 -146 -15
q-127 0 -207 45q-89 59 -110 177q-198 15 -312 165t-114 373q0 153 54.5 274.5t162 194t252.5 72.5q215 0 341 -153.5t126 -387.5zM635 862q0 -193 90.5 -306.5t243.5 -113.5q151 0 241 113.5t90 306.5t-90 306.5t-241 113.5q-153 0 -243.5 -113.5t-90.5 -306.5z" />
    <glyph glyph-name="_8405" unicode="&#x24c7;" 
d="M985 1679q179 0 343.5 -70.5t283.5 -189.5t189.5 -283t70.5 -343q0 -239 -119.5 -443.5t-324 -324t-443.5 -119.5q-181 0 -346 70.5t-284.5 189.5t-190 283.5t-70.5 343.5t70.5 343t190 283t284.5 189.5t346 70.5zM985 1599q-164 0 -313 -64t-256.5 -172t-171.5 -257
t-64 -313q0 -218 108 -404t293.5 -294.5t403.5 -108.5q162 0 310.5 64t255.5 172.5t171 258t64 312.5t-64 312.5t-171 257.5t-255.5 172t-310.5 64zM1393 1030q0 -110 -63 -182t-171 -103l299 -456h-151l-283 438h-225v-438h-133v1046h350q165 0 271 -80t106 -225z
M1257 1030q0 189 -251 189h-207v-377h207q251 0 251 188z" />
    <glyph glyph-name="_8406" unicode="&#x24c8;" 
d="M985 1679q179 0 343.5 -70.5t283.5 -189.5t189.5 -283t70.5 -343q0 -239 -119.5 -443.5t-324 -324t-443.5 -119.5q-181 0 -346 70.5t-284.5 189.5t-190 283.5t-70.5 343.5t70.5 343t190 283t284.5 189.5t346 70.5zM985 1599q-164 0 -313 -64t-256.5 -172t-171.5 -257
t-64 -313q0 -218 108 -404t293.5 -294.5t403.5 -108.5q162 0 310.5 64t255.5 172.5t171 258t64 312.5t-64 312.5t-171 257.5t-255.5 172t-310.5 64zM1260 1307l-11 -131q-102 59 -241 59q-111 0 -167.5 -40t-56.5 -110q0 -63 49.5 -108t159.5 -82q174 -59 250 -135t76 -195
q0 -139 -99 -216t-278 -77q-161 0 -285 70l11 135q124 -86 284 -86q113 0 172.5 43.5t59.5 122.5q0 75 -52 124.5t-176 88.5q-157 52 -232 127t-75 188q0 125 96 197t265 72q141 0 250 -47z" />
    <glyph glyph-name="_8407" unicode="&#x24c9;" 
d="M985 1679q179 0 343.5 -70.5t283.5 -189.5t189.5 -283t70.5 -343q0 -239 -119.5 -443.5t-324 -324t-443.5 -119.5q-181 0 -346 70.5t-284.5 189.5t-190 283.5t-70.5 343.5t70.5 343t190 283t284.5 189.5t346 70.5zM985 1599q-164 0 -313 -64t-256.5 -172t-171.5 -257
t-64 -313q0 -218 108 -404t293.5 -294.5t403.5 -108.5q162 0 310.5 64t255.5 172.5t171 258t64 312.5t-64 312.5t-171 257.5t-255.5 172t-310.5 64zM915 289v930h-325v116h782v-116h-325v-930h-132z" />
    <glyph glyph-name="_8408" unicode="&#x24ca;" 
d="M985 1679q179 0 343.5 -70.5t283.5 -189.5t189.5 -283t70.5 -343q0 -239 -119.5 -443.5t-324 -324t-443.5 -119.5q-181 0 -346 70.5t-284.5 189.5t-190 283.5t-70.5 343.5t70.5 343t190 283t284.5 189.5t346 70.5zM985 1599q-164 0 -313 -64t-256.5 -172t-171.5 -257
t-64 -313q0 -218 108 -404t293.5 -294.5t403.5 -108.5q162 0 310.5 64t255.5 172.5t171 258t64 312.5t-64 312.5t-171 257.5t-255.5 172t-310.5 64zM981 270q-190 0 -303 108t-113 316v637h131v-629q0 -313 285 -313q283 0 283 313v629h131v-637q0 -210 -109.5 -317
t-304.5 -107z" />
    <glyph glyph-name="_8409" unicode="&#x24cb;" 
d="M985 1679q179 0 343.5 -70.5t283.5 -189.5t189.5 -283t70.5 -343q0 -239 -119.5 -443.5t-324 -324t-443.5 -119.5q-181 0 -346 70.5t-284.5 189.5t-190 283.5t-70.5 343.5t70.5 343t190 283t284.5 189.5t346 70.5zM985 1599q-164 0 -313 -64t-256.5 -172t-171.5 -257
t-64 -313q0 -218 108 -404t293.5 -294.5t403.5 -108.5q162 0 310.5 64t255.5 172.5t171 258t64 312.5t-64 312.5t-171 257.5t-255.5 172t-310.5 64zM1053 289h-144l-401 1046h135l338 -891l336 891h137z" />
    <glyph glyph-name="_8410" unicode="&#x24cc;" 
d="M985 1679q179 0 343.5 -70.5t283.5 -189.5t189.5 -283t70.5 -343q0 -239 -119.5 -443.5t-324 -324t-443.5 -119.5q-181 0 -346 70.5t-284.5 189.5t-190 283.5t-70.5 343.5t70.5 343t190 283t284.5 189.5t346 70.5zM985 1599q-164 0 -313 -64t-256.5 -172t-171.5 -257
t-64 -313q0 -218 108 -404t293.5 -294.5t403.5 -108.5q162 0 310.5 64t255.5 172.5t171 258t64 312.5t-64 312.5t-171 257.5t-255.5 172t-310.5 64zM901 1335h160l162 -891l207 891h141l-258 -1046h-178l-154 878l-156 -878h-176l-258 1046h139l209 -891z" />
    <glyph glyph-name="_8411" unicode="&#x24cd;" 
d="M985 1679q179 0 343.5 -70.5t283.5 -189.5t189.5 -283t70.5 -343q0 -239 -119.5 -443.5t-324 -324t-443.5 -119.5q-181 0 -346 70.5t-284.5 189.5t-190 283.5t-70.5 343.5t70.5 343t190 283t284.5 189.5t346 70.5zM985 1599q-164 0 -313 -64t-256.5 -172t-171.5 -257
t-64 -313q0 -218 108 -404t293.5 -294.5t403.5 -108.5q162 0 310.5 64t255.5 172.5t171 258t64 312.5t-64 312.5t-171 257.5t-255.5 172t-310.5 64zM903 821l-383 514h154l307 -415l307 415h154l-383 -514l397 -532h-153l-322 434l-324 -434h-151z" />
    <glyph glyph-name="_8412" unicode="&#x24ce;" 
d="M985 1679q179 0 343.5 -70.5t283.5 -189.5t189.5 -283t70.5 -343q0 -239 -119.5 -443.5t-324 -324t-443.5 -119.5q-181 0 -346 70.5t-284.5 189.5t-190 283.5t-70.5 343.5t70.5 343t190 283t284.5 189.5t346 70.5zM985 1599q-164 0 -313 -64t-256.5 -172t-171.5 -257
t-64 -313q0 -218 108 -404t293.5 -294.5t403.5 -108.5q162 0 310.5 64t255.5 172.5t171 258t64 312.5t-64 312.5t-171 257.5t-255.5 172t-310.5 64zM1446 1335l-399 -630v-416h-132v416l-399 630h154l311 -506l311 506h154z" />
    <glyph glyph-name="_8413" unicode="&#x24cf;" 
d="M985 1679q179 0 343.5 -70.5t283.5 -189.5t189.5 -283t70.5 -343q0 -239 -119.5 -443.5t-324 -324t-443.5 -119.5q-181 0 -346 70.5t-284.5 189.5t-190 283.5t-70.5 343.5t70.5 343t190 283t284.5 189.5t346 70.5zM985 1599q-164 0 -313 -64t-256.5 -172t-171.5 -257
t-64 -313q0 -218 108 -404t293.5 -294.5t403.5 -108.5q162 0 310.5 64t255.5 172.5t171 258t64 312.5t-64 312.5t-171 257.5t-255.5 172t-310.5 64zM606 422l584 797h-561v116h710v-131l-583 -798h600v-117h-750v133z" />
    <glyph glyph-name="_707" unicode="&#x24d0;" 
d="M59 805q0 -153 46.5 -294t131.5 -254t198.5 -197t254.5 -129.5t293 -45.5t293 45.5t254.5 129.5t198.5 197t131.5 254t46.5 294q0 191 -72.5 361.5t-196 292.5t-294.5 193.5t-361 71.5t-361 -71.5t-294.5 -193.5t-196 -292.5t-72.5 -361.5zM154 805q0 172 65 326.5
t175.5 265t264 175t324.5 64.5t324.5 -64.5t264 -175t175.5 -265t65 -326.5q0 -230 -110 -421t-300.5 -301t-418.5 -110t-418.5 110t-300.5 301t-110 421zM1214 383h123q-24 63 -24 125v424q0 144 -86.5 227.5t-247.5 83.5q-154 0 -238.5 -74t-95.5 -204h123
q8 81 60.5 127.5t150.5 46.5q103 0 158 -55t55 -150v-109q-77 84 -248 84q-156 0 -244 -72.5t-88 -199.5q0 -129 87.5 -202t244.5 -73q173 0 250 87q3 -36 20 -66zM1192 637q0 -80 -58 -125t-171 -45t-170.5 45t-57.5 125q0 78 58 123t170 45t170.5 -45.5t58.5 -122.5z" />
    <glyph glyph-name="_708" unicode="&#x24d1;" 
d="M57 805q0 -153 46.5 -294.5t131.5 -254.5t199 -196.5t255 -129t294 -45.5q152 0 293 45.5t254.5 129t198.5 196.5t131.5 254.5t46.5 294.5q0 191 -72.5 361.5t-196 292.5t-294.5 193.5t-361 71.5t-361.5 -71.5t-295.5 -193.5t-196.5 -292.5t-72.5 -361.5zM154 805
q0 172 64.5 326t175 264.5t264.5 175.5t325 65q170 0 323 -65t263.5 -175.5t175.5 -265t65 -325.5q0 -230 -110 -421t-300 -301t-417 -110q-228 0 -418.5 110t-300.5 301t-110 421zM1405 678q0 215 -89 327.5t-259 112.5q-85 0 -149.5 -32.5t-100.5 -90.5v430h-123v-1167
h123v102q36 -56 101.5 -89t148.5 -33q170 0 259 112.5t89 327.5zM1284 678q0 -336 -237 -336q-240 0 -240 336t240 336q237 0 237 -336z" />
    <glyph glyph-name="_709" unicode="&#x24d2;" 
d="M59 805q0 -153 46.5 -294t131.5 -254t198.5 -197t254.5 -129.5t293 -45.5t293 45.5t254.5 129.5t198.5 197t131.5 254t46.5 294q0 191 -72.5 361.5t-196 292.5t-294.5 193.5t-361 71.5t-361 -71.5t-294.5 -193.5t-196 -292.5t-72.5 -361.5zM154 805q0 172 65 326.5
t175.5 265t264 175t324.5 64.5t324.5 -64.5t264 -175t175.5 -265t65 -326.5q0 -230 -110 -421t-300.5 -301t-418.5 -110t-418.5 110t-300.5 301t-110 421zM625 803q0 -212 89.5 -326.5t268.5 -114.5q151 0 241 80.5t107 227.5h-123q-12 -97 -69.5 -150t-155.5 -53
q-124 0 -181 85.5t-57 250.5q0 336 238 336q98 0 155.5 -53t69.5 -148h123q-17 146 -107 225.5t-241 79.5q-180 0 -269 -113.5t-89 -326.5z" />
    <glyph glyph-name="_710" unicode="&#x24d3;" 
d="M57 805q0 -153 46.5 -294.5t131.5 -254.5t199 -196.5t255 -129t294 -45.5q152 0 293 45.5t254.5 129t198.5 196.5t131.5 254.5t46.5 294.5q0 191 -72.5 361.5t-196 292.5t-294.5 193.5t-361 71.5t-361.5 -71.5t-295.5 -193.5t-196.5 -292.5t-72.5 -361.5zM154 805
q0 172 64.5 326t175 264.5t264.5 175.5t325 65q170 0 323 -65t263.5 -175.5t175.5 -265t65 -325.5q0 -230 -110 -421t-300 -301t-417 -110q-228 0 -418.5 110t-300.5 301t-110 421zM551 684q0 -216 88.5 -328t259.5 -112q83 0 147.5 33t102.5 90v-105h121v1168h-121v-431
q-36 59 -100 91t-150 32q-172 0 -260 -111.5t-88 -326.5zM1149 684q0 -165 -57.5 -250.5t-182.5 -85.5q-124 0 -180.5 85.5t-56.5 250.5q0 336 237 336q240 0 240 -336z" />
    <glyph glyph-name="_711" unicode="&#x24d4;" 
d="M57 805q0 -153 46.5 -294.5t131.5 -254.5t199 -196.5t255 -129t294 -45.5q152 0 293 45.5t254.5 129t198.5 196.5t131.5 254.5t46.5 294.5q0 191 -72.5 361.5t-196 292.5t-294.5 193.5t-361 71.5t-361.5 -71.5t-295.5 -193.5t-196.5 -292.5t-72.5 -361.5zM154 805
q0 172 64.5 326t175 264.5t264.5 175.5t325 65q170 0 323 -65t263.5 -175.5t175.5 -265t65 -325.5q0 -230 -110 -421t-300 -301t-417 -110q-228 0 -418.5 110t-300.5 301t-110 421zM1202 649q-15 -82 -74 -131t-145 -49q-231 0 -240 297h598q0 234 -85.5 355.5t-274.5 121.5
q-180 0 -269 -113.5t-89 -324.5q0 -213 89.5 -326.5t270.5 -113.5q143 0 231 74.5t113 209.5h-125zM981 1141q222 0 238 -277h-476q16 277 238 277z" />
    <glyph glyph-name="_712" unicode="&#x24d5;" 
d="M59 805q0 -153 46.5 -294t131.5 -254t198.5 -197t254.5 -129.5t293 -45.5t293 45.5t254.5 129.5t198.5 197t131.5 254t46.5 294q0 191 -72.5 361.5t-196 292.5t-294.5 193.5t-361 71.5t-361 -71.5t-294.5 -193.5t-196 -292.5t-72.5 -361.5zM154 805q0 172 65 326.5
t175.5 265t264 175t324.5 64.5t324.5 -64.5t264 -175t175.5 -265t65 -326.5q0 -230 -110 -421t-300.5 -301t-418.5 -110t-418.5 110t-300.5 301t-110 421zM1210 1280v100q-52 6 -96 6q-142 0 -200 -53.5t-58 -189.5v-94h-123v-105h123v-737h121v737h233v105h-233v88
q0 82 30 112.5t113 30.5h90z" />
    <glyph glyph-name="_713" unicode="&#x24d6;" 
d="M57 805q0 -153 46.5 -294.5t131.5 -254.5t199 -196.5t255 -129t294 -45.5q152 0 293 45.5t254.5 129t198.5 196.5t131.5 254.5t46.5 294.5q0 191 -72.5 361.5t-196 292.5t-294.5 193.5t-361 71.5t-361.5 -71.5t-295.5 -193.5t-196.5 -292.5t-72.5 -361.5zM154 805
q0 172 64.5 326t175 264.5t264.5 175.5t325 65q170 0 323 -65t263.5 -175.5t175.5 -265t65 -325.5q0 -230 -110 -421t-300 -301t-417 -110q-228 0 -418.5 110t-300.5 301t-110 421zM1202 961q0 -336 -239 -336q-238 0 -238 336q0 337 238 337q239 0 239 -337zM649 432
q15 -124 102 -196t232 -72q168 0 254 93.5t86 250.5v874h-121v-104q-36 58 -100.5 90.5t-149.5 32.5q-170 0 -259 -112.5t-89 -327.5q0 -214 89 -326.5t259 -112.5q172 0 250 121v-141q0 -111 -57.5 -173.5t-161.5 -62.5q-89 0 -144.5 44.5t-66.5 121.5h-123z" />
    <glyph glyph-name="_714" unicode="&#x24d7;" 
d="M57 805q0 -153 46.5 -294.5t131.5 -254.5t199 -196.5t255 -129t294 -45.5q152 0 293 45.5t254.5 129t198.5 196.5t131.5 254.5t46.5 294.5q0 191 -72.5 361.5t-196 292.5t-294.5 193.5t-361 71.5t-361.5 -71.5t-295.5 -193.5t-196.5 -292.5t-72.5 -361.5zM154 805
q0 172 64.5 326t175 264.5t264.5 175.5t325 65q170 0 323 -65t263.5 -175.5t175.5 -265t65 -325.5q0 -230 -110 -421t-300 -301t-417 -110q-228 0 -418.5 110t-300.5 301t-110 421zM799 252v358q0 192 62.5 295t185.5 103q196 0 196 -258v-498h121v516q0 165 -77.5 254.5
t-221.5 89.5q-185 0 -266 -143v450h-121v-1167h121z" />
    <glyph glyph-name="_715" unicode="&#x24d8;" 
d="M59 805q0 -153 46.5 -294t131.5 -254t198.5 -197t254.5 -129.5t293 -45.5t293 45.5t254.5 129.5t198.5 197t131.5 254t46.5 294q0 191 -72.5 361.5t-196 292.5t-294.5 193.5t-361 71.5t-361 -71.5t-294.5 -193.5t-196 -292.5t-72.5 -361.5zM154 805q0 172 65 326.5
t175.5 265t264 175t324.5 64.5t324.5 -64.5t264 -175t175.5 -265t65 -326.5q0 -230 -110 -421t-300.5 -301t-418.5 -110t-418.5 110t-300.5 301t-110 421zM1044 231v842h-122v-842h122zM1044 1221v178h-122v-178h122z" />
    <glyph glyph-name="_716" unicode="&#x24d9;" 
d="M59 805q0 -153 46.5 -294t131.5 -254t198.5 -197t254.5 -129.5t293 -45.5t293 45.5t254.5 129.5t198.5 197t131.5 254t46.5 294q0 191 -72.5 361.5t-196 292.5t-294.5 193.5t-361 71.5t-361 -71.5t-294.5 -193.5t-196 -292.5t-72.5 -361.5zM154 805q0 172 65 326.5
t175.5 265t264 175t324.5 64.5t324.5 -64.5t264 -175t175.5 -265t65 -326.5q0 -230 -110 -421t-300.5 -301t-418.5 -110t-418.5 110t-300.5 301t-110 421zM1094 1157h-121v-821q0 -117 -107 -117h-57v-100q28 -4 63 -4q222 0 222 225v817zM1094 1307v176h-121v-176h121z" />
    <glyph glyph-name="_717" unicode="&#x24da;" 
d="M59 805q0 -153 46.5 -294t131.5 -254t198.5 -197t254.5 -129.5t293 -45.5t293 45.5t254.5 129.5t198.5 197t131.5 254t46.5 294q0 191 -72.5 361.5t-196 292.5t-294.5 193.5t-361 71.5t-361 -71.5t-294.5 -193.5t-196 -292.5t-72.5 -361.5zM154 805q0 172 65 326.5
t175.5 265t264 175t324.5 64.5t324.5 -64.5t264 -175t175.5 -265t65 -326.5q0 -230 -110 -421t-300.5 -301t-418.5 -110t-418.5 110t-300.5 301t-110 421zM852 266v387h80l317 -387h148l-361 436l324 406h-141l-285 -350h-82v676h-123v-1168h123z" />
    <glyph glyph-name="_718" unicode="&#x24db;" 
d="M59 805q0 -153 46.5 -294t131.5 -254t198.5 -197t254.5 -129.5t293 -45.5t293 45.5t254.5 129.5t198.5 197t131.5 254t46.5 294q0 191 -72.5 361.5t-196 292.5t-294.5 193.5t-361 71.5t-361 -71.5t-294.5 -193.5t-196 -292.5t-72.5 -361.5zM154 805q0 172 65 326.5
t175.5 265t264 175t324.5 64.5t324.5 -64.5t264 -175t175.5 -265t65 -326.5q0 -230 -110 -421t-300.5 -301t-418.5 -110t-418.5 110t-300.5 301t-110 421zM1051 221v1168h-121v-1168h121z" />
    <glyph glyph-name="_719" unicode="&#x24dc;" 
d="M57 805q0 -153 46.5 -294.5t131.5 -254.5t199 -196.5t255 -129t294 -45.5q152 0 293 45.5t254.5 129t198.5 196.5t131.5 254.5t46.5 294.5q0 191 -72.5 361.5t-196 292.5t-294.5 193.5t-361 71.5t-361.5 -71.5t-295.5 -193.5t-196.5 -292.5t-72.5 -361.5zM154 805
q0 172 64.5 326t175 264.5t264.5 175.5t325 65q170 0 323 -65t263.5 -175.5t175.5 -265t65 -325.5q0 -230 -110 -421t-300 -301t-417 -110q-228 0 -418.5 110t-300.5 301t-110 421zM1444 381h121v553q0 145 -73 226t-204 81q-91 0 -159.5 -45t-104.5 -123q-28 81 -93 124.5
t-157 43.5q-162 0 -235 -139v121h-123v-842h123v422q0 159 61 247.5t156 88.5q84 0 129 -53t45 -154v-551h121v422q0 157 62 246.5t157 89.5q85 0 129.5 -53t44.5 -154v-551z" />
    <glyph glyph-name="_720" unicode="&#x24dd;" 
d="M57 805q0 -153 46.5 -294.5t131.5 -254.5t199 -196.5t255 -129t294 -45.5q152 0 293 45.5t254.5 129t198.5 196.5t131.5 254.5t46.5 294.5q0 191 -72.5 361.5t-196 292.5t-294.5 193.5t-361 71.5t-361.5 -71.5t-295.5 -193.5t-196.5 -292.5t-72.5 -361.5zM154 805
q0 172 64.5 326t175 264.5t264.5 175.5t325 65q170 0 323 -65t263.5 -175.5t175.5 -265t65 -325.5q0 -230 -110 -421t-300 -301t-417 -110q-228 0 -418.5 110t-300.5 301t-110 421zM770 381v430q0 151 71 238.5t177 87.5q108 0 153.5 -75t45.5 -247v-434h118v516
q0 164 -77.5 254t-219.5 90q-187 0 -268 -143v125h-121v-842h121z" />
    <glyph glyph-name="_721" unicode="&#x24de;" 
d="M59 805q0 -153 46.5 -294t131.5 -254t198.5 -197t254.5 -129.5t293 -45.5t293 45.5t254.5 129.5t198.5 197t131.5 254t46.5 294q0 191 -72.5 361.5t-196 292.5t-294.5 193.5t-361 71.5t-361 -71.5t-294.5 -193.5t-196 -292.5t-72.5 -361.5zM154 805q0 172 65 326.5
t175.5 265t264 175t324.5 64.5t324.5 -64.5t264 -175t175.5 -265t65 -326.5q0 -230 -110 -421t-300.5 -301t-418.5 -110t-418.5 110t-300.5 301t-110 421zM1343 805q0 213 -89.5 326.5t-270.5 113.5q-180 0 -269 -113.5t-89 -326.5q0 -210 89.5 -324t268.5 -114
q181 0 270.5 114t89.5 324zM1223 805q0 -336 -240 -336q-238 0 -238 336q0 338 238 338q240 0 240 -338z" />
    <glyph glyph-name="_722" unicode="&#x24df;" 
d="M57 805q0 -153 46.5 -294.5t131.5 -254.5t199 -196.5t255 -129t294 -45.5q152 0 293 45.5t254.5 129t198.5 196.5t131.5 254.5t46.5 294.5q0 191 -72.5 361.5t-196 292.5t-294.5 193.5t-361 71.5t-361.5 -71.5t-295.5 -193.5t-196.5 -292.5t-72.5 -361.5zM154 805
q0 172 64.5 326t175 264.5t264.5 175.5t325 65q170 0 323 -65t263.5 -175.5t175.5 -265t65 -325.5q0 -230 -110 -421t-300 -301t-417 -110q-228 0 -418.5 110t-300.5 301t-110 421zM1409 936q0 215 -89 327.5t-261 112.5q-84 0 -149 -32.5t-101 -90.5v105h-121v-1196h121
v456q77 -122 250 -122q171 0 260.5 113t89.5 327zM1286 936q0 -336 -237 -336q-125 0 -182.5 85.5t-57.5 250.5q0 336 240 336q237 0 237 -336z" />
    <glyph glyph-name="_723" unicode="&#x24e0;" 
d="M57 805q0 -153 46.5 -294.5t131.5 -254.5t199 -196.5t255 -129t294 -45.5q152 0 293 45.5t254.5 129t198.5 196.5t131.5 254.5t46.5 294.5q0 191 -72.5 361.5t-196 292.5t-294.5 193.5t-361 71.5t-361.5 -71.5t-295.5 -193.5t-196.5 -292.5t-72.5 -361.5zM154 805
q0 172 64.5 326t175 264.5t264.5 175.5t325 65q170 0 323 -65t263.5 -175.5t175.5 -265t65 -325.5q0 -230 -110 -421t-300 -301t-417 -110q-228 0 -418.5 110t-300.5 301t-110 421zM561 936q0 -214 89 -327t259 -113q173 0 250 122v-456h121v1196h-121v-105
q-36 58 -100.5 90.5t-149.5 32.5q-170 0 -259 -112.5t-89 -327.5zM1159 936q0 -336 -239 -336q-124 0 -181 85.5t-57 250.5q0 336 238 336q239 0 239 -336z" />
    <glyph glyph-name="_724" unicode="&#x24e1;" 
d="M59 805q0 -153 46.5 -294t131.5 -254t198.5 -197t254.5 -129.5t293 -45.5t293 45.5t254.5 129.5t198.5 197t131.5 254t46.5 294q0 191 -72.5 361.5t-196 292.5t-294.5 193.5t-361 71.5t-361 -71.5t-294.5 -193.5t-196 -292.5t-72.5 -361.5zM154 805q0 172 65 326.5
t175.5 265t264 175t324.5 64.5t324.5 -64.5t264 -175t175.5 -265t65 -326.5q0 -230 -110 -421t-300.5 -301t-418.5 -110t-418.5 110t-300.5 301t-110 421zM1155 1116q51 0 76 -2l2 96q-29 13 -76 13q-165 0 -227 -125v106h-123v-842h123v426q0 164 59.5 246t165.5 82z" />
    <glyph glyph-name="_725" unicode="&#x24e2;" 
d="M59 805q0 -153 46.5 -294t131.5 -254t198.5 -197t254.5 -129.5t293 -45.5t293 45.5t254.5 129.5t198.5 197t131.5 254t46.5 294q0 191 -72.5 361.5t-196 292.5t-294.5 193.5t-361 71.5t-361 -71.5t-294.5 -193.5t-196 -292.5t-72.5 -361.5zM154 805q0 172 65 326.5
t175.5 265t264 175t324.5 64.5t324.5 -64.5t264 -175t175.5 -265t65 -326.5q0 -230 -110 -421t-300.5 -301t-418.5 -110t-418.5 110t-300.5 301t-110 421zM981 1245q-142 0 -222.5 -67t-80.5 -170q0 -98 59.5 -154t194.5 -82q16 -2 108 -20q82 -18 120 -50.5t38 -89.5
q0 -65 -56.5 -104t-146.5 -39q-89 0 -144.5 39t-55.5 106v43h-121v-43q0 -112 89 -180.5t232 -68.5q146 0 235 69t89 180q0 101 -59.5 159t-188.5 83q-10 2 -53 11.5t-53 11.5q-88 17 -127 47t-39 82q0 60 48.5 97.5t133.5 37.5q88 0 136 -37t48 -96v-41h123v39
q0 104 -81.5 170.5t-225.5 66.5z" />
    <glyph glyph-name="_726" unicode="&#x24e3;" 
d="M59 805q0 -153 46.5 -294t131.5 -254t198.5 -197t254.5 -129.5t293 -45.5t293 45.5t254.5 129.5t198.5 197t131.5 254t46.5 294q0 191 -72.5 361.5t-196 292.5t-294.5 193.5t-361 71.5t-361 -71.5t-294.5 -193.5t-196 -292.5t-72.5 -361.5zM154 805q0 172 65 326.5
t175.5 265t264 175t324.5 64.5t324.5 -64.5t264 -175t175.5 -265t65 -326.5q0 -230 -110 -421t-300.5 -301t-418.5 -110t-418.5 110t-300.5 301t-110 421zM969 1034h250v105h-250v229h-123v-229h-121v-105h121v-510q0 -133 62.5 -186t201.5 -53q68 0 109 4v100h-97
q-80 0 -116.5 31t-36.5 117v497z" />
    <glyph glyph-name="_727" unicode="&#x24e4;" 
d="M57 805q0 -153 46.5 -294.5t131.5 -254.5t199 -196.5t255 -129t294 -45.5q152 0 293 45.5t254.5 129t198.5 196.5t131.5 254.5t46.5 294.5q0 191 -72.5 361.5t-196 292.5t-294.5 193.5t-361 71.5t-361.5 -71.5t-295.5 -193.5t-196.5 -292.5t-72.5 -361.5zM154 805
q0 172 64.5 326t175 264.5t264.5 175.5t325 65q170 0 323 -65t263.5 -175.5t175.5 -265t65 -325.5q0 -230 -110 -421t-300 -301t-417 -110q-228 0 -418.5 110t-300.5 301t-110 421zM739 1210h-121v-516q0 -164 78 -254t222 -90q184 0 266 144v-125h121v841h-121v-430
q0 -152 -70.5 -238.5t-177.5 -86.5q-197 0 -197 258v497z" />
    <glyph glyph-name="_728" unicode="&#x24e5;" 
d="M57 805q0 -153 46.5 -294.5t131.5 -254.5t199 -196.5t255 -129t294 -45.5q152 0 293 45.5t254.5 129t198.5 196.5t131.5 254.5t46.5 294.5q0 191 -72.5 361.5t-196 292.5t-294.5 193.5t-361 71.5t-361.5 -71.5t-295.5 -193.5t-196.5 -292.5t-72.5 -361.5zM154 805
q0 172 64.5 326t175 264.5t264.5 175.5t325 65q170 0 323 -65t263.5 -175.5t175.5 -265t65 -325.5q0 -230 -110 -421t-300 -301t-417 -110q-228 0 -418.5 110t-300.5 301t-110 421zM907 340h125l332 842h-129l-264 -678l-266 678h-130z" />
    <glyph glyph-name="_729" unicode="&#x24e6;" 
d="M59 805q0 -153 46.5 -294t131.5 -254t198.5 -197t254.5 -129.5t293 -45.5t293 45.5t254.5 129.5t198.5 197t131.5 254t46.5 294q0 191 -72.5 361.5t-196 292.5t-294.5 193.5t-361 71.5t-361 -71.5t-294.5 -193.5t-196 -292.5t-72.5 -361.5zM154 805q0 172 65 326.5
t175.5 265t264 175t324.5 64.5t324.5 -64.5t264 -175t175.5 -265t65 -326.5q0 -230 -110 -421t-300.5 -301t-418.5 -110t-418.5 110t-300.5 301t-110 421zM922 1198l-226 -659l-221 659h-127l289 -842h121l221 662l225 -662h121l289 842h-129l-221 -661l-224 661h-118z" />
    <glyph glyph-name="_730" unicode="&#x24e7;" 
d="M59 805q0 -153 46.5 -294t131.5 -254t198.5 -197t254.5 -129.5t293 -45.5t293 45.5t254.5 129.5t198.5 197t131.5 254t46.5 294q0 191 -72.5 361.5t-196 292.5t-294.5 193.5t-361 71.5t-361 -71.5t-294.5 -193.5t-196 -292.5t-72.5 -361.5zM154 805q0 172 65 326.5
t175.5 265t264 175t324.5 64.5t324.5 -64.5t264 -175t175.5 -265t65 -326.5q0 -230 -110 -421t-300.5 -301t-418.5 -110t-418.5 110t-300.5 301t-110 421zM1233 373h137l-311 430l297 411h-139l-232 -319l-231 319h-138l297 -409l-313 -432h137l248 342z" />
    <glyph glyph-name="_731" unicode="&#x24e8;" 
d="M59 805q0 -153 46.5 -294t131.5 -254t198.5 -197t254.5 -129.5t293 -45.5t293 45.5t254.5 129.5t198.5 197t131.5 254t46.5 294q0 191 -72.5 361.5t-196 292.5t-294.5 193.5t-361 71.5t-361 -71.5t-294.5 -193.5t-196 -292.5t-72.5 -361.5zM154 805q0 172 65 326.5
t175.5 265t264 175t324.5 64.5t324.5 -64.5t264 -175t175.5 -265t65 -326.5q0 -230 -110 -421t-300.5 -301t-418.5 -110t-418.5 110t-300.5 301t-110 421zM868 315q-22 -55 -49 -73.5t-74 -18.5h-49v-102q23 -2 58 -2q84 0 135 34.5t88 127.5l416 1034h-129l-267 -676
l-266 676h-129l334 -830z" />
    <glyph glyph-name="_732" unicode="&#x24e9;" 
d="M59 805q0 -153 46.5 -294t131.5 -254t198.5 -197t254.5 -129.5t293 -45.5t293 45.5t254.5 129.5t198.5 197t131.5 254t46.5 294q0 191 -72.5 361.5t-196 292.5t-294.5 193.5t-361 71.5t-361 -71.5t-294.5 -193.5t-196 -292.5t-72.5 -361.5zM154 805q0 172 65 326.5
t175.5 265t264 175t324.5 64.5t324.5 -64.5t264 -175t175.5 -265t65 -326.5q0 -230 -110 -421t-300.5 -301t-418.5 -110t-418.5 110t-300.5 301t-110 421zM1278 1225h-594v-103h440l-452 -651v-88h618v104h-467l455 652v86z" />
    <glyph glyph-name="_519" unicode="&#x2500;" 
d="M1966 854h-1966v-121h1966v121z" />
    <glyph glyph-name="_530" unicode="&#x2501;" 
d="M0 891v-193h1966v193h-1966z" />
    <glyph glyph-name="_520" unicode="&#x2502;" 
d="M924 1819v-2048h120v2048h-120z" />
    <glyph glyph-name="_531" unicode="&#x2503;" 
d="M887 1819v-2048h192v2048h-192z" />
    <glyph glyph-name="_521" unicode="&#x250c;" 
d="M924 -229h120v962h922v121h-1042v-1083z" />
    <glyph glyph-name="_558" unicode="&#x250d;" 
d="M944 891v-1120h76v927h946v193h-1022z" />
    <glyph glyph-name="_557" unicode="&#x250e;" 
d="M1079 756h887v73h-1079v-1058h192v985z" />
    <glyph glyph-name="_532" unicode="&#x250f;" 
d="M887 891v-1120h192v927h887v193h-1079z" />
    <glyph glyph-name="_522" unicode="&#x2510;" 
d="M1044 854h-1044v-121h924v-962h120v1083z" />
    <glyph glyph-name="_552" unicode="&#x2511;" 
d="M944 698v-927h76v1120h-1020v-193h944z" />
    <glyph glyph-name="_551" unicode="&#x2512;" 
d="M887 756v-985h192v1058h-1079v-73h887z" />
    <glyph glyph-name="_533" unicode="&#x2513;" 
d="M0 891v-193h887v-927h192v1120h-1079z" />
    <glyph glyph-name="_524" unicode="&#x2514;" 
d="M924 733h1042v121h-922v965h-120v-1086z" />
    <glyph glyph-name="_556" unicode="&#x2515;" 
d="M1020 891v928h-76v-1121h1022v193h-946z" />
    <glyph glyph-name="_555" unicode="&#x2516;" 
d="M1079 829v990h-192v-1063h1079v73h-887z" />
    <glyph glyph-name="_535" unicode="&#x2517;" 
d="M887 1819v-1121h1079v193h-887v928h-192z" />
    <glyph glyph-name="_523" unicode="&#x2518;" 
d="M1044 1819h-120v-965h-924v-121h1044v1086z" />
    <glyph glyph-name="_554" unicode="&#x2519;" 
d="M944 891h-944v-193h1020v1121h-76v-928z" />
    <glyph glyph-name="_553" unicode="&#x251a;" 
d="M887 829h-887v-73h1079v1063h-192v-990z" />
    <glyph glyph-name="_534" unicode="&#x251b;" 
d="M887 1819v-928h-887v-193h1079v1121h-192z" />
    <glyph glyph-name="_525" unicode="&#x251c;" 
d="M924 1819v-2048h120v962h922v121h-922v965h-120z" />
    <glyph glyph-name="_546" unicode="&#x251d;" 
d="M1966 891h-946v928h-76v-2048h76v927h946v193z" />
    <glyph glyph-name="_559" unicode="&#x251e;" 
d="M887 1819v-1063h57v-985h76v985h946v73h-887v990h-192z" />
    <glyph glyph-name="_560" unicode="&#x251f;" 
d="M944 1819v-990h-57v-1058h192v985h887v73h-946v990h-76z" />
    <glyph glyph-name="_541" unicode="&#x2520;" 
d="M1966 829h-887v990h-192v-2048h192v985h887v73z" />
    <glyph glyph-name="_561" unicode="&#x2521;" 
d="M944 -229h76v927h946v193h-887v928h-192v-1121h57v-927z" />
    <glyph glyph-name="_562" unicode="&#x2522;" 
d="M887 -229h192v927h887v193h-946v928h-76v-928h-57v-1120z" />
    <glyph glyph-name="_536" unicode="&#x2523;" 
d="M887 1819v-2048h192v927h887v193h-887v928h-192z" />
    <glyph glyph-name="_527" unicode="&#x2524;" 
d="M1044 1819h-120v-965h-924v-121h924v-962h120v2048z" />
    <glyph glyph-name="_548" unicode="&#x2525;" 
d="M944 891h-944v-193h944v-927h76v2048h-76v-928z" />
    <glyph glyph-name="_563" unicode="&#x2526;" 
d="M887 1819v-990h-887v-73h944v-985h76v985h59v1063h-192z" />
    <glyph glyph-name="_564" unicode="&#x2527;" 
d="M0 829v-73h887v-985h192v1058h-59v990h-76v-990h-944z" />
    <glyph glyph-name="_543" unicode="&#x2528;" 
d="M1079 -229v2048h-192v-990h-887v-73h887v-985h192z" />
    <glyph glyph-name="_565" unicode="&#x2529;" 
d="M0 698h944v-927h76v927h59v1121h-192v-928h-887v-193z" />
    <glyph glyph-name="_566" unicode="&#x252a;" 
d="M0 698h887v-927h192v1120h-59v928h-76v-928h-944v-193z" />
    <glyph glyph-name="_538" unicode="&#x252b;" 
d="M0 698h887v-927h192v2048h-192v-928h-887v-193z" />
    <glyph glyph-name="_526" unicode="&#x252c;" 
d="M1966 854h-1966v-121h924v-962h120v962h922v121z" />
    <glyph glyph-name="_567" unicode="&#x252d;" 
d="M0 698h944v-927h76v985h946v73h-946v62h-1020v-193z" />
    <glyph glyph-name="_568" unicode="&#x252e;" 
d="M0 756h944v-985h76v927h946v193h-1022v-62h-944v-73z" />
    <glyph glyph-name="_542" unicode="&#x252f;" 
d="M1966 891h-1966v-193h944v-927h76v927h946v193z" />
    <glyph glyph-name="_547" unicode="&#x2530;" 
d="M1966 829h-1966v-73h887v-985h192v985h887v73z" />
    <glyph glyph-name="_569" unicode="&#x2531;" 
d="M0 698h887v-927h192v985h887v73h-887v62h-1079v-193z" />
    <glyph glyph-name="_570" unicode="&#x2532;" 
d="M0 756h887v-985h192v927h887v193h-1079v-62h-887v-73z" />
    <glyph glyph-name="_537" unicode="&#x2533;" 
d="M0 698h887v-927h192v927h887v193h-1966v-193z" />
    <glyph glyph-name="_528" unicode="&#x2534;" 
d="M1966 733v121h-922v965h-120v-965h-924v-121h1966z" />
    <glyph glyph-name="_571" unicode="&#x2535;" 
d="M0 698h1020v58h946v73h-946v990h-76v-928h-944v-193z" />
    <glyph glyph-name="_572" unicode="&#x2536;" 
d="M0 756h944v-58h1022v193h-946v928h-76v-990h-944v-73z" />
    <glyph glyph-name="_544" unicode="&#x2537;" 
d="M944 891h-944v-193h1966v193h-946v928h-76v-928z" />
    <glyph glyph-name="_549" unicode="&#x2538;" 
d="M887 829h-887v-73h1966v73h-887v990h-192v-990z" />
    <glyph glyph-name="_573" unicode="&#x2539;" 
d="M0 698h1079v58h887v73h-887v990h-192v-928h-887v-193z" />
    <glyph glyph-name="_574" unicode="&#x253a;" 
d="M0 756h887v-58h1079v193h-887v928h-192v-990h-887v-73z" />
    <glyph glyph-name="_539" unicode="&#x253b;" 
d="M887 891h-887v-193h1966v193h-887v928h-192v-928z" />
    <glyph glyph-name="_529" unicode="&#x253c;" 
d="M924 1819v-965h-924v-121h924v-962h120v962h922v121h-922v965h-120z" />
    <glyph glyph-name="_575" unicode="&#x253d;" 
d="M0 698h944v-927h76v985h946v73h-946v990h-76v-928h-944v-193z" />
    <glyph glyph-name="_576" unicode="&#x253e;" 
d="M1020 1819h-76v-990h-944v-73h944v-985h76v927h946v193h-946v928z" />
    <glyph glyph-name="_545" unicode="&#x253f;" 
d="M944 891h-944v-193h944v-927h76v927h946v193h-946v928h-76v-928z" />
    <glyph glyph-name="_577" unicode="&#x2540;" 
d="M1079 1819h-192v-990h-887v-73h944v-985h76v985h946v73h-887v990z" />
    <glyph glyph-name="_578" unicode="&#x2541;" 
d="M1020 1819h-76v-990h-944v-73h887v-985h192v985h887v73h-946v990z" />
    <glyph glyph-name="_550" unicode="&#x2542;" 
d="M887 829h-887v-73h887v-985h192v985h887v73h-887v990h-192v-990z" />
    <glyph glyph-name="_579" unicode="&#x2543;" 
d="M1079 1819h-192v-928h-887v-193h944v-927h76v927h59v58h887v73h-887v990z" />
    <glyph glyph-name="_580" unicode="&#x2544;" 
d="M1020 -229v927h946v193h-887v928h-192v-990h-887v-73h887v-58h57v-927h76z" />
    <glyph glyph-name="_581" unicode="&#x2545;" 
d="M1020 1819h-76v-928h-944v-193h887v-927h192v985h887v73h-887v62h-59v928z" />
    <glyph glyph-name="_582" unicode="&#x2546;" 
d="M1020 1819h-76v-928h-57v-62h-887v-73h887v-985h192v925h887v195h-946v928z" />
    <glyph glyph-name="_583" unicode="&#x2547;" 
d="M1079 1819h-192v-928h-887v-193h944v-927h76v927h946v193h-887v928z" />
    <glyph glyph-name="_584" unicode="&#x2548;" 
d="M1020 1819h-76v-928h-944v-193h887v-927h192v927h887v193h-946v928z" />
    <glyph glyph-name="_585" unicode="&#x2549;" 
d="M1079 1819h-192v-928h-887v-193h887v-927h192v985h887v73h-887v990z" />
    <glyph glyph-name="_586" unicode="&#x254a;" 
d="M1079 1819h-192v-990h-887v-73h887v-985h192v927h887v193h-887v928z" />
    <glyph glyph-name="_540" unicode="&#x254b;" 
d="M887 891h-887v-193h887v-927h192v927h887v193h-887v928h-192v-928z" />
    <glyph glyph-name="_232" unicode="&#x2592;" 
d="M934 158h90v92h-90v-92zM1333 250v-92h84v92h-84zM1221 158v92h-88v-92h88zM627 158v92h-84v-92h84zM430 158v92h-88v-92h88zM823 158v92h-86v-92h86zM1528 250v-92h88v92h-88zM934 362h90v89h-90v-89zM1333 451v-89h84v89h-84zM1221 362v89h-88v-89h88zM627 362v89h-84
v-89h84zM430 362v89h-88v-89h88zM823 362v89h-86v-89h86zM1528 451v-89h88v89h-88zM934 561h90v90h-90v-90zM1333 651v-90h84v90h-84zM1221 561v90h-88v-90h88zM627 561v90h-84v-90h84zM430 561v90h-88v-90h88zM823 561v90h-86v-90h86zM1528 651v-90h88v90h-88zM934 762h90
v94h-90v-94zM1333 856v-94h84v94h-84zM1221 762v94h-88v-94h88zM627 762v94h-84v-94h84zM430 762v94h-88v-94h88zM823 762v94h-86v-94h86zM1528 856v-94h88v94h-88zM934 967h90v90h-90v-90zM1333 1057v-90h84v90h-84zM1221 967v90h-88v-90h88zM627 967v90h-84v-90h84z
M430 967v90h-88v-90h88zM823 967v90h-86v-90h86zM1528 1057v-90h88v90h-88zM934 1167h90v90h-90v-90zM1333 1257v-90h84v90h-84zM1221 1167v90h-88v-90h88zM627 1167v90h-84v-90h84zM430 1167v90h-88v-90h88zM823 1167v90h-86v-90h86zM1528 1257v-90h88v90h-88zM934 1368h90
v92h-90v-92zM1333 1460v-92h84v92h-84zM1221 1368v92h-88v-92h88zM627 1368v92h-84v-92h84zM430 1368v92h-88v-92h88zM823 1368v92h-86v-92h86zM1528 1460v-92h88v92h-88zM1778 25v1574h-1590v-1574h1590zM266 88v1442h1430v-1442h-1430z" />
    <glyph glyph-name="_165" unicode="&#x25a0;" 
d="M1749 43v1520h-1534v-1520h1534z" />
    <glyph glyph-name="_164" unicode="&#x25a1;" 
d="M1749 43v1520h-1534v-1520h1534zM334 152v1302h1298v-1302h-1298z" />
    <glyph glyph-name="_229" unicode="&#x25a3;" 
d="M1264 520v565h-564v-565h564zM1749 43v1520h-1534v-1520h1534zM334 152v1302h1298v-1302h-1298z" />
    <glyph glyph-name="_233" unicode="&#x25a4;" 
d="M1778 25v1574h-1590v-1574h1590zM1696 248v-160h-1430v160h1430zM1696 461v-162h-1430v162h1430zM1696 672v-160h-1430v160h1430zM1696 891v-166h-1430v166h1430zM1696 1102v-160h-1430v160h1430zM1696 1321v-166h-1430v166h1430zM1696 1530v-158h-1430v158h1430z" />
    <glyph glyph-name="_234" unicode="&#x25a5;" 
d="M1778 1599h-1590v-1574h1590v1574zM1544 1524h160v-1428h-160v1428zM1329 1524h162v-1428h-162v1428zM1114 1524h162v-1428h-162v1428zM901 1524h160v-1428h-160v1428zM686 1524h162v-1428h-162v1428zM467 1524h166v-1428h-166v1428zM256 1524h158v-1428h-158v1428z" />
    <glyph glyph-name="_237" unicode="&#x25a6;" 
d="M1778 25v1574h-1590v-1574h1590zM465 893h168v-166h-168v166zM465 1323h168v-166h-168v166zM465 1104h168v-160h-168v160zM684 893h164v-166h-164v166zM684 1323h164v-166h-164v166zM465 461h168v-160h-168v160zM1116 893h162v-166h-162v166zM465 674h168v-160h-168v160z
M1116 1323h162v-166h-162v166zM1331 893h164v-166h-164v166zM1331 1323h164v-166h-164v166zM465 248h168v-160h-168v160zM1548 727v166h160v-166h-160zM1548 1157v166h160v-166h-160zM901 893h162v-166h-162v166zM901 1323h162v-166h-162v166zM684 1104h164v-160h-164v160z
M633 1374h-168v158h168v-158zM1116 1104h162v-160h-162v160zM1331 1104h164v-160h-164v160zM684 461h164v-160h-164v160zM684 674h164v-160h-164v160zM412 893v-166h-160v166h160zM412 1323v-166h-160v166h160zM1116 461h162v-160h-162v160zM1116 674h162v-160h-162v160z
M1331 461h164v-160h-164v160zM1331 674h164v-160h-164v160zM684 248h164v-160h-164v160zM1548 944v160h160v-160h-160zM901 1104h162v-160h-162v160zM1116 248h162v-160h-162v160zM1548 301v160h160v-160h-160zM1548 514v160h160v-160h-160zM1331 248h164v-160h-164v160z
M901 461h162v-160h-162v160zM901 674h162v-160h-162v160zM848 1374h-164v158h164v-158zM901 248h162v-160h-162v160zM1548 248h160v-160h-160v160zM1278 1374h-162v158h162v-158zM1495 1374h-164v158h164v-158zM412 1104v-160h-160v160h160zM412 674v-160h-160v160h160z
M412 461v-160h-160v160h160zM1063 1374h-162v158h162v-158zM1708 1532v-158h-160v158h160zM412 248v-160h-160v160h160zM412 1532v-158h-160v158h160z" />
    <glyph glyph-name="_236" unicode="&#x25a7;" 
d="M188 25h1590v1574h-1590v-1574zM1702 129l-1399 1399h201l1198 -1196v-203zM1464 92l-1200 1200v197l1397 -1397h-197zM1702 412l-1118 1116h207l911 -910v-206zM1180 92l-916 914v206l1120 -1120h-204zM889 92l-625 625v209l834 -834h-209zM1696 696l-830 832h209
l621 -621v-211zM600 92l-336 336v209l545 -545h-209zM1696 987l-541 541h209l332 -332v-209zM264 92v254l254 -254h-254zM1696 1276l-250 252h250v-252z" />
    <glyph glyph-name="_235" unicode="&#x25a8;" 
d="M1778 1599h-1590v-1574h1590v1574zM260 332l1198 1196h201l-1399 -1399v203zM301 92l1397 1397v-197l-1202 -1200h-195zM260 618l911 910h207l-1118 -1116v206zM578 92l1120 1120v-206l-918 -914h-202zM862 92l836 834v-209l-627 -625h-209zM264 907l623 621h209
l-832 -832v211zM1151 92l547 545v-209l-336 -336h-211zM264 1196l334 332h209l-543 -541v209zM1444 92l254 254v-254h-254zM264 1528h252l-252 -252v252z" />
    <glyph glyph-name="_238" unicode="&#x25a9;" 
d="M1778 1599h-1590v-1574h1590v1574zM418 1059l106 -105l-104 -104l-105 106zM1546 1059l105 -103l-107 -104l-102 102zM1020 1374l104 105l105 -103l-105 -104zM418 774l102 -104l-104 -105l-103 105zM1548 774l105 -104l-105 -105l-104 105zM840 1479l104 -105l-102 -102
l-105 104zM561 918l103 -105l-103 -102l-104 102zM983 1337l102 -102l-102 -102l-104 102zM1548 485l105 -104l-101 -100l-106 104zM1300 813l105 105l102 -103l-104 -104zM735 248l105 104l102 -102l-104 -103zM457 526l104 105l101 -103l-105 -104zM311 381l105 104
l102 -100l-104 -104zM696 1337l105 -106l-101 -101l-104 107zM1126 352l103 -104l-101 -101l-104 103zM1163 1231l105 104l100 -100l-104 -105zM1309 1376l104 105l100 -101l-104 -104zM881 393l102 103l102 -103l-102 -102zM1403 629l104 -103l-100 -100l-104 102z
M553 1481l102 -105l-100 -100l-104 104zM1024 1092l102 102l101 -100l-103 -103zM838 1194l104 -102l-100 -101l-105 103zM557 1198l105 -106l-99 -99l-104 107zM602 670l103 102l100 -100l-103 -103zM1260 772l102 -102l-100 -101l-103 103zM412 1341l104 -104l-98 -98
l-105 104zM1448 1237l104 104l99 -98l-105 -104zM1407 346l106 -104l-98 -99l-104 107zM1303 1092l104 104l98 -96l-104 -105zM698 1055l105 -103l-98 -98l-105 102zM453 242l104 104l96 -98l-104 -105zM596 385l104 104l99 -96l-105 -104zM983 1051l100 -101l-100 -100
l-100 100zM1163 952l103 103l98 -97l-104 -104zM1264 489l104 -102l-98 -98l-103 104zM1120 633l103 -103l-97 -96l-102 103zM741 530l103 103l98 -96l-102 -103zM844 911l100 -100l-98 -98l-101 100zM1022 811l100 100l97 -98l-101 -100zM885 674l98 98l96 -98l-96 -96z
M893 92l-14 14l104 103l104 -103l-14 -14h-180zM1184 92l-17 14l103 103l104 -107l-10 -10h-180zM602 92l-12 10l104 105l103 -101l-15 -14h-180zM1690 707l-105 104l105 104l10 -8v-190zM266 907l8 8l107 -104l-105 -104l-10 10v190zM889 1528h188l10 -10l-104 -105
l-104 105zM266 1196l8 8l105 -104l-105 -105l-8 11v190zM1690 995l-103 105l105 104l8 -8v-190zM1174 1528h192l6 -8l-104 -105l-103 105zM600 1528h193l8 -8l-105 -103l-104 103zM266 428v195l6 6l105 -103l-105 -104zM1694 422l-105 104l103 103l8 -6v-195zM1468 92
l-12 10l98 99l109 -109h-195zM303 92l109 109l96 -99l-10 -10h-195zM266 336l4 4l103 -100l-107 -107v203zM1694 340l6 -4v-203l-107 107zM1460 1528h201l-107 -107l-100 101zM506 1528l6 -6l-100 -101l-107 107h201zM1700 1489v-197l-8 -8l-99 98zM266 1489l107 -107
l-99 -98l-8 8v197z" />
    <glyph glyph-name="_8736" unicode="&#x25b1;" 
d="M266 350l232 936h1202l-234 -936h-1200zM559 1212l-199 -784h1045l199 784h-1045z" />
    <glyph glyph-name="_167" unicode="&#x25b2;" 
d="M983 1647l-917 -1590h1835z" />
    <glyph glyph-name="_166" unicode="&#x25b3;" 
d="M983 1647l-917 -1590h1835zM983 1427l727 -1263h-1454z" />
    <glyph glyph-name="_8780" unicode="&#x25b5;" 
d="M248 238l737 1247l731 -1247h-1468zM1413 412l-428 729l-434 -729h862z" />
    <glyph glyph-name="_220" unicode="&#x25b6;" 
d="M250 1722v-1835l1589 918z" />
    <glyph glyph-name="_219" unicode="&#x25b7;" 
d="M250 1722v-1835l1589 918zM371 78v1452l1255 -725z" />
    <glyph glyph-name="_8781" unicode="&#x25b9;" 
d="M356 1532l1252 -731l-1252 -733v1464zM530 371l732 430l-732 428v-858z" />
    <glyph glyph-name="_169" unicode="&#x25bc;" 
d="M1901 1565h-1835l917 -1590z" />
    <glyph glyph-name="_168" unicode="&#x25bd;" 
d="M1901 1565h-1835l917 -1590zM256 1460h1454l-727 -1265z" />
    <glyph glyph-name="_8779" unicode="&#x25bf;" 
d="M1716 1360l-731 -1245l-737 1245h1468zM551 1188l434 -729l428 729h-862z" />
    <glyph glyph-name="_218" unicode="&#x25c0;" 
d="M127 805l1589 -918v1835z" />
    <glyph glyph-name="_217" unicode="&#x25c1;" 
d="M127 805l1589 -918v1835zM340 805l1255 725v-1452z" />
    <glyph glyph-name="_8782" unicode="&#x25c3;" 
d="M1608 68l-1252 733l1252 731v-1464zM1434 1229l-732 -428l732 -430v858z" />
    <glyph glyph-name="_163" unicode="&#x25c6;" 
d="M983 1774l-942 -973l942 -971l942 971z" />
    <glyph glyph-name="_162" unicode="&#x25c7;" 
d="M983 1774l-942 -973l942 -971l942 971zM983 1618l786 -817l-786 -813l-786 813z" />
    <glyph glyph-name="_228" unicode="&#x25c8;" 
d="M621 799l360 -369l360 369l-360 368zM983 1774l-942 -973l942 -971l942 971zM983 1618l786 -817l-786 -813l-786 813z" />
    <glyph glyph-name="_8787" unicode="&#x25ca;" 
d="M1702 801l-717 -848l-721 848l721 848zM455 801l530 -623l526 623l-526 622z" />
    </font>
</defs>
</svg>
