<?xml version="1.0" standalone="no"?>
<!DOCTYPE svg PUBLIC "-//W3C//DTD SVG 1.1//EN" "http://www.w3.org/Graphics/SVG/1.1/DTD/svg11.dtd" >
<svg xmlns="http://www.w3.org/2000/svg" xmlns:xlink="http://www.w3.org/1999/xlink" version="1.1">
<metadata>
Created by FontForge 20170731 at Fri Dec 10 02:38:44 2021
 By Aleksey,,,
Copyright (c) 2018 by S-Core Co., Ltd.. All rights reserved.
</metadata>
<defs>
<font id="S-CoreDream-6Bold" horiz-adv-x="1966" >
  <font-face 
    font-family="S-Core Dream 6 Bold"
    font-weight="600"
    font-stretch="normal"
    units-per-em="2048"
    panose-1="2 11 7 3 3 3 2 2 2 4"
    ascent="1638"
    descent="-410"
    x-height="1153"
    cap-height="1616"
    bbox="-72 -553 2533 2109"
    underline-thickness="102"
    underline-position="-307"
    unicode-range="U+0020-FFE6"
  />
<missing-glyph horiz-adv-x="602" 
 />
    <glyph glyph-name=".notdef" horiz-adv-x="602" 
 />
    <glyph glyph-name=".null" horiz-adv-x="0" 
 />
    <glyph glyph-name="nonmarkingreturn" horiz-adv-x="682" 
 />
    <glyph glyph-name="_1" unicode=" " horiz-adv-x="602" 
 />
    <glyph glyph-name="_2" unicode="!" horiz-adv-x="655" 
d="M184 -4v268h285v-268h-285zM213 453l-29 895v268h285v-268l-27 -895h-229z" />
    <glyph glyph-name="_3" unicode="&#x22;" horiz-adv-x="925" 
d="M524 1143v473h252v-473h-252zM150 1143v473h253v-473h-253z" />
    <glyph glyph-name="_4" unicode="#" horiz-adv-x="1538" 
d="M733 -4l90 418h-280l-90 -418h-258l90 418h-222v223h269l74 338h-263v221h310l92 420h260l-92 -420h280l92 420h258l-92 -420h222v-221h-271l-74 -338h267v-223h-314l-90 -418h-258zM664 975l-74 -338h282l74 338h-282z" />
    <glyph glyph-name="_5" unicode="$" horiz-adv-x="1314" 
d="M754 -27v-178h-191v180q-221 26 -345 154.5t-124 325.5v26h299v-35q0 -78 45 -134.5t125 -78.5v474q-7 2 -22.5 5t-22.5 5q-202 41 -313 157t-111 308q0 119 51.5 216t159 162.5t258.5 77.5v179h191v-183q136 -19 234.5 -85t146 -160t47.5 -205v-23h-301v23
q0 62 -34 112.5t-93 73.5v-424q243 -49 365 -164.5t122 -324.5q0 -201 -129.5 -331.5t-357.5 -152.5zM942 446q0 180 -188 224v-443q89 21 138.5 77.5t49.5 141.5zM393 1184q0 -80 41.5 -129t128.5 -72v399q-83 -17 -126.5 -69t-43.5 -129z" />
    <glyph glyph-name="_6" unicode="%" horiz-adv-x="1855" 
d="M713 -4h-234l664 1620h233zM791 1206q0 -438 -345 -438q-342 0 -342 438q0 217 86.5 328t255.5 111q170 0 257.5 -111t87.5 -328zM336 1206q0 -131 23.5 -186t86.5 -55q66 0 89.5 54.5t23.5 186.5q0 133 -25 187.5t-88 54.5q-61 0 -85.5 -54.5t-24.5 -187.5zM1063 406
q0 215 87 326.5t257 111.5q169 0 256.5 -111t87.5 -327q0 -218 -87.5 -328.5t-256.5 -110.5q-170 0 -257 112t-87 327zM1520 406q0 133 -25.5 187t-87.5 54q-63 0 -88 -53.5t-25 -187.5q0 -131 24.5 -186.5t88.5 -55.5t88.5 55.5t24.5 186.5z" />
    <glyph glyph-name="_7" unicode="&#x26;" horiz-adv-x="1507" 
d="M1083 805h287q-12 -301 -123 -500l271 -309h-347l-100 115q-156 -144 -432 -144q-250 0 -397.5 130t-147.5 347q0 297 283 455q-87 100 -125.5 186.5t-38.5 182.5q0 173 121.5 275t316.5 102t317 -102.5t122 -274.5v-58h-287v50q0 66 -40 104.5t-112 38.5
q-70 0 -110.5 -38.5t-40.5 -104.5q0 -108 108 -230l430 -491q36 102 45 266zM383 449q0 -117 75 -178.5t189 -61.5q163 0 254 94l-373 422q-145 -109 -145 -276z" />
    <glyph glyph-name="_8" unicode="'" horiz-adv-x="552" 
d="M150 1143v473h253v-473h-253z" />
    <glyph glyph-name="_9" unicode="(" horiz-adv-x="739" 
d="M150 797q0 218 15 382t47 279.5t75.5 191t108.5 118.5t136 60t168 17v-243q-49 0 -82 -9.5t-65.5 -38.5t-52.5 -83.5t-36 -143t-23 -219.5t-7 -311t7 -311t23 -220t36 -144t52.5 -84t65.5 -38.5t82 -9.5v-242q-72 0 -129 9t-111 31t-95 60t-77 95t-60.5 136t-42.5 183
t-26.5 237.5t-8.5 297.5z" />
    <glyph glyph-name="_10" unicode=")" horiz-adv-x="737" 
d="M588 797q0 -218 -15 -382.5t-47.5 -280t-76 -191.5t-108 -118.5t-135.5 -59.5t-167 -17v242q49 0 82 9.5t65 39t52 84t35.5 143.5t22.5 220t7 311q0 154 -5.5 272t-15.5 203.5t-27.5 144.5t-36.5 95.5t-49 56.5t-59 26.5t-71 6.5v243q96 0 167 -17t135.5 -60t108 -118.5
t76 -191t47.5 -279.5t15 -382z" />
    <glyph glyph-name="_11" unicode="*" horiz-adv-x="1171" 
d="M399 750l-331 153l125 219l299 -211l-31 365h250l-35 -367l303 213l125 -219l-334 -153l334 -154l-125 -219l-303 213l35 -367h-250l31 365l-299 -211l-125 219z" />
    <glyph glyph-name="_12" unicode="+" horiz-adv-x="1218" 
d="M94 633v231h385v412h260v-412h385v-231h-385v-410h-260v410h-385z" />
    <glyph glyph-name="_13" unicode="," horiz-adv-x="638" 
d="M473 303v-307q0 -121 -79.5 -197t-229.5 -80v134q153 6 153 143h-153v307h309z" />
    <glyph glyph-name="_14" unicode="-" horiz-adv-x="921" 
d="M94 627v245h733v-245h-733z" />
    <glyph glyph-name="_15" unicode="." horiz-adv-x="638" 
d="M473 303v-307h-309v307h309z" />
    <glyph glyph-name="_16" unicode="/" horiz-adv-x="1040" 
d="M1040 1808l-757 -2027h-283l760 2027h280z" />
    <glyph glyph-name="_17" unicode="0" horiz-adv-x="1277" 
d="M1188 807q0 -267 -42 -430t-132 -262q-133 -148 -375 -148q-244 0 -377 148q-90 99 -132 262t-42 430q0 264 42.5 427t131.5 263q136 148 377 148q239 0 375 -148q89 -100 131.5 -263t42.5 -427zM897 807q0 217 -18 333t-62 177q-67 82 -178 82q-114 0 -178 -82
q-45 -61 -63.5 -177t-18.5 -333q0 -220 18.5 -336.5t63.5 -175.5q63 -84 178 -84q112 0 178 84q44 60 62 176t18 336z" />
    <glyph glyph-name="_18" unicode="1" horiz-adv-x="1277" 
d="M909 -4h-291v1327l-362 -162v271l406 184h247v-1620z" />
    <glyph glyph-name="_19" unicode="2" horiz-adv-x="1277" 
d="M1145 1155q0 -122 -33.5 -202.5t-124.5 -184.5l-459 -528h639v-244h-1020v221l603 694q56 65 80 120.5t24 121.5q0 114 -58.5 180t-160.5 66t-160.5 -65.5t-58.5 -180.5v-49h-291v51q0 136 58.5 246t176 177t275.5 67q159 0 276.5 -67t175.5 -177t58 -246z" />
    <glyph glyph-name="_20" unicode="3" horiz-adv-x="1277" 
d="M98 455v32h293v-16q0 -122 68 -191t176 -69t176 69t68 191q0 125 -68.5 194.5t-183.5 69.5h-160v238h160q94 0 150.5 57t56.5 158q0 97 -55 154t-144 57q-90 0 -145.5 -57t-55.5 -154v-14h-287v36q0 191 131 313t357 122t355.5 -122t129.5 -313q0 -126 -65 -221.5
t-174 -132.5q137 -37 212.5 -140.5t75.5 -260.5q0 -222 -148 -355t-386 -133q-239 0 -388 133t-149 355z" />
    <glyph glyph-name="_21" unicode="4" horiz-adv-x="1277" 
d="M365 565h368v621zM1198 565v-243h-174v-326h-291v326h-653v243l625 1051h319v-1051h174z" />
    <glyph glyph-name="_22" unicode="5" horiz-adv-x="1277" 
d="M645 805q-122 0 -180 -98h-285l43 909h856v-244h-585l-23 -436q32 49 96.5 80t145.5 31q205 0 329.5 -139t124.5 -402q0 -254 -139 -396.5t-383 -142.5q-231 0 -368.5 125.5t-151.5 345.5h291q10 -111 70.5 -169t158.5 -58q110 0 171 75.5t61 221.5q0 145 -59.5 221
t-172.5 76z" />
    <glyph glyph-name="_23" unicode="6" horiz-adv-x="1277" 
d="M1147 1231h-295q-14 83 -63.5 127.5t-133.5 44.5q-127 0 -182.5 -120t-60.5 -382q36 68 110 107t176 39q213 0 347.5 -145t134.5 -394q0 -246 -149 -393.5t-382 -147.5q-266 0 -409 199q-70 97 -97.5 232.5t-27.5 338.5q0 481 127 694.5t413 213.5q205 0 335.5 -107
t156.5 -307zM889 508q0 140 -64.5 218.5t-177.5 78.5q-111 0 -175 -78.5t-64 -218.5q0 -139 64 -218t175 -79q113 0 177.5 79t64.5 218z" />
    <glyph glyph-name="_24" unicode="7" horiz-adv-x="1277" 
d="M129 1372v244h1018v-219l-524 -1401h-304l533 1376h-723z" />
    <glyph glyph-name="_25" unicode="8" horiz-adv-x="1277" 
d="M639 -33q-251 0 -405 132.5t-154 355.5q0 149 75 251t210 150q-106 40 -172 137.5t-66 216.5q0 190 138 312.5t374 122.5t373 -122.5t137 -312.5q0 -120 -65 -217t-171 -137q135 -48 210 -150t75 -251q0 -222 -154.5 -355t-404.5 -133zM639 1399q-101 0 -162 -58.5
t-61 -154.5t61 -154.5t162 -58.5t161 58.5t60 154.5t-60 154.5t-161 58.5zM639 737q-121 0 -194.5 -71t-73.5 -193q0 -121 73.5 -191.5t194.5 -70.5q120 0 193 71t73 191q0 122 -73 193t-193 71z" />
    <glyph glyph-name="_26" unicode="9" horiz-adv-x="1277" 
d="M131 381h297q12 -83 62 -128.5t135 -45.5q125 0 180.5 120t60.5 382q-35 -66 -109.5 -105t-176.5 -39q-211 0 -345.5 145t-134.5 392q0 248 148 395.5t381 147.5q268 0 411 -199q69 -95 97 -234.5t28 -339.5q0 -483 -128 -694t-414 -211q-204 0 -334.5 107t-157.5 307z
M391 1102q0 -139 63.5 -218t176.5 -79q112 0 175.5 78.5t63.5 218.5t-63.5 218.5t-175.5 78.5q-113 0 -176.5 -79t-63.5 -218z" />
    <glyph glyph-name="_27" unicode=":" horiz-adv-x="638" 
d="M473 303v-307h-309v307h309zM473 1153v-307h-309v307h309z" />
    <glyph glyph-name="_28" unicode=";" horiz-adv-x="638" 
d="M473 1153v-307h-309v307h309zM473 303v-307q0 -121 -79.5 -197t-229.5 -80v134q153 6 153 143h-153v307h309z" />
    <glyph glyph-name="_29" unicode="&#x3c;" horiz-adv-x="1210" 
d="M1102 473v-256l-993 420v225l993 422v-258l-690 -276z" />
    <glyph glyph-name="_30" unicode="=" horiz-adv-x="1218" 
d="M94 846v229h1030v-229h-1030zM94 424v229h1030v-229h-1030z" />
    <glyph glyph-name="_31" unicode="&#x3e;" horiz-adv-x="1210" 
d="M1102 862v-225l-993 -420v256l690 277l-690 276v258z" />
    <glyph glyph-name="_32" unicode="?" horiz-adv-x="1189" 
d="M387 1171h-283v13q0 206 129 333.5t359 127.5q227 0 356 -127.5t129 -333.5q0 -135 -46.5 -228t-151.5 -186q-92 -83 -125 -142.5t-33 -146.5v-59h-285v82q0 127 43 211.5t160 187.5q88 77 121 135.5t33 137.5q0 106 -55 164.5t-146 58.5q-93 0 -149 -61t-56 -167z
M436 -4v268h285v-268h-285z" />
    <glyph glyph-name="_33" unicode="@" horiz-adv-x="1697" 
d="M850 1430q-107 0 -181 -22.5t-132.5 -76.5t-92 -149.5t-50.5 -237.5t-17 -344q0 -209 19.5 -355.5t54.5 -239t95.5 -144.5t131 -71t172.5 -19q146 0 254 59l74 -195q-142 -77 -330 -77q-98 0 -178.5 13t-156 45.5t-133 85t-105.5 133t-79 188.5t-48 253t-17 324
q0 380 74.5 608.5t230.5 332.5t414 104t413.5 -104t229.5 -332t74 -607q0 -284 -126.5 -436t-359.5 -152q-231 0 -351 143.5t-120 391.5q0 260 113.5 397t308.5 137q211 0 275 -145q-27 272 -132.5 382t-324.5 110zM872 549q0 -160 53.5 -235.5t170.5 -75.5q118 0 171.5 75
t53.5 236q0 160 -54 235.5t-171 75.5q-116 0 -170 -76t-54 -235z" />
    <glyph glyph-name="_34" unicode="A" horiz-adv-x="1429" 
d="M328 -4h-310l525 1620h344l524 -1620h-309l-98 332h-580zM930 582l-215 737l-217 -737h432z" />
    <glyph glyph-name="_35" unicode="B" horiz-adv-x="1372" 
d="M786 -4h-655v1620h612q510 0 510 -438q0 -127 -62 -214t-173 -124q131 -32 206.5 -134t75.5 -245q0 -229 -128.5 -347t-385.5 -118zM999 475q0 121 -65.5 173t-206.5 52h-295v-448h295q141 0 206.5 51t65.5 172zM954 1157q0 112 -65 157.5t-201 45.5h-256v-406h256
q136 0 201 45.5t65 157.5z" />
    <glyph glyph-name="_36" unicode="C" horiz-adv-x="1445" 
d="M94 807q0 191 31.5 343t114.5 267q165 228 497 228q281 0 447 -157.5t178 -418.5h-299q-8 149 -92.5 233t-233.5 84q-173 0 -256 -122q-46 -68 -67 -173.5t-21 -283.5q0 -181 21 -286t67 -175q84 -123 256 -123q149 0 233.5 84.5t92.5 233.5h299q-12 -261 -178 -417.5
t-447 -156.5q-334 0 -497 226q-83 115 -114.5 268t-31.5 346z" />
    <glyph glyph-name="_37" unicode="D" horiz-adv-x="1447" 
d="M1055 807q0 213 -37.5 334t-112.5 170t-203 49h-270v-1108h270q97 0 161 26t108.5 89.5t64 170.5t19.5 269zM1354 807q0 -96 -6.5 -177t-24.5 -166t-47.5 -152t-78.5 -128t-113.5 -101t-155.5 -63.5t-203 -23.5h-594v1620h594q113 0 204.5 -24t156 -65t113 -102.5
t78 -128.5t47 -152t24 -164t6.5 -173z" />
    <glyph glyph-name="_38" unicode="E" horiz-adv-x="1212" 
d="M131 -4v1620h987v-256h-686v-408h602v-254h-602v-446h696v-256h-997z" />
    <glyph glyph-name="_39" unicode="F" horiz-adv-x="1163" 
d="M131 -4v1620h975v-256h-674v-430h602v-254h-602v-680h-301z" />
    <glyph glyph-name="_40" unicode="G" horiz-adv-x="1478" 
d="M94 807q0 838 643 838q281 0 447 -157.5t178 -418.5h-299q-8 149 -92.5 233t-233.5 84q-71 0 -123.5 -16.5t-95.5 -56.5t-69.5 -106t-41 -165.5t-14.5 -234.5q0 -224 39 -353.5t111.5 -180t193.5 -50.5q168 0 244.5 100.5t87.5 286.5h-321v240h612v-854h-215l-41 194
q-44 -101 -147 -162t-244 -61q-142 0 -251.5 47t-178 125t-112 189t-60.5 227.5t-17 251.5z" />
    <glyph glyph-name="_41" unicode="H" horiz-adv-x="1413" 
d="M981 -4v702h-549v-702h-301v1620h301v-664h549v664h301v-1620h-301z" />
    <glyph glyph-name="_42" unicode="I" horiz-adv-x="563" 
d="M432 1616v-1620h-301v1620h301z" />
    <glyph glyph-name="_43" unicode="J" horiz-adv-x="1218" 
d="M565 -33q-252 0 -390 136.5t-138 390.5v20h299q6 -154 64 -222.5t165 -68.5q112 0 171 73.5t59 240.5v1079h299v-1122q0 -254 -138 -390.5t-391 -136.5z" />
    <glyph glyph-name="_44" unicode="K" horiz-adv-x="1366" 
d="M1305 1616l-478 -789l545 -831h-330l-456 702h-154v-702h-301v1620h301v-664h154l393 664h326z" />
    <glyph glyph-name="_45" unicode="L" horiz-adv-x="1159" 
d="M131 -4v1620h301v-1364h696v-256h-997z" />
    <glyph glyph-name="_46" unicode="M" horiz-adv-x="1898" 
d="M1081 -4h-264l-393 1028v-1028h-293v1620h320l499 -1301l498 1301h319v-1620h-292v1028z" />
    <glyph glyph-name="_47" unicode="N" horiz-adv-x="1435" 
d="M997 -4l-569 1100v-1100h-297v1620h307l570 -1102v1102h297v-1620h-308z" />
    <glyph glyph-name="_48" unicode="O" horiz-adv-x="1472" 
d="M1378 807q0 -194 -31 -346.5t-114 -267.5q-163 -226 -496 -226q-334 0 -497 226q-83 115 -114.5 268t-31.5 346q0 191 31.5 343t114.5 267q165 228 497 228q331 0 496 -228q83 -115 114 -266.5t31 -343.5zM1079 807q0 180 -20.5 285t-67.5 172q-83 122 -254 122
q-173 0 -256 -122q-46 -68 -67 -173.5t-21 -283.5q0 -181 21 -286t67 -175q84 -123 256 -123q170 0 254 123q47 69 67.5 174t20.5 287z" />
    <glyph glyph-name="_49" unicode="P" horiz-adv-x="1355" 
d="M778 584h-346v-588h-301v1620h647q245 0 382.5 -135.5t137.5 -380.5q0 -246 -137 -381t-383 -135zM432 840h305q130 0 196 66.5t66 193.5t-66 193.5t-196 66.5h-305v-520z" />
    <glyph glyph-name="_50" unicode="Q" horiz-adv-x="1486" 
d="M1378 807q0 -358 -106 -553l182 -154l-156 -180l-182 156q-146 -109 -379 -109q-334 0 -497 226q-83 115 -114.5 268t-31.5 346q0 191 31.5 343t114.5 267q165 228 497 228q331 0 496 -228q83 -115 114 -266.5t31 -343.5zM1079 807q0 180 -20.5 285t-67.5 172
q-83 122 -254 122q-173 0 -256 -122q-46 -68 -67 -173.5t-21 -283.5q0 -181 21 -286t67 -175q84 -123 256 -123q98 0 162 37l-192 166l155 178l180 -153q37 121 37 356z" />
    <glyph glyph-name="_51" unicode="R" horiz-adv-x="1398" 
d="M987 139l-12 209q-6 126 -67.5 181t-196.5 55h-279v-588h-301v1620h649q253 0 386.5 -129.5t133.5 -366.5q0 -324 -282 -407q126 -20 185.5 -101.5t68.5 -242.5l14 -226q6 -85 29 -147h-303q-22 55 -25 143zM432 840h299q130 0 199 61.5t69 198.5t-69 198.5t-199 61.5
h-299v-520z" />
    <glyph glyph-name="_52" unicode="S" horiz-adv-x="1314" 
d="M1241 457q0 -219 -153 -354.5t-420 -135.5q-266 0 -420 134.5t-154 353.5v26h299v-35q0 -102 74.5 -164.5t200.5 -62.5t200 62.5t74 164.5q0 90 -57 149.5t-170 82.5l-197 41q-203 41 -313.5 156t-110.5 307q0 96 35 179t101.5 147t171 100.5t235.5 36.5q130 0 235.5 -37
t172 -100.5t102 -146.5t35.5 -177v-23h-301v23q0 93 -64 150t-180 57q-117 0 -180.5 -57t-63.5 -150q0 -89 54.5 -138.5t173.5 -74.5l194 -41q206 -42 316 -161.5t110 -311.5z" />
    <glyph glyph-name="_53" unicode="T" horiz-adv-x="1234" 
d="M29 1360v256h1177v-256h-438v-1364h-301v1364h-438z" />
    <glyph glyph-name="_54" unicode="U" horiz-adv-x="1464" 
d="M731 -33q-200 0 -338.5 79t-205 218t-66.5 330v1022h301v-991q0 -202 75.5 -302t233.5 -100q160 0 235.5 100t75.5 302v991h299v-1022q0 -291 -155 -459t-455 -168z" />
    <glyph glyph-name="_55" unicode="V" horiz-adv-x="1429" 
d="M715 338l387 1278h309l-524 -1620h-344l-525 1620h310z" />
    <glyph glyph-name="_56" unicode="W" horiz-adv-x="2193" 
d="M1245 1616l314 -1237l299 1237h307l-420 -1620h-346l-301 1175l-301 -1175h-346l-422 1620h307l299 -1237l315 1237h295z" />
    <glyph glyph-name="_57" unicode="X" horiz-adv-x="1406" 
d="M354 -4h-325l485 838l-451 782h326l316 -578l313 578h325l-452 -782l487 -838h-325l-348 629z" />
    <glyph glyph-name="_58" unicode="Y" horiz-adv-x="1400" 
d="M698 895l359 721h315l-522 -981v-639h-299v639l-522 981h313z" />
    <glyph glyph-name="_59" unicode="Z" horiz-adv-x="1230" 
d="M76 227l706 1133h-684v256h1047v-234l-707 -1130h717v-256h-1079v231z" />
    <glyph glyph-name="_60" unicode="[" horiz-adv-x="759" 
d="M150 -219v2027h534v-239h-250v-1549h250v-239h-534z" />
    <glyph glyph-name="_61" unicode="\" 
d="M1133 1616h-295l-156 -731h-209l-147 731h-308l168 -731h-153v-142h184l172 -747h346l160 747h180l160 -747h346l170 747h182v142h-149l166 731h-308l-147 -731h-207zM1319 743h147l-71 -360zM1044 885h-118l59 278zM502 743h149l-78 -360z" />
    <glyph glyph-name="_62" unicode="]" horiz-adv-x="759" 
d="M610 1808v-2027h-534v239h250v1549h-250v239h534z" />
    <glyph glyph-name="_63" unicode="^" horiz-adv-x="999" 
d="M379 1616h242l340 -543h-275l-186 307l-187 -307h-274z" />
    <glyph glyph-name="_64" unicode="_" horiz-adv-x="1157" 
d="M0 -401v165h1157v-165h-1157z" />
    <glyph glyph-name="_65" unicode="`" horiz-adv-x="831" 
d="M436 1313l-289 373h316l221 -373h-248z" />
    <glyph glyph-name="_66" unicode="a" horiz-adv-x="1206" 
d="M809 125q-27 -70 -110 -114t-205 -44q-194 0 -307 97t-113 270t112.5 270.5t307.5 97.5q113 0 199 -41t116 -116v198q0 209 -207 209q-181 0 -199 -147h-286q14 174 138 275.5t347 101.5q242 0 367 -118t125 -321v-585q0 -99 26 -162h-291q-16 39 -20 129zM584 174
q225 0 225 160q0 162 -225 162q-226 0 -226 -162q0 -160 226 -160z" />
    <glyph glyph-name="_67" unicode="b" horiz-adv-x="1245" 
d="M397 174v-178h-284v1620h284v-641q31 95 115.5 151t202.5 56q212 0 331 -151t119 -456q0 -306 -118.5 -457t-331.5 -151q-118 0 -202.5 56t-115.5 151zM639 197q131 0 186.5 94.5t55.5 283.5q0 187 -55.5 281t-186.5 94t-186.5 -94t-55.5 -281q0 -189 55.5 -283.5
t186.5 -94.5z" />
    <glyph glyph-name="_68" unicode="c" horiz-adv-x="1183" 
d="M78 575q0 290 133 448.5t393 158.5q225 0 358 -109t152 -309h-285q-9 89 -67 137.5t-158 48.5q-131 0 -186.5 -94t-55.5 -281q0 -189 55.5 -283.5t186.5 -94.5q100 0 158 49t67 139h285q-19 -200 -152 -309t-358 -109q-261 0 -393.5 157.5t-132.5 450.5z" />
    <glyph glyph-name="_69" unicode="d" horiz-adv-x="1243" 
d="M846 -4v178q-31 -95 -115.5 -151t-202.5 -56q-213 0 -331.5 151t-118.5 457q0 305 119 456t331 151q118 0 202.5 -56t115.5 -151v641h284v-1620h-284zM604 197q132 0 187 94t55 284q0 188 -55 281.5t-187 93.5q-131 0 -186.5 -94t-55.5 -281q0 -189 55.5 -283.5
t186.5 -94.5z" />
    <glyph glyph-name="_70" unicode="e" horiz-adv-x="1208" 
d="M1130 492h-765q9 -299 239 -299q87 0 143.5 40.5t69.5 114.5h289q-29 -183 -160 -282t-342 -99q-261 0 -393.5 157.5t-132.5 450.5q0 290 133 448.5t393 158.5q261 0 393.5 -158t132.5 -449v-83zM604 956q-222 0 -235 -268h473q-19 268 -238 268z" />
    <glyph glyph-name="_71" unicode="f" horiz-adv-x="823" 
d="M784 1403h-118q-91 0 -125.5 -31.5t-34.5 -107.5v-111h278v-229h-278v-928h-285v928h-166v229h166v125q0 191 94 272.5t308 81.5q102 0 161 -12v-217z" />
    <glyph glyph-name="_72" unicode="g" horiz-adv-x="1243" 
d="M846 575q0 188 -55 281.5t-187 93.5t-187 -93.5t-55 -281.5q0 -190 55 -284t187 -94t187 94t55 284zM1130 1153v-1196q0 -85 -18 -159t-57 -137t-97 -107.5t-142.5 -69.5t-188.5 -25q-213 0 -341 95.5t-151 265.5h289q9 -73 62 -110.5t143 -37.5q217 0 217 262v240
q-31 -95 -115.5 -151t-202.5 -56q-213 0 -331.5 151t-118.5 457q0 305 119 456t331 151q118 0 202.5 -56t115.5 -151v178h284z" />
    <glyph glyph-name="_73" unicode="h" horiz-adv-x="1224" 
d="M1116 725v-729h-285v725q0 229 -182 229q-114 0 -183 -80t-69 -227v-647h-284v1620h284v-660q33 103 119.5 164.5t208.5 61.5q189 0 290 -118t101 -339z" />
    <glyph glyph-name="_74" unicode="i" horiz-adv-x="528" 
d="M121 1352v264h285v-264h-285zM121 -4v1157h285v-1157h-285z" />
    <glyph glyph-name="_75" unicode="j" horiz-adv-x="567" 
d="M160 -117v1270h284v-1300q0 -178 -100 -269.5t-295 -91.5q-78 0 -121 6v223h86q74 0 110 39.5t36 122.5zM160 1352v264h284v-264h-284z" />
    <glyph glyph-name="_76" unicode="k" horiz-adv-x="1136" 
d="M113 -4v1620h284v-909h103l270 446h305l-346 -555l397 -602h-313l-315 493h-101v-493h-284z" />
    <glyph glyph-name="_77" unicode="l" horiz-adv-x="528" 
d="M406 -4h-285v1620h285v-1620z" />
    <glyph glyph-name="_78" unicode="m" horiz-adv-x="1904" 
d="M1098 643v-647h-285v741q0 213 -174 213q-112 0 -177 -79.5t-65 -227.5v-647h-284v1157h284v-197q33 105 114.5 165.5t203.5 60.5q128 0 218 -60t130 -172q103 232 352 232q184 0 283.5 -118.5t99.5 -338.5v-729h-285v741q0 213 -174 213q-112 0 -176.5 -79.5
t-64.5 -227.5z" />
    <glyph glyph-name="_79" unicode="n" horiz-adv-x="1224" 
d="M1116 725v-729h-285v725q0 229 -182 229q-114 0 -183 -80t-69 -227v-647h-284v1157h284v-197q33 103 119.5 164.5t208.5 61.5q189 0 290 -118t101 -339z" />
    <glyph glyph-name="_80" unicode="o" horiz-adv-x="1208" 
d="M1130 575q0 -293 -132 -450.5t-394 -157.5q-261 0 -393.5 157.5t-132.5 450.5q0 290 133 448.5t393 158.5q261 0 393.5 -158t132.5 -449zM362 575q0 -189 55.5 -283.5t186.5 -94.5q132 0 187 94t55 284q0 188 -55 281.5t-187 93.5q-131 0 -186.5 -94t-55.5 -281z" />
    <glyph glyph-name="_81" unicode="p" horiz-adv-x="1245" 
d="M397 1153v-178q31 95 115.5 151t202.5 56q212 0 331 -151t119 -456q0 -306 -118.5 -457t-331.5 -151q-118 0 -202.5 56t-115.5 151v-682h-284v1661h284zM639 197q131 0 186.5 94.5t55.5 283.5q0 187 -55.5 281t-186.5 94t-186.5 -94t-55.5 -281q0 -189 55.5 -283.5
t186.5 -94.5z" />
    <glyph glyph-name="_82" unicode="q" horiz-adv-x="1243" 
d="M846 975v178h284v-1661h-284v682q-31 -95 -115.5 -151t-202.5 -56q-213 0 -331.5 151t-118.5 457q0 305 119 456t331 151q118 0 202.5 -56t115.5 -151zM604 197q132 0 187 94t55 284q0 188 -55 281.5t-187 93.5q-131 0 -186.5 -94t-55.5 -281q0 -189 55.5 -283.5
t186.5 -94.5z" />
    <glyph glyph-name="_83" unicode="r" horiz-adv-x="827" 
d="M696 944q-144 0 -221.5 -90.5t-77.5 -263.5v-594h-284v1157h284v-209q30 120 105 179t205 59q46 0 92 -11l-4 -231q-36 4 -99 4z" />
    <glyph glyph-name="_84" unicode="s" horiz-adv-x="1095" 
d="M82 326v28h285v-32q0 -64 50.5 -102t135.5 -38q87 0 136.5 37.5t49.5 99.5q0 61 -34.5 94t-120.5 50l-117 20q-195 34 -288 117.5t-93 230.5q0 154 121.5 252.5t324.5 98.5q208 0 327.5 -94.5t119.5 -251.5v-23h-285v23q0 57 -41.5 93t-120.5 36q-76 0 -117.5 -34.5
t-41.5 -88.5q0 -58 36.5 -88t122.5 -45l119 -21q201 -35 287 -120t86 -242q0 -156 -128.5 -257.5t-342.5 -101.5q-217 0 -344 101t-127 258z" />
    <glyph glyph-name="_85" unicode="t" horiz-adv-x="862" 
d="M498 924v-555q0 -97 37.5 -129.5t144.5 -32.5h117v-221q-55 -6 -174 -6q-223 0 -317.5 75.5t-94.5 263.5v605h-164v229h164v328h287v-328h299v-229h-299z" />
    <glyph glyph-name="_86" unicode="u" horiz-adv-x="1224" 
d="M109 422v731h282v-727q0 -229 184 -229q113 0 182.5 80.5t69.5 226.5v649h285v-1157h-285v197q-33 -103 -119 -164.5t-208 -61.5q-189 0 -290 117.5t-101 337.5z" />
    <glyph glyph-name="_87" unicode="v" horiz-adv-x="1198" 
d="M760 -4h-320l-411 1157h295l276 -868l274 868h295z" />
    <glyph glyph-name="_88" unicode="w" horiz-adv-x="1869" 
d="M803 1153h264l248 -842l237 842h289l-368 -1157h-293l-244 842l-246 -842h-293l-368 1157h288l238 -842z" />
    <glyph glyph-name="_89" unicode="x" horiz-adv-x="1126" 
d="M563 408l-239 -412h-304l369 594l-344 563h303l215 -381l215 381h305l-346 -563l369 -594h-303z" />
    <glyph glyph-name="_90" unicode="y" horiz-adv-x="1202" 
d="M414 -156l51 148l-436 1161h295l280 -817l273 817h297l-494 -1368q-32 -90 -68.5 -147t-85 -89.5t-103 -44.5t-132.5 -12q-86 0 -119 4v223h86q57 0 94 27t62 98z" />
    <glyph glyph-name="_91" unicode="z" horiz-adv-x="1038" 
d="M954 1153v-207l-534 -721h551v-229h-905v205l534 723h-516v229h870z" />
    <glyph glyph-name="_92" unicode="{" horiz-adv-x="806" 
d="M260 162v350q0 76 -34 119t-103 43h-47v239h47q69 0 103 43.5t34 118.5v314q0 223 85.5 321t297.5 98h88v-239h-47q-68 0 -103.5 -43t-35.5 -119v-367q0 -196 -168 -245q168 -49 168 -246v-367q0 -77 35.5 -119.5t103.5 -42.5h47v-239h-88q-201 0 -292 91.5t-91 289.5z
" />
    <glyph glyph-name="_93" unicode="|" horiz-adv-x="657" 
d="M186 -219v2027h285v-2027h-285z" />
    <glyph glyph-name="_94" unicode="}" horiz-adv-x="806" 
d="M545 512v-350q0 -199 -90.5 -290t-290.5 -91h-88v239h47q68 0 102.5 42t34.5 120v367q0 197 170 246q-170 49 -170 245v367q0 77 -34.5 119.5t-102.5 42.5h-47v239h88q200 0 290.5 -91t90.5 -290v-352q0 -75 34.5 -118.5t104.5 -43.5h47v-239h-47q-69 0 -104 -43
t-35 -119z" />
    <glyph glyph-name="_95" unicode="~" horiz-adv-x="1210" 
d="M403 934q67 0 123.5 -20t87.5 -43.5t68 -43.5t70 -20q85 0 88 115h262q-2 -161 -76.5 -258t-220.5 -97q-55 0 -101.5 13.5t-77.5 32t-58 37.5t-54.5 32.5t-54.5 13.5q-87 0 -90 -114h-260q2 160 75.5 256t218.5 96z" />
    <glyph glyph-name="_208" unicode="&#xa1;" horiz-adv-x="655" 
d="M213 694l-29 -893v-268h285v268l-27 893h-229zM469 1153h-285v-268h285v268z" />
    <glyph glyph-name="_214" unicode="&#xa4;" horiz-adv-x="1447" 
d="M1237 750q0 149 -80 268l207 207l-184 184l-213 -215q-115 59 -244 59q-126 0 -244 -59l-213 215l-182 -184l205 -207q-78 -121 -78 -268q0 -148 78 -269l-205 -207l182 -182l213 213q112 -59 244 -59q135 0 244 59l213 -213l184 182l-207 207q80 119 80 269zM977 750
q0 -125 -71.5 -200t-182.5 -75q-110 0 -181 75t-71 200t71 199.5t181 74.5q111 0 182.5 -74.5t71.5 -199.5z" />
    <glyph glyph-name="_155" unicode="&#xa7;" 
d="M993 879q99 -27 143 -76t44 -137q0 -139 -117 -195q-57 15 -89 24.5t-69 24.5t-55.5 30t-35.5 37.5t-23.5 51.5t-6.5 68q0 137 117 194q27 -5 92 -22zM995 -309q200 0 322.5 103.5t122.5 273.5q0 106 -37.5 179.5t-118.5 125.5q87 51 132.5 131.5t45.5 179.5
q0 100 -32.5 175.5t-96.5 127.5t-146.5 85.5t-193.5 55.5q-100 26 -143 67.5t-43 111.5q0 72 44 112.5t120 40.5q71 0 116.5 -41.5t45.5 -111.5v-15h282v19q0 166 -122.5 270.5t-321.5 104.5q-201 0 -324 -105t-123 -274q0 -107 37.5 -181.5t118.5 -126.5
q-86 -51 -131 -131.5t-45 -179.5q0 -83 21 -146.5t55.5 -107t94 -79t119 -58t148.5 -47.5q116 -23 166.5 -66t50.5 -118q0 -71 -44.5 -111.5t-119.5 -40.5q-73 0 -118.5 41t-45.5 111v16h-282v-19q0 -166 123.5 -269t322.5 -103z" />
    <glyph glyph-name="_107" unicode="&#xa8;" horiz-adv-x="1228" 
d="M512 1616h-289v-307h289v307zM1004 1616h-289v-307h289v307z" />
    <glyph glyph-name="_668" unicode="&#xaa;" horiz-adv-x="931" 
d="M590 850q0 -56 14 -84h244q-19 69 -19 119v450q0 136 -93.5 217.5t-262.5 81.5q-163 0 -253 -74t-101 -206h241q10 100 113 100q57 0 87 -30t30 -87v-161q-48 106 -223 106q-130 0 -211.5 -70.5t-81.5 -197.5q0 -128 81.5 -198.5t211.5 -70.5q174 0 223 105zM313 1014
q0 44 36.5 68t101.5 24q66 0 102.5 -24t36.5 -68q0 -92 -139 -92q-66 0 -102 23.5t-36 68.5zM55 440h824v181h-824v-181z" />
    <glyph glyph-name="_18155" unicode="&#xad;" horiz-adv-x="921" 
d="M94 627h733v245h-733v-245z" />
    <glyph glyph-name="_18156" unicode="&#xae;" horiz-adv-x="1024" 
d="M582 1014q5 -42 12 -60h129q-83 -80 -211 -80q-137 0 -223 92.5t-86 243.5q0 178 114 271v-527h138v183h63q57 0 60 -58zM326 1487q77 59 186 59q137 0 223 -93t86 -243q0 -152 -90 -249q-9 25 -12 57l-4 67q-6 86 -53 111q61 45 61 121q0 82 -46.5 126t-135.5 44h-215z
M455 1247v129h69q62 0 62 -65q0 -64 -62 -64h-69zM512 750q193 0 322 130t129 330q0 199 -129 330t-322 131t-322 -131t-129 -330q0 -200 129 -330t322 -130z" />
    <glyph glyph-name="_138" unicode="&#xb0;" horiz-adv-x="819" 
d="M727 1317q0 139 -87 228t-232 89q-144 0 -231 -89t-87 -228t87 -228.5t231 -89.5q145 0 232 89.5t87 228.5zM524 1317q0 -59 -32 -94t-84 -35t-84.5 35t-32.5 94t32.5 94t84.5 35t84 -35t32 -94z" />
    <glyph glyph-name="_130" unicode="&#xb1;" horiz-adv-x="1218" 
d="M94 813h385v-385h260v385h385v229h-385v388h-260v-388h-385v-229zM94 98h1030v230h-1030v-230z" />
    <glyph glyph-name="_843" unicode="&#xb2;" horiz-adv-x="864" 
d="M78 1262h241v38q0 55 29 86t84 31q52 0 81.5 -31.5t29.5 -85.5q0 -69 -58 -133l-387 -448v-176h686v207h-364l242 276q67 74 94.5 136t27.5 141q0 154 -98 242.5t-254 88.5q-164 0 -259 -89t-95 -242v-41z" />
    <glyph glyph-name="_844" unicode="&#xb3;" horiz-adv-x="864" 
d="M432 1432q51 0 78 -29.5t27 -83.5t-30 -83.5t-89 -29.5h-84v-200h84q139 0 139 -140q0 -66 -33 -103.5t-92 -37.5t-93 38t-34 105v29h-242v-41q0 -145 97.5 -238.5t271.5 -93.5q175 0 272 93t97 241q0 201 -183 256q154 55 154 225q0 135 -93 215t-247 80
q-155 0 -248.5 -79.5t-93.5 -208.5v-35h236v14q0 50 27 78.5t79 28.5z" />
    <glyph glyph-name="_199" unicode="&#xb4;" horiz-adv-x="831" 
d="M684 1686h-317l-220 -373h246z" />
    <glyph glyph-name="_244" unicode="&#xb6;" 
d="M909 1616q-221 0 -346 -130t-125 -362v-14q0 -230 140 -363t360 -133h61v-921h193v1737h104v-1737h191v1923h-578z" />
    <glyph glyph-name="_18157" unicode="&#xb7;" horiz-adv-x="819" 
d="M563 1024h-309v-307h309v307z" />
    <glyph glyph-name="_206" unicode="&#xb8;" horiz-adv-x="835" 
d="M137 -471q110 -82 266 -82q135 0 214 63.5t79 170.5q0 90 -56.5 145t-160.5 65l51 105h-204l-93 -197l39 -49q30 12 90 12q117 0 117 -73q0 -68 -98 -68q-93 0 -166 55z" />
    <glyph glyph-name="_842" unicode="&#xb9;" horiz-adv-x="864" 
d="M596 543v1073h-205l-264 -121v-213l225 102v-841h244z" />
    <glyph glyph-name="_675" unicode="&#xba;" horiz-adv-x="933" 
d="M315 1190q0 148 41 209q37 49 111 49t108 -49q41 -57 41 -209t-41 -209q-36 -51 -108 -51t-111 51q-41 61 -41 209zM76 1188q0 -245 123 -354q99 -89 268 -89t268 89q123 109 123 354q0 249 -123 358q-98 88 -268 88t-268 -88q-123 -109 -123 -358zM55 440h824v181h-824
v-181z" />
    <glyph glyph-name="_751" unicode="&#xbc;" 
d="M535 543v1073h-205l-264 -121v-213l225 102v-841h244zM1425 1616h-239l-791 -1620h240zM1341 393l201 344v-344h-201zM1892 393h-110v676h-271l-407 -692v-187h438v-194h240v194h110v203z" />
    <glyph glyph-name="_748" unicode="&#xbd;" 
d="M535 543v1073h-205l-264 -121v-213l225 102v-841h244zM1405 1616h-240l-790 -1620h239zM1161 717h244v39q0 54 29.5 85t83.5 31q52 0 81 -31.5t29 -84.5q0 -72 -57 -135l-387 -449v-176h686v207h-365l242 276q68 77 95.5 138t27.5 141q0 152 -98 240.5t-254 88.5
q-164 0 -260.5 -89t-96.5 -240v-41z" />
    <glyph glyph-name="_752" unicode="&#xbe;" 
d="M1341 393l201 344v-344h-201zM1892 393h-110v676h-271l-407 -692v-187h438v-194h240v194h110v203zM406 1432q51 0 77.5 -29.5t26.5 -83.5t-30 -83.5t-89 -29.5h-84v-200h84q139 0 139 -140q0 -66 -33 -103.5t-91 -37.5q-59 0 -93 38t-34 105v29h-242v-41
q0 -145 97.5 -238.5t271.5 -93.5q175 0 271.5 93t96.5 241q0 202 -182 256q153 54 153 225q0 135 -92.5 215t-246.5 80q-155 0 -249 -79.5t-94 -208.5v-35h236v14q0 50 27.5 78.5t79.5 28.5zM1526 1616h-240l-790 -1620h239z" />
    <glyph glyph-name="_209" unicode="&#xbf;" horiz-adv-x="1191" 
d="M803 -23q0 -107 -55.5 -168t-147.5 -61t-147.5 58.5t-55.5 164.5q0 81 32.5 138.5t121.5 136.5q117 101 160 186t43 213v80h-285v-59q0 -87 -33.5 -147t-124.5 -140q-104 -93 -151 -186.5t-47 -227.5q0 -206 129.5 -333.5t357.5 -127.5t357.5 127.5t129.5 333.5v12h-284z
M754 1153h-285v-268h285v268z" />
    <glyph glyph-name="_666" unicode="&#xc6;" horiz-adv-x="2050" 
d="M969 -4h997v256h-698v446h602v254h-602v408h686v256h-1170l-811 -1620h334l160 332h502v-332zM592 582l377 770v-770h-377z" />
    <glyph glyph-name="_667" unicode="&#xd0;" horiz-adv-x="1472" 
d="M16 907v-205h140v-706h594q112 0 203 23.5t155.5 63.5t113 101t78 128t47.5 152t24.5 166t6.5 177q0 94 -6.5 173t-24 164t-46.5 152t-77.5 128.5t-113 102.5t-156 65t-204.5 24h-594v-709h-140zM1079 807q0 -162 -20 -269.5t-65 -171t-108.5 -89t-158.5 -25.5h-270v450
h256v205h-256v453h270q96 0 160 -26t108.5 -90t64 -170t19.5 -267z" />
    <glyph glyph-name="_131" unicode="&#xd7;" horiz-adv-x="1218" 
d="M915 262l175 170l-310 316l310 317l-175 170l-307 -311l-305 311l-174 -170l309 -317l-309 -316l174 -170l305 313z" />
    <glyph glyph-name="_673" unicode="&#xd8;" horiz-adv-x="1472" 
d="M1133 1690l-68 -123q-140 78 -328 78q-643 0 -643 -838q0 -206 37.5 -367t134.5 -282l-133 -236h207l70 121q139 -76 327 -76q110 0 201 25t156.5 68t115.5 106t81.5 133.5t51.5 157.5t27.5 171t7.5 179q0 96 -6 174.5t-23.5 167t-54 166t-90.5 137.5l135 238h-206z
M1079 807q0 -170 -21 -284.5t-66 -180t-106 -92.5t-149 -27q-112 0 -194 56l497 882q39 -118 39 -354zM737 1386q118 0 193 -57l-498 -880q-39 118 -39 358q0 135 14.5 234.5t41 165.5t69.5 106t95.5 56.5t123.5 16.5z" />
    <glyph glyph-name="_676" unicode="&#xde;" horiz-adv-x="1355" 
d="M432 289h346q246 0 383 135t137 383q0 245 -137 379.5t-383 134.5h-346v295h-301v-1620h301v293zM432 545v522h305q130 0 196 -66.5t66 -193.5q0 -128 -66 -195t-196 -67h-305z" />
    <glyph glyph-name="_768" unicode="&#xdf;" horiz-adv-x="1331" 
d="M1270 401q0 177 -98 281t-252 131q124 32 197 129.5t73 228.5q0 92 -33.5 175.5t-98 151t-170 107.5t-237.5 40q-134 0 -238.5 -39t-169 -108t-97.5 -159t-33 -196v-1147h299v1143q0 119 62 183t177 64q111 0 174.5 -63.5t63.5 -161.5q0 -106 -57.5 -166.5t-172.5 -60.5
h-59v-246h41q150 0 240 -70.5t90 -197.5q0 -94 -62.5 -145.5t-175.5 -51.5q-99 0 -180 23v-254q102 -25 211 -25q235 0 370.5 113t135.5 321z" />
    <glyph glyph-name="_757" unicode="&#xe6;" horiz-adv-x="2004" 
d="M991 152q116 -185 375 -185q211 0 342 99.5t160 281.5h-289q-12 -74 -69 -114.5t-144 -40.5q-119 0 -174 73.5t-66 225.5h764q2 27 2 83q0 290 -132.5 448.5t-389.5 158.5q-119 0 -213 -47t-149 -138q-53 90 -151 137.5t-224 47.5q-221 0 -345 -101.5t-138 -275.5h286
q9 70 60 108.5t139 38.5q207 0 207 -209v-198q-30 75 -116.5 116t-199.5 41q-195 0 -307.5 -97.5t-112.5 -270.5q0 -175 119 -271t348 -96q147 0 260 49t158 136zM1128 688q16 268 238 268q220 0 236 -268h-474zM616 176q-225 0 -225 158q0 162 225 162q226 0 226 -162
q0 -158 -226 -158z" />
    <glyph glyph-name="_759" unicode="&#xf0;" horiz-adv-x="1208" 
d="M885 1671l-183 -115q-106 67 -225 115l-151 -174q87 -32 157 -76l-141 -88l70 -110l188 116q132 -116 176 -258q-37 47 -103 74t-143 27q-209 0 -330.5 -150.5t-121.5 -456.5q0 -289 130 -448.5t396 -159.5q267 0 396.5 159t129.5 449q0 603 -319 895l145 91zM604 197
q-131 0 -186.5 94.5t-55.5 283.5q0 187 55.5 281t186.5 94q132 0 187 -93.5t55 -281.5q0 -190 -55 -284t-187 -94z" />
    <glyph glyph-name="_132" unicode="&#xf7;" horiz-adv-x="1218" 
d="M94 633h1030v231h-1030v-231zM752 1286h-285v-285h285v285zM467 211h285v285h-285v-285z" />
    <glyph glyph-name="_766" unicode="&#xf8;" horiz-adv-x="1208" 
d="M604 1182q-260 0 -393 -158.5t-133 -448.5q0 -335 166 -485l-103 -182h181l55 100q100 -41 227 -41q262 0 394 157.5t132 450.5q0 330 -165 482l102 184h-180l-58 -100q-96 41 -225 41zM362 575q0 187 55.5 281t186.5 94q65 0 109 -20l-324 -578q-27 85 -27 223zM604 197
q-67 0 -108 20l321 578q29 -83 29 -220q0 -190 -55 -284t-187 -94z" />
    <glyph glyph-name="_769" unicode="&#xfe;" horiz-adv-x="1245" 
d="M397 575q0 188 55 281.5t187 93.5t187 -93.5t55 -281.5q0 -190 -55 -284t-187 -94t-187 94t-55 284zM397 174q31 -95 115.5 -151t202.5 -56q213 0 331.5 150.5t118.5 457.5q0 305 -119 456t-331 151q-118 0 -202.5 -56t-115.5 -151v641h-284v-2122h284v680z" />
    <glyph glyph-name="_758" unicode="&#x111;" horiz-adv-x="1265" 
d="M559 1305h287v-330q-31 95 -115.5 151t-202.5 56q-212 0 -331 -151t-119 -456q0 -306 118.5 -457t331.5 -151q118 0 202.5 56t115.5 151v-178h284v1309h125v174h-125v137h-284v-137h-287v-174zM604 197q-131 0 -186.5 94.5t-55.5 283.5q0 187 55.5 281t186.5 94
q132 0 187 -93.5t55 -281.5q0 -190 -55 -284t-187 -94z" />
    <glyph glyph-name="_669" unicode="&#x126;" horiz-adv-x="1462" 
d="M1006 -4h301v1190h139v207h-139v223h-301v-223h-549v223h-301v-223h-140v-207h140v-1190h301v702h549v-702zM457 952v234h549v-234h-549z" />
    <glyph glyph-name="_760" unicode="&#x127;" horiz-adv-x="1247" 
d="M707 1479h-287v137h-285v-137h-125v-174h125v-1309h285v647q0 147 69 227t183 80q182 0 182 -229v-725h285v729q0 221 -101 339t-290 118q-122 0 -208.5 -61.5t-119.5 -164.5v349h287v174z" />
    <glyph glyph-name="_761" unicode="&#x131;" horiz-adv-x="528" 
d="M121 -4h285v1157h-285v-1157z" />
    <glyph glyph-name="_670" unicode="&#x132;" horiz-adv-x="1814" 
d="M432 1616h-301v-1620h301v1620zM1161 -33q253 0 392 136.5t139 390.5v1122h-299v-1079q0 -166 -59.5 -240t-170.5 -74q-109 0 -167.5 68.5t-61.5 222.5h-301v-20q0 -254 138 -390.5t390 -136.5z" />
    <glyph glyph-name="_762" unicode="&#x133;" horiz-adv-x="1107" 
d="M121 1352h285v264h-285v-264zM121 -4h285v1157h-285v-1157zM700 -117q0 -83 -35.5 -122.5t-109.5 -39.5h-88v-221q43 -6 121 -6q196 0 296.5 90.5t100.5 268.5v1300h-285v-1270zM700 1352h285v264h-285v-264z" />
    <glyph glyph-name="_763" unicode="&#x138;" horiz-adv-x="1136" 
d="M113 -4h284v493h101l315 -493h313l-397 602l346 555h-305l-270 -446h-103v446h-284v-1157z" />
    <glyph glyph-name="_671" unicode="&#x13f;" horiz-adv-x="1159" 
d="M131 -4h997v256h-696v1364h-301v-1620zM952 1012h-284v-289h284v289z" />
    <glyph glyph-name="_764" unicode="&#x140;" horiz-adv-x="843" 
d="M406 -4v1620h-285v-1620h285zM823 1012h-284v-289h284v289z" />
    <glyph glyph-name="_672" unicode="&#x141;" horiz-adv-x="1183" 
d="M156 543v-547h997v256h-696v448l387 207v230l-387 -207v686h-301v-844l-142 -74v-229z" />
    <glyph glyph-name="_765" unicode="&#x142;" horiz-adv-x="700" 
d="M492 -4v780l178 94v205l-178 -94v635h-285v-782l-176 -93v-204l176 92v-633h285z" />
    <glyph glyph-name="_772" unicode="&#x149;" horiz-adv-x="1355" 
d="M1247 725q0 221 -101 339t-290 118q-124 0 -210.5 -61.5t-117.5 -164.5v197h-284v-1157h284v647q0 147 68.5 227t181.5 80q185 0 185 -229v-725h284v729zM303 1616h-285v-279h140q0 -70 -33.5 -104t-106.5 -43v-119q143 12 214 82t71 184v279z" />
    <glyph glyph-name="_678" unicode="&#x14a;" horiz-adv-x="1435" 
d="M1001 -10v-105q0 -77 -34 -110t-107 -33h-72v-242q41 -6 119 -6q196 0 297 92t101 269v1761h-297v-1102l-570 1102h-307v-1620h297v1100z" />
    <glyph glyph-name="_771" unicode="&#x14b;" horiz-adv-x="1224" 
d="M831 -127q0 -79 -35.5 -115.5t-109.5 -36.5h-86v-221q41 -6 121 -6q195 0 295 90.5t100 268.5v872q0 221 -101 339t-290 118q-122 0 -208.5 -61.5t-119.5 -164.5v197h-284v-1157h284v647q0 147 69 227t183 80q182 0 182 -229v-848z" />
    <glyph glyph-name="_674" unicode="&#x152;" horiz-adv-x="2099" 
d="M100 807q0 -95 6.5 -175.5t24.5 -165.5t47.5 -152.5t78 -128.5t113 -101.5t156 -64t203.5 -23.5h1280v256h-696v446h602v254h-602v408h684v256h-1268q-113 0 -204.5 -24.5t-156 -65.5t-113 -102.5t-78 -129t-47 -152.5t-24 -163.5t-6.5 -171.5zM399 807q0 213 38 334
t113.5 170t203.5 49h258v-1108h-258q-97 0 -161.5 25.5t-109.5 89t-64.5 170.5t-19.5 270z" />
    <glyph glyph-name="_767" unicode="&#x153;" horiz-adv-x="2033" 
d="M633 950q132 0 186.5 -93.5t54.5 -281.5q0 -190 -54.5 -284t-186.5 -94q-131 0 -186.5 94.5t-55.5 283.5q0 187 55.5 281t186.5 94zM1401 956q219 0 235 -268h-473q16 268 238 268zM1411 -33q204 0 333.5 99.5t158.5 281.5h-289q-13 -74 -69.5 -114.5t-143.5 -40.5
q-234 0 -240 299h764q2 12 2 83q0 289 -132 448t-384 159q-136 0 -240.5 -56.5t-154.5 -152.5q-51 96 -154.5 152.5t-240.5 56.5q-251 0 -383 -159t-132 -448q0 -291 132 -449.5t383 -158.5q136 0 240 56t155 151q52 -96 154.5 -151.5t240.5 -55.5z" />
    <glyph glyph-name="_677" unicode="&#x166;" horiz-adv-x="1234" 
d="M467 721v-725h301v725h227v207h-227v432h438v256h-1177v-256h438v-432h-225v-207h225z" />
    <glyph glyph-name="_770" unicode="&#x167;" horiz-adv-x="862" 
d="M74 700v-176h137v-205q0 -188 94.5 -263.5t317.5 -75.5q119 0 174 6v221h-117q-107 0 -144.5 32.5t-37.5 129.5v155h235v176h-235v224h299v229h-299v328h-287v-328h-164v-229h164v-224h-137z" />
    <glyph glyph-name="_8275" unicode="&#x2bc;" horiz-adv-x="983" 
d="M184 1634q0 60 28.5 87.5t88.5 27.5q61 0 88 -27.5t27 -87.5q0 -298 -287 -356l-27 61q157 47 197 179q-59 0 -87 27.5t-28 88.5z" />
    <glyph glyph-name="_201" unicode="&#x2c7;" horiz-adv-x="872" 
d="M582 1686l-146 -181l-145 181h-244l268 -373h240l270 373h-243z" />
    <glyph glyph-name="_18158" unicode="&#x2d0;" horiz-adv-x="1024" 
d="M516 915l268 404h-544zM240 109h544l-268 401z" />
    <glyph glyph-name="_202" unicode="&#x2d8;" horiz-adv-x="866" 
d="M434 1319q158 0 259 91.5t108 254.5h-236q-6 -145 -131 -145t-131 145h-237q7 -163 107.5 -254.5t260.5 -91.5z" />
    <glyph glyph-name="_205" unicode="&#x2d9;" horiz-adv-x="786" 
d="M535 1636h-285v-288h285v288z" />
    <glyph glyph-name="_204" unicode="&#x2da;" horiz-adv-x="823" 
d="M664 1497q0 114 -70 178t-182 64t-182 -64t-70 -178q0 -113 70 -177.5t182 -64.5t182 64.5t70 177.5zM492 1497q0 -41 -21.5 -64.5t-58.5 -23.5q-38 0 -60 23.5t-22 64.5t22 65.5t60 24.5q37 0 58.5 -24.5t21.5 -65.5z" />
    <glyph glyph-name="_207" unicode="&#x2db;" horiz-adv-x="833" 
d="M313 -4q-79 -42 -125.5 -112.5t-46.5 -143.5v-19q0 -109 80 -169t221 -60q169 0 250 90l-90 137q-55 -49 -135 -49q-53 0 -83 27t-30 67v13q0 51 44.5 109.5t127.5 109.5h-213z" />
    <glyph glyph-name="_203" unicode="&#x2dd;" horiz-adv-x="890" 
d="M881 1686h-289l-242 -377h228zM481 1686h-288l-183 -377h230z" />
    <glyph glyph-name="_471" unicode="&#x391;" horiz-adv-x="1427" 
d="M322 -4l96 332h577l101 -332h307l-522 1620h-344l-525 -1620h310zM492 582l217 737l213 -737h-430z" />
    <glyph glyph-name="_472" unicode="&#x392;" horiz-adv-x="1372" 
d="M786 -4q257 0 385.5 118t128.5 347q0 143 -75.5 245t-206.5 134q111 37 173 124t62 214q0 438 -510 438h-612v-1620h655zM999 475q0 -121 -65.5 -172t-206.5 -51h-295v448h295q141 0 206.5 -52t65.5 -173zM954 1157q0 -112 -65 -157.5t-201 -45.5h-256v406h256
q136 0 201 -45.5t65 -157.5z" />
    <glyph glyph-name="_473" unicode="&#x393;" horiz-adv-x="1140" 
d="M131 1616v-1620h301v1364h688v256h-989z" />
    <glyph glyph-name="_474" unicode="&#x394;" horiz-adv-x="1429" 
d="M1411 -4l-524 1620h-344l-525 -1620h1393zM1028 250h-627l314 1069z" />
    <glyph glyph-name="_475" unicode="&#x395;" horiz-adv-x="1212" 
d="M131 -4h997v256h-696v446h602v254h-602v408h686v256h-987v-1620z" />
    <glyph glyph-name="_476" unicode="&#x396;" horiz-adv-x="1230" 
d="M76 227v-231h1079v256h-717l707 1130v234h-1047v-256h684z" />
    <glyph glyph-name="_477" unicode="&#x397;" horiz-adv-x="1413" 
d="M981 -4h301v1620h-301v-664h-549v664h-301v-1620h301v702h549v-702z" />
    <glyph glyph-name="_478" unicode="&#x398;" horiz-adv-x="1472" 
d="M1378 807q0 192 -31 343.5t-114 266.5q-165 228 -496 228q-332 0 -497 -228q-83 -115 -114.5 -267t-31.5 -343q0 -193 31.5 -346t114.5 -268q163 -226 497 -226q333 0 496 226q83 115 114 267.5t31 346.5zM1079 807q0 -182 -20.5 -287t-67.5 -174q-84 -123 -254 -123
q-172 0 -256 123q-46 70 -67 175t-21 286q0 178 21 283.5t67 173.5q83 122 256 122q171 0 254 -122q47 -67 67.5 -172t20.5 -285zM508 692h459v226h-459v-226z" />
    <glyph glyph-name="_479" unicode="&#x399;" horiz-adv-x="563" 
d="M432 1616h-301v-1620h301v1620z" />
    <glyph glyph-name="_480" unicode="&#x39a;" horiz-adv-x="1366" 
d="M1305 1616h-326l-393 -664h-154v664h-301v-1620h301v702h154l456 -702h330l-545 831z" />
    <glyph glyph-name="_481" unicode="&#x39b;" horiz-adv-x="1429" 
d="M1411 -4l-524 1620h-344l-525 -1620h310l387 1323l387 -1323h309z" />
    <glyph glyph-name="_482" unicode="&#x39c;" horiz-adv-x="1898" 
d="M1081 -4l394 1028v-1028h292v1620h-319l-498 -1301l-499 1301h-320v-1620h293v1028l393 -1028h264z" />
    <glyph glyph-name="_483" unicode="&#x39d;" horiz-adv-x="1435" 
d="M997 -4h308v1620h-297v-1102l-570 1102h-307v-1620h297v1100z" />
    <glyph glyph-name="_484" unicode="&#x39e;" horiz-adv-x="1308" 
d="M94 1360h1120v256h-1120v-256zM84 -4h1141v256h-1141v-256zM178 698h952v254h-952v-254z" />
    <glyph glyph-name="_485" unicode="&#x39f;" horiz-adv-x="1472" 
d="M1378 807q0 192 -31 343.5t-114 266.5q-165 228 -496 228q-332 0 -497 -228q-83 -115 -114.5 -267t-31.5 -343q0 -193 31.5 -346t114.5 -268q163 -226 497 -226q333 0 496 226q83 115 114 267.5t31 346.5zM1079 807q0 -182 -20.5 -287t-67.5 -174q-84 -123 -254 -123
q-172 0 -256 123q-46 70 -67 175t-21 286q0 178 21 283.5t67 173.5q83 122 256 122q171 0 254 -122q47 -67 67.5 -172t20.5 -285z" />
    <glyph glyph-name="_486" unicode="&#x3a0;" horiz-adv-x="1413" 
d="M981 -4h301v1620h-1151v-1620h301v1364h549v-1364z" />
    <glyph glyph-name="_487" unicode="&#x3a1;" horiz-adv-x="1355" 
d="M778 584q246 0 383 135t137 381q0 245 -137.5 380.5t-382.5 135.5h-647v-1620h301v588h346zM432 840v520h305q130 0 196 -66.5t66 -193.5t-66 -193.5t-196 -66.5h-305z" />
    <glyph glyph-name="_488" unicode="&#x3a3;" horiz-adv-x="1200" 
d="M94 256v-260h1041v256h-691l351 528v101l-349 479h689v256h-1041v-258l385 -527z" />
    <glyph glyph-name="_489" unicode="&#x3a4;" horiz-adv-x="1234" 
d="M29 1360h438v-1364h301v1364h438v256h-1177v-256z" />
    <glyph glyph-name="_490" unicode="&#x3a5;" horiz-adv-x="1400" 
d="M698 895l-356 721h-313l522 -981v-639h299v639l522 981h-315z" />
    <glyph glyph-name="_491" unicode="&#x3a6;" horiz-adv-x="1691" 
d="M995 1616h-299v-244q-296 -19 -463 -160.5t-167 -404.5q0 -135 44.5 -239.5t128 -173.5t198 -107.5t259.5 -48.5v-242h299v242q145 10 259.5 48.5t198.5 107.5t128.5 173.5t44.5 239.5q0 263 -167.5 404.5t-463.5 160.5v244zM365 807q0 148 87 226t244 83v-622
q-157 6 -244 85t-87 228zM1327 807q0 -149 -87.5 -228t-244.5 -85v622q157 -5 244.5 -83t87.5 -226z" />
    <glyph glyph-name="_492" unicode="&#x3a7;" horiz-adv-x="1406" 
d="M354 -4l351 629l348 -629h325l-487 838l452 782h-325l-313 -578l-316 578h-326l451 -782l-485 -838h325z" />
    <glyph glyph-name="_493" unicode="&#x3a8;" horiz-adv-x="1585" 
d="M942 350q257 36 394 196.5t137 414.5v655h-299v-631q0 -168 -57 -259t-175 -116v1006h-299v-1006q-118 25 -174.5 116t-56.5 259v631h-299v-655q0 -255 136.5 -415t393.5 -196v-354h299v354z" />
    <glyph glyph-name="_494" unicode="&#x3a9;" horiz-adv-x="1472" 
d="M735 1645q-336 0 -495 -228q-146 -205 -146 -571q0 -223 72 -375.5t199 -218.5h-244v-256h547v256q-141 55 -208 187.5t-67 367.5q0 179 20.5 283.5t65.5 173.5q83 122 256 122t256 -122q46 -68 66 -172t20 -285q0 -235 -66 -367.5t-206 -187.5v-256h545v256h-242
q126 66 198 219t72 375q0 363 -145 571q-159 228 -498 228z" />
    <glyph glyph-name="_495" unicode="&#x3b1;" horiz-adv-x="1286" 
d="M846 575q0 -190 -55 -284t-187 -94q-131 0 -186.5 94.5t-55.5 283.5q0 187 55.5 281t186.5 94q132 0 187 -93.5t55 -281.5zM846 174q14 -107 76 -152t206 -45q69 0 123 7v227h-34q-46 0 -66.5 20.5t-20.5 71.5v850h-284v-178q-31 95 -115.5 151t-202.5 56
q-212 0 -331 -151t-119 -456q0 -307 118.5 -457.5t331.5 -150.5q118 0 202.5 56t115.5 151z" />
    <glyph glyph-name="_496" unicode="&#x3b2;" horiz-adv-x="1277" 
d="M1143 1186q0 205 -135 332t-381 127q-248 0 -381 -133.5t-133 -372.5v-1645h284v678q71 -205 340 -205q206 0 340.5 130.5t134.5 361.5q0 164 -98 269.5t-244 119.5q129 26 201 117.5t72 220.5zM858 1174q0 -101 -60 -157t-171 -56h-56v-230h56q145 0 223 -67t78 -191
q0 -134 -69.5 -205t-196.5 -71q-265 0 -265 307v618q0 291 230 291q110 0 170.5 -63t60.5 -176z" />
    <glyph glyph-name="_497" unicode="&#x3b3;" horiz-adv-x="1198" 
d="M741 -506v483l428 1176h-295l-274 -852l-276 852h-295l428 -1176v-483h284z" />
    <glyph glyph-name="_498" unicode="&#x3b4;" horiz-adv-x="1208" 
d="M934 1085l-371 301h477v230h-852v-230l289 -223q-194 -29 -296.5 -179t-102.5 -409q0 -294 131.5 -451t394.5 -157t394.5 157t131.5 451q0 357 -196 510zM362 575q0 187 55.5 281t186.5 94q132 0 187 -93.5t55 -281.5q0 -190 -55 -284t-187 -94q-131 0 -186.5 94.5
t-55.5 283.5z" />
    <glyph glyph-name="_499" unicode="&#x3b5;" horiz-adv-x="1114" 
d="M563 702q-89 0 -134.5 35t-45.5 92t45.5 93t134.5 36t134.5 -36t45.5 -93v-16h285v21q0 154 -118.5 251t-346.5 97q-226 0 -344.5 -95t-118.5 -243q0 -93 60 -162t149 -90q-106 -19 -170.5 -92.5t-64.5 -180.5q0 -158 132.5 -255t364.5 -97q231 0 363.5 97t132.5 255v17
h-285v-6q0 -64 -57 -103t-154 -39q-100 0 -156.5 39t-56.5 109q0 67 56.5 105t156.5 38h170v223h-178z" />
    <glyph glyph-name="_500" unicode="&#x3b6;" horiz-adv-x="1032" 
d="M850 186q-190 6 -298.5 39.5t-152 94t-43.5 161.5q0 260 152 479t467 418v238h-787v-230h478q-278 -177 -436 -416.5t-158 -510.5q0 -235 156 -360t468 -128q-30 -130 -125 -315l211 -64q83 117 138 253t55 227q0 60 -27 85.5t-98 28.5z" />
    <glyph glyph-name="_501" unicode="&#x3b7;" horiz-adv-x="1224" 
d="M1116 725q0 221 -101 339t-290 118q-122 0 -208.5 -61.5t-119.5 -164.5v197h-284v-1157h284v647q0 147 69 227t183 80q182 0 182 -229v-1227h285v1231z" />
    <glyph glyph-name="_502" unicode="&#x3b8;" horiz-adv-x="1306" 
d="M1217 809q0 303 -60.5 488t-183 268.5t-320.5 83.5q-197 0 -319.5 -83.5t-183 -268.5t-60.5 -488q0 -304 60.5 -489t182.5 -269t320 -84t320.5 83.5t183 269t60.5 489.5zM457 1327q63 92 196 92q92 0 149.5 -42.5t91 -153t38.5 -301.5h-559q4 157 24.5 249t59.5 156z
M848 289q-57 -92 -195 -92q-66 0 -113 21t-85 74.5t-58 153t-24 248.5h559q-4 -157 -24.5 -250t-59.5 -155z" />
    <glyph glyph-name="_503" unicode="&#x3b9;" horiz-adv-x="581" 
d="M113 262q0 -86 16.5 -142t53 -87.5t86.5 -43.5t126 -12q67 0 121 7v227h-35q-45 0 -64.5 20.5t-19.5 71.5v850h-284v-891z" />
    <glyph glyph-name="_504" unicode="&#x3ba;" horiz-adv-x="1136" 
d="M113 -4h284v493h101l315 -493h313l-397 602l346 555h-305l-270 -446h-103v446h-284v-1157z" />
    <glyph glyph-name="_505" unicode="&#x3bb;" horiz-adv-x="1142" 
d="M436 1145l-436 -1149h295l278 805l275 -805h295l-492 1354q-62 172 -149 233.5t-240 61.5q-80 0 -119 -7v-223h86q57 0 94 -27t62 -98z" />
    <glyph glyph-name="_506" unicode="&#x3bc;" horiz-adv-x="1228" 
d="M397 1153h-284v-1659h284v592q19 -53 67.5 -86t113.5 -33q86 0 155 61.5t98 161.5v-194h285v1157h-285v-649q0 -146 -68.5 -226.5t-180.5 -80.5q-185 0 -185 229v727z" />
    <glyph glyph-name="_507" unicode="&#x3bd;" horiz-adv-x="1198" 
d="M760 -4l409 1157h-295l-274 -868l-276 868h-295l411 -1157h320z" />
    <glyph glyph-name="_508" unicode="&#x3be;" horiz-adv-x="1085" 
d="M745 -29q-31 -133 -124 -315l210 -64q83 118 138 254t55 226q0 60 -27.5 85.5t-99.5 28.5q-287 6 -414 86t-127 234q0 144 101 237t241 93h84v229h-143q-99 0 -155 43.5t-56 134.5q0 170 162 170q147 0 164 -133h284q-6 163 -119 264t-329 101q-217 0 -332 -105.5
t-115 -273.5q0 -130 79 -215.5t214 -110.5q-166 -53 -265 -174.5t-99 -294.5q0 -234 178.5 -365.5t494.5 -134.5z" />
    <glyph glyph-name="_509" unicode="&#x3bf;" horiz-adv-x="1208" 
d="M1130 575q0 291 -132.5 449t-393.5 158q-260 0 -393 -158.5t-133 -448.5q0 -293 132.5 -450.5t393.5 -157.5q262 0 394 157.5t132 450.5zM362 575q0 187 55.5 281t186.5 94q132 0 187 -93.5t55 -281.5q0 -190 -55 -284t-187 -94q-131 0 -186.5 94.5t-55.5 283.5z" />
    <glyph glyph-name="_510" unicode="&#x3c0;" horiz-adv-x="1306" 
d="M506 924h293v-928h282v928h168v229h-1192v-229h164v-928h285v928z" />
    <glyph glyph-name="_511" unicode="&#x3c1;" horiz-adv-x="1226" 
d="M1147 575q0 291 -132 449t-394 158t-394.5 -158t-132.5 -449v-1081h285v680q33 -96 116 -151.5t201 -55.5q214 0 332.5 151t118.5 457zM621 197q-131 0 -186.5 94.5t-55.5 283.5q0 187 55.5 281t186.5 94q132 0 186.5 -93.5t54.5 -281.5q0 -190 -54.5 -284t-186.5 -94z
" />
    <glyph glyph-name="_512" unicode="&#x3c3;" horiz-adv-x="1239" 
d="M1130 561q0 148 -53 242.5t-139 120.5h268v229h-602q-259 0 -392.5 -152t-133.5 -440q0 -289 133.5 -441.5t392.5 -152.5q260 0 393 152t133 442zM846 561q0 -185 -57 -274.5t-185 -89.5q-127 0 -184.5 89.5t-57.5 274.5q0 182 57.5 272.5t184.5 90.5q128 0 185 -90
t57 -273z" />
    <glyph glyph-name="_513" unicode="&#x3c4;" horiz-adv-x="1052" 
d="M647 924h369v229h-996v-229h342v-617q0 -99 17 -161.5t59 -100.5t105 -53t162 -15q70 0 135 7v221h-60q-77 0 -105 25t-28 98v596z" />
    <glyph glyph-name="_514" unicode="&#x3c5;" horiz-adv-x="1206" 
d="M602 -33q237 0 368.5 116.5t131.5 340.5v729h-285v-725q0 -116 -55.5 -173.5t-159.5 -57.5q-213 0 -213 231v725h-285v-729q0 -224 131 -340.5t367 -116.5z" />
    <glyph glyph-name="_515" unicode="&#x3c6;" horiz-adv-x="1611" 
d="M494 1137q-219 -39 -317.5 -182t-98.5 -394q0 -295 138 -442.5t448 -151.5v-473h284v473q310 4 448 151.5t138 442.5q0 145 -32.5 253t-102.5 185t-184.5 115.5t-274.5 38.5h-276v-956q-82 0 -135.5 15t-92.5 55.5t-56.5 111.5t-17.5 182q0 165 42.5 243.5t134.5 102.5
q-43 218 -45 230zM1249 561q0 -111 -17 -182t-56.5 -111.5t-92.5 -55.5t-135 -15v725q82 0 135 -15t92.5 -54.5t56.5 -110.5t17 -181z" />
    <glyph glyph-name="_516" unicode="&#x3c7;" horiz-adv-x="1157" 
d="M854 -506h303l-397 852l373 807h-302l-253 -582l-254 582h-301l372 -807l-395 -852h301l277 623z" />
    <glyph glyph-name="_517" unicode="&#x3c8;" horiz-adv-x="1521" 
d="M903 -506v481q246 20 380 151.5t134 350.5v676h-282v-672q0 -118 -60 -191t-172 -83v946h-285v-946q-112 10 -170.5 83t-58.5 191v672h-285v-676q0 -219 134 -350.5t380 -151.5v-481h285z" />
    <glyph glyph-name="_518" unicode="&#x3c9;" horiz-adv-x="1730" 
d="M723 926v-391q0 -182 -41 -260t-137 -78t-136 77.5t-40 260.5q0 288 116 618h-286q-115 -314 -115 -616q0 -570 432 -570q279 0 348 254q72 -254 350 -254q433 0 433 570q0 302 -115 616h-289q119 -330 119 -618q0 -183 -40 -260.5t-136 -77.5t-137 78t-41 260v391h-285z
" />
    <glyph glyph-name="_1026" unicode="&#x401;" horiz-adv-x="1212" 
d="M131 -4h997v256h-696v446h602v254h-602v408h686v256h-987v-1620zM549 2087h-283v-291h283v291zM981 2087h-283v-291h283v291z" />
    <glyph glyph-name="_1020" unicode="&#x410;" horiz-adv-x="1427" 
d="M322 -4l96 332h577l101 -332h307l-522 1620h-344l-525 -1620h310zM492 582l217 737l213 -737h-430z" />
    <glyph glyph-name="_1021" unicode="&#x411;" horiz-adv-x="1310" 
d="M1147 1616h-1016v-1620h584q530 0 530 479q0 241 -135.5 361t-394.5 120h-283v404h715v256zM432 700h244q138 0 203 -54t65 -171q0 -118 -65 -171.5t-203 -53.5h-244v450z" />
    <glyph glyph-name="_1022" unicode="&#x412;" horiz-adv-x="1372" 
d="M786 -4q257 0 385.5 118t128.5 347q0 143 -75.5 245t-206.5 134q111 37 173 124t62 214q0 438 -510 438h-612v-1620h655zM999 475q0 -121 -65.5 -172t-206.5 -51h-295v448h295q141 0 206.5 -52t65.5 -173zM954 1157q0 -112 -65 -157.5t-201 -45.5h-256v406h256
q136 0 201 -45.5t65 -157.5z" />
    <glyph glyph-name="_1023" unicode="&#x413;" horiz-adv-x="1140" 
d="M131 1616v-1620h301v1364h688v256h-989z" />
    <glyph glyph-name="_1024" unicode="&#x414;" horiz-adv-x="1490" 
d="M1452 252h-176v1364h-1018v-666q0 -414 -72 -698h-159v-535h299v279h825v-279h301v535zM494 252q63 264 63 676v432h420v-1108h-483z" />
    <glyph glyph-name="_1025" unicode="&#x415;" horiz-adv-x="1212" 
d="M131 -4h997v256h-696v446h602v254h-602v408h686v256h-987v-1620z" />
    <glyph glyph-name="_1027" unicode="&#x416;" horiz-adv-x="2060" 
d="M12 -4h328l401 702h140v-702h299v702h139l401 -702h330l-491 831l421 789h-319l-342 -664h-139v664h-299v-664h-140l-342 664h-317l420 -789z" />
    <glyph glyph-name="_1028" unicode="&#x417;" horiz-adv-x="1300" 
d="M76 461q0 -225 156 -359.5t413 -134.5q260 0 416 134.5t156 359.5q0 157 -82 260.5t-228 134.5q123 33 191.5 122.5t68.5 227.5q0 191 -136.5 315t-385.5 124q-248 0 -384 -124.5t-136 -316.5v-28h299q0 92 57.5 151t163.5 59q109 0 166 -54.5t57 -145.5
q0 -205 -239 -205h-191v-256h191q138 0 212 -63.5t74 -188.5q0 -116 -71.5 -183t-198.5 -67q-126 0 -197 66.5t-71 183.5v12h-301v-24z" />
    <glyph glyph-name="_1029" unicode="&#x418;" horiz-adv-x="1435" 
d="M1008 -4h297v1620h-308l-569 -1100v1100h-297v-1620h307l570 1100v-1100z" />
    <glyph glyph-name="_1030" unicode="&#x419;" horiz-adv-x="1435" 
d="M1008 -4h297v1620h-308l-569 -1100v1100h-297v-1620h307l570 1100v-1100zM719 1763q158 0 258.5 91.5t107.5 254.5h-237q-1 -73 -35.5 -109t-93.5 -36q-60 0 -95 36t-36 109h-238q7 -163 108 -254.5t261 -91.5z" />
    <glyph glyph-name="_1031" unicode="&#x41a;" horiz-adv-x="1366" 
d="M1305 1616h-326l-393 -664h-154v664h-301v-1620h301v702h154l456 -702h330l-545 831z" />
    <glyph glyph-name="_1032" unicode="&#x41b;" horiz-adv-x="1507" 
d="M250 393q0 -93 -35.5 -125t-122.5 -32h-74v-250q55 -6 129 -6q111 0 183.5 18.5t123.5 64.5t73 124t22 198v975h528v-1364h299v1620h-1126v-1223z" />
    <glyph glyph-name="_1033" unicode="&#x41c;" horiz-adv-x="1898" 
d="M1081 -4l394 1028v-1028h292v1620h-319l-498 -1301l-499 1301h-320v-1620h293v1028l393 -1028h264z" />
    <glyph glyph-name="_1034" unicode="&#x41d;" horiz-adv-x="1413" 
d="M981 -4h301v1620h-301v-664h-549v664h-301v-1620h301v702h549v-702z" />
    <glyph glyph-name="_1035" unicode="&#x41e;" horiz-adv-x="1472" 
d="M1378 807q0 192 -31 343.5t-114 266.5q-165 228 -496 228q-332 0 -497 -228q-83 -115 -114.5 -267t-31.5 -343q0 -193 31.5 -346t114.5 -268q163 -226 497 -226q333 0 496 226q83 115 114 267.5t31 346.5zM1079 807q0 -182 -20.5 -287t-67.5 -174q-84 -123 -254 -123
q-172 0 -256 123q-46 70 -67 175t-21 286q0 178 21 283.5t67 173.5q83 122 256 122q171 0 254 -122q47 -67 67.5 -172t20.5 -285z" />
    <glyph glyph-name="_1036" unicode="&#x41f;" horiz-adv-x="1413" 
d="M981 -4h301v1620h-1151v-1620h301v1364h549v-1364z" />
    <glyph glyph-name="_1037" unicode="&#x420;" horiz-adv-x="1355" 
d="M778 584q246 0 383 135t137 381q0 245 -137.5 380.5t-382.5 135.5h-647v-1620h301v588h346zM432 840v520h305q130 0 196 -66.5t66 -193.5t-66 -193.5t-196 -66.5h-305z" />
    <glyph glyph-name="_1038" unicode="&#x421;" horiz-adv-x="1445" 
d="M94 807q0 -193 31.5 -346t114.5 -268q163 -226 497 -226q281 0 447 156.5t178 417.5h-299q-8 -149 -92.5 -233.5t-233.5 -84.5q-172 0 -256 123q-46 70 -67 175t-21 286q0 178 21 283.5t67 173.5q83 122 256 122q149 0 233.5 -84t92.5 -233h299q-12 261 -178 418.5
t-447 157.5q-332 0 -497 -228q-83 -115 -114.5 -267t-31.5 -343z" />
    <glyph glyph-name="_1039" unicode="&#x422;" horiz-adv-x="1234" 
d="M29 1360h438v-1364h301v1364h438v256h-1177v-256z" />
    <glyph glyph-name="_1040" unicode="&#x423;" horiz-adv-x="1380" 
d="M412 -4q160 0 245 63.5t158 239.5l545 1317h-309l-351 -848l-354 848h-311l522 -1198q-41 -102 -74.5 -134t-109.5 -32h-78v-252q37 -4 117 -4z" />
    <glyph glyph-name="_1041" unicode="&#x424;" horiz-adv-x="1691" 
d="M995 1616h-299v-244q-296 -19 -463 -160.5t-167 -404.5q0 -135 44.5 -239.5t128 -173.5t198 -107.5t259.5 -48.5v-242h299v242q145 10 259.5 48.5t198.5 107.5t128.5 173.5t44.5 239.5q0 263 -167.5 404.5t-463.5 160.5v244zM365 807q0 148 87 226t244 83v-622
q-157 6 -244 85t-87 228zM1327 807q0 -149 -87.5 -228t-244.5 -85v622q157 -5 244.5 -83t87.5 -226z" />
    <glyph glyph-name="_1042" unicode="&#x425;" horiz-adv-x="1406" 
d="M354 -4l351 629l348 -629h325l-487 838l452 782h-325l-313 -578l-316 578h-326l451 -782l-485 -838h325z" />
    <glyph glyph-name="_1043" unicode="&#x426;" horiz-adv-x="1495" 
d="M1157 -283h299v535h-174v1364h-301v-1364h-549v1364h-301v-1620h1026v-279z" />
    <glyph glyph-name="_1044" unicode="&#x427;" horiz-adv-x="1363" 
d="M934 -4h299v1620h-299v-717q-46 -44 -126 -71t-169 -27q-122 0 -174.5 57t-52.5 193v565h-299v-590q0 -245 115 -362t356 -117q98 0 195 30t155 76v-657z" />
    <glyph glyph-name="_1045" unicode="&#x428;" horiz-adv-x="2160" 
d="M1731 252h-500v1364h-301v-1364h-498v1364h-301v-1620h1899v1620h-299v-1364z" />
    <glyph glyph-name="_1046" unicode="&#x429;" horiz-adv-x="2244" 
d="M1905 -4v-279h301v535h-176v1364h-299v-1364h-500v1364h-301v-1364h-498v1364h-301v-1620h1774z" />
    <glyph glyph-name="_1047" unicode="&#x42a;" horiz-adv-x="1605" 
d="M29 1360h397v-1364h584q530 0 530 479q0 242 -135 361.5t-395 119.5h-283v660h-698v-256zM727 700h244q139 0 203.5 -54t64.5 -171q0 -118 -64.5 -171.5t-203.5 -53.5h-244v450z" />
    <glyph glyph-name="_1048" unicode="&#x42b;" horiz-adv-x="1849" 
d="M1718 1616h-299v-1620h299v1620zM432 700h244q138 0 203 -54t65 -171q0 -118 -65 -171.5t-203 -53.5h-244v450zM1245 475q0 241 -135.5 361t-394.5 120h-283v660h-301v-1620h584q530 0 530 479z" />
    <glyph glyph-name="_1049" unicode="&#x42c;" horiz-adv-x="1310" 
d="M432 700h244q138 0 203 -54t65 -171q0 -118 -65 -171.5t-203 -53.5h-244v450zM1245 475q0 241 -135.5 361t-394.5 120h-283v660h-301v-1620h584q530 0 530 479z" />
    <glyph glyph-name="_1050" unicode="&#x42d;" horiz-adv-x="1443" 
d="M1350 807q0 193 -31 344t-113 266q-165 228 -497 228q-281 0 -447 -157.5t-178 -418.5h299q6 149 91 233t235 84q173 0 256 -122q38 -57 58 -134.5t26 -197.5h-467v-254h467q-6 -120 -26 -197.5t-58 -134.5q-84 -123 -256 -123q-149 0 -234.5 84.5t-91.5 233.5h-299
q12 -261 178 -417.5t447 -156.5q334 0 497 226q82 115 113 267t31 347z" />
    <glyph glyph-name="_1051" unicode="&#x42e;" horiz-adv-x="1974" 
d="M1880 807q0 192 -31 343.5t-114 266.5q-165 228 -498 228q-331 0 -496 -228q-122 -172 -143 -485h-166v684h-301v-1620h301v682h166q21 -316 143 -485q163 -226 496 -226q335 0 498 226q83 115 114 267.5t31 346.5zM1581 807q0 -181 -21 -286t-67 -175
q-84 -123 -256 -123q-174 0 -254 123q-47 69 -67.5 174t-20.5 287q0 180 20.5 285t67.5 172q80 122 254 122q173 0 256 -122q46 -68 67 -173.5t21 -283.5z" />
    <glyph glyph-name="_1052" unicode="&#x42f;" horiz-adv-x="1398" 
d="M424 348q6 126 67.5 181t196.5 55h279v-588h301v1620h-650q-253 0 -386.5 -129.5t-133.5 -366.5q0 -324 283 -407q-126 -20 -185.5 -101.5t-70.5 -242.5l-14 -226q-6 -91 -27 -147h303q22 65 25 143zM668 840q-132 0 -200.5 61.5t-68.5 198.5t68.5 198.5t200.5 61.5h299
v-520h-299z" />
    <glyph glyph-name="_1053" unicode="&#x430;" horiz-adv-x="1206" 
d="M809 125q4 -90 20 -129h291q-26 63 -26 162v585q0 203 -125 321t-367 118q-223 0 -347 -101.5t-138 -275.5h286q18 147 199 147q207 0 207 -209v-198q-30 75 -116 116t-199 41q-195 0 -307.5 -97.5t-112.5 -270.5t113 -270t307 -97q122 0 205 44t110 114zM584 174
q-226 0 -226 160q0 162 226 162q225 0 225 -162q0 -160 -225 -160z" />
    <glyph glyph-name="_1054" unicode="&#x431;" horiz-adv-x="1218" 
d="M614 -33q263 0 395 157t132 451q0 304 -118.5 455.5t-328.5 151.5q-120 0 -205 -56t-116 -151q0 140 22 212.5t73.5 108t156.5 54.5l368 65l-78 232l-346 -66q-104 -20 -172.5 -43.5t-126 -68t-90 -103t-54.5 -154.5t-30 -216.5t-8 -295.5q0 -393 124.5 -563t401.5 -170z
M856 575q0 -189 -55.5 -283.5t-186.5 -94.5q-132 0 -186.5 94t-54.5 284q0 188 54.5 281.5t186.5 93.5q131 0 186.5 -94t55.5 -281z" />
    <glyph glyph-name="_1055" unicode="&#x432;" horiz-adv-x="1134" 
d="M666 -4q409 0 409 340q0 102 -52.5 168.5t-150.5 91.5q80 25 126 87.5t46 150.5q0 151 -97.5 235t-299.5 84h-534v-1157h553zM791 348q0 -71 -39.5 -103t-122.5 -32h-232v268h232q82 0 122 -32t40 -101zM397 692v242h217q76 0 111 -29t35 -92t-35 -92t-111 -29h-217z" />
    <glyph glyph-name="_1056" unicode="&#x433;" horiz-adv-x="927" 
d="M889 924v229h-776v-1157h284v928h492z" />
    <glyph glyph-name="_1057" unicode="&#x434;" horiz-adv-x="1228" 
d="M1200 225h-143v928h-858v-422q0 -299 -45 -506h-134v-483h285v254h610v-254h285v483zM442 225q41 199 41 484v215h289v-699h-330z" />
    <glyph glyph-name="_1058" unicode="&#x435;" horiz-adv-x="1208" 
d="M1130 492v83q0 291 -132.5 449t-393.5 158q-260 0 -393 -158.5t-133 -448.5q0 -293 132.5 -450.5t393.5 -157.5q211 0 342 99t160 282h-289q-13 -74 -69.5 -114.5t-143.5 -40.5q-230 0 -239 299h765zM604 956q219 0 238 -268h-473q13 268 235 268z" />
    <glyph glyph-name="_1060" unicode="&#x436;" horiz-adv-x="1691" 
d="M705 709h-105l-231 444h-297l301 -555l-355 -602h306l278 493h103v-493h282v493h103l276 -493h305l-352 602l299 555h-295l-231 -444h-105v444h-282v-444z" />
    <glyph glyph-name="_1061" unicode="&#x437;" horiz-adv-x="1124" 
d="M381 702v-223h170q101 0 157 -37.5t56 -105.5q0 -70 -56 -109t-155 -39q-97 0 -154 39t-57 103v6h-285v-17q0 -158 132.5 -255t363.5 -97q232 0 364 97t132 255q0 108 -64.5 181t-171.5 92q89 21 150 90.5t61 161.5q0 148 -119 243t-346 95q-228 0 -345.5 -97
t-117.5 -251v-21h285v16q0 58 44.5 93.5t133.5 35.5q91 0 135.5 -35.5t44.5 -93.5q0 -57 -45 -92t-135 -35h-178z" />
    <glyph glyph-name="_1062" unicode="&#x438;" horiz-adv-x="1183" 
d="M397 1153h-284v-1157h268l405 702v-702h285v1157h-268l-406 -704v704z" />
    <glyph glyph-name="_1063" unicode="&#x439;" horiz-adv-x="1183" 
d="M397 1153h-284v-1157h268l405 702v-702h285v1157h-268l-406 -704v704zM598 1309q158 0 259 91.5t108 252.5h-236q-3 -73 -37.5 -109.5t-93.5 -36.5q-125 0 -131 146h-238q7 -161 108 -252.5t261 -91.5z" />
    <glyph glyph-name="_1064" unicode="&#x43a;" horiz-adv-x="1136" 
d="M113 -4h284v493h101l315 -493h313l-397 602l346 555h-305l-270 -446h-103v446h-284v-1157z" />
    <glyph glyph-name="_1065" unicode="&#x43b;" horiz-adv-x="1259" 
d="M1147 1153h-928v-793q0 -84 -30 -117.5t-101 -33.5h-59v-225q40 -4 92 -4q204 0 294.5 81t90.5 285v578h356v-928h285v1157z" />
    <glyph glyph-name="_1066" unicode="&#x43c;" horiz-adv-x="1486" 
d="M113 1153v-1157h274v588l256 -588h201l256 588v-588h274v1157h-258l-373 -854l-372 854h-258z" />
    <glyph glyph-name="_1067" unicode="&#x43d;" horiz-adv-x="1171" 
d="M1059 1153h-283v-448h-379v448h-284v-1157h284v479h379v-479h283v1157z" />
    <glyph glyph-name="_1068" unicode="&#x43e;" horiz-adv-x="1208" 
d="M1130 575q0 291 -132.5 449t-393.5 158q-260 0 -393 -158.5t-133 -448.5q0 -293 132.5 -450.5t393.5 -157.5q262 0 394 157.5t132 450.5zM362 575q0 187 55.5 281t186.5 94q132 0 187 -93.5t55 -281.5q0 -190 -55 -284t-187 -94q-131 0 -186.5 94.5t-55.5 283.5z" />
    <glyph glyph-name="_1069" unicode="&#x43f;" horiz-adv-x="1171" 
d="M1059 1153h-946v-1157h284v928h379v-928h283v1157z" />
    <glyph glyph-name="_1070" unicode="&#x440;" horiz-adv-x="1245" 
d="M397 1153h-284v-1659h284v680q31 -95 115.5 -151t202.5 -56q213 0 331.5 151t118.5 457q0 305 -119 456t-331 151q-118 0 -202.5 -56t-115.5 -151v178zM639 197q-131 0 -186.5 94.5t-55.5 283.5q0 187 55.5 281t186.5 94t186.5 -94t55.5 -281q0 -189 -55.5 -283.5
t-186.5 -94.5z" />
    <glyph glyph-name="_1071" unicode="&#x441;" horiz-adv-x="1183" 
d="M78 575q0 -293 132.5 -450.5t393.5 -157.5q225 0 358 109t152 309h-285q-9 -90 -67 -139t-158 -49q-131 0 -186.5 94.5t-55.5 283.5q0 187 55.5 281t186.5 94q100 0 158 -48.5t67 -137.5h285q-19 200 -152 309t-358 109q-260 0 -393 -158.5t-133 -448.5z" />
    <glyph glyph-name="_1072" unicode="&#x442;" horiz-adv-x="1056" 
d="M385 924v-928h285v928h348v229h-979v-229h346z" />
    <glyph glyph-name="_1073" unicode="&#x443;" horiz-adv-x="1202" 
d="M414 -156q-25 -71 -62 -98t-94 -27h-86v-221q33 -4 119 -4q78 0 132.5 12t103 43.5t85 89t68.5 146.5l494 1368h-297l-273 -817l-280 817h-295l436 -1161z" />
    <glyph glyph-name="_1074" unicode="&#x444;" horiz-adv-x="1978" 
d="M1130 174q33 -95 117.5 -151t202.5 -56q211 0 329.5 150.5t118.5 457.5q0 305 -118.5 456t-329.5 151q-118 0 -202.5 -56t-117.5 -151v641h-284v-641q-31 95 -115.5 151t-202.5 56q-212 0 -331 -151t-119 -456q0 -307 118.5 -457.5t331.5 -150.5q118 0 202.5 56
t115.5 151v-680h284v680zM1130 575q0 187 55.5 281t186.5 94q132 0 187 -93.5t55 -281.5q0 -190 -55 -284t-187 -94q-131 0 -186.5 94.5t-55.5 283.5zM846 575q0 -190 -55 -284t-187 -94q-131 0 -186.5 94.5t-55.5 283.5q0 187 55.5 281t186.5 94q132 0 187 -93.5t55 -281.5
z" />
    <glyph glyph-name="_1075" unicode="&#x445;" horiz-adv-x="1124" 
d="M563 408l240 -412h303l-369 594l346 563h-305l-215 -381l-215 381h-303l344 -563l-369 -594h304z" />
    <glyph glyph-name="_1076" unicode="&#x446;" horiz-adv-x="1232" 
d="M1204 225h-145v928h-283v-928h-379v928h-284v-1157h805v-254h286v483z" />
    <glyph glyph-name="_1077" unicode="&#x447;" horiz-adv-x="1134" 
d="M737 -4h285v1157h-285v-512q-32 -32 -87 -51t-115 -19q-84 0 -121 41t-37 136v405h-283v-422q0 -201 94 -294t289 -93q71 0 143.5 20t116.5 52v-420z" />
    <glyph glyph-name="_1078" unicode="&#x448;" horiz-adv-x="1755" 
d="M1642 1153h-284v-928h-338v928h-285v-928h-338v928h-284v-1157h1529v1157z" />
    <glyph glyph-name="_1079" unicode="&#x449;" horiz-adv-x="1814" 
d="M1642 1153h-284v-928h-338v928h-285v-928h-338v928h-284v-1157h1388v-254h285v483h-144v928z" />
    <glyph glyph-name="_1080" unicode="&#x44a;" horiz-adv-x="1341" 
d="M858 -4q203 0 313.5 97.5t110.5 279.5t-110.5 279.5t-313.5 97.5h-227v403h-592v-229h307v-928h512zM997 373q0 -76 -46 -114t-128 -38h-192v301h192q82 0 128 -36.5t46 -112.5z" />
    <glyph glyph-name="_1081" unicode="&#x44b;" horiz-adv-x="1587" 
d="M1190 -4h285v1157h-285v-1157zM627 -4q202 0 312 97.5t110 279.5t-110 279.5t-312 97.5h-230v403h-284v-1157h514zM764 373q0 -76 -46 -114t-128 -38h-193v301h193q82 0 128 -36.5t46 -112.5z" />
    <glyph glyph-name="_1082" unicode="&#x44c;" horiz-adv-x="1107" 
d="M627 -4q202 0 312 97.5t110 279.5t-110 279.5t-312 97.5h-230v403h-284v-1157h514zM764 373q0 -76 -46 -114t-128 -38h-193v301h193q82 0 128 -36.5t46 -112.5z" />
    <glyph glyph-name="_1083" unicode="&#x44d;" horiz-adv-x="1183" 
d="M1106 575q0 290 -133 448.5t-393 158.5q-226 0 -359.5 -108t-150.5 -306h284q7 88 66 135t160 47q110 0 165.5 -66.5t69.5 -197.5h-311v-223h311q-14 -133 -69.5 -199.5t-165.5 -66.5q-101 0 -159.5 47.5t-66.5 134.5h-284q17 -196 150.5 -304t359.5 -108
q261 0 393.5 157.5t132.5 450.5z" />
    <glyph glyph-name="_1084" unicode="&#x44e;" horiz-adv-x="1654" 
d="M1577 575q0 291 -132.5 449t-395.5 158q-234 0 -365 -127.5t-156 -366.5h-131v465h-284v-1157h284v463h131q25 -238 156 -365t365 -127q263 0 395.5 157.5t132.5 450.5zM807 575q0 187 55.5 281t186.5 94q133 0 188 -93.5t55 -281.5q0 -189 -55 -283.5t-188 -94.5
q-131 0 -186.5 94.5t-55.5 283.5z" />
    <glyph glyph-name="_1085" unicode="&#x44f;" horiz-adv-x="1155" 
d="M391 248q12 147 176 147h191v-399h284v1157h-532q-209 0 -315.5 -87.5t-106.5 -252.5q0 -123 57.5 -197t155.5 -104q-94 -18 -139 -78.5t-53 -169.5l-9 -162q-2 -36 -16 -106h283q13 41 16 102zM373 774q0 77 46 114.5t126 37.5h213v-305h-213q-80 0 -126 38t-46 115z
" />
    <glyph glyph-name="_1059" unicode="&#x451;" horiz-adv-x="1208" 
d="M1130 492v83q0 291 -132.5 449t-393.5 158q-260 0 -393 -158.5t-133 -448.5q0 -293 132.5 -450.5t393.5 -157.5q211 0 342 99t160 282h-289q-13 -74 -69.5 -114.5t-143.5 -40.5q-230 0 -239 299h765zM604 956q219 0 238 -268h-473q13 268 235 268zM528 1626h-280v-291
h280v291zM963 1626h-283v-291h283v291z" />
    <glyph glyph-name="_18159" unicode="&#x2015;" 
d="M94 872v-245h1778v245h-1778z" />
    <glyph glyph-name="_114" unicode="&#x2018;" horiz-adv-x="604" 
d="M152 1208h309v308h-156q0 134 156 143v133q-151 -6 -230 -80.5t-79 -195.5v-308z" />
    <glyph glyph-name="_115" unicode="&#x2019;" horiz-adv-x="604" 
d="M453 1792h-310v-307h154q0 -137 -154 -146v-131q151 4 230.5 79.5t79.5 197.5v307z" />
    <glyph glyph-name="_8238" unicode="&#x201b;" horiz-adv-x="983" 
d="M463 1634q0 -61 -28 -88.5t-87 -27.5q40 -132 197 -179l-27 -61q-287 58 -287 356q0 60 27 87.5t88 27.5q60 0 88.5 -27.5t28.5 -87.5z" />
    <glyph glyph-name="_116" unicode="&#x201c;" horiz-adv-x="1024" 
d="M573 1208h308v308h-154q0 134 154 143v133q-151 -6 -229.5 -80.5t-78.5 -195.5v-308zM143 1208h310v308h-156q0 134 156 143v133q-151 -6 -230.5 -80.5t-79.5 -195.5v-308z" />
    <glyph glyph-name="_117" unicode="&#x201d;" horiz-adv-x="1024" 
d="M453 1792h-310v-307h154q0 -137 -154 -146v-131q151 4 230.5 79.5t79.5 197.5v307zM881 1792h-308v-307h154q0 -137 -154 -146v-131q150 4 229 79.5t79 197.5v307z" />
    <glyph glyph-name="_8237" unicode="&#x201f;" horiz-adv-x="983" 
d="M469 1634q0 -61 -28 -88.5t-87 -27.5q40 -132 197 -179l-27 -61q-286 58 -286 356q0 61 26.5 88t87.5 27q60 0 88.5 -27.5t28.5 -87.5zM776 1634q0 -61 -27.5 -88.5t-86.5 -27.5q40 -132 196 -179l-27 -61q-286 58 -286 356q0 61 26.5 88t87.5 27q60 0 88.5 -27.5
t28.5 -87.5z" />
    <glyph glyph-name="_245" unicode="&#x2020;" 
d="M1493 1337h-379v389h-262v-389h-379v-229h379v-1415h262v1415h379v229z" />
    <glyph glyph-name="_246" unicode="&#x2021;" 
d="M473 82h379v-389h262v389h379v227h-379v799h379v229h-379v389h-262v-389h-379v-229h379v-799h-379v-227z" />
    <glyph glyph-name="_8607" unicode="&#x2022;" 
d="M1227 801q0 -99 -70.5 -169.5t-171.5 -70.5q-102 0 -174 70.5t-72 169.5q0 97 72 167t174 70q101 0 171.5 -70t70.5 -167z" />
    <glyph glyph-name="_8058" unicode="&#x2025;" 
d="M1587 1024h-309v-307h309v307zM686 1024h-309v-307h309v307z" />
    <glyph glyph-name="_106" unicode="&#x2026;" 
d="M1731 1024h-289v-307h289v307zM522 1024h-289v-307h289v307zM1126 1024h-288v-307h288v307z" />
    <glyph glyph-name="_216" unicode="&#x2030;" horiz-adv-x="2637" 
d="M479 -4h234q110 270 331 809.5t332 810.5h-233q-110 -271 -331.5 -810.5t-332.5 -809.5zM791 1206q0 217 -87.5 328t-257.5 111q-169 0 -255.5 -111t-86.5 -328q0 -438 342 -438q345 0 345 438zM336 1206q0 133 24.5 187.5t85.5 54.5q63 0 88 -54.5t25 -187.5
q0 -132 -23.5 -186.5t-89.5 -54.5q-63 0 -86.5 55t-23.5 186zM1063 406q0 -215 87 -327t257 -112q169 0 256.5 110.5t87.5 328.5q0 216 -87.5 327t-256.5 111q-170 0 -257 -111.5t-87 -326.5zM1520 406q0 -131 -24.5 -186.5t-88.5 -55.5t-88.5 55.5t-24.5 186.5
q0 134 25 187.5t88 53.5q62 0 87.5 -54t25.5 -187zM1845 406q0 -217 87 -328t257 -111q169 0 256.5 112t87.5 327t-87.5 326.5t-256.5 111.5q-170 0 -257 -110.5t-87 -327.5zM2302 406q0 -132 -25.5 -187t-87.5 -55q-64 0 -88 55t-24 187q0 134 24.5 187.5t87.5 53.5
q61 0 87 -54t26 -187z" />
    <glyph glyph-name="_139" unicode="&#x2032;" horiz-adv-x="485" 
d="M47 1096h223l168 520h-282z" />
    <glyph glyph-name="_140" unicode="&#x2033;" horiz-adv-x="868" 
d="M47 1096h223l168 520h-282zM432 1096h219l170 520h-280z" />
    <glyph glyph-name="_8612" unicode="&#x2039;" 
d="M238 801l1491 907v-74l-1346 -833l1346 -830v-80z" />
    <glyph glyph-name="_8613" unicode="&#x203a;" 
d="M238 1708l1491 -907l-1491 -910v80l1347 830l-1347 833v74z" />
    <glyph glyph-name="_156" unicode="&#x203b;" 
d="M1763 1411l-166 168l-614 -616l-614 616l-166 -168l614 -614l-614 -615l166 -166l614 615l614 -615l166 166l-614 615zM1176 1442q0 83 -56 138.5t-139 55.5t-139 -55.5t-56 -138.5t56 -139t139 -56t139 56t56 139zM1176 166q0 82 -56 138t-139 56t-139 -56t-56 -138
q0 -83 56 -139t139 -56t139 56t56 139zM1806 797q0 83 -56 138.5t-138 55.5q-83 0 -139 -55.5t-56 -138.5t56 -139t139 -56q82 0 138 56t56 139zM547 797q0 83 -56.5 138.5t-138.5 55.5q-83 0 -138.5 -55.5t-55.5 -138.5t55.5 -139t138.5 -56q82 0 138.5 56t56.5 139z" />
    <glyph glyph-name="_8763" unicode="&#x203c;" 
d="M715 395h-103l-53 830v426h211v-426zM532 100q0 67 32 99t98 32q69 0 100 -31.5t31 -99.5q0 -69 -31 -99t-100 -30q-67 0 -98.5 30.5t-31.5 98.5zM1354 395h-103l-53 830v426h211v-426zM1171 100q0 67 31.5 99t97.5 32q69 0 100.5 -31.5t31.5 -99.5q0 -69 -31.5 -99
t-100.5 -30q-67 0 -98 30.5t-31 98.5z" />
    <glyph glyph-name="_8599" unicode="&#x2042;" 
d="M737 635l-149 -203l243 21v-131l-243 22l143 -205l-117 -71l-102 231l-102 -229l-119 67l147 207l-252 -22v131l252 -21l-149 205l114 72l109 -232l104 228zM1686 635l-148 -203l242 21v-131l-242 22l143 -205l-118 -71l-103 231l-102 -229l-119 67l145 207l-249 -22v131
l249 -21l-147 205l115 72l108 -232l109 228zM1233 1042l-203 150l17 -244h-127l20 244l-203 -143l-73 116l233 103l-229 102l63 119l209 -146l-20 250h127l-17 -250l205 148l74 -115l-234 -108l228 -105z" />
    <glyph glyph-name="_845" unicode="&#x2074;" horiz-adv-x="864" 
d="M276 940l201 344v-344h-201zM827 940h-110v676h-273l-407 -692v-189h440v-192h240v192h110v205z" />
    <glyph glyph-name="_8239" unicode="&#x207a;" horiz-adv-x="983" 
d="M791 1364v-127h-234v-268h-129v268h-235v127h235v268h129v-268h234z" />
    <glyph glyph-name="_8240" unicode="&#x207b;" horiz-adv-x="983" 
d="M193 1237v127h598v-127h-598z" />
    <glyph glyph-name="_8248" unicode="&#x207c;" horiz-adv-x="983" 
d="M223 1352v123h535v-123h-535zM223 1106v123h535v-123h-535z" />
    <glyph glyph-name="_8250" unicode="&#x207d;" horiz-adv-x="983" 
d="M885 823h-105q-66 85 -116 208t-50 263q0 138 50.5 262.5t115.5 208.5h103q-140 -225 -140 -471q0 -111 35 -235t107 -236z" />
    <glyph glyph-name="_8251" unicode="&#x207e;" horiz-adv-x="983" 
d="M205 823h-105q72 112 107 236t35 235q0 246 -140 471h103q65 -84 115.5 -208.5t50.5 -262.5q0 -140 -50 -263t-116 -208z" />
    <glyph glyph-name="_846" unicode="&#x207f;" horiz-adv-x="864" 
d="M86 545h233v481q0 76 36 117t98 41q92 0 92 -111v-528h231v559q0 136 -64 205t-175 69q-84 0 -141.5 -42.5t-76.5 -110.5v131h-233v-811z" />
    <glyph glyph-name="_847" unicode="&#x2081;" horiz-adv-x="864" 
d="M596 -4v1073h-205l-264 -119v-215l225 103v-842h244z" />
    <glyph glyph-name="_848" unicode="&#x2082;" horiz-adv-x="864" 
d="M78 717h241v39q0 54 29.5 85t83.5 31q52 0 81.5 -31.5t29.5 -84.5q0 -71 -58 -135l-387 -449v-176h686v207h-364l242 276q67 77 94.5 138t27.5 141q0 152 -98 240.5t-254 88.5q-164 0 -259 -89t-95 -240v-41z" />
    <glyph glyph-name="_849" unicode="&#x2083;" horiz-adv-x="864" 
d="M432 887q50 0 77.5 -30t27.5 -83q0 -54 -30 -84.5t-89 -30.5h-84v-200h84q139 0 139 -140q0 -66 -33 -103.5t-92 -37.5t-93 38.5t-34 105.5v28h-242v-39q0 -146 97.5 -240t271.5 -94q175 0 272 93.5t97 242.5q0 199 -183 254q154 55 154 228q0 133 -93 212.5t-247 79.5
q-155 0 -248.5 -78.5t-93.5 -209.5v-35h236v14q0 51 27.5 80t78.5 29z" />
    <glyph glyph-name="_850" unicode="&#x2084;" horiz-adv-x="864" 
d="M276 393l201 344v-344h-201zM827 393h-110v676h-273l-407 -692v-187h440v-194h240v194h110v203z" />
    <glyph glyph-name="_18160" unicode="&#x20ac;" horiz-adv-x="1462" 
d="M111 868v-127h-91v-143h101q23 -248 135 -405q163 -226 498 -226q281 0 446.5 156.5t177.5 417.5h-299q-8 -150 -92 -234t-233 -84q-172 0 -256 123q-65 93 -78 252h360l25 143h-395v127h415l25 144h-430q13 156 78 252q83 122 256 122q149 0 233 -84t92 -233h299
q-12 261 -177.5 418.5t-446.5 157.5q-333 0 -498 -228q-112 -157 -135 -405h-101v-144h91z" />
    <glyph glyph-name="_141" unicode="&#x2103;" 
d="M682 1337q0 125 -87 211t-222 86q-133 0 -220 -86t-87 -211t87 -211t220 -86q135 0 222 86t87 211zM479 1337q0 -47 -29.5 -77.5t-76.5 -30.5t-77 30.5t-30 77.5t30 78t77 31t76.5 -30.5t29.5 -78.5zM682 807q0 -519 221 -711q147 -129 402 -129q273 0 432.5 156.5
t171.5 417.5h-299q-8 -150 -86.5 -234t-218.5 -84q-131 0 -205 74q-62 64 -90.5 188t-28.5 322q0 188 25 308t81 185q74 86 218 86q141 0 219 -83.5t86 -233.5h299q-12 262 -171.5 419t-432.5 157q-269 0 -424 -158q-199 -205 -199 -680z" />
    <glyph glyph-name="_215" unicode="&#x2109;" 
d="M811 -4h301v680h602v254h-602v430h674v256h-975v-1620zM682 1337q0 125 -87 211t-222 86q-133 0 -220 -86t-87 -211t87 -211t220 -86q135 0 222 86t87 211zM479 1337q0 -47 -29.5 -77.5t-76.5 -30.5t-77 30.5t-30 77.5t30 78t77 31t76.5 -30.5t29.5 -78.5z" />
    <glyph glyph-name="_590" unicode="&#x2113;" horiz-adv-x="1204" 
d="M711 203q-78 0 -119 53.5t-45 169.5q267 128 413 322.5t146 445.5v18q0 204 -110 318.5t-312 114.5q-203 0 -312.5 -114.5t-109.5 -320.5v-628q-109 -37 -233 -64l90 -229q69 13 153 37q32 -177 146 -268t289 -91q173 0 285 86.5t147 247.5l-277 55q-32 -153 -151 -153z
M821 1194q0 -304 -274 -479v499q0 189 137 189t137 -186v-23z" />
    <glyph glyph-name="_258" unicode="&#x2116;" horiz-adv-x="2062" 
d="M819 -4h266v1620h-284v-993l-406 993h-264v-1620h285v991zM1217 -4h753v209h-753v-209zM1978 758q0 235 -91 353t-294 118q-205 0 -295 -118t-90 -353q0 -236 90.5 -354.5t294.5 -118.5q203 0 294 119t91 354zM1729 758q0 -143 -30 -202.5t-106 -59.5q-75 0 -105 59.5
t-30 202.5q0 142 30 202t105 60t105.5 -60t30.5 -202z" />
    <glyph glyph-name="_263" unicode="&#x2121;" 
d="M1563 492q2 25 2 83q0 320 -109 463.5t-326 143.5q-218 0 -326 -143t-108 -464q0 -323 107.5 -465.5t326.5 -142.5q181 0 284.5 93t133.5 290h-284q-12 -86 -45 -123t-91 -37q-75 0 -108.5 67t-40.5 235h584zM10 1360h305v-1364h301v1364h306v256h-912v-256zM1913 -4
v1620h-283v-1620h283zM1130 956q74 0 110 -62.5t40 -205.5h-299q3 143 38.5 205.5t110.5 62.5z" />
    <glyph glyph-name="_260" unicode="&#x2122;" horiz-adv-x="1527" 
d="M18 1450h193v-606h201v606h190v166h-584v-166zM1108 844l147 342v-342h189v772h-170l-225 -535l-224 535h-170v-772h189v342l147 -342h117z" />
    <glyph glyph-name="_643" unicode="&#x2126;" horiz-adv-x="1472" 
d="M735 1645q-336 0 -495 -228q-146 -205 -146 -571q0 -223 72 -375.5t199 -218.5h-244v-256h547v256q-141 55 -208 187.5t-67 367.5q0 179 20.5 283.5t65.5 173.5q83 122 256 122t256 -122q46 -68 66 -172t20 -285q0 -235 -66 -367.5t-206 -187.5v-256h545v256h-242
q126 66 198 219t72 375q0 363 -145 571q-159 228 -498 228z" />
    <glyph glyph-name="_142" unicode="&#x212b;" 
d="M596 -4l96 332h580l98 -332h309l-493 1526q104 87 104 227q0 125 -87 211t-222 86q-133 0 -220 -86t-87 -211q0 -144 106 -227l-493 -1526h309zM1198 582h-432l217 737zM1087 1749q0 -48 -29.5 -78.5t-76.5 -30.5t-77 31t-30 78t30 78t77 31t76.5 -30.5t29.5 -78.5z" />
    <glyph glyph-name="_749" unicode="&#x2153;" 
d="M535 543v1073h-205l-264 -121v-213l225 102v-841h244zM1405 1616h-240l-790 -1620h239zM1520 887q50 0 77 -30t27 -83q0 -54 -30 -84.5t-89 -30.5h-84v-200h84q70 0 105 -34t35 -106q0 -65 -33.5 -103t-91.5 -38t-92.5 39t-34.5 105v28h-242v-39q0 -146 97.5 -240
t271.5 -94q175 0 271.5 93t96.5 243q0 200 -182 254q156 55 156 228q0 133 -94 212.5t-248 79.5q-155 0 -248.5 -78.5t-93.5 -209.5v-35h235v14q0 50 28.5 79.5t78.5 29.5z" />
    <glyph glyph-name="_750" unicode="&#x2154;" 
d="M1550 887q50 0 77.5 -30t27.5 -83q0 -54 -30 -84.5t-89 -30.5h-84v-200h84q70 0 104.5 -33.5t34.5 -106.5q0 -65 -33.5 -103t-91.5 -38t-92.5 39t-34.5 105v28h-241v-39q0 -147 97 -240.5t271 -93.5q175 0 272 93.5t97 242.5q0 200 -182 254q155 55 155 228
q0 133 -94 212.5t-248 79.5q-155 0 -248.5 -78.5t-93.5 -209.5v-35h236v14q0 50 28 79.5t78 29.5zM45 1262h242v38q0 55 28.5 86t83.5 31q52 0 81.5 -31.5t29.5 -85.5q0 -70 -57 -133l-387 -448v-176h667l-266 -547h240l790 1620h-240l-505 -1036v170h-365l242 276
q67 75 95 137t28 140q0 153 -98.5 242t-254.5 89q-164 0 -259 -89t-95 -242v-41z" />
    <glyph glyph-name="_753" unicode="&#x215b;" 
d="M1520 -25q174 0 276 93t102 241q0 95 -47 163.5t-133 100.5q71 24 112.5 87t41.5 139q0 130 -95 208t-257 78t-257.5 -78t-95.5 -208q0 -76 41.5 -139t112.5 -87q-86 -32 -133 -100.5t-47 -163.5q0 -147 102.5 -240.5t276.5 -93.5zM1520 666q-53 0 -84 28.5t-31 79.5
t31 81t84 30q52 0 83 -30t31 -81t-30.5 -79.5t-83.5 -28.5zM1655 319q0 -68 -37 -106.5t-98 -38.5t-98.5 38.5t-37.5 106.5q0 70 37 109t99 39q61 0 98 -38.5t37 -109.5zM535 543v1073h-205l-264 -121v-213l225 102v-841h244zM1405 1616h-240l-790 -1620h239z" />
    <glyph glyph-name="_754" unicode="&#x215c;" 
d="M1540 -25q174 0 276.5 93.5t102.5 240.5q0 95 -47 163.5t-133 100.5q71 24 112 86.5t41 139.5q0 130 -95 208t-257 78t-257 -78t-95 -208q0 -77 41 -139.5t112 -86.5q-86 -32 -133 -100.5t-47 -163.5q0 -147 102.5 -240.5t276.5 -93.5zM1540 666q-53 0 -84 28.5t-31 79.5
t31 81t84 30t84 -30t31 -81t-31 -79.5t-84 -28.5zM1675 319q0 -68 -37 -106.5t-98 -38.5t-98 38.5t-37 106.5q0 71 37 109.5t98 38.5t98 -38.5t37 -109.5zM406 1432q51 0 77.5 -29.5t26.5 -83.5t-30 -83.5t-89 -29.5h-84v-200h84q139 0 139 -140q0 -66 -33 -103.5t-91 -37.5
q-59 0 -93 38t-34 105v29h-242v-41q0 -145 97.5 -238.5t271.5 -93.5q175 0 271.5 93t96.5 241q0 202 -182 256q153 54 153 225q0 135 -92.5 215t-246.5 80q-155 0 -249 -79.5t-94 -208.5v-35h236v14q0 50 27.5 78.5t79.5 28.5zM1483 1616h-240l-790 -1620h239z" />
    <glyph glyph-name="_755" unicode="&#x215d;" 
d="M1540 -25q174 0 276.5 93.5t102.5 240.5q0 95 -47 163.5t-133 100.5q71 24 112 86.5t41 139.5q0 130 -95 208t-257 78t-257 -78t-95 -208q0 -77 41 -139.5t112 -86.5q-86 -32 -133 -100.5t-47 -163.5q0 -147 102.5 -240.5t276.5 -93.5zM1540 666q-53 0 -84 28.5t-31 79.5
t31 81t84 30t84 -30t31 -81t-31 -79.5t-84 -28.5zM1675 319q0 -68 -37 -106.5t-98 -38.5t-98 38.5t-37 106.5q0 71 37 109.5t98 38.5t98 -38.5t37 -109.5zM1483 1616h-240l-790 -1620h239zM41 852q11 -152 105.5 -239t259.5 -87q170 0 264 97.5t94 267.5q0 168 -79 267
t-218 99q-101 0 -156 -65l13 219h387v205h-607l-28 -621h221q13 30 43.5 48t65.5 18q57 0 88.5 -43.5t31.5 -124.5q0 -79 -31.5 -122.5t-88.5 -43.5q-53 0 -85 32.5t-38 92.5h-242z" />
    <glyph glyph-name="_756" unicode="&#x215e;" 
d="M1540 -25q174 0 276.5 93.5t102.5 240.5q0 95 -47 163.5t-133 100.5q71 24 112 86.5t41 139.5q0 130 -95 208t-257 78t-257 -78t-95 -208q0 -77 41 -139.5t112 -86.5q-86 -32 -133 -100.5t-47 -163.5q0 -147 102.5 -240.5t276.5 -93.5zM1540 666q-53 0 -84 28.5t-31 79.5
t31 81t84 30t84 -30t31 -81t-31 -79.5t-84 -28.5zM1675 319q0 -68 -37 -106.5t-98 -38.5t-98 38.5t-37 106.5q0 71 37 109.5t98 38.5t98 -38.5t37 -109.5zM1442 1616h-240l-790 -1620h239zM68 1407h454l-336 -864h254l340 903v170h-712v-209z" />
    <glyph glyph-name="_461" unicode="&#x2160;" 
d="M1253 -4v250h-125v1120h125v250h-542v-250h125v-1120h-125v-250h542z" />
    <glyph glyph-name="_462" unicode="&#x2161;" 
d="M926 -4v246h-109v1128h109v246h-502v-246h108v-1128h-108v-246h502zM1540 -4v246h-108v1128h108v246h-502v-246h109v-1128h-109v-246h502z" />
    <glyph glyph-name="_463" unicode="&#x2162;" 
d="M1219 -4v242h-101v1136h101v242h-474v-242h101v-1136h-101v-242h474zM686 -4v242h-100v1136h100v242h-473v-242h100v-1136h-100v-242h473zM1751 -4v242h-100v1136h100v242h-473v-242h100v-1136h-100v-242h473z" />
    <glyph glyph-name="_464" unicode="&#x2163;" 
d="M686 -4v242h-100v1136h100v242h-473v-242h100v-1136h-100v-242h473zM1280 338l-274 1278h-289l381 -1620h364l381 1620h-289z" />
    <glyph glyph-name="_465" unicode="&#x2164;" 
d="M983 338l-387 1278h-309l524 -1620h344l524 1620h-309z" />
    <glyph glyph-name="_466" unicode="&#x2165;" 
d="M686 338l-274 1278h-289l381 -1620h364l381 1620h-288zM1280 -4h473v242h-100v1136h100v242h-473v-242h100v-1136h-100v-242z" />
    <glyph glyph-name="_467" unicode="&#x2166;" 
d="M508 342l-182 1274h-285l283 -1620h368l283 1620h-285zM989 -4h432v237h-88v1145h88v238h-432v-238h88v-1145h-88v-237zM1462 -4h432v237h-88v1145h88v238h-432v-238h88v-1145h-88v-237z" />
    <glyph glyph-name="_468" unicode="&#x2167;" 
d="M1911 -4v229h-56v1161h56v230h-350v-230h55v-1161h-55v-229h350zM1522 -4v229h-66v1161h66v230h-371v-230h66v-1161h-66v-229h371zM1112 -4v229h-55v1161h55v230h-350v-230h55v-1161h-55v-229h350zM391 342l-86 1274h-268l160 -1620h389l159 1620h-268z" />
    <glyph glyph-name="_469" unicode="&#x2168;" 
d="M987 1616h-287l433 -791l-453 -829h287l309 565l309 -565h287l-453 829l432 791h-286l-289 -529zM193 -4h473v242h-101v1136h101v242h-473v-242h100v-1136h-100v-242z" />
    <glyph glyph-name="_470" unicode="&#x2169;" 
d="M633 -4l350 629l348 -629h326l-488 838l453 782h-326l-313 -578l-315 578h-326l451 -782l-486 -838h326z" />
    <glyph glyph-name="_451" unicode="&#x2170;" 
d="M838 1352h284v264h-284v-264zM838 -4h284v1157h-284v-1157z" />
    <glyph glyph-name="_452" unicode="&#x2171;" 
d="M1126 1352h281v264h-281v-264zM1126 -4h281v1157h-281v-1157zM553 1352h281v264h-281v-264zM553 -4h281v1157h-281v-1157z" />
    <glyph glyph-name="_453" unicode="&#x2172;" 
d="M842 1352h276v264h-276v-264zM842 -4h276v1157h-276v-1157zM391 1352h277v264h-277v-264zM391 -4h277v1157h-277v-1157zM1292 1352h277v264h-277v-264zM1292 -4h277v1157h-277v-1157z" />
    <glyph glyph-name="_454" unicode="&#x2173;" 
d="M391 1352h277v264h-277v-264zM391 -4h277v1157h-277v-1157zM1389 -4l368 1157h-289l-239 -860l-242 860h-289l371 -1157h320z" />
    <glyph glyph-name="_455" unicode="&#x2174;" 
d="M1143 -4l409 1157h-295l-274 -868l-276 868h-295l411 -1157h320z" />
    <glyph glyph-name="_456" unicode="&#x2175;" 
d="M926 -4l368 1157h-288l-240 -860l-242 860h-288l370 -1157h320zM1327 1352h277v264h-277v-264zM1327 -4h277v1157h-277v-1157z" />
    <glyph glyph-name="_457" unicode="&#x2176;" 
d="M745 -4l293 1157h-284l-172 -856l-174 856h-285l295 -1157h327zM1075 1352h268v264h-268v-264zM1075 -4h268v1157h-268v-1157zM1444 1352h268v264h-268v-264zM1444 -4h268v1157h-268v-1157z" />
    <glyph glyph-name="_458" unicode="&#x2177;" 
d="M635 -4l219 1157h-276l-119 -860l-121 860h-277l222 -1157h352zM1571 1352h260v264h-260v-264zM1571 -4h260v1157h-260v-1157zM1233 1352h260v264h-260v-264zM1233 -4h260v1157h-260v-1157zM895 1352h260v264h-260v-264zM895 -4h260v1157h-260v-1157z" />
    <glyph glyph-name="_459" unicode="&#x2178;" 
d="M1464 -4h289l-381 604l348 553h-286l-205 -326l-207 326h-289l350 -555l-381 -602h289l236 375zM391 1352h277v264h-277v-264zM391 -4h277v1157h-277v-1157z" />
    <glyph glyph-name="_460" unicode="&#x2179;" 
d="M983 408l240 -412h303l-369 594l346 563h-305l-215 -381l-215 381h-303l344 -563l-369 -594h303z" />
    <glyph glyph-name="_171" unicode="&#x2190;" 
d="M1894 889h-1294v268l-528 -393l528 -395v268h1294v252z" />
    <glyph glyph-name="_172" unicode="&#x2191;" 
d="M1108 -92v1292h268l-393 533l-395 -533h268v-1292h252z" />
    <glyph glyph-name="_170" unicode="&#x2192;" 
d="M72 637h1290v-268l532 395l-532 393v-268h-1290v-252z" />
    <glyph glyph-name="_173" unicode="&#x2193;" 
d="M856 1733v-1295h-268l395 -530l393 530h-268v1295h-252z" />
    <glyph glyph-name="_174" unicode="&#x2194;" 
d="M600 1157l-528 -393l528 -395v268h764v-268l530 395l-530 393v-268h-764v268z" />
    <glyph glyph-name="_247" unicode="&#x2195;" 
d="M588 438l395 -530l393 530h-268v764h268l-393 531l-395 -531h268v-764h-268z" />
    <glyph glyph-name="_250" unicode="&#x2196;" 
d="M1671 207l-911 913l188 189l-653 100l96 -657l191 190l911 -913z" />
    <glyph glyph-name="_248" unicode="&#x2197;" 
d="M473 29l911 913l191 -190l96 657l-653 -100l188 -189l-911 -913z" />
    <glyph glyph-name="_251" unicode="&#x2198;" 
d="M295 1231l911 -914l-188 -188l653 -100l-96 657l-191 -190l-911 913z" />
    <glyph glyph-name="_249" unicode="&#x2199;" 
d="M1493 1409l-911 -913l-191 190l-96 -657l653 100l-188 188l911 914z" />
    <glyph glyph-name="_8868" unicode="&#x21b0;" 
d="M455 1257h1325v-1411h-51v1362h-1274v-266l-271 289l271 285v-259z" />
    <glyph glyph-name="_8865" unicode="&#x21b1;" 
d="M195 1247h1304v256l273 -284l-273 -287v264h-1255v-1350h-49v1401z" />
    <glyph glyph-name="_8864" unicode="&#x21b2;" 
d="M1788 297h-1342v-258l-270 283l270 288v-258h1289v1391h53v-1446z" />
    <glyph glyph-name="_8869" unicode="&#x21b3;" 
d="M1495 313h-1298v1430h51v-1381h1247v263l272 -287l-272 -287v262z" />
    <glyph glyph-name="_8867" unicode="&#x21b4;" 
d="M1565 1454v-1335h258l-281 -273l-291 273h260v1284h-1370v51h1424z" />
    <glyph glyph-name="_8884" unicode="&#x21bc;" 
d="M481 1061q48 33 98 58t86 37.5t68.5 20.5t46 9.5t17.5 1.5q-13 -7 -42 -24t-89.5 -63t-104.5 -95q-38 -42 -72 -89t-50 -72.5t-17 -25.5h1501v-47h-1880q38 31 183 122.5t255 166.5z" />
    <glyph glyph-name="_8885" unicode="&#x21c0;" 
d="M1483 1061q115 -79 259 -169.5t181 -119.5h-1882v47h1501l-16 25q-15 26 -49 73t-72 89q-45 49 -104 94t-93 65.5t-41 22.5q12 0 45.5 -6t114.5 -37.5t156 -83.5z" />
    <glyph glyph-name="_8896" unicode="&#x21c4;" 
d="M1272 1358l641 -248l-641 -252l213 191h-1397v120h1401zM1878 551v-123h-1399l215 -186l-641 247l641 248l-217 -186h1401z" />
    <glyph glyph-name="_8897" unicode="&#x21c5;" 
d="M420 1087l250 639l248 -639l-191 211v-1390h-121v1395zM1235 1688h121v-1391l188 215l-252 -637l-248 637l191 -217v1393z" />
    <glyph glyph-name="_8816" unicode="&#x21cd;" 
d="M1096 952h-828l-162 -157l164 -160h740zM322 1004h788l107 399l49 -14l-103 -385h760v-52h-774l-86 -317h860v-53h-872l-111 -408l-49 12l104 396h-673l280 -287l-35 -31l-524 531l522 526l35 -35z" />
    <glyph glyph-name="_8815" unicode="&#x21cf;" 
d="M1640 592h-819l-108 -418l-54 12l109 406h-725v55h741l86 316h-827v51h840l104 389l49 -14l-98 -375h702l-280 284l37 37l526 -534l-528 -527l-37 35zM924 963l-88 -316h854l165 156l-161 160h-770z" />
    <glyph glyph-name="_8814" unicode="&#x21d0;" 
d="M1923 582h-1601l280 -287l-35 -31l-524 531l522 526l35 -35l-278 -282h1601v-52h-1655l-162 -157l162 -160h1655v-53z" />
    <glyph glyph-name="_8854" unicode="&#x21d1;" 
d="M801 1741v-1895h-51v1737l-617 -739l-49 45zM1159 1741v-1895h55v1737l617 -739l49 45z" />
    <glyph glyph-name="_195" unicode="&#x21d2;" 
d="M1030 1225l207 -164h-1163v-193h1407l139 -110l-147 -121h-1399v-191h1167l-211 -174l123 -141l737 627l-739 606z" />
    <glyph glyph-name="_8855" unicode="&#x21d3;" 
d="M801 1733v-1891l-717 852l49 45l617 -741v1735h51zM1159 -158v1891h55v-1735l617 741l49 -45z" />
    <glyph glyph-name="_196" unicode="&#x21d4;" 
d="M1313 1061h-660l187 164l-121 137l-678 -604l676 -625l123 139l-191 174h668l-191 -174l123 -139l676 625l-678 604l-121 -137zM434 868h1096l127 -110l-133 -121h-1084l-131 121z" />
    <glyph glyph-name="_9190" unicode="&#x21e0;" 
d="M459 1214v-841l-389 420zM926 780q0 56 -40 95.5t-95 39.5q-56 0 -96 -40t-40 -95t40 -95t96 -40q55 0 95 39.5t40 95.5zM1413 780q0 56 -39.5 95.5t-95.5 39.5t-95.5 -39.5t-39.5 -95.5t39.5 -95.5t95.5 -39.5t95.5 39.5t39.5 95.5zM1896 780q0 56 -40 95.5t-95 39.5
t-95 -39.5t-40 -95.5t40 -95.5t95 -39.5t95 39.5t40 95.5z" />
    <glyph glyph-name="_9192" unicode="&#x21e1;" 
d="M559 1315h846l-418 391zM995 158q-55 0 -95 -40t-40 -95q0 -56 40 -96t95 -40t95 40t40 96q0 55 -40 95t-95 40zM995 645q-55 0 -95 -39.5t-40 -95.5t40 -95.5t95 -39.5t95 39.5t40 95.5t-40 95.5t-95 39.5zM995 1128q-55 0 -95 -40t-40 -95t40 -95t95 -40t95 40t40 95
t-40 95t-95 40z" />
    <glyph glyph-name="_9191" unicode="&#x21e2;" 
d="M1509 1217v-842l389 420zM336 780q0 56 -40 95.5t-95 39.5t-95 -39.5t-40 -95.5t40 -95.5t95 -39.5t95 39.5t40 95.5zM823 780q0 56 -39.5 95.5t-95.5 39.5t-95.5 -39.5t-39.5 -95.5t39.5 -95.5t95.5 -39.5t95.5 39.5t39.5 95.5zM1307 780q0 55 -40 95t-96 40
q-55 0 -95 -39.5t-40 -95.5t40 -95.5t95 -39.5q56 0 96 40t40 95z" />
    <glyph glyph-name="_9193" unicode="&#x21e3;" 
d="M559 274h846l-418 -391zM995 731q-55 0 -95 -39.5t-40 -95.5t40 -95.5t95 -39.5t95 39.5t40 95.5t-40 95.5t-95 39.5zM995 1219q-55 0 -95 -40t-40 -96q0 -55 40 -95t95 -40t95 40t40 95q0 56 -40 96t-95 40zM995 1702q-55 0 -95 -40t-40 -95t40 -95t95 -40t95 40t40 95
t-40 95t-95 40z" />
    <glyph glyph-name="_9198" unicode="&#x21e6;" 
d="M1837 506v571h-1051v344l-632 -628l632 -633v346h1051zM1894 1135v-684h-1054v-428l-770 772l770 768v-428h1054z" />
    <glyph glyph-name="_9200" unicode="&#x21e7;" 
d="M1272 -57h-576v1044h-346l635 635l635 -633h-348v-1046zM639 -115h688v1051h428l-770 770l-774 -772h428v-1049z" />
    <glyph glyph-name="_9199" unicode="&#x21e8;" 
d="M127 506v571h1051v344l632 -628l-632 -633v346h-1051zM70 1135v-684h1054v-428l770 772l-770 768v-428h-1054z" />
    <glyph glyph-name="_9201" unicode="&#x21e9;" 
d="M1272 1647h-576v-1045h-346l635 -635l635 633h-348v1047zM639 1704h688v-1051h428l-770 -770l-774 772h428v1049z" />
    <glyph glyph-name="_197" unicode="&#x2200;" 
d="M1370 1616l-96 -332h-580l-98 332h-309l524 -1620h344l524 1620h-309zM768 1030h432l-217 -737z" />
    <glyph glyph-name="_151" unicode="&#x2202;" 
d="M825 1231q24 79 78 124.5t135 45.5q109 0 157 -88.5t48 -274.5q0 -64 -6 -135q-31 67 -106.5 105.5t-178.5 38.5q-229 0 -373.5 -151.5t-144.5 -418.5q0 -240 129.5 -375t347.5 -135q326 0 473.5 255t147.5 786q0 322 -114 479.5t-357 157.5q-203 0 -339 -107.5
t-192 -306.5h295zM940 211q-103 0 -160 66t-57 184q0 153 71 247.5t197 94.5q104 0 159.5 -67t55.5 -191q0 -150 -70.5 -242t-195.5 -92z" />
    <glyph glyph-name="_198" unicode="&#x2203;" 
d="M1460 1616h-997v-256h696v-447h-602v-254h602v-407h-686v-256h987v1620z" />
    <glyph glyph-name="_8715" unicode="&#x2206;" 
d="M313 102l631 1334q19 45 47 45q22 0 43 -43l611 -1307q21 -46 24 -76q0 -32 -67 -32h-1248q-32 0 -44.5 5.5t-12.5 22.5q0 14 16 51zM1442 166l-506 1077l-510 -1077h1016z" />
    <glyph glyph-name="_152" unicode="&#x2207;" 
d="M287 1616l524 -1620h344l524 1620h-1392zM983 293l-313 1069h626z" />
    <glyph glyph-name="_184" unicode="&#x2208;" 
d="M477 920q60 303 537 303h717v247h-723q-183 0 -330.5 -40.5t-257 -122t-168.5 -211.5t-59 -301q0 -172 59 -302.5t168.5 -212t257 -122.5t330.5 -41h723v245h-717q-479 0 -539 312h1256v246h-1254z" />
    <glyph glyph-name="_8749" unicode="&#x2209;" 
d="M924 303l-56 -199l-67 23l49 180q-210 26 -352 167.5t-142 326.5q0 100 45.5 191.5t122 158.5t183 107t223.5 40h194l68 242l72 -24l-62 -218h406v-75h-426l-107 -379h533v-76h-555l-109 -389h664v-76h-678h-6zM442 844h557l105 379h-174q-183 0 -325.5 -109.5
t-162.5 -269.5zM870 381l107 387h-535q13 -151 136.5 -259.5t291.5 -127.5z" />
    <glyph glyph-name="_185" unicode="&#x220b;" 
d="M233 920v-246h1256q-60 -312 -539 -312h-717v-245h723q183 0 331 41t257 122.5t168.5 212t59.5 302.5q0 171 -59.5 301t-168.5 211.5t-257 122t-331 40.5h-723v-247h717q477 0 537 -303h-1254z" />
    <glyph glyph-name="_8750" unicode="&#x220c;" 
d="M838 303l-56 -199l-67 23l49 176h-408v76h428l107 389h-535v76h557l105 379h-662v75h678h4l68 242l72 -24l-64 -224q210 -26 352 -166.5t142 -324.5q0 -133 -76.5 -247.5t-209.5 -182.5t-288 -68h-196zM858 379h176q185 0 329 112.5t159 276.5h-555zM1094 1219l-105 -375
h531q-19 146 -140 251t-286 124z" />
    <glyph glyph-name="_213" unicode="&#x220f;" 
d="M1260 -158h299v1774h-1151v-1774h301v1518h551v-1518z" />
    <glyph glyph-name="_212" unicode="&#x2211;" 
d="M438 86v-244h1090v254h-752l350 582v78l-352 604h754v256h-1090v-254l377 -643z" />
    <glyph glyph-name="_8726" unicode="&#x2213;" 
d="M317 1444v72h1332v-72h-1332zM317 686v74h625v524h76v-524h631v-74h-631v-504h-76v504h-625z" />
    <glyph glyph-name="_178" unicode="&#x221a;" 
d="M1253 1501h633v232h-866l-449 -1635l-215 508h-317l403 -864h312z" />
    <glyph glyph-name="_180" unicode="&#x221d;" 
d="M838 762q-105 -141 -228 -141q-65 0 -105 38.5t-40 102.5t40 101.5t105 37.5q124 0 228 -139zM1470 666q-48 -45 -116 -45q-126 0 -228 141q101 139 228 139q54 0 104 -33l119 199q-90 49 -209 49q-110 0 -210 -55t-175 -162q-76 106 -177 160.5t-210 54.5
q-176 0 -278.5 -95t-102.5 -257q0 -163 102 -257.5t279 -94.5q109 0 210 54t177 161q75 -108 175 -162.5t210 -54.5q144 0 242 67z" />
    <glyph glyph-name="_136" unicode="&#x221e;" 
d="M838 762q-105 -141 -228 -141q-65 0 -105 38.5t-40 102.5t40 101.5t105 37.5q124 0 228 -139zM1126 762q101 139 228 139q65 0 105 -37.5t40 -101.5t-40 -102.5t-105 -38.5q-126 0 -228 141zM983 625q74 -107 174 -161t211 -54q177 0 279 94.5t102 257.5
q0 162 -102.5 257t-278.5 95q-110 0 -210 -54.5t-175 -160.5q-76 106 -177 160.5t-210 54.5q-176 0 -278.5 -95t-102.5 -257q0 -163 102 -257.5t279 -94.5q109 0 210 54t177 161z" />
    <glyph glyph-name="_8717" unicode="&#x221f;" 
d="M383 252v1173h74v-1097h1124v-76h-1198z" />
    <glyph glyph-name="_148" unicode="&#x2220;" 
d="M1645 1360l-172 147l-1266 -1247v-145h1550v209h-1165z" />
    <glyph glyph-name="_8738" unicode="&#x2222;" 
d="M393 836l854 333q-75 131 -219 193v82q198 -80 291 -246l268 105l25 -70l-262 -103q55 -135 55 -329q0 -181 -47 -312l254 -88l-27 -71l-258 90q-92 -180 -299 -262v82q150 63 225 204l-858 304q-41 15 -42 43t40 45zM1329 801q0 178 -51 303l-793 -307l799 -281
q45 119 45 285z" />
    <glyph glyph-name="_8719" unicode="&#x2225;" 
d="M676 -303h231v2032h-231v-2032zM1059 -303h229v2032h-229v-2032z" />
    <glyph glyph-name="_8720" unicode="&#x2226;" 
d="M842 1006l-297 487l65 39l277 -455l260 451l63 -43l-282 -475l180 -301l481 813l66 -43l-504 -842l301 -504l-55 -43l-287 477l-297 -479l-61 41l313 508l-180 301l-516 -844l-60 43z" />
    <glyph glyph-name="_192" unicode="&#x2227;" 
d="M201 96l235 -106l545 1188l551 -1188l233 106l-723 1499h-118z" />
    <glyph glyph-name="_193" unicode="&#x2228;" 
d="M924 -23h118l723 1500l-233 106l-551 -1188l-545 1188l-235 -106z" />
    <glyph glyph-name="_191" unicode="&#x2229;" 
d="M981 1354q193 0 302.5 -152t109.5 -457v-714h266v721q0 183 -41 330.5t-122.5 257t-212 168.5t-302.5 59q-171 0 -301.5 -59.5t-211.5 -168.5t-122 -256.5t-41 -330.5v-721h268v714q0 306 108.5 457.5t299.5 151.5z" />
    <glyph glyph-name="_190" unicode="&#x222a;" 
d="M981 199q-191 0 -299.5 151.5t-108.5 456.5v715h-268v-721q0 -183 41 -330.5t122 -256.5t211.5 -168.5t301.5 -59.5q172 0 302.5 59t212 168.5t122.5 257t41 330.5v721h-266v-715q0 -305 -109.5 -456.5t-302.5 -151.5z" />
    <glyph glyph-name="_182" unicode="&#x222b;" 
d="M1403 1569v219q-77 12 -160 12q-216 0 -309.5 -81.5t-93.5 -272.5v-1333q0 -77 -35.5 -108.5t-126.5 -31.5h-117v-217q61 -10 160 -10q215 0 309 80.5t94 269.5v1336q0 76 35 106.5t125 30.5h119z" />
    <glyph glyph-name="_183" unicode="&#x222c;" 
d="M1065 1569v219q-77 12 -160 12q-216 0 -309.5 -81.5t-93.5 -272.5v-1333q0 -77 -35.5 -108.5t-126.5 -31.5h-117v-217q61 -10 160 -10q215 0 309 80.5t94 269.5v1336q0 76 35 106.5t125 30.5h119zM1741 1569v219q-77 12 -160 12q-216 0 -309.5 -81.5t-93.5 -272.5v-1333
q0 -77 -35.5 -108.5t-126.5 -31.5h-117v-217q61 -10 160 -10q215 0 309 80.5t94 269.5v1336q0 76 35 106.5t125 30.5h119z" />
    <glyph glyph-name="_211" unicode="&#x222e;" 
d="M518 760q0 -147 90 -257t232 -151v-239q0 -77 -35.5 -108.5t-126.5 -31.5h-117v-219q61 -10 160 -10q215 0 309 81t94 271v254q143 41 233.5 152t90.5 258t-90.5 257.5t-233.5 151.5v263q0 76 35 106.5t125 30.5h119v219q-77 12 -160 12q-216 0 -309.5 -81.5
t-93.5 -272.5v-279q-142 -41 -232 -150.5t-90 -256.5zM727 760q0 71 30 125.5t83 85.5v-420q-53 30 -83 84t-30 125zM1124 549v422q55 -31 85 -85.5t30 -125.5t-30 -125.5t-85 -85.5z" />
    <glyph glyph-name="_137" unicode="&#x2234;" 
d="M1649 492h-289v-308h289v308zM604 492h-289v-308h289v308zM1126 1454h-288v-307h288v307z" />
    <glyph glyph-name="_181" unicode="&#x2235;" 
d="M1649 1454h-289v-307h289v307zM604 1454h-289v-307h289v307zM1126 492h-288v-308h288v308z" />
    <glyph glyph-name="_18161" unicode="&#x223c;" horiz-adv-x="1210" 
d="M403 934q-145 0 -218.5 -96t-75.5 -256h260q3 114 90 114q27 0 54.5 -13.5t54.5 -32t58 -37.5t77.5 -32.5t101.5 -13.5q146 0 220.5 97t76.5 258h-262q-3 -115 -88 -115q-33 0 -70 20t-68 43.5t-87.5 43.5t-123.5 20z" />
    <glyph glyph-name="_179" unicode="&#x223d;" 
d="M1067 674q160 227 287 227q65 0 105 -37.5t40 -101.5t-40 -102.5t-105 -38.5q-52 0 -97 22l-98 -180q100 -53 209 -53q177 0 279 94.5t102 257.5q0 162 -102.5 257t-278.5 95q-136 0 -257.5 -74t-209.5 -204q-69 -103 -146.5 -159t-144.5 -56q-65 0 -105 38.5t-40 102.5
t40 101.5t105 37.5q44 0 88 -18l80 190q-90 41 -182 41q-176 0 -278.5 -95t-102.5 -257q0 -163 102 -257.5t279 -94.5q138 0 258.5 67t212.5 197z" />
    <glyph glyph-name="_8500" unicode="&#x2243;" 
d="M952 963q-52 28 -73.5 38t-72.5 21.5t-112 11.5q-91 0 -183.5 -44t-164.5 -107l-22 84q62 83 167.5 143.5t221.5 60.5q40 0 74 -5t66 -17.5t51 -21.5t54.5 -28.5t51.5 -27.5q54 -29 74 -38.5t71.5 -21.5t112.5 -12q91 0 183.5 44.5t164.5 107.5l22 -84
q-62 -83 -167.5 -144t-221.5 -61q-49 0 -95.5 11t-67 19.5t-72.5 37t-62 33.5zM348 324v104h1292v-104h-1292z" />
    <glyph glyph-name="_8499" unicode="&#x2245;" 
d="M952 963q-52 28 -73.5 38t-72.5 21.5t-112 11.5q-91 0 -183.5 -44t-164.5 -107l-22 84q62 83 167.5 143.5t221.5 60.5q40 0 74 -5t66 -17.5t51 -21.5t54.5 -28.5t51.5 -27.5q54 -29 74 -38.5t71.5 -21.5t112.5 -12q91 0 183.5 44.5t164.5 107.5l22 -84
q-62 -83 -167.5 -144t-221.5 -61q-49 0 -95.5 11t-67 19.5t-72.5 37t-62 33.5zM348 78v104h1292v-104h-1292zM348 406v104h1292v-104h-1292z" />
    <glyph glyph-name="_8501" unicode="&#x2248;" 
d="M954 963q-52 28 -73.5 38t-72.5 21.5t-112 11.5q-91 0 -183.5 -44t-164.5 -107l-22 84q62 83 167.5 143.5t221.5 60.5q40 0 74 -5t66 -17.5t51 -21.5t54.5 -28.5t51.5 -27.5q54 -29 74 -38.5t71.5 -21.5t112.5 -12q91 0 183.5 44.5t164.5 107.5l22 -84
q-62 -83 -167.5 -144t-221.5 -61q-49 0 -95.5 11t-67 19.5t-72.5 37t-62 33.5zM954 348q-54 29 -74 38.5t-71.5 21.5t-112.5 12q-91 0 -183.5 -44.5t-164.5 -107.5l-22 84q62 83 167.5 144t221.5 61q40 0 74 -5t66 -17.5t51 -21.5t54.5 -28.5t51.5 -27.5q54 -29 74 -38.5
t71.5 -21.5t112.5 -12q91 0 183.5 44.5t164.5 107.5l22 -84q-62 -83 -167.5 -144t-221.5 -61q-40 0 -74 5t-66 17.5t-51 21.5t-54.5 28.5t-51.5 27.5z" />
    <glyph glyph-name="_8739" unicode="&#x2250;" 
d="M268 776v-74h1430v74h-1430zM268 412v-76h1430v76h-1430zM985 1251q58 0 91.5 -37t33.5 -86t-32 -84.5t-89 -35.5q-60 0 -92.5 35.5t-32.5 84.5q0 50 31.5 86t89.5 37z" />
    <glyph glyph-name="_8723" unicode="&#x2251;" 
d="M1681 1008v-78h-1396v78h1396zM1681 643v-76h-1396v76h1396zM979 1395q57 0 89 -36t32 -85q0 -51 -33.5 -87t-91.5 -36t-89.5 36t-31.5 85q0 51 32.5 87t92.5 36zM979 414q57 0 89 -36t32 -85q0 -51 -33.5 -87t-91.5 -36q-57 0 -89 37t-32 84q0 51 32.5 87t92.5 36z" />
    <glyph glyph-name="_154" unicode="&#x2252;" horiz-adv-x="1218" 
d="M94 825h1030v230h-1030v-230zM94 444h1030v230h-1030v-230zM999 324h-309v-308h309v308zM528 1479h-309v-308h309v308z" />
    <glyph glyph-name="_8722" unicode="&#x2253;" 
d="M1681 1008v-78h-1396v78h1396zM1681 643v-76h-1396v76h1396zM1397 1395q57 0 89 -36.5t32 -84.5q0 -51 -33.5 -87t-91.5 -36q-56 0 -87.5 36.5t-31.5 84.5q0 51 32.5 87t90.5 36zM586 414q57 0 88 -35.5t31 -85.5q0 -51 -32.5 -87t-90.5 -36q-56 0 -87.5 37t-31.5 84
q0 51 32.5 87t90.5 36z" />
    <glyph glyph-name="_8753" unicode="&#x225a;" 
d="M315 416h1334v-72h-1334v72zM1493 1397l-502 -903l-510 917l70 25l440 -774l432 763zM315 176h1334v-72h-1334v72z" />
    <glyph glyph-name="_133" unicode="&#x2260;" horiz-adv-x="1218" 
d="M1124 424v229h-475l109 193h366v229h-235l145 256h-188l-148 -256h-604v-229h473l-108 -193h-365v-229h234l-144 -256h189l145 256h606z" />
    <glyph glyph-name="_153" unicode="&#x2261;" horiz-adv-x="1218" 
d="M94 1014h1030v231h-1030v-231zM94 254h1030v231h-1030v-231zM94 633h1030v231h-1030v-231z" />
    <glyph glyph-name="_8734" unicode="&#x2262;" 
d="M270 1090v71h875l143 252l64 -35l-125 -217h467v-71h-510l-148 -256h658v-68h-699l-145 -252h844v-70h-887l-164 -284l-61 33l145 251h-457v72h500l143 250h-643v68h684l148 256h-832z" />
    <glyph glyph-name="_134" unicode="&#x2264;" horiz-adv-x="1218" 
d="M1106 672l-666 256l666 258v256l-993 -398v-233l993 -397v258zM94 98h1030v230h-1030v-230z" />
    <glyph glyph-name="_135" unicode="&#x2265;" horiz-adv-x="1218" 
d="M1106 1044l-993 398v-256l667 -258l-667 -256v-258l993 397v233zM1124 328h-1030v-230h1030v230z" />
    <glyph glyph-name="_8724" unicode="&#x2266;" 
d="M383 1073l1194 467l25 -70l-1127 -436l1127 -395l-27 -72l-1190 418q-41 15 -42 43t40 45zM330 426v72h1304v-72h-1304zM330 154v69h1304v-69h-1304z" />
    <glyph glyph-name="_8725" unicode="&#x2267;" 
d="M387 1540l1194 -467q42 -18 42.5 -44t-44.5 -44l-1190 -418l-27 72l1127 395l-1127 436zM1634 498v-72h-1304v72h1304zM1634 223v-69h-1304v69h1304z" />
    <glyph glyph-name="_18162" unicode="&#x226a;" 
d="M735 758l1018 -729l133 176l-823 594l823 590l-135 176l-1016 -725v-82zM80 758l1018 -729l133 176l-823 594l823 590l-135 176l-1016 -725v-82z" />
    <glyph glyph-name="_18163" unicode="&#x226b;" 
d="M1231 840l-1016 725l-135 -176l823 -590l-823 -594l133 -176l1018 729v82zM1886 840l-1016 725l-135 -176l824 -590l-824 -594l133 -176l1018 729v82z" />
    <glyph glyph-name="_8745" unicode="&#x226e;" 
d="M1276 1516l-80 -283l391 192l25 -69l-443 -219l-161 -580l604 -278l-27 -72l-600 272l-104 -375l-68 23l107 383l-525 240q-41 15 -42 43t40 45l713 350l98 352zM485 797l455 -209l139 504z" />
    <glyph glyph-name="_8746" unicode="&#x226f;" 
d="M1151 1516l-117 -414l537 -264q41 -17 40 -45t-42 -43l-725 -332l-88 -314l-68 23l70 252l-379 -172l-27 72l432 198l162 584l-594 295l25 69l590 -290l112 405zM1479 797l-465 229l-144 -510z" />
    <glyph glyph-name="_8481" unicode="&#x2270;" 
d="M305 1036l1278 574l33 -113l-1020 -453l1026 -407l-43 -117zM1659 492v-123h-1292v123h1292zM1659 195v-121h-1292v121h1292zM823 -168l-112 29l460 1900l115 -28z" />
    <glyph glyph-name="_8482" unicode="&#x2271;" 
d="M381 1610l1278 -574l-1274 -516l-43 117l1026 407l-1020 453zM305 369v123h1292v-123h-1292zM305 74v121h1292v-121h-1292zM1253 -139l-112 -29l-463 1901l115 28z" />
    <glyph glyph-name="_8483" unicode="&#x2272;" 
d="M305 1036l1278 574l33 -113l-1020 -453l1026 -407l-43 -117zM973 123q-54 29 -74 38.5t-71.5 21.5t-112.5 12q-91 0 -183.5 -44.5t-164.5 -107.5l-23 84q62 83 167.5 144t221.5 61q49 0 95.5 -11t67 -19.5t72.5 -37t62 -33.5q52 -28 73.5 -38t72.5 -21.5t112 -11.5
q91 0 183.5 44t164.5 107l23 -84q-62 -83 -167.5 -143.5t-221.5 -60.5q-40 0 -74 5t-66 17.5t-51 21.5t-54.5 28.5t-51.5 27.5z" />
    <glyph glyph-name="_8484" unicode="&#x2273;" 
d="M334 1497l35 113l1276 -574l-1272 -516l-45 117l1028 407zM948 123q-54 29 -74 38.5t-71.5 21.5t-112.5 12q-91 0 -183.5 -44.5t-164.5 -107.5l-23 84q62 83 168 144t222 61q49 0 95.5 -11t67 -19.5t72.5 -37t62 -33.5q52 -28 73.5 -38t72.5 -21.5t112 -11.5
q91 0 183.5 44t164.5 107l22 -84q-62 -83 -167.5 -143.5t-221.5 -60.5q-40 0 -74 5t-66 17.5t-51 21.5t-54.5 28.5t-51.5 27.5z" />
    <glyph glyph-name="_8489" unicode="&#x2276;" 
d="M1651 1425l-1016 -321l1016 -322l-33 -114l-1303 436l1303 436zM315 147l1016 322l-1016 322l33 114l1303 -436l-1303 -436z" />
    <glyph glyph-name="_8490" unicode="&#x2277;" 
d="M338 1544l1292 -440l-1294 -438v125l987 313l-985 315v125zM1630 31l-1294 440l1292 438v-123l-985 -315l987 -315v-125z" />
    <glyph glyph-name="_8491" unicode="&#x2279;" 
d="M338 1544l1292 -440l-1294 -438v125l987 313l-985 315v125zM1630 31l-1294 440l1292 438v-123l-985 -315l987 -315v-125zM805 -168l-113 29l461 1900l115 -28z" />
    <glyph glyph-name="_8475" unicode="&#x227a;" 
d="M342 795q744 220 1225 610l57 -113q-474 -363 -950 -497q473 -136 950 -498l-57 -113q-483 392 -1225 611z" />
    <glyph glyph-name="_8476" unicode="&#x227b;" 
d="M1624 795q-742 -219 -1225 -611l-57 113q477 362 950 498q-476 134 -950 497l57 113q481 -390 1225 -610z" />
    <glyph glyph-name="_8479" unicode="&#x2280;" 
d="M1063 1569v-1549h-117v1549h117zM342 795q744 220 1225 610l57 -113q-474 -363 -950 -497q473 -136 950 -498l-57 -113q-483 392 -1225 611z" />
    <glyph glyph-name="_8480" unicode="&#x2281;" 
d="M903 20v1549h117v-1549h-117zM1624 795q-742 -219 -1225 -611l-57 113q477 362 950 498q-476 134 -950 497l57 113q481 -390 1225 -610z" />
    <glyph glyph-name="_188" unicode="&#x2282;" 
d="M463 795q0 430 553 430h715v245h-721q-183 0 -330.5 -40.5t-257 -122t-168.5 -211.5t-59 -301t59.5 -301.5t168.5 -212.5t256.5 -123t330.5 -41h721v245h-715q-553 0 -553 433z" />
    <glyph glyph-name="_189" unicode="&#x2283;" 
d="M1501 795q0 -433 -551 -433h-717v-245h723q183 0 331 41t257 123t168.5 212.5t59.5 301.5t-59.5 301t-168.5 211.5t-257 122t-331 40.5h-723v-245h717q551 0 551 -430z" />
    <glyph glyph-name="_8748" unicode="&#x2284;" 
d="M924 303l-56 -199l-67 23l49 180q-210 26 -352 167.5t-142 326.5q0 100 45.5 191.5t122 158.5t183 107t223.5 40h194l68 242l72 -24l-62 -218h406v-75h-426l-238 -844h664v-76h-678h-6zM440 801q0 -161 126.5 -280t303.5 -140l234 842h-174q-127 0 -239.5 -55
t-181.5 -153t-69 -214z" />
    <glyph glyph-name="_8747" unicode="&#x2285;" 
d="M840 303l-56 -199l-67 23l49 176h-410v76h430l234 844h-664v75h678h6l68 242l72 -24l-64 -224q210 -26 351 -166.5t141 -324.5q0 -133 -76.5 -247.5t-209.5 -182.5t-288 -68h-194zM860 379h174q127 0 239.5 55t181.5 153t69 214q0 160 -125.5 278.5t-302.5 139.5z" />
    <glyph glyph-name="_186" unicode="&#x2286;" 
d="M236 231v-235h1503v235h-1503zM451 1040q0 328 467 328h804v240h-811q-130 0 -239.5 -20.5t-200.5 -65t-154 -110.5t-98 -160.5t-35 -211.5q0 -146 53 -256t151 -178t229 -101.5t294 -33.5h811v238h-804q-467 0 -467 331z" />
    <glyph glyph-name="_187" unicode="&#x2287;" 
d="M225 231v-235h1504v235h-1504zM1513 1040q0 -331 -466 -331h-805v-238h811q163 0 294 33.5t229 101.5t151 178t53 256q0 117 -35 211.5t-98 160.5t-154 110.5t-200.5 65t-239.5 20.5h-811v-240h805q466 0 466 -328z" />
    <glyph glyph-name="_8486" unicode="&#x228a;" 
d="M434 1087q0 -87 44.5 -166t127 -130.5t182.5 -51.5h875v-123h-858q-109 0 -204.5 40t-160 105.5t-102 150.5t-37.5 175t37.5 175t102 151t160 106t204.5 40h858v-123h-875q-100 0 -182.5 -51.5t-127 -131t-44.5 -166.5zM1665 195v-121h-1292v121h1292zM1665 492v-123
h-1292v123h1292zM1063 721l117 -33l-236 -825l-119 33z" />
    <glyph glyph-name="_8488" unicode="&#x228b;" 
d="M1532 1087q0 87 -44.5 166.5t-127 131t-182.5 51.5h-875v123h858q109 0 204.5 -40t160 -106t102 -151t37.5 -175t-37.5 -175t-102 -150.5t-160 -105.5t-204.5 -40h-858v123h875q100 0 182.5 51.5t127 130.5t44.5 166zM301 74v121h1292v-121h-1292zM301 369v123h1292v-123
h-1292zM1022 721l117 -33l-236 -825l-119 33z" />
    <glyph glyph-name="_8727" unicode="&#x2295;" 
d="M291 754v75h655v650h78v-650h651v-75h-651v-643h-78v643h-655zM985 1618q134 0 259 -41t225.5 -116t175.5 -175.5t116 -225.5t41 -259t-41 -259t-116 -225.5t-175.5 -175.5t-225.5 -116t-259 -41q-169 0 -321.5 64t-262 173.5t-173.5 260.5t-64 319t64 319t173.5 260.5
t262 173.5t321.5 64zM985 1546q-123 0 -238 -37.5t-206.5 -106t-160.5 -160t-106.5 -205.5t-37.5 -236q0 -204 99.5 -375.5t271.5 -271t378 -99.5q153 0 291 59t237.5 158.5t158.5 237.5t59 291t-59 291t-158.5 237.5t-237.5 158t-291 58.5z" />
    <glyph glyph-name="_8728" unicode="&#x2296;" 
d="M295 758v73h1384v-73h-1384zM985 1618q134 0 259 -41t225.5 -116t175.5 -175.5t116 -225.5t41 -259t-41 -259t-116 -225.5t-175.5 -175.5t-225.5 -116t-259 -41q-169 0 -321.5 64t-262 173.5t-173.5 260.5t-64 319t64 319t173.5 260.5t262 173.5t321.5 64zM985 1546
q-123 0 -238 -37.5t-206.5 -106t-160.5 -160t-106.5 -205.5t-37.5 -236q0 -204 99.5 -375.5t271.5 -271t378 -99.5q153 0 291 59t237.5 158.5t158.5 237.5t59 291t-59 291t-158.5 237.5t-237.5 158t-291 58.5z" />
    <glyph glyph-name="_8729" unicode="&#x2297;" 
d="M522 283l-55 57l461 461l-457 454l55 56l459 -457l459 459l55 -56l-461 -456l467 -461l-57 -53l-463 461zM985 1618q134 0 259 -41t225.5 -116t175.5 -175.5t116 -225.5t41 -259t-41 -259t-116 -225.5t-175.5 -175.5t-225.5 -116t-259 -41q-169 0 -321.5 64t-262 173.5
t-173.5 260.5t-64 319t64 319t173.5 260.5t262 173.5t321.5 64zM985 1546q-123 0 -238 -37.5t-206.5 -106t-160.5 -160t-106.5 -205.5t-37.5 -236q0 -204 99.5 -375.5t271.5 -271t378 -99.5q153 0 291 59t237.5 158.5t158.5 237.5t59 291t-59 291t-158.5 237.5t-237.5 158
t-291 58.5z" />
    <glyph glyph-name="_18164" unicode="&#x2299;" 
d="M1892 799q0 247 -120 455.5t-329.5 331t-459.5 122.5q-188 0 -357 -72t-290 -194t-191.5 -290t-70.5 -353q0 -186 70 -354t190.5 -290t289.5 -194t359 -72q188 0 357 72t290 193.5t191.5 290t70.5 354.5zM272 799q0 148 55 283t149 233.5t227 156.5t282 58t282.5 -58
t228 -156.5t149.5 -233.5t55 -283q0 -149 -55 -284t-149.5 -233t-228 -156t-282.5 -58t-282 58t-227 156t-149 233t-55 284zM600 799q0 -166 111 -282t274 -116t275 116.5t112 281.5t-112 281t-275 116t-274 -116t-111 -281z" />
    <glyph glyph-name="_8742" unicode="&#x22a3;" 
d="M1526 141h-74v623h-1014v72h1014v608h74v-1303z" />
    <glyph glyph-name="_8503" unicode="&#x22a4;" 
d="M920 1245h-584v121h1292v-121h-567v-1069h-141v1069z" />
    <glyph glyph-name="_149" unicode="&#x22a5;" 
d="M1106 324v1239h-246v-1239h-655v-209h1556v209h-655z" />
    <glyph glyph-name="_8751" unicode="&#x22bb;" 
d="M315 248h1334v-72h-1334v72zM1534 1434l-543 -1108l-551 1122l70 25l481 -979l473 968z" />
    <glyph glyph-name="_8752" unicode="&#x22bc;" 
d="M1651 1321h-1336v72h1336v-72zM983 1235l543 -1108l-70 -29l-473 969l-481 -979l-70 25z" />
    <glyph glyph-name="_8477" unicode="&#x22ce;" 
d="M983 1458q220 -744 610 -1225l-112 -57q-362 477 -498 950q-134 -474 -498 -950l-112 57q390 481 610 1225z" />
    <glyph glyph-name="_8478" unicode="&#x22cf;" 
d="M983 156q-219 742 -610 1224l112 58q364 -475 498 -951q137 475 498 951l112 -58q-391 -482 -610 -1224z" />
    <glyph glyph-name="_8492" unicode="&#x22da;" 
d="M1610 1487l-934 -240l934 -239l-33 -115l-1303 354l1303 355zM356 86l934 240l-934 239l33 115l1303 -354l-1303 -355zM1628 838v-105h-1292v105h1292z" />
    <glyph glyph-name="_8493" unicode="&#x22db;" 
d="M1290 1247l-934 240l33 115l1303 -355l-1303 -354l-33 115zM676 326l934 -240l-33 -115l-1303 355l1303 354l33 -115zM338 733v105h1292v-105h-1292z" />
    <glyph glyph-name="_8754" unicode="&#x2306;" 
d="M1649 1139h-1334v71h1334v-71zM991 1061l502 -903l-70 -29l-432 764l-440 -774l-70 24zM1649 1378h-1334v72h1334v-72z" />
    <glyph glyph-name="_150" unicode="&#x2312;" 
d="M49 1372l133 -172q153 158 356.5 248t444.5 90q240 0 444 -89t361 -245l129 168q-176 186 -416.5 291.5t-517.5 105.5t-517.5 -105.5t-416.5 -291.5z" />
    <glyph glyph-name="_8731" unicode="&#x2314;" 
d="M1614 1198l-631 -1120l-631 1120q145 86 309 139.5t322 53.5t322 -53.5t309 -139.5zM983 1325q-131 0 -278.5 -43.5t-255.5 -110.5l534 -956l535 956q-107 66 -255.5 110t-279.5 44z" />
    <glyph glyph-name="_733" unicode="&#x2460;" 
d="M45 807q0 -156 46.5 -300t132.5 -258t201 -199t258.5 -131t299.5 -46t299.5 46t258.5 131t201 199t132.5 258t46.5 300t-46.5 300t-132.5 258t-201 199t-258.5 131t-299.5 46t-299.5 -46t-258.5 -131t-201 -199t-132.5 -258t-46.5 -300zM238 807q0 214 96 388t266.5 273
t382.5 99q159 0 297.5 -58t237 -159t155 -242t56.5 -301t-56.5 -301t-155 -242t-237 -159t-297.5 -58q-212 0 -382.5 99t-266.5 273t-96 388zM1157 233v1160h-201l-299 -136v-233l250 111v-902h250z" />
    <glyph glyph-name="_734" unicode="&#x2461;" 
d="M45 807q0 -156 46.5 -300t132.5 -258t201 -199t258.5 -131t299.5 -46t299.5 46t258.5 131t201 199t132.5 258t46.5 300t-46.5 300t-132.5 258t-201 199t-258.5 131t-299.5 46t-299.5 -46t-258.5 -131t-201 -199t-132.5 -258t-46.5 -300zM238 807q0 214 96 388t266.5 273
t382.5 99q159 0 297.5 -58t237 -159t155 -242t56.5 -301t-56.5 -301t-155 -242t-237 -159t-297.5 -58q-212 0 -382.5 99t-266.5 273t-96 388zM1364 1071q0 155 -100.5 257t-276.5 102t-276.5 -102t-100.5 -257v-55h250v55q0 71 33.5 110.5t93.5 39.5t93.5 -40.5t33.5 -109.5
q0 -77 -65 -156v3l-422 -486v-180h751v209h-417l288 330q60 68 87.5 132.5t27.5 147.5z" />
    <glyph glyph-name="_735" unicode="&#x2462;" 
d="M45 807q0 -156 46.5 -300t132.5 -258t201 -199t258.5 -131t299.5 -46t299.5 46t258.5 131t201 199t132.5 258t46.5 300t-46.5 300t-132.5 258t-201 199t-258.5 131t-299.5 46t-299.5 -46t-258.5 -131t-201 -199t-132.5 -258t-46.5 -300zM238 807q0 214 96 388t266.5 273
t382.5 99q159 0 297.5 -58t237 -159t155 -242t56.5 -301t-56.5 -301t-155 -242t-237 -159t-297.5 -58q-212 0 -382.5 99t-266.5 273t-96 388zM598 580q0 -161 110 -259t285 -98t284 98t109 259q0 95 -45 167.5t-120 112.5q60 37 95.5 102t35.5 140q0 142 -95.5 230.5
t-263.5 88.5t-264 -89t-96 -230v-45h246v28q0 59 31 93t83 34q50 0 81.5 -34t31.5 -93q0 -61 -32 -94t-87 -33h-135v-204h135q69 0 109.5 -42.5t40.5 -119.5q0 -75 -40 -117.5t-104 -42.5t-103.5 42.5t-39.5 117.5v33h-252v-45z" />
    <glyph glyph-name="_736" unicode="&#x2463;" 
d="M45 807q0 -156 46.5 -300t132.5 -258t201 -199t258.5 -131t299.5 -46t299.5 46t258.5 131t201 199t132.5 258t46.5 300t-46.5 300t-132.5 258t-201 199t-258.5 131t-299.5 46t-299.5 -46t-258.5 -131t-201 -199t-132.5 -258t-46.5 -300zM238 807q0 214 96 388t266.5 273
t382.5 99q159 0 297.5 -58t237 -159t155 -242t56.5 -301t-56.5 -301t-155 -242t-237 -159t-297.5 -58q-212 0 -382.5 99t-266.5 273t-96 388zM797 678l190 342v-342h-190zM1378 678h-141v725h-260l-440 -741v-193h450v-225h250v225h141v209z" />
    <glyph glyph-name="_737" unicode="&#x2464;" 
d="M45 807q0 -156 46.5 -300t132.5 -258t201 -199t258.5 -131t299.5 -46t299.5 46t258.5 131t201 199t132.5 258t46.5 300t-46.5 300t-132.5 258t-201 199t-258.5 131t-299.5 46t-299.5 -46t-258.5 -131t-201 -199t-132.5 -258t-46.5 -300zM238 807q0 214 96 388t266.5 273
t382.5 99q159 0 297.5 -58t237 -159t155 -242t56.5 -301t-56.5 -301t-155 -242t-237 -159t-297.5 -58q-212 0 -382.5 99t-266.5 273t-96 388zM989 786q66 0 100.5 -47.5t34.5 -136.5q0 -91 -35.5 -137.5t-99.5 -46.5q-56 0 -92 40.5t-43 116.5h-250q11 -171 112.5 -268.5
t272.5 -97.5q179 0 282 104t103 289q0 192 -92.5 292.5t-245.5 100.5q-80 0 -139 -39l12 224h406v209h-641l-29 -670h238q38 67 106 67z" />
    <glyph glyph-name="_738" unicode="&#x2465;" 
d="M45 807q0 -156 46.5 -300t132.5 -258t201 -199t258.5 -131t299.5 -46t299.5 46t258.5 131t201 199t132.5 258t46.5 300t-46.5 300t-132.5 258t-201 199t-258.5 131t-299.5 46t-299.5 -46t-258.5 -131t-201 -199t-132.5 -258t-46.5 -300zM238 807q0 214 96 388t266.5 273
t382.5 99q159 0 297.5 -58t237 -159t155 -242t56.5 -301t-56.5 -301t-155 -242t-237 -159t-297.5 -58q-212 0 -382.5 99t-266.5 273t-96 388zM1352 1087q-18 158 -115 242t-250 84q-212 0 -304.5 -151t-92.5 -494q0 -141 20.5 -239t69.5 -169q107 -145 303 -145
q171 0 280 107t109 286q0 181 -99 287t-257 106q-103 0 -170 -51q8 133 41 194.5t100 61.5q94 0 113 -119h252zM1122 608q0 -86 -37.5 -135t-103.5 -49t-103.5 49t-37.5 135q0 89 37.5 137t103.5 48t103.5 -48t37.5 -137z" />
    <glyph glyph-name="_739" unicode="&#x2466;" 
d="M45 807q0 -156 46.5 -300t132.5 -258t201 -199t258.5 -131t299.5 -46t299.5 46t258.5 131t201 199t132.5 258t46.5 300t-46.5 300t-132.5 258t-201 199t-258.5 131t-299.5 46t-299.5 -46t-258.5 -131t-201 -199t-132.5 -258t-46.5 -300zM238 807q0 214 96 388t266.5 273
t382.5 99q159 0 297.5 -58t237 -159t155 -242t56.5 -301t-56.5 -301t-155 -242t-237 -159t-297.5 -58q-212 0 -382.5 99t-266.5 273t-96 388zM612 1141h492l-367 -951h258l369 988v172h-752v-209z" />
    <glyph glyph-name="_740" unicode="&#x2467;" 
d="M45 807q0 -156 46.5 -300t132.5 -258t201 -199t258.5 -131t299.5 -46t299.5 46t258.5 131t201 199t132.5 258t46.5 300t-46.5 300t-132.5 258t-201 199t-258.5 131t-299.5 46t-299.5 -46t-258.5 -131t-201 -199t-132.5 -258t-46.5 -300zM238 807q0 214 96 388t266.5 273
t382.5 99q159 0 297.5 -58t237 -159t155 -242t56.5 -301t-56.5 -301t-155 -242t-237 -159t-297.5 -58q-212 0 -382.5 99t-266.5 273t-96 388zM987 215q183 0 297.5 97.5t114.5 258.5q0 193 -172 279q62 37 99.5 103.5t37.5 140.5q0 140 -100.5 229.5t-276.5 89.5
q-174 0 -275.5 -89.5t-101.5 -229.5q0 -77 37.5 -142t102.5 -102q-81 -41 -126.5 -112t-45.5 -167q0 -162 113 -259t296 -97zM987 1204q59 0 94 -35t35 -92t-35 -92t-94 -35q-58 0 -93.5 35t-35.5 92t35.5 92t93.5 35zM987 748q71 0 115.5 -44t44.5 -118t-44.5 -118
t-115.5 -44q-73 0 -116.5 44t-43.5 118t43.5 118t116.5 44z" />
    <glyph glyph-name="_741" unicode="&#x2468;" 
d="M45 807q0 -156 46.5 -300t132.5 -258t201 -199t258.5 -131t299.5 -46t299.5 46t258.5 131t201 199t132.5 258t46.5 300t-46.5 300t-132.5 258t-201 199t-258.5 131t-299.5 46t-299.5 -46t-258.5 -131t-201 -199t-132.5 -258t-46.5 -300zM238 807q0 214 96 388t266.5 273
t382.5 99q159 0 297.5 -58t237 -159t155 -242t56.5 -301t-56.5 -301t-155 -242t-237 -159t-297.5 -58q-212 0 -382.5 99t-266.5 273t-96 388zM606 528q23 -158 120 -242.5t249 -84.5q209 0 304 151t95 494q0 283 -90 407q-101 146 -305 146q-172 0 -280.5 -107t-108.5 -288
q0 -180 98.5 -285t255.5 -105q106 0 172 50q-8 -133 -41 -194.5t-100 -61.5q-94 0 -113 120h-256zM840 1004q0 88 37.5 137t103.5 49q65 0 102 -49.5t37 -136.5q0 -86 -37 -135.5t-102 -49.5q-66 0 -103.5 49.5t-37.5 135.5z" />
    <glyph glyph-name="_742" unicode="&#x2469;" 
d="M45 807q0 -156 46.5 -300t132.5 -258t201 -199t258.5 -131t299.5 -46t299.5 46t258.5 131t201 199t132.5 258t46.5 300t-46.5 300t-132.5 258t-201 199t-258.5 131t-299.5 46t-299.5 -46t-258.5 -131t-201 -199t-132.5 -258t-46.5 -300zM238 807q0 214 96 388t266.5 273
t382.5 99q159 0 297.5 -58t237 -159t155 -242t56.5 -301t-56.5 -301t-155 -242t-237 -159t-297.5 -58q-212 0 -382.5 99t-266.5 273t-96 388zM807 260v1096h-186l-256 -131v-228l210 107v-844h232zM1122 811q0 288 62 344q24 21 59 21q36 0 60 -21q32 -29 46.5 -110
t14.5 -234t-14.5 -234t-46.5 -110q-24 -21 -60 -21q-35 0 -59 21q-62 56 -62 344zM893 811q0 -385 149 -504q79 -61 201 -61t201 61q149 119 149 504t-149 504q-79 61 -201 61t-201 -61q-149 -119 -149 -504z" />
    <glyph glyph-name="_743" unicode="&#x246a;" 
d="M45 807q0 -156 46.5 -300t132.5 -258t201 -199t258.5 -131t299.5 -46t299.5 46t258.5 131t201 199t132.5 258t46.5 300t-46.5 300t-132.5 258t-201 199t-258.5 131t-299.5 46t-299.5 -46t-258.5 -131t-201 -199t-132.5 -258t-46.5 -300zM238 807q0 214 96 388t266.5 273
t382.5 99q159 0 297.5 -58t237 -159t155 -242t56.5 -301t-56.5 -301t-155 -242t-237 -159t-297.5 -58q-212 0 -382.5 99t-266.5 273t-96 388zM858 260v1096h-186l-256 -131v-228l211 107v-844h231zM1442 260v1096h-187l-256 -131v-228l211 107v-844h232z" />
    <glyph glyph-name="_744" unicode="&#x246b;" 
d="M45 807q0 -156 46.5 -300t132.5 -258t201 -199t258.5 -131t299.5 -46t299.5 46t258.5 131t201 199t132.5 258t46.5 300t-46.5 300t-132.5 258t-201 199t-258.5 131t-299.5 46t-299.5 -46t-258.5 -131t-201 -199t-132.5 -258t-46.5 -300zM238 807q0 214 96 388t266.5 273
t382.5 99q159 0 297.5 -58t237 -159t155 -242t56.5 -301q0 -280 -162 -485v145h-353l242 311q54 69 75 125.5t21 136.5q0 147 -86 243.5t-239 96.5q-152 0 -240 -97t-88 -243v-53h231v53q0 64 26.5 102t70.5 38q45 0 70.5 -37.5t25.5 -102.5q0 -76 -55 -145l-355 -459v-170
h607q-101 -105 -239 -162t-298 -57q-212 0 -382.5 99t-266.5 273t-96 388zM807 260v1096h-186l-256 -131v-228l210 107v-844h232z" />
    <glyph glyph-name="_745" unicode="&#x246c;" 
d="M45 807q0 -156 46.5 -300t132.5 -258t201 -199t258.5 -131t299.5 -46t299.5 46t258.5 131t201 199t132.5 258t46.5 300t-46.5 300t-132.5 258t-201 199t-258.5 131t-299.5 46t-299.5 -46t-258.5 -131t-201 -199t-132.5 -258t-46.5 -300zM238 807q0 214 96 388t266.5 273
t382.5 99q159 0 297.5 -58t237 -159t155 -242t56.5 -301t-56.5 -301t-155 -242t-237 -159t-297.5 -58q-212 0 -382.5 99t-266.5 273t-96 388zM807 260v1096h-186l-256 -131v-228l210 107v-844h232zM883 578q0 -154 94.5 -246t247.5 -92q152 0 246 92t94 246q0 197 -146 264
q54 36 85.5 96t31.5 131q0 134 -82.5 218.5t-228.5 84.5q-147 0 -230.5 -84.5t-83.5 -218.5v-45h228v31q0 53 23.5 84.5t62.5 31.5q37 0 60.5 -31.5t23.5 -84.5q0 -57 -24.5 -88t-65.5 -31h-123v-197h123q53 0 84.5 -39.5t31.5 -111.5q0 -69 -30.5 -108.5t-79.5 -39.5
t-80 39.5t-31 108.5v30h-231v-40z" />
    <glyph glyph-name="_746" unicode="&#x246d;" 
d="M45 807q0 -156 46.5 -300t132.5 -258t201 -199t258.5 -131t299.5 -46t299.5 46t258.5 131t201 199t132.5 258t46.5 300t-46.5 300t-132.5 258t-201 199t-258.5 131t-299.5 46t-299.5 -46t-258.5 -131t-201 -199t-132.5 -258t-46.5 -300zM238 807q0 214 96 388t266.5 273
t382.5 99q159 0 297.5 -58t237 -159t155 -242t56.5 -301t-56.5 -301t-155 -242t-237 -159t-297.5 -58q-212 0 -382.5 99t-266.5 273t-96 388zM807 260v1096h-186l-256 -131v-228l210 107v-844h232zM1102 666l141 286v-286h-141zM1573 666h-100v684h-236l-373 -703v-180h379
v-213h230v213h100v199z" />
    <glyph glyph-name="_747" unicode="&#x246e;" 
d="M45 807q0 -156 46.5 -300t132.5 -258t201 -199t258.5 -131t299.5 -46t299.5 46t258.5 131t201 199t132.5 258t46.5 300t-46.5 300t-132.5 258t-201 199t-258.5 131t-299.5 46t-299.5 -46t-258.5 -131t-201 -199t-132.5 -258t-46.5 -300zM238 807q0 214 96 388t266.5 273
t382.5 99q159 0 297.5 -58t237 -159t155 -242t56.5 -301t-56.5 -301t-155 -242t-237 -159t-297.5 -58q-212 0 -382.5 99t-266.5 273t-96 388zM807 260v1096h-186l-256 -131v-228l210 107v-844h232zM1217 780q102 0 102 -172q0 -85 -27 -128.5t-75 -43.5q-44 0 -71.5 38
t-33.5 110h-231q11 -163 99 -255.5t237 -92.5q155 0 244 98t89 272q0 182 -80.5 277.5t-214.5 95.5q-61 0 -108 -27l12 197h340v201h-559l-25 -633h218q32 63 84 63z" />
    <glyph glyph-name="_8791" unicode="&#x246f;" 
d="M45 807q0 156 46.5 300t132.5 258t201 199t258.5 131t299.5 46t299.5 -46t258.5 -131t201 -199t132.5 -258t46.5 -300t-46.5 -300t-132.5 -258t-201 -199t-258.5 -131t-299.5 -46t-299.5 46t-258.5 131t-201 199t-132.5 258t-46.5 300zM238 807q0 -214 96 -388
t266.5 -273t382.5 -99q159 0 297.5 58t237 159t155 242t56.5 301t-56.5 301t-155 242t-237 159t-297.5 58q-212 0 -382.5 -99t-266.5 -273t-96 -388zM807 260h-232v844l-210 -107v228l256 131h186v-1096zM1548 1065h-233q-16 113 -84 113q-51 0 -77 -55t-32 -171
q53 35 133 35q137 0 223.5 -100t86.5 -271q0 -169 -94.5 -270.5t-243.5 -101.5q-173 0 -264 139q-44 66 -61 157.5t-17 225.5q0 323 81.5 466.5t264.5 143.5q131 0 214.5 -80.5t102.5 -230.5zM1335 616q0 83 -28.5 127.5t-81.5 44.5q-50 0 -79.5 -45t-29.5 -127
q0 -81 29.5 -126.5t79.5 -45.5q52 0 81 45t29 127z" />
    <glyph glyph-name="_8792" unicode="&#x2470;" 
d="M45 807q0 156 46.5 300t132.5 258t201 199t258.5 131t299.5 46t299.5 -46t258.5 -131t201 -199t132.5 -258t46.5 -300t-46.5 -300t-132.5 -258t-201 -199t-258.5 -131t-299.5 -46t-299.5 46t-258.5 131t-201 199t-132.5 258t-46.5 300zM238 807q0 -214 96 -388
t266.5 -273t382.5 -99q159 0 297.5 58t237 159t155 242t56.5 301t-56.5 301t-155 242t-237 159t-297.5 58q-212 0 -382.5 -99t-266.5 -273t-96 -388zM807 260h-232v844l-210 -107v228l256 131h186v-1096zM899 1139v200h651v-163l-311 -932h-238l310 895h-412z" />
    <glyph glyph-name="_8793" unicode="&#x2471;" 
d="M45 807q0 156 46.5 300t132.5 258t201 199t258.5 131t299.5 46t299.5 -46t258.5 -131t201 -199t132.5 -258t46.5 -300t-46.5 -300t-132.5 -258t-201 -199t-258.5 -131t-299.5 -46t-299.5 46t-258.5 131t-201 199t-132.5 258t-46.5 300zM238 807q0 -214 96 -388
t266.5 -273t382.5 -99q159 0 297.5 58t237 159t155 242t56.5 301t-56.5 301t-155 242t-237 159t-297.5 58q-212 0 -382.5 -99t-266.5 -273t-96 -388zM807 260h-232v844l-210 -107v228l256 131h186v-1096zM1217 246q-159 0 -257 92t-98 246q0 87 39 154t107 106
q-54 36 -86.5 98t-32.5 133q0 132 89 217.5t239 85.5t237.5 -85.5t87.5 -217.5q0 -72 -31.5 -134t-85.5 -97q146 -78 146 -260q0 -154 -98 -246t-256 -92zM1217 1178q-44 0 -71.5 -33t-27.5 -86q0 -52 27.5 -84.5t71.5 -32.5t71 32t27 85t-27 86t-71 33zM1217 748
q-56 0 -90.5 -41t-34.5 -111q0 -68 34.5 -109t90.5 -41t89 40.5t33 109.5q0 70 -33 111t-89 41z" />
    <glyph glyph-name="_8794" unicode="&#x2472;" 
d="M45 807q0 156 46.5 300t132.5 258t201 199t258.5 131t299.5 46t299.5 -46t258.5 -131t201 -199t132.5 -258t46.5 -300t-46.5 -300t-132.5 -258t-201 -199t-258.5 -131t-299.5 -46t-299.5 46t-258.5 131t-201 199t-132.5 258t-46.5 300zM238 807q0 -214 96 -388
t266.5 -273t382.5 -99q159 0 297.5 58t237 159t155 242t56.5 301t-56.5 301t-155 242t-237 159t-297.5 58q-212 0 -382.5 -99t-266.5 -273t-96 -388zM807 260h-232v844l-210 -107v228l256 131h186v-1096zM899 557h234q16 -115 86 -115q49 0 74.5 55.5t31.5 170.5
q-58 -33 -133 -33q-136 0 -222.5 100t-86.5 269q0 171 94.5 272.5t243.5 101.5q85 0 154 -36t112 -103q42 -66 59 -158t17 -225q0 -326 -81 -468t-265 -142q-132 0 -215.5 80t-102.5 231zM1114 1004q0 -82 28.5 -127.5t80.5 -45.5q51 0 78.5 45.5t27.5 127.5
q0 83 -27.5 128.5t-78.5 45.5q-52 0 -80.5 -45.5t-28.5 -128.5z" />
    <glyph glyph-name="_8795" unicode="&#x2473;" 
d="M45 807q0 156 46.5 300t132.5 258t201 199t258.5 131t299.5 46t299.5 -46t258.5 -131t201 -199t132.5 -258t46.5 -300t-46.5 -300t-132.5 -258t-201 -199t-258.5 -131t-299.5 -46t-299.5 46t-258.5 131t-201 199t-132.5 258t-46.5 300zM238 807q0 -214 96 -388
t266.5 -273t382.5 -99q159 0 297.5 58t237 159t155 242t56.5 301t-56.5 301t-155 242t-237 159t-297.5 58q-212 0 -382.5 -99t-266.5 -273t-96 -388zM950 1042q0 -75 -20 -134.5t-66 -127.5l-205 -311h304v-201h-576v170l305 459q47 70 47 145q0 66 -19.5 103t-55.5 37
q-35 0 -56.5 -38t-21.5 -102v-53h-211v53q0 146 77.5 243t211.5 97t210 -96.5t76 -243.5zM1212 811q0 -153 10 -232t35 -110q17 -23 52 -23q34 0 51 23q25 31 35 110t10 232t-10 232t-35 110q-17 23 -51 23q-35 0 -52 -23q-25 -31 -35 -110t-10 -232zM1004 811
q0 212 33.5 339.5t113.5 182.5q61 43 158 43q96 0 157 -43q80 -55 114 -182.5t34 -339.5t-34 -339.5t-114 -182.5q-61 -43 -157 -43q-97 0 -158 43q-80 55 -113.5 182.5t-33.5 339.5z" />
    <glyph glyph-name="_827" unicode="&#x2474;" 
d="M1157 233v1160h-201l-299 -136v-233l250 111v-902h250zM72 797q0 -482 278 -873h168q-123 194 -188.5 421.5t-65.5 451.5t65.5 451t188.5 423h-168q-278 -394 -278 -874zM1894 797q0 480 -278 874h-168q123 -196 188.5 -423t65.5 -451t-65.5 -451.5t-188.5 -421.5h168
q278 391 278 873z" />
    <glyph glyph-name="_828" unicode="&#x2475;" 
d="M1364 1071q0 155 -100.5 257t-276.5 102t-276.5 -102t-100.5 -257v-55h250v55q0 71 33.5 110.5t93.5 39.5t93.5 -40.5t33.5 -109.5q0 -77 -65 -156v3l-422 -486v-180h751v209h-417l288 330q60 68 87.5 132.5t27.5 147.5zM72 797q0 -482 278 -873h168
q-123 194 -188.5 421.5t-65.5 451.5t65.5 451t188.5 423h-168q-278 -394 -278 -874zM1894 797q0 480 -278 874h-168q123 -196 188.5 -423t65.5 -451t-65.5 -451.5t-188.5 -421.5h168q278 391 278 873z" />
    <glyph glyph-name="_829" unicode="&#x2476;" 
d="M598 580q0 -161 110 -259t285 -98t284 98t109 259q0 95 -45 167.5t-120 112.5q60 37 95.5 102t35.5 140q0 142 -95.5 230.5t-263.5 88.5t-264 -89t-96 -230v-45h246v28q0 59 31 93t83 34q50 0 81.5 -34t31.5 -93q0 -61 -32 -94t-87 -33h-135v-204h135q69 0 109.5 -42.5
t40.5 -119.5q0 -75 -40 -117.5t-104 -42.5t-103.5 42.5t-39.5 117.5v33h-252v-45zM72 797q0 -482 278 -873h168q-123 194 -188.5 421.5t-65.5 451.5t65.5 451t188.5 423h-168q-278 -394 -278 -874zM1894 797q0 480 -278 874h-168q123 -196 188.5 -423t65.5 -451
t-65.5 -451.5t-188.5 -421.5h168q278 391 278 873z" />
    <glyph glyph-name="_830" unicode="&#x2477;" 
d="M797 678l190 342v-342h-190zM1378 678h-141v725h-260l-440 -741v-193h450v-225h250v225h141v209zM72 797q0 -482 278 -873h168q-123 194 -188.5 421.5t-65.5 451.5t65.5 451t188.5 423h-168q-278 -394 -278 -874zM1894 797q0 480 -278 874h-168q123 -196 188.5 -423
t65.5 -451t-65.5 -451.5t-188.5 -421.5h168q278 391 278 873z" />
    <glyph glyph-name="_831" unicode="&#x2478;" 
d="M989 786q66 0 100.5 -47.5t34.5 -136.5q0 -91 -35.5 -137.5t-99.5 -46.5q-56 0 -92 40.5t-43 116.5h-250q11 -171 112.5 -268.5t272.5 -97.5q179 0 282 104t103 289q0 192 -92.5 292.5t-245.5 100.5q-80 0 -139 -39l12 224h406v209h-641l-29 -670h238q38 67 106 67z
M72 797q0 -482 278 -873h168q-123 194 -188.5 421.5t-65.5 451.5t65.5 451t188.5 423h-168q-278 -394 -278 -874zM1894 797q0 480 -278 874h-168q123 -196 188.5 -423t65.5 -451t-65.5 -451.5t-188.5 -421.5h168q278 391 278 873z" />
    <glyph glyph-name="_832" unicode="&#x2479;" 
d="M1352 1087q-18 158 -115 242t-250 84q-212 0 -304.5 -151t-92.5 -494q0 -141 20.5 -239t69.5 -169q107 -145 303 -145q171 0 280 107t109 286q0 181 -99 287t-257 106q-103 0 -170 -51q8 133 41 194.5t100 61.5q94 0 113 -119h252zM1122 608q0 -86 -37.5 -135t-103.5 -49
t-103.5 49t-37.5 135q0 89 37.5 137t103.5 48t103.5 -48t37.5 -137zM72 797q0 -482 278 -873h168q-123 194 -188.5 421.5t-65.5 451.5t65.5 451t188.5 423h-168q-278 -394 -278 -874zM1894 797q0 480 -278 874h-168q123 -196 188.5 -423t65.5 -451t-65.5 -451.5
t-188.5 -421.5h168q278 391 278 873z" />
    <glyph glyph-name="_833" unicode="&#x247a;" 
d="M612 1141h492l-367 -951h258l369 988v172h-752v-209zM72 797q0 -482 278 -873h168q-123 194 -188.5 421.5t-65.5 451.5t65.5 451t188.5 423h-168q-278 -394 -278 -874zM1894 797q0 480 -278 874h-168q123 -196 188.5 -423t65.5 -451t-65.5 -451.5t-188.5 -421.5h168
q278 391 278 873z" />
    <glyph glyph-name="_834" unicode="&#x247b;" 
d="M987 215q183 0 297.5 97.5t114.5 258.5q0 193 -172 279q62 37 99.5 103.5t37.5 140.5q0 140 -100.5 229.5t-276.5 89.5q-174 0 -275.5 -89.5t-101.5 -229.5q0 -77 37.5 -142t102.5 -102q-81 -41 -126.5 -112t-45.5 -167q0 -162 113 -259t296 -97zM987 1204q59 0 94 -35
t35 -92t-35 -92t-94 -35q-58 0 -93.5 35t-35.5 92t35.5 92t93.5 35zM987 748q71 0 115.5 -44t44.5 -118t-44.5 -118t-115.5 -44q-73 0 -116.5 44t-43.5 118t43.5 118t116.5 44zM72 797q0 -482 278 -873h168q-123 194 -188.5 421.5t-65.5 451.5t65.5 451t188.5 423h-168
q-278 -394 -278 -874zM1894 797q0 480 -278 874h-168q123 -196 188.5 -423t65.5 -451t-65.5 -451.5t-188.5 -421.5h168q278 391 278 873z" />
    <glyph glyph-name="_835" unicode="&#x247c;" 
d="M606 528q23 -158 120 -242.5t249 -84.5q209 0 304 151t95 494q0 283 -90 407q-101 146 -305 146q-172 0 -280.5 -107t-108.5 -288q0 -180 98.5 -285t255.5 -105q106 0 172 50q-8 -133 -41 -194.5t-100 -61.5q-94 0 -113 120h-256zM840 1004q0 88 37.5 137t103.5 49
q65 0 102 -49.5t37 -136.5q0 -86 -37 -135.5t-102 -49.5q-66 0 -103.5 49.5t-37.5 135.5zM72 797q0 -482 278 -873h168q-123 194 -188.5 421.5t-65.5 451.5t65.5 451t188.5 423h-168q-278 -394 -278 -874zM1894 797q0 480 -278 874h-168q123 -196 188.5 -423t65.5 -451
t-65.5 -451.5t-188.5 -421.5h168q278 391 278 873z" />
    <glyph glyph-name="_836" unicode="&#x247d;" 
d="M807 260v1096h-186l-256 -131v-228l210 107v-844h232zM1122 811q0 288 62 344q24 21 59 21q36 0 60 -21q32 -29 46.5 -110t14.5 -234t-14.5 -234t-46.5 -110q-24 -21 -60 -21q-35 0 -59 21q-62 56 -62 344zM893 811q0 -385 149 -504q79 -61 201 -61t201 61
q149 119 149 504t-149 504q-79 61 -201 61t-201 -61q-149 -119 -149 -504zM72 797q0 -482 278 -873h168q-123 194 -188.5 421.5t-65.5 451.5t65.5 451t188.5 423h-168q-278 -394 -278 -874zM1894 797q0 480 -278 874h-168q123 -196 188.5 -423t65.5 -451t-65.5 -451.5
t-188.5 -421.5h168q278 391 278 873z" />
    <glyph glyph-name="_837" unicode="&#x247e;" 
d="M858 260v1096h-186l-256 -131v-228l211 107v-844h231zM1442 260v1096h-187l-256 -131v-228l211 107v-844h232zM72 797q0 -482 278 -873h168q-123 194 -188.5 421.5t-65.5 451.5t65.5 451t188.5 423h-168q-278 -394 -278 -874zM1894 797q0 480 -278 874h-168
q123 -196 188.5 -423t65.5 -451t-65.5 -451.5t-188.5 -421.5h168q278 391 278 873z" />
    <glyph glyph-name="_838" unicode="&#x247f;" 
d="M807 260v1096h-186l-256 -131v-228l210 107v-844h232zM1552 1040q0 147 -86 243.5t-239 96.5q-152 0 -240 -97t-88 -243v-53h231v53q0 64 26.5 102t70.5 38q45 0 70.5 -37.5t25.5 -102.5q0 -76 -55 -145l-355 -459v-170h654v201h-353l242 311q54 69 75 125.5t21 136.5z
M72 797q0 -482 278 -873h168q-123 194 -188.5 421.5t-65.5 451.5t65.5 451t188.5 423h-168q-278 -394 -278 -874zM1894 797q0 480 -278 874h-168q123 -196 188.5 -423t65.5 -451t-65.5 -451.5t-188.5 -421.5h168q278 391 278 873z" />
    <glyph glyph-name="_839" unicode="&#x2480;" 
d="M807 260v1096h-186l-256 -131v-228l210 107v-844h232zM883 578q0 -154 94.5 -246t247.5 -92q152 0 246 92t94 246q0 197 -146 264q54 36 85.5 96t31.5 131q0 134 -82.5 218.5t-228.5 84.5q-147 0 -230.5 -84.5t-83.5 -218.5v-45h228v31q0 53 23.5 84.5t62.5 31.5
q37 0 60.5 -31.5t23.5 -84.5q0 -57 -24.5 -88t-65.5 -31h-123v-197h123q53 0 84.5 -39.5t31.5 -111.5q0 -69 -30.5 -108.5t-79.5 -39.5t-80 39.5t-31 108.5v30h-231v-40zM72 797q0 -482 278 -873h168q-123 194 -188.5 421.5t-65.5 451.5t65.5 451t188.5 423h-168
q-278 -394 -278 -874zM1894 797q0 480 -278 874h-168q123 -196 188.5 -423t65.5 -451t-65.5 -451.5t-188.5 -421.5h168q278 391 278 873z" />
    <glyph glyph-name="_840" unicode="&#x2481;" 
d="M807 260v1096h-186l-256 -131v-228l210 107v-844h232zM1102 666l141 286v-286h-141zM1573 666h-100v684h-236l-373 -703v-180h379v-213h230v213h100v199zM72 797q0 -482 278 -873h168q-123 194 -188.5 421.5t-65.5 451.5t65.5 451t188.5 423h-168q-278 -394 -278 -874z
M1894 797q0 480 -278 874h-168q123 -196 188.5 -423t65.5 -451t-65.5 -451.5t-188.5 -421.5h168q278 391 278 873z" />
    <glyph glyph-name="_841" unicode="&#x2482;" 
d="M807 260v1096h-186l-256 -131v-228l210 107v-844h232zM1217 780q102 0 102 -172q0 -85 -27 -128.5t-75 -43.5q-44 0 -71.5 38t-33.5 110h-231q11 -163 99 -255.5t237 -92.5q155 0 244 98t89 272q0 182 -80.5 277.5t-214.5 95.5q-61 0 -108 -27l12 197h340v201h-559
l-25 -633h218q32 63 84 63zM72 797q0 -482 278 -873h168q-123 194 -188.5 421.5t-65.5 451.5t65.5 451t188.5 423h-168q-278 -394 -278 -874zM1894 797q0 480 -278 874h-168q123 -196 188.5 -423t65.5 -451t-65.5 -451.5t-188.5 -421.5h168q278 391 278 873z" />
    <glyph glyph-name="_9042" unicode="&#x2483;" 
d="M807 260h-232v844l-210 -107v228l256 131h186v-1096zM1548 1065h-233q-16 113 -84 113q-51 0 -77 -55t-32 -171q53 35 133 35q137 0 223.5 -100t86.5 -271q0 -169 -94.5 -270.5t-243.5 -101.5q-173 0 -264 139q-44 66 -61 157.5t-17 225.5q0 323 81.5 466.5t264.5 143.5
q131 0 214.5 -80.5t102.5 -230.5zM1335 616q0 83 -28.5 127.5t-81.5 44.5q-50 0 -79.5 -45t-29.5 -127q0 -81 29.5 -126.5t79.5 -45.5q52 0 81 45t29 127zM72 797q0 480 278 874h168q-123 -196 -188.5 -423t-65.5 -451t65.5 -451.5t188.5 -421.5h-168q-278 391 -278 873z
M1894 797q0 -482 -278 -873h-168q123 194 188.5 421.5t65.5 451.5t-65.5 451t-188.5 423h168q278 -394 278 -874z" />
    <glyph glyph-name="_9043" unicode="&#x2484;" 
d="M807 260h-232v844l-210 -107v228l256 131h186v-1096zM899 1139v200h651v-163l-311 -932h-238l310 895h-412zM72 797q0 480 278 874h168q-123 -196 -188.5 -423t-65.5 -451t65.5 -451.5t188.5 -421.5h-168q-278 391 -278 873zM1894 797q0 -482 -278 -873h-168
q123 194 188.5 421.5t65.5 451.5t-65.5 451t-188.5 423h168q278 -394 278 -874z" />
    <glyph glyph-name="_9044" unicode="&#x2485;" 
d="M807 260h-232v844l-210 -107v228l256 131h186v-1096zM1217 246q-159 0 -257 92t-98 246q0 87 39 154t107 106q-54 36 -86.5 98t-32.5 133q0 132 89 217.5t239 85.5t237.5 -85.5t87.5 -217.5q0 -72 -31.5 -134t-85.5 -97q146 -78 146 -260q0 -154 -98 -246t-256 -92z
M1217 1178q-44 0 -71.5 -33t-27.5 -86q0 -52 27.5 -84.5t71.5 -32.5t71 32t27 85t-27 86t-71 33zM1217 748q-56 0 -90.5 -41t-34.5 -111q0 -68 34.5 -109t90.5 -41t89 40.5t33 109.5q0 70 -33 111t-89 41zM72 797q0 480 278 874h168q-123 -196 -188.5 -423t-65.5 -451
t65.5 -451.5t188.5 -421.5h-168q-278 391 -278 873zM1894 797q0 -482 -278 -873h-168q123 194 188.5 421.5t65.5 451.5t-65.5 451t-188.5 423h168q278 -394 278 -874z" />
    <glyph glyph-name="_9045" unicode="&#x2486;" 
d="M807 260h-232v844l-210 -107v228l256 131h186v-1096zM899 557h234q16 -115 86 -115q49 0 74.5 55.5t31.5 170.5q-58 -33 -133 -33q-136 0 -222.5 100t-86.5 269q0 171 94.5 272.5t243.5 101.5q85 0 154 -36t112 -103q42 -66 59 -158t17 -225q0 -326 -81 -468t-265 -142
q-132 0 -215.5 80t-102.5 231zM1114 1004q0 -82 28.5 -127.5t80.5 -45.5q51 0 78.5 45.5t27.5 127.5q0 83 -27.5 128.5t-78.5 45.5q-52 0 -80.5 -45.5t-28.5 -128.5zM72 797q0 480 278 874h168q-123 -196 -188.5 -423t-65.5 -451t65.5 -451.5t188.5 -421.5h-168
q-278 391 -278 873zM1894 797q0 -482 -278 -873h-168q123 194 188.5 421.5t65.5 451.5t-65.5 451t-188.5 423h168q278 -394 278 -874z" />
    <glyph glyph-name="_9046" unicode="&#x2487;" 
d="M950 1042q0 -75 -20 -134.5t-66 -127.5l-205 -311h304v-201h-576v170l305 459q47 70 47 145q0 66 -19.5 103t-55.5 37q-35 0 -56.5 -38t-21.5 -102v-53h-211v53q0 146 77.5 243t211.5 97t210 -96.5t76 -243.5zM1212 811q0 -153 10 -232t35 -110q17 -23 52 -23q34 0 51 23
q25 31 35 110t10 232t-10 232t-35 110q-17 23 -51 23q-35 0 -52 -23q-25 -31 -35 -110t-10 -232zM1004 811q0 212 33.5 339.5t113.5 182.5q61 43 158 43q96 0 157 -43q80 -55 114 -182.5t34 -339.5t-34 -339.5t-114 -182.5q-61 -43 -157 -43q-97 0 -158 43
q-80 55 -113.5 182.5t-33.5 339.5zM72 797q0 480 278 874h168q-123 -196 -188.5 -423t-65.5 -451t65.5 -451.5t188.5 -421.5h-168q-278 391 -278 873zM1894 797q0 -482 -278 -873h-168q123 194 188.5 421.5t65.5 451.5t-65.5 451t-188.5 423h168q278 -394 278 -874z" />
    <glyph glyph-name="_801" unicode="&#x249c;" 
d="M1112 383h260q-29 74 -29 135v406q0 151 -92 238t-274 87q-167 0 -261 -80t-106 -219h256q12 92 111 92q115 0 115 -118v-58q-73 54 -191 54q-148 0 -232.5 -73.5t-84.5 -205.5t84.5 -205.5t232.5 -73.5q124 0 199 62q3 -24 12 -41zM965 555q-127 0 -127 86t127 86
t127 -86t-127 -86zM72 797q0 -482 278 -873h168q-123 194 -188.5 421.5t-65.5 451.5t65.5 451t188.5 423h-168q-278 -394 -278 -874zM1894 797q0 480 -278 874h-168q123 -196 188.5 -423t65.5 -451t-65.5 -451.5t-188.5 -421.5h168q278 391 278 873z" />
    <glyph glyph-name="_802" unicode="&#x249d;" 
d="M911 315q71 -71 191 -71q159 0 249.5 111t90.5 333t-90.5 332t-249.5 110q-119 0 -191 -69v371h-254v-1168h254v51zM1049 453q-74 0 -106 59t-32 176q0 115 32 174.5t106 59.5q75 0 107 -59t32 -175q0 -118 -32 -176.5t-107 -58.5zM72 797q0 -482 278 -873h168
q-123 194 -188.5 421.5t-65.5 451.5t65.5 451t188.5 423h-168q-278 -394 -278 -874zM1894 797q0 480 -278 874h-168q123 -196 188.5 -423t65.5 -451t-65.5 -451.5t-188.5 -421.5h168q278 391 278 873z" />
    <glyph glyph-name="_803" unicode="&#x249e;" 
d="M592 805q0 -215 99.5 -330t293.5 -115q167 0 266.5 88.5t114.5 249.5h-254q-13 -129 -127 -129q-75 0 -107 59t-32 177q0 116 32 174.5t107 58.5q56 0 88.5 -33t38.5 -94h254q-15 160 -114.5 248t-266.5 88q-194 0 -293.5 -114.5t-99.5 -327.5zM72 797q0 -482 278 -873
h168q-123 194 -188.5 421.5t-65.5 451.5t65.5 451t188.5 423h-168q-278 -394 -278 -874zM1894 797q0 480 -278 874h-168q123 -196 188.5 -423t65.5 -451t-65.5 -451.5t-188.5 -421.5h168q278 391 278 873z" />
    <glyph glyph-name="_804" unicode="&#x249f;" 
d="M1061 272h254v1168h-254v-371q-73 70 -191 70q-159 0 -249.5 -110.5t-90.5 -332.5t90.5 -333t249.5 -111q119 0 191 72v-52zM924 461q-75 0 -107.5 59t-32.5 176q0 116 32.5 175t107.5 59t106 -59t31 -175q0 -118 -31 -176.5t-106 -58.5zM72 797q0 -482 278 -873h168
q-123 194 -188.5 421.5t-65.5 451.5t65.5 451t188.5 423h-168q-278 -394 -278 -874zM1894 797q0 480 -278 874h-168q123 -196 188.5 -423t65.5 -451t-65.5 -451.5t-188.5 -421.5h168q278 391 278 873z" />
    <glyph glyph-name="_805" unicode="&#x24a0;" 
d="M1372 725v82q0 214 -98.5 328t-292.5 114t-293.5 -114.5t-99.5 -327.5q0 -215 99.5 -330t293.5 -115q156 0 254.5 81.5t124.5 232.5h-258q-9 -52 -41 -80.5t-80 -28.5q-125 0 -137 158h528zM981 1047q114 0 133 -138h-266q15 138 133 138zM72 797q0 -482 278 -873h168
q-123 194 -188.5 421.5t-65.5 451.5t65.5 451t188.5 423h-168q-278 -394 -278 -874zM1894 797q0 480 -278 874h-168q123 -196 188.5 -423t65.5 -451t-65.5 -451.5t-188.5 -421.5h168q278 391 278 873z" />
    <glyph glyph-name="_806" unicode="&#x24a1;" 
d="M1249 1182v192q-61 15 -139 15q-162 0 -233.5 -62t-71.5 -207v-61h-115v-209h115v-639h252v639h192v209h-192v51q0 39 18.5 55.5t63.5 16.5h110zM72 797q0 -482 278 -873h168q-123 194 -188.5 421.5t-65.5 451.5t65.5 451t188.5 423h-168q-278 -394 -278 -874zM1894 797
q0 480 -278 874h-168q123 -196 188.5 -423t65.5 -451t-65.5 -451.5t-188.5 -421.5h168q278 391 278 873z" />
    <glyph glyph-name="_807" unicode="&#x24a2;" 
d="M1102 961q0 -118 -31 -177t-106 -59q-76 0 -108 59t-32 177q0 116 32 174.5t108 58.5q75 0 106 -58.5t31 -174.5zM1356 1384h-254v-51q-73 70 -191 70q-159 0 -249.5 -110t-90.5 -332t90.5 -333.5t249.5 -111.5q119 0 191 72v-70q0 -156 -121 -156q-103 0 -115 103h-258
q19 -141 116 -220t255 -79q97 0 170.5 28t118 79t66.5 116.5t22 145.5v849zM72 797q0 -482 278 -873h168q-123 194 -188.5 421.5t-65.5 451.5t65.5 451t188.5 423h-168q-278 -394 -278 -874zM1894 797q0 480 -278 874h-168q123 -196 188.5 -423t65.5 -451t-65.5 -451.5
t-188.5 -421.5h168q278 391 278 873z" />
    <glyph glyph-name="_808" unicode="&#x24a3;" 
d="M1397 780q0 164 -77 251t-222 87q-124 0 -197 -76v377h-254v-1167h254v471q0 90 40 138t106 48q96 0 96 -133v-524h254v528zM72 797q0 -482 278 -873h168q-123 194 -188.5 421.5t-65.5 451.5t65.5 451t188.5 423h-168q-278 -394 -278 -874zM1894 797q0 480 -278 874h-168
q123 -196 188.5 -423t65.5 -451t-65.5 -451.5t-188.5 -421.5h168q278 391 278 873z" />
    <glyph glyph-name="_809" unicode="&#x24a4;" 
d="M854 1165h254v232h-254v-232zM854 229h254v848h-254v-848zM72 797q0 -482 278 -873h168q-123 194 -188.5 421.5t-65.5 451.5t65.5 451t188.5 423h-168q-278 -394 -278 -874zM1894 797q0 480 -278 874h-168q123 -196 188.5 -423t65.5 -451t-65.5 -451.5t-188.5 -421.5h168
q278 391 278 873z" />
    <glyph glyph-name="_810" unicode="&#x24a5;" 
d="M901 430q0 -88 -72 -88h-88v-201q47 -6 113 -6q148 0 224.5 70t76.5 205v757h-254v-737zM901 1255h254v232h-254v-232zM72 797q0 -482 278 -873h168q-123 194 -188.5 421.5t-65.5 451.5t65.5 451t188.5 423h-168q-278 -394 -278 -874zM1894 797q0 480 -278 874h-168
q123 -196 188.5 -423t65.5 -451t-65.5 -451.5t-188.5 -421.5h168q278 391 278 873z" />
    <glyph glyph-name="_811" unicode="&#x24a6;" 
d="M672 264h254v340h24l217 -340h283l-291 443l252 405h-274l-189 -309h-22v629h-254v-1168zM72 797q0 -482 278 -873h168q-123 194 -188.5 421.5t-65.5 451.5t65.5 451t188.5 423h-168q-278 -394 -278 -874zM1894 797q0 480 -278 874h-168q123 -196 188.5 -423t65.5 -451
t-65.5 -451.5t-188.5 -421.5h168q278 391 278 873z" />
    <glyph glyph-name="_812" unicode="&#x24a7;" 
d="M1116 219v1167h-254v-1167h254zM72 797q0 -482 278 -873h168q-123 194 -188.5 421.5t-65.5 451.5t65.5 451t188.5 423h-168q-278 -394 -278 -874zM1894 797q0 480 -278 874h-168q123 -196 188.5 -423t65.5 -451t-65.5 -451.5t-188.5 -421.5h168q278 391 278 873z" />
    <glyph glyph-name="_813" unicode="&#x24a8;" 
d="M1118 850q0 91 33 138.5t94 47.5q82 0 82 -121v-536h254v528q0 163 -72.5 250.5t-210.5 87.5q-72 0 -133 -31.5t-100 -91.5q-67 123 -229 123q-114 0 -181 -74v56h-254v-848h254v471q0 91 33 138.5t94 47.5q44 0 63 -29.5t19 -91.5v-536h254v471zM72 797q0 -482 278 -873
h168q-123 194 -188.5 421.5t-65.5 451.5t65.5 451t188.5 423h-168q-278 -394 -278 -874zM1894 797q0 480 -278 874h-168q123 -196 188.5 -423t65.5 -451t-65.5 -451.5t-188.5 -421.5h168q278 391 278 873z" />
    <glyph glyph-name="_814" unicode="&#x24a9;" 
d="M1364 909q0 164 -77 251t-222 87q-124 0 -197 -76v58h-254v-848h254v471q0 90 40 138t106 48q96 0 96 -133v-524h254v528zM72 797q0 -482 278 -873h168q-123 194 -188.5 421.5t-65.5 451.5t65.5 451t188.5 423h-168q-278 -394 -278 -874zM1894 797q0 480 -278 874h-168
q123 -196 188.5 -423t65.5 -451t-65.5 -451.5t-188.5 -421.5h168q278 391 278 873z" />
    <glyph glyph-name="_815" unicode="&#x24aa;" 
d="M1376 809q0 214 -98.5 328t-292.5 114t-293.5 -114.5t-99.5 -327.5q0 -215 99.5 -329.5t293.5 -114.5t292.5 114.5t98.5 329.5zM846 809q0 116 32 174.5t107 58.5t106 -58.5t31 -174.5q0 -118 -31 -177t-106 -59t-107 59t-32 177zM72 797q0 -482 278 -873h168
q-123 194 -188.5 421.5t-65.5 451.5t65.5 451t188.5 423h-168q-278 -394 -278 -874zM1894 797q0 480 -278 874h-168q123 -196 188.5 -423t65.5 -451t-65.5 -451.5t-188.5 -421.5h168q278 391 278 873z" />
    <glyph glyph-name="_816" unicode="&#x24ab;" 
d="M899 1358h-254v-1196h254v399q72 -72 191 -72q159 0 249.5 111.5t90.5 333.5t-90.5 332t-249.5 110q-119 0 -191 -69v51zM1036 698q-74 0 -105.5 59t-31.5 177q0 116 31.5 174.5t105.5 58.5q75 0 107.5 -59t32.5 -174q0 -118 -32.5 -177t-107.5 -59zM72 797
q0 -482 278 -873h168q-123 194 -188.5 421.5t-65.5 451.5t65.5 451t188.5 423h-168q-278 -394 -278 -874zM1894 797q0 480 -278 874h-168q123 -196 188.5 -423t65.5 -451t-65.5 -451.5t-188.5 -421.5h168q278 391 278 873z" />
    <glyph glyph-name="_817" unicode="&#x24ac;" 
d="M1061 1307q-72 69 -191 69q-159 0 -249.5 -110t-90.5 -332t90.5 -333.5t249.5 -111.5q119 0 191 72v-399h254v1196h-254v-51zM924 698q-75 0 -107.5 59t-32.5 177q0 115 32.5 174t107.5 59t106 -58.5t31 -174.5q0 -118 -31 -177t-106 -59zM72 797q0 -482 278 -873h168
q-123 194 -188.5 421.5t-65.5 451.5t65.5 451t188.5 423h-168q-278 -394 -278 -874zM1894 797q0 480 -278 874h-168q123 -196 188.5 -423t65.5 -451t-65.5 -451.5t-188.5 -421.5h168q278 391 278 873z" />
    <glyph glyph-name="_818" unicode="&#x24ad;" 
d="M1178 1016q47 0 96 -8l2 209q-50 12 -92 12q-120 0 -185 -78v59h-254v-848h254v435q0 108 46 163.5t133 55.5zM72 797q0 -482 278 -873h168q-123 194 -188.5 421.5t-65.5 451.5t65.5 451t188.5 423h-168q-278 -394 -278 -874zM1894 797q0 480 -278 874h-168
q123 -196 188.5 -423t65.5 -451t-65.5 -451.5t-188.5 -421.5h168q278 391 278 873z" />
    <glyph glyph-name="_819" unicode="&#x24ae;" 
d="M641 635q0 -120 95 -196.5t257 -76.5q161 0 258 77.5t97 195.5q0 120 -65.5 184t-217.5 90q-14 2 -40 7.5t-40 7.5q-44 9 -65 24.5t-21 42.5q0 26 21 43t59 17q41 0 62.5 -18t21.5 -46v-35h254v35q0 119 -90 190.5t-248 71.5q-154 0 -245 -74t-91 -192q0 -112 70 -175.5
t217 -88.5q13 -2 41 -7t41 -7q82 -14 82 -74q0 -32 -27 -51t-74 -19q-45 0 -71.5 19.5t-26.5 52.5v41h-254v-39zM72 797q0 -482 278 -873h168q-123 194 -188.5 421.5t-65.5 451.5t65.5 451t188.5 423h-168q-278 -394 -278 -874zM1894 797q0 480 -278 874h-168
q123 -196 188.5 -423t65.5 -451t-65.5 -451.5t-188.5 -421.5h168q278 391 278 873z" />
    <glyph glyph-name="_820" unicode="&#x24af;" 
d="M1049 934h204v209h-204v225h-256v-225h-113v-209h113v-391q0 -144 71.5 -202t241.5 -58q92 0 147 6v200h-108q-57 0 -76.5 17t-19.5 69v359zM72 797q0 -482 278 -873h168q-123 194 -188.5 421.5t-65.5 451.5t65.5 451t188.5 423h-168q-278 -394 -278 -874zM1894 797
q0 480 -278 874h-168q123 -196 188.5 -423t65.5 -451t-65.5 -451.5t-188.5 -421.5h168q278 391 278 873z" />
    <glyph glyph-name="_821" unicode="&#x24b0;" 
d="M588 682q0 -163 76.5 -250.5t220.5 -87.5q120 0 198 78v-57h254v847h-254v-473q0 -89 -39.5 -137.5t-105.5 -48.5q-98 0 -98 133v526h-252v-530zM72 797q0 -482 278 -873h168q-123 194 -188.5 421.5t-65.5 451.5t65.5 451t188.5 423h-168q-278 -394 -278 -874zM1894 797
q0 480 -278 874h-168q123 -196 188.5 -423t65.5 -451t-65.5 -451.5t-188.5 -421.5h168q278 391 278 873z" />
    <glyph glyph-name="_822" unicode="&#x24b1;" 
d="M1102 338l301 848h-262l-170 -537l-170 537h-262l301 -848h262zM72 797q0 -482 278 -873h168q-123 194 -188.5 421.5t-65.5 451.5t65.5 451t188.5 423h-168q-278 -394 -278 -874zM1894 797q0 480 -278 874h-168q123 -196 188.5 -423t65.5 -451t-65.5 -451.5
t-188.5 -421.5h168q278 391 278 873z" />
    <glyph glyph-name="_823" unicode="&#x24b2;" 
d="M868 1202l-147 -510l-141 510h-261l271 -848h244l147 502l147 -502h244l270 848h-256l-143 -506l-149 506h-226zM72 797q0 -482 278 -873h168q-123 194 -188.5 421.5t-65.5 451.5t65.5 451t188.5 423h-168q-278 -394 -278 -874zM1894 797q0 480 -278 874h-168
q123 -196 188.5 -423t65.5 -451t-65.5 -451.5t-188.5 -421.5h168q278 391 278 873z" />
    <glyph glyph-name="_824" unicode="&#x24b3;" 
d="M985 625l145 -254h277l-270 434l254 414h-277l-129 -234l-131 234h-274l251 -414l-268 -434h273zM72 797q0 -482 278 -873h168q-123 194 -188.5 421.5t-65.5 451.5t65.5 451t188.5 423h-168q-278 -394 -278 -874zM1894 797q0 480 -278 874h-168q123 -196 188.5 -423
t65.5 -451t-65.5 -451.5t-188.5 -421.5h168q278 391 278 873z" />
    <glyph glyph-name="_825" unicode="&#x24b4;" 
d="M840 393q-13 -39 -32.5 -54t-47.5 -15h-88v-199q45 -8 110 -8q115 0 182 46.5t113 172.5l353 977h-265l-166 -520l-174 520h-262l309 -826zM72 797q0 -482 278 -873h168q-123 194 -188.5 421.5t-65.5 451.5t65.5 451t188.5 423h-168q-278 -394 -278 -874zM1894 797
q0 480 -278 874h-168q123 -196 188.5 -423t65.5 -451t-65.5 -451.5t-188.5 -421.5h168q278 391 278 873z" />
    <glyph glyph-name="_826" unicode="&#x24b5;" 
d="M1309 1229h-660v-209h334l-346 -467v-172h682v207h-358l348 467v174zM72 797q0 -482 278 -873h168q-123 194 -188.5 421.5t-65.5 451.5t65.5 451t188.5 423h-168q-278 -394 -278 -874zM1894 797q0 480 -278 874h-168q123 -196 188.5 -423t65.5 -451t-65.5 -451.5
t-188.5 -421.5h168q278 391 278 873z" />
    <glyph glyph-name="_8388" unicode="&#x24b6;" 
d="M985 1679q179 0 343.5 -70.5t283.5 -189.5t189.5 -283t70.5 -343q0 -239 -119.5 -443.5t-324 -324t-443.5 -119.5q-181 0 -346 70.5t-284.5 189.5t-190 283.5t-70.5 343.5t70.5 343t190 283t284.5 189.5t346 70.5zM985 1599q-164 0 -313 -64t-256.5 -172t-171.5 -257
t-64 -313q0 -218 108 -404t293.5 -294.5t403.5 -108.5q162 0 310.5 64t255.5 172.5t171 258t64 312.5t-64 312.5t-171 257.5t-255.5 172t-310.5 64zM909 1356h144l401 -1047h-143l-101 273h-460l-99 -273h-143zM981 1219l-190 -523h380z" />
    <glyph glyph-name="_8389" unicode="&#x24b7;" 
d="M985 1679q179 0 343.5 -70.5t283.5 -189.5t189.5 -283t70.5 -343q0 -239 -119.5 -443.5t-324 -324t-443.5 -119.5q-181 0 -346 70.5t-284.5 189.5t-190 283.5t-70.5 343.5t70.5 343t190 283t284.5 189.5t346 70.5zM985 1599q-164 0 -313 -64t-256.5 -172t-171.5 -257
t-64 -313q0 -218 108 -404t293.5 -294.5t403.5 -108.5q162 0 310.5 64t255.5 172.5t171 258t64 312.5t-64 312.5t-171 257.5t-255.5 172t-310.5 64zM659 289v1046h359q162 0 253 -76.5t91 -199.5q0 -70 -35.5 -127t-95.5 -86q88 -32 136 -99.5t48 -156.5
q0 -142 -98.5 -221.5t-276.5 -79.5h-381zM791 891h208q111 0 171.5 44.5t60.5 123.5q0 160 -232 160h-208v-328zM1284 590q0 89 -66 136.5t-198 47.5h-229v-368h229q264 0 264 184z" />
    <glyph glyph-name="_8390" unicode="&#x24b8;" 
d="M985 1679q179 0 343.5 -70.5t283.5 -189.5t189.5 -283t70.5 -343q0 -239 -119.5 -443.5t-324 -324t-443.5 -119.5q-181 0 -346 70.5t-284.5 189.5t-190 283.5t-70.5 343.5t70.5 343t190 283t284.5 189.5t346 70.5zM985 1599q-164 0 -313 -64t-256.5 -172t-171.5 -257
t-64 -313q0 -218 108 -404t293.5 -294.5t403.5 -108.5q162 0 310.5 64t255.5 172.5t171 258t64 312.5t-64 312.5t-171 257.5t-255.5 172t-310.5 64zM526 813q0 238 147.5 389.5t389.5 151.5q136 0 244 -43l-13 -133q-99 57 -221 57q-192 0 -301.5 -118t-109.5 -304
q0 -193 111.5 -307.5t301.5 -114.5q121 0 223 60l15 -134q-98 -45 -242 -45q-249 0 -397 148.5t-148 392.5z" />
    <glyph glyph-name="_8391" unicode="&#x24b9;" 
d="M985 1679q179 0 343.5 -70.5t283.5 -189.5t189.5 -283t70.5 -343q0 -239 -119.5 -443.5t-324 -324t-443.5 -119.5q-181 0 -346 70.5t-284.5 189.5t-190 283.5t-70.5 343.5t70.5 343t190 283t284.5 189.5t346 70.5zM985 1599q-164 0 -313 -64t-256.5 -172t-171.5 -257
t-64 -313q0 -218 108 -404t293.5 -294.5t403.5 -108.5q162 0 310.5 64t255.5 172.5t171 258t64 312.5t-64 312.5t-171 257.5t-255.5 172t-310.5 64zM1346 813q0 406 -449 406h-115v-813h115q449 0 449 407zM1481 813q0 -128 -42.5 -228.5t-118.5 -164.5t-178 -97.5
t-224 -33.5h-267v1046h267q122 0 224 -33t178 -97t118.5 -164t42.5 -228z" />
    <glyph glyph-name="_8392" unicode="&#x24ba;" 
d="M985 1679q179 0 343.5 -70.5t283.5 -189.5t189.5 -283t70.5 -343q0 -239 -119.5 -443.5t-324 -324t-443.5 -119.5q-181 0 -346 70.5t-284.5 189.5t-190 283.5t-70.5 343.5t70.5 343t190 283t284.5 189.5t346 70.5zM985 1599q-164 0 -313 -64t-256.5 -172t-171.5 -257
t-64 -313q0 -218 108 -404t293.5 -294.5t403.5 -108.5q162 0 310.5 64t255.5 172.5t171 258t64 312.5t-64 312.5t-171 257.5t-255.5 172t-310.5 64zM662 289v1046h653v-116h-522v-332h483v-117h-483v-364h534v-117h-665z" />
    <glyph glyph-name="_8393" unicode="&#x24bb;" 
d="M985 1679q179 0 343.5 -70.5t283.5 -189.5t189.5 -283t70.5 -343q0 -239 -119.5 -443.5t-324 -324t-443.5 -119.5q-181 0 -346 70.5t-284.5 189.5t-190 283.5t-70.5 343.5t70.5 343t190 283t284.5 189.5t346 70.5zM985 1599q-164 0 -313 -64t-256.5 -172t-171.5 -257
t-64 -313q0 -218 108 -404t293.5 -294.5t403.5 -108.5q162 0 310.5 64t255.5 172.5t171 258t64 312.5t-64 312.5t-171 257.5t-255.5 172t-310.5 64zM698 289v1046h648v-116h-519v-326h484v-119h-484v-485h-129z" />
    <glyph glyph-name="_8394" unicode="&#x24bc;" 
d="M985 1679q179 0 343.5 -70.5t283.5 -189.5t189.5 -283t70.5 -343q0 -239 -119.5 -443.5t-324 -324t-443.5 -119.5q-181 0 -346 70.5t-284.5 189.5t-190 283.5t-70.5 343.5t70.5 343t190 283t284.5 189.5t346 70.5zM985 1599q-164 0 -313 -64t-256.5 -172t-171.5 -257
t-64 -313q0 -218 108 -404t293.5 -294.5t403.5 -108.5q162 0 310.5 64t255.5 172.5t171 258t64 312.5t-64 312.5t-171 257.5t-255.5 172t-310.5 64zM465 813q0 153 66 275t192 194t291 72q179 0 309 -54l-12 -131q-139 66 -289 66q-192 0 -308 -118t-116 -304
q0 -191 117 -306.5t325 -115.5q103 0 172 27v330h-284v116h415v-534q-140 -58 -315 -58q-255 0 -409 151t-154 390z" />
    <glyph glyph-name="_8395" unicode="&#x24bd;" 
d="M985 1679q179 0 343.5 -70.5t283.5 -189.5t189.5 -283t70.5 -343q0 -239 -119.5 -443.5t-324 -324t-443.5 -119.5q-181 0 -346 70.5t-284.5 189.5t-190 283.5t-70.5 343.5t70.5 343t190 283t284.5 189.5t346 70.5zM985 1599q-164 0 -313 -64t-256.5 -172t-171.5 -257
t-64 -313q0 -218 108 -404t293.5 -294.5t403.5 -108.5q162 0 310.5 64t255.5 172.5t171 258t64 312.5t-64 312.5t-171 257.5t-255.5 172t-310.5 64zM575 289v1046h132v-432h546v432h133v-1046h-133v497h-546v-497h-132z" />
    <glyph glyph-name="_8396" unicode="&#x24be;" 
d="M985 1679q179 0 343.5 -70.5t283.5 -189.5t189.5 -283t70.5 -343q0 -239 -119.5 -443.5t-324 -324t-443.5 -119.5q-181 0 -346 70.5t-284.5 189.5t-190 283.5t-70.5 343.5t70.5 343t190 283t284.5 189.5t346 70.5zM985 1599q-164 0 -313 -64t-256.5 -172t-171.5 -257
t-64 -313q0 -218 108 -404t293.5 -294.5t403.5 -108.5q162 0 310.5 64t255.5 172.5t171 258t64 312.5t-64 312.5t-171 257.5t-255.5 172t-310.5 64zM915 1335h132v-1046h-132v1046z" />
    <glyph glyph-name="_8397" unicode="&#x24bf;" 
d="M985 1679q179 0 343.5 -70.5t283.5 -189.5t189.5 -283t70.5 -343q0 -239 -119.5 -443.5t-324 -324t-443.5 -119.5q-181 0 -346 70.5t-284.5 189.5t-190 283.5t-70.5 343.5t70.5 343t190 283t284.5 189.5t346 70.5zM985 1599q-164 0 -313 -64t-256.5 -172t-171.5 -257
t-64 -313q0 -218 108 -404t293.5 -294.5t403.5 -108.5q162 0 310.5 64t255.5 172.5t171 258t64 312.5t-64 312.5t-171 257.5t-255.5 172t-310.5 64zM1114 627v704h131v-704q0 -357 -311 -357q-132 0 -219 43l10 131q82 -55 205 -55q184 0 184 238z" />
    <glyph glyph-name="_8398" unicode="&#x24c0;" 
d="M985 1679q179 0 343.5 -70.5t283.5 -189.5t189.5 -283t70.5 -343q0 -239 -119.5 -443.5t-324 -324t-443.5 -119.5q-181 0 -346 70.5t-284.5 189.5t-190 283.5t-70.5 343.5t70.5 343t190 283t284.5 189.5t346 70.5zM985 1599q-164 0 -313 -64t-256.5 -172t-171.5 -257
t-64 -313q0 -218 108 -404t293.5 -294.5t403.5 -108.5q162 0 310.5 64t255.5 172.5t171 258t64 312.5t-64 312.5t-171 257.5t-255.5 172t-310.5 64zM1212 1335h164l-469 -489l541 -557h-176l-504 532v-532h-131v1046h131v-463z" />
    <glyph glyph-name="_8399" unicode="&#x24c1;" 
d="M985 1679q179 0 343.5 -70.5t283.5 -189.5t189.5 -283t70.5 -343q0 -239 -119.5 -443.5t-324 -324t-443.5 -119.5q-181 0 -346 70.5t-284.5 189.5t-190 283.5t-70.5 343.5t70.5 343t190 283t284.5 189.5t346 70.5zM985 1599q-164 0 -313 -64t-256.5 -172t-171.5 -257
t-64 -313q0 -218 108 -404t293.5 -294.5t403.5 -108.5q162 0 310.5 64t255.5 172.5t171 258t64 312.5t-64 312.5t-171 257.5t-255.5 172t-310.5 64zM674 289v1046h131v-929h563v-117h-694z" />
    <glyph glyph-name="_8400" unicode="&#x24c2;" 
d="M985 1679q179 0 343.5 -70.5t283.5 -189.5t189.5 -283t70.5 -343q0 -239 -119.5 -443.5t-324 -324t-443.5 -119.5q-181 0 -346 70.5t-284.5 189.5t-190 283.5t-70.5 343.5t70.5 343t190 283t284.5 189.5t346 70.5zM985 1599q-164 0 -313 -64t-256.5 -172t-171.5 -257
t-64 -313q0 -218 108 -404t293.5 -294.5t403.5 -108.5q162 0 310.5 64t255.5 172.5t171 258t64 312.5t-64 312.5t-171 257.5t-255.5 172t-310.5 64zM1036 637h-110l-332 508v-856h-125v1046h139l373 -575l373 575h139v-1046h-125v856z" />
    <glyph glyph-name="_8401" unicode="&#x24c3;" 
d="M985 1679q179 0 343.5 -70.5t283.5 -189.5t189.5 -283t70.5 -343q0 -239 -119.5 -443.5t-324 -324t-443.5 -119.5q-181 0 -346 70.5t-284.5 189.5t-190 283.5t-70.5 343.5t70.5 343t190 283t284.5 189.5t346 70.5zM985 1599q-164 0 -313 -64t-256.5 -172t-171.5 -257
t-64 -313q0 -218 108 -404t293.5 -294.5t403.5 -108.5q162 0 310.5 64t255.5 172.5t171 258t64 312.5t-64 312.5t-171 257.5t-255.5 172t-310.5 64zM571 289v1046h158l537 -882v882h125v-1046h-158l-537 882v-882h-125z" />
    <glyph glyph-name="_8402" unicode="&#x24c4;" 
d="M985 1679q179 0 343.5 -70.5t283.5 -189.5t189.5 -283t70.5 -343q0 -239 -119.5 -443.5t-324 -324t-443.5 -119.5q-181 0 -346 70.5t-284.5 189.5t-190 283.5t-70.5 343.5t70.5 343t190 283t284.5 189.5t346 70.5zM985 1599q-164 0 -313 -64t-256.5 -172t-171.5 -257
t-64 -313q0 -218 108 -404t293.5 -294.5t403.5 -108.5q162 0 310.5 64t255.5 172.5t171 258t64 312.5t-64 312.5t-171 257.5t-255.5 172t-310.5 64zM1448 813q0 -154 -54.5 -275.5t-161.5 -193.5t-251 -72q-145 0 -252.5 72t-162 193.5t-54.5 275.5q0 153 54.5 274.5
t162 194t252.5 72.5q215 0 341 -153.5t126 -387.5zM647 813q0 -193 91 -307.5t243 -114.5q151 0 241.5 114.5t90.5 307.5t-90.5 307.5t-241.5 114.5q-152 0 -243 -114.5t-91 -307.5z" />
    <glyph glyph-name="_8403" unicode="&#x24c5;" 
d="M985 1679q179 0 343.5 -70.5t283.5 -189.5t189.5 -283t70.5 -343q0 -239 -119.5 -443.5t-324 -324t-443.5 -119.5q-181 0 -346 70.5t-284.5 189.5t-190 283.5t-70.5 343.5t70.5 343t190 283t284.5 189.5t346 70.5zM985 1599q-164 0 -313 -64t-256.5 -172t-171.5 -257
t-64 -313q0 -218 108 -404t293.5 -294.5t403.5 -108.5q162 0 310.5 64t255.5 172.5t171 258t64 312.5t-64 312.5t-171 257.5t-255.5 172t-310.5 64zM1419 1010q0 -153 -105.5 -238.5t-283.5 -85.5h-192v-397h-133v1046h325q178 0 283.5 -85.5t105.5 -239.5zM1286 1010
q0 107 -65.5 158t-200.5 51h-182v-416h182q136 0 201 50t65 157z" />
    <glyph glyph-name="_8404" unicode="&#x24c6;" 
d="M985 1679q179 0 343.5 -70.5t283.5 -189.5t189.5 -283t70.5 -343q0 -239 -119.5 -443.5t-324 -324t-443.5 -119.5q-181 0 -346 70.5t-284.5 189.5t-190 283.5t-70.5 343.5t70.5 343t190 283t284.5 189.5t346 70.5zM985 1599q-164 0 -313 -64t-256.5 -172t-171.5 -257
t-64 -313q0 -218 108 -404t293.5 -294.5t403.5 -108.5q162 0 310.5 64t255.5 172.5t171 258t64 312.5t-64 312.5t-171 257.5t-255.5 172t-310.5 64zM1436 862q0 -210 -103 -357.5t-282 -176.5q12 -68 61 -95q46 -24 135 -24q61 0 127 16l15 -108q-81 -15 -146 -15
q-127 0 -207 45q-89 59 -110 177q-198 15 -312 165t-114 373q0 153 54.5 274.5t162 194t252.5 72.5q215 0 341 -153.5t126 -387.5zM635 862q0 -193 90.5 -306.5t243.5 -113.5q151 0 241 113.5t90 306.5t-90 306.5t-241 113.5q-153 0 -243.5 -113.5t-90.5 -306.5z" />
    <glyph glyph-name="_8405" unicode="&#x24c7;" 
d="M985 1679q179 0 343.5 -70.5t283.5 -189.5t189.5 -283t70.5 -343q0 -239 -119.5 -443.5t-324 -324t-443.5 -119.5q-181 0 -346 70.5t-284.5 189.5t-190 283.5t-70.5 343.5t70.5 343t190 283t284.5 189.5t346 70.5zM985 1599q-164 0 -313 -64t-256.5 -172t-171.5 -257
t-64 -313q0 -218 108 -404t293.5 -294.5t403.5 -108.5q162 0 310.5 64t255.5 172.5t171 258t64 312.5t-64 312.5t-171 257.5t-255.5 172t-310.5 64zM1393 1030q0 -110 -63 -182t-171 -103l299 -456h-151l-283 438h-225v-438h-133v1046h350q165 0 271 -80t106 -225z
M1257 1030q0 189 -251 189h-207v-377h207q251 0 251 188z" />
    <glyph glyph-name="_8406" unicode="&#x24c8;" 
d="M985 1679q179 0 343.5 -70.5t283.5 -189.5t189.5 -283t70.5 -343q0 -239 -119.5 -443.5t-324 -324t-443.5 -119.5q-181 0 -346 70.5t-284.5 189.5t-190 283.5t-70.5 343.5t70.5 343t190 283t284.5 189.5t346 70.5zM985 1599q-164 0 -313 -64t-256.5 -172t-171.5 -257
t-64 -313q0 -218 108 -404t293.5 -294.5t403.5 -108.5q162 0 310.5 64t255.5 172.5t171 258t64 312.5t-64 312.5t-171 257.5t-255.5 172t-310.5 64zM1260 1307l-11 -131q-102 59 -241 59q-111 0 -167.5 -40t-56.5 -110q0 -63 49.5 -108t159.5 -82q174 -59 250 -135t76 -195
q0 -139 -99 -216t-278 -77q-161 0 -285 70l11 135q124 -86 284 -86q113 0 172.5 43.5t59.5 122.5q0 75 -52 124.5t-176 88.5q-157 52 -232 127t-75 188q0 125 96 197t265 72q141 0 250 -47z" />
    <glyph glyph-name="_8407" unicode="&#x24c9;" 
d="M985 1679q179 0 343.5 -70.5t283.5 -189.5t189.5 -283t70.5 -343q0 -239 -119.5 -443.5t-324 -324t-443.5 -119.5q-181 0 -346 70.5t-284.5 189.5t-190 283.5t-70.5 343.5t70.5 343t190 283t284.5 189.5t346 70.5zM985 1599q-164 0 -313 -64t-256.5 -172t-171.5 -257
t-64 -313q0 -218 108 -404t293.5 -294.5t403.5 -108.5q162 0 310.5 64t255.5 172.5t171 258t64 312.5t-64 312.5t-171 257.5t-255.5 172t-310.5 64zM915 289v930h-325v116h782v-116h-325v-930h-132z" />
    <glyph glyph-name="_8408" unicode="&#x24ca;" 
d="M985 1679q179 0 343.5 -70.5t283.5 -189.5t189.5 -283t70.5 -343q0 -239 -119.5 -443.5t-324 -324t-443.5 -119.5q-181 0 -346 70.5t-284.5 189.5t-190 283.5t-70.5 343.5t70.5 343t190 283t284.5 189.5t346 70.5zM985 1599q-164 0 -313 -64t-256.5 -172t-171.5 -257
t-64 -313q0 -218 108 -404t293.5 -294.5t403.5 -108.5q162 0 310.5 64t255.5 172.5t171 258t64 312.5t-64 312.5t-171 257.5t-255.5 172t-310.5 64zM981 270q-190 0 -303 108t-113 316v637h131v-629q0 -313 285 -313q283 0 283 313v629h131v-637q0 -210 -109.5 -317
t-304.5 -107z" />
    <glyph glyph-name="_8409" unicode="&#x24cb;" 
d="M985 1679q179 0 343.5 -70.5t283.5 -189.5t189.5 -283t70.5 -343q0 -239 -119.5 -443.5t-324 -324t-443.5 -119.5q-181 0 -346 70.5t-284.5 189.5t-190 283.5t-70.5 343.5t70.5 343t190 283t284.5 189.5t346 70.5zM985 1599q-164 0 -313 -64t-256.5 -172t-171.5 -257
t-64 -313q0 -218 108 -404t293.5 -294.5t403.5 -108.5q162 0 310.5 64t255.5 172.5t171 258t64 312.5t-64 312.5t-171 257.5t-255.5 172t-310.5 64zM1053 289h-144l-401 1046h135l338 -891l336 891h137z" />
    <glyph glyph-name="_8410" unicode="&#x24cc;" 
d="M985 1679q179 0 343.5 -70.5t283.5 -189.5t189.5 -283t70.5 -343q0 -239 -119.5 -443.5t-324 -324t-443.5 -119.5q-181 0 -346 70.5t-284.5 189.5t-190 283.5t-70.5 343.5t70.5 343t190 283t284.5 189.5t346 70.5zM985 1599q-164 0 -313 -64t-256.5 -172t-171.5 -257
t-64 -313q0 -218 108 -404t293.5 -294.5t403.5 -108.5q162 0 310.5 64t255.5 172.5t171 258t64 312.5t-64 312.5t-171 257.5t-255.5 172t-310.5 64zM901 1335h160l162 -891l207 891h141l-258 -1046h-178l-154 878l-156 -878h-176l-258 1046h139l209 -891z" />
    <glyph glyph-name="_8411" unicode="&#x24cd;" 
d="M985 1679q179 0 343.5 -70.5t283.5 -189.5t189.5 -283t70.5 -343q0 -239 -119.5 -443.5t-324 -324t-443.5 -119.5q-181 0 -346 70.5t-284.5 189.5t-190 283.5t-70.5 343.5t70.5 343t190 283t284.5 189.5t346 70.5zM985 1599q-164 0 -313 -64t-256.5 -172t-171.5 -257
t-64 -313q0 -218 108 -404t293.5 -294.5t403.5 -108.5q162 0 310.5 64t255.5 172.5t171 258t64 312.5t-64 312.5t-171 257.5t-255.5 172t-310.5 64zM903 821l-383 514h154l307 -415l307 415h154l-383 -514l397 -532h-153l-322 434l-324 -434h-151z" />
    <glyph glyph-name="_8412" unicode="&#x24ce;" 
d="M985 1679q179 0 343.5 -70.5t283.5 -189.5t189.5 -283t70.5 -343q0 -239 -119.5 -443.5t-324 -324t-443.5 -119.5q-181 0 -346 70.5t-284.5 189.5t-190 283.5t-70.5 343.5t70.5 343t190 283t284.5 189.5t346 70.5zM985 1599q-164 0 -313 -64t-256.5 -172t-171.5 -257
t-64 -313q0 -218 108 -404t293.5 -294.5t403.5 -108.5q162 0 310.5 64t255.5 172.5t171 258t64 312.5t-64 312.5t-171 257.5t-255.5 172t-310.5 64zM1446 1335l-399 -630v-416h-132v416l-399 630h154l311 -506l311 506h154z" />
    <glyph glyph-name="_8413" unicode="&#x24cf;" 
d="M985 1679q179 0 343.5 -70.5t283.5 -189.5t189.5 -283t70.5 -343q0 -239 -119.5 -443.5t-324 -324t-443.5 -119.5q-181 0 -346 70.5t-284.5 189.5t-190 283.5t-70.5 343.5t70.5 343t190 283t284.5 189.5t346 70.5zM985 1599q-164 0 -313 -64t-256.5 -172t-171.5 -257
t-64 -313q0 -218 108 -404t293.5 -294.5t403.5 -108.5q162 0 310.5 64t255.5 172.5t171 258t64 312.5t-64 312.5t-171 257.5t-255.5 172t-310.5 64zM606 422l584 797h-561v116h710v-131l-583 -798h600v-117h-750v133z" />
    <glyph glyph-name="_707" unicode="&#x24d0;" 
d="M45 807q0 -156 46.5 -300t132.5 -258t201 -199t258.5 -131t299.5 -46t299.5 46t258.5 131t201 199t132.5 258t46.5 300t-46.5 300t-132.5 258t-201 199t-258.5 131t-299.5 46t-299.5 -46t-258.5 -131t-201 -199t-132.5 -258t-46.5 -300zM238 807q0 214 96 388t266.5 273
t382.5 99q159 0 297.5 -58t237 -159t155 -242t56.5 -301t-56.5 -301t-155 -242t-237 -159t-297.5 -58q-212 0 -382.5 99t-266.5 273t-96 388zM1112 383h260q-29 74 -29 135v406q0 151 -92 238t-274 87q-167 0 -261 -80t-106 -219h256q12 92 111 92q115 0 115 -118v-58
q-73 54 -191 54q-148 0 -232.5 -73.5t-84.5 -205.5t84.5 -205.5t232.5 -73.5q124 0 199 62q3 -24 12 -41zM965 555q-127 0 -127 86t127 86t127 -86t-127 -86z" />
    <glyph glyph-name="_708" unicode="&#x24d1;" 
d="M45 807q0 -156 46.5 -300t132.5 -258t201 -199t258.5 -131t299.5 -46t299.5 46t258.5 131t201 199t132.5 258t46.5 300t-46.5 300t-132.5 258t-201 199t-258.5 131t-299.5 46t-299.5 -46t-258.5 -131t-201 -199t-132.5 -258t-46.5 -300zM238 807q0 214 96 388t266.5 273
t382.5 99q159 0 297.5 -58t237 -159t155 -242t56.5 -301t-56.5 -301t-155 -242t-237 -159t-297.5 -58q-212 0 -382.5 99t-266.5 273t-96 388zM911 315q71 -71 191 -71q159 0 249.5 111t90.5 333t-90.5 332t-249.5 110q-119 0 -191 -69v371h-254v-1168h254v51zM1049 453
q-74 0 -106 59t-32 176q0 115 32 174.5t106 59.5q75 0 107 -59t32 -175q0 -118 -32 -176.5t-107 -58.5z" />
    <glyph glyph-name="_709" unicode="&#x24d2;" 
d="M45 807q0 -156 46.5 -300t132.5 -258t201 -199t258.5 -131t299.5 -46t299.5 46t258.5 131t201 199t132.5 258t46.5 300t-46.5 300t-132.5 258t-201 199t-258.5 131t-299.5 46t-299.5 -46t-258.5 -131t-201 -199t-132.5 -258t-46.5 -300zM238 807q0 214 96 388t266.5 273
t382.5 99q159 0 297.5 -58t237 -159t155 -242t56.5 -301t-56.5 -301t-155 -242t-237 -159t-297.5 -58q-212 0 -382.5 99t-266.5 273t-96 388zM592 805q0 -215 99.5 -330t293.5 -115q167 0 266.5 88.5t114.5 249.5h-254q-13 -129 -127 -129q-75 0 -107 59t-32 177
q0 116 32 174.5t107 58.5q56 0 88.5 -33t38.5 -94h254q-15 160 -114.5 248t-266.5 88q-194 0 -293.5 -114.5t-99.5 -327.5z" />
    <glyph glyph-name="_710" unicode="&#x24d3;" 
d="M45 807q0 -156 46.5 -300t132.5 -258t201 -199t258.5 -131t299.5 -46t299.5 46t258.5 131t201 199t132.5 258t46.5 300t-46.5 300t-132.5 258t-201 199t-258.5 131t-299.5 46t-299.5 -46t-258.5 -131t-201 -199t-132.5 -258t-46.5 -300zM238 807q0 214 96 388t266.5 273
t382.5 99q159 0 297.5 -58t237 -159t155 -242t56.5 -301t-56.5 -301t-155 -242t-237 -159t-297.5 -58q-212 0 -382.5 99t-266.5 273t-96 388zM1061 272h254v1168h-254v-371q-73 70 -191 70q-159 0 -249.5 -110.5t-90.5 -332.5t90.5 -333t249.5 -111q119 0 191 72v-52z
M924 461q-75 0 -107.5 59t-32.5 176q0 116 32.5 175t107.5 59t106 -59t31 -175q0 -118 -31 -176.5t-106 -58.5z" />
    <glyph glyph-name="_711" unicode="&#x24d4;" 
d="M45 807q0 -156 46.5 -300t132.5 -258t201 -199t258.5 -131t299.5 -46t299.5 46t258.5 131t201 199t132.5 258t46.5 300t-46.5 300t-132.5 258t-201 199t-258.5 131t-299.5 46t-299.5 -46t-258.5 -131t-201 -199t-132.5 -258t-46.5 -300zM238 807q0 214 96 388t266.5 273
t382.5 99q159 0 297.5 -58t237 -159t155 -242t56.5 -301t-56.5 -301t-155 -242t-237 -159t-297.5 -58q-212 0 -382.5 99t-266.5 273t-96 388zM1372 725v82q0 214 -98.5 328t-292.5 114t-293.5 -114.5t-99.5 -327.5q0 -215 99.5 -330t293.5 -115q156 0 254.5 81.5
t124.5 232.5h-258q-9 -52 -41 -80.5t-80 -28.5q-125 0 -137 158h528zM981 1047q114 0 133 -138h-266q15 138 133 138z" />
    <glyph glyph-name="_712" unicode="&#x24d5;" 
d="M45 807q0 -156 46.5 -300t132.5 -258t201 -199t258.5 -131t299.5 -46t299.5 46t258.5 131t201 199t132.5 258t46.5 300t-46.5 300t-132.5 258t-201 199t-258.5 131t-299.5 46t-299.5 -46t-258.5 -131t-201 -199t-132.5 -258t-46.5 -300zM238 807q0 214 96 388t266.5 273
t382.5 99q159 0 297.5 -58t237 -159t155 -242t56.5 -301t-56.5 -301t-155 -242t-237 -159t-297.5 -58q-212 0 -382.5 99t-266.5 273t-96 388zM1249 1182v192q-61 15 -139 15q-162 0 -233.5 -62t-71.5 -207v-61h-115v-209h115v-639h252v639h192v209h-192v51q0 39 18.5 55.5
t63.5 16.5h110z" />
    <glyph glyph-name="_713" unicode="&#x24d6;" 
d="M45 807q0 -156 46.5 -300t132.5 -258t201 -199t258.5 -131t299.5 -46t299.5 46t258.5 131t201 199t132.5 258t46.5 300t-46.5 300t-132.5 258t-201 199t-258.5 131t-299.5 46t-299.5 -46t-258.5 -131t-201 -199t-132.5 -258t-46.5 -300zM238 807q0 214 96 388t266.5 273
t382.5 99q159 0 297.5 -58t237 -159t155 -242t56.5 -301t-56.5 -301t-155 -242t-237 -159t-297.5 -58q-212 0 -382.5 99t-266.5 273t-96 388zM1102 961q0 -118 -31 -177t-106 -59q-76 0 -108 59t-32 177q0 116 32 174.5t108 58.5q75 0 106 -58.5t31 -174.5zM1356 1384h-254
v-51q-73 70 -191 70q-159 0 -249.5 -110t-90.5 -332t90.5 -333.5t249.5 -111.5q119 0 191 72v-70q0 -156 -121 -156q-103 0 -115 103h-258q19 -141 116 -220t255 -79q97 0 170.5 28t118 79t66.5 116.5t22 145.5v849z" />
    <glyph glyph-name="_714" unicode="&#x24d7;" 
d="M45 807q0 -156 46.5 -300t132.5 -258t201 -199t258.5 -131t299.5 -46t299.5 46t258.5 131t201 199t132.5 258t46.5 300t-46.5 300t-132.5 258t-201 199t-258.5 131t-299.5 46t-299.5 -46t-258.5 -131t-201 -199t-132.5 -258t-46.5 -300zM238 807q0 214 96 388t266.5 273
t382.5 99q159 0 297.5 -58t237 -159t155 -242t56.5 -301t-56.5 -301t-155 -242t-237 -159t-297.5 -58q-212 0 -382.5 99t-266.5 273t-96 388zM1397 780q0 164 -77 251t-222 87q-124 0 -197 -76v377h-254v-1167h254v471q0 90 40 138t106 48q96 0 96 -133v-524h254v528z" />
    <glyph glyph-name="_715" unicode="&#x24d8;" 
d="M45 807q0 -156 46.5 -300t132.5 -258t201 -199t258.5 -131t299.5 -46t299.5 46t258.5 131t201 199t132.5 258t46.5 300t-46.5 300t-132.5 258t-201 199t-258.5 131t-299.5 46t-299.5 -46t-258.5 -131t-201 -199t-132.5 -258t-46.5 -300zM238 807q0 214 96 388t266.5 273
t382.5 99q159 0 297.5 -58t237 -159t155 -242t56.5 -301t-56.5 -301t-155 -242t-237 -159t-297.5 -58q-212 0 -382.5 99t-266.5 273t-96 388zM854 1165h254v232h-254v-232zM854 229h254v848h-254v-848z" />
    <glyph glyph-name="_716" unicode="&#x24d9;" 
d="M45 807q0 -156 46.5 -300t132.5 -258t201 -199t258.5 -131t299.5 -46t299.5 46t258.5 131t201 199t132.5 258t46.5 300t-46.5 300t-132.5 258t-201 199t-258.5 131t-299.5 46t-299.5 -46t-258.5 -131t-201 -199t-132.5 -258t-46.5 -300zM238 807q0 214 96 388t266.5 273
t382.5 99q159 0 297.5 -58t237 -159t155 -242t56.5 -301t-56.5 -301t-155 -242t-237 -159t-297.5 -58q-212 0 -382.5 99t-266.5 273t-96 388zM901 430q0 -88 -72 -88h-88v-201q47 -6 113 -6q148 0 224.5 70t76.5 205v757h-254v-737zM901 1255h254v232h-254v-232z" />
    <glyph glyph-name="_717" unicode="&#x24da;" 
d="M45 807q0 -156 46.5 -300t132.5 -258t201 -199t258.5 -131t299.5 -46t299.5 46t258.5 131t201 199t132.5 258t46.5 300t-46.5 300t-132.5 258t-201 199t-258.5 131t-299.5 46t-299.5 -46t-258.5 -131t-201 -199t-132.5 -258t-46.5 -300zM238 807q0 214 96 388t266.5 273
t382.5 99q159 0 297.5 -58t237 -159t155 -242t56.5 -301t-56.5 -301t-155 -242t-237 -159t-297.5 -58q-212 0 -382.5 99t-266.5 273t-96 388zM672 264h254v340h24l217 -340h283l-291 443l252 405h-274l-189 -309h-22v629h-254v-1168z" />
    <glyph glyph-name="_718" unicode="&#x24db;" 
d="M45 807q0 -156 46.5 -300t132.5 -258t201 -199t258.5 -131t299.5 -46t299.5 46t258.5 131t201 199t132.5 258t46.5 300t-46.5 300t-132.5 258t-201 199t-258.5 131t-299.5 46t-299.5 -46t-258.5 -131t-201 -199t-132.5 -258t-46.5 -300zM238 807q0 214 96 388t266.5 273
t382.5 99q159 0 297.5 -58t237 -159t155 -242t56.5 -301t-56.5 -301t-155 -242t-237 -159t-297.5 -58q-212 0 -382.5 99t-266.5 273t-96 388zM1116 219v1167h-254v-1167h254z" />
    <glyph glyph-name="_719" unicode="&#x24dc;" 
d="M45 807q0 -156 46.5 -300t132.5 -258t201 -199t258.5 -131t299.5 -46t299.5 46t258.5 131t201 199t132.5 258t46.5 300t-46.5 300t-132.5 258t-201 199t-258.5 131t-299.5 46t-299.5 -46t-258.5 -131t-201 -199t-132.5 -258t-46.5 -300zM238 807q0 214 96 388t266.5 273
t382.5 99q159 0 297.5 -58t237 -159t155 -242t56.5 -301t-56.5 -301t-155 -242t-237 -159t-297.5 -58q-212 0 -382.5 99t-266.5 273t-96 388zM1118 850q0 91 33 138.5t94 47.5q82 0 82 -121v-536h254v528q0 163 -72.5 250.5t-210.5 87.5q-72 0 -133 -31.5t-100 -91.5
q-67 123 -229 123q-114 0 -181 -74v56h-254v-848h254v471q0 91 33 138.5t94 47.5q44 0 63 -29.5t19 -91.5v-536h254v471z" />
    <glyph glyph-name="_720" unicode="&#x24dd;" 
d="M45 807q0 -156 46.5 -300t132.5 -258t201 -199t258.5 -131t299.5 -46t299.5 46t258.5 131t201 199t132.5 258t46.5 300t-46.5 300t-132.5 258t-201 199t-258.5 131t-299.5 46t-299.5 -46t-258.5 -131t-201 -199t-132.5 -258t-46.5 -300zM238 807q0 214 96 388t266.5 273
t382.5 99q159 0 297.5 -58t237 -159t155 -242t56.5 -301t-56.5 -301t-155 -242t-237 -159t-297.5 -58q-212 0 -382.5 99t-266.5 273t-96 388zM1364 909q0 164 -77 251t-222 87q-124 0 -197 -76v58h-254v-848h254v471q0 90 40 138t106 48q96 0 96 -133v-524h254v528z" />
    <glyph glyph-name="_721" unicode="&#x24de;" 
d="M45 807q0 -156 46.5 -300t132.5 -258t201 -199t258.5 -131t299.5 -46t299.5 46t258.5 131t201 199t132.5 258t46.5 300t-46.5 300t-132.5 258t-201 199t-258.5 131t-299.5 46t-299.5 -46t-258.5 -131t-201 -199t-132.5 -258t-46.5 -300zM238 807q0 214 96 388t266.5 273
t382.5 99q159 0 297.5 -58t237 -159t155 -242t56.5 -301t-56.5 -301t-155 -242t-237 -159t-297.5 -58q-212 0 -382.5 99t-266.5 273t-96 388zM1376 809q0 214 -98.5 328t-292.5 114t-293.5 -114.5t-99.5 -327.5q0 -215 99.5 -329.5t293.5 -114.5t292.5 114.5t98.5 329.5z
M846 809q0 116 32 174.5t107 58.5t106 -58.5t31 -174.5q0 -118 -31 -177t-106 -59t-107 59t-32 177z" />
    <glyph glyph-name="_722" unicode="&#x24df;" 
d="M45 807q0 -156 46.5 -300t132.5 -258t201 -199t258.5 -131t299.5 -46t299.5 46t258.5 131t201 199t132.5 258t46.5 300t-46.5 300t-132.5 258t-201 199t-258.5 131t-299.5 46t-299.5 -46t-258.5 -131t-201 -199t-132.5 -258t-46.5 -300zM238 807q0 214 96 388t266.5 273
t382.5 99q159 0 297.5 -58t237 -159t155 -242t56.5 -301t-56.5 -301t-155 -242t-237 -159t-297.5 -58q-212 0 -382.5 99t-266.5 273t-96 388zM899 1358h-254v-1196h254v399q72 -72 191 -72q159 0 249.5 111.5t90.5 333.5t-90.5 332t-249.5 110q-119 0 -191 -69v51zM1036 698
q-74 0 -105.5 59t-31.5 177q0 116 31.5 174.5t105.5 58.5q75 0 107.5 -59t32.5 -174q0 -118 -32.5 -177t-107.5 -59z" />
    <glyph glyph-name="_723" unicode="&#x24e0;" 
d="M45 807q0 -156 46.5 -300t132.5 -258t201 -199t258.5 -131t299.5 -46t299.5 46t258.5 131t201 199t132.5 258t46.5 300t-46.5 300t-132.5 258t-201 199t-258.5 131t-299.5 46t-299.5 -46t-258.5 -131t-201 -199t-132.5 -258t-46.5 -300zM238 807q0 214 96 388t266.5 273
t382.5 99q159 0 297.5 -58t237 -159t155 -242t56.5 -301t-56.5 -301t-155 -242t-237 -159t-297.5 -58q-212 0 -382.5 99t-266.5 273t-96 388zM1061 1307q-72 69 -191 69q-159 0 -249.5 -110t-90.5 -332t90.5 -333.5t249.5 -111.5q119 0 191 72v-399h254v1196h-254v-51z
M924 698q-75 0 -107.5 59t-32.5 177q0 115 32.5 174t107.5 59t106 -58.5t31 -174.5q0 -118 -31 -177t-106 -59z" />
    <glyph glyph-name="_724" unicode="&#x24e1;" 
d="M45 807q0 -156 46.5 -300t132.5 -258t201 -199t258.5 -131t299.5 -46t299.5 46t258.5 131t201 199t132.5 258t46.5 300t-46.5 300t-132.5 258t-201 199t-258.5 131t-299.5 46t-299.5 -46t-258.5 -131t-201 -199t-132.5 -258t-46.5 -300zM238 807q0 214 96 388t266.5 273
t382.5 99q159 0 297.5 -58t237 -159t155 -242t56.5 -301t-56.5 -301t-155 -242t-237 -159t-297.5 -58q-212 0 -382.5 99t-266.5 273t-96 388zM1178 1016q47 0 96 -8l2 209q-50 12 -92 12q-120 0 -185 -78v59h-254v-848h254v435q0 108 46 163.5t133 55.5z" />
    <glyph glyph-name="_725" unicode="&#x24e2;" 
d="M45 807q0 -156 46.5 -300t132.5 -258t201 -199t258.5 -131t299.5 -46t299.5 46t258.5 131t201 199t132.5 258t46.5 300t-46.5 300t-132.5 258t-201 199t-258.5 131t-299.5 46t-299.5 -46t-258.5 -131t-201 -199t-132.5 -258t-46.5 -300zM238 807q0 214 96 388t266.5 273
t382.5 99q159 0 297.5 -58t237 -159t155 -242t56.5 -301t-56.5 -301t-155 -242t-237 -159t-297.5 -58q-212 0 -382.5 99t-266.5 273t-96 388zM641 635q0 -120 95 -196.5t257 -76.5q161 0 258 77.5t97 195.5q0 120 -65.5 184t-217.5 90q-14 2 -40 7.5t-40 7.5q-44 9 -65 24.5
t-21 42.5q0 26 21 43t59 17q41 0 62.5 -18t21.5 -46v-35h254v35q0 119 -90 190.5t-248 71.5q-154 0 -245 -74t-91 -192q0 -112 70 -175.5t217 -88.5q13 -2 41 -7t41 -7q82 -14 82 -74q0 -32 -27 -51t-74 -19q-45 0 -71.5 19.5t-26.5 52.5v41h-254v-39z" />
    <glyph glyph-name="_726" unicode="&#x24e3;" 
d="M45 807q0 -156 46.5 -300t132.5 -258t201 -199t258.5 -131t299.5 -46t299.5 46t258.5 131t201 199t132.5 258t46.5 300t-46.5 300t-132.5 258t-201 199t-258.5 131t-299.5 46t-299.5 -46t-258.5 -131t-201 -199t-132.5 -258t-46.5 -300zM238 807q0 214 96 388t266.5 273
t382.5 99q159 0 297.5 -58t237 -159t155 -242t56.5 -301t-56.5 -301t-155 -242t-237 -159t-297.5 -58q-212 0 -382.5 99t-266.5 273t-96 388zM1049 934h204v209h-204v225h-256v-225h-113v-209h113v-391q0 -144 71.5 -202t241.5 -58q92 0 147 6v200h-108q-57 0 -76.5 17
t-19.5 69v359z" />
    <glyph glyph-name="_727" unicode="&#x24e4;" 
d="M45 807q0 -156 46.5 -300t132.5 -258t201 -199t258.5 -131t299.5 -46t299.5 46t258.5 131t201 199t132.5 258t46.5 300t-46.5 300t-132.5 258t-201 199t-258.5 131t-299.5 46t-299.5 -46t-258.5 -131t-201 -199t-132.5 -258t-46.5 -300zM238 807q0 214 96 388t266.5 273
t382.5 99q159 0 297.5 -58t237 -159t155 -242t56.5 -301t-56.5 -301t-155 -242t-237 -159t-297.5 -58q-212 0 -382.5 99t-266.5 273t-96 388zM588 682q0 -163 76.5 -250.5t220.5 -87.5q120 0 198 78v-57h254v847h-254v-473q0 -89 -39.5 -137.5t-105.5 -48.5q-98 0 -98 133
v526h-252v-530z" />
    <glyph glyph-name="_728" unicode="&#x24e5;" 
d="M45 807q0 -156 46.5 -300t132.5 -258t201 -199t258.5 -131t299.5 -46t299.5 46t258.5 131t201 199t132.5 258t46.5 300t-46.5 300t-132.5 258t-201 199t-258.5 131t-299.5 46t-299.5 -46t-258.5 -131t-201 -199t-132.5 -258t-46.5 -300zM238 807q0 214 96 388t266.5 273
t382.5 99q159 0 297.5 -58t237 -159t155 -242t56.5 -301t-56.5 -301t-155 -242t-237 -159t-297.5 -58q-212 0 -382.5 99t-266.5 273t-96 388zM1102 338l301 848h-262l-170 -537l-170 537h-262l301 -848h262z" />
    <glyph glyph-name="_729" unicode="&#x24e6;" 
d="M45 807q0 -156 46.5 -300t132.5 -258t201 -199t258.5 -131t299.5 -46t299.5 46t258.5 131t201 199t132.5 258t46.5 300t-46.5 300t-132.5 258t-201 199t-258.5 131t-299.5 46t-299.5 -46t-258.5 -131t-201 -199t-132.5 -258t-46.5 -300zM238 807q0 205 88 373l264 -826
h244l147 502l147 -502h244l264 832q93 -175 93 -379q0 -160 -56.5 -301t-155 -242t-237 -159t-297.5 -58q-212 0 -382.5 99t-266.5 273t-96 388zM1628 1202h-242l-143 -506l-149 506h-226l-147 -510l-141 510h-242q97 169 266 267t379 98t379 -98t266 -267z" />
    <glyph glyph-name="_730" unicode="&#x24e7;" 
d="M45 807q0 -156 46.5 -300t132.5 -258t201 -199t258.5 -131t299.5 -46t299.5 46t258.5 131t201 199t132.5 258t46.5 300t-46.5 300t-132.5 258t-201 199t-258.5 131t-299.5 46t-299.5 -46t-258.5 -131t-201 -199t-132.5 -258t-46.5 -300zM238 807q0 214 96 388t266.5 273
t382.5 99q159 0 297.5 -58t237 -159t155 -242t56.5 -301t-56.5 -301t-155 -242t-237 -159t-297.5 -58q-212 0 -382.5 99t-266.5 273t-96 388zM985 625l145 -254h277l-270 434l254 414h-277l-129 -234l-131 234h-274l251 -414l-268 -434h273z" />
    <glyph glyph-name="_731" unicode="&#x24e8;" 
d="M45 807q0 -156 46.5 -300t132.5 -258t201 -199t258.5 -131t299.5 -46t299.5 46t258.5 131t201 199t132.5 258t46.5 300t-46.5 300t-132.5 258t-201 199t-258.5 131t-299.5 46t-299.5 -46t-258.5 -131t-201 -199t-132.5 -258t-46.5 -300zM238 807q0 214 96 388t266.5 273
t382.5 99q159 0 297.5 -58t237 -159t155 -242t56.5 -301t-56.5 -301t-155 -242t-237 -159t-297.5 -58q-212 0 -382.5 99t-266.5 273t-96 388zM840 393q-13 -39 -32.5 -54t-47.5 -15h-88v-199q45 -8 110 -8q115 0 182 46.5t113 172.5l353 977h-265l-166 -520l-174 520h-262
l309 -826z" />
    <glyph glyph-name="_732" unicode="&#x24e9;" 
d="M45 807q0 -156 46.5 -300t132.5 -258t201 -199t258.5 -131t299.5 -46t299.5 46t258.5 131t201 199t132.5 258t46.5 300t-46.5 300t-132.5 258t-201 199t-258.5 131t-299.5 46t-299.5 -46t-258.5 -131t-201 -199t-132.5 -258t-46.5 -300zM238 807q0 214 96 388t266.5 273
t382.5 99q159 0 297.5 -58t237 -159t155 -242t56.5 -301t-56.5 -301t-155 -242t-237 -159t-297.5 -58q-212 0 -382.5 99t-266.5 273t-96 388zM1309 1229h-660v-209h334l-346 -467v-172h682v207h-358l348 467v174z" />
    <glyph glyph-name="_519" unicode="&#x2500;" 
d="M1966 854h-1966v-121h1966v121z" />
    <glyph glyph-name="_530" unicode="&#x2501;" 
d="M0 891v-193h1966v193h-1966z" />
    <glyph glyph-name="_520" unicode="&#x2502;" 
d="M924 1819v-2048h120v2048h-120z" />
    <glyph glyph-name="_531" unicode="&#x2503;" 
d="M887 1819v-2048h192v2048h-192z" />
    <glyph glyph-name="_521" unicode="&#x250c;" 
d="M924 -229h120v962h922v121h-1042v-1083z" />
    <glyph glyph-name="_558" unicode="&#x250d;" 
d="M944 891v-1120h76v927h946v193h-1022z" />
    <glyph glyph-name="_557" unicode="&#x250e;" 
d="M1079 756h887v73h-1079v-1058h192v985z" />
    <glyph glyph-name="_532" unicode="&#x250f;" 
d="M887 891v-1120h192v927h887v193h-1079z" />
    <glyph glyph-name="_522" unicode="&#x2510;" 
d="M1044 854h-1044v-121h924v-962h120v1083z" />
    <glyph glyph-name="_552" unicode="&#x2511;" 
d="M944 698v-927h76v1120h-1020v-193h944z" />
    <glyph glyph-name="_551" unicode="&#x2512;" 
d="M887 756v-985h192v1058h-1079v-73h887z" />
    <glyph glyph-name="_533" unicode="&#x2513;" 
d="M0 891v-193h887v-927h192v1120h-1079z" />
    <glyph glyph-name="_524" unicode="&#x2514;" 
d="M924 733h1042v121h-922v965h-120v-1086z" />
    <glyph glyph-name="_556" unicode="&#x2515;" 
d="M1020 891v928h-76v-1121h1022v193h-946z" />
    <glyph glyph-name="_555" unicode="&#x2516;" 
d="M1079 829v990h-192v-1063h1079v73h-887z" />
    <glyph glyph-name="_535" unicode="&#x2517;" 
d="M887 1819v-1121h1079v193h-887v928h-192z" />
    <glyph glyph-name="_523" unicode="&#x2518;" 
d="M1044 1819h-120v-965h-924v-121h1044v1086z" />
    <glyph glyph-name="_554" unicode="&#x2519;" 
d="M944 891h-944v-193h1020v1121h-76v-928z" />
    <glyph glyph-name="_553" unicode="&#x251a;" 
d="M887 829h-887v-73h1079v1063h-192v-990z" />
    <glyph glyph-name="_534" unicode="&#x251b;" 
d="M887 1819v-928h-887v-193h1079v1121h-192z" />
    <glyph glyph-name="_525" unicode="&#x251c;" 
d="M924 1819v-2048h120v962h922v121h-922v965h-120z" />
    <glyph glyph-name="_546" unicode="&#x251d;" 
d="M1966 891h-946v928h-76v-2048h76v927h946v193z" />
    <glyph glyph-name="_559" unicode="&#x251e;" 
d="M887 1819v-1063h57v-985h76v985h946v73h-887v990h-192z" />
    <glyph glyph-name="_560" unicode="&#x251f;" 
d="M944 1819v-990h-57v-1058h192v985h887v73h-946v990h-76z" />
    <glyph glyph-name="_541" unicode="&#x2520;" 
d="M1966 829h-887v990h-192v-2048h192v985h887v73z" />
    <glyph glyph-name="_561" unicode="&#x2521;" 
d="M944 -229h76v927h946v193h-887v928h-192v-1121h57v-927z" />
    <glyph glyph-name="_562" unicode="&#x2522;" 
d="M887 -229h192v927h887v193h-946v928h-76v-928h-57v-1120z" />
    <glyph glyph-name="_536" unicode="&#x2523;" 
d="M887 1819v-2048h192v927h887v193h-887v928h-192z" />
    <glyph glyph-name="_527" unicode="&#x2524;" 
d="M1044 1819h-120v-965h-924v-121h924v-962h120v2048z" />
    <glyph glyph-name="_548" unicode="&#x2525;" 
d="M944 891h-944v-193h944v-927h76v2048h-76v-928z" />
    <glyph glyph-name="_563" unicode="&#x2526;" 
d="M887 1819v-990h-887v-73h944v-985h76v985h59v1063h-192z" />
    <glyph glyph-name="_564" unicode="&#x2527;" 
d="M0 829v-73h887v-985h192v1058h-59v990h-76v-990h-944z" />
    <glyph glyph-name="_543" unicode="&#x2528;" 
d="M1079 -229v2048h-192v-990h-887v-73h887v-985h192z" />
    <glyph glyph-name="_565" unicode="&#x2529;" 
d="M0 698h944v-927h76v927h59v1121h-192v-928h-887v-193z" />
    <glyph glyph-name="_566" unicode="&#x252a;" 
d="M0 698h887v-927h192v1120h-59v928h-76v-928h-944v-193z" />
    <glyph glyph-name="_538" unicode="&#x252b;" 
d="M0 698h887v-927h192v2048h-192v-928h-887v-193z" />
    <glyph glyph-name="_526" unicode="&#x252c;" 
d="M1966 854h-1966v-121h924v-962h120v962h922v121z" />
    <glyph glyph-name="_567" unicode="&#x252d;" 
d="M0 698h944v-927h76v985h946v73h-946v62h-1020v-193z" />
    <glyph glyph-name="_568" unicode="&#x252e;" 
d="M0 756h944v-985h76v927h946v193h-1022v-62h-944v-73z" />
    <glyph glyph-name="_542" unicode="&#x252f;" 
d="M1966 891h-1966v-193h944v-927h76v927h946v193z" />
    <glyph glyph-name="_547" unicode="&#x2530;" 
d="M1966 829h-1966v-73h887v-985h192v985h887v73z" />
    <glyph glyph-name="_569" unicode="&#x2531;" 
d="M0 698h887v-927h192v985h887v73h-887v62h-1079v-193z" />
    <glyph glyph-name="_570" unicode="&#x2532;" 
d="M0 756h887v-985h192v927h887v193h-1079v-62h-887v-73z" />
    <glyph glyph-name="_537" unicode="&#x2533;" 
d="M0 698h887v-927h192v927h887v193h-1966v-193z" />
    <glyph glyph-name="_528" unicode="&#x2534;" 
d="M1966 733v121h-922v965h-120v-965h-924v-121h1966z" />
    <glyph glyph-name="_571" unicode="&#x2535;" 
d="M0 698h1020v58h946v73h-946v990h-76v-928h-944v-193z" />
    <glyph glyph-name="_572" unicode="&#x2536;" 
d="M0 756h944v-58h1022v193h-946v928h-76v-990h-944v-73z" />
    <glyph glyph-name="_544" unicode="&#x2537;" 
d="M944 891h-944v-193h1966v193h-946v928h-76v-928z" />
    <glyph glyph-name="_549" unicode="&#x2538;" 
d="M887 829h-887v-73h1966v73h-887v990h-192v-990z" />
    <glyph glyph-name="_573" unicode="&#x2539;" 
d="M0 698h1079v58h887v73h-887v990h-192v-928h-887v-193z" />
    <glyph glyph-name="_574" unicode="&#x253a;" 
d="M0 756h887v-58h1079v193h-887v928h-192v-990h-887v-73z" />
    <glyph glyph-name="_539" unicode="&#x253b;" 
d="M887 891h-887v-193h1966v193h-887v928h-192v-928z" />
    <glyph glyph-name="_529" unicode="&#x253c;" 
d="M924 1819v-965h-924v-121h924v-962h120v962h922v121h-922v965h-120z" />
    <glyph glyph-name="_575" unicode="&#x253d;" 
d="M0 698h944v-927h76v985h946v73h-946v990h-76v-928h-944v-193z" />
    <glyph glyph-name="_576" unicode="&#x253e;" 
d="M1020 1819h-76v-990h-944v-73h944v-985h76v927h946v193h-946v928z" />
    <glyph glyph-name="_545" unicode="&#x253f;" 
d="M944 891h-944v-193h944v-927h76v927h946v193h-946v928h-76v-928z" />
    <glyph glyph-name="_577" unicode="&#x2540;" 
d="M1079 1819h-192v-990h-887v-73h944v-985h76v985h946v73h-887v990z" />
    <glyph glyph-name="_578" unicode="&#x2541;" 
d="M1020 1819h-76v-990h-944v-73h887v-985h192v985h887v73h-946v990z" />
    <glyph glyph-name="_550" unicode="&#x2542;" 
d="M887 829h-887v-73h887v-985h192v985h887v73h-887v990h-192v-990z" />
    <glyph glyph-name="_579" unicode="&#x2543;" 
d="M1079 1819h-192v-928h-887v-193h944v-927h76v927h59v58h887v73h-887v990z" />
    <glyph glyph-name="_580" unicode="&#x2544;" 
d="M1020 -229v927h946v193h-887v928h-192v-990h-887v-73h887v-58h57v-927h76z" />
    <glyph glyph-name="_581" unicode="&#x2545;" 
d="M1020 1819h-76v-928h-944v-193h887v-927h192v985h887v73h-887v62h-59v928z" />
    <glyph glyph-name="_582" unicode="&#x2546;" 
d="M1020 1819h-76v-928h-57v-62h-887v-73h887v-985h192v925h887v195h-946v928z" />
    <glyph glyph-name="_583" unicode="&#x2547;" 
d="M1079 1819h-192v-928h-887v-193h944v-927h76v927h946v193h-887v928z" />
    <glyph glyph-name="_584" unicode="&#x2548;" 
d="M1020 1819h-76v-928h-944v-193h887v-927h192v927h887v193h-946v928z" />
    <glyph glyph-name="_585" unicode="&#x2549;" 
d="M1079 1819h-192v-928h-887v-193h887v-927h192v985h887v73h-887v990z" />
    <glyph glyph-name="_586" unicode="&#x254a;" 
d="M1079 1819h-192v-990h-887v-73h887v-985h192v927h887v193h-887v928z" />
    <glyph glyph-name="_540" unicode="&#x254b;" 
d="M887 891h-887v-193h887v-927h192v927h887v193h-887v928h-192v-928z" />
    <glyph glyph-name="_232" unicode="&#x2592;" 
d="M915 158h127v131h-127v-131zM1286 289v-131h123v131h-123zM1227 158v131h-127v-131h127zM674 158v131h-123v-131h123zM489 158v131h-124v-131h124zM856 158v131h-125v-131h125zM1468 289v-131h125v131h-125zM915 350h127v127h-127v-127zM1286 477v-127h123v127h-123z
M1227 350v127h-127v-127h127zM674 350v127h-123v-127h123zM489 350v127h-124v-127h124zM856 350v127h-125v-127h125zM1468 477v-127h125v127h-125zM915 537h127v129h-127v-129zM1286 666v-129h123v129h-123zM1227 537v129h-127v-129h127zM674 537v129h-123v-129h123z
M489 537v129h-124v-129h124zM856 537v129h-125v-129h125zM1468 666v-129h125v129h-125zM915 723h127v135h-127v-135zM1286 858v-135h123v135h-123zM1227 723v135h-127v-135h127zM674 723v135h-123v-135h123zM489 723v135h-124v-135h124zM856 723v135h-125v-135h125z
M1468 858v-135h125v135h-125zM915 918h127v129h-127v-129zM1286 1047v-129h123v129h-123zM1227 918v129h-127v-129h127zM674 918v129h-123v-129h123zM489 918v129h-124v-129h124zM856 918v129h-125v-129h125zM1468 1047v-129h125v129h-125zM915 1104h127v129h-127v-129z
M1286 1233v-129h123v129h-123zM1227 1104v129h-127v-129h127zM674 1104v129h-123v-129h123zM489 1104v129h-124v-129h124zM856 1104v129h-125v-129h125zM1468 1233v-129h125v129h-125zM915 1292h127v131h-127v-131zM1286 1423v-131h123v131h-123zM1227 1292v131h-127v-131
h127zM674 1292v131h-123v-131h123zM489 1292v131h-124v-131h124zM856 1292v131h-125v-131h125zM1468 1423v-131h125v131h-125zM1778 6v1575h-1590v-1575h1590zM305 100v1377h1352v-1377h-1352z" />
    <glyph glyph-name="_165" unicode="&#x25a0;" 
d="M1763 31v1548h-1562v-1548h1562z" />
    <glyph glyph-name="_164" unicode="&#x25a1;" 
d="M1763 31v1548h-1562v-1548h1562zM395 213v1186h1174v-1186h-1174z" />
    <glyph glyph-name="_229" unicode="&#x25a3;" 
d="M1763 31v1548h-1562v-1548h1562zM395 213v1186h1174v-1186h-1174zM655 475h654v662h-654v-662z" />
    <glyph glyph-name="_233" unicode="&#x25a4;" 
d="M1677 201h-1392v98h1392v-98zM1677 416h-1392v98h1392v-98zM1677 629h-1392v100h1392v-100zM1677 850h-1392v98h1392v-98zM1677 1063h-1392v100h1392v-100zM1677 1280h-1392v98h1392v-98zM1778 6v1575h-1590v-1575h1590zM305 100v1377h1352v-1377h-1352z" />
    <glyph glyph-name="_234" unicode="&#x25a5;" 
d="M1452 76v1433h100v-1433h-100zM1243 76v1433h98v-1433h-98zM1034 76v1433h99v-1433h-99zM827 76v1433h99v-1433h-99zM618 76v1433h99v-1433h-99zM410 76v1433h98v-1433h-98zM1778 6v1575h-1590v-1575h1590zM305 100v1377h1352v-1377h-1352z" />
    <glyph glyph-name="_237" unicode="&#x25a6;" 
d="M1778 6v1575h-1590v-1575h1590zM504 854h119v-129h-119v129zM1128 854h119v-129h-119v129zM1337 854h119v-129h-119v129zM713 854h118v-129h-118v129zM922 854h116v-129h-116v129zM1128 420h119v-125h-119v125zM1128 1284h119v-125h-119v125zM504 420h119v-125h-119v125z
M504 1284h119v-125h-119v125zM1337 420h119v-125h-119v125zM1337 1284h119v-125h-119v125zM713 420h118v-125h-118v125zM713 1284h118v-125h-118v125zM1128 633h119v-123h-119v123zM1128 1067h119v-123h-119v123zM504 633h119v-123h-119v123zM504 1067h119v-123h-119v123z
M1337 633h119v-123h-119v123zM1337 1067h119v-123h-119v123zM713 633h118v-123h-118v123zM713 1067h118v-123h-118v123zM922 420h116v-125h-116v125zM922 1284h116v-125h-116v125zM305 854h109v-129h-109v129zM1548 854h109v-129h-109v129zM922 633h116v-123h-116v123z
M922 1067h116v-123h-116v123zM305 420h109v-125h-109v125zM305 1284h109v-125h-109v125zM1548 420h109v-125h-109v125zM1548 1284h109v-125h-109v125zM305 1067h109v-123h-109v123zM305 633h109v-123h-109v123zM1548 1067h109v-123h-109v123zM1548 633h109v-123h-109v123z
M1128 205h119v-105h-119v105zM504 205h119v-105h-119v105zM1337 205h119v-105h-119v105zM713 205h118v-105h-118v105zM922 205h116v-105h-116v105zM1128 1477h119v-103h-119v103zM504 1477h119v-103h-119v103zM1337 1477h119v-103h-119v103zM713 1477h118v-103h-118v103z
M922 1477h116v-103h-116v103zM1548 100v105h109v-105h-109zM305 205h109v-105h-109v105zM305 1477h109v-103h-109v103zM1657 1374h-109v103h109v-103z" />
    <glyph glyph-name="_236" unicode="&#x25a7;" 
d="M1778 6v1575h-1590v-1575h1590zM1659 182l-1294 1295h149l1145 -1143v-152zM1464 100l-1157 1157v150l1305 -1307h-148zM1176 100l-869 867v161l1026 -1028h-157zM1659 463l-1016 1014h160l856 -854v-160zM887 100l-580 580v158l737 -738h-157zM1659 743l-733 734h157
l576 -574v-160zM598 100l-291 291v160l449 -451h-158zM1659 1032l-445 445h158l287 -287v-158zM307 100v162l160 -162h-160zM1659 1319l-156 158h156v-158z" />
    <glyph glyph-name="_235" unicode="&#x25a8;" 
d="M1778 6v1575h-1590v-1575h1590zM307 334l1145 1143h150l-1295 -1295v152zM354 100l1305 1307v-150l-1157 -1157h-148zM633 100l1026 1028v-161l-868 -867h-158zM307 623l856 854h160l-1016 -1014v160zM922 100l737 738v-158l-580 -580h-157zM307 903l576 574h157
l-733 -734v160zM1210 100l449 451v-160l-291 -291h-158zM307 1190l287 287h158l-445 -445v158zM1499 100l160 162v-162h-160zM307 1477h156l-156 -158v158z" />
    <glyph glyph-name="_238" unicode="&#x25a9;" 
d="M1778 6v1575h-1590v-1575h1590zM1321 795l84 84l86 -84l-84 -84zM475 795l84 84l84 -84l-84 -84zM334 934l86 86l84 -84l-86 -86zM1544 1018l86 -84l-84 -84l-84 86zM899 371l84 84l84 -84l-84 -84zM899 1217l84 83l84 -83l-84 -84zM758 1358l84 82l84 -82l-84 -84z
M1040 1358l82 82l84 -84l-82 -82zM1466 649l84 84l84 -82l-84 -84zM332 651l82 82l84 -84l-82 -82zM1126 309l84 -82l-84 -84l-82 84zM838 309l84 -82l-84 -84l-82 84zM618 649l87 86l79 -80l-86 -86zM332 362l84 84l80 -79l-84 -84zM1042 1073l84 84l80 -80l-84 -84z
M1182 934l84 84l80 -78l-86 -86zM475 506l84 84l80 -80l-84 -84zM1550 444l84 -82l-80 -79l-84 82zM1122 594l84 -84l-78 -78l-84 84zM1262 733l84 -84l-80 -80l-84 84zM559 1159l84 -84l-80 -80l-84 84zM696 1296l84 -84l-78 -77l-84 84zM698 1018l84 -84l-77 -78l-84 84z
M838 1157l84 -84l-80 -80l-84 84zM760 510l84 84l78 -78l-84 -84zM475 1362l78 78l84 -82l-80 -80zM1268 451l82 -84l-78 -78l-84 82zM1184 1212l84 84l78 -79l-82 -82zM1405 588l84 -82l-80 -80l-82 84zM1323 1075l82 82l80 -78l-84 -84zM1329 1358l82 82l80 -78l-84 -84z
M1411 305l84 -82l-80 -80l-82 84zM1466 1219l84 84l78 -80l-82 -82zM416 1303l82 -84l-78 -78l-84 82zM555 305l78 -78l-84 -84l-78 78zM616 367l82 82l78 -78l-82 -82zM844 874l80 -79l-80 -80l-80 80zM981 1012l80 -80l-78 -78l-80 80zM905 655l78 78l78 -78l-78 -77z
M1042 793l80 79l78 -77l-80 -80zM629 100l65 66l66 -66h-131zM918 100l65 66l66 -66h-131zM1206 100l66 66l65 -66h-131zM983 1415l-61 62h122zM1495 100l59 62l62 -62h-121zM350 100l60 60l61 -60h-121zM696 1417l-57 60h117zM1268 1417l-58 60h117zM1552 1423l-53 54h107z
M414 1423l-54 54h107zM307 1133l51 -54l-51 -51v105zM1659 1028l-53 51l53 54v-105zM307 842l51 -51l-51 -52v103zM1659 739l-51 52l51 51v-103zM1659 1315l-49 47l49 49v-96zM307 1411l47 -49l-47 -47v96zM1659 555v-96l-49 47zM307 555l47 -49l-47 -47v96zM307 266l43 -45
l-43 -43v88zM1659 266v-88l-45 43z" />
    <glyph glyph-name="_8736" unicode="&#x25b1;" 
d="M266 350l232 936h1202l-234 -936h-1200zM559 1212l-199 -784h1045l199 784h-1045z" />
    <glyph glyph-name="_167" unicode="&#x25b2;" 
d="M983 1661l-934 -1620h1868z" />
    <glyph glyph-name="_166" unicode="&#x25b3;" 
d="M983 1661l-934 -1620h1868zM983 1313l621 -1098h-1242z" />
    <glyph glyph-name="_8780" unicode="&#x25b5;" 
d="M248 238l737 1247l731 -1247h-1468zM1413 412l-428 729l-434 -729h862z" />
    <glyph glyph-name="_220" unicode="&#x25b6;" 
d="M233 1733v-1868l1620 934z" />
    <glyph glyph-name="_219" unicode="&#x25b7;" 
d="M233 1733v-1868l1620 934zM428 176v1245l1081 -622z" />
    <glyph glyph-name="_8781" unicode="&#x25b9;" 
d="M356 1532l1252 -731l-1252 -733v1464zM530 371l732 430l-732 428v-858z" />
    <glyph glyph-name="_169" unicode="&#x25bc;" 
d="M1917 1569h-1868l934 -1620z" />
    <glyph glyph-name="_168" unicode="&#x25bd;" 
d="M1917 1569h-1868l934 -1620zM362 1395h1242l-621 -1098z" />
    <glyph glyph-name="_8779" unicode="&#x25bf;" 
d="M1716 1360l-731 -1245l-737 1245h1468zM551 1188l434 -729l428 729h-862z" />
    <glyph glyph-name="_218" unicode="&#x25c0;" 
d="M111 799l1620 -934v1868z" />
    <glyph glyph-name="_217" unicode="&#x25c1;" 
d="M111 799l1620 -934v1868zM455 799l1081 622v-1245z" />
    <glyph glyph-name="_8782" unicode="&#x25c3;" 
d="M1608 68l-1252 733l1252 731v-1464zM1434 1229l-732 -428l732 -430v858z" />
    <glyph glyph-name="_163" unicode="&#x25c6;" 
d="M983 1784l-942 -989l942 -990l942 990z" />
    <glyph glyph-name="_162" unicode="&#x25c7;" 
d="M983 1784l-942 -989l942 -990l942 990zM983 1528l694 -733l-694 -734l-698 734z" />
    <glyph glyph-name="_228" unicode="&#x25c8;" 
d="M983 1784l-942 -989l942 -990l942 990zM983 1528l694 -733l-694 -734l-698 734zM983 1219l-403 -424l403 -424l399 424z" />
    <glyph glyph-name="_8787" unicode="&#x25ca;" 
d="M1702 801l-717 -848l-721 848l721 848zM455 801l530 -623l526 623l-526 622z" />
    <glyph glyph-name="_159" unicode="&#x25cb;" 
d="M1892 799q0 247 -120 455.5t-329.5 331t-459.5 122.5q-188 0 -357 -72t-290 -194t-191.5 -290t-70.5 -353q0 -186 70 -354t190.5 -290t289.5 -194t359 -72q188 0 357 72t290 193.5t191.5 290t70.5 354.5zM272 799q0 148 55 283t149 233.5t227 156.5t282 58t282.5 -58
t228 -156.5t149.5 -233.5t55 -283q0 -149 -55 -284t-149.5 -233t-228 -156t-282.5 -58t-282 58t-227 156t-149 233t-55 284z" />
    <glyph glyph-name="_8639" unicode="&#x25cc;" 
d="M748 1649l18 -68q-106 -31 -178 -76l-39 64q102 55 199 80zM436 1491l43 -55q-87 -73 -137 -146l-61 51q96 104 155 150zM213 1233l63 -37q-28 -52 -75 -180l-70 14q25 106 82 203zM109 907l69 -6q-10 -62 -10 -100q0 -29 8 -99l-72 -8q-4 35 -4 107q0 64 9 106zM133 567
l68 19q31 -102 75 -183l-63 -34q-59 102 -80 198zM285 260l57 45q50 -65 137 -141l-43 -55q-80 68 -151 151zM588 96q68 -44 178 -73l-21 -70q-98 25 -196 80q37 59 39 63zM1087 1675l-8 -71q-66 8 -94 8q-21 0 -55.5 -3.5t-48.5 -4.5l-7 69q35 8 111 8q67 0 102 -6z
M1221 -47l-21 70q101 27 180 75l37 -65q-104 -56 -196 -80zM1526 102l-43 60q3 3 20.5 18.5t22 20t19 18.5t21.5 21t18 18.5t19.5 21.5t16.5 21l57 -45q-75 -92 -151 -154zM1753 369l-61 39q43 77 73 178l68 -19q-31 -114 -80 -198zM1858 694l-70 6q10 46 10 101
q0 40 -10 98l70 8q8 -49 8 -106q0 -72 -8 -107zM1833 1030l-68 -16q-29 97 -73 180l61 39q61 -115 80 -203zM1681 1346l-59 -50q-55 71 -139 142l45 55q68 -55 153 -147zM1378 1505q-96 54 -178 74l21 70q92 -24 196 -80q-1 0 -18.5 -29.5t-20.5 -34.5zM874 -78l7 78
q87 -10 96 -10q32 0 102 8l8 -72q-37 -6 -110 -6q-70 0 -103 2z" />
    <glyph glyph-name="_161" unicode="&#x25ce;" 
d="M377 799q0 -170 80 -310.5t219 -220.5t307 -80t307 80t219 220.5t80 310.5q0 128 -47 241.5t-128 194.5t-193 128.5t-238 47.5t-238 -47.5t-193 -128.5t-128 -194.5t-47 -241.5zM1427 799q0 -205 -124.5 -335t-319.5 -130t-319.5 130t-124.5 335t124.5 335t319.5 130
t319.5 -130t124.5 -335zM250 799q0 152 57 290t154.5 239.5t234.5 161.5t289 60t289 -60t235 -161.5t155.5 -240t57.5 -289.5q0 -152 -57.5 -291t-155.5 -240t-235 -161t-289 -60t-289 60t-234.5 161t-154.5 240t-57 291zM1892 799q0 247 -120 455.5t-329.5 331
t-459.5 122.5q-188 0 -357 -72t-290 -194t-191.5 -290t-70.5 -353q0 -186 70 -354t190.5 -290t289.5 -194t359 -72q188 0 357 72t290 193.5t191.5 290t70.5 354.5z" />
    <glyph glyph-name="_160" unicode="&#x25cf;" 
d="M1892 799q0 247 -120 455.5t-329.5 331t-459.5 122.5q-188 0 -357 -72t-290 -194t-191.5 -290t-70.5 -353q0 -186 70 -354t190.5 -290t289.5 -194t359 -72q188 0 357 72t290 193.5t191.5 290t70.5 354.5z" />
    <glyph glyph-name="_230" unicode="&#x25d0;" 
d="M1892 799q0 247 -120 455.5t-329.5 331t-459.5 122.5q-188 0 -357 -72t-290 -194t-191.5 -290t-70.5 -353q0 -186 70 -354t190.5 -290t289.5 -194t359 -72q188 0 357 72t290 193.5t191.5 290t70.5 354.5zM985 1530q149 0 282.5 -58t228 -156.5t149.5 -233.5t55 -283
q0 -149 -55 -284t-149.5 -233t-228 -156t-282.5 -58v1462z" />
    <glyph glyph-name="_231" unicode="&#x25d1;" 
d="M1892 799q0 247 -120 455.5t-329.5 331t-459.5 122.5q-188 0 -357 -72t-290 -194t-191.5 -290t-70.5 -353q0 -186 70 -354t190.5 -290t289.5 -194t359 -72q188 0 357 72t290 193.5t191.5 290t70.5 354.5zM272 799q0 148 55 283t149 233.5t227 156.5t282 58v-1462
q-149 0 -282 58t-227 156t-149 233t-55 284z" />
    <glyph glyph-name="_8775" unicode="&#x25e6;" 
d="M985 1454q175 0 326 -88.5t240 -239t89 -325.5q0 -132 -52.5 -254t-141 -210.5t-209.5 -141t-252 -52.5q-133 0 -254.5 52.5t-210 141t-141.5 210t-53 254.5q0 175 89 325.5t241 239t329 88.5zM985 1284q-202 0 -345.5 -142.5t-143.5 -340.5q0 -133 65.5 -245.5
t178 -177.5t245.5 -65q131 0 242.5 65t177 177.5t65.5 245.5q0 198 -143 340.5t-342 142.5z" />
    <glyph glyph-name="_8633" unicode="&#x25ef;" 
d="M985 1681q179 0 342 -70t281 -187.5t188 -280.5t70 -342t-70 -342t-188 -281t-281 -188t-342 -70q-181 0 -345 70t-282.5 188t-188 281t-69.5 342t69.5 341.5t188 280.5t282.5 188t345 70zM985 1599q-218 0 -403.5 -107t-293.5 -291t-108 -400q0 -162 64 -310t171.5 -255
t256.5 -170.5t313 -63.5q162 0 310.5 63.5t255.5 170.5t171 255t64 310t-64 310t-171.5 254.5t-255.5 170t-310 63.5z" />
    <glyph glyph-name="_158" unicode="&#x2605;" 
d="M733 1110h-659l-17 -49l537 -410l-262 -706l41 -33l610 457l608 -457l37 35l-256 704l537 410l-17 49h-659l-223 651h-54z" />
    <glyph glyph-name="_157" unicode="&#x2606;" 
d="M733 1110h-657l-19 -68l537 -391l-268 -696l57 -43l600 457l598 -457l55 45l-264 694l537 391l-19 68h-657l-213 651h-74zM846 961l137 469l141 -461l461 12l-405 -264l221 -502l-418 342l-416 -334l215 488l-411 262z" />
    <glyph glyph-name="_241" unicode="&#x260e;" 
d="M1798 930q32 -3 47.5 11.5t14.5 51.5q-7 154 -76 271q-108 186 -318 186h-962q-217 0 -326 -182q-67 -114 -74 -275q-1 -36 13 -51t47 -12l350 35q52 3 49 65q-4 64 6 121q15 86 58 86h61v-209q-107 -36 -252 -217q-82 -102 -134 -212.5t-52 -207.5l16 -182q6 -62 68 -62
h1302q28 0 46.5 15.5t21.5 44.5l16 194q0 93 -53.5 201.5t-136.5 210.5q-68 85 -135.5 143t-112.5 72v209h61q39 0 54 -86q8 -55 8 -129q0 -51 51 -57zM1094 1237v-205h-217v205h217zM1253 592q0 -111 -76 -188.5t-188 -77.5q-115 0 -190.5 75t-75.5 191q0 113 76 188.5
t190 75.5q109 0 186.5 -77.5t77.5 -186.5z" />
    </font>
</defs>
</svg>
