<?xml version="1.0" standalone="no"?>
<!DOCTYPE svg PUBLIC "-//W3C//DTD SVG 1.1//EN" "http://www.w3.org/Graphics/SVG/1.1/DTD/svg11.dtd" >
<svg xmlns="http://www.w3.org/2000/svg" xmlns:xlink="http://www.w3.org/1999/xlink" version="1.1">
<metadata>
Created by FontForge 20170731 at Fri Dec 10 02:39:16 2021
 By Aleksey,,,
Copyright (c) 2018 by S-Core Co., Ltd.. All rights reserved.
</metadata>
<defs>
<font id="S-CoreDream-4Regular" horiz-adv-x="1966" >
  <font-face 
    font-family="S-Core Dream 4 Regular"
    font-weight="200"
    font-stretch="normal"
    units-per-em="2048"
    panose-1="2 11 5 3 3 3 2 2 2 4"
    ascent="1638"
    descent="-410"
    x-height="1149"
    cap-height="1608"
    bbox="-61 -543 2419 2097"
    underline-thickness="102"
    underline-position="-307"
    unicode-range="U+0020-FFE6"
  />
<missing-glyph horiz-adv-x="595" 
 />
    <glyph glyph-name=".notdef" horiz-adv-x="595" 
 />
    <glyph glyph-name=".null" horiz-adv-x="0" 
 />
    <glyph glyph-name="nonmarkingreturn" horiz-adv-x="682" 
 />
    <glyph glyph-name="_1" unicode=" " horiz-adv-x="595" 
 />
    <glyph glyph-name="_2" unicode="!" horiz-adv-x="622" 
d="M397 1327l-16 -868h-139l-19 868v281h174v-281zM401 223v-221h-180v221h180z" />
    <glyph glyph-name="_3" unicode="&#x22;" horiz-adv-x="837" 
d="M639 1149h-156v459h156v-459zM354 1149h-157v459h157v-459z" />
    <glyph glyph-name="_4" unicode="#" horiz-adv-x="1486" 
d="M758 2l102 459h-381l-100 -459h-158l101 459h-248v137h274l92 414h-286v137h315l100 459h160l-100 -459h379l100 459h158l-101 -459h248v-137h-276l-93 -414h291v-137h-319l-98 -459h-160zM598 1012l-92 -414h381l92 414h-381z" />
    <glyph glyph-name="_5" unicode="$" horiz-adv-x="1288" 
d="M575 -197v177q-219 18 -341.5 142t-122.5 310v41h178v-45q0 -116 75.5 -195.5t210.5 -99.5v625l-65 14q-399 86 -399 428q0 177 122 298.5t342 133.5v174h130v-178q204 -21 318 -140t114 -288v-31h-179v31q0 109 -66.5 181.5t-186.5 91.5v-578l67 -12q424 -89 424 -451
q0 -192 -130 -317t-361 -138v-174h-130zM1018 428q0 119 -78 197t-235 108v-600q147 13 230 93t83 202zM289 1200q0 -61 17 -105.5t55.5 -76.5t88 -53.5t125.5 -42.5v555q-136 -12 -211 -86.5t-75 -190.5z" />
    <glyph glyph-name="_6" unicode="%" horiz-adv-x="1796" 
d="M643 2h-147l657 1606h147zM772 1202q0 -214 -83.5 -324t-239.5 -110q-157 0 -241.5 110t-84.5 324t84.5 323t241.5 109q156 0 239.5 -109t83.5 -323zM625 1202q0 166 -44 236.5t-132 70.5q-90 0 -134.5 -70.5t-44.5 -236.5q0 -167 44.5 -238t134.5 -71q88 0 132 71
t44 238zM1024 408q0 214 84.5 324t241.5 110q156 0 239.5 -110t83.5 -324t-83.5 -323.5t-239.5 -109.5q-157 0 -241.5 109.5t-84.5 323.5zM1171 408q0 -166 44.5 -237t134.5 -71q88 0 132 71t44 237q0 167 -44 238t-132 71q-90 0 -134.5 -71t-44.5 -238z" />
    <glyph glyph-name="_7" unicode="&#x26;" horiz-adv-x="1458" 
d="M637 1634q184 0 295.5 -98t111.5 -268v-49h-172v45q0 105 -62.5 163t-172.5 58q-108 0 -171 -58t-63 -163q0 -73 29.5 -134.5t110.5 -146.5l530 -565q66 154 76 381h174q-9 -302 -127 -512l270 -285h-215l-151 160q-174 -187 -469 -187q-238 0 -379 126.5t-141 334.5
q0 296 286 471q-90 90 -129 174.5t-39 182.5q0 172 112.5 271t295.5 99zM631 125q234 0 356 156l-493 522q-211 -143 -211 -365q0 -145 97.5 -229t250.5 -84z" />
    <glyph glyph-name="_8" unicode="'" horiz-adv-x="518" 
d="M338 1149h-158v459h158v-459z" />
    <glyph glyph-name="_9" unicode="(" horiz-adv-x="712" 
d="M180 797q0 219 12.5 381.5t40.5 277.5t66 189t95.5 116t121.5 58t152 16v-147q-59 0 -100.5 -12.5t-79.5 -47.5t-62 -97.5t-42 -161.5t-26 -239.5t-8 -332.5q0 -193 8 -334.5t26 -240.5t42 -161t62 -97t79.5 -47.5t100.5 -12.5v-148q-88 0 -152 16t-121.5 58.5
t-95.5 116.5t-66 189.5t-40.5 278.5t-12.5 382z" />
    <glyph glyph-name="_10" unicode=")" horiz-adv-x="712" 
d="M532 797q0 -219 -12.5 -382t-40.5 -278.5t-65.5 -189.5t-94.5 -116.5t-121 -58.5t-151 -16v148q59 0 100.5 12.5t79 47.5t61 97t41.5 161.5t25.5 240.5t7.5 334q0 192 -7.5 332.5t-25.5 239.5t-41.5 161.5t-61 97.5t-79 47.5t-100.5 12.5v147q88 0 151.5 -16t120.5 -58
t94.5 -116t65.5 -189t40.5 -277.5t12.5 -381.5z" />
    <glyph glyph-name="_11" unicode="*" horiz-adv-x="1099" 
d="M1020 930l-346 -180l346 -183l-78 -135l-330 207l17 -389h-158l16 389l-331 -207l-78 135l344 183l-344 180l78 135l331 -209l-16 391h158l-17 -391l330 209z" />
    <glyph glyph-name="_12" unicode="+" horiz-adv-x="1193" 
d="M113 680v139h405v430h158v-430h405v-139h-405v-430h-158v430h-405z" />
    <glyph glyph-name="_13" unicode="," horiz-adv-x="628" 
d="M199 -262v92q112 15 112 133v39h-94v244h195v-271q0 -111 -52.5 -168t-160.5 -69z" />
    <glyph glyph-name="_14" unicode="-" horiz-adv-x="899" 
d="M113 674v151h675v-151h-675z" />
    <glyph glyph-name="_15" unicode="." horiz-adv-x="628" 
d="M412 246v-244h-195v244h195z" />
    <glyph glyph-name="_16" unicode="/" horiz-adv-x="913" 
d="M918 1798l-750 -2009h-172l749 2009h173z" />
    <glyph glyph-name="_17" unicode="0" horiz-adv-x="1257" 
d="M1147 805q0 -270 -37 -426.5t-119 -255.5q-126 -148 -362 -148q-237 0 -363 148q-82 100 -119.5 256t-37.5 426t37.5 426t119.5 256q126 147 363 147q236 0 362 -147q82 -99 119 -255.5t37 -426.5zM975 805q0 238 -24 368.5t-79 200.5q-88 111 -243 111q-156 0 -244 -111
q-55 -70 -78.5 -200t-23.5 -369q0 -242 23.5 -372.5t78.5 -199.5q83 -108 244 -108t243 108q55 70 79 201.5t24 370.5z" />
    <glyph glyph-name="_18" unicode="1" horiz-adv-x="1257" 
d="M846 2h-174v1423l-400 -178v170l424 191h150v-1606z" />
    <glyph glyph-name="_19" unicode="2" horiz-adv-x="1257" 
d="M1110 1161q0 -110 -34.5 -195t-123.5 -186l-555 -628h733v-150h-960v137l643 731q65 74 93 142t28 147q0 145 -83 235.5t-224 90.5q-143 0 -225.5 -91t-82.5 -235v-45h-174v47q0 131 54.5 237t165.5 171t262 65q114 0 206.5 -37.5t152.5 -102.5t92 -150.5t32 -182.5z" />
    <glyph glyph-name="_20" unicode="3" horiz-adv-x="1257" 
d="M956 453q0 152 -87.5 239.5t-235.5 87.5h-162v150h166q128 0 200 78t72 198q0 124 -79 201.5t-205 77.5q-130 0 -207.5 -77t-77.5 -202v-22h-174v37q0 180 123.5 296.5t335.5 116.5q210 0 333 -116.5t123 -296.5q0 -136 -66 -233t-184 -132q138 -36 217.5 -141.5
t79.5 -268.5q0 -216 -138.5 -343.5t-364.5 -127.5q-225 0 -365.5 131t-140.5 351v20h172v-12q0 -159 93 -249.5t241 -90.5q146 0 238.5 88t92.5 240z" />
    <glyph glyph-name="_21" unicode="4" horiz-adv-x="1257" 
d="M299 510h492v813zM1163 510v-150h-198v-358h-174v358h-682v150l665 1098h191v-1098h198z" />
    <glyph glyph-name="_22" unicode="5" horiz-adv-x="1257" 
d="M635 893q-90 0 -157.5 -44t-104.5 -126h-172l41 885h798v-150h-637l-26 -559q38 64 114.5 103.5t174.5 39.5q211 0 335.5 -139t124.5 -397q0 -251 -130.5 -391t-360.5 -140q-213 0 -342 120t-148 333h174q15 -149 97.5 -226t218.5 -77q153 0 236 99t83 286q0 185 -83 284
t-236 99z" />
    <glyph glyph-name="_23" unicode="6" horiz-adv-x="1257" 
d="M309 854q42 87 132.5 137.5t213.5 50.5q221 0 352.5 -143t131.5 -389t-138.5 -390.5t-361.5 -144.5q-321 0 -438 279q-66 156 -66 442q0 275 30 455.5t95 288.5q117 194 383 194q192 0 312.5 -100.5t144.5 -292.5h-180q-15 120 -87.5 182t-193.5 62q-172 0 -247 -147.5
t-83 -483.5zM309 510q0 -181 89.5 -283t240.5 -102t239.5 102t88.5 283q0 179 -89 281t-239 102q-151 0 -240.5 -102.5t-89.5 -280.5z" />
    <glyph glyph-name="_24" unicode="7" horiz-adv-x="1257" 
d="M152 1458v150h956v-135l-557 -1471h-182l565 1456h-782z" />
    <glyph glyph-name="_25" unicode="8" horiz-adv-x="1257" 
d="M629 -25q-238 0 -383.5 125.5t-145.5 339.5q0 157 82.5 264.5t227.5 147.5q-121 38 -192 137.5t-71 229.5q0 184 130.5 299.5t351.5 115.5t350 -115t129 -300q0 -130 -69.5 -229.5t-190.5 -137.5q145 -40 227 -147.5t82 -264.5q0 -214 -145.5 -339.5t-382.5 -125.5z
M936 1204q0 127 -85 204t-222 77q-138 0 -222.5 -77t-84.5 -204t84 -202.5t223 -75.5q138 0 222.5 75.5t84.5 202.5zM272 451q0 -151 98.5 -238.5t258.5 -87.5q159 0 257.5 87.5t98.5 238.5q0 150 -98.5 238.5t-257.5 88.5t-258 -88.5t-99 -238.5z" />
    <glyph glyph-name="_26" unicode="9" horiz-adv-x="1257" 
d="M946 756q-42 -87 -132.5 -138t-213.5 -51q-220 0 -351.5 143.5t-131.5 389.5t138.5 390t362.5 144q320 0 437 -278q65 -154 65 -443q0 -275 -30 -455.5t-97 -287.5q-115 -195 -379 -195q-195 0 -315 101t-143 293h180q15 -120 87.5 -182t192.5 -62q172 0 247 147.5
t83 483.5zM946 1100q0 180 -89.5 282.5t-238.5 102.5q-152 0 -240.5 -102t-88.5 -283q0 -180 88.5 -281.5t240.5 -101.5q148 0 238 102t90 281z" />
    <glyph glyph-name="_27" unicode=":" horiz-adv-x="628" 
d="M412 246v-244h-195v244h195zM412 1149v-244h-195v244h195z" />
    <glyph glyph-name="_28" unicode=";" horiz-adv-x="628" 
d="M199 -262v92q112 15 112 133v39h-94v244h195v-271q0 -111 -52.5 -168t-160.5 -69zM412 1149v-244h-195v244h195z" />
    <glyph glyph-name="_29" unicode="&#x3c;" horiz-adv-x="1191" 
d="M1063 1253v-161l-754 -342l754 -344v-162l-934 436v139z" />
    <glyph glyph-name="_30" unicode="=" horiz-adv-x="1193" 
d="M113 881v143h968v-143h-968zM113 475v141h968v-141h-968z" />
    <glyph glyph-name="_31" unicode="&#x3e;" horiz-adv-x="1191" 
d="M129 406l754 344l-754 342v161l934 -434v-139l-934 -436v162z" />
    <glyph glyph-name="_32" unicode="?" horiz-adv-x="1173" 
d="M1038 1188q0 -131 -45.5 -221t-156.5 -185q-110 -95 -145.5 -158t-35.5 -157v-49h-170v61q0 122 42 200t171 189q98 85 135 153t37 163q0 138 -78.5 219.5t-209.5 81.5q-132 0 -210.5 -84t-78.5 -219h-170v6q0 197 121 321.5t338 124.5q215 0 335.5 -124.5t120.5 -321.5z
M659 223v-221h-178v221h178z" />
    <glyph glyph-name="_33" unicode="@" horiz-adv-x="1689" 
d="M1038 1079q125 0 207.5 -45t118.5 -127q-25 321 -144.5 456.5t-375.5 135.5q-122 0 -207.5 -27t-150 -88.5t-102 -167t-55.5 -255t-18 -361.5q0 -160 11.5 -285.5t32 -219.5t55 -162t75.5 -112t98.5 -70t119 -36t141.5 -10q159 0 276 68l49 -129q-152 -76 -325 -76
q-141 0 -246 29.5t-191 100.5t-140 189t-82.5 295t-28.5 418q0 380 69.5 605t218.5 327t400 102q250 0 398.5 -102t218 -327t69.5 -605v-22q0 -266 -120.5 -412t-344.5 -146q-223 0 -339 141t-116 390q0 252 113.5 390t314.5 138zM1073 164q303 0 303 387t-303 387
q-150 0 -226.5 -98t-76.5 -289q0 -387 303 -387z" />
    <glyph glyph-name="_34" unicode="A" horiz-adv-x="1374" 
d="M584 1608h204l562 -1606h-185l-129 381h-700l-129 -381h-187zM981 539l-295 884l-299 -884h594z" />
    <glyph glyph-name="_35" unicode="B" horiz-adv-x="1351" 
d="M336 905h369q171 0 254 67t83 206q0 140 -83 207t-254 67h-369v-547zM770 2h-612v1606h585q234 0 355 -107.5t121 -310.5q0 -144 -68 -236.5t-186 -119.5q145 -26 223 -129t78 -261q0 -442 -496 -442zM1087 453q0 152 -84 224.5t-274 72.5h-393v-594h393q190 0 274 73
t84 224z" />
    <glyph glyph-name="_36" unicode="C" horiz-adv-x="1419" 
d="M721 -25q-139 0 -245.5 42.5t-174.5 115.5t-111.5 180.5t-61 227t-17.5 264.5q0 829 610 829q269 0 424 -149.5t170 -405.5h-176q-14 188 -121 294t-297 106q-100 0 -174.5 -31t-123.5 -87t-79 -141.5t-42.5 -185.5t-12.5 -229q0 -165 22 -286t71.5 -210t134 -133.5
t204.5 -44.5q190 0 297 104.5t121 292.5h176q-15 -255 -170 -404t-424 -149z" />
    <glyph glyph-name="_37" unicode="D" horiz-adv-x="1431" 
d="M1141 805q0 128 -13.5 227.5t-45.5 180t-82 132t-124.5 79.5t-173.5 28h-368v-1294h368q124 0 209.5 41.5t135.5 126.5t72 201t22 278zM717 2h-561v1606h561q103 0 188 -22.5t146.5 -62.5t108.5 -98.5t77 -125.5t48.5 -150.5t26 -166t7.5 -177.5q0 -96 -7.5 -178.5
t-26 -166t-48 -150t-76.5 -125.5t-108.5 -98.5t-146.5 -62t-189 -22.5z" />
    <glyph glyph-name="_38" unicode="E" horiz-adv-x="1185" 
d="M158 2v1606h925v-156h-747v-549h665v-158h-665v-589h760v-154h-938z" />
    <glyph glyph-name="_39" unicode="F" horiz-adv-x="1140" 
d="M158 2v1606h915v-156h-737v-573h665v-156h-665v-721h-178z" />
    <glyph glyph-name="_40" unicode="G" horiz-adv-x="1460" 
d="M111 805q0 829 610 829q269 0 424 -149.5t170 -405.5h-176q-14 188 -121 294t-297 106q-98 0 -172 -30.5t-123.5 -86.5t-80 -141t-43.5 -186t-13 -230q0 -349 101 -511.5t331 -162.5q195 0 308.5 121t113.5 334v82h-410v155h584v-821h-131l-31 213
q-48 -107 -163.5 -173.5t-278.5 -66.5q-602 0 -602 830z" />
    <glyph glyph-name="_41" unicode="H" horiz-adv-x="1404" 
d="M1069 2v743h-733v-743h-178v1606h178v-705h733v705h178v-1606h-178z" />
    <glyph glyph-name="_42" unicode="I" horiz-adv-x="493" 
d="M336 1608v-1606h-178v1606h178z" />
    <glyph glyph-name="_43" unicode="J" horiz-adv-x="1177" 
d="M541 129q150 0 230.5 96.5t80.5 288.5v1094h178v-1114q0 -248 -128 -383.5t-363 -135.5t-361.5 135.5t-126.5 383.5v10h176q6 -375 314 -375z" />
    <glyph glyph-name="_44" unicode="K" horiz-adv-x="1290" 
d="M1225 1608l-555 -785l626 -821h-206l-562 743h-192v-743h-178v1606h178v-705h192l496 705h201z" />
    <glyph glyph-name="_45" unicode="L" horiz-adv-x="1128" 
d="M158 2v1606h178v-1452h760v-154h-938z" />
    <glyph glyph-name="_46" unicode="M" horiz-adv-x="1886" 
d="M1038 2h-190l-512 1229v-1229h-178v1606h198l586 -1405l588 1405h199v-1606h-179v1229z" />
    <glyph glyph-name="_47" unicode="N" horiz-adv-x="1427" 
d="M1270 2h-178l-756 1282v-1282h-178v1606h178l756 -1282v1282h178v-1606z" />
    <glyph glyph-name="_48" unicode="O" horiz-adv-x="1445" 
d="M1333 805q0 -146 -17.5 -265.5t-61 -227t-112 -180t-175 -115t-246.5 -42.5q-138 0 -244.5 42.5t-175 115.5t-112 180.5t-61 227t-17.5 264.5q0 144 17.5 262.5t61 226t111.5 181t174.5 116.5t245.5 43q141 0 248 -43t175.5 -116t111.5 -180.5t60 -226t17 -263.5z
M1157 805q0 128 -13 228.5t-44 186t-80.5 141.5t-124.5 87t-174 31t-173.5 -31t-123 -86.5t-79.5 -141t-43.5 -186t-12.5 -229.5q0 -130 12.5 -230.5t43 -186t79.5 -141t123.5 -86t173.5 -30.5q124 0 210 46t135 137t70 210t21 281z" />
    <glyph glyph-name="_49" unicode="P" horiz-adv-x="1331" 
d="M336 772h407q168 0 256 89.5t88 250.5q0 162 -88 251t-256 89h-407v-680zM762 616h-426v-614h-178v1606h604q242 0 373 -131.5t131 -364.5t-131 -364.5t-373 -131.5z" />
    <glyph glyph-name="_50" unicode="Q" horiz-adv-x="1449" 
d="M1333 805q0 -378 -121 -580l201 -170l-98 -110l-197 168q-147 -138 -397 -138q-138 0 -244.5 42.5t-175 115t-112 180t-61 227t-17.5 265.5q0 145 17.5 264t61 226t112 180.5t175 116t244.5 42.5q140 0 247 -43t175.5 -116t111.5 -180.5t60.5 -226t17.5 -263.5zM1157 805
q0 130 -13 230.5t-43.5 186t-80 141t-124.5 86t-175 30.5q-98 0 -172 -30.5t-123.5 -85.5t-80 -140t-43.5 -186.5t-13 -231.5t12.5 -231t43 -186t79.5 -140.5t123.5 -86t173.5 -30.5q168 0 270 88l-239 205l100 111l227 -197q78 160 78 467z" />
    <glyph glyph-name="_51" unicode="R" horiz-adv-x="1378" 
d="M1276 2h-180q-20 64 -25 145q-1 16 -3 46q-5 76 -7.5 111t-10 90.5t-17 78.5t-27 58t-41 48.5t-58.5 29.5t-80.5 21t-105.5 5h-387v-633h-178v1606h608q248 0 375 -125t127 -353q0 -164 -73 -270.5t-220 -144.5q126 -23 187 -102.5t73 -237.5q2 -21 5.5 -80t6 -87.5
t7 -73t10.5 -76t14 -56.5zM334 791h407q168 0 256 82.5t88 246.5q0 165 -88 248.5t-256 83.5h-407v-661z" />
    <glyph glyph-name="_52" unicode="S" horiz-adv-x="1288" 
d="M1196 432q0 -201 -144 -329t-397 -128q-254 0 -398 128t-144 329v43h176v-45q0 -133 98 -217t268 -84q167 0 266 84t99 217q0 115 -75 192t-228 109l-207 43q-192 39 -294.5 145t-102.5 281q0 187 135 310.5t377 123.5q241 0 376.5 -123.5t135.5 -310.5v-31h-179v31
q0 127 -87.5 203t-245.5 76q-159 0 -247.5 -76t-88.5 -203q0 -112 68.5 -178t207.5 -96l207 -43q424 -89 424 -451z" />
    <glyph glyph-name="_53" unicode="T" horiz-adv-x="1185" 
d="M35 1452v156h1116v-156h-469v-1450h-178v1450h-469z" />
    <glyph glyph-name="_54" unicode="U" horiz-adv-x="1449" 
d="M727 -25q-290 0 -435 165.5t-145 455.5v1012h177v-990q0 -242 96.5 -365.5t306.5 -123.5q208 0 303.5 123.5t95.5 365.5v990h179v-1012q0 -290 -144 -455.5t-434 -165.5z" />
    <glyph glyph-name="_55" unicode="V" horiz-adv-x="1374" 
d="M788 2h-204l-564 1606h187l479 -1385l479 1385h185z" />
    <glyph glyph-name="_56" unicode="W" horiz-adv-x="2136" 
d="M1657 2h-213l-377 1313l-379 -1313h-213l-442 1606h184l373 -1358l389 1358h176l389 -1358l373 1358h184z" />
    <glyph glyph-name="_57" unicode="X" horiz-adv-x="1347" 
d="M1114 2l-440 694l-441 -694h-196l526 823l-493 783h192l412 -654l413 654h193l-498 -783l527 -823h-195z" />
    <glyph glyph-name="_58" unicode="Y" horiz-adv-x="1351" 
d="M674 807l454 801h189l-553 -973v-633h-178v633l-551 973h188z" />
    <glyph glyph-name="_59" unicode="Z" horiz-adv-x="1204" 
d="M90 143l799 1309h-776v156h989v-142l-799 -1310h809v-154h-1022v141z" />
    <glyph glyph-name="_60" unicode="[" horiz-adv-x="741" 
d="M180 -211v2009h471v-147h-301v-1714h301v-148h-471z" />
    <glyph glyph-name="_61" unicode="\" 
d="M1511 2l183 766h231v104h-207l176 736h-184l-168 -736h-293l-178 736h-176l-178 -736h-293l-168 736h-184l174 -736h-205v-104h229l183 -766h213l184 766h264l184 -766h213zM1090 872h-213l106 443zM449 768h243l-125 -518zM1274 768h244l-119 -518z" />
    <glyph glyph-name="_62" unicode="]" horiz-adv-x="741" 
d="M561 1798v-2009h-471v148h301v1714h-301v147h471z" />
    <glyph glyph-name="_63" unicode="^" horiz-adv-x="952" 
d="M399 1608h152l354 -533h-172l-258 391l-260 -391h-170z" />
    <glyph glyph-name="_64" unicode="_" horiz-adv-x="1146" 
d="M0 -367v111h1147v-111h-1147z" />
    <glyph glyph-name="_65" unicode="`" horiz-adv-x="772" 
d="M442 1307l-268 370h193l233 -370h-158z" />
    <glyph glyph-name="_66" unicode="a" horiz-adv-x="1173" 
d="M879 123q-36 -71 -126 -109.5t-225 -38.5q-205 0 -323.5 97t-118.5 268q0 170 118.5 267.5t323.5 97.5q133 0 223.5 -38.5t127.5 -109.5v195q0 132 -74.5 207t-216.5 75q-131 0 -201.5 -57.5t-81.5 -159.5h-174q14 167 131 263t326 96q224 0 341.5 -113.5t117.5 -312.5
v-590q0 -82 26 -158h-172q-22 52 -22 121zM879 340q0 105 -80 164t-232 59t-231.5 -59t-79.5 -164q0 -106 79 -164.5t232 -58.5t232.5 58.5t79.5 164.5z" />
    <glyph glyph-name="_67" unicode="b" horiz-adv-x="1216" 
d="M305 1608v-639q38 97 127.5 152t222.5 55q226 0 346.5 -152t120.5 -449q0 -298 -120 -449t-347 -151q-133 0 -222.5 55t-127.5 152v-180h-170v1606h170zM305 575q0 -225 77 -341.5t249 -116.5q169 0 246 117t77 341q0 459 -323 459q-172 0 -249 -117.5t-77 -341.5z" />
    <glyph glyph-name="_68" unicode="c" horiz-adv-x="1153" 
d="M94 575q0 289 124 445t370 156q208 0 331 -103t146 -293h-172q-15 120 -93.5 187t-211.5 67q-172 0 -248 -117.5t-76 -341.5q0 -225 76 -341.5t248 -116.5q133 0 211.5 67t93.5 187h172q-23 -190 -146 -293t-331 -103q-246 0 -370 155.5t-124 444.5z" />
    <glyph glyph-name="_69" unicode="d" horiz-adv-x="1216" 
d="M913 969v639h170v-1606h-170v180q-38 -96 -128 -151.5t-222 -55.5q-227 0 -348 151.5t-121 448.5q0 296 121 448.5t348 152.5q132 0 222 -55.5t128 -151.5zM913 575q0 224 -76.5 341.5t-248.5 117.5t-248 -117.5t-76 -341.5q0 -225 76 -341.5t248 -116.5t248.5 116.5
t76.5 341.5z" />
    <glyph glyph-name="_70" unicode="e" horiz-adv-x="1175" 
d="M883 340h174q-31 -173 -150.5 -269t-314.5 -96q-250 0 -374 154.5t-124 445.5q0 289 124 445t370 156t369.5 -155.5t123.5 -445.5v-49h-819q9 -409 330 -409q118 0 195.5 61.5t95.5 161.5zM264 655h645q-19 379 -321 379q-305 0 -324 -379z" />
    <glyph glyph-name="_71" unicode="f" horiz-adv-x="763" 
d="M721 1483h-109q-119 0 -161.5 -42.5t-42.5 -156.5v-135h313v-141h-313v-1006h-170v1006h-170v141h170v145q0 183 80.5 256.5t275.5 73.5q67 0 127 -8v-133z" />
    <glyph glyph-name="_72" unicode="g" horiz-adv-x="1216" 
d="M911 -66v246q-38 -95 -127.5 -150t-220.5 -55q-228 0 -348.5 151.5t-120.5 448.5t120.5 449t348.5 152q132 0 221 -55t127 -152v180h170v-1202q0 -104 -28 -189.5t-84.5 -150.5t-147 -101t-209.5 -36q-197 0 -316 92.5t-140 251.5h172q15 -96 89.5 -149.5t194.5 -53.5
q145 0 222 84t77 239zM911 575q0 224 -76 341.5t-247 117.5q-172 0 -249 -117.5t-77 -341.5q0 -225 77 -341.5t249 -116.5q171 0 247 116.5t76 341.5z" />
    <glyph glyph-name="_73" unicode="h" horiz-adv-x="1208" 
d="M1077 715v-713h-168v672q0 188 -68 274t-206 86q-145 0 -237.5 -117.5t-92.5 -324.5v-590h-170v1606h170v-662q43 108 136 169t235 61q194 0 297.5 -120.5t103.5 -340.5z" />
    <glyph glyph-name="_74" unicode="i" horiz-adv-x="462" 
d="M317 2h-170v1147h170v-1147zM317 1384h-170v224h170v-224z" />
    <glyph glyph-name="_75" unicode="j" horiz-adv-x="483" 
d="M338 1149v-1313q0 -168 -78.5 -251t-243.5 -83q-41 0 -77 4v140h65q82 0 123 41.5t41 132.5v1329h170zM338 1384h-170v224h170v-224z" />
    <glyph glyph-name="_76" unicode="k" horiz-adv-x="1056" 
d="M305 2h-170v1606h170v-936h131l363 477h194l-413 -549l467 -598h-201l-412 528h-129v-528z" />
    <glyph glyph-name="_77" unicode="l" horiz-adv-x="462" 
d="M317 2h-170v1606h170v-1606z" />
    <glyph glyph-name="_78" unicode="m" horiz-adv-x="1880" 
d="M1026 592v-590h-168v750q0 140 -64.5 211t-185.5 71q-134 0 -218.5 -115t-84.5 -325v-592h-170v1147h170v-199q39 108 126 167t214 59q131 0 222.5 -62.5t127.5 -181.5q96 244 373 244q184 0 282.5 -111t98.5 -317v-746h-170v750q0 140 -63.5 211t-184.5 71
q-134 0 -219.5 -116t-85.5 -326z" />
    <glyph glyph-name="_79" unicode="n" horiz-adv-x="1208" 
d="M1077 715v-713h-168v672q0 188 -68 274t-206 86q-145 0 -237.5 -117.5t-92.5 -324.5v-590h-170v1147h170v-203q43 108 136 169t235 61q194 0 297.5 -120.5t103.5 -340.5z" />
    <glyph glyph-name="_80" unicode="o" horiz-adv-x="1175" 
d="M1083 575q0 -289 -124 -444.5t-371 -155.5q-246 0 -370 155.5t-124 444.5t124 445t370 156q247 0 371 -156t124 -445zM913 575q0 224 -76.5 341.5t-248.5 117.5t-248 -117.5t-76 -341.5q0 -225 76 -341.5t248 -116.5t248.5 116.5t76.5 341.5z" />
    <glyph glyph-name="_81" unicode="p" horiz-adv-x="1216" 
d="M303 180v-678h-168v1647h168v-180q39 97 129 152t221 55q227 0 348 -152.5t121 -448.5t-121 -448t-348 -152q-131 0 -220.5 55t-129.5 150zM303 575q0 -225 77 -341.5t249 -116.5q171 0 247 116.5t76 341.5q0 224 -76 341.5t-247 117.5q-172 0 -249 -117.5t-77 -341.5z
" />
    <glyph glyph-name="_82" unicode="q" horiz-adv-x="1216" 
d="M911 -498v678q-38 -95 -127.5 -150t-220.5 -55q-228 0 -348.5 151.5t-120.5 448.5t120.5 449t348.5 152q132 0 221 -55t127 -152v180h170v-1647h-170zM911 575q0 224 -76 341.5t-247 117.5q-172 0 -249 -117.5t-77 -341.5q0 -225 77 -341.5t249 -116.5q171 0 247 116.5
t76 341.5z" />
    <glyph glyph-name="_83" unicode="r" horiz-adv-x="759" 
d="M631 1032q-151 0 -238.5 -113.5t-87.5 -332.5v-584h-170v1147h170v-203q71 230 332 230q59 0 86 -9l-2 -139q-36 4 -90 4z" />
    <glyph glyph-name="_84" unicode="s" horiz-adv-x="1060" 
d="M516 1176q194 0 306 -91t112 -235v-29h-170v31q0 80 -66 132t-182 52q-115 0 -180.5 -52t-65.5 -130q0 -72 51.5 -112.5t172.5 -65.5l139 -29q182 -37 263 -114.5t81 -221.5q0 -148 -121 -242t-321 -94q-198 0 -319.5 93t-121.5 243v39h170v-39q0 -90 75 -143t196 -53
t196.5 54t75.5 140q0 81 -50 125.5t-165 67.5l-141 28q-184 37 -267.5 113t-83.5 207q0 143 110.5 234.5t305.5 91.5z" />
    <glyph glyph-name="_85" unicode="t" horiz-adv-x="800" 
d="M393 1008v-676q0 -120 50 -162.5t171 -42.5h113v-137q-43 -4 -139 -4q-195 0 -280 70.5t-85 248.5v703h-170v141h170v326h170v-326h334v-141h-334z" />
    <glyph glyph-name="_86" unicode="u" horiz-adv-x="1208" 
d="M131 436v713h170v-672q0 -189 67 -274.5t205 -85.5q146 0 239 117.5t93 324.5v590h168v-1147h-168v203q-45 -108 -138 -169t-235 -61q-194 0 -297.5 120.5t-103.5 340.5z" />
    <glyph glyph-name="_87" unicode="v" horiz-adv-x="1146" 
d="M672 2h-197l-438 1147h180l356 -952l357 952h180z" />
    <glyph glyph-name="_88" unicode="w" horiz-adv-x="1814" 
d="M817 1149h180l303 -938l302 938h178l-385 -1147h-185l-305 938l-301 -938h-186l-383 1147h176l301 -938z" />
    <glyph glyph-name="_89" unicode="x" horiz-adv-x="1060" 
d="M854 2l-324 467l-325 -467h-187l410 588l-387 559h188l301 -440l301 440h189l-385 -559l407 -588h-188z" />
    <glyph glyph-name="_90" unicode="y" horiz-adv-x="1148" 
d="M406 -219l83 219l-452 1149h180l361 -936l354 936h180l-553 -1419q-53 -135 -124 -181.5t-195 -46.5q-52 0 -72 2v140h57q68 0 109 28.5t72 108.5z" />
    <glyph glyph-name="_91" unicode="z" horiz-adv-x="1011" 
d="M913 1149v-129l-622 -877h639v-141h-848v129l620 877h-602v141h813z" />
    <glyph glyph-name="_92" unicode="{" horiz-adv-x="772" 
d="M90 721v145h45q69 0 104 42t35 116v418q0 186 85.5 271t258.5 85h64v-147h-47q-102 0 -146.5 -54.5t-44.5 -175.5v-415q0 -82 -36.5 -137.5t-106.5 -75.5q70 -19 106.5 -74t36.5 -139v-416q0 -119 44.5 -173t146.5 -54h47v-148h-64q-174 0 -259 84.5t-85 271.5v418
q0 74 -35 116t-104 42h-45z" />
    <glyph glyph-name="_93" unicode="|" horiz-adv-x="616" 
d="M223 -211v2009h170v-2009h-170z" />
    <glyph glyph-name="_94" unicode="}" horiz-adv-x="772" 
d="M682 866v-145h-45q-69 0 -104 -42t-35 -116v-418q0 -187 -85 -271.5t-259 -84.5h-64v148h45q103 0 148 53.5t45 173.5v416q0 84 36.5 139t106.5 74q-70 20 -106.5 75.5t-36.5 137.5v415q0 121 -45 175.5t-148 54.5h-45v147h64q173 0 258.5 -85t85.5 -271v-418
q0 -74 35 -116t104 -42h45z" />
    <glyph glyph-name="_95" unicode="~" horiz-adv-x="1189" 
d="M786 575q-61 0 -110.5 21.5t-81 52.5t-58.5 61.5t-58.5 52t-65.5 21.5q-113 0 -119 -194h-160q2 157 70.5 246.5t199.5 89.5q61 0 110.5 -21.5t81 -52t59 -60.5t59 -51.5t65.5 -21.5q58 0 87 47t32 147h160q-2 -159 -71 -248.5t-200 -89.5z" />
    <glyph glyph-name="_208" unicode="&#xa1;" horiz-adv-x="622" 
d="M223 -176v-281h174v281l-16 866h-139zM221 926h180v223h-180v-223z" />
    <glyph glyph-name="_214" unicode="&#xa4;" horiz-adv-x="1439" 
d="M1225 750q0 173 -107 303l217 221l-110 110l-224 -225q-125 86 -280 86q-157 0 -285 -86l-223 225l-111 -110l220 -221q-107 -130 -107 -303q0 -176 107 -306l-220 -219l111 -110l223 221q132 -82 285 -82q151 0 280 82l224 -221l110 110l-217 219q107 130 107 306z
M1067 750q0 -163 -99.5 -261t-248.5 -98q-146 0 -247 98.5t-101 260.5t101 261t247 99q149 0 248.5 -98.5t99.5 -261.5z" />
    <glyph glyph-name="_155" unicode="&#xa7;" 
d="M971 1534q108 0 177 -59.5t69 -151.5v-14h172v18q0 156 -113.5 252t-304.5 96t-303.5 -96t-112.5 -252q0 -108 40.5 -181t135.5 -126q-98 -49 -148.5 -130t-50.5 -183q0 -90 26.5 -155.5t87 -114t142 -82.5t205.5 -66q130 -34 187 -89.5t57 -148.5q0 -97 -66.5 -154
t-179.5 -57q-109 0 -177.5 58.5t-68.5 152.5v15h-170v-19q0 -155 112.5 -250.5t303.5 -95.5t303.5 95.5t112.5 250.5q0 106 -41.5 178t-136.5 127q99 46 151 128.5t52 185.5q0 72 -18.5 128.5t-53 99t-92.5 77t-128.5 60.5t-170.5 52q-130 33 -187 90.5t-57 149.5
q0 96 67.5 153.5t178.5 57.5zM702 715q0 79 42.5 142.5t129.5 98.5q233 -58 309.5 -115.5t76.5 -183.5q0 -167 -173 -243q-72 22 -96 28q-172 51 -230.5 104t-58.5 169z" />
    <glyph glyph-name="_107" unicode="&#xa8;" horiz-adv-x="1228" 
d="M485 1608h-194v-244h194v244zM936 1608h-195v-244h195v244z" />
    <glyph glyph-name="_668" unicode="&#xaa;" horiz-adv-x="907" 
d="M393 745q90 0 156 30.5t90 86.5q0 -56 16 -96h152q-19 64 -19 117v454q0 130 -85.5 209.5t-243.5 79.5q-154 0 -238 -72t-90 -196h152q6 149 176 149q180 0 180 -168v-180q-26 59 -91.5 89t-158.5 30q-136 0 -218.5 -69t-82.5 -197q0 -129 82.5 -198t222.5 -69zM639 1012
q0 -71 -52.5 -110.5t-148.5 -39.5q-95 0 -146.5 39.5t-51.5 110.5t51.5 109t146.5 38q97 0 149 -38t52 -109zM76 494h758v127h-758v-127z" />
    <glyph glyph-name="_18155" unicode="&#xad;" horiz-adv-x="899" 
d="M113 674h675v151h-675v-151z" />
    <glyph glyph-name="_18156" unicode="&#xae;" horiz-adv-x="1024" 
d="M727 985q-18 59 -18 121q0 71 -50 98q60 34 60 121q0 76 -44.5 116t-131.5 40h-209v-496h106v176h109q28 0 40.5 -13t14.5 -42q4 -73 17 -121h106zM440 1249v144h95q75 0 75 -72q0 -35 -20.5 -53.5t-54.5 -18.5h-95zM512 770q180 0 305 127t125 324q0 196 -125 323
t-305 127t-305 -127t-125 -323q0 -197 125 -324t305 -127zM512 870q-138 0 -228.5 98.5t-90.5 252.5q0 153 91 251.5t228 98.5t228 -98.5t91 -251.5q0 -154 -90.5 -252.5t-228.5 -98.5z" />
    <glyph glyph-name="_138" unicode="&#xb0;" horiz-adv-x="819" 
d="M715 1317q0 136 -82.5 222.5t-222.5 86.5t-223 -86.5t-83 -222.5q0 -137 83 -223t223 -86t222.5 86t82.5 223zM588 1317q0 -87 -49.5 -139t-128.5 -52q-77 0 -127 52.5t-50 138.5q0 85 50.5 136.5t126.5 51.5q79 0 128.5 -51.5t49.5 -136.5z" />
    <glyph glyph-name="_130" unicode="&#xb1;" horiz-adv-x="1193" 
d="M113 850h405v-424h158v424h405v141h-405v426h-158v-426h-405v-141zM113 104h968v142h-968v-142z" />
    <glyph glyph-name="_843" unicode="&#xb2;" horiz-adv-x="839" 
d="M600 1300q0 -53 -16 -91t-52 -79l-423 -475v-112h641v133h-441l326 360q61 68 89 128t28 139q0 148 -90 235.5t-242 87.5q-155 0 -244.5 -87.5t-89.5 -235.5v-37h152v34q0 82 47 135.5t135 53.5q87 0 133.5 -53.5t46.5 -135.5z" />
    <glyph glyph-name="_844" unicode="&#xb3;" horiz-adv-x="839" 
d="M592 1329q0 -78 -47 -120t-125 -42h-92v-129h92q90 0 143 -50.5t53 -143.5q0 -85 -53.5 -139t-142.5 -54q-91 0 -145 55t-54 142v39h-151v-39q0 -140 91.5 -232t258.5 -92q162 0 255 91t93 227q0 208 -197 264q86 26 127 88.5t41 146.5q0 127 -87.5 206t-231.5 79
q-146 0 -235 -79.5t-89 -203.5v-32h150v20q0 76 46.5 121t127.5 45q79 0 125.5 -45.5t46.5 -122.5z" />
    <glyph glyph-name="_199" unicode="&#xb4;" horiz-adv-x="772" 
d="M600 1677h-194l-232 -370h156z" />
    <glyph glyph-name="_244" unicode="&#xb6;" 
d="M977 1608q-219 0 -344 -128.5t-125 -357.5v-16q0 -227 138.5 -359.5t357.5 -132.5h63v-913h123v1788h104v-1788h123v1907h-440z" />
    <glyph glyph-name="_18157" unicode="&#xb7;" horiz-adv-x="819" 
d="M506 993h-195v-243h195v243z" />
    <glyph glyph-name="_206" unicode="&#xb8;" horiz-adv-x="780" 
d="M135 -467q108 -76 240 -76q123 0 195.5 60t72.5 159q0 88 -61 144.5t-162 56.5h-37l63 125h-131l-92 -184l35 -39q37 16 92 16q73 0 113.5 -29.5t40.5 -84.5q0 -48 -34.5 -75.5t-104.5 -27.5q-100 0 -172 60z" />
    <glyph glyph-name="_842" unicode="&#xb9;" horiz-adv-x="839" 
d="M530 543v1065h-129l-247 -115v-135l225 106v-921h151z" />
    <glyph glyph-name="_675" unicode="&#xba;" horiz-adv-x="909" 
d="M819 1184q0 218 -92.5 330t-271.5 112t-272 -112t-93 -330q0 -219 93 -331t272 -112t271.5 112t92.5 331zM670 1184q0 -172 -52 -248t-163 -76t-163 76t-52 248q0 171 52 246t163 75t163 -75t52 -246zM76 494h758v127h-758v-127z" />
    <glyph glyph-name="_751" unicode="&#xbc;" 
d="M1288 348l322 500v-500h-322zM1868 348h-111v719h-166l-465 -731v-117h484v-217h147v217h111v129zM477 543v1065h-129l-248 -115v-135l226 106v-921h151zM1370 1608h-147l-785 -1606h148z" />
    <glyph glyph-name="_748" unicode="&#xbd;" 
d="M477 543v1065h-129l-248 -115v-135l226 106v-921h151zM1350 1608h-148l-784 -1606h147zM1694 760q0 -53 -16.5 -92.5t-53.5 -79.5l-422 -473v-113h641v131h-440l326 361q61 67 88.5 128t27.5 140q0 148 -90 235.5t-244 87.5q-153 0 -242 -87.5t-89 -235.5v-37h151v35
q0 81 46.5 134.5t133.5 53.5q88 0 135.5 -53.5t47.5 -134.5z" />
    <glyph glyph-name="_752" unicode="&#xbe;" 
d="M571 1329q0 -78 -47 -120t-125 -42h-92v-129h92q90 0 143.5 -50.5t53.5 -143.5q0 -85 -54 -139t-143 -54q-91 0 -144.5 54.5t-53.5 142.5v39h-152v-39q0 -140 91.5 -232t258.5 -92q162 0 255.5 91t93.5 227q0 208 -197 264q86 26 127 88.5t41 146.5q0 127 -88 206
t-232 79q-146 0 -234.5 -79t-88.5 -204v-32h149v20q0 76 46.5 121t127.5 45q79 0 125.5 -45.5t46.5 -122.5zM1462 1608h-147l-785 -1606h148zM1288 348l322 500v-500h-322zM1868 348h-111v719h-166l-465 -731v-117h484v-217h147v217h111v129z" />
    <glyph glyph-name="_209" unicode="&#xbf;" horiz-adv-x="1173" 
d="M135 -37q0 -197 120.5 -321.5t338.5 -124.5q215 0 335 124.5t120 321.5v6h-168q0 -135 -78.5 -219t-208.5 -84q-132 0 -210.5 81.5t-78.5 219.5q0 94 37 163t133 153q128 111 169.5 189.5t41.5 199.5v61h-168v-49q0 -95 -35.5 -157.5t-146.5 -157.5q-111 -97 -156 -186.5
t-45 -219.5zM514 928h176v221h-176v-221z" />
    <glyph glyph-name="_666" unicode="&#xc6;" horiz-adv-x="1984" 
d="M1892 2v156h-759v587h667v156h-667v551h749v156h-1030l-875 -1606h195l207 381h575v-381h938zM954 539h-491l491 907v-907z" />
    <glyph glyph-name="_667" unicode="&#xd0;" horiz-adv-x="1445" 
d="M20 870v-131h150v-737h561q104 0 189 22.5t146.5 62t108.5 98.5t76.5 125.5t48 150t26 166t7.5 178.5q0 95 -7.5 177.5t-26 166t-48.5 150.5t-77 125.5t-108.5 98.5t-146.5 62.5t-188 22.5h-561v-738h-150zM1155 805q0 -162 -21.5 -278t-71.5 -201t-135.5 -126.5
t-209.5 -41.5h-369v581h320v131h-320v582h369q99 0 173 -28t124.5 -79.5t82 -132.5t45 -180t13.5 -227z" />
    <glyph glyph-name="_131" unicode="&#xd7;" horiz-adv-x="1193" 
d="M928 307l104 103l-332 340l332 337l-104 103l-332 -338l-332 338l-104 -103l334 -337l-334 -340l104 -103l332 338z" />
    <glyph glyph-name="_673" unicode="&#xd8;" horiz-adv-x="1445" 
d="M307 -72l76 135q136 -88 338 -88q138 0 244 41.5t175 114t113 179.5t62 227.5t18 267.5q0 408 -143 610q-20 30 -25 35l131 231h-159l-76 -137q-134 90 -340 90q-138 0 -244 -42t-174.5 -115t-112 -180t-61.5 -226.5t-18 -265.5q0 -407 143 -612q3 -7 11.5 -18t10.5 -15
l-126 -232h157zM289 805q0 129 12.5 229t42.5 185.5t79 141.5t123.5 87t174.5 31q163 0 258 -80l-608 -1075q-82 155 -82 481zM1157 805q0 -129 -12.5 -229t-43 -185.5t-80 -141.5t-125 -87t-175.5 -31q-154 0 -256 76l608 1077q84 -167 84 -479z" />
    <glyph glyph-name="_676" unicode="&#xde;" horiz-adv-x="1331" 
d="M336 1608h-178v-1606h178v307h426q242 0 373 131.5t131 364.5t-131 364t-373 131h-426v308zM336 465v680h407q168 0 256 -89t88 -251t-88 -251t-256 -89h-407z" />
    <glyph glyph-name="_768" unicode="&#xdf;" horiz-adv-x="1302" 
d="M1231 403q0 92 -31 167t-84.5 123.5t-118 78t-137.5 39.5q133 28 212 126t79 232q0 96 -33 180t-95.5 147.5t-160.5 100.5t-219 37q-243 0 -375.5 -134t-132.5 -347v-1151h176v1151q0 151 88.5 238.5t243.5 87.5q151 0 240.5 -87t89.5 -227q0 -123 -77 -199.5t-243 -76.5
h-61v-156h47q191 0 303.5 -85.5t112.5 -237.5q0 -132 -85.5 -206.5t-238.5 -74.5q-103 0 -190 23v-154q82 -23 200 -23q228 0 359 114t131 314z" />
    <glyph glyph-name="_757" unicode="&#xe6;" horiz-adv-x="2000" 
d="M1688 340q-21 -107 -94.5 -165t-196.5 -58q-163 0 -246.5 105.5t-83.5 303.5h817q2 14 2 49q0 290 -123.5 445.5t-369.5 155.5q-282 0 -392 -218q-47 106 -149 162t-246 56q-208 0 -325 -97t-129 -264h172q11 103 81.5 161t200.5 58q142 0 216.5 -75.5t74.5 -208.5v-189
q-36 68 -127.5 106t-224.5 38q-202 0 -320.5 -98t-118.5 -267q0 -172 121.5 -268.5t343.5 -96.5q318 0 430 201q51 -99 155 -150t241 -51q195 0 314 96t149 269h-172zM897 340q0 -106 -79 -164.5t-232 -58.5q-152 0 -231 58.5t-79 164.5q0 104 79.5 162.5t230.5 58.5
q153 0 232 -58t79 -163zM1069 655q19 379 324 379q302 0 321 -379h-645z" />
    <glyph glyph-name="_759" unicode="&#xf0;" horiz-adv-x="1175" 
d="M442 1251l205 123q76 -58 129.5 -142.5t77.5 -176.5q-42 59 -118.5 90t-176.5 31q-224 0 -344.5 -152t-120.5 -449q0 -290 123.5 -445t370.5 -155q248 0 370.5 155.5t122.5 444.5q0 314 -67.5 528t-220.5 357l155 92l-57 93l-191 -115q-102 72 -258 133l-104 -123
q126 -49 211 -100l-164 -97zM262 575q0 224 77 341.5t249 117.5q171 0 247 -117.5t76 -341.5q0 -225 -76 -341.5t-247 -116.5q-172 0 -249 116.5t-77 341.5z" />
    <glyph glyph-name="_132" unicode="&#xf7;" horiz-adv-x="1193" 
d="M113 680h968v139h-968v-139zM686 1249h-180v-235h180v235zM686 483h-180v-233h180v233z" />
    <glyph glyph-name="_766" unicode="&#xf8;" horiz-adv-x="1175" 
d="M156 -86h147l57 104q93 -43 228 -43q247 0 371 155.5t124 444.5q0 329 -159 482l96 180h-148l-57 -107q-93 46 -227 46q-246 0 -370 -156t-124 -445q0 -331 158 -483zM913 575q0 -225 -76.5 -341.5t-248.5 -116.5q-84 0 -158 33l412 757q71 -109 71 -332zM264 575
q0 224 76 341.5t248 117.5q89 0 157 -35l-411 -755q-70 114 -70 331z" />
    <glyph glyph-name="_769" unicode="&#xfe;" horiz-adv-x="1216" 
d="M303 180q40 -95 129.5 -150t220.5 -55q227 0 348 152t121 448t-121 448.5t-348 152.5q-131 0 -221 -55t-129 -152v639h-168v-2104h168v676zM303 575q0 224 77 341.5t249 117.5q171 0 247 -117.5t76 -341.5q0 -225 -76 -341.5t-247 -116.5q-172 0 -249 116.5t-77 341.5z
" />
    <glyph glyph-name="_758" unicode="&#x111;" horiz-adv-x="1230" 
d="M911 969q-38 97 -127 152t-221 55q-228 0 -348.5 -152t-120.5 -449t120.5 -448.5t348.5 -151.5q131 0 220.5 55t127.5 150v-178h170v1319h131v131h-131v156h-170v-156h-342v-131h342v-352zM911 575q0 -225 -76 -341.5t-247 -116.5q-172 0 -249 116.5t-77 341.5
q0 224 77 341.5t249 117.5q171 0 247 -117.5t76 -341.5z" />
    <glyph glyph-name="_669" unicode="&#x126;" horiz-adv-x="1433" 
d="M20 1350v-131h152v-1217h178v743h733v-743h179v1217h151v131h-151v258h-179v-258h-733v258h-178v-258h-152zM350 903v316h733v-316h-733z" />
    <glyph glyph-name="_760" unicode="&#x127;" horiz-adv-x="1222" 
d="M1092 713q0 220 -104.5 341.5t-299.5 121.5q-142 0 -235 -61.5t-136 -168.5v375h342v131h-342v156h-167v-156h-132v-131h132v-1319h167v590q0 206 93 324t239 118q136 0 204.5 -86.5t68.5 -275.5v-670h170v711z" />
    <glyph glyph-name="_761" unicode="&#x131;" horiz-adv-x="462" 
d="M317 2v1147h-170v-1147h170z" />
    <glyph glyph-name="_670" unicode="&#x132;" horiz-adv-x="1691" 
d="M336 1608h-178v-1606h178v1606zM1055 129q-308 0 -314 375h-176v-10q0 -248 126.5 -383.5t361.5 -135.5q233 0 362 136t129 383v1114h-178v-1094q0 -192 -80.5 -288.5t-230.5 -96.5z" />
    <glyph glyph-name="_762" unicode="&#x133;" horiz-adv-x="952" 
d="M317 2v1147h-170v-1147h170zM317 1384v224h-170v-224h170zM807 1149h-170v-1329q0 -92 -40 -133t-122 -41h-67v-138q40 -4 81 -4q164 0 241 82t77 250v1313zM807 1384v224h-170v-224h170z" />
    <glyph glyph-name="_763" unicode="&#x138;" horiz-adv-x="1056" 
d="M305 2v528h129l412 -528h201l-467 598l413 549h-194l-363 -477h-131v477h-170v-1147h170z" />
    <glyph glyph-name="_671" unicode="&#x13f;" horiz-adv-x="1128" 
d="M158 2h938v154h-760v1452h-178v-1606zM838 965h-195v-199h195v199z" />
    <glyph glyph-name="_764" unicode="&#x140;" horiz-adv-x="675" 
d="M317 2v1606h-170v-1606h170zM655 965h-194v-199h194v199z" />
    <glyph glyph-name="_672" unicode="&#x141;" horiz-adv-x="1142" 
d="M33 526l137 72v-596h940v156h-762v534l434 228v147l-434 -227v768h-178v-863l-137 -71v-148z" />
    <glyph glyph-name="_765" unicode="&#x142;" horiz-adv-x="620" 
d="M41 733v-133l184 92v-690h170v780l185 95v133l-185 -97v695h-170v-783z" />
    <glyph glyph-name="_772" unicode="&#x149;" horiz-adv-x="1253" 
d="M1122 713q0 220 -104 341.5t-299 121.5q-141 0 -233.5 -61.5t-137.5 -168.5v203h-168v-1147h168v590q0 205 93.5 323.5t238.5 118.5q138 0 205 -86t67 -276v-670h170v711zM43 1370h82q0 -149 -105 -168v-90q102 19 151.5 76.5t49.5 165.5v254h-178v-238z" />
    <glyph glyph-name="_678" unicode="&#x14a;" horiz-adv-x="1427" 
d="M1092 -164q0 -92 -40.5 -135t-121.5 -43h-60v-150q40 -4 82 -4q164 0 241 83t77 251v1770h-178v-1293l-756 1293h-178v-1606h178v1290l756 -1294v-162z" />
    <glyph glyph-name="_771" unicode="&#x14b;" horiz-adv-x="1208" 
d="M907 -178q0 -92 -40.5 -134t-121.5 -42h-67v-135q35 -7 82 -7q164 0 240.5 82.5t76.5 251.5v875q0 220 -104 341.5t-299 121.5q-142 0 -235 -61.5t-136 -168.5v203h-168v-1147h168v590q0 206 93 324t239 118q138 0 205 -86t67 -276v-850z" />
    <glyph glyph-name="_674" unicode="&#x152;" horiz-adv-x="2103" 
d="M715 2h1296v156h-760v587h666v156h-666v551h750v156h-1286q-144 0 -252 -44t-173.5 -116.5t-106.5 -179.5t-55.5 -217.5t-14.5 -245.5q0 -136 14.5 -246.5t55 -217.5t106 -179t174 -116t252.5 -44zM289 805q0 128 14 227.5t45.5 180t82.5 132t126 79.5t174 28h342v-1294
h-342q-124 0 -210.5 41.5t-137 126t-72.5 201t-22 278.5z" />
    <glyph glyph-name="_767" unicode="&#x153;" horiz-adv-x="2029" 
d="M1012 934q-109 242 -412 242q-242 0 -365.5 -156t-123.5 -445q0 -290 123 -445t366 -155q145 0 251 60.5t161 177.5q116 -238 415 -238q195 0 314.5 96t150.5 269h-172q-46 -223 -290 -223q-323 0 -332 409h817q2 14 2 49q0 289 -124 445t-368 156q-301 0 -413 -242z
M279 575q0 224 76.5 341.5t248.5 117.5q171 0 247.5 -118t76.5 -341q0 -224 -76.5 -341t-247.5 -117q-172 0 -248.5 116.5t-76.5 341.5zM1100 655q19 379 323 379q306 0 322 -379h-645z" />
    <glyph glyph-name="_677" unicode="&#x166;" horiz-adv-x="1185" 
d="M246 756h258v-754h176v754h260v131h-260v565h471v156h-1118v-156h471v-565h-258v-131z" />
    <glyph glyph-name="_770" unicode="&#x167;" horiz-adv-x="800" 
d="M670 551v131h-277v326h334v141h-334v326h-170v-326h-170v-141h170v-326h-135v-131h135v-246q0 -178 85 -248.5t280 -70.5q96 0 139 4v137h-113q-121 0 -171 42.5t-50 162.5v219h277z" />
    <glyph glyph-name="_8275" unicode="&#x2bc;" horiz-adv-x="983" 
d="M184 1634q0 60 28.5 87.5t88.5 27.5q61 0 88 -27.5t27 -87.5q0 -298 -287 -356l-27 61q157 47 197 179q-59 0 -87 27.5t-28 88.5z" />
    <glyph glyph-name="_201" unicode="&#x2c7;" horiz-adv-x="800" 
d="M473 1307l281 370h-160l-195 -235l-194 235h-158l279 -370h147z" />
    <glyph glyph-name="_18158" unicode="&#x2d0;" horiz-adv-x="1024" 
d="M516 987l217 322h-442zM291 139h442l-217 320z" />
    <glyph glyph-name="_202" unicode="&#x2d8;" horiz-adv-x="796" 
d="M399 1317q151 0 240 89t98 251h-155q-9 -209 -183 -209q-175 0 -184 209h-156q9 -162 98 -251t242 -89z" />
    <glyph glyph-name="_205" unicode="&#x2d9;" horiz-adv-x="747" 
d="M471 1585h-195v-199h195v199z" />
    <glyph glyph-name="_204" unicode="&#x2da;" horiz-adv-x="780" 
d="M635 1491q0 110 -69 174t-175 64q-107 0 -176.5 -64t-69.5 -174t69.5 -175t176.5 -65q106 0 175 65t69 175zM506 1491q0 -58 -31 -91.5t-84 -33.5q-54 0 -85.5 33.5t-31.5 91.5t31.5 91.5t85.5 33.5q53 0 84 -33.5t31 -91.5z" />
    <glyph glyph-name="_207" unicode="&#x2db;" horiz-adv-x="780" 
d="M319 2q-84 -42 -133 -114.5t-49 -149.5v-14q0 -104 73.5 -164t199.5 -60q149 0 233 84l-63 97q-64 -58 -160 -58q-71 0 -108.5 32t-37.5 85v8q0 68 49 134t152 120h-156z" />
    <glyph glyph-name="_203" unicode="&#x2dd;" horiz-adv-x="800" 
d="M426 1677h-174l-211 -370h139zM760 1677h-174l-244 -370h139z" />
    <glyph glyph-name="_471" unicode="&#x391;" horiz-adv-x="1374" 
d="M584 1608l-564 -1606h187l129 381h700l129 -381h185l-562 1606h-204zM981 539h-594l299 884z" />
    <glyph glyph-name="_472" unicode="&#x392;" horiz-adv-x="1351" 
d="M336 905v547h369q171 0 254 -67t83 -207q0 -139 -83 -206t-254 -67h-369zM770 2q496 0 496 442q0 158 -78 261t-223 129q118 27 186 119.5t68 236.5q0 203 -121 310.5t-355 107.5h-585v-1606h612zM1087 453q0 -151 -84 -224t-274 -73h-393v594h393q190 0 274 -72.5
t84 -224.5z" />
    <glyph glyph-name="_473" unicode="&#x393;" horiz-adv-x="1099" 
d="M158 1608v-1606h178v1450h741v156h-919z" />
    <glyph glyph-name="_474" unicode="&#x394;" horiz-adv-x="1374" 
d="M584 1608l-564 -1606h1330l-562 1606h-204zM1112 158h-854l428 1265z" />
    <glyph glyph-name="_475" unicode="&#x395;" horiz-adv-x="1185" 
d="M158 2h938v154h-760v589h665v158h-665v549h747v156h-925v-1606z" />
    <glyph glyph-name="_476" unicode="&#x396;" horiz-adv-x="1204" 
d="M90 143v-141h1022v154h-809l799 1310v142h-989v-156h776z" />
    <glyph glyph-name="_477" unicode="&#x397;" horiz-adv-x="1404" 
d="M1069 2h178v1606h-178v-705h-733v705h-178v-1606h178v743h733v-743z" />
    <glyph glyph-name="_478" unicode="&#x398;" horiz-adv-x="1445" 
d="M1333 805q0 145 -17 263.5t-60 226t-111.5 180.5t-175.5 116t-248 43q-139 0 -245.5 -43t-174.5 -116.5t-111.5 -181t-61 -226t-17.5 -262.5q0 -145 17.5 -264.5t61 -227t112 -180.5t175 -115.5t244.5 -42.5q140 0 246.5 42.5t175 115t112 180t61 227t17.5 265.5z
M1157 805q0 -162 -21 -281t-70 -210t-135 -137t-210 -46q-99 0 -173.5 30.5t-123.5 86t-79.5 141t-43 186t-12.5 230.5q0 129 12.5 229.5t43.5 186t79.5 141t123 86.5t173.5 31t174 -31t124.5 -87t80.5 -141.5t44 -186t13 -228.5zM473 727h498v154h-498v-154z" />
    <glyph glyph-name="_479" unicode="&#x399;" horiz-adv-x="493" 
d="M336 1608h-178v-1606h178v1606z" />
    <glyph glyph-name="_480" unicode="&#x39a;" horiz-adv-x="1290" 
d="M1225 1608h-201l-496 -705h-192v705h-178v-1606h178v743h192l562 -743h206l-626 821z" />
    <glyph glyph-name="_481" unicode="&#x39b;" horiz-adv-x="1374" 
d="M1165 2h185l-562 1606h-204l-564 -1606h187l479 1421z" />
    <glyph glyph-name="_482" unicode="&#x39c;" horiz-adv-x="1886" 
d="M1038 2l512 1229v-1229h179v1606h-199l-588 -1405l-586 1405h-198v-1606h178v1229l512 -1229h190z" />
    <glyph glyph-name="_483" unicode="&#x39d;" horiz-adv-x="1427" 
d="M1270 2v1606h-178v-1282l-756 1282h-178v-1606h178v1282l756 -1282h178z" />
    <glyph glyph-name="_484" unicode="&#x39e;" horiz-adv-x="1265" 
d="M102 1452h1061v156h-1061v-156zM90 2h1084v154h-1084v-154zM184 745h897v158h-897v-158z" />
    <glyph glyph-name="_485" unicode="&#x39f;" horiz-adv-x="1445" 
d="M1333 805q0 145 -17 263.5t-60 226t-111.5 180.5t-175.5 116t-248 43q-139 0 -245.5 -43t-174.5 -116.5t-111.5 -181t-61 -226t-17.5 -262.5q0 -145 17.5 -264.5t61 -227t112 -180.5t175 -115.5t244.5 -42.5q140 0 246.5 42.5t175 115t112 180t61 227t17.5 265.5z
M1157 805q0 -162 -21 -281t-70 -210t-135 -137t-210 -46q-99 0 -173.5 30.5t-123.5 86t-79.5 141t-43 186t-12.5 230.5q0 129 12.5 229.5t43.5 186t79.5 141t123 86.5t173.5 31t174 -31t124.5 -87t80.5 -141.5t44 -186t13 -228.5z" />
    <glyph glyph-name="_486" unicode="&#x3a0;" horiz-adv-x="1404" 
d="M1069 2h178v1606h-1089v-1606h178v1450h733v-1450z" />
    <glyph glyph-name="_487" unicode="&#x3a1;" horiz-adv-x="1331" 
d="M336 772v680h407q168 0 256 -89t88 -251q0 -161 -88 -250.5t-256 -89.5h-407zM762 616q242 0 373 131.5t131 364.5t-131 364.5t-373 131.5h-604v-1606h178v614h426z" />
    <glyph glyph-name="_488" unicode="&#x3a3;" horiz-adv-x="1171" 
d="M113 160v-158h981v154h-775l392 641v63l-387 592h770v156h-981v-158l409 -621z" />
    <glyph glyph-name="_489" unicode="&#x3a4;" horiz-adv-x="1185" 
d="M35 1452h469v-1450h178v1450h469v156h-1116v-156z" />
    <glyph glyph-name="_490" unicode="&#x3a5;" horiz-adv-x="1351" 
d="M674 807l-451 801h-188l551 -973v-633h178v633l553 973h-189z" />
    <glyph glyph-name="_491" unicode="&#x3a6;" horiz-adv-x="1638" 
d="M907 1608h-176v-242q-148 -5 -265.5 -41t-204 -103.5t-133 -173t-46.5 -243.5q0 -139 46.5 -244.5t133 -173t204 -103t265.5 -40.5v-242h176v242q148 5 265.5 40.5t205 102.5t134.5 173t47 245q0 138 -47 243.5t-134.5 173t-205 103.5t-265.5 41v242zM258 805
q0 199 126 299t347 108v-817q-221 8 -347 108.5t-126 301.5zM907 1212q221 -8 346 -108t125 -299q0 -201 -125 -301.5t-346 -108.5v817z" />
    <glyph glyph-name="_492" unicode="&#x3a7;" horiz-adv-x="1347" 
d="M1114 2h195l-527 823l498 783h-193l-413 -654l-412 654h-192l493 -783l-526 -823h196l441 694z" />
    <glyph glyph-name="_493" unicode="&#x3a8;" horiz-adv-x="1546" 
d="M684 1608v-1100q-371 43 -371 471v629h-178v-647q0 -261 142 -423.5t407 -185.5v-350h176v350q265 23 407 185.5t142 423.5v647h-176v-629q0 -427 -373 -471v1100h-176z" />
    <glyph glyph-name="_494" unicode="&#x3a9;" horiz-adv-x="1445" 
d="M723 1634q-308 0 -457 -200q-153 -202 -153 -611q0 -257 74.5 -430t226.5 -237h-264v-154h479v154q-94 29 -160.5 86.5t-105.5 142t-56.5 187t-17.5 233.5q0 193 28 322.5t91 215.5q111 136 315 136q209 0 313 -136q65 -86 93 -215.5t28 -322.5q0 -130 -17.5 -233
t-57 -187.5t-106 -142t-159.5 -86.5v-154h479v154h-264q152 64 226.5 237t74.5 430q0 409 -153 611q-149 200 -457 200z" />
    <glyph glyph-name="_495" unicode="&#x3b1;" horiz-adv-x="1239" 
d="M913 182q5 -99 54 -147.5t155 -48.5q40 0 80 4v139h-35q-48 0 -66 20.5t-18 77.5v922h-170v-180q-38 96 -128 151.5t-222 55.5q-227 0 -348 -152.5t-121 -448.5q0 -297 121 -448.5t348 -151.5q132 0 222 55.5t128 151.5zM913 575q0 -225 -76.5 -341.5t-248.5 -116.5
t-248 116.5t-76 341.5q0 224 76 341.5t248 117.5t248.5 -117.5t76.5 -341.5z" />
    <glyph glyph-name="_496" unicode="&#x3b2;" horiz-adv-x="1243" 
d="M1096 1184q0 202 -127 326t-355 124q-227 0 -353 -125t-126 -333v-1672h170v668q49 -96 145 -146.5t226 -50.5q225 0 356 125t131 340q0 168 -93.5 275t-244.5 131q127 29 199 121t72 217zM926 1178q0 -115 -75.5 -187.5t-217.5 -72.5h-64v-142h64q169 0 264.5 -91
t95.5 -236q0 -154 -90 -243t-254 -89q-165 0 -254.5 95t-89.5 259v700q0 151 81.5 236.5t227.5 85.5t229 -84t83 -231z" />
    <glyph glyph-name="_497" unicode="&#x3b3;" horiz-adv-x="1144" 
d="M657 -496v488l451 1157h-180l-357 -940l-354 940h-180l450 -1155v-490h170z" />
    <glyph glyph-name="_498" unicode="&#x3b4;" horiz-adv-x="1175" 
d="M440 1464h555v144h-792v-144l372 -303q-10 2 -32 2q-218 0 -333.5 -158t-115.5 -430q0 -290 123.5 -445t370.5 -155t370 154.5t123 445.5q0 353 -186 508zM262 575q0 224 77 341.5t249 117.5q171 0 247 -117.5t76 -341.5q0 -225 -76 -341.5t-247 -116.5
q-172 0 -249 116.5t-77 341.5z" />
    <glyph glyph-name="_499" unicode="&#x3b5;" horiz-adv-x="1083" 
d="M551 659q-129 0 -196.5 52t-67.5 137t68 135.5t196 50.5t197 -51t69 -135v-23h170v23q0 145 -113 236.5t-323 91.5q-209 0 -321.5 -90.5t-112.5 -231.5q0 -98 61.5 -171t161.5 -95q-113 -19 -181.5 -93.5t-68.5 -187.5q0 -153 124.5 -242.5t344.5 -89.5q216 0 341.5 92
t125.5 246v13h-170v-9q0 -94 -81 -147t-216 -53q-138 0 -218.5 51t-80.5 147q0 97 81 150t218 53h150v141h-158z" />
    <glyph glyph-name="_500" unicode="&#x3b6;" horiz-adv-x="1001" 
d="M844 109q-216 0 -347 41.5t-186 119t-55 201.5q0 281 180 542t500 447v148h-733v-142h514q-285 -174 -458 -443.5t-173 -561.5q0 -236 167.5 -361.5t514.5 -124.5q-17 -134 -129 -331l127 -39q76 112 123 227.5t47 196.5q0 45 -19.5 62.5t-72.5 17.5z" />
    <glyph glyph-name="_501" unicode="&#x3b7;" horiz-adv-x="1208" 
d="M303 2v508q0 256 84.5 390t255.5 134q131 0 197.5 -102.5t66.5 -288.5v-1139h170v1209q0 221 -103.5 342t-293.5 121q-140 0 -237.5 -71t-139.5 -198v242h-168v-1147h168z" />
    <glyph glyph-name="_502" unicode="&#x3b8;" horiz-adv-x="1284" 
d="M1176 805q0 231 -33 391t-101.5 256.5t-165.5 139t-233 42.5q-109 0 -192.5 -26.5t-149 -86.5t-107.5 -156t-63.5 -235.5t-21.5 -324.5q0 -231 33 -391.5t101.5 -257t165.5 -139t234 -42.5q136 0 233 42.5t165.5 139t101.5 257t33 391.5zM643 1493q84 0 147 -30.5
t102.5 -82.5t64.5 -132.5t35.5 -169t13.5 -204.5h-727q2 115 12.5 204t35.5 169.5t65 132.5t103 82.5t148 30.5zM643 117q-85 0 -148 30.5t-103 82t-65 132t-35.5 169.5t-12.5 204h727q-3 -116 -13.5 -204.5t-35.5 -169t-64.5 -132t-102.5 -82t-147 -30.5z" />
    <glyph glyph-name="_503" unicode="&#x3b9;" horiz-adv-x="489" 
d="M305 1149h-170v-940q0 -121 48 -172t163 -51q34 0 80 4v139h-33q-51 0 -69.5 20.5t-18.5 77.5v922z" />
    <glyph glyph-name="_504" unicode="&#x3ba;" horiz-adv-x="1056" 
d="M305 2v528h129l412 -528h201l-467 598l413 549h-194l-363 -477h-131v477h-170v-1147h170z" />
    <glyph glyph-name="_505" unicode="&#x3bb;" horiz-adv-x="1097" 
d="M463 1139l-451 -1137h178l361 922l356 -922h180l-555 1405q-53 136 -123.5 181.5t-195.5 45.5q-51 0 -74 -2v-139h60q69 0 110 -28t70 -109z" />
    <glyph glyph-name="_506" unicode="&#x3bc;" horiz-adv-x="1212" 
d="M567 -25q124 0 211 60.5t131 169.5v-203h168v1147h-168v-606q-3 -198 -99.5 -312t-240.5 -114q-129 0 -196.5 82t-67.5 237v713h-170v-1645h170v633q31 -77 99 -119.5t163 -42.5z" />
    <glyph glyph-name="_507" unicode="&#x3bd;" horiz-adv-x="1146" 
d="M672 2l438 1147h-180l-357 -952l-356 952h-180l438 -1147h197z" />
    <glyph glyph-name="_508" unicode="&#x3be;" horiz-adv-x="1050" 
d="M981 29q0 45 -19 62.5t-73 17.5q-314 3 -473.5 100t-159.5 280q0 109 54.5 199.5t142.5 140.5t186 50h123v141h-180q-112 0 -183 62.5t-71 172.5q0 112 63.5 175t183.5 63q113 0 177.5 -56t72.5 -149h170q-6 151 -113 248.5t-307 97.5q-103 0 -183.5 -28t-131 -78
t-76.5 -116t-26 -144q0 -130 75.5 -215.5t200.5 -112.5q-159 -58 -253.5 -178t-94.5 -289q0 -234 194 -366t535 -132q-19 -133 -129 -331l127 -39q76 111 122 227t46 197z" />
    <glyph glyph-name="_509" unicode="&#x3bf;" horiz-adv-x="1175" 
d="M1083 575q0 289 -124 445t-371 156q-246 0 -370 -156t-124 -445t124 -444.5t370 -155.5q247 0 371 155.5t124 444.5zM913 575q0 -225 -76.5 -341.5t-248.5 -116.5t-248 116.5t-76 341.5q0 224 76 341.5t248 117.5t248.5 -117.5t76.5 -341.5z" />
    <glyph glyph-name="_510" unicode="&#x3c0;" horiz-adv-x="1234" 
d="M403 1008h426v-1006h170v1006h181v141h-1125v-141h178v-1006h170v1006z" />
    <glyph glyph-name="_511" unicode="&#x3c1;" horiz-adv-x="1193" 
d="M281 575q0 224 76 341.5t247 117.5q172 0 249 -117.5t77 -341.5q0 -225 -77 -341.5t-249 -116.5q-171 0 -247 116.5t-76 341.5zM281 180q38 -95 128 -150t220 -55q228 0 349.5 152t121.5 448q0 290 -124 445.5t-372 155.5q-245 0 -369 -156t-124 -445v-1071h170v676z" />
    <glyph glyph-name="_512" unicode="&#x3c3;" horiz-adv-x="1193" 
d="M588 -25q244 0 369.5 153.5t125.5 432.5q0 176 -56.5 291.5t-156.5 155.5h277v141h-559q-244 0 -369 -154t-125 -434q0 -279 125.5 -432.5t368.5 -153.5zM913 561q0 -444 -325 -444q-324 0 -324 444q0 447 324 447q325 0 325 -447z" />
    <glyph glyph-name="_513" unicode="&#x3c4;" horiz-adv-x="1015" 
d="M971 1149h-936v-141h368v-744q0 -155 56 -216.5t209 -61.5q62 0 100 6v135h-72q-71 0 -97 25.5t-26 103.5v752h398v141z" />
    <glyph glyph-name="_514" unicode="&#x3c5;" horiz-adv-x="1185" 
d="M594 -25q224 0 346.5 117t122.5 348v709h-170v-707q0 -166 -77.5 -245.5t-221.5 -79.5q-301 0 -301 325v707h-170v-709q0 -231 123 -348t348 -117z" />
    <glyph glyph-name="_515" unicode="&#x3c6;" horiz-adv-x="1564" 
d="M1305 561q0 -245 -99 -344.5t-338 -99.5v891q240 -3 338.5 -101.5t98.5 -345.5zM1473 561q0 299 -142.5 443t-468.5 145h-164v-1032q-239 0 -337.5 99.5t-98.5 344.5q0 197 59 294t185 130l-27 141q-203 -44 -295 -181t-92 -384q0 -147 32.5 -253.5t104 -181t187.5 -112
t282 -39.5v-471h170v471q166 2 282 39.5t187 112t103.5 180.5t32.5 254z" />
    <glyph glyph-name="_516" unicode="&#x3c7;" horiz-adv-x="1114" 
d="M922 -496h182l-445 842l422 803h-182l-342 -657l-342 657h-182l422 -803l-445 -842h183l364 695z" />
    <glyph glyph-name="_517" unicode="&#x3c8;" horiz-adv-x="1484" 
d="M657 1149v-1026q-171 9 -267.5 100t-96.5 254v672h-170v-674q0 -224 141.5 -353.5t392.5 -144.5v-473h168v473q252 15 394.5 144t142.5 354v674h-170v-672q0 -163 -97.5 -254t-269.5 -100v1026h-168z" />
    <glyph glyph-name="_518" unicode="&#x3c9;" horiz-adv-x="1703" 
d="M768 924v-432q0 -375 -244 -375q-124 0 -188 102t-64 330q0 270 119 600h-170q-119 -322 -119 -610q0 -564 410 -564q131 0 220 62t120 176q31 -114 120 -176t220 -62q410 0 410 564q0 288 -119 610h-170q119 -330 119 -600q0 -228 -64 -330t-190 -102q-242 0 -242 375
v432h-168z" />
    <glyph glyph-name="_1026" unicode="&#x401;" horiz-adv-x="1185" 
d="M158 2h938v154h-760v589h665v158h-665v549h747v156h-925v-1606zM520 2030h-192v-199h192v199zM909 2030h-194v-199h194v199z" />
    <glyph glyph-name="_1020" unicode="&#x410;" horiz-adv-x="1374" 
d="M584 1608l-564 -1606h187l129 381h700l129 -381h185l-562 1606h-204zM981 539h-594l299 884z" />
    <glyph glyph-name="_1021" unicode="&#x411;" horiz-adv-x="1284" 
d="M715 2q236 0 364.5 119t128.5 354q0 234 -128.5 352.5t-364.5 118.5h-379v506h776v156h-954v-1606h557zM1030 475q0 -319 -342 -319h-352v635h352q342 0 342 -316z" />
    <glyph glyph-name="_1022" unicode="&#x412;" horiz-adv-x="1351" 
d="M336 905v547h369q171 0 254 -67t83 -207q0 -139 -83 -206t-254 -67h-369zM770 2q496 0 496 442q0 158 -78 261t-223 129q118 27 186 119.5t68 236.5q0 203 -121 310.5t-355 107.5h-585v-1606h612zM1087 453q0 -151 -84 -224t-274 -73h-393v594h393q190 0 274 -72.5
t84 -224.5z" />
    <glyph glyph-name="_1023" unicode="&#x413;" horiz-adv-x="1099" 
d="M158 1608v-1606h178v1450h741v156h-919z" />
    <glyph glyph-name="_1024" unicode="&#x414;" horiz-adv-x="1419" 
d="M436 1452h596v-1296h-665q69 308 69 731v565zM258 901q0 -432 -78 -745h-149v-428h176v274h989v-274h176v428h-162v1452h-952v-707z" />
    <glyph glyph-name="_1025" unicode="&#x415;" horiz-adv-x="1185" 
d="M158 2h938v154h-760v589h665v158h-665v549h747v156h-925v-1606z" />
    <glyph glyph-name="_1027" unicode="&#x416;" horiz-adv-x="1957" 
d="M891 1608v-705h-197l-415 705h-193l465 -783l-535 -823h197l481 743h197v-743h176v743h197l479 -743h201l-535 823l463 783h-193l-415 -705h-197v705h-176z" />
    <glyph glyph-name="_1028" unicode="&#x417;" horiz-adv-x="1265" 
d="M436 930v-154h187q165 0 266.5 -88t101.5 -237q0 -145 -99.5 -233.5t-264.5 -88.5q-164 0 -263.5 88.5t-99.5 233.5v26h-176v-33q0 -210 147 -339.5t392 -129.5q246 0 393 129t147 340q0 158 -88.5 268t-240.5 142q127 30 204.5 125.5t77.5 237.5q0 179 -131 298
t-362 119q-115 0 -209 -33t-155.5 -90t-94.5 -132.5t-33 -161.5v-33h178v20q0 122 84.5 198.5t229.5 76.5t230 -77t85 -198q0 -127 -84 -200.5t-235 -73.5h-187z" />
    <glyph glyph-name="_1029" unicode="&#x418;" horiz-adv-x="1427" 
d="M336 2l756 1280v-1280h178v1606h-180l-756 -1282v1282h-178v-1606h180z" />
    <glyph glyph-name="_1030" unicode="&#x419;" horiz-adv-x="1427" 
d="M336 2l756 1280v-1280h178v1606h-180l-756 -1282v1282h-178v-1606h180zM713 1757q153 0 242 89t98 251h-156q-9 -209 -184 -209q-176 0 -185 209h-153q7 -162 96.5 -251t241.5 -89z" />
    <glyph glyph-name="_1031" unicode="&#x41a;" horiz-adv-x="1290" 
d="M1225 1608h-201l-496 -705h-192v705h-178v-1606h178v743h192l562 -743h206l-626 821z" />
    <glyph glyph-name="_1032" unicode="&#x41b;" horiz-adv-x="1478" 
d="M244 303q0 -93 -35 -128.5t-119 -35.5h-65v-149q27 -4 94 -4q163 0 233 67.5t70 245.5v1153h721v-1450h178v1606h-1077v-1305z" />
    <glyph glyph-name="_1033" unicode="&#x41c;" horiz-adv-x="1886" 
d="M1038 2l512 1229v-1229h179v1606h-199l-588 -1405l-586 1405h-198v-1606h178v1229l512 -1229h190z" />
    <glyph glyph-name="_1034" unicode="&#x41d;" horiz-adv-x="1404" 
d="M1069 2h178v1606h-178v-705h-733v705h-178v-1606h178v743h733v-743z" />
    <glyph glyph-name="_1035" unicode="&#x41e;" horiz-adv-x="1445" 
d="M1333 805q0 145 -17 263.5t-60 226t-111.5 180.5t-175.5 116t-248 43q-139 0 -245.5 -43t-174.5 -116.5t-111.5 -181t-61 -226t-17.5 -262.5q0 -145 17.5 -264.5t61 -227t112 -180.5t175 -115.5t244.5 -42.5q140 0 246.5 42.5t175 115t112 180t61 227t17.5 265.5z
M1157 805q0 -162 -21 -281t-70 -210t-135 -137t-210 -46q-99 0 -173.5 30.5t-123.5 86t-79.5 141t-43 186t-12.5 230.5q0 129 12.5 229.5t43.5 186t79.5 141t123 86.5t173.5 31t174 -31t124.5 -87t80.5 -141.5t44 -186t13 -228.5z" />
    <glyph glyph-name="_1036" unicode="&#x41f;" horiz-adv-x="1404" 
d="M1069 2h178v1606h-1089v-1606h178v1450h733v-1450z" />
    <glyph glyph-name="_1037" unicode="&#x420;" horiz-adv-x="1331" 
d="M336 772v680h407q168 0 256 -89t88 -251q0 -161 -88 -250.5t-256 -89.5h-407zM762 616q242 0 373 131.5t131 364.5t-131 364.5t-373 131.5h-604v-1606h178v614h426z" />
    <glyph glyph-name="_1038" unicode="&#x421;" horiz-adv-x="1419" 
d="M721 -25q269 0 424 149t170 404h-176q-14 -188 -121 -292.5t-297 -104.5q-120 0 -204.5 44.5t-134 133.5t-71.5 210t-22 286q0 129 12.5 229t42.5 185.5t79 141.5t123.5 87t174.5 31q190 0 297 -106t121 -294h176q-15 256 -170 405.5t-424 149.5q-610 0 -610 -829
q0 -145 17.5 -264.5t61 -227t111.5 -180.5t174.5 -115.5t245.5 -42.5z" />
    <glyph glyph-name="_1039" unicode="&#x422;" horiz-adv-x="1185" 
d="M35 1452h469v-1450h178v1450h469v156h-1116v-156z" />
    <glyph glyph-name="_1040" unicode="&#x423;" horiz-adv-x="1320" 
d="M502 262q-27 -60 -59.5 -83t-84.5 -23h-73v-152q27 -2 94 -2q117 0 180.5 47t120.5 176l616 1383h-186l-438 -975l-447 975h-184l539 -1178z" />
    <glyph glyph-name="_1041" unicode="&#x424;" horiz-adv-x="1638" 
d="M907 1608h-176v-242q-148 -5 -265.5 -41t-204 -103.5t-133 -173t-46.5 -243.5q0 -139 46.5 -244.5t133 -173t204 -103t265.5 -40.5v-242h176v242q148 5 265.5 40.5t205 102.5t134.5 173t47 245q0 138 -47 243.5t-134.5 173t-205 103.5t-265.5 41v242zM258 805
q0 199 126 299t347 108v-817q-221 8 -347 108.5t-126 301.5zM907 1212q221 -8 346 -108t125 -299q0 -201 -125 -301.5t-346 -108.5v817z" />
    <glyph glyph-name="_1042" unicode="&#x425;" horiz-adv-x="1347" 
d="M1114 2h195l-527 823l498 783h-193l-413 -654l-412 654h-192l493 -783l-526 -823h196l441 694z" />
    <glyph glyph-name="_1043" unicode="&#x426;" horiz-adv-x="1456" 
d="M1247 156v1452h-178v-1452h-733v1452h-178v-1606h1075v-274h176v428h-162z" />
    <glyph glyph-name="_1044" unicode="&#x427;" horiz-adv-x="1355" 
d="M1022 2h176v1606h-176v-772q-76 -62 -180.5 -98t-216.5 -36q-161 0 -236.5 80.5t-75.5 261.5v564h-176v-580q0 -246 113 -362.5t348 -116.5q124 0 237 34.5t187 94.5v-676z" />
    <glyph glyph-name="_1045" unicode="&#x428;" horiz-adv-x="2146" 
d="M1810 156h-649v1452h-176v-1452h-649v1452h-178v-1606h1831v1606h-179v-1452z" />
    <glyph glyph-name="_1046" unicode="&#x429;" horiz-adv-x="2197" 
d="M1974 2v-274h176v430h-161v1450h-179v-1450h-649v1450h-178v-1450h-649v1450h-178v-1606h1818z" />
    <glyph glyph-name="_1047" unicode="&#x42a;" horiz-adv-x="1564" 
d="M995 2q236 0 365 119t129 354q0 234 -129 352.5t-365 118.5h-379v662h-581v-156h403v-1450h557zM1311 475q0 -319 -342 -319h-353v635h353q342 0 342 -316z" />
    <glyph glyph-name="_1048" unicode="&#x42b;" horiz-adv-x="1728" 
d="M1573 1608h-178v-1606h178v1606zM715 2q236 0 364.5 119t128.5 354q0 234 -128.5 352.5t-364.5 118.5h-379v662h-178v-1606h557zM1030 475q0 -319 -342 -319h-352v635h352q342 0 342 -316z" />
    <glyph glyph-name="_1049" unicode="&#x42c;" horiz-adv-x="1284" 
d="M715 2q236 0 364.5 119t128.5 354q0 234 -128.5 352.5t-364.5 118.5h-379v662h-178v-1606h557zM1030 475q0 -319 -342 -319h-352v635h352q342 0 342 -316z" />
    <glyph glyph-name="_1050" unicode="&#x42d;" horiz-adv-x="1419" 
d="M694 -25q140 0 248 43.5t176 117t111.5 181.5t60.5 226.5t17 261.5q0 829 -613 829q-267 0 -422 -150t-170 -405h177q14 188 120 294t295 106q115 0 197.5 -40t132.5 -120t74.5 -186.5t29.5 -251.5h-544v-156h544q-5 -144 -29.5 -250t-74.5 -185t-132.5 -119t-197.5 -40
q-189 0 -295 104.5t-120 292.5h-177q15 -255 170 -404t422 -149z" />
    <glyph glyph-name="_1051" unicode="&#x42e;" horiz-adv-x="1857" 
d="M1745 805q0 144 -17.5 263t-60.5 226.5t-111 180.5t-175 116t-246 43q-586 0 -611 -753h-190v727h-178v-1606h178v723h190q24 -750 611 -750q138 0 244.5 42.5t175 115t112 180t61 227t17.5 265.5zM1569 805q0 -129 -12.5 -229.5t-43.5 -186t-80 -141t-124 -86.5
t-174 -31q-100 0 -175 30.5t-124.5 86t-80 141t-43 186t-12.5 230.5q0 163 21 281.5t69.5 209.5t134.5 137t210 46q99 0 173.5 -31t123.5 -87t80 -141.5t44 -186t13 -228.5z" />
    <glyph glyph-name="_1052" unicode="&#x42f;" horiz-adv-x="1378" 
d="M281 2q7 21 12.5 49.5t9.5 74t6 69.5t5.5 86.5t4.5 76.5q9 152 82.5 214.5t255.5 62.5h385v-633h179v1606h-607q-249 0 -376 -125t-127 -353q0 -164 72.5 -270.5t217.5 -144.5q-39 -7 -70 -19t-55.5 -26.5t-43.5 -37.5t-33 -46t-24.5 -60t-17.5 -70t-12.5 -84.5
t-8.5 -96.5t-7 -113q-6 -91 -29 -160h181zM637 791q-170 0 -258 82.5t-88 246.5q0 166 88 249t258 83h405v-661h-405z" />
    <glyph glyph-name="_1053" unicode="&#x430;" horiz-adv-x="1173" 
d="M879 123q0 -69 22 -121h172q-26 76 -26 158v590q0 199 -117.5 312.5t-341.5 113.5q-209 0 -326 -96t-131 -263h174q11 102 81.5 159.5t201.5 57.5q142 0 216.5 -75t74.5 -207v-195q-37 71 -127.5 109.5t-223.5 38.5q-205 0 -323.5 -97.5t-118.5 -267.5q0 -171 118.5 -268
t323.5 -97q135 0 225 38.5t126 109.5zM879 340q0 -106 -79.5 -164.5t-232.5 -58.5t-232 58.5t-79 164.5q0 105 79.5 164t231.5 59t232 -59t80 -164z" />
    <glyph glyph-name="_1054" unicode="&#x431;" horiz-adv-x="1187" 
d="M274 971q3 65 6 108t12.5 88t18.5 72.5t31 57t43 46.5t62.5 37t81 31.5t106.5 26.5t131 26t162 27l-51 143q-62 -13 -178.5 -33t-159.5 -28q-97 -20 -163 -45.5t-116.5 -70.5t-79 -100.5t-46.5 -146.5t-24 -195.5t-6 -260.5q0 -248 23.5 -380.5t87.5 -221.5
q123 -177 383 -177q249 0 371.5 154.5t122.5 445.5q0 296 -119.5 448.5t-341.5 152.5q-135 0 -226.5 -56t-130.5 -149zM924 575q0 -225 -77 -341.5t-249 -116.5q-171 0 -247.5 117t-76.5 341q0 223 76.5 341t247.5 118q172 0 249 -117.5t77 -341.5z" />
    <glyph glyph-name="_1055" unicode="&#x432;" horiz-adv-x="1110" 
d="M643 2q387 0 387 317q0 222 -207 273q181 54 181 250q0 307 -383 307h-486v-1147h508zM305 655v353h301q120 0 175 -42.5t55 -134.5q0 -93 -54.5 -134.5t-175.5 -41.5h-301zM860 330q0 -101 -60 -144t-179 -43h-316v373h316q120 0 179.5 -42t59.5 -144z" />
    <glyph glyph-name="_1056" unicode="&#x433;" horiz-adv-x="890" 
d="M852 1008v141h-717v-1147h170v1006h547z" />
    <glyph glyph-name="_1057" unicode="&#x434;" horiz-adv-x="1161" 
d="M369 1008h446v-865h-489q43 211 43 559v306zM201 694q0 -330 -49 -551h-127v-393h168v252h759v-252h170v393h-137v1006h-784v-455z" />
    <glyph glyph-name="_1058" unicode="&#x435;" horiz-adv-x="1175" 
d="M883 340q-18 -100 -95.5 -161.5t-195.5 -61.5q-321 0 -330 409h819v49q0 290 -123.5 445.5t-369.5 155.5t-370 -156t-124 -445q0 -291 124 -445.5t374 -154.5q195 0 314.5 96t150.5 269h-174zM264 655q19 379 324 379q302 0 321 -379h-645z" />
    <glyph glyph-name="_1060" unicode="&#x436;" horiz-adv-x="1574" 
d="M702 1149v-481h-155l-293 481h-180l340 -551l-394 -596h187l340 526h155v-526h170v526h154l342 -526h186l-393 596l340 551h-182l-291 -481h-156v481h-170z" />
    <glyph glyph-name="_1061" unicode="&#x437;" horiz-adv-x="1095" 
d="M387 659v-141h150q137 0 218 -53t81 -150q0 -96 -80.5 -147t-218.5 -51q-135 0 -216 53t-81 147v9h-170v-13q0 -154 125.5 -246t341.5 -92q220 0 344.5 89.5t124.5 242.5q0 113 -69.5 187.5t-182.5 93.5q100 22 162.5 95t62.5 171q0 141 -112.5 231.5t-321.5 90.5
q-210 0 -323 -91.5t-113 -236.5v-23h170v23q0 84 69 135t197 51t196 -50.5t68 -135.5t-68 -137t-196 -52h-158z" />
    <glyph glyph-name="_1062" unicode="&#x438;" horiz-adv-x="1165" 
d="M864 1149l-559 -868v868h-170v-1147h168l559 868v-868h168v1147h-166z" />
    <glyph glyph-name="_1063" unicode="&#x439;" horiz-adv-x="1165" 
d="M864 1149l-559 -868v868h-170v-1147h168l559 868v-868h168v1147h-166zM584 1305q152 0 241.5 89.5t98.5 250.5h-156q-9 -207 -184 -207q-176 0 -185 207h-155q9 -161 99 -250.5t241 -89.5z" />
    <glyph glyph-name="_1064" unicode="&#x43a;" horiz-adv-x="1056" 
d="M305 2v528h129l412 -528h201l-467 598l413 549h-194l-363 -477h-131v477h-170v-1147h170z" />
    <glyph glyph-name="_1065" unicode="&#x43b;" horiz-adv-x="1222" 
d="M213 272q0 -80 -29 -112.5t-96 -32.5h-53v-137q36 -4 71 -4q147 0 212 69.5t65 247.5v705h535v-1006h169v1147h-874v-877z" />
    <glyph glyph-name="_1066" unicode="&#x43c;" horiz-adv-x="1468" 
d="M803 2l360 778v-778h170v1147h-170l-430 -930l-430 930h-168v-1147h168v778l363 -778h137z" />
    <glyph glyph-name="_1067" unicode="&#x43d;" horiz-adv-x="1157" 
d="M1022 1149h-168v-487h-549v487h-170v-1147h170v518h549v-518h168v1147z" />
    <glyph glyph-name="_1068" unicode="&#x43e;" horiz-adv-x="1175" 
d="M1083 575q0 289 -124 445t-371 156q-246 0 -370 -156t-124 -445t124 -444.5t370 -155.5q247 0 371 155.5t124 444.5zM913 575q0 -225 -76.5 -341.5t-248.5 -116.5t-248 116.5t-76 341.5q0 224 76 341.5t248 117.5t248.5 -117.5t76.5 -341.5z" />
    <glyph glyph-name="_1069" unicode="&#x43f;" horiz-adv-x="1157" 
d="M1022 1149h-887v-1147h170v1006h549v-1006h168v1147z" />
    <glyph glyph-name="_1070" unicode="&#x440;" horiz-adv-x="1216" 
d="M303 180q40 -95 129.5 -150t220.5 -55q227 0 348 152t121 448t-121 448.5t-348 152.5q-131 0 -221 -55t-129 -152v180h-168v-1645h168v676zM303 575q0 224 77 341.5t249 117.5q171 0 247 -117.5t76 -341.5q0 -225 -76 -341.5t-247 -116.5q-172 0 -249 116.5t-77 341.5z
" />
    <glyph glyph-name="_1071" unicode="&#x441;" horiz-adv-x="1153" 
d="M94 575q0 -289 124 -444.5t370 -155.5q208 0 331 103t146 293h-172q-15 -120 -93.5 -187t-211.5 -67q-172 0 -248 116.5t-76 341.5q0 224 76 341.5t248 117.5q133 0 211.5 -67t93.5 -187h172q-23 190 -146 293t-331 103q-246 0 -370 -156t-124 -445z" />
    <glyph glyph-name="_1072" unicode="&#x442;" horiz-adv-x="997" 
d="M414 1008v-1006h170v1006h374v141h-921v-141h377z" />
    <glyph glyph-name="_1073" unicode="&#x443;" horiz-adv-x="1148" 
d="M406 -219q-31 -80 -72 -108.5t-109 -28.5h-57v-138q20 -2 72 -2q125 0 195.5 46t123.5 180l553 1419h-180l-354 -936l-361 936h-180l452 -1149z" />
    <glyph glyph-name="_1074" unicode="&#x444;" horiz-adv-x="1996" 
d="M1081 180q38 -95 128.5 -150t220.5 -55q228 0 349.5 152t121.5 448q0 297 -121.5 449t-349.5 152q-131 0 -221 -55.5t-128 -151.5v639h-170v-639q-38 97 -127 152t-221 55q-228 0 -348.5 -152t-120.5 -449t120.5 -448.5t348.5 -151.5q131 0 220.5 55t127.5 150v-676h170
v676zM1081 575q0 223 77.5 341t248.5 118t247.5 -118t76.5 -341q0 -224 -76.5 -341t-247.5 -117t-248.5 117t-77.5 341zM911 575q0 -225 -76 -341.5t-247 -116.5q-172 0 -249 116.5t-77 341.5q0 224 77 341.5t249 117.5q171 0 247 -117.5t76 -341.5z" />
    <glyph glyph-name="_1075" unicode="&#x445;" horiz-adv-x="1060" 
d="M854 2h188l-407 588l385 559h-189l-301 -440l-301 440h-188l387 -559l-410 -588h187l325 467z" />
    <glyph glyph-name="_1076" unicode="&#x446;" horiz-adv-x="1196" 
d="M135 2h856v-252h168v393h-137v1006h-168v-1006h-549v1006h-170v-1147z" />
    <glyph glyph-name="_1077" unicode="&#x447;" horiz-adv-x="1118" 
d="M815 2h168v1147h-168v-559q-51 -48 -129 -75.5t-162 -27.5q-121 0 -180 60.5t-59 195.5v406h-170v-418q0 -197 95.5 -291t285.5 -94q93 0 179 26.5t140 71.5v-442z" />
    <glyph glyph-name="_1078" unicode="&#x448;" horiz-adv-x="1728" 
d="M1593 1149h-170v-1006h-475v1006h-168v-1006h-475v1006h-170v-1147h1458v1147z" />
    <glyph glyph-name="_1079" unicode="&#x449;" horiz-adv-x="1767" 
d="M1593 1149h-170v-1006h-475v1006h-168v-1006h-475v1006h-170v-1147h1426v-252h170v393h-138v1006z" />
    <glyph glyph-name="_1080" unicode="&#x44a;" horiz-adv-x="1265" 
d="M1196 377q0 176 -103 274.5t-298 98.5h-303v399h-453v-143h283v-1004h473q195 0 298 99t103 276zM1026 377q0 -115 -65 -173.5t-187 -58.5h-282v461h282q122 0 187 -58.5t65 -170.5z" />
    <glyph glyph-name="_1081" unicode="&#x44b;" horiz-adv-x="1466" 
d="M1333 2v1147h-170v-1147h170zM1008 377q0 177 -103 275t-299 98h-301v399h-170v-1147h471q196 0 299 98t103 277zM840 377q0 -114 -65 -174t-187 -60h-283v465h283q122 0 187 -59.5t65 -171.5z" />
    <glyph glyph-name="_1082" unicode="&#x44c;" horiz-adv-x="1077" 
d="M1008 377q0 177 -103 275t-299 98h-301v399h-170v-1147h471q196 0 299 98t103 277zM840 377q0 -114 -65 -174t-187 -60h-283v465h283q122 0 187 -59.5t65 -171.5z" />
    <glyph glyph-name="_1083" unicode="&#x44d;" horiz-adv-x="1153" 
d="M1059 575q0 289 -124.5 445t-371.5 156q-208 0 -330.5 -103.5t-144.5 -294.5h170q15 121 93.5 188.5t211.5 67.5q304 0 326 -389h-385v-141h385q-11 -189 -89.5 -288t-236.5 -99q-133 0 -211.5 67t-93.5 187h-170q22 -190 144.5 -293t330.5 -103q247 0 371.5 155
t124.5 445z" />
    <glyph glyph-name="_1084" unicode="&#x44e;" horiz-adv-x="1538" 
d="M1444 575q0 289 -124 445t-370 156q-232 0 -355.5 -137t-137.5 -394h-152v504h-170v-1147h170v502h152q14 -256 137 -392.5t356 -136.5q246 0 370 155.5t124 444.5zM1274 575q0 -224 -76.5 -341t-247.5 -117q-172 0 -248.5 116.5t-76.5 341.5q0 224 76.5 341.5
t248.5 117.5q171 0 247.5 -118t76.5 -341z" />
    <glyph glyph-name="_1085" unicode="&#x44f;" horiz-adv-x="1132" 
d="M291 221q3 51 12.5 86.5t33 68.5t71 49.5t118.5 16.5h301v-440h170v1147h-493q-193 0 -297.5 -86t-104.5 -248q0 -119 57 -196.5t154 -104.5q-98 -25 -140.5 -89t-49.5 -202l-8 -114q-4 -49 -17 -107h168q16 46 19 104zM272 795q0 108 66 160.5t182 52.5h307v-424h-307
q-116 0 -182 51.5t-66 159.5z" />
    <glyph glyph-name="_1059" unicode="&#x451;" horiz-adv-x="1175" 
d="M883 340q-18 -100 -95.5 -161.5t-195.5 -61.5q-321 0 -330 409h819v49q0 290 -123.5 445.5t-369.5 155.5t-370 -156t-124 -445q0 -291 124 -445.5t374 -154.5q195 0 314.5 96t150.5 269h-174zM264 655q19 379 324 379q302 0 321 -379h-645zM487 1573h-192v-201h192v201z
M877 1573h-195v-201h195v201z" />
    <glyph glyph-name="_18159" unicode="&#x2015;" 
d="M113 825v-151h1740v151h-1740z" />
    <glyph glyph-name="_114" unicode="&#x2018;" horiz-adv-x="600" 
d="M418 1782q-111 -14 -164 -70.5t-53 -167.5v-270h194v244h-92v36q0 118 115 136v92z" />
    <glyph glyph-name="_115" unicode="&#x2019;" horiz-adv-x="600" 
d="M184 1274q108 12 160.5 69.5t52.5 169.5v269h-194v-244h94v-39q0 -118 -113 -133v-92z" />
    <glyph glyph-name="_8238" unicode="&#x201b;" horiz-adv-x="983" 
d="M463 1634q0 -61 -28 -88.5t-87 -27.5q40 -132 197 -179l-27 -61q-287 58 -287 356q0 60 27 87.5t88 27.5q60 0 88.5 -27.5t28.5 -87.5z" />
    <glyph glyph-name="_116" unicode="&#x201c;" horiz-adv-x="923" 
d="M741 1782q-109 -14 -163 -71t-54 -167v-270h197v244h-94v36q0 118 114 136v92zM418 1782q-111 -14 -164 -70.5t-53 -167.5v-270h194v244h-92v36q0 118 115 136v92z" />
    <glyph glyph-name="_117" unicode="&#x201d;" horiz-adv-x="923" 
d="M508 1274q108 12 161.5 69.5t53.5 169.5v269h-197v-244h95v-39q0 -118 -113 -133v-92zM184 1274q108 12 160.5 69.5t52.5 169.5v269h-194v-244h94v-39q0 -118 -113 -133v-92z" />
    <glyph glyph-name="_8237" unicode="&#x201f;" horiz-adv-x="983" 
d="M469 1634q0 -61 -28 -88.5t-87 -27.5q40 -132 197 -179l-27 -61q-286 58 -286 356q0 61 26.5 88t87.5 27q60 0 88.5 -27.5t28.5 -87.5zM776 1634q0 -61 -27.5 -88.5t-86.5 -27.5q40 -132 196 -179l-27 -61q-286 58 -286 356q0 61 26.5 88t87.5 27q60 0 88.5 -27.5
t28.5 -87.5z" />
    <glyph glyph-name="_245" unicode="&#x2020;" 
d="M1464 1333h-401v385h-158v-385h-403v-141h403v-1491h158v1491h401v141z" />
    <glyph glyph-name="_246" unicode="&#x2021;" 
d="M502 86h403v-385h158v385h401v141h-401v965h401v141h-401v385h-158v-385h-403v-141h403v-965h-403v-141z" />
    <glyph glyph-name="_8607" unicode="&#x2022;" 
d="M1227 801q0 -99 -70.5 -169.5t-171.5 -70.5q-102 0 -174 70.5t-72 169.5q0 97 72 167t174 70q101 0 171.5 -70t70.5 -167z" />
    <glyph glyph-name="_8058" unicode="&#x2025;" 
d="M629 993h-195v-243h195v243zM1530 993h-195v-243h195v243z" />
    <glyph glyph-name="_106" unicode="&#x2026;" 
d="M1079 993h-194v-243h194v243zM485 993h-194v-243h194v243zM1673 993h-194v-243h194v243z" />
    <glyph glyph-name="_216" unicode="&#x2030;" horiz-adv-x="2543" 
d="M643 2l657 1606h-147l-657 -1606h147zM772 1202q0 214 -83.5 323t-239.5 109q-157 0 -241.5 -109t-84.5 -323t84.5 -324t241.5 -110q156 0 239.5 110t83.5 324zM625 1202q0 -167 -44 -238t-132 -71q-90 0 -134.5 71t-44.5 238q0 166 44.5 236.5t134.5 70.5
q88 0 132 -70.5t44 -236.5zM1024 408q0 -214 84.5 -323.5t241.5 -109.5q156 0 239.5 109.5t83.5 323.5t-83.5 324t-239.5 110q-157 0 -241.5 -110t-84.5 -324zM1171 408q0 167 44.5 238t134.5 71q88 0 132 -71t44 -238q0 -166 -44 -237t-132 -71q-90 0 -134.5 71t-44.5 237z
M1772 408q0 -215 83 -324t240 -109t240.5 109.5t83.5 323.5q0 215 -83.5 324.5t-240.5 109.5t-240 -109.5t-83 -324.5zM1917 408q0 167 44 238t134 71t134 -71t44 -238q0 -166 -44 -237t-134 -71t-134 71t-44 237z" />
    <glyph glyph-name="_139" unicode="&#x2032;" horiz-adv-x="407" 
d="M201 1098l147 510h-170l-117 -510h140z" />
    <glyph glyph-name="_140" unicode="&#x2033;" horiz-adv-x="710" 
d="M201 1098l147 510h-170l-117 -510h140zM504 1098l145 510h-170l-117 -510h142z" />
    <glyph glyph-name="_8612" unicode="&#x2039;" 
d="M238 801l1491 907v-74l-1346 -833l1346 -830v-80z" />
    <glyph glyph-name="_8613" unicode="&#x203a;" 
d="M238 1708l1491 -907l-1491 -910v80l1347 830l-1347 833v74z" />
    <glyph glyph-name="_156" unicode="&#x203b;" 
d="M1137 1411q0 63 -45.5 108.5t-108.5 45.5t-108.5 -45.5t-45.5 -108.5t45.5 -108.5t108.5 -45.5t108.5 45.5t45.5 108.5zM379 961q-63 0 -108.5 -45.5t-45.5 -108.5t45.5 -108.5t108.5 -45.5t108 45.5t45 108.5t-45 108.5t-108 45.5zM1587 653q63 0 108.5 45.5t45.5 108.5
t-45.5 108.5t-108.5 45.5t-108 -45.5t-45 -108.5t45 -108.5t108 -45.5zM829 203q0 -63 45.5 -108.5t108.5 -45.5t108.5 45.5t45.5 108.5t-45.5 108t-108.5 45t-108.5 -45t-45.5 -108zM1729 1468l-82 84l-662 -663l-661 663l-82 -84l661 -661l-661 -662l82 -82l661 662
l662 -662l82 82l-662 662z" />
    <glyph glyph-name="_8763" unicode="&#x203c;" 
d="M715 395h-103l-53 830v426h211v-426zM532 100q0 67 32 99t98 32q69 0 100 -31.5t31 -99.5q0 -69 -31 -99t-100 -30q-67 0 -98.5 30.5t-31.5 98.5zM1354 395h-103l-53 830v426h211v-426zM1171 100q0 67 31.5 99t97.5 32q69 0 100.5 -31.5t31.5 -99.5q0 -69 -31.5 -99
t-100.5 -30q-67 0 -98 30.5t-31 98.5z" />
    <glyph glyph-name="_8599" unicode="&#x2042;" 
d="M737 635l-149 -203l243 21v-131l-243 22l143 -205l-117 -71l-102 231l-102 -229l-119 67l147 207l-252 -22v131l252 -21l-149 205l114 72l109 -232l104 228zM1686 635l-148 -203l242 21v-131l-242 22l143 -205l-118 -71l-103 231l-102 -229l-119 67l145 207l-249 -22v131
l249 -21l-147 205l115 72l108 -232l109 228zM1233 1042l-203 150l17 -244h-127l20 244l-203 -143l-73 116l233 103l-229 102l63 119l209 -146l-20 250h127l-17 -250l205 148l74 -115l-234 -108l228 -105z" />
    <glyph glyph-name="_845" unicode="&#x2074;" horiz-adv-x="839" 
d="M213 889l319 502v-502h-319zM791 889h-111v719h-166l-465 -729v-119h483v-217h148v217h111v129z" />
    <glyph glyph-name="_8239" unicode="&#x207a;" horiz-adv-x="983" 
d="M791 1364v-127h-234v-268h-129v268h-235v127h235v268h129v-268h234z" />
    <glyph glyph-name="_8240" unicode="&#x207b;" horiz-adv-x="983" 
d="M193 1237v127h598v-127h-598z" />
    <glyph glyph-name="_8248" unicode="&#x207c;" horiz-adv-x="983" 
d="M223 1352v123h535v-123h-535zM223 1106v123h535v-123h-535z" />
    <glyph glyph-name="_8250" unicode="&#x207d;" horiz-adv-x="983" 
d="M885 823h-105q-66 85 -116 208t-50 263q0 138 50.5 262.5t115.5 208.5h103q-140 -225 -140 -471q0 -111 35 -235t107 -236z" />
    <glyph glyph-name="_8251" unicode="&#x207e;" horiz-adv-x="983" 
d="M205 823h-105q72 112 107 236t35 235q0 246 -140 471h103q65 -84 115.5 -208.5t50.5 -262.5q0 -140 -50 -263t-116 -208z" />
    <glyph glyph-name="_846" unicode="&#x207f;" horiz-adv-x="839" 
d="M98 545h144v459q0 104 57 175.5t147 71.5q72 0 111 -45t39 -129v-532h145v547q0 137 -69 208.5t-189 71.5q-92 0 -152.5 -43t-88.5 -117v140h-144v-807z" />
    <glyph glyph-name="_847" unicode="&#x2081;" horiz-adv-x="839" 
d="M530 2v1065h-129l-247 -115v-135l225 105v-920h151z" />
    <glyph glyph-name="_848" unicode="&#x2082;" horiz-adv-x="839" 
d="M600 760q0 -53 -16 -92t-52 -80l-423 -473v-113h641v131h-441l326 361q61 68 89 128.5t28 139.5q0 148 -90 235.5t-242 87.5q-155 0 -244.5 -87.5t-89.5 -235.5v-37h152v35q0 81 47 134.5t135 53.5q87 0 133.5 -53.5t46.5 -134.5z" />
    <glyph glyph-name="_849" unicode="&#x2083;" horiz-adv-x="839" 
d="M592 788q0 -78 -47 -120.5t-125 -42.5h-92v-129h92q90 0 143 -51t53 -144q0 -83 -53.5 -136.5t-142.5 -53.5q-91 0 -145 54t-54 140v41h-151v-39q0 -141 91.5 -232t258.5 -91q162 0 255 89.5t93 225.5q0 211 -197 264q86 26 127 90t41 148q0 127 -87.5 205.5t-231.5 78.5
q-146 0 -235 -79.5t-89 -202.5v-35h150v20q0 77 46.5 121.5t127.5 44.5q79 0 125.5 -44.5t46.5 -121.5z" />
    <glyph glyph-name="_850" unicode="&#x2084;" horiz-adv-x="839" 
d="M213 348l319 500v-500h-319zM791 348h-111v719h-166l-465 -731v-119h483v-215h148v215h111v131z" />
    <glyph glyph-name="_18160" unicode="&#x20ac;" horiz-adv-x="1429" 
d="M25 969v-107h96v-117h-96v-106h102q11 -119 36.5 -216.5t72.5 -182t114 -142.5t163.5 -90.5t217.5 -32.5q269 0 424 149t170 404h-176q-14 -188 -121 -292.5t-297 -104.5q-209 0 -308.5 129t-119.5 379h447l20 106h-471v117h492l20 107h-508q10 122 37 212.5t77 159
t128.5 103.5t185.5 35q190 0 297 -106t121 -294h176q-15 256 -170 405.5t-424 149.5q-121 0 -218 -33t-163.5 -91t-113.5 -143t-72.5 -182t-36.5 -216h-102z" />
    <glyph glyph-name="_141" unicode="&#x2103;" 
d="M680 1337q0 126 -81.5 207.5t-213.5 81.5t-213.5 -81.5t-81.5 -207.5q0 -127 81.5 -207.5t213.5 -80.5t213.5 80.5t81.5 207.5zM553 1337q0 -78 -46.5 -124t-121.5 -46q-72 0 -119 46t-47 124q0 76 47 122t119 46q75 0 121.5 -45.5t46.5 -122.5zM1315 -25
q255 0 407 150.5t166 402.5h-176q-14 -186 -114.5 -291.5t-282.5 -105.5q-112 0 -192.5 46t-128 136t-69.5 210.5t-22 281.5q0 157 20.5 275.5t66.5 210.5t127.5 140t197.5 48q181 0 282 -106.5t115 -293.5h176q-14 251 -166.5 403t-406.5 152q-590 0 -590 -829
q0 -830 590 -830z" />
    <glyph glyph-name="_215" unicode="&#x2109;" 
d="M680 1337q0 126 -81.5 207.5t-213.5 81.5t-213.5 -81.5t-81.5 -207.5q0 -127 81.5 -207.5t213.5 -80.5t213.5 80.5t81.5 207.5zM553 1337q0 -78 -46.5 -124t-121.5 -46q-72 0 -119 46t-47 124q0 76 47 122t119 46q75 0 121.5 -45.5t46.5 -122.5zM840 2h178v721h665v156
h-665v573h737v156h-915v-1606z" />
    <glyph glyph-name="_590" unicode="&#x2113;" horiz-adv-x="1128" 
d="M651 -25q162 0 264.5 84.5t133.5 247.5l-168 33q-18 -110 -79 -163.5t-151 -53.5q-106 0 -168.5 67t-74.5 205q610 248 610 795v18q0 203 -101 314.5t-288 111.5q-191 0 -292 -111t-101 -315v-714q-144 -46 -201 -58l57 -141q76 19 148 41q24 -174 134 -267.5t277 -93.5z
M408 1210q0 136 56.5 206.5t164.5 70.5q105 0 161 -70.5t56 -206.5v-20q0 -413 -438 -627v647z" />
    <glyph glyph-name="_258" unicode="&#x2116;" horiz-adv-x="1992" 
d="M1176 2h714v133h-714v-133zM874 2h166v1606h-170v-1219l-548 1219h-164v-1606h170v1219zM1901 752q0 232 -86.5 350.5t-280.5 118.5t-280.5 -118.5t-86.5 -350.5q0 -231 86.5 -349t280.5 -118t280.5 118t86.5 349zM1321 752q0 172 49 252.5t164 80.5q114 0 163.5 -80.5
t49.5 -252.5t-49.5 -253t-163.5 -81q-115 0 -164 80.5t-49 253.5z" />
    <glyph glyph-name="_263" unicode="&#x2121;" 
d="M1554 590q0 306 -111.5 446t-322.5 140q-214 0 -325 -143t-111 -458q0 -314 111.5 -457t324.5 -143q355 0 418 367h-172q-39 -225 -246 -225q-130 0 -196 96t-70 313h700v64zM1120 1034q125 0 190.5 -90t71.5 -289h-524q4 199 70.5 289t191.5 90zM25 1452h333v-1450h179
v1450h333v156h-845v-156zM1860 2v1606h-170v-1606h170z" />
    <glyph glyph-name="_260" unicode="&#x2122;" horiz-adv-x="1492" 
d="M29 1499h213v-657h127v657h213v109h-553v-109zM1069 842l205 487v-487h123v766h-117l-260 -613l-258 613h-117v-766h123v487l205 -487h96z" />
    <glyph glyph-name="_643" unicode="&#x2126;" horiz-adv-x="1445" 
d="M723 1634q-308 0 -457 -200q-153 -202 -153 -611q0 -257 74.5 -430t226.5 -237h-264v-154h479v154q-94 29 -160.5 86.5t-105.5 142t-56.5 187t-17.5 233.5q0 193 28 322.5t91 215.5q111 136 315 136q209 0 313 -136q65 -86 93 -215.5t28 -322.5q0 -130 -17.5 -233
t-57 -187.5t-106 -142t-159.5 -86.5v-154h479v154h-264q152 64 226.5 237t74.5 430q0 409 -153 611q-149 200 -457 200z" />
    <glyph glyph-name="_142" unicode="&#x212b;" 
d="M1118 1516q76 32 118 98t42 153q0 123 -81.5 201t-213.5 78t-213.5 -78t-81.5 -201q0 -87 42 -153t118 -98l-531 -1514h187l129 381h700l129 -381h185zM1278 539h-594l299 884zM1151 1767q0 -74 -46.5 -116.5t-121.5 -42.5q-72 0 -119 43t-47 116q0 72 47 115t119 43
q75 0 121.5 -43t46.5 -115z" />
    <glyph glyph-name="_749" unicode="&#x2153;" 
d="M1690 788q0 -78 -47 -120.5t-127 -42.5h-93v-129h93q91 0 144.5 -50.5t53.5 -142.5q0 -85 -53.5 -138.5t-144.5 -53.5t-144 54t-53 140v41h-152v-39q0 -140 92 -231.5t257 -91.5q163 0 256.5 89.5t93.5 225.5q0 210 -197 266q86 25 127 88.5t41 147.5q0 127 -88 205.5
t-233 78.5t-233.5 -79t-88.5 -203v-35h149v20q0 77 47 122.5t126 45.5t126.5 -45.5t47.5 -122.5zM477 543v1065h-129l-248 -115v-135l226 106v-921h151zM1350 1608h-148l-784 -1606h147z" />
    <glyph glyph-name="_750" unicode="&#x2154;" 
d="M582 1300q0 -53 -16 -91t-52 -79l-424 -475v-112h641v133h-440l325 360q61 68 89 128t28 139q0 148 -90 235.5t-242 87.5q-155 0 -244 -87.5t-89 -235.5v-37h151v34q0 82 47 135.5t135 53.5q87 0 134 -53.5t47 -135.5zM1442 1608h-148l-784 -1606h147zM1731 788
q0 -78 -47.5 -120.5t-127.5 -42.5h-92v-129h92q91 0 145 -50.5t54 -142.5q0 -85 -54 -138.5t-145 -53.5t-143.5 54t-52.5 140v41h-152v-39q0 -140 91.5 -231.5t256.5 -91.5q163 0 257 89.5t94 225.5q0 210 -197 266q86 25 127 88.5t41 147.5q0 127 -88.5 205.5t-233.5 78.5
t-233 -79t-88 -203v-35h149v20q0 77 46.5 122.5t125.5 45.5q80 0 127.5 -46t47.5 -122z" />
    <glyph glyph-name="_753" unicode="&#x215b;" 
d="M1509 -18q166 0 263.5 88.5t97.5 228.5q0 100 -52 172t-147 100q80 24 125 88t45 144q0 126 -90 203t-242 77q-151 0 -240 -77t-89 -203q0 -80 45 -144t125 -88q-94 -27 -145.5 -99t-51.5 -173q0 -141 96 -229t260 -88zM1509 504q93 0 151 -54t58 -145q0 -90 -58 -143
t-151 -53q-92 0 -148 53t-56 143q0 91 56 145t148 54zM1509 633q-85 0 -132.5 44t-47.5 116q0 71 48 115t132 44q86 0 134.5 -44t48.5 -115q0 -72 -48.5 -116t-134.5 -44zM477 543v1065h-129l-248 -115v-135l226 106v-921h151zM1350 1608h-148l-784 -1606h147z" />
    <glyph glyph-name="_754" unicode="&#x215c;" 
d="M571 1329q0 -78 -47 -120t-125 -42h-92v-129h92q90 0 143.5 -50.5t53.5 -143.5q0 -85 -54 -139t-143 -54q-91 0 -144.5 54.5t-53.5 142.5v39h-152v-39q0 -140 91.5 -232t258.5 -92q162 0 255.5 91t93.5 227q0 208 -197 264q86 26 127 88.5t41 146.5q0 127 -88 206
t-232 79q-146 0 -234.5 -79t-88.5 -204v-32h149v20q0 76 46.5 121t127.5 45q79 0 125.5 -45.5t46.5 -122.5zM1432 1608h-148l-784 -1606h147zM1550 -18q166 0 263.5 88.5t97.5 228.5q0 100 -52 172t-147 100q80 24 125 88t45 144q0 126 -90 203t-242 77q-151 0 -240 -77
t-89 -203q0 -80 45 -144t125 -88q-94 -27 -145.5 -99t-51.5 -173q0 -141 96 -229t260 -88zM1550 504q93 0 151 -54t58 -145q0 -90 -58 -143t-151 -53q-92 0 -148 53t-56 143q0 91 56 145t148 54zM1550 633q-85 0 -132.5 44t-47.5 116q0 71 48 115t132 44q86 0 134.5 -44
t48.5 -115q0 -72 -48.5 -116t-134.5 -44z" />
    <glyph glyph-name="_755" unicode="&#x215d;" 
d="M59 844q9 -147 97.5 -232.5t240.5 -85.5q161 0 250.5 97.5t89.5 263.5q0 169 -79 266.5t-224 97.5q-65 0 -116.5 -25t-79.5 -69l16 322h430v129h-565l-29 -596h139q20 51 65.5 80.5t106.5 29.5q91 0 140 -61.5t49 -171.5q0 -109 -50.5 -170.5t-142.5 -61.5
q-83 0 -131.5 49.5t-56.5 137.5h-150zM1432 1608h-148l-784 -1606h147zM1550 -18q166 0 263.5 88.5t97.5 228.5q0 100 -52 172t-147 100q80 24 125 88t45 144q0 126 -90 203t-242 77q-151 0 -240 -77t-89 -203q0 -80 45 -144t125 -88q-94 -27 -145.5 -99t-51.5 -173
q0 -141 96 -229t260 -88zM1550 504q93 0 151 -54t58 -145q0 -90 -58 -143t-151 -53q-92 0 -148 53t-56 143q0 91 56 145t148 54zM1550 633q-85 0 -132.5 44t-47.5 116q0 71 48 115t132 44q86 0 134.5 -44t48.5 -115q0 -72 -48.5 -116t-134.5 -44z" />
    <glyph glyph-name="_756" unicode="&#x215e;" 
d="M59 1477h512l-356 -934h158l358 954v111h-672v-131zM1391 1608h-148l-784 -1606h147zM1550 -18q166 0 263.5 88.5t97.5 228.5q0 100 -52 172t-147 100q80 24 125 88t45 144q0 126 -90 203t-242 77q-151 0 -240 -77t-89 -203q0 -80 45 -144t125 -88q-94 -27 -145.5 -99
t-51.5 -173q0 -141 96 -229t260 -88zM1550 504q93 0 151 -54t58 -145q0 -90 -58 -143t-151 -53q-92 0 -148 53t-56 143q0 91 56 145t148 54zM1550 633q-85 0 -132.5 44t-47.5 116q0 71 48 115t132 44q86 0 134.5 -44t48.5 -115q0 -72 -48.5 -116t-134.5 -44z" />
    <glyph glyph-name="_461" unicode="&#x2160;" 
d="M1206 2v154h-135v1298h135v154h-448v-154h135v-1298h-135v-154h448z" />
    <glyph glyph-name="_462" unicode="&#x2161;" 
d="M889 2v154h-125v1298h125v154h-428v-154h125v-1298h-125v-154h428zM1503 2v154h-125v1298h125v154h-428v-154h125v-1298h-125v-154h428z" />
    <glyph glyph-name="_463" unicode="&#x2162;" 
d="M1677 2v154h-114v1298h114v154h-407v-154h114v-1298h-114v-154h407zM1186 2v154h-115v1298h115v154h-408v-154h115v-1298h-115v-154h408zM694 2v154h-114v1298h114v154h-407v-154h114v-1298h-114v-154h407z" />
    <glyph glyph-name="_464" unicode="&#x2163;" 
d="M678 2v154h-125v1298h125v154h-428v-154h125v-1298h-125v-154h428zM1372 2l430 1606h-186l-354 -1403l-355 1403h-182l426 -1606h221z" />
    <glyph glyph-name="_465" unicode="&#x2164;" 
d="M1085 2l562 1606h-185l-479 -1385l-479 1385h-187l564 -1606h204z" />
    <glyph glyph-name="_466" unicode="&#x2165;" 
d="M1720 2v154h-125v1298h125v154h-428v-154h125v-1298h-125v-154h428zM819 2l430 1606h-186l-354 -1403l-355 1403h-182l426 -1606h221z" />
    <glyph glyph-name="_467" unicode="&#x2166;" 
d="M1862 2v154h-105v1298h105v154h-387v-154h104v-1298h-104v-154h387zM1411 2v154h-104v1298h104v154h-387v-154h104v-1298h-104v-154h387zM631 2l352 1606h-182l-277 -1385l-276 1385h-178l348 -1606h213z" />
    <glyph glyph-name="_468" unicode="&#x2167;" 
d="M1903 2v154h-86v1298h86v154h-347v-154h86v-1298h-86v-154h347zM1513 2v154h-86v1298h86v154h-346v-154h86v-1298h-86v-154h346zM1124 2v154h-86v1298h86v154h-346v-154h86v-1298h-86v-154h346zM510 2l227 1606h-178l-168 -1391l-168 1391h-174l223 -1606h238z" />
    <glyph glyph-name="_469" unicode="&#x2168;" 
d="M637 2v154h-125v1298h125v154h-428v-154h125v-1298h-125v-154h428zM1827 1608h-191l-376 -627l-375 627h-193l473 -787l-493 -819h190l398 662l397 -662h190l-491 821z" />
    <glyph glyph-name="_470" unicode="&#x2169;" 
d="M1423 2h195l-526 823l497 783h-192l-414 -654l-412 654h-192l493 -783l-526 -823h197l440 694z" />
    <glyph glyph-name="_451" unicode="&#x2170;" 
d="M1067 2v1147h-170v-1147h170zM1067 1384v224h-170v-224h170z" />
    <glyph glyph-name="_452" unicode="&#x2171;" 
d="M780 2v1147h-170v-1147h170zM780 1384v224h-170v-224h170zM1354 2v1147h-170v-1147h170zM1354 1384v224h-170v-224h170z" />
    <glyph glyph-name="_453" unicode="&#x2172;" 
d="M1067 2v1147h-170v-1147h170zM1067 1384v224h-170v-224h170zM616 2v1147h-170v-1147h170zM616 1384v224h-170v-224h170zM1518 2v1147h-170v-1147h170zM1518 1384v224h-170v-224h170z" />
    <glyph glyph-name="_454" unicode="&#x2173;" 
d="M637 2v1147h-170v-1147h170zM637 1384v224h-170v-224h170zM1307 2l417 1147h-180l-336 -954l-336 954h-180l418 -1147h197z" />
    <glyph glyph-name="_455" unicode="&#x2174;" 
d="M1081 2l439 1147h-181l-356 -952l-356 952h-181l439 -1147h196z" />
    <glyph glyph-name="_456" unicode="&#x2175;" 
d="M897 2l418 1147h-180l-336 -954l-336 954h-180l417 -1147h197zM1538 2v1147h-170v-1147h170zM1538 1384v224h-170v-224h170z" />
    <glyph glyph-name="_457" unicode="&#x2176;" 
d="M713 2l336 1147h-181l-254 -954l-254 954h-180l336 -1147h197zM1292 2v1147h-170v-1147h170zM1292 1384v224h-170v-224h170zM1640 2v1147h-170v-1147h170zM1640 1384v224h-170v-224h170z" />
    <glyph glyph-name="_458" unicode="&#x2177;" 
d="M563 2l289 1147h-180l-207 -954l-207 954h-180l289 -1147h196zM1087 2v1147h-169v-1147h169zM1087 1384v224h-169v-224h169zM1436 2v1147h-170v-1147h170zM1436 1384v224h-170v-224h170zM1784 2v1147h-170v-1147h170zM1784 1384v224h-170v-224h170z" />
    <glyph glyph-name="_459" unicode="&#x2178;" 
d="M1552 2h189l-414 596l383 551h-188l-289 -416l-289 416h-188l383 -551l-414 -596h188l320 461zM637 2v1147h-170v-1147h170zM637 1384v224h-170v-224h170z" />
    <glyph glyph-name="_460" unicode="&#x2179;" 
d="M1307 2h188l-408 588l386 559h-189l-301 -440l-301 440h-188l387 -559l-410 -588h186l326 467z" />
    <glyph glyph-name="_171" unicode="&#x2190;" 
d="M1886 834h-1417v215l-391 -285l391 -287v215h1417v142z" />
    <glyph glyph-name="_172" unicode="&#x2191;" 
d="M1053 -86v1417h215l-285 391l-287 -391h215v-1417h142z" />
    <glyph glyph-name="_170" unicode="&#x2192;" 
d="M78 692h1417v-215l391 287l-391 285v-215h-1417v-142z" />
    <glyph glyph-name="_173" unicode="&#x2193;" 
d="M911 1722v-1415h-215l287 -393l285 393h-215v1415h-142z" />
    <glyph glyph-name="_174" unicode="&#x2194;" 
d="M469 692h1026v-215l391 287l-391 285v-215h-1026v215l-391 -285l391 -287v215z" />
    <glyph glyph-name="_247" unicode="&#x2195;" 
d="M696 305l289 -391l285 391h-215v1024h215l-285 393l-289 -393h217v-1024h-217z" />
    <glyph glyph-name="_250" unicode="&#x2196;" 
d="M1647 174l-1002 1002l152 151l-478 76l74 -479l152 151l1001 -1001z" />
    <glyph glyph-name="_248" unicode="&#x2197;" 
d="M420 74l1001 1001l152 -151l74 479l-478 -76l152 -151l-1002 -1002z" />
    <glyph glyph-name="_251" unicode="&#x2198;" 
d="M319 1303l1002 -1002l-152 -151l478 -76l-74 479l-152 -152l-1001 1002z" />
    <glyph glyph-name="_249" unicode="&#x2199;" 
d="M1546 1403l-1001 -1002l-152 152l-74 -479l478 76l-152 151l1002 1002z" />
    <glyph glyph-name="_8868" unicode="&#x21b0;" 
d="M455 1257h1325v-1411h-51v1362h-1274v-266l-271 289l271 285v-259z" />
    <glyph glyph-name="_8865" unicode="&#x21b1;" 
d="M195 1247h1304v256l273 -284l-273 -287v264h-1255v-1350h-49v1401z" />
    <glyph glyph-name="_8864" unicode="&#x21b2;" 
d="M1788 297h-1342v-258l-270 283l270 288v-258h1289v1391h53v-1446z" />
    <glyph glyph-name="_8869" unicode="&#x21b3;" 
d="M1495 313h-1298v1430h51v-1381h1247v263l272 -287l-272 -287v262z" />
    <glyph glyph-name="_8867" unicode="&#x21b4;" 
d="M1565 1454v-1335h258l-281 -273l-291 273h260v1284h-1370v51h1424z" />
    <glyph glyph-name="_8884" unicode="&#x21bc;" 
d="M481 1061q48 33 98 58t86 37.5t68.5 20.5t46 9.5t17.5 1.5q-13 -7 -42 -24t-89.5 -63t-104.5 -95q-38 -42 -72 -89t-50 -72.5t-17 -25.5h1501v-47h-1880q38 31 183 122.5t255 166.5z" />
    <glyph glyph-name="_8885" unicode="&#x21c0;" 
d="M1483 1061q115 -79 259 -169.5t181 -119.5h-1882v47h1501l-16 25q-15 26 -49 73t-72 89q-45 49 -104 94t-93 65.5t-41 22.5q12 0 45.5 -6t114.5 -37.5t156 -83.5z" />
    <glyph glyph-name="_8896" unicode="&#x21c4;" 
d="M1272 1358l641 -248l-641 -252l213 191h-1397v120h1401zM1878 551v-123h-1399l215 -186l-641 247l641 248l-217 -186h1401z" />
    <glyph glyph-name="_8897" unicode="&#x21c5;" 
d="M420 1087l250 639l248 -639l-191 211v-1390h-121v1395zM1235 1688h121v-1391l188 215l-252 -637l-248 637l191 -217v1393z" />
    <glyph glyph-name="_8816" unicode="&#x21cd;" 
d="M1096 952h-828l-162 -157l164 -160h740zM322 1004h788l107 399l49 -14l-103 -385h760v-52h-774l-86 -317h860v-53h-872l-111 -408l-49 12l104 396h-673l280 -287l-35 -31l-524 531l522 526l35 -35z" />
    <glyph glyph-name="_8815" unicode="&#x21cf;" 
d="M1640 592h-819l-108 -418l-54 12l109 406h-725v55h741l86 316h-827v51h840l104 389l49 -14l-98 -375h702l-280 284l37 37l526 -534l-528 -527l-37 35zM924 963l-88 -316h854l165 156l-161 160h-770z" />
    <glyph glyph-name="_8814" unicode="&#x21d0;" 
d="M1923 582h-1601l280 -287l-35 -31l-524 531l522 526l35 -35l-278 -282h1601v-52h-1655l-162 -157l162 -160h1655v-53z" />
    <glyph glyph-name="_8854" unicode="&#x21d1;" 
d="M801 1741v-1895h-51v1737l-617 -739l-49 45zM1159 1741v-1895h55v1737l617 -739l49 45z" />
    <glyph glyph-name="_195" unicode="&#x21d2;" 
d="M1647 758l-191 -152h-1366v-133h1198l-231 -184l92 -117l727 586l-729 565l-90 -115l227 -174h-1194v-135h1372z" />
    <glyph glyph-name="_8855" unicode="&#x21d3;" 
d="M801 1733v-1891l-717 852l49 45l617 -741v1735h51zM1159 -158v1891h55v-1735l617 741l49 -45z" />
    <glyph glyph-name="_196" unicode="&#x21d4;" 
d="M582 473h798l-213 -188l97 -113l661 586l-663 565l-95 -111l209 -178h-790l211 178l-95 111l-663 -565l661 -586l97 113zM426 899h1110l168 -141l-172 -152h-1100l-172 152z" />
    <glyph glyph-name="_9190" unicode="&#x21e0;" 
d="M459 1214v-841l-389 420zM926 780q0 56 -40 95.5t-95 39.5q-56 0 -96 -40t-40 -95t40 -95t96 -40q55 0 95 39.5t40 95.5zM1413 780q0 56 -39.5 95.5t-95.5 39.5t-95.5 -39.5t-39.5 -95.5t39.5 -95.5t95.5 -39.5t95.5 39.5t39.5 95.5zM1896 780q0 56 -40 95.5t-95 39.5
t-95 -39.5t-40 -95.5t40 -95.5t95 -39.5t95 39.5t40 95.5z" />
    <glyph glyph-name="_9192" unicode="&#x21e1;" 
d="M559 1315h846l-418 391zM995 158q-55 0 -95 -40t-40 -95q0 -56 40 -96t95 -40t95 40t40 96q0 55 -40 95t-95 40zM995 645q-55 0 -95 -39.5t-40 -95.5t40 -95.5t95 -39.5t95 39.5t40 95.5t-40 95.5t-95 39.5zM995 1128q-55 0 -95 -40t-40 -95t40 -95t95 -40t95 40t40 95
t-40 95t-95 40z" />
    <glyph glyph-name="_9191" unicode="&#x21e2;" 
d="M1509 1217v-842l389 420zM336 780q0 56 -40 95.5t-95 39.5t-95 -39.5t-40 -95.5t40 -95.5t95 -39.5t95 39.5t40 95.5zM823 780q0 56 -39.5 95.5t-95.5 39.5t-95.5 -39.5t-39.5 -95.5t39.5 -95.5t95.5 -39.5t95.5 39.5t39.5 95.5zM1307 780q0 55 -40 95t-96 40
q-55 0 -95 -39.5t-40 -95.5t40 -95.5t95 -39.5q56 0 96 40t40 95z" />
    <glyph glyph-name="_9193" unicode="&#x21e3;" 
d="M559 274h846l-418 -391zM995 731q-55 0 -95 -39.5t-40 -95.5t40 -95.5t95 -39.5t95 39.5t40 95.5t-40 95.5t-95 39.5zM995 1219q-55 0 -95 -40t-40 -96q0 -55 40 -95t95 -40t95 40t40 95q0 56 -40 96t-95 40zM995 1702q-55 0 -95 -40t-40 -95t40 -95t95 -40t95 40t40 95
t-40 95t-95 40z" />
    <glyph glyph-name="_9198" unicode="&#x21e6;" 
d="M1837 506v571h-1051v344l-632 -628l632 -633v346h1051zM1894 1135v-684h-1054v-428l-770 772l770 768v-428h1054z" />
    <glyph glyph-name="_9200" unicode="&#x21e7;" 
d="M1272 -57h-576v1044h-346l635 635l635 -633h-348v-1046zM639 -115h688v1051h428l-770 770l-774 -772h428v-1049z" />
    <glyph glyph-name="_9199" unicode="&#x21e8;" 
d="M127 506v571h1051v344l632 -628l-632 -633v346h-1051zM70 1135v-684h1054v-428l770 772l-770 768v-428h-1054z" />
    <glyph glyph-name="_9201" unicode="&#x21e9;" 
d="M1272 1647h-576v-1045h-346l635 -635l635 633h-348v1047zM639 1704h688v-1051h428l-770 -770l-774 772h428v1049z" />
    <glyph glyph-name="_197" unicode="&#x2200;" 
d="M1085 2l562 1606h-185l-129 -381h-700l-129 381h-187l564 -1606h204zM983 186l-299 885h594z" />
    <glyph glyph-name="_151" unicode="&#x2202;" 
d="M748 1241q26 119 103 181.5t187 62.5q145 0 219 -108t74 -349q0 -80 -6 -174q-36 87 -125.5 137.5t-218.5 50.5q-230 0 -374 -161t-144 -426q0 -224 125 -352t330 -128q308 0 445.5 243t137.5 771q0 179 -30.5 305t-91.5 200t-143 107t-194 33q-183 0 -308.5 -102
t-164.5 -291h179zM932 125q-139 0 -218 86t-79 244q0 88 22 165.5t65.5 139t114.5 97.5t162 36q137 0 216 -88t79 -244q0 -200 -101 -318t-261 -118z" />
    <glyph glyph-name="_198" unicode="&#x2203;" 
d="M1432 1608h-938v-154h759v-590h-665v-157h665v-549h-747v-156h926v1606z" />
    <glyph glyph-name="_8715" unicode="&#x2206;" 
d="M313 102l631 1334q19 45 47 45q22 0 43 -43l611 -1307q21 -46 24 -76q0 -32 -67 -32h-1248q-32 0 -44.5 5.5t-12.5 22.5q0 14 16 51zM1442 166l-506 1077l-510 -1077h1016z" />
    <glyph glyph-name="_152" unicode="&#x2207;" 
d="M1085 2l562 1606h-1330l564 -1606h204zM983 186l-428 1266h854z" />
    <glyph glyph-name="_184" unicode="&#x2208;" 
d="M1720 723v149h-1351q24 203 182.5 313.5t456.5 110.5h712v150h-714q-179 0 -323.5 -38t-253 -115.5t-167.5 -203.5t-59 -294t59 -294t167.5 -203t252.5 -115t324 -38h714v150h-712q-301 0 -459 111t-180 317h1351z" />
    <glyph glyph-name="_8749" unicode="&#x2209;" 
d="M924 303l-56 -199l-67 23l49 180q-210 26 -352 167.5t-142 326.5q0 100 45.5 191.5t122 158.5t183 107t223.5 40h194l68 242l72 -24l-62 -218h406v-75h-426l-107 -379h533v-76h-555l-109 -389h664v-76h-678h-6zM442 844h557l105 379h-174q-183 0 -325.5 -109.5
t-162.5 -269.5zM870 381l107 387h-535q13 -151 136.5 -259.5t291.5 -127.5z" />
    <glyph glyph-name="_185" unicode="&#x220b;" 
d="M1595 723q-22 -206 -180 -317t-459 -111h-712v-150h714q180 0 324 38t252.5 115t167.5 203t59 294t-59 294t-167.5 203.5t-253 115.5t-323.5 38h-714v-150h712q298 0 456.5 -110.5t182.5 -313.5h-1351v-149h1351z" />
    <glyph glyph-name="_8750" unicode="&#x220c;" 
d="M838 303l-56 -199l-67 23l49 176h-408v76h428l107 389h-535v76h557l105 379h-662v75h678h4l68 242l72 -24l-64 -224q210 -26 352 -166.5t142 -324.5q0 -133 -76.5 -247.5t-209.5 -182.5t-288 -68h-196zM858 379h176q185 0 329 112.5t159 276.5h-555zM1094 1219l-105 -375
h531q-19 146 -140 251t-286 124z" />
    <glyph glyph-name="_213" unicode="&#x220f;" 
d="M1350 -150h176v1758h-1088v-1758h176v1602h736v-1602z" />
    <glyph glyph-name="_212" unicode="&#x2211;" 
d="M469 -2v-148h1028v154h-829l358 686v55l-362 707h833v156h-1028v-154l381 -735z" />
    <glyph glyph-name="_8726" unicode="&#x2213;" 
d="M317 1444v72h1332v-72h-1332zM317 686v74h625v524h76v-524h631v-74h-631v-504h-76v504h-625z" />
    <glyph glyph-name="_178" unicode="&#x221a;" 
d="M1264 1571h602v151h-736l-524 -1759l-317 645h-189l428 -858h187z" />
    <glyph glyph-name="_180" unicode="&#x221d;" 
d="M1501 586q-53 -39 -135 -39q-184 0 -295 215q113 215 295 215q65 0 119 -31l65 125q-75 37 -180 37q-116 0 -217.5 -63.5t-171.5 -190.5q-70 126 -171.5 190t-215.5 64q-168 0 -267.5 -93.5t-99.5 -252.5t99.5 -252.5t267.5 -93.5q114 0 215.5 63.5t171.5 188.5
q70 -125 171.5 -188.5t217.5 -63.5q126 0 209 51zM379 762q0 100 63.5 157.5t155.5 57.5q179 0 295 -215q-114 -215 -295 -215q-93 0 -156 57t-63 158z" />
    <glyph glyph-name="_136" unicode="&#x221e;" 
d="M1737 762q0 159 -100 252.5t-267 93.5q-116 0 -217.5 -63.5t-171.5 -190.5q-70 126 -171.5 190t-215.5 64q-168 0 -267.5 -93.5t-99.5 -252.5t99.5 -252.5t267.5 -93.5q114 0 215.5 63.5t171.5 188.5q70 -125 171.5 -188.5t217.5 -63.5q167 0 267 93.5t100 252.5z
M1071 762q113 215 295 215q92 0 155.5 -57.5t63.5 -157.5q0 -101 -63 -158t-156 -57q-184 0 -295 215zM379 762q0 100 63.5 157.5t155.5 57.5q179 0 295 -215q-114 -215 -295 -215q-93 0 -156 57t-63 158z" />
    <glyph glyph-name="_8717" unicode="&#x221f;" 
d="M383 252v1173h74v-1097h1124v-76h-1198z" />
    <glyph glyph-name="_148" unicode="&#x2220;" 
d="M1624 1401l-111 102l-1306 -1278v-90h1550v154h-1265z" />
    <glyph glyph-name="_8738" unicode="&#x2222;" 
d="M393 836l854 333q-75 131 -219 193v82q198 -80 291 -246l268 105l25 -70l-262 -103q55 -135 55 -329q0 -181 -47 -312l254 -88l-27 -71l-258 90q-92 -180 -299 -262v82q150 63 225 204l-858 304q-41 15 -42 43t40 45zM1329 801q0 178 -51 303l-793 -307l799 -281
q45 119 45 285z" />
    <glyph glyph-name="_8720" unicode="&#x2226;" 
d="M842 1006l-297 487l65 39l277 -455l260 451l63 -43l-282 -475l180 -301l481 813l66 -43l-504 -842l301 -504l-55 -43l-287 477l-297 -479l-61 41l313 508l-180 301l-516 -844l-60 43z" />
    <glyph glyph-name="_192" unicode="&#x2227;" 
d="M215 76l141 -76l625 1288l631 -1288l139 76l-743 1499h-50z" />
    <glyph glyph-name="_193" unicode="&#x2228;" 
d="M958 -20h50l743 1499l-141 75l-629 -1288l-623 1288l-143 -75z" />
    <glyph glyph-name="_191" unicode="&#x2229;" 
d="M981 1554q-135 0 -243 -38.5t-183 -108.5t-125.5 -170.5t-74 -221t-23.5 -263.5v-715h170v713q0 336 127.5 499.5t351.5 163.5q226 0 353.5 -163.5t127.5 -499.5v-713h170v715q0 179 -38 323.5t-115.5 252.5t-203.5 167t-294 59z" />
    <glyph glyph-name="_190" unicode="&#x222a;" 
d="M981 -4q168 0 294 59t203.5 167.5t115.5 253t38 323.5v714h-170v-712q0 -336 -127.5 -500t-353.5 -164q-224 0 -351.5 164t-127.5 500v712h-170v-714q0 -180 38 -324t114.5 -252.5t203 -167.5t293.5 -59z" />
    <glyph glyph-name="_182" unicode="&#x222b;" 
d="M586 -106v-134q64 -6 125 -6q196 0 277 72.5t81 255.5v1368q0 114 43.5 156.5t163.5 42.5h104v133q-57 8 -125 8q-193 0 -274.5 -74t-81.5 -256v-1370q0 -113 -43.5 -154.5t-163.5 -41.5h-106z" />
    <glyph glyph-name="_183" unicode="&#x222c;" 
d="M268 -106v-134q64 -6 125 -6q196 0 277.5 73t81.5 255v1368q0 114 43 156.5t163 42.5h105v133q-57 8 -125 8q-193 0 -274.5 -74t-81.5 -256v-1370q0 -113 -43.5 -154.5t-163.5 -41.5h-107zM903 -106v-134q65 -6 125 -6q196 0 277 72.5t81 255.5v1368q0 114 43.5 156.5
t163.5 42.5h105v133q-57 8 -125 8q-193 0 -274.5 -74t-81.5 -256v-1370q0 -113 -43.5 -154.5t-163.5 -41.5h-107z" />
    <glyph glyph-name="_211" unicode="&#x222e;" 
d="M582 -106v-136q64 -6 125 -6q195 0 276.5 73.5t81.5 256.5v297q141 27 230 133t89 254t-89 254t-230 133v297q0 114 43.5 156.5t163.5 42.5h104v133q-57 8 -125 8q-193 0 -274.5 -74t-81.5 -256v-307q-138 -28 -225.5 -134.5t-87.5 -252.5t87.5 -252.5t225.5 -134.5v-289
q0 -113 -43.5 -154.5t-163.5 -41.5h-106zM895 530q-74 27 -120 91t-46 145q0 85 45.5 147.5t120.5 87.5v-471zM1065 1004q78 -24 125 -87.5t47 -150.5t-47 -150.5t-125 -87.5v476z" />
    <glyph glyph-name="_137" unicode="&#x2234;" 
d="M1079 1423h-194v-243h194v243zM1602 461h-195v-244h195v244zM557 461h-195v-244h195v244z" />
    <glyph glyph-name="_181" unicode="&#x2235;" 
d="M1079 461h-194v-244h194v244zM1602 1423h-195v-243h195v243zM557 1423h-195v-243h195v243z" />
    <glyph glyph-name="_18161" unicode="&#x223c;" horiz-adv-x="1189" 
d="M786 575q131 0 200 89.5t71 248.5h-160q-3 -100 -32 -147t-87 -47q-34 0 -65.5 21.5t-59 51.5t-59 60.5t-81 52t-110.5 21.5q-131 0 -199.5 -89.5t-70.5 -246.5h160q6 194 119 194q34 0 65.5 -21.5t58.5 -52t58.5 -61.5t81 -52.5t110.5 -21.5z" />
    <glyph glyph-name="_179" unicode="&#x223d;" 
d="M922 805q-79 -118 -164.5 -188t-159.5 -70q-93 0 -156 57t-63 158q0 100 63.5 157.5t155.5 57.5q56 0 109 -21l49 117q-78 35 -162 35q-168 0 -267.5 -93.5t-99.5 -252.5t99.5 -252.5t267.5 -93.5q246 0 448 309q165 252 324 252q92 0 155.5 -57.5t63.5 -157.5
q0 -101 -63 -158t-156 -57q-67 0 -123 26l-59 -112q86 -45 186 -45q167 0 267 93.5t100 252.5t-100 252.5t-267 93.5q-127 0 -236.5 -75t-211.5 -228z" />
    <glyph glyph-name="_8500" unicode="&#x2243;" 
d="M952 963q-52 28 -73.5 38t-72.5 21.5t-112 11.5q-91 0 -183.5 -44t-164.5 -107l-22 84q62 83 167.5 143.5t221.5 60.5q40 0 74 -5t66 -17.5t51 -21.5t54.5 -28.5t51.5 -27.5q54 -29 74 -38.5t71.5 -21.5t112.5 -12q91 0 183.5 44.5t164.5 107.5l22 -84
q-62 -83 -167.5 -144t-221.5 -61q-49 0 -95.5 11t-67 19.5t-72.5 37t-62 33.5zM348 324v104h1292v-104h-1292z" />
    <glyph glyph-name="_8499" unicode="&#x2245;" 
d="M952 963q-52 28 -73.5 38t-72.5 21.5t-112 11.5q-91 0 -183.5 -44t-164.5 -107l-22 84q62 83 167.5 143.5t221.5 60.5q40 0 74 -5t66 -17.5t51 -21.5t54.5 -28.5t51.5 -27.5q54 -29 74 -38.5t71.5 -21.5t112.5 -12q91 0 183.5 44.5t164.5 107.5l22 -84
q-62 -83 -167.5 -144t-221.5 -61q-49 0 -95.5 11t-67 19.5t-72.5 37t-62 33.5zM348 78v104h1292v-104h-1292zM348 406v104h1292v-104h-1292z" />
    <glyph glyph-name="_8501" unicode="&#x2248;" 
d="M954 963q-52 28 -73.5 38t-72.5 21.5t-112 11.5q-91 0 -183.5 -44t-164.5 -107l-22 84q62 83 167.5 143.5t221.5 60.5q40 0 74 -5t66 -17.5t51 -21.5t54.5 -28.5t51.5 -27.5q54 -29 74 -38.5t71.5 -21.5t112.5 -12q91 0 183.5 44.5t164.5 107.5l22 -84
q-62 -83 -167.5 -144t-221.5 -61q-49 0 -95.5 11t-67 19.5t-72.5 37t-62 33.5zM954 348q-54 29 -74 38.5t-71.5 21.5t-112.5 12q-91 0 -183.5 -44.5t-164.5 -107.5l-22 84q62 83 167.5 144t221.5 61q40 0 74 -5t66 -17.5t51 -21.5t54.5 -28.5t51.5 -27.5q54 -29 74 -38.5
t71.5 -21.5t112.5 -12q91 0 183.5 44.5t164.5 107.5l22 -84q-62 -83 -167.5 -144t-221.5 -61q-40 0 -74 5t-66 17.5t-51 21.5t-54.5 28.5t-51.5 27.5z" />
    <glyph glyph-name="_8739" unicode="&#x2250;" 
d="M268 776v-74h1430v74h-1430zM268 412v-76h1430v76h-1430zM985 1251q58 0 91.5 -37t33.5 -86t-32 -84.5t-89 -35.5q-60 0 -92.5 35.5t-32.5 84.5q0 50 31.5 86t89.5 37z" />
    <glyph glyph-name="_8723" unicode="&#x2251;" 
d="M1681 1008v-78h-1396v78h1396zM1681 643v-76h-1396v76h1396zM979 1395q57 0 89 -36t32 -85q0 -51 -33.5 -87t-91.5 -36t-89.5 36t-31.5 85q0 51 32.5 87t92.5 36zM979 414q57 0 89 -36t32 -85q0 -51 -33.5 -87t-91.5 -36q-57 0 -89 37t-32 84q0 51 32.5 87t92.5 36z" />
    <glyph glyph-name="_154" unicode="&#x2252;" horiz-adv-x="1193" 
d="M113 860h968v144h-968v-144zM113 496h968v141h-968v-141zM444 1444h-180v-236h180v236zM932 291h-180v-236h180v236z" />
    <glyph glyph-name="_8722" unicode="&#x2253;" 
d="M1681 1008v-78h-1396v78h1396zM1681 643v-76h-1396v76h1396zM1397 1395q57 0 89 -36.5t32 -84.5q0 -51 -33.5 -87t-91.5 -36q-56 0 -87.5 36.5t-31.5 84.5q0 51 32.5 87t90.5 36zM586 414q57 0 88 -35.5t31 -85.5q0 -51 -32.5 -87t-90.5 -36q-56 0 -87.5 37t-31.5 84
q0 51 32.5 87t90.5 36z" />
    <glyph glyph-name="_8753" unicode="&#x225a;" 
d="M315 416h1334v-72h-1334v72zM1493 1397l-502 -903l-510 917l70 25l440 -774l432 763zM315 176h1334v-72h-1334v72z" />
    <glyph glyph-name="_133" unicode="&#x2260;" horiz-adv-x="1193" 
d="M113 881h489l-149 -265h-340v-141h258l-168 -297h139l168 297h571v141h-491l149 265h342v143h-260l168 297h-137l-170 -297h-569v-143z" />
    <glyph glyph-name="_153" unicode="&#x2261;" horiz-adv-x="1193" 
d="M113 1038h968v142h-968v-142zM113 319h968v142h-968v-142zM113 680h968v139h-968v-139z" />
    <glyph glyph-name="_8734" unicode="&#x2262;" 
d="M270 1090v71h875l143 252l64 -35l-125 -217h467v-71h-510l-148 -256h658v-68h-699l-145 -252h844v-70h-887l-164 -284l-61 33l145 251h-457v72h500l143 250h-643v68h684l148 256h-832z" />
    <glyph glyph-name="_134" unicode="&#x2264;" horiz-adv-x="1193" 
d="M111 104h970v144h-970v-144zM1063 1425l-934 -436v-141l934 -434v161l-754 345l754 342v163z" />
    <glyph glyph-name="_135" unicode="&#x2265;" horiz-adv-x="1193" 
d="M1081 248h-970v-144h970v144zM129 575v-161l934 434v141l-934 436v-163l754 -342z" />
    <glyph glyph-name="_8724" unicode="&#x2266;" 
d="M383 1073l1194 467l25 -70l-1127 -436l1127 -395l-27 -72l-1190 418q-41 15 -42 43t40 45zM330 426v72h1304v-72h-1304zM330 154v69h1304v-69h-1304z" />
    <glyph glyph-name="_8725" unicode="&#x2267;" 
d="M387 1540l1194 -467q42 -18 42.5 -44t-44.5 -44l-1190 -418l-27 72l1127 395l-1127 436zM1634 498v-72h-1304v72h1304zM1634 223v-69h-1304v69h1304z" />
    <glyph glyph-name="_18162" unicode="&#x226a;" 
d="M743 788l1059 -729l72 115l-926 635l926 631l-74 114l-1057 -725v-41zM90 788l1059 -729l72 115l-926 635l926 631l-74 114l-1057 -725v-41z" />
    <glyph glyph-name="_18163" unicode="&#x226b;" 
d="M1221 829l-1057 725l-74 -114l926 -631l-926 -635l72 -115l1059 729v41zM1874 829l-1057 725l-74 -114l926 -631l-926 -635l72 -115l1059 729v41z" />
    <glyph glyph-name="_8745" unicode="&#x226e;" 
d="M1276 1516l-80 -283l391 192l25 -69l-443 -219l-161 -580l604 -278l-27 -72l-600 272l-104 -375l-68 23l107 383l-525 240q-41 15 -42 43t40 45l713 350l98 352zM485 797l455 -209l139 504z" />
    <glyph glyph-name="_8746" unicode="&#x226f;" 
d="M1151 1516l-117 -414l537 -264q41 -17 40 -45t-42 -43l-725 -332l-88 -314l-68 23l70 252l-379 -172l-27 72l432 198l162 584l-594 295l25 69l590 -290l112 405zM1479 797l-465 229l-144 -510z" />
    <glyph glyph-name="_8481" unicode="&#x2270;" 
d="M305 1036l1278 574l33 -113l-1020 -453l1026 -407l-43 -117zM1659 492v-123h-1292v123h1292zM1659 195v-121h-1292v121h1292zM823 -168l-112 29l460 1900l115 -28z" />
    <glyph glyph-name="_8482" unicode="&#x2271;" 
d="M381 1610l1278 -574l-1274 -516l-43 117l1026 407l-1020 453zM305 369v123h1292v-123h-1292zM305 74v121h1292v-121h-1292zM1253 -139l-112 -29l-463 1901l115 28z" />
    <glyph glyph-name="_8483" unicode="&#x2272;" 
d="M305 1036l1278 574l33 -113l-1020 -453l1026 -407l-43 -117zM973 123q-54 29 -74 38.5t-71.5 21.5t-112.5 12q-91 0 -183.5 -44.5t-164.5 -107.5l-23 84q62 83 167.5 144t221.5 61q49 0 95.5 -11t67 -19.5t72.5 -37t62 -33.5q52 -28 73.5 -38t72.5 -21.5t112 -11.5
q91 0 183.5 44t164.5 107l23 -84q-62 -83 -167.5 -143.5t-221.5 -60.5q-40 0 -74 5t-66 17.5t-51 21.5t-54.5 28.5t-51.5 27.5z" />
    <glyph glyph-name="_8484" unicode="&#x2273;" 
d="M334 1497l35 113l1276 -574l-1272 -516l-45 117l1028 407zM948 123q-54 29 -74 38.5t-71.5 21.5t-112.5 12q-91 0 -183.5 -44.5t-164.5 -107.5l-23 84q62 83 168 144t222 61q49 0 95.5 -11t67 -19.5t72.5 -37t62 -33.5q52 -28 73.5 -38t72.5 -21.5t112 -11.5
q91 0 183.5 44t164.5 107l22 -84q-62 -83 -167.5 -143.5t-221.5 -60.5q-40 0 -74 5t-66 17.5t-51 21.5t-54.5 28.5t-51.5 27.5z" />
    <glyph glyph-name="_8489" unicode="&#x2276;" 
d="M1651 1425l-1016 -321l1016 -322l-33 -114l-1303 436l1303 436zM315 147l1016 322l-1016 322l33 114l1303 -436l-1303 -436z" />
    <glyph glyph-name="_8490" unicode="&#x2277;" 
d="M338 1544l1292 -440l-1294 -438v125l987 313l-985 315v125zM1630 31l-1294 440l1292 438v-123l-985 -315l987 -315v-125z" />
    <glyph glyph-name="_8491" unicode="&#x2279;" 
d="M338 1544l1292 -440l-1294 -438v125l987 313l-985 315v125zM1630 31l-1294 440l1292 438v-123l-985 -315l987 -315v-125zM805 -168l-113 29l461 1900l115 -28z" />
    <glyph glyph-name="_8475" unicode="&#x227a;" 
d="M342 795q744 220 1225 610l57 -113q-474 -363 -950 -497q473 -136 950 -498l-57 -113q-483 392 -1225 611z" />
    <glyph glyph-name="_8476" unicode="&#x227b;" 
d="M1624 795q-742 -219 -1225 -611l-57 113q477 362 950 498q-476 134 -950 497l57 113q481 -390 1225 -610z" />
    <glyph glyph-name="_8479" unicode="&#x2280;" 
d="M1063 1569v-1549h-117v1549h117zM342 795q744 220 1225 610l57 -113q-474 -363 -950 -497q473 -136 950 -498l-57 -113q-483 392 -1225 611z" />
    <glyph glyph-name="_8480" unicode="&#x2281;" 
d="M903 20v1549h117v-1549h-117zM1624 795q-742 -219 -1225 -611l-57 113q477 362 950 498q-476 134 -950 497l57 113q481 -390 1225 -610z" />
    <glyph glyph-name="_188" unicode="&#x2282;" 
d="M203 795q0 -168 59 -294t167.5 -203t252.5 -115t324 -38h714v150h-712q-325 0 -484 131t-159 369q0 239 158.5 370t484.5 131h712v150h-714q-179 0 -323.5 -38t-253 -115.5t-167.5 -203.5t-59 -294z" />
    <glyph glyph-name="_189" unicode="&#x2283;" 
d="M1761 795q0 168 -59 294t-167.5 203.5t-253 115.5t-323.5 38h-714v-150h712q326 0 484.5 -131t158.5 -370q0 -238 -159 -369t-484 -131h-712v-150h714q180 0 324 38t252.5 115t167.5 203t59 294z" />
    <glyph glyph-name="_8748" unicode="&#x2284;" 
d="M924 303l-56 -199l-67 23l49 180q-210 26 -352 167.5t-142 326.5q0 100 45.5 191.5t122 158.5t183 107t223.5 40h194l68 242l72 -24l-62 -218h406v-75h-426l-238 -844h664v-76h-678h-6zM440 801q0 -161 126.5 -280t303.5 -140l234 842h-174q-127 0 -239.5 -55
t-181.5 -153t-69 -214z" />
    <glyph glyph-name="_8747" unicode="&#x2285;" 
d="M840 303l-56 -199l-67 23l49 176h-410v76h430l234 844h-664v75h678h6l68 242l72 -24l-64 -224q210 -26 351 -166.5t141 -324.5q0 -133 -76.5 -247.5t-209.5 -182.5t-288 -68h-194zM860 379h174q127 0 239.5 55t181.5 153t69 214q0 160 -125.5 278.5t-302.5 139.5z" />
    <glyph glyph-name="_186" unicode="&#x2286;" 
d="M248 137v-141h1478v141h-1478zM199 1020q0 -280 192.5 -413.5t548.5 -133.5h776v150h-774q-301 0 -441.5 95t-140.5 302q0 208 140 303.5t442 95.5h774v150h-776q-175 0 -310 -32t-232 -98t-148 -171.5t-51 -247.5z" />
    <glyph glyph-name="_187" unicode="&#x2287;" 
d="M240 137v-141h1478v141h-1478zM1767 1020q0 142 -51 247.5t-148 171.5t-232 98t-310 32h-776v-150h774q302 0 442 -95.5t140 -303.5q0 -207 -140.5 -302t-441.5 -95h-774v-150h776q356 0 548.5 133.5t192.5 413.5z" />
    <glyph glyph-name="_8486" unicode="&#x228a;" 
d="M434 1087q0 -87 44.5 -166t127 -130.5t182.5 -51.5h875v-123h-858q-109 0 -204.5 40t-160 105.5t-102 150.5t-37.5 175t37.5 175t102 151t160 106t204.5 40h858v-123h-875q-100 0 -182.5 -51.5t-127 -131t-44.5 -166.5zM1665 195v-121h-1292v121h1292zM1665 492v-123
h-1292v123h1292zM1063 721l117 -33l-236 -825l-119 33z" />
    <glyph glyph-name="_8488" unicode="&#x228b;" 
d="M1532 1087q0 87 -44.5 166.5t-127 131t-182.5 51.5h-875v123h858q109 0 204.5 -40t160 -106t102 -151t37.5 -175t-37.5 -175t-102 -150.5t-160 -105.5t-204.5 -40h-858v123h875q100 0 182.5 51.5t127 130.5t44.5 166zM301 74v121h1292v-121h-1292zM301 369v123h1292v-123
h-1292zM1022 721l117 -33l-236 -825l-119 33z" />
    <glyph glyph-name="_8727" unicode="&#x2295;" 
d="M291 754v75h655v650h78v-650h651v-75h-651v-643h-78v643h-655zM985 1618q134 0 259 -41t225.5 -116t175.5 -175.5t116 -225.5t41 -259t-41 -259t-116 -225.5t-175.5 -175.5t-225.5 -116t-259 -41q-169 0 -321.5 64t-262 173.5t-173.5 260.5t-64 319t64 319t173.5 260.5
t262 173.5t321.5 64zM985 1546q-123 0 -238 -37.5t-206.5 -106t-160.5 -160t-106.5 -205.5t-37.5 -236q0 -204 99.5 -375.5t271.5 -271t378 -99.5q153 0 291 59t237.5 158.5t158.5 237.5t59 291t-59 291t-158.5 237.5t-237.5 158t-291 58.5z" />
    <glyph glyph-name="_8728" unicode="&#x2296;" 
d="M295 758v73h1384v-73h-1384zM985 1618q134 0 259 -41t225.5 -116t175.5 -175.5t116 -225.5t41 -259t-41 -259t-116 -225.5t-175.5 -175.5t-225.5 -116t-259 -41q-169 0 -321.5 64t-262 173.5t-173.5 260.5t-64 319t64 319t173.5 260.5t262 173.5t321.5 64zM985 1546
q-123 0 -238 -37.5t-206.5 -106t-160.5 -160t-106.5 -205.5t-37.5 -236q0 -204 99.5 -375.5t271.5 -271t378 -99.5q153 0 291 59t237.5 158.5t158.5 237.5t59 291t-59 291t-158.5 237.5t-237.5 158t-291 58.5z" />
    <glyph glyph-name="_8729" unicode="&#x2297;" 
d="M522 283l-55 57l461 461l-457 454l55 56l459 -457l459 459l55 -56l-461 -456l467 -461l-57 -53l-463 461zM985 1618q134 0 259 -41t225.5 -116t175.5 -175.5t116 -225.5t41 -259t-41 -259t-116 -225.5t-175.5 -175.5t-225.5 -116t-259 -41q-169 0 -321.5 64t-262 173.5
t-173.5 260.5t-64 319t64 319t173.5 260.5t262 173.5t321.5 64zM985 1546q-123 0 -238 -37.5t-206.5 -106t-160.5 -160t-106.5 -205.5t-37.5 -236q0 -204 99.5 -375.5t271.5 -271t378 -99.5q153 0 291 59t237.5 158.5t158.5 237.5t59 291t-59 291t-158.5 237.5t-237.5 158
t-291 58.5z" />
    <glyph glyph-name="_18164" unicode="&#x2299;" 
d="M627 797q0 -148 104 -252.5t252 -104.5t252 104.5t104 252.5t-104 252t-252 104t-252 -104t-104 -252zM1876 797q0 184 -71 350t-190.5 285.5t-284.5 189.5t-347 70t-347.5 -70t-285.5 -189.5t-191 -285.5t-71 -350q0 -123 32 -239.5t89 -214.5t139 -180t180.5 -139
t215 -88.5t239.5 -31.5q183 0 348.5 70t284.5 188.5t189.5 284.5t70.5 350zM242 797q0 205 97 376.5t267.5 271t376.5 99.5t377 -99.5t268.5 -271t97.5 -376.5q0 -204 -97.5 -376t-268.5 -272t-377 -100t-376.5 100t-267.5 272t-97 376z" />
    <glyph glyph-name="_8742" unicode="&#x22a3;" 
d="M1526 141h-74v623h-1014v72h1014v608h74v-1303z" />
    <glyph glyph-name="_8503" unicode="&#x22a4;" 
d="M920 1245h-584v121h1292v-121h-567v-1069h-141v1069z" />
    <glyph glyph-name="_149" unicode="&#x22a5;" 
d="M1069 283v1269h-172v-1269h-682v-150h1536v150h-682z" />
    <glyph glyph-name="_8751" unicode="&#x22bb;" 
d="M315 248h1334v-72h-1334v72zM1534 1434l-543 -1108l-551 1122l70 25l481 -979l473 968z" />
    <glyph glyph-name="_8752" unicode="&#x22bc;" 
d="M1651 1321h-1336v72h1336v-72zM983 1235l543 -1108l-70 -29l-473 969l-481 -979l-70 25z" />
    <glyph glyph-name="_8477" unicode="&#x22ce;" 
d="M983 1458q220 -744 610 -1225l-112 -57q-362 477 -498 950q-134 -474 -498 -950l-112 57q390 481 610 1225z" />
    <glyph glyph-name="_8478" unicode="&#x22cf;" 
d="M983 156q-219 742 -610 1224l112 58q364 -475 498 -951q137 475 498 951l112 -58q-391 -482 -610 -1224z" />
    <glyph glyph-name="_8492" unicode="&#x22da;" 
d="M1610 1487l-934 -240l934 -239l-33 -115l-1303 354l1303 355zM356 86l934 240l-934 239l33 115l1303 -354l-1303 -355zM1628 838v-105h-1292v105h1292z" />
    <glyph glyph-name="_8493" unicode="&#x22db;" 
d="M1290 1247l-934 240l33 115l1303 -355l-1303 -354l-33 115zM676 326l934 -240l-33 -115l-1303 355l1303 354l33 -115zM338 733v105h1292v-105h-1292z" />
    <glyph glyph-name="_8754" unicode="&#x2306;" 
d="M1649 1139h-1334v71h1334v-71zM991 1061l502 -903l-70 -29l-432 764l-440 -774l-70 24zM1649 1378h-1334v72h1334v-72z" />
    <glyph glyph-name="_150" unicode="&#x2312;" 
d="M61 1362l74 -115q349 352 850 352q489 0 850 -352l74 115q-387 387 -924 387q-545 0 -924 -387z" />
    <glyph glyph-name="_8731" unicode="&#x2314;" 
d="M1614 1198l-631 -1120l-631 1120q145 86 309 139.5t322 53.5t322 -53.5t309 -139.5zM983 1325q-131 0 -278.5 -43.5t-255.5 -110.5l534 -956l535 956q-107 66 -255.5 110t-279.5 44z" />
    <glyph glyph-name="_733" unicode="&#x2460;" 
d="M55 805q0 -192 73 -363.5t197 -294t296 -194.5t362 -72t362 72t296 194.5t197 294t73 363.5t-73 363.5t-197 294t-296 194.5t-362 72t-362 -72t-296 -194.5t-197 -294t-73 -363.5zM176 805q0 168 63 318.5t171 258.5t257.5 171t315.5 63t315.5 -63t257.5 -171t171 -258.5
t63 -318.5t-63 -318.5t-171 -258.5t-257.5 -171t-315.5 -63t-315.5 63t-257.5 171t-171 258.5t-63 318.5zM1110 233v1162h-129l-313 -142v-157l280 123v-986h162z" />
    <glyph glyph-name="_734" unicode="&#x2461;" 
d="M55 805q0 -192 73 -363.5t197 -294t296 -194.5t362 -72t362 72t296 194.5t197 294t73 363.5t-73 363.5t-197 294t-296 194.5t-362 72t-362 -72t-296 -194.5t-197 -294t-73 -363.5zM176 805q0 168 63 318.5t171 258.5t257.5 171t315.5 63t315.5 -63t257.5 -171t171 -258.5
t63 -318.5t-63 -318.5t-171 -258.5t-257.5 -171t-315.5 -63t-315.5 63t-257.5 171t-171 258.5t-63 318.5zM1343 1081q0 151 -95.5 251t-262.5 100q-166 0 -261 -100t-95 -251v-51h162v51q0 93 52 151t142 58t142.5 -58t52.5 -151q0 -101 -80 -190l-455 -516v-123h713v141
h-490l361 410q64 73 89 135.5t25 142.5z" />
    <glyph glyph-name="_735" unicode="&#x2462;" 
d="M55 805q0 -192 73 -363.5t197 -294t296 -194.5t362 -72t362 72t296 194.5t197 294t73 363.5t-73 363.5t-197 294t-296 194.5t-362 72t-362 -72t-296 -194.5t-197 -294t-73 -363.5zM176 805q0 168 63 318.5t171 258.5t257.5 171t315.5 63t315.5 -63t257.5 -171t171 -258.5
t63 -318.5t-63 -318.5t-171 -258.5t-257.5 -171t-315.5 -63t-315.5 63t-257.5 171t-171 258.5t-63 318.5zM1204 578q0 -98 -59 -154.5t-152 -56.5q-95 0 -155 58.5t-60 160.5v28h-160v-32q0 -164 103.5 -260.5t271.5 -96.5q167 0 270 94t103 254q0 104 -46.5 178.5
t-127.5 110.5q141 70 141 254q0 133 -92 220t-248 87q-157 0 -249.5 -87t-92.5 -220v-45h162v35q0 79 49 127.5t131 48.5q78 0 128 -49t50 -127q0 -77 -45 -126.5t-125 -49.5h-137v-142h133q94 0 150.5 -57t56.5 -153z" />
    <glyph glyph-name="_736" unicode="&#x2463;" 
d="M55 805q0 -192 73 -363.5t197 -294t296 -194.5t362 -72t362 72t296 194.5t197 294t73 363.5t-73 363.5t-197 294t-296 194.5t-362 72t-362 -72t-296 -194.5t-197 -294t-73 -363.5zM176 805q0 168 63 318.5t171 258.5t257.5 171t315.5 63t315.5 -63t257.5 -171t171 -258.5
t63 -318.5t-63 -318.5t-171 -258.5t-257.5 -171t-315.5 -63t-315.5 63t-257.5 171t-171 258.5t-63 318.5zM752 637l286 479v-479h-286zM1341 637h-139v768h-168l-473 -780v-129h477v-252h164v252h139v141z" />
    <glyph glyph-name="_737" unicode="&#x2464;" 
d="M55 805q0 -192 73 -363.5t197 -294t296 -194.5t362 -72t362 72t296 194.5t197 294t73 363.5t-73 363.5t-197 294t-296 194.5t-362 72t-362 -72t-296 -194.5t-197 -294t-73 -363.5zM176 805q0 168 63 318.5t171 258.5t257.5 171t315.5 63t315.5 -63t257.5 -171t171 -258.5
t63 -318.5t-63 -318.5t-171 -258.5t-257.5 -171t-315.5 -63t-315.5 63t-257.5 171t-171 258.5t-63 318.5zM991 852q97 0 150 -65t53 -185q0 -122 -53 -187t-150 -65q-86 0 -139.5 54.5t-63.5 158.5h-161q14 -166 110 -260t254 -94q170 0 267.5 102t97.5 287q0 190 -93 292.5
t-249 102.5q-118 0 -180 -59l14 313h448v142h-600l-28 -656h153q26 57 70.5 88t99.5 31z" />
    <glyph glyph-name="_738" unicode="&#x2465;" 
d="M55 805q0 -192 73 -363.5t197 -294t296 -194.5t362 -72t362 72t296 194.5t197 294t73 363.5t-73 363.5t-197 294t-296 194.5t-362 72t-362 -72t-296 -194.5t-197 -294t-73 -363.5zM176 805q0 168 63 318.5t171 258.5t257.5 171t315.5 63t315.5 -63t257.5 -171t171 -258.5
t63 -318.5t-63 -318.5t-171 -258.5t-257.5 -171t-315.5 -63t-315.5 63t-257.5 171t-171 258.5t-63 318.5zM983 1272q76 0 122 -43t56 -127h168q-20 153 -109.5 232t-232.5 79q-199 0 -287 -143q-90 -149 -90 -533q0 -199 49 -315q44 -100 127.5 -153.5t196.5 -53.5
q167 0 269 105.5t102 287.5q0 180 -97.5 285.5t-261.5 105.5q-138 0 -219 -84q9 189 57 273t150 84zM774 608q0 116 57 183t152 67q96 0 152.5 -67t56.5 -183q0 -119 -56.5 -185.5t-152.5 -66.5q-95 0 -152 67t-57 185z" />
    <glyph glyph-name="_739" unicode="&#x2466;" 
d="M55 805q0 -192 73 -363.5t197 -294t296 -194.5t362 -72t362 72t296 194.5t197 294t73 363.5t-73 363.5t-197 294t-296 194.5t-362 72t-362 -72t-296 -194.5t-197 -294t-73 -363.5zM176 805q0 168 63 318.5t171 258.5t257.5 171t315.5 63t315.5 -63t257.5 -171t171 -258.5
t63 -318.5t-63 -318.5t-171 -258.5t-257.5 -171t-315.5 -63t-315.5 63t-257.5 171t-171 258.5t-63 318.5zM631 1202h538l-395 -1020h170l397 1049v112h-710v-141z" />
    <glyph glyph-name="_740" unicode="&#x2467;" 
d="M55 805q0 -192 73 -363.5t197 -294t296 -194.5t362 -72t362 72t296 194.5t197 294t73 363.5t-73 363.5t-197 294t-296 194.5t-362 72t-362 -72t-296 -194.5t-197 -294t-73 -363.5zM176 805q0 168 63 318.5t171 258.5t257.5 171t315.5 63t315.5 -63t257.5 -171t171 -258.5
t63 -318.5t-63 -318.5t-171 -258.5t-257.5 -171t-315.5 -63t-315.5 63t-257.5 171t-171 258.5t-63 318.5zM985 213q176 0 283.5 92.5t107.5 251.5q0 104 -48 179t-136 112q71 37 110 103.5t39 150.5q0 137 -96.5 223t-259.5 86q-164 0 -261 -86t-97 -223q0 -86 39 -153.5
t110 -102.5q-182 -71 -182 -289q0 -159 107.5 -251.5t283.5 -92.5zM1180 1092q0 -81 -54 -129t-141 -48q-88 0 -141 48t-53 129t53 129.5t141 48.5q87 0 141 -48.5t54 -129.5zM756 563q0 97 63 154t166 57q101 0 165 -57t64 -154t-63.5 -153t-165.5 -56q-103 0 -166 56
t-63 153z" />
    <glyph glyph-name="_741" unicode="&#x2468;" 
d="M55 805q0 -192 73 -363.5t197 -294t296 -194.5t362 -72t362 72t296 194.5t197 294t73 363.5t-73 363.5t-197 294t-296 194.5t-362 72t-362 -72t-296 -194.5t-197 -294t-73 -363.5zM176 805q0 168 63 318.5t171 258.5t257.5 171t315.5 63t315.5 -63t257.5 -171t171 -258.5
t63 -318.5t-63 -318.5t-171 -258.5t-257.5 -171t-315.5 -63t-315.5 63t-257.5 171t-171 258.5t-63 318.5zM975 342q-75 0 -121.5 43t-56.5 127h-168q20 -153 109.5 -232t234.5 -79q197 0 284 143q91 160 91 533q0 203 -48 315q-88 207 -325 207q-166 0 -268.5 -105.5
t-102.5 -287.5q0 -180 98.5 -286t260.5 -106q140 0 219 82q-11 -187 -59 -270.5t-148 -83.5zM1184 1006q0 -116 -57 -183t-152 -67q-96 0 -152.5 67t-56.5 183q0 119 56.5 185t152.5 66q95 0 152 -66.5t57 -184.5z" />
    <glyph glyph-name="_742" unicode="&#x2469;" 
d="M55 805q0 -192 73 -363.5t197 -294t296 -194.5t362 -72t362 72t296 194.5t197 294t73 363.5t-73 363.5t-197 294t-296 194.5t-362 72t-362 -72t-296 -194.5t-197 -294t-73 -363.5zM176 805q0 168 63 318.5t171 258.5t257.5 171t315.5 63t315.5 -63t257.5 -171t171 -258.5
t63 -318.5t-63 -318.5t-171 -258.5t-257.5 -171t-315.5 -63t-315.5 63t-257.5 171t-171 258.5t-63 318.5zM750 262v1090h-125l-256 -135v-166l219 114v-903h162zM1077 809q0 165 16 260t62 133q30 27 80 27t80 -27q46 -38 62 -133t16 -260t-16 -260t-62 -133
q-30 -27 -80 -27t-80 27q-46 38 -62 133t-16 260zM915 809q0 -212 37 -339t123 -181q65 -41 160 -41t160 41q86 54 122.5 180.5t36.5 339.5t-36.5 339.5t-122.5 180.5q-65 41 -160 41t-160 -41q-86 -54 -123 -181t-37 -339z" />
    <glyph glyph-name="_743" unicode="&#x246a;" 
d="M55 805q0 -192 73 -363.5t197 -294t296 -194.5t362 -72t362 72t296 194.5t197 294t73 363.5t-73 363.5t-197 294t-296 194.5t-362 72t-362 -72t-296 -194.5t-197 -294t-73 -363.5zM176 805q0 168 63 318.5t171 258.5t257.5 171t315.5 63t315.5 -63t257.5 -171t171 -258.5
t63 -318.5t-63 -318.5t-171 -258.5t-257.5 -171t-315.5 -63t-315.5 63t-257.5 171t-171 258.5t-63 318.5zM811 262v1090h-125l-256 -135v-166l219 114v-903h162zM1405 262v1090h-125l-256 -135v-166l219 114v-903h162z" />
    <glyph glyph-name="_744" unicode="&#x246b;" 
d="M55 805q0 -192 73 -363.5t197 -294t296 -194.5t362 -72t362 72t296 194.5t197 294t73 363.5t-73 363.5t-197 294t-296 194.5t-362 72t-362 -72t-296 -194.5t-197 -294t-73 -363.5zM176 805q0 168 63 318.5t171 258.5t257.5 171t315.5 63t315.5 -63t257.5 -171t171 -258.5
t63 -318.5t-63 -318.5t-171 -258.5t-257.5 -171t-315.5 -63t-315.5 63t-257.5 171t-171 258.5t-63 318.5zM750 262v1090h-125l-256 -135v-166l219 114v-903h162zM1524 1047q0 141 -79.5 235t-219.5 94q-138 0 -217.5 -94t-79.5 -235v-54h162v54q0 84 36 136t99 52
q62 0 99.5 -52t37.5 -136q0 -94 -62 -175l-358 -483v-119h594v144h-383l279 370q51 71 71.5 130t20.5 133z" />
    <glyph glyph-name="_745" unicode="&#x246c;" 
d="M55 805q0 -192 73 -363.5t197 -294t296 -194.5t362 -72t362 72t296 194.5t197 294t73 363.5t-73 363.5t-197 294t-296 194.5t-362 72t-362 -72t-296 -194.5t-197 -294t-73 -363.5zM176 805q0 168 63 318.5t171 258.5t257.5 171t315.5 63t315.5 -63t257.5 -171t171 -258.5
t63 -318.5t-63 -318.5t-171 -258.5t-257.5 -171t-315.5 -63t-315.5 63t-257.5 171t-171 258.5t-63 318.5zM750 262v1090h-125l-256 -135v-166l219 114v-903h162zM1370 578q0 -88 -41.5 -139.5t-107.5 -51.5q-68 0 -110 53t-42 146v30h-160v-34q0 -154 86.5 -245t225.5 -91
q138 0 223.5 88.5t85.5 238.5q0 96 -37 165t-102 104q54 34 83 95.5t29 139.5q0 127 -76 209t-206 82q-132 0 -208.5 -82t-76.5 -209v-47h160v39q0 70 34.5 114t90.5 44q55 0 88.5 -44t33.5 -114q0 -69 -30.5 -113.5t-85.5 -44.5h-123v-143h121q67 0 106 -50.5t39 -139.5z
" />
    <glyph glyph-name="_746" unicode="&#x246d;" 
d="M55 805q0 -192 73 -363.5t197 -294t296 -194.5t362 -72t362 72t296 194.5t197 294t73 363.5t-73 363.5t-197 294t-296 194.5t-362 72t-362 -72t-296 -194.5t-197 -294t-73 -363.5zM176 805q0 168 63 318.5t171 258.5t257.5 171t315.5 63t315.5 -63t257.5 -171t171 -258.5
t63 -318.5t-63 -318.5t-171 -258.5t-257.5 -171t-315.5 -63t-315.5 63t-257.5 171t-171 258.5t-63 318.5zM750 262v1090h-125l-256 -135v-166l219 114v-903h162zM1071 633l193 375v-375h-193zM1534 633h-109v713h-159l-377 -734v-123h375v-233h161v233h109v144z" />
    <glyph glyph-name="_747" unicode="&#x246e;" 
d="M55 805q0 -192 73 -363.5t197 -294t296 -194.5t362 -72t362 72t296 194.5t197 294t73 363.5t-73 363.5t-197 294t-296 194.5t-362 72t-362 -72t-296 -194.5t-197 -294t-73 -363.5zM176 805q0 168 63 318.5t171 258.5t257.5 171t315.5 63t315.5 -63t257.5 -171t171 -258.5
t63 -318.5t-63 -318.5t-171 -258.5t-257.5 -171t-315.5 -63t-315.5 63t-257.5 171t-171 258.5t-63 318.5zM750 262v1090h-125l-256 -135v-166l219 114v-903h162zM1219 838q69 0 106 -58.5t37 -167.5q0 -112 -37 -170.5t-106 -58.5q-60 0 -97.5 51t-44.5 148h-162
q12 -160 92 -250t212 -90q142 0 222.5 96.5t80.5 269.5q0 179 -78 276t-207 97q-64 0 -125 -37l12 262h351v142h-504l-23 -621h152q42 111 119 111z" />
    <glyph glyph-name="_8791" unicode="&#x246f;" 
d="M55 805q0 192 73 363.5t197 294t296 194.5t362 72t362 -72t296 -194.5t197 -294t73 -363.5t-73 -363.5t-197 -294t-296 -194.5t-362 -72t-362 72t-296 194.5t-197 294t-73 363.5zM176 805q0 -168 63 -318.5t171 -258.5t257.5 -171t315.5 -63t315.5 63t257.5 171
t171 258.5t63 318.5t-63 318.5t-171 258.5t-257.5 171t-315.5 63t-315.5 -63t-257.5 -171t-171 -258.5t-63 -318.5zM750 262h-162v903l-219 -114v166l256 135h125v-1090zM1227 1229q-69 0 -103 -69t-43 -222q62 49 154 49q137 0 218 -99.5t81 -269.5t-85.5 -270t-221.5 -100
q-97 0 -167.5 49.5t-105.5 144.5q-39 115 -39 297q0 349 74 494q69 137 240 137q120 0 195.5 -76.5t88.5 -222.5h-163q-18 158 -123 158zM1077 618q0 -107 41 -168t109 -61q67 0 107 61t40 168q0 105 -40 165.5t-107 60.5q-68 0 -109 -60.5t-41 -165.5z" />
    <glyph glyph-name="_8792" unicode="&#x2470;" 
d="M55 805q0 192 73 363.5t197 294t296 194.5t362 72t362 -72t296 -194.5t197 -294t73 -363.5t-73 -363.5t-197 -294t-296 -194.5t-362 -72t-362 72t-296 194.5t-197 294t-73 363.5zM176 805q0 -168 63 -318.5t171 -258.5t257.5 -171t315.5 -63t315.5 63t257.5 171
t171 258.5t63 318.5t-63 318.5t-171 258.5t-257.5 171t-315.5 63t-315.5 -63t-257.5 -171t-171 -258.5t-63 -318.5zM754 254h-162v903l-219 -115v166l256 135h125v-1089zM934 1192v141h592v-110l-316 -979h-166l312 948h-422z" />
    <glyph glyph-name="_8793" unicode="&#x2471;" 
d="M55 805q0 192 73 363.5t197 294t296 194.5t362 72t362 -72t296 -194.5t197 -294t73 -363.5t-73 -363.5t-197 -294t-296 -194.5t-362 -72t-362 72t-296 194.5t-197 294t-73 363.5zM176 805q0 -168 63 -318.5t171 -258.5t257.5 -171t315.5 -63t315.5 63t257.5 171
t171 258.5t63 318.5t-63 318.5t-171 258.5t-257.5 171t-315.5 63t-315.5 -63t-257.5 -171t-171 -258.5t-63 -318.5zM750 262h-162v903l-219 -114v166l256 135h125v-1090zM1221 248q-145 0 -234.5 87.5t-89.5 237.5q0 94 38.5 162.5t108.5 104.5q-57 35 -88.5 98t-31.5 141
q0 128 80.5 209.5t216.5 81.5t216.5 -81.5t80.5 -209.5q0 -78 -32 -141t-89 -98q70 -36 108.5 -104.5t38.5 -162.5q0 -150 -89 -237.5t-234 -87.5zM1356 1069q0 72 -37.5 116t-97.5 44q-62 0 -100 -44t-38 -116t38 -115t100 -43q60 0 97.5 43t37.5 115zM1057 580
q0 -88 45.5 -139.5t118.5 -51.5t118 51.5t45 139.5q0 87 -45 138.5t-118 51.5t-118.5 -51.5t-45.5 -138.5z" />
    <glyph glyph-name="_8794" unicode="&#x2472;" 
d="M55 805q0 192 73 363.5t197 294t296 194.5t362 72t362 -72t296 -194.5t197 -294t73 -363.5t-73 -363.5t-197 -294t-296 -194.5t-362 -72t-362 72t-296 194.5t-197 294t-73 363.5zM176 805q0 -168 63 -318.5t171 -258.5t257.5 -171t315.5 -63t315.5 63t257.5 171
t171 258.5t63 318.5t-63 318.5t-171 258.5t-257.5 171t-315.5 63t-315.5 -63t-257.5 -171t-171 -258.5t-63 -318.5zM750 262h-162v903l-219 -114v166l256 135h125v-1090zM1223 393q66 0 99 69t44 222q-62 -47 -154 -47q-136 0 -217.5 99t-81.5 270q0 169 86.5 268.5
t223.5 99.5q198 0 270 -194q39 -107 39 -295q0 -349 -74 -494q-70 -139 -237 -139q-123 0 -198.5 76.5t-88.5 224.5h164q9 -79 41 -119.5t84 -40.5zM1370 1006q0 106 -40 166.5t-107 60.5q-68 0 -108 -60.5t-40 -166.5t40 -167t108 -61q67 0 107 61t40 167z" />
    <glyph glyph-name="_8795" unicode="&#x2473;" 
d="M55 805q0 192 73 363.5t197 294t296 194.5t362 72t362 -72t296 -194.5t197 -294t73 -363.5t-73 -363.5t-197 -294t-296 -194.5t-362 -72t-362 72t-296 194.5t-197 294t-73 363.5zM176 805q0 -168 63 -318.5t171 -258.5t257.5 -171t315.5 -63t315.5 63t257.5 171
t171 258.5t63 318.5t-63 318.5t-171 258.5t-257.5 171t-315.5 63t-315.5 -63t-257.5 -171t-171 -258.5t-63 -318.5zM936 1049q0 -72 -19 -131.5t-67 -131.5l-250 -370h346v-144h-551v115l324 487q53 77 53 175q0 84 -31 136t-84 52t-82.5 -52t-29.5 -136v-54h-162v54
q0 141 72.5 235t201.5 94q130 0 204.5 -94t74.5 -235zM1171 809q0 -155 13.5 -253.5t54.5 -139.5q27 -27 66 -27q38 0 65 27q41 41 54.5 139.5t13.5 253.5t-13.5 253.5t-54.5 139.5q-27 27 -65 27q-39 0 -66 -27q-41 -41 -54.5 -139.5t-13.5 -253.5zM1010 809q0 407 145 516
q60 45 150 45q89 0 149 -45q145 -109 145 -516t-145 -516q-60 -45 -149 -45q-90 0 -150 45q-145 109 -145 516z" />
    <glyph glyph-name="_827" unicode="&#x2474;" 
d="M1110 233v1162h-129l-313 -142v-157l280 123v-986h162zM82 817q0 -227 78 -446t219 -414h131q-133 198 -209 421t-76 439q0 214 76 438.5t209 421.5h-131q-141 -195 -219 -414.5t-78 -445.5zM1884 817q0 226 -78 445.5t-219 414.5h-131q133 -197 209 -421.5t76 -438.5
q0 -216 -76 -439t-209 -421h131q141 195 219 414t78 446z" />
    <glyph glyph-name="_828" unicode="&#x2475;" 
d="M1343 1081q0 151 -95.5 251t-262.5 100q-166 0 -261 -100t-95 -251v-51h162v51q0 93 52 151t142 58t142.5 -58t52.5 -151q0 -101 -80 -190l-455 -516v-123h713v141h-490l361 410q64 73 89 135.5t25 142.5zM82 817q0 -227 78 -446t219 -414h131q-133 198 -209 421t-76 439
q0 214 76 438.5t209 421.5h-131q-141 -195 -219 -414.5t-78 -445.5zM1884 817q0 226 -78 445.5t-219 414.5h-131q133 -197 209 -421.5t76 -438.5q0 -216 -76 -439t-209 -421h131q141 195 219 414t78 446z" />
    <glyph glyph-name="_829" unicode="&#x2476;" 
d="M1204 578q0 -98 -59 -154.5t-152 -56.5q-95 0 -155 58.5t-60 160.5v28h-160v-32q0 -164 103.5 -260.5t271.5 -96.5q167 0 270 94t103 254q0 104 -46.5 178.5t-127.5 110.5q141 70 141 254q0 133 -92 220t-248 87q-157 0 -249.5 -87t-92.5 -220v-45h162v35q0 79 49 127.5
t131 48.5q78 0 128 -49t50 -127q0 -77 -45 -126.5t-125 -49.5h-137v-142h133q94 0 150.5 -57t56.5 -153zM82 817q0 -227 78 -446t219 -414h131q-133 198 -209 421t-76 439q0 214 76 438.5t209 421.5h-131q-141 -195 -219 -414.5t-78 -445.5zM1884 817q0 226 -78 445.5
t-219 414.5h-131q133 -197 209 -421.5t76 -438.5q0 -216 -76 -439t-209 -421h131q141 195 219 414t78 446z" />
    <glyph glyph-name="_830" unicode="&#x2477;" 
d="M752 637l286 479v-479h-286zM1341 637h-139v768h-168l-473 -780v-129h477v-252h164v252h139v141zM82 817q0 -227 78 -446t219 -414h131q-133 198 -209 421t-76 439q0 214 76 438.5t209 421.5h-131q-141 -195 -219 -414.5t-78 -445.5zM1884 817q0 226 -78 445.5
t-219 414.5h-131q133 -197 209 -421.5t76 -438.5q0 -216 -76 -439t-209 -421h131q141 195 219 414t78 446z" />
    <glyph glyph-name="_831" unicode="&#x2478;" 
d="M991 852q97 0 150 -65t53 -185q0 -122 -53 -187t-150 -65q-86 0 -139.5 54.5t-63.5 158.5h-161q14 -166 110 -260t254 -94q170 0 267.5 102t97.5 287q0 190 -93 292.5t-249 102.5q-118 0 -180 -59l14 313h448v142h-600l-28 -656h153q26 57 70.5 88t99.5 31zM82 817
q0 -227 78 -446t219 -414h131q-133 198 -209 421t-76 439q0 214 76 438.5t209 421.5h-131q-141 -195 -219 -414.5t-78 -445.5zM1884 817q0 226 -78 445.5t-219 414.5h-131q133 -197 209 -421.5t76 -438.5q0 -216 -76 -439t-209 -421h131q141 195 219 414t78 446z" />
    <glyph glyph-name="_832" unicode="&#x2479;" 
d="M983 1272q76 0 122 -43t56 -127h168q-20 153 -109.5 232t-232.5 79q-199 0 -287 -143q-90 -149 -90 -533q0 -199 49 -315q44 -100 127.5 -153.5t196.5 -53.5q167 0 269 105.5t102 287.5q0 180 -97.5 285.5t-261.5 105.5q-138 0 -219 -84q9 189 57 273t150 84zM774 608
q0 116 57 183t152 67q96 0 152.5 -67t56.5 -183q0 -119 -56.5 -185.5t-152.5 -66.5q-95 0 -152 67t-57 185zM82 817q0 -227 78 -446t219 -414h131q-133 198 -209 421t-76 439q0 214 76 438.5t209 421.5h-131q-141 -195 -219 -414.5t-78 -445.5zM1884 817q0 226 -78 445.5
t-219 414.5h-131q133 -197 209 -421.5t76 -438.5q0 -216 -76 -439t-209 -421h131q141 195 219 414t78 446z" />
    <glyph glyph-name="_833" unicode="&#x247a;" 
d="M631 1202h538l-395 -1020h170l397 1049v112h-710v-141zM82 817q0 -227 78 -446t219 -414h131q-133 198 -209 421t-76 439q0 214 76 438.5t209 421.5h-131q-141 -195 -219 -414.5t-78 -445.5zM1884 817q0 226 -78 445.5t-219 414.5h-131q133 -197 209 -421.5t76 -438.5
q0 -216 -76 -439t-209 -421h131q141 195 219 414t78 446z" />
    <glyph glyph-name="_834" unicode="&#x247b;" 
d="M985 213q176 0 283.5 92.5t107.5 251.5q0 104 -48 179t-136 112q71 37 110 103.5t39 150.5q0 137 -96.5 223t-259.5 86q-164 0 -261 -86t-97 -223q0 -86 39 -153.5t110 -102.5q-182 -71 -182 -289q0 -159 107.5 -251.5t283.5 -92.5zM1180 1092q0 -81 -54 -129t-141 -48
q-88 0 -141 48t-53 129t53 129.5t141 48.5q87 0 141 -48.5t54 -129.5zM756 563q0 97 63 154t166 57q101 0 165 -57t64 -154t-63.5 -153t-165.5 -56q-103 0 -166 56t-63 153zM82 817q0 -227 78 -446t219 -414h131q-133 198 -209 421t-76 439q0 214 76 438.5t209 421.5h-131
q-141 -195 -219 -414.5t-78 -445.5zM1884 817q0 226 -78 445.5t-219 414.5h-131q133 -197 209 -421.5t76 -438.5q0 -216 -76 -439t-209 -421h131q141 195 219 414t78 446z" />
    <glyph glyph-name="_835" unicode="&#x247c;" 
d="M975 342q-75 0 -121.5 43t-56.5 127h-168q20 -153 109.5 -232t234.5 -79q197 0 284 143q91 160 91 533q0 203 -48 315q-88 207 -325 207q-166 0 -268.5 -105.5t-102.5 -287.5q0 -180 98.5 -286t260.5 -106q140 0 219 82q-11 -187 -59 -270.5t-148 -83.5zM1184 1006
q0 -116 -57 -183t-152 -67q-96 0 -152.5 67t-56.5 183q0 119 56.5 185t152.5 66q95 0 152 -66.5t57 -184.5zM82 817q0 -227 78 -446t219 -414h131q-133 198 -209 421t-76 439q0 214 76 438.5t209 421.5h-131q-141 -195 -219 -414.5t-78 -445.5zM1884 817q0 226 -78 445.5
t-219 414.5h-131q133 -197 209 -421.5t76 -438.5q0 -216 -76 -439t-209 -421h131q141 195 219 414t78 446z" />
    <glyph glyph-name="_836" unicode="&#x247d;" 
d="M750 262v1090h-125l-256 -135v-166l219 114v-903h162zM1077 809q0 165 16 260t62 133q30 27 80 27t80 -27q46 -38 62 -133t16 -260t-16 -260t-62 -133q-30 -27 -80 -27t-80 27q-46 38 -62 133t-16 260zM915 809q0 -212 37 -339t123 -181q65 -41 160 -41t160 41
q86 54 122.5 180.5t36.5 339.5t-36.5 339.5t-122.5 180.5q-65 41 -160 41t-160 -41q-86 -54 -123 -181t-37 -339zM82 817q0 -227 78 -446t219 -414h131q-133 198 -209 421t-76 439q0 214 76 438.5t209 421.5h-131q-141 -195 -219 -414.5t-78 -445.5zM1884 817
q0 226 -78 445.5t-219 414.5h-131q133 -197 209 -421.5t76 -438.5q0 -216 -76 -439t-209 -421h131q141 195 219 414t78 446z" />
    <glyph glyph-name="_837" unicode="&#x247e;" 
d="M811 262v1090h-125l-256 -135v-166l219 114v-903h162zM1405 262v1090h-125l-256 -135v-166l219 114v-903h162zM82 817q0 -227 78 -446t219 -414h131q-133 198 -209 421t-76 439q0 214 76 438.5t209 421.5h-131q-141 -195 -219 -414.5t-78 -445.5zM1884 817
q0 226 -78 445.5t-219 414.5h-131q133 -197 209 -421.5t76 -438.5q0 -216 -76 -439t-209 -421h131q141 195 219 414t78 446z" />
    <glyph glyph-name="_838" unicode="&#x247f;" 
d="M750 262v1090h-125l-256 -135v-166l219 114v-903h162zM1524 1047q0 141 -79.5 235t-219.5 94q-138 0 -217.5 -94t-79.5 -235v-54h162v54q0 84 36 136t99 52q62 0 99.5 -52t37.5 -136q0 -94 -62 -175l-358 -483v-119h594v144h-383l279 370q51 71 71.5 130t20.5 133z
M82 817q0 -227 78 -446t219 -414h131q-133 198 -209 421t-76 439q0 214 76 438.5t209 421.5h-131q-141 -195 -219 -414.5t-78 -445.5zM1884 817q0 226 -78 445.5t-219 414.5h-131q133 -197 209 -421.5t76 -438.5q0 -216 -76 -439t-209 -421h131q141 195 219 414t78 446z" />
    <glyph glyph-name="_839" unicode="&#x2480;" 
d="M750 262v1090h-125l-256 -135v-166l219 114v-903h162zM1370 578q0 -88 -41.5 -139.5t-107.5 -51.5q-68 0 -110 53t-42 146v30h-160v-34q0 -154 86.5 -245t225.5 -91q138 0 223.5 88.5t85.5 238.5q0 96 -37 165t-102 104q54 34 83 95.5t29 139.5q0 127 -76 209t-206 82
q-132 0 -208.5 -82t-76.5 -209v-47h160v39q0 70 34.5 114t90.5 44q55 0 88.5 -44t33.5 -114q0 -69 -30.5 -113.5t-85.5 -44.5h-123v-143h121q67 0 106 -50.5t39 -139.5zM82 817q0 -227 78 -446t219 -414h131q-133 198 -209 421t-76 439q0 214 76 438.5t209 421.5h-131
q-141 -195 -219 -414.5t-78 -445.5zM1884 817q0 226 -78 445.5t-219 414.5h-131q133 -197 209 -421.5t76 -438.5q0 -216 -76 -439t-209 -421h131q141 195 219 414t78 446z" />
    <glyph glyph-name="_840" unicode="&#x2481;" 
d="M750 262v1090h-125l-256 -135v-166l219 114v-903h162zM1071 633l193 375v-375h-193zM1534 633h-109v713h-159l-377 -734v-123h375v-233h161v233h109v144zM82 817q0 -227 78 -446t219 -414h131q-133 198 -209 421t-76 439q0 214 76 438.5t209 421.5h-131
q-141 -195 -219 -414.5t-78 -445.5zM1884 817q0 226 -78 445.5t-219 414.5h-131q133 -197 209 -421.5t76 -438.5q0 -216 -76 -439t-209 -421h131q141 195 219 414t78 446z" />
    <glyph glyph-name="_841" unicode="&#x2482;" 
d="M750 262v1090h-125l-256 -135v-166l219 114v-903h162zM1219 838q69 0 106 -58.5t37 -167.5q0 -112 -37 -170.5t-106 -58.5q-60 0 -97.5 51t-44.5 148h-162q12 -160 92 -250t212 -90q142 0 222.5 96.5t80.5 269.5q0 179 -78 276t-207 97q-64 0 -125 -37l12 262h351v142
h-504l-23 -621h152q42 111 119 111zM82 817q0 -227 78 -446t219 -414h131q-133 198 -209 421t-76 439q0 214 76 438.5t209 421.5h-131q-141 -195 -219 -414.5t-78 -445.5zM1884 817q0 226 -78 445.5t-219 414.5h-131q133 -197 209 -421.5t76 -438.5q0 -216 -76 -439
t-209 -421h131q141 195 219 414t78 446z" />
    <glyph glyph-name="_9042" unicode="&#x2483;" 
d="M750 262h-162v903l-219 -114v166l256 135h125v-1090zM1227 1229q-69 0 -103 -69t-43 -222q62 49 154 49q137 0 218 -99.5t81 -269.5t-85.5 -270t-221.5 -100q-97 0 -167.5 49.5t-105.5 144.5q-39 115 -39 297q0 349 74 494q69 137 240 137q120 0 195.5 -76.5t88.5 -222.5
h-163q-18 158 -123 158zM1077 618q0 -107 41 -168t109 -61q67 0 107 61t40 168q0 105 -40 165.5t-107 60.5q-68 0 -109 -60.5t-41 -165.5zM82 817q0 226 78 445.5t219 414.5h131q-133 -197 -209 -421.5t-76 -438.5q0 -216 76 -439t209 -421h-131q-141 195 -219 414t-78 446z
M1884 817q0 226 -78 445.5t-219 414.5h-131q133 -197 209 -421.5t76 -438.5q0 -216 -76 -439t-209 -421h131q141 195 219 414t78 446z" />
    <glyph glyph-name="_9043" unicode="&#x2484;" 
d="M754 254h-162v903l-219 -115v166l256 135h125v-1089zM934 1192v141h592v-110l-316 -979h-166l312 948h-422zM82 817q0 226 78 445.5t219 414.5h131q-133 -197 -209 -421.5t-76 -438.5q0 -216 76 -439t209 -421h-131q-141 195 -219 414t-78 446zM1884 817q0 226 -78 445.5
t-219 414.5h-131q133 -197 209 -421.5t76 -438.5q0 -216 -76 -439t-209 -421h131q141 195 219 414t78 446z" />
    <glyph glyph-name="_9044" unicode="&#x2485;" 
d="M750 262h-162v903l-219 -114v166l256 135h125v-1090zM1221 248q-145 0 -234.5 87.5t-89.5 237.5q0 94 38.5 162.5t108.5 104.5q-57 35 -88.5 98t-31.5 141q0 128 80.5 209.5t216.5 81.5t216.5 -81.5t80.5 -209.5q0 -78 -32 -141t-89 -98q70 -36 108.5 -104.5t38.5 -162.5
q0 -150 -89 -237.5t-234 -87.5zM1356 1069q0 72 -37.5 116t-97.5 44q-62 0 -100 -44t-38 -116t38 -115t100 -43q60 0 97.5 43t37.5 115zM1057 580q0 -88 45.5 -139.5t118.5 -51.5t118 51.5t45 139.5q0 87 -45 138.5t-118 51.5t-118.5 -51.5t-45.5 -138.5zM82 817
q0 226 78 445.5t219 414.5h131q-133 -197 -209 -421.5t-76 -438.5q0 -216 76 -439t209 -421h-131q-141 195 -219 414t-78 446zM1884 817q0 226 -78 445.5t-219 414.5h-131q133 -197 209 -421.5t76 -438.5q0 -216 -76 -439t-209 -421h131q141 195 219 414t78 446z" />
    <glyph glyph-name="_9045" unicode="&#x2486;" 
d="M750 262h-162v903l-219 -114v166l256 135h125v-1090zM1223 393q66 0 99 69t44 222q-62 -47 -154 -47q-136 0 -217.5 99t-81.5 270q0 169 86.5 268.5t223.5 99.5q198 0 270 -194q39 -107 39 -295q0 -349 -74 -494q-70 -139 -237 -139q-123 0 -198.5 76.5t-88.5 224.5h164
q9 -79 41 -119.5t84 -40.5zM1370 1006q0 106 -40 166.5t-107 60.5q-68 0 -108 -60.5t-40 -166.5t40 -167t108 -61q67 0 107 61t40 167zM82 817q0 226 78 445.5t219 414.5h131q-133 -197 -209 -421.5t-76 -438.5q0 -216 76 -439t209 -421h-131q-141 195 -219 414t-78 446z
M1884 817q0 226 -78 445.5t-219 414.5h-131q133 -197 209 -421.5t76 -438.5q0 -216 -76 -439t-209 -421h131q141 195 219 414t78 446z" />
    <glyph glyph-name="_9046" unicode="&#x2487;" 
d="M936 1049q0 -72 -19 -131.5t-67 -131.5l-250 -370h346v-144h-551v115l324 487q53 77 53 175q0 84 -31 136t-84 52t-82.5 -52t-29.5 -136v-54h-162v54q0 141 72.5 235t201.5 94q130 0 204.5 -94t74.5 -235zM1171 809q0 -155 13.5 -253.5t54.5 -139.5q27 -27 66 -27
q38 0 65 27q41 41 54.5 139.5t13.5 253.5t-13.5 253.5t-54.5 139.5q-27 27 -65 27q-39 0 -66 -27q-41 -41 -54.5 -139.5t-13.5 -253.5zM1010 809q0 407 145 516q60 45 150 45q89 0 149 -45q145 -109 145 -516t-145 -516q-60 -45 -149 -45q-90 0 -150 45q-145 109 -145 516z
M82 817q0 226 78 445.5t219 414.5h131q-133 -197 -209 -421.5t-76 -438.5q0 -216 76 -439t209 -421h-131q-141 195 -219 414t-78 446zM1884 817q0 226 -78 445.5t-219 414.5h-131q133 -197 209 -421.5t76 -438.5q0 -216 -76 -439t-209 -421h131q141 195 219 414t78 446z" />
    <glyph glyph-name="_801" unicode="&#x249c;" 
d="M1184 383h162q-25 70 -25 129v414q0 146 -87.5 230.5t-254.5 84.5q-156 0 -243.5 -76.5t-98.5 -210.5h162q8 71 52.5 111.5t127.5 40.5q89 0 135.5 -47.5t46.5 -132.5v-78q-76 63 -223 63q-153 0 -242.5 -72.5t-89.5 -199.5q0 -129 89 -201.5t243 -72.5t227 67
q5 -22 19 -49zM1161 639q0 -66 -50 -102.5t-146 -36.5q-97 0 -147 36.5t-50 102.5q0 64 50.5 100.5t146.5 36.5t146 -36.5t50 -100.5zM82 817q0 -227 78 -446t219 -414h131q-133 198 -209 421t-76 439q0 214 76 438.5t209 421.5h-131q-141 -195 -219 -414.5t-78 -445.5z
M1884 817q0 226 -78 445.5t-219 414.5h-131q133 -197 209 -421.5t76 -438.5q0 -216 -76 -439t-209 -421h131q141 195 219 414t78 446z" />
    <glyph glyph-name="_802" unicode="&#x249d;" 
d="M831 1427h-159v-1161h159v72q37 -40 97 -65t129 -25q168 0 258 110.5t90 327.5t-90 327.5t-258 110.5q-69 0 -129 -25t-97 -65v393zM831 686q0 147 49 225t160 78q205 0 205 -303t-205 -303q-111 0 -160 77.5t-49 225.5zM82 817q0 -227 78 -446t219 -414h131
q-133 198 -209 421t-76 439q0 214 76 438.5t209 421.5h-131q-141 -195 -219 -414.5t-78 -445.5zM1884 817q0 226 -78 445.5t-219 414.5h-131q133 -197 209 -421.5t76 -438.5q0 -216 -76 -439t-209 -421h131q141 195 219 414t78 446z" />
    <glyph glyph-name="_803" unicode="&#x249e;" 
d="M616 803q0 -211 92 -324.5t275 -113.5q155 0 247 81.5t109 231.5h-161q-11 -84 -61 -131t-134 -47q-110 0 -158.5 77.5t-48.5 225.5q0 147 48.5 225t158.5 78q84 0 134 -47t61 -131h161q-17 150 -109 231.5t-247 81.5q-183 0 -275 -113t-92 -325zM82 817q0 -227 78 -446
t219 -414h131q-133 198 -209 421t-76 439q0 214 76 438.5t209 421.5h-131q-141 -195 -219 -414.5t-78 -445.5zM1884 817q0 226 -78 445.5t-219 414.5h-131q133 -197 209 -421.5t76 -438.5q0 -216 -76 -439t-209 -421h131q141 195 219 414t78 446z" />
    <glyph glyph-name="_804" unicode="&#x249f;" 
d="M1122 1042q-37 40 -96 65.5t-127 25.5q-169 0 -259.5 -111t-90.5 -328t90.5 -327.5t259.5 -110.5q68 0 127 25t96 65v-72h160v1162h-160v-394zM1122 694q0 -148 -48.5 -225.5t-158.5 -77.5t-158 77.5t-48 225.5q0 147 48.5 225t157.5 78q110 0 158.5 -78t48.5 -225z
M82 817q0 -227 78 -446t219 -414h131q-133 198 -209 421t-76 439q0 214 76 438.5t209 421.5h-131q-141 -195 -219 -414.5t-78 -445.5zM1884 817q0 226 -78 445.5t-219 414.5h-131q133 -197 209 -421.5t76 -438.5q0 -216 -76 -439t-209 -421h131q141 195 219 414t78 446z" />
    <glyph glyph-name="_805" unicode="&#x24a0;" 
d="M1171 659q-12 -70 -62 -113.5t-124 -43.5q-196 0 -209 250h574v53q0 212 -92 325t-275 113t-275 -113t-92 -325q0 -213 92 -325.5t277 -112.5q146 0 235.5 76.5t114.5 215.5h-164zM776 879q19 229 207 229q186 0 205 -229h-412zM82 817q0 -227 78 -446t219 -414h131
q-133 198 -209 421t-76 439q0 214 76 438.5t209 421.5h-131q-141 -195 -219 -414.5t-78 -445.5zM1884 817q0 226 -78 445.5t-219 414.5h-131q133 -197 209 -421.5t76 -438.5q0 -216 -76 -439t-209 -421h131q141 195 219 414t78 446z" />
    <glyph glyph-name="_806" unicode="&#x24a1;" 
d="M1219 1247v129q-55 8 -109 8q-148 0 -209 -55.5t-61 -193.5v-84h-119v-136h119v-704h159v704h220v136h-220v75q0 68 26.5 94.5t96.5 26.5h97zM82 817q0 -227 78 -446t219 -414h131q-133 198 -209 421t-76 439q0 214 76 438.5t209 421.5h-131q-141 -195 -219 -414.5
t-78 -445.5zM1884 817q0 226 -78 445.5t-219 414.5h-131q133 -197 209 -421.5t76 -438.5q0 -216 -76 -439t-209 -421h131q141 195 219 414t78 446z" />
    <glyph glyph-name="_807" unicode="&#x24a2;" 
d="M1171 512q0 -99 -49 -154t-141 -55q-74 0 -122 38t-58 105h-162q15 -129 105 -203.5t237 -74.5q174 0 262 96.5t88 255.5v860h-160v-71q-37 40 -96 65t-127 25q-169 0 -259.5 -110.5t-90.5 -327.5q0 -216 90.5 -327.5t259.5 -111.5q149 0 223 90v-100zM1171 961
q0 -304 -206 -304q-110 0 -158.5 78t-48.5 226q0 147 48.5 225t158.5 78q206 0 206 -303zM82 817q0 -227 78 -446t219 -414h131q-133 198 -209 421t-76 439q0 214 76 438.5t209 421.5h-131q-141 -195 -219 -414.5t-78 -445.5zM1884 817q0 226 -78 445.5t-219 414.5h-131
q133 -197 209 -421.5t76 -438.5q0 -216 -76 -439t-209 -421h131q141 195 219 414t78 446z" />
    <glyph glyph-name="_808" unicode="&#x24a3;" 
d="M1372 772q0 162 -78 251t-223 89q-164 0 -240 -102v405h-159v-1161h159v432q0 135 59.5 213t151.5 78q86 0 129 -56t43 -178v-489h158v518zM82 817q0 -227 78 -446t219 -414h131q-133 198 -209 421t-76 439q0 214 76 438.5t209 421.5h-131q-141 -195 -219 -414.5
t-78 -445.5zM1884 817q0 226 -78 445.5t-219 414.5h-131q133 -197 209 -421.5t76 -438.5q0 -216 -76 -439t-209 -421h131q141 195 219 414t78 446z" />
    <glyph glyph-name="_809" unicode="&#x24a4;" 
d="M1063 233v840h-162v-840h162zM1063 1202v193h-162v-193h162zM82 817q0 -227 78 -446t219 -414h131q-133 198 -209 421t-76 439q0 214 76 438.5t209 421.5h-131q-141 -195 -219 -414.5t-78 -445.5zM1884 817q0 226 -78 445.5t-219 414.5h-131q133 -197 209 -421.5
t76 -438.5q0 -216 -76 -439t-209 -421h131q141 195 219 414t78 446z" />
    <glyph glyph-name="_810" unicode="&#x24a5;" 
d="M1114 1161h-162v-805q0 -55 -23.5 -79.5t-70.5 -24.5h-65v-131q27 -6 75 -6q126 0 186 63t60 189v794zM1114 1290v193h-162v-193h162zM82 817q0 -227 78 -446t219 -414h131q-133 198 -209 421t-76 439q0 214 76 438.5t209 421.5h-131q-141 -195 -219 -414.5t-78 -445.5z
M1884 817q0 226 -78 445.5t-219 414.5h-131q133 -197 209 -421.5t76 -438.5q0 -216 -76 -439t-209 -421h131q141 195 219 414t78 446z" />
    <glyph glyph-name="_811" unicode="&#x24a6;" 
d="M877 266v371h57l289 -371h194l-344 436l305 404h-186l-254 -334h-61v655h-160v-1161h160zM82 817q0 -227 78 -446t219 -414h131q-133 198 -209 421t-76 439q0 214 76 438.5t209 421.5h-131q-141 -195 -219 -414.5t-78 -445.5zM1884 817q0 226 -78 445.5t-219 414.5h-131
q133 -197 209 -421.5t76 -438.5q0 -216 -76 -439t-209 -421h131q141 195 219 414t78 446z" />
    <glyph glyph-name="_812" unicode="&#x24a7;" 
d="M1071 223v1161h-162v-1161h162zM82 817q0 -227 78 -446t219 -414h131q-133 198 -209 421t-76 439q0 214 76 438.5t209 421.5h-131q-141 -195 -219 -414.5t-78 -445.5zM1884 817q0 226 -78 445.5t-219 414.5h-131q133 -197 209 -421.5t76 -438.5q0 -216 -76 -439
t-209 -421h131q141 195 219 414t78 446z" />
    <glyph glyph-name="_813" unicode="&#x24a8;" 
d="M1073 815q0 137 54 214t139 77q153 0 153 -180v-543h160v541q0 153 -74.5 235t-212.5 82q-174 0 -258 -139q-35 67 -99.5 103t-148.5 36q-147 0 -219 -96v78h-159v-840h159v432q0 138 54 214.5t139 76.5q153 0 153 -180v-543h160v432zM82 817q0 -227 78 -446t219 -414
h131q-133 198 -209 421t-76 439q0 214 76 438.5t209 421.5h-131q-141 -195 -219 -414.5t-78 -445.5zM1884 817q0 226 -78 445.5t-219 414.5h-131q133 -197 209 -421.5t76 -438.5q0 -216 -76 -439t-209 -421h131q141 195 219 414t78 446z" />
    <glyph glyph-name="_814" unicode="&#x24a9;" 
d="M1341 901q0 162 -78 251t-223 89q-163 0 -239 -102v84h-160v-840h160v432q0 135 59.5 213t151.5 78q86 0 129 -56t43 -178v-489h157v518zM82 817q0 -227 78 -446t219 -414h131q-133 198 -209 421t-76 439q0 214 76 438.5t209 421.5h-131q-141 -195 -219 -414.5
t-78 -445.5zM1884 817q0 226 -78 445.5t-219 414.5h-131q133 -197 209 -421.5t76 -438.5q0 -216 -76 -439t-209 -421h131q141 195 219 414t78 446z" />
    <glyph glyph-name="_815" unicode="&#x24aa;" 
d="M1350 805q0 212 -92 325t-275 113t-275 -113t-92 -325q0 -211 92 -324.5t275 -113.5t275 113.5t92 324.5zM1190 805q0 -148 -48.5 -225.5t-158.5 -77.5t-158.5 77.5t-48.5 225.5q0 147 48.5 225t158.5 78t158.5 -78t48.5 -225zM82 817q0 -227 78 -446t219 -414h131
q-133 198 -209 421t-76 439q0 214 76 438.5t209 421.5h-131q-141 -195 -219 -414.5t-78 -445.5zM1884 817q0 226 -78 445.5t-219 414.5h-131q133 -197 209 -421.5t76 -438.5q0 -216 -76 -439t-209 -421h131q141 195 219 414t78 446z" />
    <glyph glyph-name="_816" unicode="&#x24ab;" 
d="M836 590q74 -90 223 -90q169 0 259.5 111t90.5 327q0 217 -90.5 327.5t-259.5 110.5q-68 0 -127 -25t-96 -65v72h-160v-1190h160v422zM836 938q0 147 48.5 225t157.5 78q207 0 207 -303t-207 -303q-110 0 -158 77.5t-48 225.5zM82 817q0 -227 78 -446t219 -414h131
q-133 198 -209 421t-76 439q0 214 76 438.5t209 421.5h-131q-141 -195 -219 -414.5t-78 -445.5zM1884 817q0 226 -78 445.5t-219 414.5h-131q133 -197 209 -421.5t76 -438.5q0 -216 -76 -439t-209 -421h131q141 195 219 414t78 446z" />
    <glyph glyph-name="_817" unicode="&#x24ac;" 
d="M1126 168h160v1190h-160v-72q-37 40 -96 65t-127 25q-169 0 -259.5 -110.5t-90.5 -327.5q0 -216 90.5 -327t259.5 -111q149 0 223 90v-422zM1126 938q0 -147 -49 -225t-157 -78q-110 0 -158.5 77.5t-48.5 225.5q0 147 48.5 225t158.5 78q206 0 206 -303zM82 817
q0 -227 78 -446t219 -414h131q-133 198 -209 421t-76 439q0 214 76 438.5t209 421.5h-131q-141 -195 -219 -414.5t-78 -445.5zM1884 817q0 226 -78 445.5t-219 414.5h-131q133 -197 209 -421.5t76 -438.5q0 -216 -76 -439t-209 -421h131q141 195 219 414t78 446z" />
    <glyph glyph-name="_818" unicode="&#x24ad;" 
d="M1161 1085q55 0 82 -2l2 125q-31 15 -80 15q-145 0 -213 -90v71h-159v-839h159v428q0 144 56 218t153 74zM82 817q0 -227 78 -446t219 -414h131q-133 198 -209 421t-76 439q0 214 76 438.5t209 421.5h-131q-141 -195 -219 -414.5t-78 -445.5zM1884 817q0 226 -78 445.5
t-219 414.5h-131q133 -197 209 -421.5t76 -438.5q0 -216 -76 -439t-209 -421h131q141 195 219 414t78 446z" />
    <glyph glyph-name="_819" unicode="&#x24ae;" 
d="M979 1243q-145 0 -228 -69t-83 -177q0 -101 62 -158t200 -83q16 -3 49 -10.5t49 -10.5q135 -31 135 -117q0 -52 -47.5 -84t-122.5 -32q-76 0 -123 32.5t-47 86.5v45h-159v-45q0 -113 90.5 -183.5t238.5 -70.5q149 0 239.5 71t90.5 183q0 108 -61 166.5t-197 86.5
l-47.5 9.5t-48.5 9.5q-77 18 -109.5 41t-32.5 65q0 47 41 79t111 32q72 0 113 -31.5t41 -79.5v-41h159v39q0 109 -83.5 177.5t-229.5 68.5zM82 817q0 -227 78 -446t219 -414h131q-133 198 -209 421t-76 439q0 214 76 438.5t209 421.5h-131q-141 -195 -219 -414.5t-78 -445.5
zM1884 817q0 226 -78 445.5t-219 414.5h-131q133 -197 209 -421.5t76 -438.5q0 -216 -76 -439t-209 -421h131q141 195 219 414t78 446z" />
    <glyph glyph-name="_820" unicode="&#x24af;" 
d="M989 1004h236v135h-236v227h-160v-227h-118v-135h118v-474q0 -136 65 -189.5t212 -53.5q72 0 119 6v131h-101q-73 0 -104 26t-31 99v455zM82 817q0 -227 78 -446t219 -414h131q-133 198 -209 421t-76 439q0 214 76 438.5t209 421.5h-131q-141 -195 -219 -414.5
t-78 -445.5zM1884 817q0 226 -78 445.5t-219 414.5h-131q133 -197 209 -421.5t76 -438.5q0 -216 -76 -439t-209 -421h131q141 195 219 414t78 446z" />
    <glyph glyph-name="_821" unicode="&#x24b0;" 
d="M612 694q0 -164 77.5 -253t223.5 -89q164 0 240 103v-84h160v839h-160v-432q0 -135 -59.5 -213t-151.5 -78q-86 0 -128 56t-42 180v487h-160v-516zM82 817q0 -227 78 -446t219 -414h131q-133 198 -209 421t-76 439q0 214 76 438.5t209 421.5h-131q-141 -195 -219 -414.5
t-78 -445.5zM1884 817q0 226 -78 445.5t-219 414.5h-131q133 -197 209 -421.5t76 -438.5q0 -216 -76 -439t-209 -421h131q141 195 219 414t78 446z" />
    <glyph glyph-name="_822" unicode="&#x24b1;" 
d="M1055 342l319 840h-168l-235 -627l-236 627h-168l320 -840h168zM82 817q0 -227 78 -446t219 -414h131q-133 198 -209 421t-76 439q0 214 76 438.5t209 421.5h-131q-141 -195 -219 -414.5t-78 -445.5zM1884 817q0 226 -78 445.5t-219 414.5h-131q133 -197 209 -421.5
t76 -438.5q0 -216 -76 -439t-209 -421h131q141 195 219 414t78 446z" />
    <glyph glyph-name="_823" unicode="&#x24b2;" 
d="M899 1198l-197 -602l-194 602h-166l281 -840h161l193 607l199 -607h159l281 840h-168l-193 -604l-196 604h-160zM82 817q0 -227 78 -446t219 -414h131q-133 198 -209 421t-76 439q0 214 76 438.5t209 421.5h-131q-141 -195 -219 -414.5t-78 -445.5zM1884 817
q0 226 -78 445.5t-219 414.5h-131q133 -197 209 -421.5t76 -438.5q0 -216 -76 -439t-209 -421h131q141 195 219 414t78 446z" />
    <glyph glyph-name="_824" unicode="&#x24b3;" 
d="M1202 375h178l-299 428l285 411h-180l-201 -290l-201 290h-178l285 -409l-301 -430h178l217 313zM82 817q0 -227 78 -446t219 -414h131q-133 198 -209 421t-76 439q0 214 76 438.5t209 421.5h-131q-141 -195 -219 -414.5t-78 -445.5zM1884 817q0 226 -78 445.5
t-219 414.5h-131q133 -197 209 -421.5t76 -438.5q0 -216 -76 -439t-209 -421h131q141 195 219 414t78 446z" />
    <glyph glyph-name="_825" unicode="&#x24b4;" 
d="M860 340q-18 -48 -43 -65t-65 -17h-62v-133q29 -4 72 -4q89 0 147 38.5t95 133.5l397 1018h-168l-236 -621l-237 621h-168l323 -824zM82 817q0 -227 78 -446t219 -414h131q-133 198 -209 421t-76 439q0 214 76 438.5t209 421.5h-131q-141 -195 -219 -414.5t-78 -445.5z
M1884 817q0 226 -78 445.5t-219 414.5h-131q133 -197 209 -421.5t76 -438.5q0 -216 -76 -439t-209 -421h131q141 195 219 414t78 446z" />
    <glyph glyph-name="_826" unicode="&#x24b5;" 
d="M1286 1225h-610v-135h405l-417 -592v-113h634v135h-432l420 592v113zM82 817q0 -227 78 -446t219 -414h131q-133 198 -209 421t-76 439q0 214 76 438.5t209 421.5h-131q-141 -195 -219 -414.5t-78 -445.5zM1884 817q0 226 -78 445.5t-219 414.5h-131q133 -197 209 -421.5
t76 -438.5q0 -216 -76 -439t-209 -421h131q141 195 219 414t78 446z" />
    <glyph glyph-name="_8388" unicode="&#x24b6;" 
d="M985 1679q179 0 343.5 -70.5t283.5 -189.5t189.5 -283t70.5 -343q0 -239 -119.5 -443.5t-324 -324t-443.5 -119.5q-181 0 -346 70.5t-284.5 189.5t-190 283.5t-70.5 343.5t70.5 343t190 283t284.5 189.5t346 70.5zM985 1599q-164 0 -313 -64t-256.5 -172t-171.5 -257
t-64 -313q0 -218 108 -404t293.5 -294.5t403.5 -108.5q162 0 310.5 64t255.5 172.5t171 258t64 312.5t-64 312.5t-171 257.5t-255.5 172t-310.5 64zM909 1356h144l401 -1047h-143l-101 273h-460l-99 -273h-143zM981 1219l-190 -523h380z" />
    <glyph glyph-name="_8389" unicode="&#x24b7;" 
d="M985 1679q179 0 343.5 -70.5t283.5 -189.5t189.5 -283t70.5 -343q0 -239 -119.5 -443.5t-324 -324t-443.5 -119.5q-181 0 -346 70.5t-284.5 189.5t-190 283.5t-70.5 343.5t70.5 343t190 283t284.5 189.5t346 70.5zM985 1599q-164 0 -313 -64t-256.5 -172t-171.5 -257
t-64 -313q0 -218 108 -404t293.5 -294.5t403.5 -108.5q162 0 310.5 64t255.5 172.5t171 258t64 312.5t-64 312.5t-171 257.5t-255.5 172t-310.5 64zM659 289v1046h359q162 0 253 -76.5t91 -199.5q0 -70 -35.5 -127t-95.5 -86q88 -32 136 -99.5t48 -156.5
q0 -142 -98.5 -221.5t-276.5 -79.5h-381zM791 891h208q111 0 171.5 44.5t60.5 123.5q0 160 -232 160h-208v-328zM1284 590q0 89 -66 136.5t-198 47.5h-229v-368h229q264 0 264 184z" />
    <glyph glyph-name="_8390" unicode="&#x24b8;" 
d="M985 1679q179 0 343.5 -70.5t283.5 -189.5t189.5 -283t70.5 -343q0 -239 -119.5 -443.5t-324 -324t-443.5 -119.5q-181 0 -346 70.5t-284.5 189.5t-190 283.5t-70.5 343.5t70.5 343t190 283t284.5 189.5t346 70.5zM985 1599q-164 0 -313 -64t-256.5 -172t-171.5 -257
t-64 -313q0 -218 108 -404t293.5 -294.5t403.5 -108.5q162 0 310.5 64t255.5 172.5t171 258t64 312.5t-64 312.5t-171 257.5t-255.5 172t-310.5 64zM526 813q0 238 147.5 389.5t389.5 151.5q136 0 244 -43l-13 -133q-99 57 -221 57q-192 0 -301.5 -118t-109.5 -304
q0 -193 111.5 -307.5t301.5 -114.5q121 0 223 60l15 -134q-98 -45 -242 -45q-249 0 -397 148.5t-148 392.5z" />
    <glyph glyph-name="_8391" unicode="&#x24b9;" 
d="M985 1679q179 0 343.5 -70.5t283.5 -189.5t189.5 -283t70.5 -343q0 -239 -119.5 -443.5t-324 -324t-443.5 -119.5q-181 0 -346 70.5t-284.5 189.5t-190 283.5t-70.5 343.5t70.5 343t190 283t284.5 189.5t346 70.5zM985 1599q-164 0 -313 -64t-256.5 -172t-171.5 -257
t-64 -313q0 -218 108 -404t293.5 -294.5t403.5 -108.5q162 0 310.5 64t255.5 172.5t171 258t64 312.5t-64 312.5t-171 257.5t-255.5 172t-310.5 64zM1346 813q0 406 -449 406h-115v-813h115q449 0 449 407zM1481 813q0 -128 -42.5 -228.5t-118.5 -164.5t-178 -97.5
t-224 -33.5h-267v1046h267q122 0 224 -33t178 -97t118.5 -164t42.5 -228z" />
    <glyph glyph-name="_8392" unicode="&#x24ba;" 
d="M985 1679q179 0 343.5 -70.5t283.5 -189.5t189.5 -283t70.5 -343q0 -239 -119.5 -443.5t-324 -324t-443.5 -119.5q-181 0 -346 70.5t-284.5 189.5t-190 283.5t-70.5 343.5t70.5 343t190 283t284.5 189.5t346 70.5zM985 1599q-164 0 -313 -64t-256.5 -172t-171.5 -257
t-64 -313q0 -218 108 -404t293.5 -294.5t403.5 -108.5q162 0 310.5 64t255.5 172.5t171 258t64 312.5t-64 312.5t-171 257.5t-255.5 172t-310.5 64zM662 289v1046h653v-116h-522v-332h483v-117h-483v-364h534v-117h-665z" />
    <glyph glyph-name="_8393" unicode="&#x24bb;" 
d="M985 1679q179 0 343.5 -70.5t283.5 -189.5t189.5 -283t70.5 -343q0 -239 -119.5 -443.5t-324 -324t-443.5 -119.5q-181 0 -346 70.5t-284.5 189.5t-190 283.5t-70.5 343.5t70.5 343t190 283t284.5 189.5t346 70.5zM985 1599q-164 0 -313 -64t-256.5 -172t-171.5 -257
t-64 -313q0 -218 108 -404t293.5 -294.5t403.5 -108.5q162 0 310.5 64t255.5 172.5t171 258t64 312.5t-64 312.5t-171 257.5t-255.5 172t-310.5 64zM698 289v1046h648v-116h-519v-326h484v-119h-484v-485h-129z" />
    <glyph glyph-name="_8394" unicode="&#x24bc;" 
d="M985 1679q179 0 343.5 -70.5t283.5 -189.5t189.5 -283t70.5 -343q0 -239 -119.5 -443.5t-324 -324t-443.5 -119.5q-181 0 -346 70.5t-284.5 189.5t-190 283.5t-70.5 343.5t70.5 343t190 283t284.5 189.5t346 70.5zM985 1599q-164 0 -313 -64t-256.5 -172t-171.5 -257
t-64 -313q0 -218 108 -404t293.5 -294.5t403.5 -108.5q162 0 310.5 64t255.5 172.5t171 258t64 312.5t-64 312.5t-171 257.5t-255.5 172t-310.5 64zM465 813q0 153 66 275t192 194t291 72q179 0 309 -54l-12 -131q-139 66 -289 66q-192 0 -308 -118t-116 -304
q0 -191 117 -306.5t325 -115.5q103 0 172 27v330h-284v116h415v-534q-140 -58 -315 -58q-255 0 -409 151t-154 390z" />
    <glyph glyph-name="_8395" unicode="&#x24bd;" 
d="M985 1679q179 0 343.5 -70.5t283.5 -189.5t189.5 -283t70.5 -343q0 -239 -119.5 -443.5t-324 -324t-443.5 -119.5q-181 0 -346 70.5t-284.5 189.5t-190 283.5t-70.5 343.5t70.5 343t190 283t284.5 189.5t346 70.5zM985 1599q-164 0 -313 -64t-256.5 -172t-171.5 -257
t-64 -313q0 -218 108 -404t293.5 -294.5t403.5 -108.5q162 0 310.5 64t255.5 172.5t171 258t64 312.5t-64 312.5t-171 257.5t-255.5 172t-310.5 64zM575 289v1046h132v-432h546v432h133v-1046h-133v497h-546v-497h-132z" />
    <glyph glyph-name="_8396" unicode="&#x24be;" 
d="M985 1679q179 0 343.5 -70.5t283.5 -189.5t189.5 -283t70.5 -343q0 -239 -119.5 -443.5t-324 -324t-443.5 -119.5q-181 0 -346 70.5t-284.5 189.5t-190 283.5t-70.5 343.5t70.5 343t190 283t284.5 189.5t346 70.5zM985 1599q-164 0 -313 -64t-256.5 -172t-171.5 -257
t-64 -313q0 -218 108 -404t293.5 -294.5t403.5 -108.5q162 0 310.5 64t255.5 172.5t171 258t64 312.5t-64 312.5t-171 257.5t-255.5 172t-310.5 64zM915 1335h132v-1046h-132v1046z" />
    <glyph glyph-name="_8397" unicode="&#x24bf;" 
d="M985 1679q179 0 343.5 -70.5t283.5 -189.5t189.5 -283t70.5 -343q0 -239 -119.5 -443.5t-324 -324t-443.5 -119.5q-181 0 -346 70.5t-284.5 189.5t-190 283.5t-70.5 343.5t70.5 343t190 283t284.5 189.5t346 70.5zM985 1599q-164 0 -313 -64t-256.5 -172t-171.5 -257
t-64 -313q0 -218 108 -404t293.5 -294.5t403.5 -108.5q162 0 310.5 64t255.5 172.5t171 258t64 312.5t-64 312.5t-171 257.5t-255.5 172t-310.5 64zM1114 627v704h131v-704q0 -357 -311 -357q-132 0 -219 43l10 131q82 -55 205 -55q184 0 184 238z" />
    <glyph glyph-name="_8398" unicode="&#x24c0;" 
d="M985 1679q179 0 343.5 -70.5t283.5 -189.5t189.5 -283t70.5 -343q0 -239 -119.5 -443.5t-324 -324t-443.5 -119.5q-181 0 -346 70.5t-284.5 189.5t-190 283.5t-70.5 343.5t70.5 343t190 283t284.5 189.5t346 70.5zM985 1599q-164 0 -313 -64t-256.5 -172t-171.5 -257
t-64 -313q0 -218 108 -404t293.5 -294.5t403.5 -108.5q162 0 310.5 64t255.5 172.5t171 258t64 312.5t-64 312.5t-171 257.5t-255.5 172t-310.5 64zM1212 1335h164l-469 -489l541 -557h-176l-504 532v-532h-131v1046h131v-463z" />
    <glyph glyph-name="_8399" unicode="&#x24c1;" 
d="M985 1679q179 0 343.5 -70.5t283.5 -189.5t189.5 -283t70.5 -343q0 -239 -119.5 -443.5t-324 -324t-443.5 -119.5q-181 0 -346 70.5t-284.5 189.5t-190 283.5t-70.5 343.5t70.5 343t190 283t284.5 189.5t346 70.5zM985 1599q-164 0 -313 -64t-256.5 -172t-171.5 -257
t-64 -313q0 -218 108 -404t293.5 -294.5t403.5 -108.5q162 0 310.5 64t255.5 172.5t171 258t64 312.5t-64 312.5t-171 257.5t-255.5 172t-310.5 64zM674 289v1046h131v-929h563v-117h-694z" />
    <glyph glyph-name="_8400" unicode="&#x24c2;" 
d="M985 1679q179 0 343.5 -70.5t283.5 -189.5t189.5 -283t70.5 -343q0 -239 -119.5 -443.5t-324 -324t-443.5 -119.5q-181 0 -346 70.5t-284.5 189.5t-190 283.5t-70.5 343.5t70.5 343t190 283t284.5 189.5t346 70.5zM985 1599q-164 0 -313 -64t-256.5 -172t-171.5 -257
t-64 -313q0 -218 108 -404t293.5 -294.5t403.5 -108.5q162 0 310.5 64t255.5 172.5t171 258t64 312.5t-64 312.5t-171 257.5t-255.5 172t-310.5 64zM1036 637h-110l-332 508v-856h-125v1046h139l373 -575l373 575h139v-1046h-125v856z" />
    <glyph glyph-name="_8401" unicode="&#x24c3;" 
d="M985 1679q179 0 343.5 -70.5t283.5 -189.5t189.5 -283t70.5 -343q0 -239 -119.5 -443.5t-324 -324t-443.5 -119.5q-181 0 -346 70.5t-284.5 189.5t-190 283.5t-70.5 343.5t70.5 343t190 283t284.5 189.5t346 70.5zM985 1599q-164 0 -313 -64t-256.5 -172t-171.5 -257
t-64 -313q0 -218 108 -404t293.5 -294.5t403.5 -108.5q162 0 310.5 64t255.5 172.5t171 258t64 312.5t-64 312.5t-171 257.5t-255.5 172t-310.5 64zM571 289v1046h158l537 -882v882h125v-1046h-158l-537 882v-882h-125z" />
    <glyph glyph-name="_8402" unicode="&#x24c4;" 
d="M985 1679q179 0 343.5 -70.5t283.5 -189.5t189.5 -283t70.5 -343q0 -239 -119.5 -443.5t-324 -324t-443.5 -119.5q-181 0 -346 70.5t-284.5 189.5t-190 283.5t-70.5 343.5t70.5 343t190 283t284.5 189.5t346 70.5zM985 1599q-164 0 -313 -64t-256.5 -172t-171.5 -257
t-64 -313q0 -218 108 -404t293.5 -294.5t403.5 -108.5q162 0 310.5 64t255.5 172.5t171 258t64 312.5t-64 312.5t-171 257.5t-255.5 172t-310.5 64zM1448 813q0 -154 -54.5 -275.5t-161.5 -193.5t-251 -72q-145 0 -252.5 72t-162 193.5t-54.5 275.5q0 153 54.5 274.5
t162 194t252.5 72.5q215 0 341 -153.5t126 -387.5zM647 813q0 -193 91 -307.5t243 -114.5q151 0 241.5 114.5t90.5 307.5t-90.5 307.5t-241.5 114.5q-152 0 -243 -114.5t-91 -307.5z" />
    <glyph glyph-name="_8403" unicode="&#x24c5;" 
d="M985 1679q179 0 343.5 -70.5t283.5 -189.5t189.5 -283t70.5 -343q0 -239 -119.5 -443.5t-324 -324t-443.5 -119.5q-181 0 -346 70.5t-284.5 189.5t-190 283.5t-70.5 343.5t70.5 343t190 283t284.5 189.5t346 70.5zM985 1599q-164 0 -313 -64t-256.5 -172t-171.5 -257
t-64 -313q0 -218 108 -404t293.5 -294.5t403.5 -108.5q162 0 310.5 64t255.5 172.5t171 258t64 312.5t-64 312.5t-171 257.5t-255.5 172t-310.5 64zM1419 1010q0 -153 -105.5 -238.5t-283.5 -85.5h-192v-397h-133v1046h325q178 0 283.5 -85.5t105.5 -239.5zM1286 1010
q0 107 -65.5 158t-200.5 51h-182v-416h182q136 0 201 50t65 157z" />
    <glyph glyph-name="_8404" unicode="&#x24c6;" 
d="M985 1679q179 0 343.5 -70.5t283.5 -189.5t189.5 -283t70.5 -343q0 -239 -119.5 -443.5t-324 -324t-443.5 -119.5q-181 0 -346 70.5t-284.5 189.5t-190 283.5t-70.5 343.5t70.5 343t190 283t284.5 189.5t346 70.5zM985 1599q-164 0 -313 -64t-256.5 -172t-171.5 -257
t-64 -313q0 -218 108 -404t293.5 -294.5t403.5 -108.5q162 0 310.5 64t255.5 172.5t171 258t64 312.5t-64 312.5t-171 257.5t-255.5 172t-310.5 64zM1436 862q0 -210 -103 -357.5t-282 -176.5q12 -68 61 -95q46 -24 135 -24q61 0 127 16l15 -108q-81 -15 -146 -15
q-127 0 -207 45q-89 59 -110 177q-198 15 -312 165t-114 373q0 153 54.5 274.5t162 194t252.5 72.5q215 0 341 -153.5t126 -387.5zM635 862q0 -193 90.5 -306.5t243.5 -113.5q151 0 241 113.5t90 306.5t-90 306.5t-241 113.5q-153 0 -243.5 -113.5t-90.5 -306.5z" />
    <glyph glyph-name="_8405" unicode="&#x24c7;" 
d="M985 1679q179 0 343.5 -70.5t283.5 -189.5t189.5 -283t70.5 -343q0 -239 -119.5 -443.5t-324 -324t-443.5 -119.5q-181 0 -346 70.5t-284.5 189.5t-190 283.5t-70.5 343.5t70.5 343t190 283t284.5 189.5t346 70.5zM985 1599q-164 0 -313 -64t-256.5 -172t-171.5 -257
t-64 -313q0 -218 108 -404t293.5 -294.5t403.5 -108.5q162 0 310.5 64t255.5 172.5t171 258t64 312.5t-64 312.5t-171 257.5t-255.5 172t-310.5 64zM1393 1030q0 -110 -63 -182t-171 -103l299 -456h-151l-283 438h-225v-438h-133v1046h350q165 0 271 -80t106 -225z
M1257 1030q0 189 -251 189h-207v-377h207q251 0 251 188z" />
    <glyph glyph-name="_8406" unicode="&#x24c8;" 
d="M985 1679q179 0 343.5 -70.5t283.5 -189.5t189.5 -283t70.5 -343q0 -239 -119.5 -443.5t-324 -324t-443.5 -119.5q-181 0 -346 70.5t-284.5 189.5t-190 283.5t-70.5 343.5t70.5 343t190 283t284.5 189.5t346 70.5zM985 1599q-164 0 -313 -64t-256.5 -172t-171.5 -257
t-64 -313q0 -218 108 -404t293.5 -294.5t403.5 -108.5q162 0 310.5 64t255.5 172.5t171 258t64 312.5t-64 312.5t-171 257.5t-255.5 172t-310.5 64zM1260 1307l-11 -131q-102 59 -241 59q-111 0 -167.5 -40t-56.5 -110q0 -63 49.5 -108t159.5 -82q174 -59 250 -135t76 -195
q0 -139 -99 -216t-278 -77q-161 0 -285 70l11 135q124 -86 284 -86q113 0 172.5 43.5t59.5 122.5q0 75 -52 124.5t-176 88.5q-157 52 -232 127t-75 188q0 125 96 197t265 72q141 0 250 -47z" />
    <glyph glyph-name="_8407" unicode="&#x24c9;" 
d="M985 1679q179 0 343.5 -70.5t283.5 -189.5t189.5 -283t70.5 -343q0 -239 -119.5 -443.5t-324 -324t-443.5 -119.5q-181 0 -346 70.5t-284.5 189.5t-190 283.5t-70.5 343.5t70.5 343t190 283t284.5 189.5t346 70.5zM985 1599q-164 0 -313 -64t-256.5 -172t-171.5 -257
t-64 -313q0 -218 108 -404t293.5 -294.5t403.5 -108.5q162 0 310.5 64t255.5 172.5t171 258t64 312.5t-64 312.5t-171 257.5t-255.5 172t-310.5 64zM915 289v930h-325v116h782v-116h-325v-930h-132z" />
    <glyph glyph-name="_8408" unicode="&#x24ca;" 
d="M985 1679q179 0 343.5 -70.5t283.5 -189.5t189.5 -283t70.5 -343q0 -239 -119.5 -443.5t-324 -324t-443.5 -119.5q-181 0 -346 70.5t-284.5 189.5t-190 283.5t-70.5 343.5t70.5 343t190 283t284.5 189.5t346 70.5zM985 1599q-164 0 -313 -64t-256.5 -172t-171.5 -257
t-64 -313q0 -218 108 -404t293.5 -294.5t403.5 -108.5q162 0 310.5 64t255.5 172.5t171 258t64 312.5t-64 312.5t-171 257.5t-255.5 172t-310.5 64zM981 270q-190 0 -303 108t-113 316v637h131v-629q0 -313 285 -313q283 0 283 313v629h131v-637q0 -210 -109.5 -317
t-304.5 -107z" />
    <glyph glyph-name="_8409" unicode="&#x24cb;" 
d="M985 1679q179 0 343.5 -70.5t283.5 -189.5t189.5 -283t70.5 -343q0 -239 -119.5 -443.5t-324 -324t-443.5 -119.5q-181 0 -346 70.5t-284.5 189.5t-190 283.5t-70.5 343.5t70.5 343t190 283t284.5 189.5t346 70.5zM985 1599q-164 0 -313 -64t-256.5 -172t-171.5 -257
t-64 -313q0 -218 108 -404t293.5 -294.5t403.5 -108.5q162 0 310.5 64t255.5 172.5t171 258t64 312.5t-64 312.5t-171 257.5t-255.5 172t-310.5 64zM1053 289h-144l-401 1046h135l338 -891l336 891h137z" />
    <glyph glyph-name="_8410" unicode="&#x24cc;" 
d="M985 1679q179 0 343.5 -70.5t283.5 -189.5t189.5 -283t70.5 -343q0 -239 -119.5 -443.5t-324 -324t-443.5 -119.5q-181 0 -346 70.5t-284.5 189.5t-190 283.5t-70.5 343.5t70.5 343t190 283t284.5 189.5t346 70.5zM985 1599q-164 0 -313 -64t-256.5 -172t-171.5 -257
t-64 -313q0 -218 108 -404t293.5 -294.5t403.5 -108.5q162 0 310.5 64t255.5 172.5t171 258t64 312.5t-64 312.5t-171 257.5t-255.5 172t-310.5 64zM901 1335h160l162 -891l207 891h141l-258 -1046h-178l-154 878l-156 -878h-176l-258 1046h139l209 -891z" />
    <glyph glyph-name="_8411" unicode="&#x24cd;" 
d="M985 1679q179 0 343.5 -70.5t283.5 -189.5t189.5 -283t70.5 -343q0 -239 -119.5 -443.5t-324 -324t-443.5 -119.5q-181 0 -346 70.5t-284.5 189.5t-190 283.5t-70.5 343.5t70.5 343t190 283t284.5 189.5t346 70.5zM985 1599q-164 0 -313 -64t-256.5 -172t-171.5 -257
t-64 -313q0 -218 108 -404t293.5 -294.5t403.5 -108.5q162 0 310.5 64t255.5 172.5t171 258t64 312.5t-64 312.5t-171 257.5t-255.5 172t-310.5 64zM903 821l-383 514h154l307 -415l307 415h154l-383 -514l397 -532h-153l-322 434l-324 -434h-151z" />
    <glyph glyph-name="_8412" unicode="&#x24ce;" 
d="M985 1679q179 0 343.5 -70.5t283.5 -189.5t189.5 -283t70.5 -343q0 -239 -119.5 -443.5t-324 -324t-443.5 -119.5q-181 0 -346 70.5t-284.5 189.5t-190 283.5t-70.5 343.5t70.5 343t190 283t284.5 189.5t346 70.5zM985 1599q-164 0 -313 -64t-256.5 -172t-171.5 -257
t-64 -313q0 -218 108 -404t293.5 -294.5t403.5 -108.5q162 0 310.5 64t255.5 172.5t171 258t64 312.5t-64 312.5t-171 257.5t-255.5 172t-310.5 64zM1446 1335l-399 -630v-416h-132v416l-399 630h154l311 -506l311 506h154z" />
    <glyph glyph-name="_8413" unicode="&#x24cf;" 
d="M985 1679q179 0 343.5 -70.5t283.5 -189.5t189.5 -283t70.5 -343q0 -239 -119.5 -443.5t-324 -324t-443.5 -119.5q-181 0 -346 70.5t-284.5 189.5t-190 283.5t-70.5 343.5t70.5 343t190 283t284.5 189.5t346 70.5zM985 1599q-164 0 -313 -64t-256.5 -172t-171.5 -257
t-64 -313q0 -218 108 -404t293.5 -294.5t403.5 -108.5q162 0 310.5 64t255.5 172.5t171 258t64 312.5t-64 312.5t-171 257.5t-255.5 172t-310.5 64zM606 422l584 797h-561v116h710v-131l-583 -798h600v-117h-750v133z" />
    <glyph glyph-name="_707" unicode="&#x24d0;" 
d="M55 805q0 -192 73 -363.5t197 -294t296 -194.5t362 -72t362 72t296 194.5t197 294t73 363.5t-73 363.5t-197 294t-296 194.5t-362 72t-362 -72t-296 -194.5t-197 -294t-73 -363.5zM176 805q0 168 63 318.5t171 258.5t257.5 171t315.5 63t315.5 -63t257.5 -171t171 -258.5
t63 -318.5t-63 -318.5t-171 -258.5t-257.5 -171t-315.5 -63t-315.5 63t-257.5 171t-171 258.5t-63 318.5zM1184 383h162q-25 70 -25 129v414q0 146 -87.5 230.5t-254.5 84.5q-156 0 -243.5 -76.5t-98.5 -210.5h162q8 71 52.5 111.5t127.5 40.5q89 0 135.5 -47.5t46.5 -132.5
v-78q-76 63 -223 63q-153 0 -242.5 -72.5t-89.5 -199.5q0 -129 89 -201.5t243 -72.5t227 67q5 -22 19 -49zM1161 639q0 -66 -50 -102.5t-146 -36.5q-97 0 -147 36.5t-50 102.5q0 64 50.5 100.5t146.5 36.5t146 -36.5t50 -100.5z" />
    <glyph glyph-name="_708" unicode="&#x24d1;" 
d="M55 805q0 -192 73 -363.5t197 -294t296 -194.5t362 -72t362 72t296 194.5t197 294t73 363.5t-73 363.5t-197 294t-296 194.5t-362 72t-362 -72t-296 -194.5t-197 -294t-73 -363.5zM176 805q0 168 63 318.5t171 258.5t257.5 171t315.5 63t315.5 -63t257.5 -171t171 -258.5
t63 -318.5t-63 -318.5t-171 -258.5t-257.5 -171t-315.5 -63t-315.5 63t-257.5 171t-171 258.5t-63 318.5zM831 1427h-159v-1161h159v72q37 -40 97 -65t129 -25q168 0 258 110.5t90 327.5t-90 327.5t-258 110.5q-69 0 -129 -25t-97 -65v393zM831 686q0 147 49 225t160 78
q205 0 205 -303t-205 -303q-111 0 -160 77.5t-49 225.5z" />
    <glyph glyph-name="_709" unicode="&#x24d2;" 
d="M55 805q0 -192 73 -363.5t197 -294t296 -194.5t362 -72t362 72t296 194.5t197 294t73 363.5t-73 363.5t-197 294t-296 194.5t-362 72t-362 -72t-296 -194.5t-197 -294t-73 -363.5zM176 805q0 168 63 318.5t171 258.5t257.5 171t315.5 63t315.5 -63t257.5 -171t171 -258.5
t63 -318.5t-63 -318.5t-171 -258.5t-257.5 -171t-315.5 -63t-315.5 63t-257.5 171t-171 258.5t-63 318.5zM616 803q0 -211 92 -324.5t275 -113.5q155 0 247 81.5t109 231.5h-161q-11 -84 -61 -131t-134 -47q-110 0 -158.5 77.5t-48.5 225.5q0 147 48.5 225t158.5 78
q84 0 134 -47t61 -131h161q-17 150 -109 231.5t-247 81.5q-183 0 -275 -113t-92 -325z" />
    <glyph glyph-name="_710" unicode="&#x24d3;" 
d="M55 805q0 -192 73 -363.5t197 -294t296 -194.5t362 -72t362 72t296 194.5t197 294t73 363.5t-73 363.5t-197 294t-296 194.5t-362 72t-362 -72t-296 -194.5t-197 -294t-73 -363.5zM176 805q0 168 63 318.5t171 258.5t257.5 171t315.5 63t315.5 -63t257.5 -171t171 -258.5
t63 -318.5t-63 -318.5t-171 -258.5t-257.5 -171t-315.5 -63t-315.5 63t-257.5 171t-171 258.5t-63 318.5zM1122 1042q-37 40 -96 65.5t-127 25.5q-169 0 -259.5 -111t-90.5 -328t90.5 -327.5t259.5 -110.5q68 0 127 25t96 65v-72h160v1162h-160v-394zM1122 694
q0 -148 -48.5 -225.5t-158.5 -77.5t-158 77.5t-48 225.5q0 147 48.5 225t157.5 78q110 0 158.5 -78t48.5 -225z" />
    <glyph glyph-name="_711" unicode="&#x24d4;" 
d="M55 805q0 -192 73 -363.5t197 -294t296 -194.5t362 -72t362 72t296 194.5t197 294t73 363.5t-73 363.5t-197 294t-296 194.5t-362 72t-362 -72t-296 -194.5t-197 -294t-73 -363.5zM176 805q0 168 63 318.5t171 258.5t257.5 171t315.5 63t315.5 -63t257.5 -171t171 -258.5
t63 -318.5t-63 -318.5t-171 -258.5t-257.5 -171t-315.5 -63t-315.5 63t-257.5 171t-171 258.5t-63 318.5zM1171 659q-12 -70 -62 -113.5t-124 -43.5q-196 0 -209 250h574v53q0 212 -92 325t-275 113t-275 -113t-92 -325q0 -213 92 -325.5t277 -112.5q146 0 235.5 76.5
t114.5 215.5h-164zM776 879q19 229 207 229q186 0 205 -229h-412z" />
    <glyph glyph-name="_712" unicode="&#x24d5;" 
d="M55 805q0 -192 73 -363.5t197 -294t296 -194.5t362 -72t362 72t296 194.5t197 294t73 363.5t-73 363.5t-197 294t-296 194.5t-362 72t-362 -72t-296 -194.5t-197 -294t-73 -363.5zM176 805q0 168 63 318.5t171 258.5t257.5 171t315.5 63t315.5 -63t257.5 -171t171 -258.5
t63 -318.5t-63 -318.5t-171 -258.5t-257.5 -171t-315.5 -63t-315.5 63t-257.5 171t-171 258.5t-63 318.5zM1219 1247v129q-55 8 -109 8q-148 0 -209 -55.5t-61 -193.5v-84h-119v-136h119v-704h159v704h220v136h-220v75q0 68 26.5 94.5t96.5 26.5h97z" />
    <glyph glyph-name="_713" unicode="&#x24d6;" 
d="M55 805q0 -192 73 -363.5t197 -294t296 -194.5t362 -72t362 72t296 194.5t197 294t73 363.5t-73 363.5t-197 294t-296 194.5t-362 72t-362 -72t-296 -194.5t-197 -294t-73 -363.5zM176 805q0 168 63 318.5t171 258.5t257.5 171t315.5 63t315.5 -63t257.5 -171t171 -258.5
t63 -318.5t-63 -318.5t-171 -258.5t-257.5 -171t-315.5 -63t-315.5 63t-257.5 171t-171 258.5t-63 318.5zM1171 512q0 -99 -49 -154t-141 -55q-74 0 -122 38t-58 105h-162q15 -129 105 -203.5t237 -74.5q174 0 262 96.5t88 255.5v860h-160v-71q-37 40 -96 65t-127 25
q-169 0 -259.5 -110.5t-90.5 -327.5q0 -216 90.5 -327.5t259.5 -111.5q149 0 223 90v-100zM1171 961q0 -304 -206 -304q-110 0 -158.5 78t-48.5 226q0 147 48.5 225t158.5 78q206 0 206 -303z" />
    <glyph glyph-name="_714" unicode="&#x24d7;" 
d="M55 805q0 -192 73 -363.5t197 -294t296 -194.5t362 -72t362 72t296 194.5t197 294t73 363.5t-73 363.5t-197 294t-296 194.5t-362 72t-362 -72t-296 -194.5t-197 -294t-73 -363.5zM176 805q0 168 63 318.5t171 258.5t257.5 171t315.5 63t315.5 -63t257.5 -171t171 -258.5
t63 -318.5t-63 -318.5t-171 -258.5t-257.5 -171t-315.5 -63t-315.5 63t-257.5 171t-171 258.5t-63 318.5zM1372 772q0 162 -78 251t-223 89q-164 0 -240 -102v405h-159v-1161h159v432q0 135 59.5 213t151.5 78q86 0 129 -56t43 -178v-489h158v518z" />
    <glyph glyph-name="_715" unicode="&#x24d8;" 
d="M55 805q0 -192 73 -363.5t197 -294t296 -194.5t362 -72t362 72t296 194.5t197 294t73 363.5t-73 363.5t-197 294t-296 194.5t-362 72t-362 -72t-296 -194.5t-197 -294t-73 -363.5zM176 805q0 168 63 318.5t171 258.5t257.5 171t315.5 63t315.5 -63t257.5 -171t171 -258.5
t63 -318.5t-63 -318.5t-171 -258.5t-257.5 -171t-315.5 -63t-315.5 63t-257.5 171t-171 258.5t-63 318.5zM1063 233v840h-162v-840h162zM1063 1202v193h-162v-193h162z" />
    <glyph glyph-name="_716" unicode="&#x24d9;" 
d="M55 805q0 -192 73 -363.5t197 -294t296 -194.5t362 -72t362 72t296 194.5t197 294t73 363.5t-73 363.5t-197 294t-296 194.5t-362 72t-362 -72t-296 -194.5t-197 -294t-73 -363.5zM176 805q0 168 63 318.5t171 258.5t257.5 171t315.5 63t315.5 -63t257.5 -171t171 -258.5
t63 -318.5t-63 -318.5t-171 -258.5t-257.5 -171t-315.5 -63t-315.5 63t-257.5 171t-171 258.5t-63 318.5zM1114 1161h-162v-805q0 -55 -23.5 -79.5t-70.5 -24.5h-65v-131q27 -6 75 -6q126 0 186 63t60 189v794zM1114 1290v193h-162v-193h162z" />
    <glyph glyph-name="_717" unicode="&#x24da;" 
d="M55 805q0 -192 73 -363.5t197 -294t296 -194.5t362 -72t362 72t296 194.5t197 294t73 363.5t-73 363.5t-197 294t-296 194.5t-362 72t-362 -72t-296 -194.5t-197 -294t-73 -363.5zM176 805q0 168 63 318.5t171 258.5t257.5 171t315.5 63t315.5 -63t257.5 -171t171 -258.5
t63 -318.5t-63 -318.5t-171 -258.5t-257.5 -171t-315.5 -63t-315.5 63t-257.5 171t-171 258.5t-63 318.5zM877 266v371h57l289 -371h194l-344 436l305 404h-186l-254 -334h-61v655h-160v-1161h160z" />
    <glyph glyph-name="_718" unicode="&#x24db;" 
d="M55 805q0 -192 73 -363.5t197 -294t296 -194.5t362 -72t362 72t296 194.5t197 294t73 363.5t-73 363.5t-197 294t-296 194.5t-362 72t-362 -72t-296 -194.5t-197 -294t-73 -363.5zM176 805q0 168 63 318.5t171 258.5t257.5 171t315.5 63t315.5 -63t257.5 -171t171 -258.5
t63 -318.5t-63 -318.5t-171 -258.5t-257.5 -171t-315.5 -63t-315.5 63t-257.5 171t-171 258.5t-63 318.5zM1071 223v1161h-162v-1161h162z" />
    <glyph glyph-name="_719" unicode="&#x24dc;" 
d="M55 805q0 -192 73 -363.5t197 -294t296 -194.5t362 -72t362 72t296 194.5t197 294t73 363.5t-73 363.5t-197 294t-296 194.5t-362 72t-362 -72t-296 -194.5t-197 -294t-73 -363.5zM176 805q0 168 63 318.5t171 258.5t257.5 171t315.5 63t315.5 -63t257.5 -171t171 -258.5
t63 -318.5t-63 -318.5t-171 -258.5t-257.5 -171t-315.5 -63t-315.5 63t-257.5 171t-171 258.5t-63 318.5zM1073 815q0 137 54 214t139 77q153 0 153 -180v-543h160v541q0 153 -74.5 235t-212.5 82q-174 0 -258 -139q-35 67 -99.5 103t-148.5 36q-147 0 -219 -96v78h-159
v-840h159v432q0 138 54 214.5t139 76.5q153 0 153 -180v-543h160v432z" />
    <glyph glyph-name="_720" unicode="&#x24dd;" 
d="M55 805q0 -192 73 -363.5t197 -294t296 -194.5t362 -72t362 72t296 194.5t197 294t73 363.5t-73 363.5t-197 294t-296 194.5t-362 72t-362 -72t-296 -194.5t-197 -294t-73 -363.5zM176 805q0 168 63 318.5t171 258.5t257.5 171t315.5 63t315.5 -63t257.5 -171t171 -258.5
t63 -318.5t-63 -318.5t-171 -258.5t-257.5 -171t-315.5 -63t-315.5 63t-257.5 171t-171 258.5t-63 318.5zM1341 901q0 162 -78 251t-223 89q-163 0 -239 -102v84h-160v-840h160v432q0 135 59.5 213t151.5 78q86 0 129 -56t43 -178v-489h157v518z" />
    <glyph glyph-name="_721" unicode="&#x24de;" 
d="M55 805q0 -192 73 -363.5t197 -294t296 -194.5t362 -72t362 72t296 194.5t197 294t73 363.5t-73 363.5t-197 294t-296 194.5t-362 72t-362 -72t-296 -194.5t-197 -294t-73 -363.5zM176 805q0 168 63 318.5t171 258.5t257.5 171t315.5 63t315.5 -63t257.5 -171t171 -258.5
t63 -318.5t-63 -318.5t-171 -258.5t-257.5 -171t-315.5 -63t-315.5 63t-257.5 171t-171 258.5t-63 318.5zM1350 805q0 212 -92 325t-275 113t-275 -113t-92 -325q0 -211 92 -324.5t275 -113.5t275 113.5t92 324.5zM1190 805q0 -148 -48.5 -225.5t-158.5 -77.5t-158.5 77.5
t-48.5 225.5q0 147 48.5 225t158.5 78t158.5 -78t48.5 -225z" />
    <glyph glyph-name="_722" unicode="&#x24df;" 
d="M55 805q0 -192 73 -363.5t197 -294t296 -194.5t362 -72t362 72t296 194.5t197 294t73 363.5t-73 363.5t-197 294t-296 194.5t-362 72t-362 -72t-296 -194.5t-197 -294t-73 -363.5zM176 805q0 168 63 318.5t171 258.5t257.5 171t315.5 63t315.5 -63t257.5 -171t171 -258.5
t63 -318.5t-63 -318.5t-171 -258.5t-257.5 -171t-315.5 -63t-315.5 63t-257.5 171t-171 258.5t-63 318.5zM836 590q74 -90 223 -90q169 0 259.5 111t90.5 327q0 217 -90.5 327.5t-259.5 110.5q-68 0 -127 -25t-96 -65v72h-160v-1190h160v422zM836 938q0 147 48.5 225
t157.5 78q207 0 207 -303t-207 -303q-110 0 -158 77.5t-48 225.5z" />
    <glyph glyph-name="_723" unicode="&#x24e0;" 
d="M55 805q0 -192 73 -363.5t197 -294t296 -194.5t362 -72t362 72t296 194.5t197 294t73 363.5t-73 363.5t-197 294t-296 194.5t-362 72t-362 -72t-296 -194.5t-197 -294t-73 -363.5zM176 805q0 168 63 318.5t171 258.5t257.5 171t315.5 63t315.5 -63t257.5 -171t171 -258.5
t63 -318.5t-63 -318.5t-171 -258.5t-257.5 -171t-315.5 -63t-315.5 63t-257.5 171t-171 258.5t-63 318.5zM1126 168h160v1190h-160v-72q-37 40 -96 65t-127 25q-169 0 -259.5 -110.5t-90.5 -327.5q0 -216 90.5 -327t259.5 -111q149 0 223 90v-422zM1126 938q0 -147 -49 -225
t-157 -78q-110 0 -158.5 77.5t-48.5 225.5q0 147 48.5 225t158.5 78q206 0 206 -303z" />
    <glyph glyph-name="_724" unicode="&#x24e1;" 
d="M55 805q0 -192 73 -363.5t197 -294t296 -194.5t362 -72t362 72t296 194.5t197 294t73 363.5t-73 363.5t-197 294t-296 194.5t-362 72t-362 -72t-296 -194.5t-197 -294t-73 -363.5zM176 805q0 168 63 318.5t171 258.5t257.5 171t315.5 63t315.5 -63t257.5 -171t171 -258.5
t63 -318.5t-63 -318.5t-171 -258.5t-257.5 -171t-315.5 -63t-315.5 63t-257.5 171t-171 258.5t-63 318.5zM1161 1085q55 0 82 -2l2 125q-31 15 -80 15q-145 0 -213 -90v71h-159v-839h159v428q0 144 56 218t153 74z" />
    <glyph glyph-name="_725" unicode="&#x24e2;" 
d="M55 805q0 -192 73 -363.5t197 -294t296 -194.5t362 -72t362 72t296 194.5t197 294t73 363.5t-73 363.5t-197 294t-296 194.5t-362 72t-362 -72t-296 -194.5t-197 -294t-73 -363.5zM176 805q0 168 63 318.5t171 258.5t257.5 171t315.5 63t315.5 -63t257.5 -171t171 -258.5
t63 -318.5t-63 -318.5t-171 -258.5t-257.5 -171t-315.5 -63t-315.5 63t-257.5 171t-171 258.5t-63 318.5zM979 1243q-145 0 -228 -69t-83 -177q0 -101 62 -158t200 -83q16 -3 49 -10.5t49 -10.5q135 -31 135 -117q0 -52 -47.5 -84t-122.5 -32q-76 0 -123 32.5t-47 86.5v45
h-159v-45q0 -113 90.5 -183.5t238.5 -70.5q149 0 239.5 71t90.5 183q0 108 -61 166.5t-197 86.5l-47.5 9.5t-48.5 9.5q-77 18 -109.5 41t-32.5 65q0 47 41 79t111 32q72 0 113 -31.5t41 -79.5v-41h159v39q0 109 -83.5 177.5t-229.5 68.5z" />
    <glyph glyph-name="_726" unicode="&#x24e3;" 
d="M55 805q0 -192 73 -363.5t197 -294t296 -194.5t362 -72t362 72t296 194.5t197 294t73 363.5t-73 363.5t-197 294t-296 194.5t-362 72t-362 -72t-296 -194.5t-197 -294t-73 -363.5zM176 805q0 168 63 318.5t171 258.5t257.5 171t315.5 63t315.5 -63t257.5 -171t171 -258.5
t63 -318.5t-63 -318.5t-171 -258.5t-257.5 -171t-315.5 -63t-315.5 63t-257.5 171t-171 258.5t-63 318.5zM989 1004h236v135h-236v227h-160v-227h-118v-135h118v-474q0 -136 65 -189.5t212 -53.5q72 0 119 6v131h-101q-73 0 -104 26t-31 99v455z" />
    <glyph glyph-name="_727" unicode="&#x24e4;" 
d="M55 805q0 -192 73 -363.5t197 -294t296 -194.5t362 -72t362 72t296 194.5t197 294t73 363.5t-73 363.5t-197 294t-296 194.5t-362 72t-362 -72t-296 -194.5t-197 -294t-73 -363.5zM176 805q0 168 63 318.5t171 258.5t257.5 171t315.5 63t315.5 -63t257.5 -171t171 -258.5
t63 -318.5t-63 -318.5t-171 -258.5t-257.5 -171t-315.5 -63t-315.5 63t-257.5 171t-171 258.5t-63 318.5zM612 694q0 -164 77.5 -253t223.5 -89q164 0 240 103v-84h160v839h-160v-432q0 -135 -59.5 -213t-151.5 -78q-86 0 -128 56t-42 180v487h-160v-516z" />
    <glyph glyph-name="_728" unicode="&#x24e5;" 
d="M55 805q0 -192 73 -363.5t197 -294t296 -194.5t362 -72t362 72t296 194.5t197 294t73 363.5t-73 363.5t-197 294t-296 194.5t-362 72t-362 -72t-296 -194.5t-197 -294t-73 -363.5zM176 805q0 168 63 318.5t171 258.5t257.5 171t315.5 63t315.5 -63t257.5 -171t171 -258.5
t63 -318.5t-63 -318.5t-171 -258.5t-257.5 -171t-315.5 -63t-315.5 63t-257.5 171t-171 258.5t-63 318.5zM1055 342l319 840h-168l-235 -627l-236 627h-168l320 -840h168z" />
    <glyph glyph-name="_729" unicode="&#x24e6;" 
d="M55 805q0 -192 73 -363.5t197 -294t296 -194.5t362 -72t362 72t296 194.5t197 294t73 363.5t-73 363.5t-197 294t-296 194.5t-362 72t-362 -72t-296 -194.5t-197 -294t-73 -363.5zM176 805q0 168 63 318.5t171 258.5t257.5 171t315.5 63t315.5 -63t257.5 -171t171 -258.5
t63 -318.5t-63 -318.5t-171 -258.5t-257.5 -171t-315.5 -63t-315.5 63t-257.5 171t-171 258.5t-63 318.5zM899 1198l-197 -602l-194 602h-166l281 -840h161l193 607l199 -607h159l281 840h-168l-193 -604l-196 604h-160z" />
    <glyph glyph-name="_730" unicode="&#x24e7;" 
d="M55 805q0 -192 73 -363.5t197 -294t296 -194.5t362 -72t362 72t296 194.5t197 294t73 363.5t-73 363.5t-197 294t-296 194.5t-362 72t-362 -72t-296 -194.5t-197 -294t-73 -363.5zM176 805q0 168 63 318.5t171 258.5t257.5 171t315.5 63t315.5 -63t257.5 -171t171 -258.5
t63 -318.5t-63 -318.5t-171 -258.5t-257.5 -171t-315.5 -63t-315.5 63t-257.5 171t-171 258.5t-63 318.5zM1202 375h178l-299 428l285 411h-180l-201 -290l-201 290h-178l285 -409l-301 -430h178l217 313z" />
    <glyph glyph-name="_731" unicode="&#x24e8;" 
d="M55 805q0 -192 73 -363.5t197 -294t296 -194.5t362 -72t362 72t296 194.5t197 294t73 363.5t-73 363.5t-197 294t-296 194.5t-362 72t-362 -72t-296 -194.5t-197 -294t-73 -363.5zM176 805q0 168 63 318.5t171 258.5t257.5 171t315.5 63t315.5 -63t257.5 -171t171 -258.5
t63 -318.5t-63 -318.5t-171 -258.5t-257.5 -171t-315.5 -63t-315.5 63t-257.5 171t-171 258.5t-63 318.5zM860 340q-18 -48 -43 -65t-65 -17h-62v-133q29 -4 72 -4q89 0 147 38.5t95 133.5l397 1018h-168l-236 -621l-237 621h-168l323 -824z" />
    <glyph glyph-name="_732" unicode="&#x24e9;" 
d="M55 805q0 -192 73 -363.5t197 -294t296 -194.5t362 -72t362 72t296 194.5t197 294t73 363.5t-73 363.5t-197 294t-296 194.5t-362 72t-362 -72t-296 -194.5t-197 -294t-73 -363.5zM176 805q0 168 63 318.5t171 258.5t257.5 171t315.5 63t315.5 -63t257.5 -171t171 -258.5
t63 -318.5t-63 -318.5t-171 -258.5t-257.5 -171t-315.5 -63t-315.5 63t-257.5 171t-171 258.5t-63 318.5zM1286 1225h-610v-135h405l-417 -592v-113h634v135h-432l420 592v113z" />
    <glyph glyph-name="_519" unicode="&#x2500;" 
d="M1966 854h-1966v-121h1966v121z" />
    <glyph glyph-name="_530" unicode="&#x2501;" 
d="M0 891v-193h1966v193h-1966z" />
    <glyph glyph-name="_520" unicode="&#x2502;" 
d="M924 1819v-2048h120v2048h-120z" />
    <glyph glyph-name="_531" unicode="&#x2503;" 
d="M887 1819v-2048h192v2048h-192z" />
    <glyph glyph-name="_521" unicode="&#x250c;" 
d="M924 -229h120v962h922v121h-1042v-1083z" />
    <glyph glyph-name="_558" unicode="&#x250d;" 
d="M944 891v-1120h76v927h946v193h-1022z" />
    <glyph glyph-name="_557" unicode="&#x250e;" 
d="M1079 756h887v73h-1079v-1058h192v985z" />
    <glyph glyph-name="_532" unicode="&#x250f;" 
d="M887 891v-1120h192v927h887v193h-1079z" />
    <glyph glyph-name="_522" unicode="&#x2510;" 
d="M1044 854h-1044v-121h924v-962h120v1083z" />
    <glyph glyph-name="_552" unicode="&#x2511;" 
d="M944 698v-927h76v1120h-1020v-193h944z" />
    <glyph glyph-name="_551" unicode="&#x2512;" 
d="M887 756v-985h192v1058h-1079v-73h887z" />
    <glyph glyph-name="_533" unicode="&#x2513;" 
d="M0 891v-193h887v-927h192v1120h-1079z" />
    <glyph glyph-name="_524" unicode="&#x2514;" 
d="M924 733h1042v121h-922v965h-120v-1086z" />
    <glyph glyph-name="_556" unicode="&#x2515;" 
d="M1020 891v928h-76v-1121h1022v193h-946z" />
    <glyph glyph-name="_555" unicode="&#x2516;" 
d="M1079 829v990h-192v-1063h1079v73h-887z" />
    <glyph glyph-name="_535" unicode="&#x2517;" 
d="M887 1819v-1121h1079v193h-887v928h-192z" />
    <glyph glyph-name="_523" unicode="&#x2518;" 
d="M1044 1819h-120v-965h-924v-121h1044v1086z" />
    <glyph glyph-name="_554" unicode="&#x2519;" 
d="M944 891h-944v-193h1020v1121h-76v-928z" />
    <glyph glyph-name="_553" unicode="&#x251a;" 
d="M887 829h-887v-73h1079v1063h-192v-990z" />
    <glyph glyph-name="_534" unicode="&#x251b;" 
d="M887 1819v-928h-887v-193h1079v1121h-192z" />
    <glyph glyph-name="_525" unicode="&#x251c;" 
d="M924 1819v-2048h120v962h922v121h-922v965h-120z" />
    <glyph glyph-name="_546" unicode="&#x251d;" 
d="M1966 891h-946v928h-76v-2048h76v927h946v193z" />
    <glyph glyph-name="_559" unicode="&#x251e;" 
d="M887 1819v-1063h57v-985h76v985h946v73h-887v990h-192z" />
    <glyph glyph-name="_560" unicode="&#x251f;" 
d="M944 1819v-990h-57v-1058h192v985h887v73h-946v990h-76z" />
    <glyph glyph-name="_541" unicode="&#x2520;" 
d="M1966 829h-887v990h-192v-2048h192v985h887v73z" />
    <glyph glyph-name="_561" unicode="&#x2521;" 
d="M944 -229h76v927h946v193h-887v928h-192v-1121h57v-927z" />
    <glyph glyph-name="_562" unicode="&#x2522;" 
d="M887 -229h192v927h887v193h-946v928h-76v-928h-57v-1120z" />
    <glyph glyph-name="_536" unicode="&#x2523;" 
d="M887 1819v-2048h192v927h887v193h-887v928h-192z" />
    <glyph glyph-name="_527" unicode="&#x2524;" 
d="M1044 1819h-120v-965h-924v-121h924v-962h120v2048z" />
    <glyph glyph-name="_548" unicode="&#x2525;" 
d="M944 891h-944v-193h944v-927h76v2048h-76v-928z" />
    <glyph glyph-name="_563" unicode="&#x2526;" 
d="M887 1819v-990h-887v-73h944v-985h76v985h59v1063h-192z" />
    <glyph glyph-name="_564" unicode="&#x2527;" 
d="M0 829v-73h887v-985h192v1058h-59v990h-76v-990h-944z" />
    <glyph glyph-name="_543" unicode="&#x2528;" 
d="M1079 -229v2048h-192v-990h-887v-73h887v-985h192z" />
    <glyph glyph-name="_565" unicode="&#x2529;" 
d="M0 698h944v-927h76v927h59v1121h-192v-928h-887v-193z" />
    <glyph glyph-name="_566" unicode="&#x252a;" 
d="M0 698h887v-927h192v1120h-59v928h-76v-928h-944v-193z" />
    <glyph glyph-name="_538" unicode="&#x252b;" 
d="M0 698h887v-927h192v2048h-192v-928h-887v-193z" />
    <glyph glyph-name="_526" unicode="&#x252c;" 
d="M1966 854h-1966v-121h924v-962h120v962h922v121z" />
    <glyph glyph-name="_567" unicode="&#x252d;" 
d="M0 698h944v-927h76v985h946v73h-946v62h-1020v-193z" />
    <glyph glyph-name="_568" unicode="&#x252e;" 
d="M0 756h944v-985h76v927h946v193h-1022v-62h-944v-73z" />
    <glyph glyph-name="_542" unicode="&#x252f;" 
d="M1966 891h-1966v-193h944v-927h76v927h946v193z" />
    <glyph glyph-name="_547" unicode="&#x2530;" 
d="M1966 829h-1966v-73h887v-985h192v985h887v73z" />
    <glyph glyph-name="_569" unicode="&#x2531;" 
d="M0 698h887v-927h192v985h887v73h-887v62h-1079v-193z" />
    <glyph glyph-name="_570" unicode="&#x2532;" 
d="M0 756h887v-985h192v927h887v193h-1079v-62h-887v-73z" />
    <glyph glyph-name="_537" unicode="&#x2533;" 
d="M0 698h887v-927h192v927h887v193h-1966v-193z" />
    <glyph glyph-name="_528" unicode="&#x2534;" 
d="M1966 733v121h-922v965h-120v-965h-924v-121h1966z" />
    <glyph glyph-name="_571" unicode="&#x2535;" 
d="M0 698h1020v58h946v73h-946v990h-76v-928h-944v-193z" />
    <glyph glyph-name="_572" unicode="&#x2536;" 
d="M0 756h944v-58h1022v193h-946v928h-76v-990h-944v-73z" />
    <glyph glyph-name="_544" unicode="&#x2537;" 
d="M944 891h-944v-193h1966v193h-946v928h-76v-928z" />
    <glyph glyph-name="_549" unicode="&#x2538;" 
d="M887 829h-887v-73h1966v73h-887v990h-192v-990z" />
    <glyph glyph-name="_573" unicode="&#x2539;" 
d="M0 698h1079v58h887v73h-887v990h-192v-928h-887v-193z" />
    <glyph glyph-name="_574" unicode="&#x253a;" 
d="M0 756h887v-58h1079v193h-887v928h-192v-990h-887v-73z" />
    <glyph glyph-name="_539" unicode="&#x253b;" 
d="M887 891h-887v-193h1966v193h-887v928h-192v-928z" />
    <glyph glyph-name="_529" unicode="&#x253c;" 
d="M924 1819v-965h-924v-121h924v-962h120v962h922v121h-922v965h-120z" />
    <glyph glyph-name="_575" unicode="&#x253d;" 
d="M0 698h944v-927h76v985h946v73h-946v990h-76v-928h-944v-193z" />
    <glyph glyph-name="_576" unicode="&#x253e;" 
d="M1020 1819h-76v-990h-944v-73h944v-985h76v927h946v193h-946v928z" />
    <glyph glyph-name="_545" unicode="&#x253f;" 
d="M944 891h-944v-193h944v-927h76v927h946v193h-946v928h-76v-928z" />
    <glyph glyph-name="_577" unicode="&#x2540;" 
d="M1079 1819h-192v-990h-887v-73h944v-985h76v985h946v73h-887v990z" />
    <glyph glyph-name="_578" unicode="&#x2541;" 
d="M1020 1819h-76v-990h-944v-73h887v-985h192v985h887v73h-946v990z" />
    <glyph glyph-name="_550" unicode="&#x2542;" 
d="M887 829h-887v-73h887v-985h192v985h887v73h-887v990h-192v-990z" />
    <glyph glyph-name="_579" unicode="&#x2543;" 
d="M1079 1819h-192v-928h-887v-193h944v-927h76v927h59v58h887v73h-887v990z" />
    <glyph glyph-name="_580" unicode="&#x2544;" 
d="M1020 -229v927h946v193h-887v928h-192v-990h-887v-73h887v-58h57v-927h76z" />
    <glyph glyph-name="_581" unicode="&#x2545;" 
d="M1020 1819h-76v-928h-944v-193h887v-927h192v985h887v73h-887v62h-59v928z" />
    <glyph glyph-name="_582" unicode="&#x2546;" 
d="M1020 1819h-76v-928h-57v-62h-887v-73h887v-985h192v925h887v195h-946v928z" />
    <glyph glyph-name="_583" unicode="&#x2547;" 
d="M1079 1819h-192v-928h-887v-193h944v-927h76v927h946v193h-887v928z" />
    <glyph glyph-name="_584" unicode="&#x2548;" 
d="M1020 1819h-76v-928h-944v-193h887v-927h192v927h887v193h-946v928z" />
    <glyph glyph-name="_585" unicode="&#x2549;" 
d="M1079 1819h-192v-928h-887v-193h887v-927h192v985h887v73h-887v990z" />
    <glyph glyph-name="_586" unicode="&#x254a;" 
d="M1079 1819h-192v-990h-887v-73h887v-985h192v927h887v193h-887v928z" />
    <glyph glyph-name="_540" unicode="&#x254b;" 
d="M887 891h-887v-193h887v-927h192v927h887v193h-887v928h-192v-928z" />
    <glyph glyph-name="_232" unicode="&#x2592;" 
d="M924 139h110v115h-110v-115zM1319 254v-115h106v115h-106zM1231 139v115h-111v-115h111zM641 139v115h-106v-115h106zM444 139v115h-108v-115h108zM836 139v115h-109v-115h109zM1513 254v-115h109v115h-109zM924 344h110v111h-110v-111zM1319 455v-111h106v111h-106z
M1231 344v111h-111v-111h111zM641 344v111h-106v-111h106zM444 344v111h-108v-111h108zM836 344v111h-109v-111h109zM1513 455v-111h109v111h-109zM924 543h110v112h-110v-112zM1319 655v-112h106v112h-106zM1231 543v112h-111v-112h111zM641 543v112h-106v-112h106z
M444 543v112h-108v-112h108zM836 543v112h-109v-112h109zM1513 655v-112h109v112h-109zM924 741h110v119h-110v-119zM1319 860v-119h106v119h-106zM1231 741v119h-111v-119h111zM641 741v119h-106v-119h106zM444 741v119h-108v-119h108zM836 741v119h-109v-119h109z
M1513 860v-119h109v119h-109zM924 948h110v113h-110v-113zM1319 1061v-113h106v113h-106zM1231 948v113h-111v-113h111zM641 948v113h-106v-113h106zM444 948v113h-108v-113h108zM836 948v113h-109v-113h109zM1513 1061v-113h109v113h-109zM924 1147h110v113h-110v-113z
M1319 1260v-113h106v113h-106zM1231 1147v113h-111v-113h111zM641 1147v113h-106v-113h106zM444 1147v113h-108v-113h108zM836 1147v113h-109v-113h109zM1513 1260v-113h109v113h-109zM924 1348h110v114h-110v-114zM1319 1462v-114h106v114h-106zM1231 1348v114h-111v-114
h111zM641 1348v114h-106v-114h106zM444 1348v114h-108v-114h108zM836 1348v114h-109v-114h109zM1513 1462v-114h109v114h-109zM1778 16v1575h-1590v-1575h1590zM285 90v1417h1392v-1417h-1392z" />
    <glyph glyph-name="_165" unicode="&#x25a0;" 
d="M1755 35v1534h-1544v-1534h1544z" />
    <glyph glyph-name="_164" unicode="&#x25a1;" 
d="M1755 35v1534h-1544v-1534h1544zM367 178v1247h1232v-1247h-1232z" />
    <glyph glyph-name="_229" unicode="&#x25a3;" 
d="M676 492h614v620h-614v-620zM1755 35v1534h-1544v-1534h1544zM367 178v1247h1232v-1247h-1232z" />
    <glyph glyph-name="_233" unicode="&#x25a4;" 
d="M1778 16v1575h-1590v-1575h1590zM1677 244v-154h-1392v154h1392zM1677 455v-154h-1392v154h1392zM1677 664v-152h-1392v152h1392zM1677 877v-154h-1392v154h1392zM1677 1085v-151h-1392v151h1392zM1677 1298v-153h-1392v153h1392zM1677 1507v-151h-1392v151h1392z" />
    <glyph glyph-name="_234" unicode="&#x25a5;" 
d="M1778 16v1575h-1590v-1575h1590zM1538 1499h152v-1393h-152v1393zM1325 1499h154v-1393h-154v1393zM1114 1499h154v-1393h-154v1393zM903 1499h154v-1393h-154v1393zM692 1499h154v-1393h-154v1393zM481 1499h154v-1393h-154v1393zM270 1499h154v-1393h-154v1393z" />
    <glyph glyph-name="_237" unicode="&#x25a6;" 
d="M1778 16v1575h-1590v-1575h1590zM903 248h156v-154h-156v154zM1485 248v-154h-156v154h156zM1116 94v154h156v-154h-156zM477 94v154h156v-154h-156zM264 94v154h156v-154h-156zM690 94v154h156v-154h-156zM1698 248v-154h-156v154h156zM903 459h156v-154h-156v154z
M1485 459v-154h-156v154h156zM1116 305v154h156v-154h-156zM477 305v154h156v-154h-156zM264 305v154h156v-154h-156zM690 305v154h156v-154h-156zM1698 459v-154h-156v154h156zM903 670h156v-154h-156v154zM1485 670v-154h-156v154h156zM1116 516v154h156v-154h-156z
M477 516v154h156v-154h-156zM264 516v154h156v-154h-156zM690 516v154h156v-154h-156zM1698 670v-154h-156v154h156zM903 881h156v-154h-156v154zM1485 881v-154h-156v154h156zM1116 727v154h156v-154h-156zM477 727v154h156v-154h-156zM264 727v154h156v-154h-156zM690 727
v154h156v-154h-156zM1698 881v-154h-156v154h156zM903 1090h156v-152h-156v152zM1485 1090v-152h-156v152h156zM1116 938v152h156v-152h-156zM477 938v152h156v-152h-156zM264 938v152h156v-152h-156zM690 938v152h156v-152h-156zM1698 1090v-152h-156v152h156zM903 1303
h156v-154h-156v154zM1485 1303v-154h-156v154h156zM1116 1149v154h156v-154h-156zM477 1149v154h156v-154h-156zM264 1149v154h156v-154h-156zM690 1149v154h156v-154h-156zM1698 1303v-154h-156v154h156zM903 1511h156v-151h-156v151zM1485 1511v-151h-156v151h156z
M1116 1360v151h156v-151h-156zM477 1360v151h156v-151h-156zM264 1360v151h156v-151h-156zM690 1360v151h156v-151h-156zM1698 1511v-151h-156v151h156z" />
    <glyph glyph-name="_236" unicode="&#x25a7;" 
d="M1778 16v1575h-1590v-1575h1590zM508 1505l1180 -1177v-187l-1364 1364h184zM1460 98l-1179 1180v184l1361 -1364h-182zM281 1190l1089 -1092h-192l-897 895v197zM281 342l241 -244h-241v244zM612 98l-331 332v195l524 -527h-193zM1087 98h-192l-614 615v192zM1679 1262
l-241 243h241v-243zM1348 1505l331 -331v-193l-524 524h193zM872 1505h193l614 -612v-195zM1688 416l-1092 1089h195l897 -895v-194z" />
    <glyph glyph-name="_235" unicode="&#x25a8;" 
d="M1778 16v1575h-1590v-1575h1590zM1454 1505h184l-1364 -1364v187zM502 98h-183l1362 1364v-184zM1681 1190v-197l-897 -895h-192zM1681 342v-244h-241zM1350 98h-193l524 527v-195zM874 98l807 807v-192l-614 -615h-193zM283 1262v243h241zM614 1505h193l-524 -524v193z
M1090 1505l-807 -807v195l614 612h193zM274 416v194l897 895h195z" />
    <glyph glyph-name="_238" unicode="&#x25a9;" 
d="M1778 16v1575h-1590v-1575h1590zM1532 981l133 133l27 -24v-211l-31 -29zM1661 489l-135 138l133 133l33 -33v-207zM1004 1511h262l28 -26l-131 -129zM436 985l-135 -135l-31 33v207l33 28zM270 375l35 28l113 -114l-148 -152v238zM301 489l-31 31v207l33 33l133 -133z
M555 1511l23 -22l-115 -121l-146 143h238zM807 1356l-133 131l20 24h217l25 -22zM1350 96l145 148l147 -148h-292zM270 1237v231l148 -147l-115 -117zM807 252l129 -131l-25 -25h-217l-20 23zM557 96h-238l144 146l117 -123zM1004 96l157 160l133 -131l-28 -29h-262z
M1692 375v-238l-148 152l113 114zM1350 1511h292l-147 -145zM1692 1237l-33 -33l-115 117l148 147v-231zM627 1442l133 -133l-119 -117l-133 133zM461 1278l135 -133l-117 -119l-133 135zM983 1442l133 -133l-131 -135l-131 135zM807 1260l131 -132l-117 -116l-133 133z
M641 1098l133 -133l-115 -117l-133 133zM481 938l135 -133l-135 -133l-133 133zM1161 1262l117 -117l-133 -131l-113 116zM985 1083l113 -116l-117 -117l-115 117zM819 920l115 -117l-115 -117l-114 119zM662 762l114 -117l-133 -135l-117 117zM1327 1100l115 -119
l-133 -131l-113 117zM1149 920l113 -117l-117 -117l-115 117zM983 758l115 -119l-115 -117l-115 119zM825 600l115 -121l-133 -135l-117 121zM1489 938l133 -131l-131 -133l-133 131zM1311 760l133 -133l-117 -117l-135 131zM1145 596l137 -133l-119 -117l-133 133zM987 436
l133 -133l-133 -133l-133 131zM1487 582l131 -131l-117 -117l-133 129zM1321 418l133 -131l-115 -117l-133 131zM1339 1442l115 -119l-131 -131l-115 117zM1503 1278l115 -119l-131 -133l-113 119zM479 582l117 -119l-135 -133l-115 119zM643 418l117 -119l-135 -133
l-115 119z" />
    <glyph glyph-name="_8736" unicode="&#x25b1;" 
d="M266 350l232 936h1202l-234 -936h-1200zM559 1212l-199 -784h1045l199 784h-1045z" />
    <glyph glyph-name="_167" unicode="&#x25b2;" 
d="M983 1642l-924 -1601h1848z" />
    <glyph glyph-name="_166" unicode="&#x25b3;" 
d="M983 1642l-924 -1601h1848zM983 1352l672 -1174h-1344z" />
    <glyph glyph-name="_8780" unicode="&#x25b5;" 
d="M248 238l737 1247l731 -1247h-1468zM1413 412l-428 729l-434 -729h862z" />
    <glyph glyph-name="_220" unicode="&#x25b6;" 
d="M244 1724v-1847l1601 924z" />
    <glyph glyph-name="_219" unicode="&#x25b7;" 
d="M244 1724v-1847l1601 924zM403 129v1344l1162 -672z" />
    <glyph glyph-name="_8781" unicode="&#x25b9;" 
d="M356 1532l1252 -731l-1252 -733v1464zM530 371l732 430l-732 428v-858z" />
    <glyph glyph-name="_169" unicode="&#x25bc;" 
d="M1907 1571h-1848l924 -1602z" />
    <glyph glyph-name="_168" unicode="&#x25bd;" 
d="M1907 1571h-1848l924 -1602zM311 1434h1344l-672 -1174z" />
    <glyph glyph-name="_8779" unicode="&#x25bf;" 
d="M1716 1360l-731 -1245l-737 1245h1468zM551 1188l434 -729l428 729h-862z" />
    <glyph glyph-name="_218" unicode="&#x25c0;" 
d="M121 801l1601 -924v1847z" />
    <glyph glyph-name="_217" unicode="&#x25c1;" 
d="M121 801l1601 -924v1847zM401 801l1162 672v-1344z" />
    <glyph glyph-name="_8782" unicode="&#x25c3;" 
d="M1608 68l-1252 733l1252 731v-1464zM1434 1229l-732 -428l732 -430v858z" />
    <glyph glyph-name="_163" unicode="&#x25c6;" 
d="M983 1780l-942 -979l942 -979l942 979z" />
    <glyph glyph-name="_162" unicode="&#x25c7;" 
d="M983 1780l-942 -979l942 -979l942 979zM983 1575l739 -774l-739 -772l-741 772z" />
    <glyph glyph-name="_228" unicode="&#x25c8;" 
d="M981 1188l-383 -391l383 -391l383 391zM983 1780l-942 -979l942 -979l942 979zM983 1575l739 -774l-739 -772l-741 772z" />
    <glyph glyph-name="_8787" unicode="&#x25ca;" 
d="M1702 801l-717 -848l-721 848l721 848zM455 801l530 -623l526 623l-526 622z" />
    <glyph glyph-name="_159" unicode="&#x25cb;" 
d="M1876 797q0 184 -71 350t-190.5 285.5t-284.5 189.5t-347 70t-347.5 -70t-285.5 -189.5t-191 -285.5t-71 -350q0 -123 32 -239.5t89 -214.5t139 -180t180.5 -139t215 -88.5t239.5 -31.5q183 0 348.5 70t284.5 188.5t189.5 284.5t70.5 350zM242 797q0 205 97 376.5
t267.5 271t376.5 99.5t377 -99.5t268.5 -271t97.5 -376.5q0 -204 -97.5 -376t-268.5 -272t-377 -100t-376.5 100t-267.5 272t-97 376z" />
    <glyph glyph-name="_8639" unicode="&#x25cc;" 
d="M748 1649l18 -68q-106 -31 -178 -76l-39 64q102 55 199 80zM436 1491l43 -55q-87 -73 -137 -146l-61 51q96 104 155 150zM213 1233l63 -37q-28 -52 -75 -180l-70 14q25 106 82 203zM109 907l69 -6q-10 -62 -10 -100q0 -29 8 -99l-72 -8q-4 35 -4 107q0 64 9 106zM133 567
l68 19q31 -102 75 -183l-63 -34q-59 102 -80 198zM285 260l57 45q50 -65 137 -141l-43 -55q-80 68 -151 151zM588 96q68 -44 178 -73l-21 -70q-98 25 -196 80q37 59 39 63zM1087 1675l-8 -71q-66 8 -94 8q-21 0 -55.5 -3.5t-48.5 -4.5l-7 69q35 8 111 8q67 0 102 -6z
M1221 -47l-21 70q101 27 180 75l37 -65q-104 -56 -196 -80zM1526 102l-43 60q3 3 20.5 18.5t22 20t19 18.5t21.5 21t18 18.5t19.5 21.5t16.5 21l57 -45q-75 -92 -151 -154zM1753 369l-61 39q43 77 73 178l68 -19q-31 -114 -80 -198zM1858 694l-70 6q10 46 10 101
q0 40 -10 98l70 8q8 -49 8 -106q0 -72 -8 -107zM1833 1030l-68 -16q-29 97 -73 180l61 39q61 -115 80 -203zM1681 1346l-59 -50q-55 71 -139 142l45 55q68 -55 153 -147zM1378 1505q-96 54 -178 74l21 70q92 -24 196 -80q-1 0 -18.5 -29.5t-20.5 -34.5zM874 -78l7 78
q87 -10 96 -10q32 0 102 8l8 -72q-37 -6 -110 -6q-70 0 -103 2z" />
    <glyph glyph-name="_161" unicode="&#x25ce;" 
d="M383 795q0 -166 80.5 -303.5t218 -216t301.5 -78.5t301.5 78.5t218 216t80.5 303.5t-80.5 304t-218 217t-301.5 79t-301.5 -79t-218 -217t-80.5 -304zM1448 795q0 -209 -130.5 -342.5t-334.5 -133.5t-334.5 133.5t-130.5 342.5q0 210 130.5 343.5t334.5 133.5
t334.5 -133.5t130.5 -343.5zM1876 797q0 186 -70 352t-189.5 285t-284.5 188.5t-349 69.5q-185 0 -350.5 -69.5t-285 -188.5t-189.5 -285t-70 -352q0 -247 117.5 -452t323 -323t454.5 -118q185 0 350.5 69.5t284.5 188.5t188.5 284.5t69.5 350.5zM225 797q0 160 58 302.5
t158 246t241 163.5t301 60t301 -60t241 -163.5t158 -246t58 -302.5t-58 -302.5t-158 -246t-241 -163.5t-301 -60t-301 60t-241 163.5t-158 246t-58 302.5z" />
    <glyph glyph-name="_160" unicode="&#x25cf;" 
d="M1876 797q0 184 -71 350t-190.5 285.5t-284.5 189.5t-347 70t-347.5 -70t-285.5 -189.5t-191 -285.5t-71 -350q0 -123 32 -239.5t89 -214.5t139 -180t180.5 -139t215 -88.5t239.5 -31.5q183 0 348.5 70t284.5 188.5t189.5 284.5t70.5 350z" />
    <glyph glyph-name="_230" unicode="&#x25d0;" 
d="M1876 797q0 184 -71 350t-190.5 285.5t-284.5 189.5t-347 70t-347.5 -70t-285.5 -189.5t-191 -285.5t-71 -350q0 -123 32 -239.5t89 -214.5t139 -180t180.5 -139t215 -88.5t239.5 -31.5q183 0 348.5 70t284.5 188.5t189.5 284.5t70.5 350zM983 1544q206 0 377 -99.5
t268.5 -271t97.5 -376.5q0 -204 -97.5 -376t-268.5 -272t-377 -100v1495z" />
    <glyph glyph-name="_231" unicode="&#x25d1;" 
d="M88 797q0 -184 70.5 -350t189.5 -284.5t284.5 -188.5t348.5 -70q123 0 239.5 31.5t215 88.5t180.5 139t139 180t89 214.5t32 239.5q0 184 -71 350t-191 285.5t-285.5 189.5t-347.5 70t-347 -70t-284.5 -189.5t-190.5 -285.5t-71 -350zM981 49q-206 0 -377 100t-268.5 272
t-97.5 376q0 205 97.5 376.5t268.5 271t377 99.5v-1495z" />
    <glyph glyph-name="_8775" unicode="&#x25e6;" 
d="M985 1454q175 0 326 -88.5t240 -239t89 -325.5q0 -132 -52.5 -254t-141 -210.5t-209.5 -141t-252 -52.5q-133 0 -254.5 52.5t-210 141t-141.5 210t-53 254.5q0 175 89 325.5t241 239t329 88.5zM985 1284q-202 0 -345.5 -142.5t-143.5 -340.5q0 -133 65.5 -245.5
t178 -177.5t245.5 -65q131 0 242.5 65t177 177.5t65.5 245.5q0 198 -143 340.5t-342 142.5z" />
    </font>
</defs>
</svg>
